<?xml version="1.0" encoding="utf-8"?>

<!DOCTYPE svg PUBLIC "-//W3C//DTD SVG 1.1//EN" "http://www.w3.org/Graphics/SVG/1.1/DTD/svg11.dtd">
<!-- Uploaded to: SVG Repo, www.svgrepo.com, Generator: SVG Repo Mixer Tools -->
<svg height="800px" width="800px" version="1.1" id="_x32_" xmlns="http://www.w3.org/2000/svg" xmlns:xlink="http://www.w3.org/1999/xlink" 
	 viewBox="0 0 512 512"  xml:space="preserve">
<style type="text/css">
	.st0{fill:#000000;}
</style>
<g>
	<path class="st0" d="M512,255.993l-63.304-51.63l28.999-76.354l-80.635-13.07l-13.063-80.635L307.63,63.311L256,0.013l-7.862,9.64
		l-43.78,53.658L128.01,34.305l-13.076,80.635l-80.622,13.07l28.993,76.354L0,255.993l63.305,51.636l-28.993,76.361l80.622,13.076
		l13.07,80.629l76.354-29L256,511.987l51.63-63.292l76.367,29l13.063-80.629l80.642-13.076l-29.006-76.361L512,255.993z
		 M449.885,367.935l-70.52,11.437l-11.424,70.514l-66.786-25.366L256,479.882l-45.168-55.363l-66.773,25.366l-11.431-70.514
		l-70.513-11.43l25.358-66.793L32.118,256l55.356-45.155l-25.358-66.78l70.513-11.43l11.431-70.514l66.773,25.359L256,32.125
		l45.155,55.356l66.786-25.366l11.424,70.52l70.52,11.43l-25.359,66.78L479.882,256l-55.356,45.148L449.885,367.935z"/>
	<path class="st0" d="M165.87,268.515l-30.677,6.858c-0.509,0.118-0.813-0.08-0.926-0.582l-4.024-17.985
		c-0.112-0.502,0.079-0.806,0.588-0.918l36.842-8.246c0.747-0.165,1.136-0.786,0.972-1.539l-3.013-13.453
		c-0.165-0.753-0.786-1.143-1.526-0.978l-54.828,12.263c-0.754,0.172-1.149,0.793-0.978,1.546l18.567,82.988
		c0.172,0.753,0.786,1.137,1.546,0.965l15.963-3.568c0.753-0.171,1.143-0.779,0.971-1.532l-7.202-32.191
		c-0.112-0.502,0.086-0.813,0.594-0.926l30.677-6.864c0.754-0.165,1.144-0.786,0.972-1.539l-2.98-13.328
		C167.238,268.732,166.624,268.343,165.87,268.515z"/>
	<path class="st0" d="M238.464,267.853c8.497-6.264,12.336-16.234,9.891-27.169c-3.488-15.594-17.502-23.945-34.986-20.033
		l-34.067,7.624c-0.753,0.165-1.15,0.78-0.978,1.54l18.566,82.981c0.172,0.753,0.786,1.143,1.546,0.978l15.964-3.574
		c0.753-0.172,1.143-0.786,0.971-1.539l-6.838-30.553c-0.106-0.502,0.086-0.812,0.595-0.925l11.437-2.557l21.718,28.015
		c0.568,0.8,1.037,1.091,2.167,0.839l17.859-4.003c0.879-0.192,1.077-1.031,0.542-1.705L238.464,267.853z M220.697,258.094
		l-15.084,3.377c-0.509,0.112-0.819-0.086-0.932-0.589l-4.414-19.742c-0.112-0.502,0.079-0.807,0.588-0.919l15.084-3.376
		c7.043-1.579,12.501,1.553,13.935,7.975C231.335,251.355,227.741,256.515,220.697,258.094z"/>
	<path class="st0" d="M328.126,267.986l-36.842,8.246c-0.503,0.112-0.807-0.079-0.926-0.588l-3.964-17.727
		c-0.112-0.502,0.079-0.807,0.581-0.925l30.685-6.858c0.753-0.172,1.15-0.793,0.978-1.546l-2.98-13.321
		c-0.172-0.76-0.793-1.15-1.546-0.978l-30.678,6.859c-0.502,0.118-0.806-0.08-0.925-0.582l-3.793-16.974
		c-0.112-0.502,0.08-0.812,0.582-0.918l36.842-8.246c0.746-0.172,1.137-0.786,0.971-1.539l-3.013-13.452
		c-0.165-0.76-0.786-1.143-1.526-0.978l-54.828,12.263c-0.753,0.172-1.15,0.786-0.978,1.539l18.566,82.988
		c0.172,0.753,0.787,1.143,1.547,0.971l54.82-12.263c0.747-0.165,1.137-0.786,0.965-1.54l-3.007-13.452
		C329.487,268.211,328.872,267.82,328.126,267.986z"/>
	<path class="st0" d="M399.141,252.102l-36.836,8.24c-0.502,0.112-0.812-0.086-0.925-0.588l-3.964-17.728
		c-0.112-0.502,0.086-0.812,0.588-0.918l30.671-6.872c0.767-0.165,1.15-0.78,0.984-1.533l-2.98-13.334
		c-0.172-0.753-0.786-1.142-1.546-0.978l-30.678,6.872c-0.502,0.106-0.807-0.086-0.919-0.588l-3.799-16.974
		c-0.112-0.502,0.079-0.806,0.582-0.925l36.835-8.24c0.767-0.172,1.156-0.786,0.991-1.539l-3.013-13.452
		c-0.172-0.76-0.78-1.15-1.546-0.978l-54.814,12.263c-0.753,0.171-1.15,0.786-0.978,1.539l18.566,82.988
		c0.172,0.753,0.786,1.143,1.54,0.972l54.814-12.263c0.766-0.172,1.156-0.786,0.984-1.54l-3.013-13.452
		C400.522,252.32,399.908,251.93,399.141,252.102z"/>
</g>
</svg>