<?xml version="1.0" encoding="iso-8859-1"?>
<!-- Uploaded to: SVG Repo, www.svgrepo.com, Generator: SVG Repo Mixer Tools -->
<svg fill="#000000" height="800px" width="800px" version="1.1" id="Layer_1" xmlns="http://www.w3.org/2000/svg" xmlns:xlink="http://www.w3.org/1999/xlink" 
	 viewBox="0 0 512.043 512.043" xml:space="preserve">
<g>
	<g>
		<path d="M202.144,362.667h-21.547c-2.837,0-5.376,1.152-7.296,2.965c1.365-5.504-1.771-11.136-7.253-12.757
			c-5.653-1.707-11.584,1.557-13.248,7.211l-3.008,10.219c-1.685,5.653,1.557,11.584,7.211,13.248
			c1.003,0.32,2.027,0.448,3.008,0.448c4.608,0,8.875-3.008,10.24-7.659l0.171-0.576c1.131,4.672,5.163,8.235,10.176,8.235h21.547
			c5.888,0,10.667-4.779,10.667-10.667C212.811,367.445,208.032,362.667,202.144,362.667z"/>
	</g>
</g>
<g>
	<g>
		<path d="M149.131,378.005c-2.325-5.44-8.661-7.957-13.995-5.611l-19.819,8.491c-5.397,2.325-7.915,8.597-5.589,13.995
			c1.728,4.053,5.653,6.464,9.792,6.464c1.387,0,2.816-0.256,4.203-0.853L143.52,392
			C148.939,389.675,151.456,383.403,149.131,378.005z"/>
	</g>
</g>
<g>
	<g>
		<path d="M89.696,403.456c-2.304-5.461-8.64-7.979-13.995-5.611l-19.797,8.491c-5.419,2.325-7.936,8.597-5.611,14.016
			c1.728,4.053,5.653,6.464,9.792,6.464c1.408,0,2.837-0.256,4.203-0.875l19.797-8.491
			C89.504,415.125,92.021,408.853,89.696,403.456z"/>
	</g>
</g>
<g>
	<g>
		<path d="M396.704,380.864l-19.819-8.491c-5.355-2.325-11.691,0.171-13.995,5.611c-2.325,5.397,0.192,11.669,5.611,13.995
			l19.797,8.491c1.365,0.597,2.795,0.875,4.203,0.875c4.139,0,8.085-2.411,9.792-6.485
			C404.619,389.461,402.102,383.189,396.704,380.864z"/>
	</g>
</g>
<g>
	<g>
		<path d="M456.118,406.336l-19.797-8.491c-5.376-2.347-11.669,0.192-13.995,5.611c-2.325,5.397,0.192,11.669,5.611,13.995
			l19.797,8.491c1.365,0.597,2.795,0.875,4.203,0.875c4.117,0,8.064-2.411,9.792-6.464
			C464.054,414.933,461.536,408.661,456.118,406.336z"/>
	</g>
</g>
<g>
	<g>
		<path d="M511.691,435.669c-0.171-1.024-0.384-2.005-0.832-2.944c-0.085-0.171-0.064-0.384-0.149-0.555L276.107,5.675
			c-0.149-0.277-0.384-0.491-0.576-0.768c-0.256-0.384-0.533-0.725-0.832-1.088c-0.277-0.341-0.533-0.661-0.853-0.96
			c-0.363-0.32-0.747-0.597-1.152-0.875c-0.171-0.107-0.277-0.299-0.427-0.405c-0.192-0.107-0.405-0.128-0.619-0.235
			c-0.021,0-0.043-0.021-0.064-0.021c-0.427-0.235-0.853-0.448-1.323-0.619c-0.213-0.085-0.363-0.235-0.576-0.299
			c-0.256-0.064-0.491,0-0.747-0.064c-0.448-0.107-0.896-0.128-1.365-0.171c-0.085,0-0.171-0.043-0.277-0.064
			C267.168,0.128,267.04,0,266.87,0c-0.021,0-0.064,0.021-0.085,0.021c-0.021,0-0.064-0.021-0.107-0.021
			c-0.192,0-0.341,0.107-0.533,0.107c-0.448,0.021-0.875,0.064-1.323,0.149c-0.192,0.043-0.405-0.021-0.597,0.021
			c-0.32,0.064-0.533,0.277-0.832,0.384c-0.448,0.149-0.875,0.256-1.28,0.469c-0.384,0.192-0.725,0.405-1.088,0.64
			c-0.427,0.277-0.811,0.576-1.195,0.917c-0.341,0.299-0.661,0.555-0.981,0.896c-0.277,0.299-0.491,0.619-0.725,0.96
			c-0.149,0.213-0.384,0.384-0.533,0.619c-0.021,0.021-0.043,0.021-0.064,0.043l-256,426.667c-0.128,0.235-0.107,0.512-0.235,0.747
			c-0.469,0.896-0.725,1.856-0.896,2.859c-0.107,0.512-0.277,0.981-0.299,1.515c-0.043,1.195,0.192,2.411,0.576,3.605
			c0.085,0.277,0.021,0.597,0.149,0.875c0.021,0.021,0.043,0.043,0.064,0.085v0.021c0.021,0.043,0.085,0.064,0.107,0.128
			c0.768,1.707,2.005,3.072,3.499,4.16c0.512,0.384,1.045,0.555,1.621,0.832c0.683,0.341,1.259,0.853,2.005,1.024l256,64
			c0.832,0.213,1.707,0.32,2.581,0.32c0.939,0,1.877-0.128,2.795-0.384l234.667-64c0.683-0.192,1.216-0.683,1.856-0.981
			c0.555-0.277,1.067-0.469,1.579-0.832c1.536-1.131,2.837-2.496,3.605-4.288c0.064-0.171,0.021-0.363,0.085-0.533
			c0.448-1.344,0.704-2.667,0.661-3.968C511.926,436.587,511.755,436.139,511.691,435.669z M256.011,362.667h-10.773
			c-5.888,0-10.667,4.779-10.667,10.667c0,5.888,4.779,10.667,10.667,10.667h10.773v103.68L30.795,431.36
			c-0.128-0.789-0.171-1.621-0.512-2.411c-0.277-0.64-0.768-1.088-1.131-1.643l206.4-344.021c0.725,3.776,3.392,7.061,7.339,8.235
			c1.003,0.32,2.027,0.448,3.008,0.448c4.544,0,8.683-2.965,10.112-7.467V362.667z M256.011,51.541
			c-0.384-0.171-0.661-0.448-1.067-0.555l1.067-1.792V51.541z M481.76,428.928c-0.405,0.939-0.469,1.899-0.597,2.859
			l-203.797,55.595l-0.021-113.515c0-0.192,0.107-0.341,0.107-0.533c0-0.192-0.085-0.341-0.107-0.533V90.112
			c1.728,1.173,3.776,1.941,5.952,1.941c0.811,0,1.643-0.085,2.453-0.277c4.651-1.088,7.723-5.099,8.064-9.643l189.504,344.533
			C482.763,427.392,482.123,428.053,481.76,428.928z"/>
	</g>
</g>
<g>
	<g>
		<path d="M237.11,111.317c-5.675-1.685-11.584,1.557-13.248,7.211l-5.931,20.117c-1.685,5.653,1.557,11.584,7.211,13.248
			c1.003,0.32,2.027,0.448,3.008,0.448c4.608,0,8.853-3.008,10.24-7.659l5.931-20.117
			C246.006,118.912,242.763,112.981,237.11,111.317z"/>
	</g>
</g>
<g>
	<g>
		<path d="M219.318,171.712c-5.717-1.707-11.584,1.579-13.248,7.211l-5.909,20.117c-1.685,5.675,1.557,11.584,7.211,13.248
			c1.003,0.32,2.027,0.448,3.008,0.448c4.629,0,8.875-3.008,10.24-7.659l5.909-20.117
			C228.214,179.285,224.992,173.376,219.318,171.712z"/>
	</g>
</g>
<g>
	<g>
		<path d="M201.568,232.085c-5.717-1.685-11.584,1.579-13.248,7.211l-5.909,20.139c-1.685,5.675,1.557,11.584,7.211,13.248
			c1.003,0.32,2.027,0.448,3.008,0.448c4.608,0,8.853-3.008,10.24-7.659l5.909-20.139
			C210.464,239.659,207.222,233.749,201.568,232.085z"/>
	</g>
</g>
<g>
	<g>
		<path d="M183.798,292.48c-5.696-1.685-11.584,1.557-13.248,7.211l-5.909,20.117c-1.685,5.675,1.557,11.584,7.211,13.248
			c1.003,0.32,2.027,0.448,3.008,0.448c4.629,0,8.875-3.008,10.24-7.659l5.909-20.117
			C192.693,300.053,189.451,294.144,183.798,292.48z"/>
	</g>
</g>
<g>
	<g>
		<path d="M350.496,320.277l-4.736-20.117c-1.365-5.717-7.147-9.28-12.843-7.936c-5.717,1.365-9.259,7.104-7.936,12.843
			l4.736,20.117c1.152,4.907,5.525,8.213,10.368,8.213c0.811,0,1.643-0.085,2.475-0.277
			C348.278,331.755,351.84,326.016,350.496,320.277z"/>
	</g>
</g>
<g>
	<g>
		<path d="M322.102,199.616l-4.736-20.117c-1.344-5.76-7.211-9.28-12.821-7.957c-5.739,1.344-9.301,7.083-7.957,12.821l4.736,20.117
			c1.152,4.928,5.525,8.235,10.368,8.235c0.811,0,1.643-0.085,2.453-0.277C319.883,211.093,323.446,205.355,322.102,199.616z"/>
	</g>
</g>
<g>
	<g>
		<path d="M307.915,139.285l-4.736-20.117c-1.344-5.739-7.189-9.301-12.821-7.957c-5.739,1.344-9.301,7.083-7.957,12.821
			l4.736,20.117c1.152,4.928,5.525,8.235,10.368,8.235c0.811,0,1.621-0.085,2.453-0.277
			C305.696,150.763,309.259,145.024,307.915,139.285z"/>
	</g>
</g>
<g>
	<g>
		<path d="M336.31,259.947l-4.736-20.096c-1.344-5.76-7.211-9.259-12.821-7.957c-5.739,1.344-9.301,7.083-7.957,12.821l4.736,20.096
			c1.152,4.928,5.525,8.235,10.368,8.235c0.811,0,1.643-0.085,2.453-0.277C334.091,271.424,337.654,265.685,336.31,259.947z"/>
	</g>
</g>
<g>
	<g>
		<path d="M362.422,370.88l-2.453-10.389c-1.365-5.739-7.168-9.237-12.843-7.936c-5.717,1.365-9.28,7.104-7.936,12.843l0.256,1.109
			c-1.941-2.304-4.757-3.84-8.021-3.84h-21.547c-5.888,0-10.667,4.779-10.667,10.667c0,5.888,4.779,10.667,10.667,10.667h21.547
			c5.077,0,9.109-3.605,10.197-8.32l0.021,0.107c1.152,4.907,5.525,8.213,10.368,8.213c0.811,0,1.621-0.085,2.475-0.277
			C360.203,382.357,363.766,376.619,362.422,370.88z"/>
	</g>
</g>
</svg>