<?xml version="1.0" encoding="iso-8859-1"?>
<!-- Uploaded to: SVG Repo, www.svgrepo.com, Generator: SVG Repo Mixer Tools -->
<svg fill="#000000" height="800px" width="800px" version="1.1" id="Layer_1" xmlns="http://www.w3.org/2000/svg" xmlns:xlink="http://www.w3.org/1999/xlink" 
	 viewBox="0 0 511.939 511.939" xml:space="preserve">
<g>
	<g>
		<path d="M511.889,245.08c0-0.256-0.064-0.491-0.085-0.768c-0.021-0.363-0.171-0.64-0.235-0.981
			c-0.064-0.341-0.149-0.661-0.235-1.003c-0.128-0.448-0.128-0.917-0.32-1.323c-0.32-0.725-0.853-1.323-1.323-1.963
			c-0.085-0.128-0.171-0.277-0.277-0.405c-0.128-0.171-0.107-0.405-0.256-0.555L295.825,3.416c-0.384-0.427-0.875-0.661-1.323-1.024
			c-0.469-0.384-0.875-0.811-1.408-1.109c-0.043-0.021-0.064-0.064-0.107-0.085c-0.021-0.021-0.043,0-0.064-0.021
			c-0.512-0.277-1.088-0.363-1.621-0.555c-0.704-0.235-1.365-0.533-2.112-0.619c-0.597-0.021-1.173,0.085-1.771,0.128
			c-0.597,0.021-1.173-0.021-1.771,0.107c-0.107,0.021-0.192,0-0.299,0.021c-0.064,0.021-0.107,0.064-0.171,0.085
			c-0.597,0.149-1.088,0.491-1.664,0.747c-0.384,0.171-0.811,0.235-1.173,0.469L5.009,172.227c-0.149,0.064-0.171,0.256-0.32,0.341
			c-0.555,0.384-1.152,0.661-1.621,1.152c-0.213,0.192-0.299,0.469-0.491,0.704c-0.683,0.789-1.387,1.6-1.835,2.645
			c-0.832,1.984-0.853,4.032-0.491,5.995c0.043,0.213-0.107,0.405-0.064,0.619l64,277.333c0.043,0.213,0.256,0.32,0.299,0.533
			c0.128,0.448,0.149,0.917,0.341,1.344c0.213,0.491,0.619,0.875,0.896,1.323c0.448,0.725,0.853,1.451,1.493,2.048
			c0.064,0.043,0.064,0.128,0.128,0.171c0.725,0.661,1.6,1.088,2.453,1.515c0.299,0.149,0.512,0.405,0.811,0.533
			c0.021,0,0.043,0,0.064,0.021c0.555,0.213,1.152,0.235,1.728,0.363c0.235,0.043,0.384,0.256,0.619,0.299l288,42.667
			c0.491,0.064,1.024,0.107,1.515,0.107c0,0,0,0,0.021,0c0.021,0,0,0,0.021,0c0.363,0,0.704-0.021,1.067-0.043
			c0.341-0.043,0.619-0.213,0.939-0.277c0.789-0.149,1.557-0.363,2.304-0.704c0.341-0.149,0.683-0.235,1.003-0.405
			c0.192-0.107,0.32-0.299,0.491-0.405c0.256-0.171,0.555-0.235,0.811-0.448c0.277-0.213,0.405-0.533,0.64-0.768
			c0.576-0.555,1.067-1.109,1.493-1.771c0.149-0.213,0.384-0.384,0.512-0.597c0.021-0.043,0.085-0.064,0.107-0.107l138.667-256
			c0.064-0.128,0.021-0.277,0.085-0.405c0.128-0.277,0.299-0.512,0.427-0.811c0.021-0.064,0.085-0.085,0.107-0.128
			c0.256-0.661,0.213-1.344,0.32-2.005c0.107-0.597,0.363-1.131,0.363-1.749C511.911,245.208,511.889,245.144,511.889,245.08z
			 M288.871,31.064c0.576,0.107,1.024,0.555,1.621,0.555c0.619,0,1.259-0.128,1.899-0.235l184.725,203.221H460.86
			c1.045-1.045,2.176-2.005,2.731-3.477c2.091-5.525-0.725-11.669-6.229-13.739l-18.859-7.061
			c-5.568-2.069-11.669,0.725-13.739,6.251c-2.091,5.525,0.725,11.669,6.229,13.739l11.456,4.288h-95.851l-0.107-1.067
			c-0.576-5.888-6.293-10.155-11.669-9.557c-5.504,0.533-9.429,5.227-9.429,10.624h-29.525l6.912-7.488
			c4.011-4.331,3.733-11.072-0.597-15.083c-4.309-3.968-11.051-3.712-15.061,0.619l-14.208,15.403
			c-1.728,1.877-2.496,4.203-2.667,6.549h-92.373l23.275-42.667h12.096c5.888,0,10.667-4.779,10.667-10.667
			s-4.779-10.667-10.667-10.667h-0.469L288.871,31.064z M259.345,40.707l-71.275,130.667c-3.989,1.557-6.827,5.355-6.827,9.899
			c0,0.683,0.256,1.28,0.384,1.92l-26.432,48.469l-93.867-40.235c0.853,0.213,1.664,0.512,2.581,0.512h21.333
			c5.888,0,10.667-4.779,10.667-10.667s-4.779-10.667-10.667-10.667H63.911c-5.888,0-10.667,4.779-10.667,10.667
			c0,3.797,2.091,6.955,5.077,8.853l-24.619-10.56L259.345,40.707z M25.703,199.341l120.427,51.627L77.308,423.043L25.703,199.341z
			 M92.455,450.456c-0.043-1.621-0.533-3.157-1.301-4.629l9.067-22.699c0.533,1.707,1.365,3.349,2.773,4.651
			c2.048,1.899,4.651,2.837,7.232,2.837c2.88,0,5.717-1.152,7.829-3.435l14.208-15.381c4.011-4.352,3.733-11.093-0.597-15.083
			c-4.309-3.989-11.051-3.712-15.061,0.597l-10.688,11.584l57.045-142.613l34.453,43.52l-9.771,10.603
			c-4.011,4.331-3.733,11.072,0.597,15.083c2.048,1.877,4.651,2.816,7.232,2.816c2.88,0,5.739-1.152,7.829-3.435l7.488-8.128
			l126.677,160.021L92.455,450.456z M361.852,480.195c-0.469-0.021-0.917-0.192-1.387-0.149c-0.32,0.021-0.555,0.213-0.875,0.256
			L181.969,255.939h67.691c-1.899,0.491-3.733,1.344-5.163,2.88L230.289,274.2c-4.011,4.352-3.733,11.093,0.597,15.083
			c2.048,1.899,4.651,2.837,7.232,2.837c2.88,0,5.739-1.152,7.829-3.435l14.208-15.381c4.011-4.352,3.733-11.093-0.597-15.083
			c-1.237-1.131-2.667-1.835-4.181-2.283h71.979l0.107,1.045c0.533,5.504,5.184,9.6,10.581,9.6c0.363,0,0.725-0.021,1.088-0.043
			c5.504-0.533,9.429-5.205,9.429-10.603h134.784L361.852,480.195z"/>
	</g>
</g>
<g>
	<g>
		<path d="M314.897,74.627l-4.693-18.752c-1.429-5.717-7.339-9.259-12.928-7.765c-5.717,1.429-9.173,7.211-7.765,12.928
			l4.693,18.752c1.195,4.864,5.547,8.085,10.347,8.085c0.853,0,1.728-0.107,2.581-0.32
			C312.849,86.125,316.305,80.344,314.897,74.627z"/>
	</g>
</g>
<g>
	<g>
		<path d="M328.956,130.84l-4.693-18.731c-1.429-5.717-7.296-9.237-12.928-7.765c-5.717,1.429-9.173,7.211-7.765,12.928
			l4.693,18.731c1.195,4.864,5.547,8.085,10.347,8.085c0.853,0,1.749-0.107,2.581-0.32
			C326.908,142.339,330.364,136.557,328.956,130.84z"/>
	</g>
</g>
<g>
	<g>
		<path d="M344.295,175.021l-4.736-1.771l-1.237-4.907c-1.429-5.739-7.168-9.237-12.928-7.765
			c-4.885,1.216-7.915,5.675-7.872,10.517c-4.715,1.109-8.277,5.141-8.277,10.176c0,3.115,1.387,5.845,3.52,7.808
			c0,2.88,1.067,5.76,3.349,7.872c2.048,1.877,4.651,2.816,7.232,2.816c0.32,0,0.64-0.171,0.96-0.192
			c1.92,1.835,4.501,2.987,7.317,2.987c0.341,0,0.725-0.021,1.088-0.064c4.267-0.427,7.637-3.328,8.96-7.147
			c3.861-0.427,7.403-2.709,8.853-6.592C352.615,183.256,349.82,177.091,344.295,175.021z"/>
	</g>
</g>
<g>
	<g>
		<path d="M400.828,196.227l-18.837-7.061c-5.483-2.069-11.669,0.704-13.739,6.229c-2.091,5.525,0.704,11.669,6.229,13.739
			l18.837,7.061c1.237,0.469,2.496,0.683,3.755,0.683c4.309,0,8.384-2.645,9.984-6.912
			C409.148,204.44,406.353,198.296,400.828,196.227z"/>
	</g>
</g>
<g>
	<g>
		<path d="M361.447,382.915l-2.155-21.333c-0.576-5.888-6.272-10.112-11.669-9.557c-5.867,0.576-10.133,5.824-9.536,11.669
			l2.155,21.333c0.533,5.504,5.184,9.6,10.581,9.6c0.384,0,0.725-0.021,1.088-0.043C357.777,394.008,362.044,388.76,361.447,382.915
			z"/>
	</g>
</g>
<g>
	<g>
		<path d="M367.847,446.915l-2.133-21.333c-0.576-5.867-5.547-9.963-11.669-9.557c-5.845,0.576-10.112,5.824-9.536,11.669
			l2.133,21.333c0.533,5.525,5.163,9.621,10.581,9.621c0.363,0,0.704-0.021,1.088-0.064
			C364.156,458.008,368.423,452.76,367.847,446.915z"/>
	</g>
</g>
<g>
	<g>
		<path d="M355.025,318.872l-2.133-21.333c-0.555-5.867-5.461-10.048-11.669-9.557c-5.845,0.576-10.112,5.824-9.536,11.669
			l2.133,21.333c0.533,5.525,5.163,9.621,10.581,9.621c0.363,0,0.725-0.021,1.088-0.064
			C351.335,329.965,355.601,324.717,355.025,318.872z"/>
	</g>
</g>
<g>
	<g>
		<path d="M277.244,170.605h-21.333c-5.888,0-10.667,4.779-10.667,10.667s4.779,10.667,10.667,10.667h21.333
			c5.888,0,10.667-4.779,10.667-10.667S283.132,170.605,277.244,170.605z"/>
	</g>
</g>
<g>
	<g>
		<path d="M149.244,170.605h-21.333c-5.888,0-10.667,4.779-10.667,10.667s4.779,10.667,10.667,10.667h21.333
			c5.888,0,10.667-4.779,10.667-10.667S155.132,170.605,149.244,170.605z"/>
	</g>
</g>
<g>
	<g>
		<path d="M174.289,350.552c-4.309-3.968-11.051-3.712-15.061,0.619l-14.208,15.403c-4.011,4.331-3.733,11.072,0.597,15.083
			c2.048,1.877,4.651,2.816,7.232,2.816c2.88,0,5.739-1.152,7.829-3.435l14.208-15.403
			C178.897,361.304,178.62,354.563,174.289,350.552z"/>
	</g>
</g>
</svg>