<?xml version="1.0" encoding="iso-8859-1"?>
<!-- Uploaded to: SVG Repo, www.svgrepo.com, Generator: SVG Repo Mixer Tools -->
<svg fill="#000000" height="800px" width="800px" version="1.1" id="Layer_1" xmlns="http://www.w3.org/2000/svg" xmlns:xlink="http://www.w3.org/1999/xlink" 
	 viewBox="0 0 512 512" xml:space="preserve">
<g>
	<g>
		<path d="M384.555,306.112c-4.971-3.2-11.563-1.749-14.741,3.2l-10.56,16.427c-3.179,4.971-1.749,11.563,3.2,14.741
			c1.792,1.173,3.776,1.707,5.76,1.707c3.499,0,6.933-1.749,8.981-4.907l10.56-16.427
			C390.933,315.883,389.504,309.291,384.555,306.112z"/>
	</g>
</g>
<g>
	<g>
		<path d="M334.976,76.459l-4.309-5.483V64c0-5.888-4.779-10.667-10.667-10.667S309.333,58.112,309.333,64v3.691l-3.371,1.472
			c-5.397,2.347-7.872,8.64-5.504,14.037c2.368,5.397,8.64,7.936,14.037,5.504l2.219-0.96l1.493,1.899
			c2.112,2.688,5.248,4.075,8.405,4.075c2.283,0,4.608-0.747,6.571-2.283C337.813,87.787,338.624,81.088,334.976,76.459z"/>
	</g>
</g>
<g>
	<g>
		<path d="M282.219,91.2c-2.347-5.397-8.619-7.851-14.037-5.504l-18.88,8.256c-5.419,2.347-7.872,8.64-5.504,14.037
			c1.749,4.011,5.653,6.4,9.771,6.4c1.429,0,2.88-0.277,4.267-0.896l18.88-8.256C282.133,102.891,284.587,96.597,282.219,91.2z"/>
	</g>
</g>
<g>
	<g>
		<path d="M167.659,279.381l-1.173-20.011c-0.341-5.888-5.525-10.176-11.264-10.027c-5.888,0.341-10.368,5.397-10.027,11.264
			l1.173,20.011c0.341,5.675,5.035,10.048,10.645,10.048c0.213,0,0.427,0,0.619-0.021C163.52,290.304,168,285.248,167.659,279.381z"
			/>
	</g>
</g>
<g>
	<g>
		<path d="M233.024,336.875l-20.075-4.715c-5.653-1.301-11.477,2.197-12.821,7.957c-1.344,5.717,2.219,11.477,7.957,12.821
			l20.075,4.715c0.811,0.192,1.643,0.277,2.453,0.277c4.821,0,9.216-3.307,10.368-8.235
			C242.325,343.979,238.763,338.219,233.024,336.875z"/>
	</g>
</g>
<g>
	<g>
		<path d="M293.269,351.061l-20.075-4.736c-5.739-1.301-11.499,2.197-12.843,7.936s2.197,11.499,7.936,12.843l20.075,4.736
			c0.811,0.192,1.643,0.277,2.453,0.277c4.821,0,9.216-3.307,10.389-8.213C302.549,358.165,299.008,352.405,293.269,351.061z"/>
	</g>
</g>
<g>
	<g>
		<path d="M113.301,121.664l-15.296-6.805c-5.376-2.347-11.669,0.043-14.08,5.419c-2.389,5.376,0.043,11.691,5.419,14.08
			l15.296,6.805c1.408,0.619,2.88,0.917,4.331,0.917c4.096,0,8-2.368,9.749-6.336C121.109,130.368,118.677,124.053,113.301,121.664z
			"/>
	</g>
</g>
<g>
	<g>
		<path d="M168.875,140.8c-2.347-5.397-8.64-7.893-14.037-5.504l-5.461,2.389l-5.461-2.432c-5.376-2.368-11.691,0.043-14.08,5.419
			c-2.389,5.376,0.043,11.691,5.419,14.08l3.819,1.685l0.235,4.16c0.341,5.675,5.035,10.048,10.645,10.048
			c0.213,0,0.427,0,0.619-0.021c5.888-0.341,10.368-5.376,10.027-11.264l-0.192-3.221l2.965-1.301
			C168.768,152.491,171.243,146.197,168.875,140.8z"/>
	</g>
</g>
<g>
	<g>
		<path d="M127.979,359.125c-3.947-4.437-10.667-4.821-15.061-0.896l-16,14.229c-4.416,3.925-4.821,10.667-0.896,15.061
			c2.112,2.368,5.035,3.584,7.979,3.584c2.517,0,5.035-0.875,7.083-2.688l16-14.229C131.499,370.261,131.904,363.52,127.979,359.125
			z"/>
	</g>
</g>
<g>
	<g>
		<path d="M364.16,433.152L360.725,416c-1.131-5.76-6.677-9.536-12.544-8.363c-5.76,1.152-9.515,6.763-8.363,12.544l3.435,17.152
			c1.024,5.077,5.483,8.576,10.453,8.576c0.683,0,1.408-0.064,2.091-0.213C361.557,444.544,365.312,438.933,364.16,433.152z"/>
	</g>
</g>
<g>
	<g>
		<path d="M512,224c0-0.683-0.277-1.28-0.384-1.941c-0.085-0.469,0.021-0.96-0.149-1.408l-42.667-128
			c-0.043-0.149-0.149-0.256-0.213-0.384c-0.128-0.341-0.363-0.661-0.533-0.981c-0.448-0.853-0.939-1.664-1.579-2.389
			c-0.107-0.128-0.149-0.299-0.277-0.427c-0.235-0.235-0.533-0.299-0.768-0.512c-0.405-0.341-0.704-0.747-1.152-1.024L325.611,1.6
			c-0.149-0.085-0.363-0.043-0.512-0.128C323.563,0.619,321.877,0,320,0c-0.171,0-0.32,0.085-0.512,0.107
			c-0.085,0-0.149-0.064-0.235-0.064L170.517,10.667c-0.064,0-0.107,0-0.171,0.021l-0.427,0.021c-0.171,0-0.299,0.149-0.469,0.171
			c-1.045,0.128-2.112,0.256-3.136,0.704c-0.491,0.213-0.832,0.619-1.28,0.896c-0.192,0.128-0.427,0.107-0.619,0.235L47.083,98.048
			c-0.192,0.149-0.32,0.363-0.491,0.512c-0.427,0.341-0.747,0.725-1.109,1.131c-0.533,0.597-0.981,1.216-1.365,1.899
			c-0.149,0.277-0.405,0.469-0.533,0.747c-0.107,0.256-0.085,0.533-0.171,0.811c-0.107,0.256-0.299,0.491-0.363,0.768l-42.667,160
			c-0.064,0.235,0.085,0.469,0.021,0.704C0.277,265.301,0,265.941,0,266.667c0,1.088,0.32,2.069,0.619,3.072
			c0.043,0.171-0.043,0.341,0.021,0.512l0.192,0.533c0,0.021,0,0.043,0.021,0.043l53.013,148.437
			c0.043,0.107,0.064,0.192,0.107,0.299v0.021c0,0,0,0,0,0.021c0.448,1.237,1.109,2.432,2.048,3.477
			c0.533,0.597,1.237,0.917,1.877,1.365c0.235,0.171,0.277,0.491,0.512,0.64l138.667,85.333c0.213,0.128,0.512,0.085,0.725,0.213
			c0.384,0.213,0.683,0.533,1.109,0.683c1.237,0.469,2.496,0.683,3.755,0.683c0.469,0,0.939-0.021,1.429-0.085l160-21.333
			c0.064,0,0.128-0.064,0.192-0.085c0.149-0.021,0.299-0.021,0.469-0.043c1.493-0.299,2.837-0.917,4.011-1.728
			c0.064-0.043,0.128-0.043,0.192-0.085l117.333-85.333c0.661-0.469,1.067-1.152,1.6-1.749c0.235-0.277,0.576-0.384,0.789-0.683
			c0.085-0.107,0.085-0.256,0.171-0.384c0.405-0.619,0.64-1.323,0.917-2.027c0.256-0.661,0.555-1.28,0.661-1.963
			c0.021-0.171,0.149-0.32,0.171-0.491l21.333-170.667c0.021-0.235-0.085-0.448-0.064-0.683C511.872,224.427,512,224.235,512,224z
			 M309.504,22.101C309.909,27.627,314.389,32,320,32c3.264,0,6.08-1.557,8.043-3.883L441.6,97.984l-50.261,50.261l-23.595-5.547
			c1.557-0.32,3.157-0.512,4.48-1.557c4.629-3.648,5.44-10.347,1.792-14.976l-13.013-16.555c-3.627-4.629-10.325-5.44-14.976-1.792
			c-4.629,3.648-5.44,10.347-1.792,14.976l13.013,16.555c0.427,0.555,1.045,0.811,1.557,1.237l-137.899-32.448l-34.325-77.248
			L309.504,22.101z M164.117,219.392l-0.299-5.269l53.184-82.731l3.072-1.344c0.043-0.021,0.085-0.064,0.128-0.085l161.131,37.888
			c0.299,1.643,0.875,3.243,1.963,4.651l1.515,1.941l6.016,102.272c-2.368,3.861-1.941,8.619,0.704,12.032l2.709,45.845
			l-44.672,19.499c-4.288-1.003-8.896,0.597-11.413,4.501l-0.448,0.683l-3.307,1.451l-1.003-0.235
			c-4.971-1.173-9.792,1.451-11.904,5.888l-83.541,36.544l-57.771-73.536c-0.811-2.091-2.133-3.904-4.053-5.141l-45.717-58.197
			l22.784-35.435c0.085,0,0.171,0.064,0.277,0.064c0.213,0,0.427,0,0.619-0.021C159.979,230.315,164.459,225.259,164.117,219.392z
			 M60.544,121.131c0.853,0.213,1.685,0.533,2.56,0.533c4.075,0,7.979-2.347,9.749-6.336c1.365-3.115,0.981-6.464-0.512-9.28
			l93.931-68.309l34.432,77.461l-8.107,3.541c-5.397,2.389-7.851,8.683-5.483,14.08c0.448,1.024,1.344,1.6,2.048,2.389
			l-35.029,54.485c-0.811-0.149-1.6-0.405-2.453-0.363c-5.888,0.341-10.368,5.397-10.027,11.264l0.448,7.808L111.509,256H24.576
			L60.544,121.131z M197.205,485.461L81.195,414.059c2.155-3.861,1.877-8.747-1.237-12.224c-2.795-3.157-7.019-4.16-10.795-3.115
			L25.813,277.333h86.336l36.779,46.827l0.107,1.963l-4.117,3.648c-4.416,3.925-4.821,10.667-0.896,15.061
			c2.112,2.368,5.035,3.584,7.979,3.584c2.539,0,5.056-0.875,7.083-2.688l3.84-3.392l0.341,0.085l59.285,75.456L197.205,485.461z
			 M368.469,462.613c-2.432-2.773-6.101-4.331-9.984-3.52c-5.525,1.109-9.067,6.293-8.363,11.819l-131.221,17.493l24.171-64.448
			l89.664-39.232l0.235,1.152c1.024,5.077,5.483,8.576,10.453,8.576c0.683,0,1.387-0.064,2.091-0.213
			c5.781-1.152,9.515-6.763,8.363-12.544l-1.152-5.717l51.328-22.464l57.707,41.216L368.469,462.613z M471.659,375.616
			l-55.979-39.979l-3.136-53.333l6.891-10.731c3.179-4.949,1.749-11.563-3.221-14.741c-1.643-1.045-3.456-1.429-5.248-1.515
			l-3.691-62.613c1.408-0.341,2.795-0.896,4.011-1.856c4.629-3.627,5.44-10.347,1.792-14.976l-7.339-9.365l-0.128-2.368
			l48.427-48.427l32.811,98.389c-3.989,1.557-6.827,5.376-6.827,9.899c-0.021,5.397,4.075,9.707,9.28,10.389L471.659,375.616z"/>
	</g>
</g>
<g>
	<g>
		<path d="M448,213.333h-5.461l-3.413-4.331c-3.648-4.629-10.325-5.419-14.976-1.792c-4.629,3.648-5.44,10.347-1.792,14.976
			l1.899,2.411l-1.664,2.581c-3.179,4.971-1.749,11.563,3.2,14.741c1.771,1.152,3.776,1.707,5.76,1.707
			c3.52,0,6.933-1.728,8.96-4.907l2.624-4.053H448c5.888,0,10.667-4.779,10.667-10.667S453.888,213.333,448,213.333z"/>
	</g>
</g>
</svg>