<?xml version="1.0" ?><!-- Uploaded to: SVG Repo, www.svgrepo.com, Generator: SVG Repo Mixer Tools -->
<svg fill="#000000" width="800px" height="800px" viewBox="0 0 100 100" data-name="Layer 1" id="Layer_1" xmlns="http://www.w3.org/2000/svg"><title/><path d="M86.99872,29.9895c-.00012-.01105-.0036-.02167-.00409-.03277a.99019.99019,0,0,0-.07178-.32221c-.00525-.01337-.00317-.0274-.009-.04065-.0036-.00812-.011-.01282-.01477-.02075a.9917.9917,0,0,0-.19812-.27911c-.018-.01789-.037-.03217-.05628-.04853a.98559.98559,0,0,0-.09-.07757l-36-24a.99857.99857,0,0,0-1.10938,0l-36,24a.98559.98559,0,0,0-.09.07757c-.01923.01636-.03827.03064-.05628.04853a.9917.9917,0,0,0-.19812.27911c-.00378.00793-.01117.01263-.01477.02075-.00586.01325-.00378.02728-.009.04065a.98747.98747,0,0,0-.07178.32239c-.00049.011-.004.02167-.00409.03265L13,30V70l.00073.0061c.00012.01465.0047.029.00543.04364a.99889.99889,0,0,0,.02832.20569c.00672.02533.01978.04859.02845.07343a1.00245,1.00245,0,0,0,.06683.15918l.007.01678c.01392.02381.0343.04187.05.06421a.98612.98612,0,0,0,.09454.12152,1.00707,1.00707,0,0,0,.08124.07007.97232.97232,0,0,0,.08276.07141l36,24a.9775.9775,0,0,0,.109.05127.95424.95424,0,0,0,.09924.04669.98514.98514,0,0,0,.693,0,.95424.95424,0,0,0,.09924-.04669.9775.9775,0,0,0,.109-.05127l36-24a463.02063,463.02063,0,0,1,.16607-.14325.994.994,0,0,0,.092-.119c.01624-.02313.037-.04187.05146-.06659l.00671-.01611a.99256.99256,0,0,0,.06415-.15308c.01-.02771.02447-.054.03186-.08227a1.00828,1.00828,0,0,0,.0202-.148.98466.98466,0,0,0,.01276-.103L87,70V30Zm-3.06525-.16534L68.30084,36.772l-3.47748-6.23736A.97217.97217,0,0,0,65,30a1,1,0,0,0-1-1h-.03217L52.88849,9.1275Zm-33.7771-21.49,11.5542,20.72424A.988.988,0,0,0,61,30a1,1,0,0,0,1,1h.793l3.34515,6H33.72583l3.439-6H38a1,1,0,0,0,1-1,.98727.98727,0,0,0-.721-.94373Zm-2.58374.4859L36.00592,29H36a1,1,0,0,0-1,1,.97236.97236,0,0,0,.14941.49432l-3.56817,6.22522L16.06653,29.82416ZM15,31.53876l15.58966,6.92877-5.454,9.696a.99806.99806,0,0,0-.63824.10352,1.01187,1.01187,0,0,0-.38788,1.38049l.09582.1698L15,66.18243Zm10.41705,20.204a1.01014,1.01014,0,0,0,1.46283-1.32208l-.36017-.63819L32,40.03973l5.54987,9.8664-.13062.225a.9766.9766,0,0,0,.39685,1.35462,1.04677,1.04677,0,0,0,.67731.09784l5.61523,9.9826A.97983.97983,0,0,0,44,62a.9906.9906,0,0,0,.9043.98065L48.29016,69H15.70984ZM49,92.13141,17.30286,71H49Zm1-24.17114-2.81152-4.99836A.986.986,0,0,0,48,62a1,1,0,0,0-1-1h-.91516L39.87976,49.96863l.41345-.7124a.97673.97673,0,0,0-.39691-1.35462,1.06368,1.06368,0,0,0-1.13385.08069L33.7099,39H66.29016l-5.05261,8.98242a1.06,1.06,0,0,0-1.13324-.08026.97769.97769,0,0,0-.39453,1.355l.4118.70923L53.91516,61H53a1,1,0,0,0-1,1,.98611.98611,0,0,0,.81158.962Zm1,24.17114V71H82.69714ZM51.70984,69l3.38586-6.01935A.99065.99065,0,0,0,56,62a.98.98,0,0,0-.10864-.43384l5.61523-9.9826a1.04291,1.04291,0,0,0,.678-.09839.97774.97774,0,0,0,.39459-1.355l-.12957-.22315,5.47308-9.72992,5.50494,9.69867-.30755.54493A1.00341,1.00341,0,0,0,74.50854,51.78L84.28253,69ZM85,66.21234,75.74463,49.90619l.14593-.25861A1.00958,1.00958,0,0,0,74.76031,48.172l-5.47637-9.64832L85,31.53876Z"/><path d="M21.89319,41.58527a1.01632,1.01632,0,0,0-1.773.994l.99725,1.76709a1.01635,1.01635,0,0,0,1.77307-.994Z"/><path d="M29.87183,55.722a1.01628,1.01628,0,0,0-1.77295.994l.99725,1.76709a1.01633,1.01633,0,0,0,1.77307-.994Z"/><path d="M17.90387,34.51691a1.01635,1.01635,0,0,0-1.77307.994l.99731,1.767a1.01632,1.01632,0,0,0,1.77307-.99389Z"/><path d="M30,29H28a1,1,0,0,0,0,2h2a1,1,0,0,0,0-2Z"/><path d="M22,29H20a1,1,0,0,0,0,2h2a1,1,0,0,0,0-2Z"/><path d="M44,31h2a1,1,0,0,0,0-2H44a1,1,0,0,0,0,2Z"/><path d="M54,31h2a1,1,0,0,0,0-2H54a1,1,0,0,0,0,2Z"/><path d="M70,31h2a1,1,0,0,0,0-2H70a1,1,0,0,0,0,2Z"/><path d="M78,31h2a1,1,0,0,0,0-2H78a1,1,0,0,0,0,2Z"/><path d="M69.82788,62.81238c.003-.00672.00177-.01386.00458-.02063-.00849.01971-.02106.03729-.03021.0567C69.80908,62.83484,69.82166,62.82642,69.82788,62.81238Z"/><path d="M73.76849,63.10583l-1.415-.65344a.94846.94846,0,0,0-1.27033.50763,1.0159,1.0159,0,0,0,.48859,1.32l1.41491.65344a.9485.9485,0,0,0,1.27039-.50769A1.01581,1.01581,0,0,0,73.76849,63.10583Z"/><path d="M77.23151,66.8938l1.415.65344a.94843.94843,0,0,0,1.27033-.50763,1.01593,1.01593,0,0,0-.48853-1.32l-1.415-.65344a.9485.9485,0,0,0-1.27039.50769A1.01581,1.01581,0,0,0,77.23151,66.8938Z"/><path d="M63,61H61a1,1,0,0,0,0,2h2a1,1,0,0,0,0-2Z"/><path d="M39,61H37a1,1,0,0,0,0,2h2a1,1,0,0,0,0-2Z"/><path d="M21.98669,65.06653,20.57178,65.72a1.0158,1.0158,0,0,0-.48859,1.31995.94844.94844,0,0,0,1.27033.50769l1.415-.65351a1.01579,1.01579,0,0,0,.48859-1.31994A.94847.94847,0,0,0,21.98669,65.06653Z"/><path d="M27.64648,62.4527l-1.415.65344a1.01583,1.01583,0,0,0-.48859,1.31995.9485.9485,0,0,0,1.27039.50769l1.415-.65345a1.01584,1.01584,0,0,0,.48853-1.31994A.94841.94841,0,0,0,27.64648,62.4527Z"/><path d="M46.3913,36.71094a1.05307,1.05307,0,0,0,1.40515-.38263l1.0719-1.8468a.97664.97664,0,0,0-.39685-1.35462,1.05314,1.05314,0,0,0-1.40522.38263l-1.0719,1.8468A.97657.97657,0,0,0,46.3913,36.71094Z"/><path d="M33.5285,58.87311a1.05323,1.05323,0,0,0,1.40522-.38269l1.0719-1.8468A.97662.97662,0,0,0,35.6087,55.289a1.05313,1.05313,0,0,0-1.40521.38263l-1.0719,1.84686A.97677.97677,0,0,0,33.5285,58.87311Z"/><path d="M44.18384,40.51428a1.053,1.053,0,0,0-1.40515.38257l-1.0719,1.84686a.97667.97667,0,0,0,.39691,1.35462,1.05307,1.05307,0,0,0,1.40515-.38263l1.0719-1.8468A.97654.97654,0,0,0,44.18384,40.51428Z"/><path d="M65.7959,55.67072a1.04968,1.04968,0,0,0-1.40259-.38117.97766.97766,0,0,0-.39459,1.355L65.071,58.49139a1.04976,1.04976,0,0,0,1.40259.38123.97774.97774,0,0,0,.39459-1.355Z"/><path d="M52.2041,36.32916a1.04971,1.04971,0,0,0,1.40259.38123.97758.97758,0,0,0,.39459-1.35492L52.929,33.50854a1.04973,1.04973,0,0,0-1.40259-.38116.97766.97766,0,0,0-.39459,1.355Z"/><path d="M56.4931,43.71655a1.04968,1.04968,0,0,0,1.40259.38123.97762.97762,0,0,0,.39453-1.35492L57.218,40.89594a1.04972,1.04972,0,0,0-1.40259-.38117.97776.97776,0,0,0-.39459,1.355Z"/><path d="M50,31a1.00006,1.00006,0,1,0-.70709-.29291A1.00659,1.00659,0,0,0,50,31Z"/><path d="M32,61a1.00006,1.00006,0,1,0,.70709.29291A1.00659,1.00659,0,0,0,32,61Z"/><path d="M36.73779,72.64984l1.03351,1.75977a1.07149,1.07149,0,0,0,1.427.38226.98413.98413,0,0,0,.39838-1.36938l-1.03357-1.75983a1.07152,1.07152,0,0,0-1.427-.38226A.984.984,0,0,0,36.73779,72.64984Z"/><path d="M46.03961,88.4881a1.07135,1.07135,0,0,0,1.42694.3822.98406.98406,0,0,0,.39832-1.36938L46.8313,85.74109a1.07128,1.07128,0,0,0-1.42694-.3822.984.984,0,0,0-.39832,1.36932Z"/><path d="M41.90546,81.44885a1.07141,1.07141,0,0,0,1.427.3822.98408.98408,0,0,0,.39831-1.36938L42.6972,78.70184a1.07143,1.07143,0,0,0-1.42694-.3822.98414.98414,0,0,0-.39837,1.36945Z"/><path d="M34.94843,65.50751a.98366.98366,0,0,0-.17963-.19959,1.06548,1.06548,0,0,0-1.24738-.18286.97627.97627,0,0,0-.42871,1.28009.89167.89167,0,0,0,.03021.08917l.514.87574a1.07147,1.07147,0,0,0,1.427.3825.984.984,0,0,0,.3985-1.36932Z"/><path d="M77.49731,44.73291a1.019,1.019,0,0,0,1.3852-.38654l.99731-1.76709a1.01632,1.01632,0,0,0-1.773-.994l-.99731,1.76709A1.01188,1.01188,0,0,0,77.49731,44.73291Z"/><path d="M71.51337,55.33545a1.019,1.019,0,0,0-1.38526.38653l-.99725,1.76709a1.01628,1.01628,0,0,0,1.77295.994l.99737-1.76709A1.01193,1.01193,0,0,0,71.51337,55.33545Z"/><path d="M81.48669,37.66455a1.019,1.019,0,0,0,1.3852-.3866l.99731-1.767a1.01635,1.01635,0,0,0-1.77307-.994l-.99731,1.76715A1.01189,1.01189,0,0,0,81.48669,37.66455Z"/><path d="M52.533,88.8703a1.07,1.07,0,0,0,1.42578-.38214l1.03272-1.75952a.98406.98406,0,0,0-.398-1.36908,1.07032,1.07032,0,0,0-1.42591.38214l-1.03259,1.75952A.98406.98406,0,0,0,52.533,88.8703Z"/><path d="M56.66376,81.8324a1.07019,1.07019,0,0,0,1.4259-.38214l1.03259-1.75946a.9841.9841,0,0,0-.398-1.36914,1.07013,1.07013,0,0,0-1.42578.38214l-1.03271,1.75952A.98408.98408,0,0,0,56.66376,81.8324Z"/><path d="M60.79449,74.79456a1.07033,1.07033,0,0,0,1.42591-.38221l1.03271-1.75946a.98426.98426,0,0,0-.398-1.36914,1.07032,1.07032,0,0,0-1.4259.3822l-1.03271,1.75947A.9842.9842,0,0,0,60.79449,74.79456Z"/><path d="M66.46686,65.12958A1.0702,1.0702,0,0,0,65.041,65.512l-.12415.21149-.38953.66406a.98427.98427,0,0,0,.39826,1.36908,1.07021,1.07021,0,0,0,1.42578-.38244l.39313-.67005.12054-.2055A.98416.98416,0,0,0,66.46686,65.12958Z"/><path d="M68,61a1.00006,1.00006,0,1,0,.70709.29291A1.00659,1.00659,0,0,0,68,61Z"/><path d="M50,19a1,1,0,0,0,1-1V16a1,1,0,0,0-2,0v2A1,1,0,0,0,50,19Z"/><path d="M50,27a.98588.98588,0,0,0,.95258-.765A.96109.96109,0,0,0,51,26V24a1,1,0,0,0-2,0v2A1,1,0,0,0,50,27Z"/></svg>