<?xml version="1.0" encoding="iso-8859-1"?>
<!-- Uploaded to: SVG Repo, www.svgrepo.com, Generator: SVG Repo Mixer Tools -->
<svg fill="#000000" height="800px" width="800px" version="1.1" id="Layer_1" xmlns="http://www.w3.org/2000/svg" xmlns:xlink="http://www.w3.org/1999/xlink" 
	 viewBox="0 0 512 512" xml:space="preserve">
<g>
	<g>
		<path d="M271.104,362.667h-21.419c-5.888,0-10.667,4.779-10.667,10.667c0,5.888,4.779,10.667,10.667,10.667h21.419
			c5.888,0,10.667-4.779,10.667-10.667C281.771,367.445,276.992,362.667,271.104,362.667z"/>
	</g>
</g>
<g>
	<g>
		<path d="M206.805,362.667h-4.139c0-5.888-4.779-10.667-10.667-10.667s-10.667,4.779-10.667,10.667v4.608l-0.491,0.299
			c-5.035,3.029-6.677,9.579-3.648,14.635c2.005,3.349,5.525,5.184,9.152,5.184c1.877,0,3.776-0.491,5.461-1.515l3.115-1.877h11.883
			c5.888,0,10.667-4.779,10.667-10.667C217.472,367.445,212.693,362.667,206.805,362.667z"/>
	</g>
</g>
<g>
	<g>
		<path d="M396.352,391.957l-15.147-15.147c-2.197-2.197-5.099-3.157-7.957-3.029c0-0.149,0.085-0.277,0.085-0.448v-10.667
			c0-5.888-4.779-10.667-10.667-10.667S352,356.779,352,362.667v10.667c0,5.888,4.779,10.667,10.667,10.667
			c0.149,0,0.277-0.085,0.427-0.085c-0.128,2.88,0.832,5.781,3.029,7.979l15.147,15.147c2.091,2.069,4.821,3.115,7.552,3.115
			s5.461-1.045,7.531-3.115C400.512,402.88,400.512,396.117,396.352,391.957z"/>
	</g>
</g>
<g>
	<g>
		<path d="M436.864,72.384c-0.107-0.491-0.107-1.003-0.299-1.472c-0.533-1.429-1.323-2.731-2.368-3.797l-64-64
			c-0.107-0.107-0.235-0.128-0.341-0.235c-0.917-0.853-1.941-1.579-3.115-2.069c-0.875-0.363-1.856-0.448-2.795-0.555
			C363.52,0.213,363.115,0,362.667,0H192c-0.043,0-0.064,0.021-0.085,0.021c-1.771,0-3.349,0.555-4.821,1.323
			c-0.192,0.107-0.427,0.064-0.597,0.171l-106.667,64c-0.341,0.192-0.512,0.555-0.811,0.789c-0.725,0.533-1.344,1.131-1.92,1.835
			c-0.384,0.491-0.725,0.981-1.024,1.536c-0.427,0.768-0.683,1.579-0.896,2.475c-0.107,0.427-0.384,0.789-0.448,1.216
			c-0.021,0.213,0.085,0.427,0.064,0.64c-0.021,0.235-0.128,0.427-0.128,0.661v362.667c0,0.256,0.128,0.469,0.149,0.704
			c0.043,0.683,0.213,1.344,0.405,2.027c0.192,0.704,0.384,1.387,0.725,2.048c0.107,0.235,0.107,0.491,0.256,0.704
			c0.149,0.256,0.448,0.363,0.619,0.597c0.341,0.491,0.555,1.045,0.981,1.472l64,64c0.491,0.491,1.152,0.768,1.728,1.152
			c0.576,0.384,1.067,0.875,1.707,1.131c1.28,0.533,2.667,0.832,4.096,0.832H320c1.813,0,3.435-0.555,4.928-1.365
			c0.171-0.085,0.384-0.064,0.555-0.149l106.667-64c0.277-0.171,0.405-0.491,0.661-0.683c0.448-0.32,0.981-0.512,1.387-0.917
			c0.469-0.469,0.683-1.045,1.045-1.557c0.299-0.448,0.619-0.811,0.853-1.301c0.704-1.429,1.152-2.944,1.195-4.501
			c0-0.064,0.043-0.128,0.043-0.192V74.667C437.333,73.856,437.035,73.152,436.864,72.384z M138.667,392.875l-12.928,7.765
			c-5.035,3.029-6.677,9.579-3.648,14.635c2.005,3.349,5.525,5.184,9.152,5.184c1.856,0,3.755-0.469,5.483-1.536l1.941-1.173v57.835
			l-36.565-36.565c3.179-3.392,4.032-8.491,1.515-12.672c-1.707-2.837-4.565-4.459-7.616-4.907V100.437l42.667,42.667V392.875z
			 M309.333,363.819c-3.541,1.728-6.037,5.291-6.037,9.515s2.496,7.765,6.037,9.515v107.819H160v-90.453
			c0.171-1.131,0.213-2.283,0-3.413V149.333h24.448c1.941,1.941,4.608,3.136,7.552,3.136s5.611-1.195,7.552-3.136h109.781V363.819z
			 M317.035,128H202.667v-6.272c0-5.888-4.779-10.667-10.667-10.667s-10.667,4.779-10.667,10.667V128h-27.584l-51.221-51.221
			l81.344-48.789C185.813,30.379,188.672,32,192,32c5.888,0,10.667-4.779,10.667-10.667H352C352,27.221,356.779,32,362.667,32
			c1.792,0,3.413-0.555,4.907-1.344l41.899,41.899L317.035,128z M416,419.733c-1.621,0.491-3.157,1.237-4.437,2.517
			c-3.456,3.456-3.861,8.619-1.6,12.672l-79.296,47.573c0,0,0-98.496,0-98.496h4.715c5.909,0,10.667-4.779,10.667-10.667
			c0-5.888-4.779-10.667-10.667-10.667h-4.715V144.704l21.333-12.8v9.899c0,5.888,4.779,10.667,10.667,10.667
			s10.667-4.779,10.667-10.667v-20.075c0-0.832-0.299-1.557-0.469-2.325L416,93.504V419.733z"/>
	</g>
</g>
<g>
	<g>
		<path d="M192,291.776c-5.888,0-10.667,4.779-10.667,10.667v20.075c0,5.888,4.779,10.667,10.667,10.667s10.667-4.779,10.667-10.667
			v-20.075C202.667,296.555,197.888,291.776,192,291.776z"/>
	</g>
</g>
<g>
	<g>
		<path d="M192,50.837c-5.888,0-10.667,4.779-10.667,10.667v20.075c0,5.888,4.779,10.667,10.667,10.667s10.667-4.779,10.667-10.667
			V61.504C202.667,55.616,197.888,50.837,192,50.837z"/>
	</g>
</g>
<g>
	<g>
		<path d="M192,231.531c-5.888,0-10.667,4.779-10.667,10.667v20.075c0,5.888,4.779,10.667,10.667,10.667s10.667-4.779,10.667-10.667
			v-20.075C202.667,236.309,197.888,231.531,192,231.531z"/>
	</g>
</g>
<g>
	<g>
		<path d="M192,171.307c-5.888,0-10.667,4.779-10.667,10.667v20.075c0,5.888,4.779,10.667,10.667,10.667s10.667-4.779,10.667-10.667
			v-20.075C202.667,176.085,197.888,171.307,192,171.307z"/>
	</g>
</g>
<g>
	<g>
		<path d="M362.667,291.776c-5.888,0-10.667,4.779-10.667,10.667v20.075c0,5.888,4.779,10.667,10.667,10.667
			s10.667-4.779,10.667-10.667v-20.075C373.333,296.555,368.555,291.776,362.667,291.776z"/>
	</g>
</g>
<g>
	<g>
		<path d="M362.667,231.531c-5.888,0-10.667,4.779-10.667,10.667v20.075c0,5.888,4.779,10.667,10.667,10.667
			s10.667-4.779,10.667-10.667v-20.075C373.333,236.309,368.555,231.531,362.667,231.531z"/>
	</g>
</g>
<g>
	<g>
		<path d="M362.667,171.307c-5.888,0-10.667,4.779-10.667,10.667v20.075c0,5.888,4.779,10.667,10.667,10.667
			s10.667-4.779,10.667-10.667v-20.075C373.333,176.085,368.555,171.307,362.667,171.307z"/>
	</g>
</g>
<g>
	<g>
		<path d="M362.667,50.837c-5.888,0-10.667,4.779-10.667,10.667v20.075c0,5.888,4.779,10.667,10.667,10.667
			s10.667-4.779,10.667-10.667V61.504C373.333,55.616,368.555,50.837,362.667,50.837z"/>
	</g>
</g>
</svg>