<?xml version="1.0" encoding="iso-8859-1"?>
<!-- Uploaded to: SVG Repo, www.svgrepo.com, Generator: SVG Repo Mixer Tools -->
<svg fill="#000000" height="800px" width="800px" version="1.1" id="Layer_1" xmlns="http://www.w3.org/2000/svg" xmlns:xlink="http://www.w3.org/1999/xlink" 
	 viewBox="0 0 511.931 511.931" xml:space="preserve">
<g>
	<g>
		<path d="M179.493,262.416c-5.717-1.301-11.435,2.389-12.693,8.149l-4.992,22.891c-1.259,5.76,2.389,11.435,8.149,12.693
			c0.768,0.171,1.536,0.256,2.283,0.256c4.907,0,9.323-3.413,10.411-8.405l4.992-22.891
			C188.901,269.349,185.253,263.675,179.493,262.416z"/>
	</g>
</g>
<g>
	<g>
		<path d="M209.573,125.072c-5.781-1.28-11.435,2.347-12.693,8.128l-5.013,22.891c-1.259,5.76,2.368,11.435,8.128,12.693
			c0.768,0.171,1.515,0.256,2.283,0.256c4.907,0,9.323-3.392,10.411-8.384l5.013-22.891
			C218.96,132.005,215.333,126.331,209.573,125.072z"/>
	</g>
</g>
<g>
	<g>
		<path d="M194.555,193.744c-5.739-1.259-11.435,2.347-12.693,8.128l-5.013,22.891c-1.259,5.76,2.368,11.435,8.128,12.693
			c0.768,0.171,1.515,0.256,2.283,0.256c4.907,0,9.323-3.392,10.411-8.384l5.013-22.891
			C203.941,200.677,200.315,195.003,194.555,193.744z"/>
	</g>
</g>
<g>
	<g>
		<path d="M172.859,341.52c0-4.907-3.392-9.323-8.384-10.411c-5.803-1.301-11.435,2.347-12.693,8.128l-1.621,7.381l-5.333,5.333
			c-4.16,4.16-4.16,10.923,0,15.083c2.091,2.069,4.821,3.115,7.552,3.115s5.461-1.045,7.531-3.115l4.437-4.437h6.251
			c5.888,0,10.667-4.779,10.645-10.667C181.243,346.832,177.659,342.565,172.859,341.52z"/>
	</g>
</g>
<g>
	<g>
		<path d="M239.163,341.264h-22.848c-5.888,0-10.667,4.779-10.667,10.667c0,5.888,4.779,10.667,10.667,10.667h22.848
			c5.909,0,10.667-4.779,10.667-10.667C249.829,346.043,245.051,341.264,239.163,341.264z"/>
	</g>
</g>
<g>
	<g>
		<path d="M376.315,341.264h-22.848c-5.888,0-10.667,4.779-10.667,10.667c0,5.888,4.779,10.667,10.667,10.667h22.848
			c5.888,0,10.667-4.779,10.667-10.667C386.981,346.043,382.203,341.264,376.315,341.264z"/>
	</g>
</g>
<g>
	<g>
		<path d="M444.88,341.264h-22.848c-5.888,0-10.667,4.779-10.667,10.667c0,5.888,4.779,10.667,10.667,10.667h22.848
			c5.909,0,10.667-4.779,10.667-10.667C455.547,346.043,450.768,341.264,444.88,341.264z"/>
	</g>
</g>
<g>
	<g>
		<path d="M126.373,385.488c-4.16-4.16-10.923-4.16-15.083,0l-16.789,16.789c-4.16,4.16-4.16,10.923,0,15.083
			c2.091,2.069,4.821,3.115,7.552,3.115c2.731,0,5.44-1.024,7.531-3.115l16.789-16.789
			C130.533,396.411,130.533,389.648,126.373,385.488z"/>
	</g>
</g>
<g>
	<g>
		<path d="M511.589,350.267c-0.107-0.619-0.149-1.216-0.363-1.813c-0.256-0.725-0.64-1.344-1.045-2.005
			c-0.213-0.341-0.299-0.747-0.555-1.067L243.024,4.09c-0.149-0.171-0.277-0.341-0.427-0.491c-0.128-0.149-0.32-0.149-0.448-0.277
			c-1.365-1.408-3.008-2.581-5.056-3.051c-0.043,0-0.064-0.043-0.085-0.064c-0.021,0-0.043,0-0.064,0c0,0-0.021,0-0.021-0.021
			c-0.021,0-0.021,0-0.043,0c-0.299-0.064-0.597-0.128-0.917-0.171h-0.043c-0.619-0.064-1.259,0.085-1.877,0.107
			c-0.576,0.021-1.152-0.021-1.707,0.107c-0.661,0.149-1.28,0.491-1.92,0.747c-0.597,0.256-1.216,0.448-1.749,0.811
			c-0.085,0.064-0.192,0.064-0.277,0.128c-0.341,0.277-0.683,0.533-1.003,0.832c-0.256,0.235-0.363,0.576-0.597,0.853
			c-0.512,0.576-0.939,1.173-1.323,1.856c-0.192,0.32-0.512,0.576-0.661,0.917L0.891,496.848c-0.021,0.064,0,0.128-0.043,0.192
			c-0.661,1.515-0.917,3.115-0.832,4.715c0.021,0.363,0.149,0.683,0.213,1.045c0.171,1.237,0.555,2.411,1.173,3.541
			c0.128,0.213,0.107,0.491,0.235,0.704c0.149,0.235,0.448,0.341,0.619,0.576c0.299,0.384,0.448,0.853,0.789,1.195
			c0.491,0.491,1.131,0.725,1.685,1.109c0.427,0.299,0.789,0.619,1.259,0.832c1.472,0.704,3.008,1.173,4.608,1.173h341.099
			c0.085,0,0.171,0,0.235,0c0.768,0,1.536-0.085,2.325-0.32c0.021,0,0.021,0,0.021,0c0.021,0,0.021,0,0.021,0
			c0.021,0,0.021,0,0.021,0h0.021c0.021-0.021,0.043-0.021,0.064-0.021h0.021c0.043,0,0.021,0,0.043,0h0.021
			c1.984-0.491,3.712-1.536,5.056-2.923l149.056-149.056c1.536-1.472,2.475-3.435,2.901-5.611c0.128-0.533,0.32-1.067,0.341-1.6
			c0-0.149,0.085-0.299,0.085-0.448C511.931,351.355,511.675,350.843,511.589,350.267z M28.197,490.597
			c-0.128-0.427-0.235-0.853-0.427-1.259L41.04,460.24c0.021,2.709,1.045,5.397,3.115,7.467c2.091,2.069,4.821,3.115,7.552,3.115
			s5.461-1.045,7.531-3.115l16.789-16.789c4.16-4.16,4.16-10.923,0-15.083c-4.16-4.16-10.923-4.16-15.083,0l-16.107,16.107
			L207.973,94.587c1.408,2.688,3.84,4.821,7.04,5.525c0.768,0.171,1.515,0.256,2.283,0.256c4.907,0,9.323-3.392,10.411-8.384
			l5.013-22.891c1.195-5.504-2.133-10.837-7.445-12.395l6.144-13.483l71.275,298.048h-17.792c-5.888,0-10.667,4.779-10.667,10.667
			s4.779,10.667,10.667,10.667h22.848c0.021,0,0.021,0,0.043,0l30.613,128H28.197z M481.296,356.837L357.883,480.251L256.379,55.803
			l226.112,289.429c-1.536,1.835-2.56,4.117-2.56,6.699C479.931,353.744,480.485,355.365,481.296,356.837z"/>
	</g>
</g>
</svg>