<?xml version="1.0" encoding="utf-8"?>
<!-- Generator: Adobe Illustrator 26.5.0, SVG Export Plug-In . SVG Version: 6.00 Build 0)  -->
<svg version="1.1" id="Layer_1" xmlns="http://www.w3.org/2000/svg" xmlns:xlink="http://www.w3.org/1999/xlink" x="0px" y="0px"
	 viewBox="0 0 512 512" style="enable-background:new 0 0 512 512;" xml:space="preserve">
<style type="text/css">
	.st0{fill:#EA4335;}
	.st1{fill:#4285F4;}
	.st2{fill:#34A853;}
	.st3{fill:#FBBC05;}
</style>
<g>
	<path class="st0" d="M324.83,163.44h15.57l44.45-44.45l2.24-18.93c-82.74-73.06-209.23-65.21-282.29,17.53
		c-20.33,23-35.06,50.34-43.05,79.93c4.91-1.96,10.52-2.38,15.57-0.98l89.05-14.72c0,0,4.49-7.43,6.87-7.01
		c39.55-43.47,106.16-48.52,151.87-11.5L324.83,163.44z"/>
	<path class="st1" d="M448.38,197.66c-10.24-37.72-31.27-71.52-60.44-97.46l-62.4,62.4c26.36,21.6,41.37,53.99,40.81,88.07v11.08
		c30.71,0,55.53,24.82,55.53,55.53s-24.82,55.53-55.53,55.53H255.14l-11.08,11.22v66.89L255.14,462h111.21
		c79.79,0.56,145-63.53,145.7-143.46C512.33,270.16,488.49,224.72,448.38,197.66z"/>
	<path class="st2" d="M143.79,461.3H255v-88.91H143.79c-7.85,0-15.71-1.68-23-5.05l-15.57,4.91l-44.87,44.45l-3.93,15.57
		C81.67,451.2,112.24,461.44,143.79,461.3z"/>
	<path class="st3" d="M143.79,172.7C64,173.12-0.37,238.33,0.05,318.12c0.28,44.59,21.04,86.52,56.37,113.73l64.51-64.51
		c-27.91-12.62-40.39-45.58-27.77-73.48c12.62-27.91,45.58-40.39,73.48-27.77c12.34,5.61,22.16,15.43,27.77,27.77l64.51-64.51
		C231.58,193.45,188.95,172.56,143.79,172.7z"/>
</g>
</svg>
