<?xml version="1.0" encoding="iso-8859-1"?>
<!-- Uploaded to: SVG Repo, www.svgrepo.com, Generator: SVG Repo Mixer Tools -->
<svg height="800px" width="800px" version="1.1" id="Layer_1" xmlns="http://www.w3.org/2000/svg" xmlns:xlink="http://www.w3.org/1999/xlink" 
	 viewBox="0 0 512 512" xml:space="preserve">
<g>
	<path style="fill:#B3404A;" d="M497.497,512H14.503c-8.009,0-14.502-6.493-14.502-14.502V14.502C0.001,6.493,6.495,0,14.503,0
		h482.995c8.009,0,14.502,6.493,14.502,14.502v385.151c0,8.009-6.493,14.502-14.502,14.502s-14.502-6.493-14.502-14.502V29.004
		H29.005v453.992h468.493c8.009,0,14.502,6.493,14.502,14.502S505.507,512,497.497,512z"/>
	<path style="fill:#B3404A;" d="M427.065,441.568H84.935c-8.009,0-14.502-6.493-14.502-14.502V154.242
		c0-8.009,6.493-14.502,14.502-14.502c8.009,0,14.502,6.493,14.502,14.502v258.323h313.127V99.436H84.935
		c-8.009,0-14.502-6.493-14.502-14.502s6.493-14.502,14.502-14.502h342.131c8.009,0,14.502,6.493,14.502,14.502v342.132
		C441.567,435.076,435.075,441.568,427.065,441.568z"/>
</g>
<path style="fill:#F4B2B0;" d="M157.444,354.556h197.111V157.444H157.444V354.556z"/>
<path style="fill:#B3404A;" d="M354.556,369.058H157.444c-8.009,0-14.502-6.493-14.502-14.502V157.444
	c0-8.009,6.493-14.502,14.502-14.502h197.111c8.009,0,14.502,6.493,14.502,14.502v197.113
	C369.058,362.566,362.565,369.058,354.556,369.058z M171.946,340.054h168.107V171.946H171.946V340.054z"/>
</svg>