<?xml version="1.0" ?>
<!DOCTYPE svg  PUBLIC '-//W3C//DTD SVG 1.1//EN'  'http://www.w3.org/Graphics/SVG/1.1/DTD/svg11.dtd'>
<!-- Uploaded to: SVG Repo, www.svgrepo.com, Generator: SVG Repo Mixer Tools -->
<svg width="800px" height="800px" viewBox="0 0 32 32" enable-background="new 0 0 32 32" version="1.1" xml:space="preserve" xmlns="http://www.w3.org/2000/svg" xmlns:xlink="http://www.w3.org/1999/xlink">
<g id="Home"/>
<g id="Print"/>
<g id="Mail"/>
<g id="Camera"/>
<g id="Video"/>
<g id="Film"/>
<g id="Message"/>
<g id="Telephone"/>
<g id="User"/>
<g id="File"/>
<g id="Folder"/>
<g id="Map"/>
<g id="Download"/>
<g id="Upload"/>
<g id="Video_Recorder"/>
<g id="Schedule"/>
<g id="Cart"/>
<g id="Setting"/>
<g id="Search"/>
<g id="Pencils"/>
<g id="Group"/>
<g id="Record"/>
<g id="Headphone"/>
<g id="Music_Player"/>
<g id="Sound_On"/>
<g id="Sound_Off"/>
<g id="Lock"/>
<g id="Lock_open"/>
<g id="Love"/>
<g id="Favorite"/>
<g id="Film_1_"/>
<g id="Music"/>
<g id="Puzzle"/>
<g id="Turn_Off"/>
<g id="Book"/>
<g id="Save"/>
<g id="Reload"/>
<g id="Trash"/>
<g id="Tag"/>
<g id="Link"/>
<g id="Like">
<path d="M26,12.2h-6l0.8-1.2c0.7-1.1,1.1-2.4,1.1-3.7V4.8c0-2.1-1.7-3.8-3.8-3.8h-1.4c-2.1,0-3.8,1.7-3.8,3.8v1.9   c0,0.4-0.1,0.8-0.4,1.1l-3.3,4.5H2c-0.5,0-1,0.4-1,1V20v10c0,0.5,0.5,1,1,1h7.7H26c2.8,0,5-2.2,5-5v-6v-2.8   C31,14.4,28.8,12.2,26,12.2z" fill="#FE9803"/>
<path d="M8.7,30V20v-6.8c0-0.2,0.1-0.4,0.2-0.6l0.3-0.4H2c-0.5,0-1,0.4-1,1V20v10c0,0.5,0.5,1,1,1h7.7   C9.2,31,8.7,30.5,8.7,30z" fill="#3F51B5"/>
</g>
<g id="Bad"/>
<g id="Gallery"/>
<g id="Add"/>
<g id="Close"/>
<g id="Forward"/>
<g id="Back"/>
<g id="Buy"/>
<g id="Mac"/>
<g id="Laptop"/>
</svg>