<?xml version="1.0" encoding="utf-8"?>

<!DOCTYPE svg PUBLIC "-//W3C//DTD SVG 1.1//EN" "http://www.w3.org/Graphics/SVG/1.1/DTD/svg11.dtd">
<!-- Uploaded to: SVG Repo, www.svgrepo.com, Generator: SVG Repo Mixer Tools -->
<svg height="800px" width="800px" version="1.1" id="_x32_" xmlns="http://www.w3.org/2000/svg" xmlns:xlink="http://www.w3.org/1999/xlink" 
	 viewBox="0 0 512 512"  xml:space="preserve">
<style type="text/css">
	.st0{fill:#000000;}
</style>
<g>
	<path class="st0" d="M371.812,164.576c-0.533,0-1.066,0.021-1.599,0.032c4.977-13.288,7.694-27.675,7.694-42.7
		C377.907,54.582,323.325,0,255.999,0c-67.326,0-121.908,54.582-121.908,121.908c0,15.025,2.728,29.411,7.694,42.7
		c-0.532-0.011-1.065-0.032-1.598-0.032c-67.326,0-121.906,54.581-121.906,121.906c0,67.326,54.58,121.908,121.906,121.908
		c34.004,0,64.738-13.917,86.838-36.38c-9.398,57.288-20.246,115.108-23.497,122.92C197.433,509.56,204.744,512,208.409,512h95.181
		c3.666,0,10.976-2.44,4.881-17.071c-3.25-7.812-14.098-65.632-23.497-122.92c22.112,22.463,52.844,36.38,86.838,36.38
		c67.326,0,121.907-54.582,121.907-121.908C493.719,219.156,439.137,164.576,371.812,164.576z"/>
</g>
</svg>