<?xml version="1.0" encoding="utf-8"?>

<!DOCTYPE svg PUBLIC "-//W3C//DTD SVG 1.1//EN" "http://www.w3.org/Graphics/SVG/1.1/DTD/svg11.dtd">
<!-- Uploaded to: SVG Repo, www.svgrepo.com, Generator: SVG Repo Mixer Tools -->
<svg version="1.1" id="_x32_" xmlns="http://www.w3.org/2000/svg" xmlns:xlink="http://www.w3.org/1999/xlink" 
	 width="800px" height="800px" viewBox="0 0 512 512"  xml:space="preserve">
<style type="text/css">
<![CDATA[
	.st0{fill:#000000;}
]]>
</style>
<g>
	<path class="st0" d="M511.031,187.125c-6.969-75.75-72.734-124.344-137.359-124.344C309.031,62.781,256,115.172,256,179.797l0,0
		c0-64.625-53.031-117.016-117.656-117.016c-64.641,0-130.406,48.594-137.375,124.344C0.313,194.328,0,201.234,0,207.844
		c-0.625,152.328,169.156,154.891,247.047,235.547c3.141,3.25,2.609,2.969,2.609,2.969c1.609,1.813,3.906,2.859,6.344,2.859
		s4.75-1.047,6.359-2.875c0,0-0.547,0.297,2.609-2.953C342.844,362.719,512.625,360.172,512,207.844
		C512,201.234,511.688,194.328,511.031,187.125z"/>
</g>
</svg>