<?xml version="1.0" encoding="utf-8"?>

<!DOCTYPE svg PUBLIC "-//W3C//DTD SVG 1.1//EN" "http://www.w3.org/Graphics/SVG/1.1/DTD/svg11.dtd">
<!-- Uploaded to: SVG Repo, www.svgrepo.com, Generator: SVG Repo Mixer Tools -->
<svg height="800px" width="800px" version="1.1" id="_x32_" xmlns="http://www.w3.org/2000/svg" xmlns:xlink="http://www.w3.org/1999/xlink" 
	 viewBox="0 0 512 512"  xml:space="preserve">
<style type="text/css">
	.st0{fill:#000000;}
</style>
<g>
	<path class="st0" d="M265.025,6.388c-3.172-3.554-2.621-3.226-2.621-3.226C260.781,1.157,258.447,0,255.995,0
		c-2.451,0-4.776,1.157-6.399,3.162c0,0,0.563-0.328-2.621,3.226c-78.376,88.425-222.85,138.511-222.85,265.794
		c0,6.537,0.287,13.35,0.881,20.438c6.313,74.726,60.485,117.118,119.017,117.118c33.224,0,64.793-22.146,85.899-54.255
		c-9.901,62.076-22.602,130.965-26.168,139.518c-6.081,14.569,1.21,17,4.85,17h94.791c3.64,0,10.919-2.431,4.849-17
		c-3.555-8.553-16.278-77.442-26.156-139.518c21.095,32.109,52.663,54.255,85.888,54.255c58.543,0,112.703-42.392,119.028-117.118
		c0.593-7.088,0.869-13.901,0.869-20.438C487.875,144.899,343.401,94.813,265.025,6.388z"/>
</g>
</svg>