<?xml version="1.0" encoding="utf-8"?>
<!-- Uploaded to: SVG Repo, www.svgrepo.com, Generator: SVG Repo Mixer Tools -->
<svg width="800px" height="800px" viewBox="-7.23 0 309.007 309.007" xmlns="http://www.w3.org/2000/svg"><defs><style>.a{fill:#ffffff;}.b{fill:#7a7473;}.c{fill:#211715;}.d{fill:#f2635f;}</style></defs><path class="a" d="M201.174,73a7.784,7.784,0,0,1,5.435-1.9c3.9.12,5.562,2.124,6.276,3.3,2.134,3.516,2.058,9.994.633,14.012a20.386,20.386,0,0,1-6.565,9.922,14.922,14.922,0,0,1-7.15,2.565l-.323,1.112c-.7,2.051-2.487,5.711-2.487,5.711a73.792,73.792,0,0,1-4.563,7.783l2.071,6.219a27.324,27.324,0,0,0,2.21,5.348c2.65,4.484,8.359,7.068,13.983,8.243,0,0,.419.088.827.186a76.141,76.141,0,0,1-41.6,22.569c-5.964,1.035-12.148,1.329-18.129-.205a27.957,27.957,0,0,1-15.03-9.572c3.347-1.626,6.813-3.312,9.091-4.653a10.96,10.96,0,0,0,4.968-4.984c-8.511.484-16.292-1.714-24.057-6.649-9.372-5.956-14.41-16.52-17.212-28.534-1.615-6.928-3.2-14.478-5.127-21.982,0,0-14.128-33.181,39.567-38.215C200.88,37.945,201.174,73,201.174,73Z"/><path class="b" d="M121.934,59.974c-.1-.308-.221-.631-.37-.974-.572-1.312-1.727-1.71-2.472-1.137-6.354,4.889-13.987,20.024-14.149,25.152,0,0-.022.692-.059,1.713a89.854,89.854,0,0,1-4.422-29.7c.411-8.832,3.191-19.05,7.961-26.461,8.262-12.835,21.943-21.8,39.993-25.116,11.39-2.1,23.146-1.494,36.691,5.64l8.421,4.435,1.647,1.16c8.309,5.852,12.966,13.18,16.606,22.4a48.2,48.2,0,0,1,3.279,14.5c.342,5.26,1.554,17.471-1.32,24.7a9.391,9.391,0,0,0-.855-1.883c-.714-1.175-2.38-3.179-6.276-3.3a7.784,7.784,0,0,0-5.435,1.9s-1.48.423-3.068.871c-1.435.4-9.025-6.195-9.025-6.195-13.157-17.219-28-20.1-31.243-20.883a50.569,50.569,0,0,0-8.965-.335l-.828.307c-10.1,3.749-18.429,13.241-22.938,16.885a1.734,1.734,0,0,1-2.755-1.409A9.057,9.057,0,0,0,121.934,59.974Z"/><path class="c" d="M190.119,116.148c.919,2.758,1.774,5.548,2.779,8.276a18.165,18.165,0,0,0,4.111,6.872c3.488,3.445,8.329,5.327,13.046,6.338a2.456,2.456,0,0,0,2.953-1.676,2.426,2.426,0,0,0-1.677-2.952c-3.942-.845-8.07-2.281-10.928-5.1a13.379,13.379,0,0,1-3.06-5.266c-.909-2.572-1.733-5.176-2.595-7.764A2.455,2.455,0,0,0,191.8,113.2a2.424,2.424,0,0,0-1.676,2.952Z"/><path class="c" d="M131.205,153.753c3.749-2.01,7.631-3.764,11.431-5.675,4.016-2.018,8.115-4,10.25-8.2a2.459,2.459,0,0,0-.861-3.284,2.424,2.424,0,0,0-3.284.861c-1.805,3.552-5.682,5.057-9.077,6.75-3.623,1.806-7.313,3.486-10.882,5.4-2.724,1.46-.3,5.6,2.423,4.145Z"/><path class="c" d="M193.964,16.757c7.113,5.057,11.96,12.213,15.209,20.23,3.312,8.174,4.006,16.968,4.033,25.711.014,4.462-.194,9.122-1.923,13.3a2.414,2.414,0,0,0,1.676,2.952,2.461,2.461,0,0,0,2.952-1.676c1.649-3.983,1.992-8.5,2.08-12.765.081-3.944-.176-7.879-.454-11.811a57.744,57.744,0,0,0-9.712-28.536,46,46,0,0,0-11.438-11.546,2.419,2.419,0,0,0-3.284.861,2.451,2.451,0,0,0,.861,3.283Z"/><path class="c" d="M157.2,49.111a49,49,0,0,1,21.292,10.762,61.385,61.385,0,0,1,8.516,9.018,2.482,2.482,0,0,0,3.284.861,2.417,2.417,0,0,0,.861-3.284c-7.395-9.612-17.121-17.448-28.849-20.99-1.264-.382-2.545-.688-3.828-1-3-.722-4.283,3.906-1.276,4.629Z"/><path class="c" d="M107.343,83.015c.007-.16.022-.318.033-.478-.039.573-.039.253-.014.111.057-.328.121-.654.2-.978a25.32,25.32,0,0,1,.758-2.528,46.952,46.952,0,0,1,2.377-5.513,52.755,52.755,0,0,1,7.237-11.312,23.714,23.714,0,0,1,1.916-1.967c.125-.112.254-.22.379-.333.494-.449.447-.06-.055-.056-1.063.007-.886-.4-.546.676.359,1.131.252,2.384.8,3.447a4.241,4.241,0,0,0,3.606,2.325c2.15.074,3.878-1.969,5.34-3.314,1.635-1.506,3.25-3.033,4.913-4.507,4.291-3.8,8.991-7.457,14.4-9.506a2.466,2.466,0,0,0,1.676-2.952,2.419,2.419,0,0,0-2.952-1.676,50.856,50.856,0,0,0-14.627,9.1c-1.893,1.6-3.714,3.276-5.528,4.962-.688.64-1.376,1.281-2.073,1.911-.305.276-.612.55-.924.82-.554.48-1.168.658.165.425.417-.073.4.723.185-.719a10,10,0,0,0-.412-1.781,5.593,5.593,0,0,0-2.713-3.565c-2.605-1.244-4.716.907-6.366,2.678A53.734,53.734,0,0,0,107,70.322c-1.981,3.836-4.256,8.285-4.455,12.693-.139,3.088,4.661,3.081,4.8,0Z"/><path class="c" d="M154.979,87.727c-.97-2.405-.959-8.127,3.678-9.009,6.186-.489,7.1,6.35,5.294,9.757C162.472,91.264,157.555,92.79,154.979,87.727Z"/><path class="c" d="M118.369,92.007c-.914-2.419-.962-8.153,3.281-8.99,5.667-.428,6.575,6.434,4.953,9.829C125.275,95.626,120.782,97.106,118.369,92.007Z"/><path class="c" d="M138.242,95.232c-.72,1.625-1.412,3.273-1.988,4.956a4.776,4.776,0,0,0-.317,1.806,3.411,3.411,0,0,0,.45,1.6,4.021,4.021,0,0,0,1.232,1.2,4.792,4.792,0,0,0,2.276.76c.322.034.639,0,.961.013a2.421,2.421,0,0,0,2.4-2.4,2.446,2.446,0,0,0-2.4-2.4c-.322-.009-.64.024-.961-.013l.638.086a2.515,2.515,0,0,1-.589-.164l.574.242a3.321,3.321,0,0,1-.577-.342l.485.376a1.589,1.589,0,0,1-.223-.2l.375.485a.761.761,0,0,1-.085-.139l.242.573a1.3,1.3,0,0,1-.073-.237l.086.638a1.867,1.867,0,0,1,0-.442l-.086.638a10.141,10.141,0,0,1,.656-2.02c.279-.728.574-1.449.877-2.167l-.242.573q.213-.5.433-1.006a2.606,2.606,0,0,0,.242-1.849,2.4,2.4,0,0,0-2.952-1.676,2.324,2.324,0,0,0-1.434,1.1Z"/><path class="c" d="M188.148,124.7a64.276,64.276,0,0,0,13.646-22.044,2.4,2.4,0,0,0-4.628-1.276,52.482,52.482,0,0,1-3.984,8.362,61.858,61.858,0,0,1-8.428,11.564c-2.1,2.263,1.289,5.666,3.394,3.394Z"/><path class="c" d="M186.319,7.018A57.609,57.609,0,0,0,155.911.105,71.1,71.1,0,0,0,128.1,7.753a57.232,57.232,0,0,0-20,17.05c-5.965,8.157-9.072,18.251-9.911,28.255a72.167,72.167,0,0,0,.626,15.555,90.358,90.358,0,0,0,4,17.49c1,2.9,5.638,1.655,4.629-1.276-5.994-17.4-7.325-38.556,2.836-54.721,9.123-14.513,25.533-22.831,42.233-24.885A53.019,53.019,0,0,1,183.9,11.162c2.735,1.429,5.165-2.712,2.423-4.144Z"/><path class="c" d="M175.835,127.522a59.073,59.073,0,0,1-19.142,7.98,37.546,37.546,0,0,1-20.172-1.284,35.068,35.068,0,0,1-15.585-10.674c-3.9-4.816-6.326-10.75-8.02-16.655-2.457-8.563-3.973-17.4-6.177-26.034-.764-2.991-5.4-1.724-4.629,1.276,2.076,8.129,3.605,16.4,5.755,24.506,1.735,6.536,4.277,13.066,8.317,18.541,8.739,11.846,24.061,17.459,38.463,15.507,8.494-1.152,16.347-4.56,23.613-9.019,2.628-1.612.22-5.766-2.423-4.144Z"/><path class="c" d="M202.871,74.7a5.462,5.462,0,0,1,3.738-1.2,6.385,6.385,0,0,1,2.118.393,4.428,4.428,0,0,1,.656.318,4.313,4.313,0,0,1,.463.3,5.439,5.439,0,0,1,.5.474c.126.134.472.614.194.209a7.206,7.206,0,0,1,.712,1.245,12.621,12.621,0,0,1,.864,4.219c.3,5.6-1.881,12.244-6.525,15.719-2.277,1.7-5.776,2.715-8.526,1.822-2.945-.956-4.206,3.677-1.276,4.628,3.8,1.233,8.336.1,11.667-1.937,3.457-2.115,5.884-5.721,7.431-9.387a24.23,24.23,0,0,0,2.006-11.217c-.246-3.422-1.149-7.149-3.937-9.4a10.735,10.735,0,0,0-13.477.421,2.421,2.421,0,0,0,0,3.394,2.449,2.449,0,0,0,3.394,0Z"/><path class="c" d="M159.272,72.268a12.331,12.331,0,0,0,7.24,2.262,2.5,2.5,0,0,0,1.7-.7,2.4,2.4,0,0,0-1.7-4.1,9.551,9.551,0,0,1-1.394-.077l.638.085a10.614,10.614,0,0,1-2.647-.724l.573.242a9.986,9.986,0,0,1-1.987-1.132,2.412,2.412,0,0,0-1.85-.242,2.4,2.4,0,0,0-1.676,2.952l.242.573a2.4,2.4,0,0,0,.861.861Z"/><path class="c" d="M175.726,83.4a56.524,56.524,0,0,0,.512,6.7c.277,1.959.577,4.228,1.965,5.751a5.911,5.911,0,0,0,5.955,1.429,6.359,6.359,0,0,0,4.171-4.581A2.4,2.4,0,1,0,183.7,91.43c-.045.153-.095.3-.143.454-.16.506.255-.451,0,.011-.076.137-.158.274-.23.412-.192.375.241-.237.05-.044-.11.112-.224.225-.333.338-.172.18.409-.213.029-.039a3.267,3.267,0,0,1-.3.159l.263-.114a4.089,4.089,0,0,0-.473.136c-.5.137.508.011-.018,0a2.364,2.364,0,0,1-.5,0c0,.022.594.121.069,0-.076-.017-.634-.14-.255-.053.344.078-.052-.05-.146-.094-.454-.216.341.272-.019-.022-.132-.149-.134-.146,0,.007s.127.156.01-.022c-.042-.073-.081-.148-.117-.224-.076-.16-.052-.1.07.174a2.541,2.541,0,0,1-.281-.911c-.087-.345-.156-.693-.223-1.041q-.125-.645-.223-1.3c-.009-.055-.1-.768-.034-.22-.026-.215-.053-.429-.077-.643-.182-1.659-.255-3.328-.292-5a2.4,2.4,0,0,0-4.8,0Z"/><path class="a" d="M140.557,152.184a25.849,25.849,0,0,1-4.475-4.79c-15.835,7.764-30.469,16.764-37.766,27.089-5.584,7.9-7.722,18.667-8.833,28-2.158,18.128-2.667,29.667-3.167,57.167-.288,15.872.156,29.153,6.667,37.333a23.718,23.718,0,0,0,17.833,9.5c11.25.833,23.5-2.583,30.734-7.656,0,0,51.535-14.366,73.331-20.445,2.795,8.547,5.6,18.182,7.331,26.135,14.444-2.284,45.23-12.333,54.269-19.266,6.366-4.884,11.469-10.587,13.78-16.99,4.681-12.972-.222-37.778-5.764-62.729-4.564-20.55-12.222-41.9-23.555-52.667-11.079-10.531-36.285-17.474-48.737-18.084a76.239,76.239,0,0,1-42.285,23.291c-5.964,1.035-12.148,1.329-18.129-.205A28.825,28.825,0,0,1,140.557,152.184Z"/><path class="a" d="M149.488,292.267a7.679,7.679,0,0,1-1.614-1.3,4.661,4.661,0,0,1,1.727-7.3,7.746,7.746,0,0,1-2.392-1.325,4.157,4.157,0,0,1-.962-5.032,3.956,3.956,0,0,1,3.445-2.185c1.991-.171,5.9-.148,11.253-.552,5.218-.393,10.143-1.388,16.92-2.445l-3.938-1.117a29.444,29.444,0,0,1-6.593-1.958,4.685,4.685,0,0,1-2.138-2.026,2.615,2.615,0,0,1-.221-.554c-.02-.07-.028-.149-.044-.223a3.884,3.884,0,0,1-.075-.414c-.011-.1-.011-.2-.015-.308-.006-.125-.014-.247-.01-.374s.017-.254.029-.382c.007-.079.007-.157.018-.235l-.863.052a198.855,198.855,0,0,1-23.414.081,2.231,2.231,0,0,0-2.311,1.727,59.06,59.06,0,0,0,.457,28.008,3.759,3.759,0,0,0,2.281,2.525,3.716,3.716,0,0,0,2,.194,22.031,22.031,0,0,0,6.484-2.251C149.509,294.4,149.5,293.451,149.488,292.267Z"/><path class="a" d="M205.626,262.3a65.508,65.508,0,0,1-9.884-.526c-8.858-1.167-16.543-2.127-25.363-1.337a9.044,9.044,0,0,0-4.358,1.573c-1.119.9-1.583,3.649-.825,5.017a4.685,4.685,0,0,0,2.138,2.026,29.444,29.444,0,0,0,6.593,1.958l3.942,1.117c-6.779,1.056-11.705,2.052-16.924,2.445-5.355.4-9.262.381-11.253.552a3.956,3.956,0,0,0-3.445,2.185,4.157,4.157,0,0,0,.962,5.032,7.725,7.725,0,0,0,2.392,1.325,4.661,4.661,0,0,0-1.727,7.3,7.679,7.679,0,0,0,1.614,1.3c.017,1.7.028,2.937.028,2.937a8.312,8.312,0,0,0,1.7,4.69c1.93,2.049,4.79,2.372,7.429,2.661,1.119.122,2.466.2,3.954.239l.726,1.711a8.139,8.139,0,0,0,6.323,1.867c4.944-.438,23.043-1.582,25.327-1.982a30.769,30.769,0,0,0,8.092-2.713c4.738-2.115,11.111-7.352,16.084-9.275a319.409,319.409,0,0,0-10.136-30.358A33.842,33.842,0,0,1,205.626,262.3Z"/><path class="c" d="M230.6,192.916a330.929,330.929,0,0,1,12.859,47.16,2.4,2.4,0,0,0,4.629-1.276,331.062,331.062,0,0,0-12.859-47.16,2.464,2.464,0,0,0-2.952-1.677,2.421,2.421,0,0,0-1.677,2.953Z"/><path class="c" d="M174.561,268.7a37.749,37.749,0,0,1-4.409-1.119c-1.1-.375-2.757-.874-2.925-1.97a1.823,1.823,0,0,1,.888-2.088,11.554,11.554,0,0,1,4.691-.854c8.175-.455,16.166.777,24.262,1.664a50.726,50.726,0,0,0,11.945.111,2.477,2.477,0,0,0,2.4-2.4,2.413,2.413,0,0,0-2.4-2.4c-8.805,1.136-17.658-1.129-26.424-1.7-4.5-.291-9.425-.578-13.868.342-1.917.4-4.1,1.282-5.2,2.991a7.578,7.578,0,0,0-.951,5.459c.972,4.685,6.768,5.749,10.711,6.589,3.013.642,4.3-3.984,1.276-4.628Z"/><path class="c" d="M178.148,269.672c-5.126.788-10.232,1.818-15.4,2.342-2.714.275-5.443.4-8.169.5a52.634,52.634,0,0,0-5.6.3,6.423,6.423,0,0,0-5.4,4.81,6.673,6.673,0,0,0,2.878,7.14c2.3,1.58,5.008,1.824,7.709,1.912s5.423.1,8.135.046c6.5-.136,12.987-.7,19.445-1.457a2.474,2.474,0,0,0,2.4-2.4,2.415,2.415,0,0,0-2.4-2.4c-5.225.613-10.464,1.1-15.72,1.335q-3.594.159-7.192.156a50.661,50.661,0,0,1-7.047-.2c-1.327-.191-3.557-.845-3.6-2.479-.042-1.558,1.294-1.757,2.536-1.819,4.193-.212,8.389-.25,12.567-.7,5.408-.588,10.757-1.631,16.13-2.456a2.417,2.417,0,0,0,1.676-2.952,2.46,2.46,0,0,0-2.952-1.677Z"/><path class="c" d="M145.34,284.3a7.4,7.4,0,0,0,3.179,10.181,13.866,13.866,0,0,0,5.637,1.271c1.754.151,3.513.247,5.272.312a223.3,223.3,0,0,0,23.654-.488,2.457,2.457,0,0,0,2.4-2.4,2.421,2.421,0,0,0-2.4-2.4c-6.817.472-13.662.69-20.5.573-3.091-.054-6.185-.174-9.263-.473a5.271,5.271,0,0,1-3.473-1.321,2.4,2.4,0,0,1-.366-2.833c1.462-2.721-2.68-5.148-4.145-2.422Z"/><path class="c" d="M147.116,295.2A9.3,9.3,0,0,0,153,303.84c2.889,1.149,6.285,1.253,9.366,1.348,6.437.2,12.891-.148,19.318-.463,3.075-.151,3.093-4.951,0-4.8-5.764.282-11.539.563-17.312.5a45.138,45.138,0,0,1-7.635-.527c-2.734-.5-4.695-1.7-4.817-4.7-.126-3.078-4.927-3.094-4.8,0Z"/><path class="c" d="M161.626,306.2c3.274,3.023,7.339,2.608,11.415,2.3,3.769-.28,7.54-.538,11.309-.811,3.112-.225,6.23-.427,9.334-.743a33.078,33.078,0,0,0,11.758-3.76c4.914-2.537,9.188-6.422,14.349-8.473a2.474,2.474,0,0,0,1.677-2.952,2.418,2.418,0,0,0-2.953-1.676c-4.631,1.84-8.621,4.868-12.848,7.447a39.806,39.806,0,0,1-6.148,3.071,26.4,26.4,0,0,1-3.1,1.024q-.835.216-1.683.374c-.605.114-.743.055-.23.054-1.033,0-2.112.214-3.144.3-1.66.138-3.321.263-4.982.386-3.693.272-7.388.528-11.082.794-1.576.114-3.152.227-4.727.355-1.912.156-4.033.317-5.555-1.088-2.266-2.093-5.669,1.293-3.394,3.394Z"/><path class="c" d="M117.045,223.758c2.594,6.461,4.694,13.076,6.815,19.7,1.9,5.924,3.7,11.858,5.253,17.883.769,2.99,5.4,1.722,4.629-1.276-1.55-6.025-3.357-11.959-5.253-17.883-2.121-6.626-4.222-13.241-6.816-19.7a2.474,2.474,0,0,0-2.952-1.676,2.416,2.416,0,0,0-1.676,2.952Z"/><path class="c" d="M134,148.6c15.087,20.656,45.791,12.619,64.055,1.02A82.619,82.619,0,0,0,213.218,137.2c2.144-2.226-1.245-5.624-3.394-3.394a75.557,75.557,0,0,1-25.87,17.739c-9.88,4-21.748,6.786-32.257,3.81a25.321,25.321,0,0,1-13.549-9.181,2.47,2.47,0,0,0-3.283-.861A2.418,2.418,0,0,0,134,148.6Z"/><path class="c" d="M134.894,145.31a170.581,170.581,0,0,0-22.784,13.066c-6.152,4.307-12.1,9.262-16.317,15.551-4.516,6.738-6.651,14.9-7.919,22.82-1.032,6.443-1.66,12.975-2.215,19.475-1.184,13.869-1.451,27.8-1.711,41.71-.155,8.334-.315,16.743,1,25,1.117,7.012,3.707,13.539,8.872,18.556,5.648,5.485,12.882,7.544,20.607,7.517a54.837,54.837,0,0,0,23.94-5.529,34.937,34.937,0,0,0,4.392-2.579,2.462,2.462,0,0,0,.861-3.284,2.421,2.421,0,0,0-3.283-.861c-5.921,4.1-13.24,6.338-20.352,7.13-6.866.764-14.126.535-20-3.491-5.552-3.8-8.541-9.653-9.913-16.083-1.575-7.38-1.488-15.088-1.386-22.6.191-13.942.447-27.92,1.483-41.829.425-5.7,1-11.4,1.678-17.076.883-7.438,2.252-15.117,5.518-21.92,3.066-6.385,8.032-11.393,13.56-15.715a133.9,133.9,0,0,1,20.623-12.8q2.867-1.5,5.772-2.918a2.423,2.423,0,0,0,.861-3.283,2.449,2.449,0,0,0-3.284-.861Z"/><path class="c" d="M149.079,292.39a20.044,20.044,0,0,1-5.626,2.2c-1.166.266-2.09.243-2.446-1.033a51.833,51.833,0,0,1-1.751-12.231,54.636,54.636,0,0,1,.978-12.609,6.73,6.73,0,0,1,.366-1.705,11.43,11.43,0,0,1,2.326.183c2.271.106,4.545.161,6.819.177q7.138.05,14.27-.385c3.07-.183,3.091-4.984,0-4.8-4.985.3-9.981.432-14.975.379-2.662-.029-5.317-.14-7.976-.269a4.815,4.815,0,0,0-5.186,3.878,57.046,57.046,0,0,0-1.422,15.151,65.4,65.4,0,0,0,.768,7.963c.356,2.282.633,5.051,1.76,7.1,3.023,5.5,10.4,2.517,14.518.141,2.674-1.544.26-5.693-2.423-4.144Z"/><path class="c" d="M144.037,119.227a9.84,9.84,0,0,1,1.288-.775c.112-.057.225-.111.339-.164.049-.023.433-.187.155-.073-.315.13.259-.1.261-.1.125-.046.251-.091.378-.134a16.546,16.546,0,0,1,1.679-.476c.271-.063.544-.118.818-.168.136-.024.275-.042.411-.069.376-.073-.574.057.082-.011.54-.056,1.081-.1,1.624-.1q.44,0,.879.022c.127.008.253.017.379.029.066.006.481.063.142.01-.377-.058.193.04.216.044.129.026.258.054.385.086.3.073.594.163.887.257.7.225,1.4.478,2.111.69a2.424,2.424,0,0,0,2.952-1.676,2.45,2.45,0,0,0-1.676-2.953,27.748,27.748,0,0,0-4.235-1.163,15.092,15.092,0,0,0-3.869-.021,16.637,16.637,0,0,0-7.629,2.6,2.454,2.454,0,0,0-.861,3.284,2.43,2.43,0,0,0,3.284.861Z"/><path class="d" d="M53.167,243.267c-8.2-2.458-16.309-5.232-24.518-7.672a2.431,2.431,0,0,0-3.038,2.314c-.324,4.092-.28,8.2-.52,12.3l3.038-2.314c-8.41-2.853-16.793-5.785-25.2-8.646-2.93-1-4.188,3.637-1.276,4.628,8.407,2.861,16.79,5.794,25.2,8.647a2.426,2.426,0,0,0,3.038-2.315c.24-4.1.2-8.209.52-12.3l-3.038,2.314c8.209,2.44,16.314,5.214,24.518,7.673,2.965.889,4.232-3.743,1.276-4.629Z"/><path class="d" d="M71.031,231.534c-7.8-7.729-14.556-16.448-22.368-24.159a2.431,2.431,0,0,0-3.769.486c-2.208,3.461-4.1,7.112-6.237,10.616l3.77-.485c-6.562-6.963-13.411-13.649-19.966-20.618-2.121-2.255-5.51,1.144-3.394,3.394,6.554,6.969,13.4,13.655,19.966,20.618A2.425,2.425,0,0,0,42.8,220.9c2.137-3.5,4.029-7.155,6.237-10.616l-3.77.485c7.812,7.712,14.573,16.43,22.368,24.159,2.2,2.177,5.592-1.215,3.394-3.394Z"/><path class="c" d="M224.3,302.845a287.062,287.062,0,0,0-11.4-37.429c-.831-2.21-1.7-4.409-2.645-6.572-.126-.289-.409-.872-.445-.982.029.088-.108-.29-.068-.392.185-.465-.03.046.037-.009a6.548,6.548,0,0,1,1.332-.433q1.075-.377,2.153-.749c6.331-2.2,12.677-4.349,19-6.568,6.872-2.411,13.749-4.851,20.476-7.648a2.482,2.482,0,0,0,1.676-2.953,2.415,2.415,0,0,0-2.952-1.676c-12.7,5.283-25.846,9.5-38.838,14-3.039,1.052-7.238,1.726-7.641,5.59a7.792,7.792,0,0,0,1.045,4.063c.083.188.164.376.246.564l.126.3c.149.348-.131-.317.019.047q.329.789.645,1.583c2.273,5.7,4.253,11.52,6.128,17.361,2.452,7.64,4.709,15.359,6.482,23.187.682,3.011,5.311,1.737,4.628-1.276Z"/><path class="c" d="M211.719,137.154a83.542,83.542,0,0,1,19.693,3.681,88.556,88.556,0,0,1,21.492,9c6.4,3.9,11.069,9.4,14.847,15.887a118.442,118.442,0,0,1,10.67,25.892c3.029,10.142,5.185,20.553,7.243,30.93,1.942,9.795,3.724,19.731,4.032,29.734a51.62,51.62,0,0,1-.646,11.223,26.069,26.069,0,0,1-4.417,10.246,42.806,42.806,0,0,1-16.422,13.55,163.4,163.4,0,0,1-20.377,7.991,206.968,206.968,0,0,1-21.439,5.991c-1.414.3-2.832.582-4.258.822a2.419,2.419,0,0,0-1.676,2.952,2.455,2.455,0,0,0,2.952,1.677,162,162,0,0,0,20.878-5.271,210.158,210.158,0,0,0,22.694-8.329,72.179,72.179,0,0,0,8.23-4.148,46.611,46.611,0,0,0,9.189-7.537,36.477,36.477,0,0,0,7.908-11.856,35.439,35.439,0,0,0,2.106-10.848c.6-9.7-.9-19.545-2.556-29.077-1.9-10.924-4.141-21.871-6.936-32.6a150.432,150.432,0,0,0-10.109-28.283c-3.614-7.383-8.229-14.739-14.8-19.844-6.405-4.981-14.027-8.3-21.653-10.932a109.048,109.048,0,0,0-22.4-5.3c-1.41-.17-2.825-.295-4.245-.352-3.089-.124-3.083,4.676,0,4.8Z"/></svg>