<?xml version="1.0" encoding="utf-8"?>
<!-- Uploaded to: SVG Repo, www.svgrepo.com, Generator: SVG Repo Mixer Tools -->
<svg width="800px" height="800px" viewBox="-18.44 0 310.65 310.65" xmlns="http://www.w3.org/2000/svg"><defs><style>.a{fill:#a98a75;}.b{fill:#211715;}.c{fill:#ffffff;}.d{fill:#f8b8b4;}.e{fill:#f2635f;}</style></defs><path class="a" d="M212.537,148.65c9-5.494,8.432-12.086,8.074-16.041a44.13,44.13,0,0,0-4.117-15.214c-2.894-6.6-8.36-20.049-10.642-44.687a119.031,119.031,0,0,0-1.189-15.621c-.316-2.416-.619-4.456-.83-5.791-2.47-15.97-13.662-33.458-26.353-39.365-15.609-9.767-28.794-10.819-41.532-8.5-18.076,3.286-31.79,12.228-40.088,25.06-4.791,7.409-7.6,17.633-8.025,26.473a89.874,89.874,0,0,0,4.482,30.092c4.01,19.047.66,40.026,3.892,55.618,1.013,4.957,4.2,10.694,11.678,14.664Z"/><path class="b" d="M181.651,17.244c8.086,6.059,13.961,15.417,17.327,24.834a71.681,71.681,0,0,1,3.285,15.009c.367,2.809.683,5.627.905,8.452.226,2.867.139,5.759.423,8.615a165.149,165.149,0,0,0,5.476,29.84q1.344,4.615,3.07,9.107c1.125,2.909,2.48,5.726,3.571,8.647a37.5,37.5,0,0,1,2.648,14.547,10.963,10.963,0,0,1-1.3,4.729,15.845,15.845,0,0,1-5.726,5.553c-2.618,1.629-.211,5.783,2.423,4.145,4.232-2.633,7.95-6.38,9.022-11.407.837-3.924.259-8.2-.5-12.078a45.051,45.051,0,0,0-2.573-8.386c-.439-1.075-.906-2.138-1.369-3.2-.1-.237-.2-.474-.306-.711-.043-.1-.085-.2-.127-.3-.159-.372.18.438-.084-.2-1.117-2.7-2.14-5.444-3.045-8.227A147.346,147.346,0,0,1,208.8,77.883c-.7-5.979-.688-11.995-1.385-17.984a93.2,93.2,0,0,0-2.926-16.444c-3.566-11.714-10.541-22.96-20.41-30.356a2.417,2.417,0,0,0-3.284.861,2.459,2.459,0,0,0,.861,3.284Z"/><path class="c" d="M184.746,72.784l-6.516-.646C171.816,69.683,164.1,60.805,161,55.489a140.547,140.547,0,0,1-7.266-14.523c-7.167,9.99-18.529,18.265-31.143,23.543a2.065,2.065,0,0,1-2.872-1.8,32.747,32.747,0,0,1,.6-7.989.457.457,0,0,0-.777-.408C111.9,62.3,103.615,70.65,95.78,77.554c-.856.759-1.9,1.584-2.555,2.154l-1.577,1.368.1.388c1.91,7.516,3.484,15.079,5.087,22.017q.178.773.369,1.535c2.848,11.395,7.832,21.34,16.8,27.066,7.4,4.725,14.822,6.961,22.882,6.763.526,3.407-2.864,5.831-5.612,7.223-3.022,1.866-8.214,4.424-12.324,6.576,4.177,5.1,9.934,8.012,16.063,9.608a48.555,48.555,0,0,0,18.75.83c17.226-2.278,34.321-10.2,44.975-24.858-5.906-1.321-15.106-1.521-17.73-5.985a26.968,26.968,0,0,1-2.169-5.277l-2.293-6.937a67.283,67.283,0,0,0,7.815-12.108s1.8-3.659,2.5-5.711c0,0,.181-.531.383-1.111a15,15,0,0,0,7.1-2.555,20.393,20.393,0,0,0,6.593-9.919c1.436-4.02,1.525-10.5-.6-14.028-.713-1.179-2.376-3.188-6.276-3.317a7.794,7.794,0,0,0-5.445,1.891Z"/><path class="b" d="M89.216,82.311C92.108,93.5,92.1,105.122,92.172,116.6c.036,5.336.068,10.684.517,16.005.381,4.507.882,9.138,2.737,13.307a25.078,25.078,0,0,0,11.249,11.5c2.718,1.469,5.144-2.674,2.423-4.144a20.946,20.946,0,0,1-9.274-9.228c-1.656-3.445-2.034-7.777-2.351-11.628-.889-10.781-.251-21.626-.884-32.42a98.677,98.677,0,0,0-2.745-18.952c-.772-2.988-5.4-1.721-4.628,1.276Z"/><path class="b" d="M131.328,119.328a9.9,9.9,0,0,1,1.291-.772c.112-.057.225-.111.34-.164.049-.023.434-.183.155-.072-.316.127.261-.095.262-.1.126-.046.252-.091.379-.134a16.925,16.925,0,0,1,1.682-.473q.408-.093.819-.166c.137-.024.275-.042.412-.068.377-.071-.575.056.083-.01.541-.054,1.082-.094,1.626-.1.293,0,.587.005.88.023.127.008.253.018.379.03.067.006.479.07.143.012-.376-.065.194.04.216.045.129.026.258.054.385.086.3.074.594.165.888.259.705.227,1.4.482,2.111.7a2.425,2.425,0,0,0,2.953-1.677,2.449,2.449,0,0,0-1.677-2.952,27.4,27.4,0,0,0-4.237-1.173,15.168,15.168,0,0,0-3.873-.028,16.65,16.65,0,0,0-7.64,2.587,2.452,2.452,0,0,0-.861,3.283,2.428,2.428,0,0,0,3.284.861Z"/><path class="b" d="M142.345,87.822c-.967-2.409-.944-8.138,3.7-9.011,6.194-.477,7.095,6.372,5.28,9.778C149.839,91.378,144.913,92.9,142.345,87.822Z"/><path class="b" d="M105.685,92.03c-.91-2.424-.945-8.164,3.3-8.993,5.674-.417,6.568,6.455,4.938,9.851C112.592,95.668,108.09,97.14,105.685,92.03Z"/><path class="b" d="M125.573,95.306c-.724,1.625-1.418,3.274-2,4.957a4.741,4.741,0,0,0-.32,1.807,3.405,3.405,0,0,0,.449,1.605,4.014,4.014,0,0,0,1.232,1.2,4.792,4.792,0,0,0,2.276.763c.322.034.64,0,.962.014a2.42,2.42,0,0,0,2.4-2.4,2.448,2.448,0,0,0-2.4-2.4c-.322-.009-.641.024-.962-.014l.638.085a2.5,2.5,0,0,1-.589-.164l.573.241a3.363,3.363,0,0,1-.577-.343l.486.375a1.486,1.486,0,0,1-.223-.2l.375.486a.688.688,0,0,1-.085-.14l.242.573a1.223,1.223,0,0,1-.072-.237l.085.638a1.816,1.816,0,0,1,0-.442l-.086.638a9.84,9.84,0,0,1,.628-1.934c.269-.7.554-1.4.846-2.091l-.242.573c.166-.391.333-.782.506-1.17a2.611,2.611,0,0,0,.242-1.849,2.449,2.449,0,0,0-1.1-1.434,2.42,2.42,0,0,0-1.85-.242,2.326,2.326,0,0,0-1.434,1.1Z"/><path class="b" d="M175.473,124.883a64.339,64.339,0,0,0,13.7-22.039,2.4,2.4,0,1,0-4.629-1.276,53.153,53.153,0,0,1-4.006,8.362,61.908,61.908,0,0,1-8.464,11.559c-2.1,2.259,1.285,5.661,3.4,3.394Z"/><path class="b" d="M173.88,7.079A57.684,57.684,0,0,0,143.454.1a71.111,71.111,0,0,0-27.891,7.619,57.269,57.269,0,0,0-19.929,16.89c-6,8.132-9.151,18.182-10.048,28.184a71.65,71.65,0,0,0,.576,15.773A90.966,90.966,0,0,0,90.135,86.08c.995,2.906,5.633,1.658,4.629-1.276C88.8,67.371,87.516,46.191,97.722,30.028c9.12-14.443,25.5-22.763,42.148-24.8a51.718,51.718,0,0,1,14.985.208,56.247,56.247,0,0,1,16.6,5.785c2.733,1.434,5.162-2.707,2.423-4.144Z"/><path class="b" d="M163.136,127.7a59.135,59.135,0,0,1-19.181,7.949,37.608,37.608,0,0,1-20.193-1.331,35.112,35.112,0,0,1-15.579-10.721c-3.894-4.829-6.31-10.778-7.993-16.692-2.441-8.578-3.941-17.429-6.13-26.076C93.3,77.833,88.672,79.1,89.432,82.1c2.061,8.142,3.574,16.424,5.71,24.545,1.723,6.547,4.256,13.089,8.288,18.578,8.716,11.865,24.061,17.539,38.472,15.6,8.508-1.146,16.369-4.529,23.656-8.98,2.633-1.608.224-5.761-2.422-4.145Z"/><path class="b" d="M190.316,74.864a5.474,5.474,0,0,1,3.748-1.188,6.374,6.374,0,0,1,2.12.4,4.4,4.4,0,0,1,.656.321,3.908,3.908,0,0,1,.463.3c.178.147.329.319.5.475.077.072.144.159.213.238-.3-.338-.082-.118-.02-.027a7.135,7.135,0,0,1,.711,1.249,12.653,12.653,0,0,1,.853,4.226c.288,5.606-1.911,12.258-6.57,15.723-2.287,1.7-5.788,2.7-8.541,1.8-2.943-.962-4.2,3.671-1.276,4.629,3.8,1.241,8.343.112,11.681-1.919,3.461-2.108,5.9-5.717,7.455-9.383a24.282,24.282,0,0,0,2.029-11.224c-.239-3.423-1.136-7.16-3.924-9.417a10.746,10.746,0,0,0-13.489.4,2.421,2.421,0,0,0,0,3.394,2.449,2.449,0,0,0,3.394,0Z"/><path class="b" d="M151.785,42.468c2.738,6.4,5.831,12.98,10.085,18.526,4.138,5.4,9.275,10.907,15.722,13.459a2.417,2.417,0,0,0,2.952-1.677,2.457,2.457,0,0,0-1.676-2.952A24.209,24.209,0,0,1,171.82,64.9a52.3,52.3,0,0,1-6.418-7.137c-3.952-5.337-6.871-11.637-9.472-17.715a2.414,2.414,0,0,0-3.284-.861,2.463,2.463,0,0,0-.861,3.283Z"/><path class="b" d="M151.651,39.772c-6.407,8.854-15.556,15.57-25.275,20.386q-1.892.938-3.828,1.781a4.277,4.277,0,0,0-.593.256c-.475.33-.332-.165.066.162.013.011,0,.033.02.042q.144.706.064-.169-.009-.36-.011-.72a30.943,30.943,0,0,1,.244-4.482c.234-1.7.887-3.715-.947-4.811-1.641-.981-3.037-.128-4.192,1.076q-1.633,1.7-3.277,3.4-3.488,3.59-7.039,7.117c-4.96,4.916-10.048,9.668-15.355,14.2a2.42,2.42,0,0,0,0,3.394,2.449,2.449,0,0,0,3.394,0q6.786-5.8,13.154-12.039,3.324-3.246,6.578-6.56,1.668-1.695,3.323-3.4.739-.764,1.477-1.529a10.778,10.778,0,0,1,1.513-1.614l-1.212.327h.226l-1.211-.327.2.1-.861-.861.127.187-.327-1.211a17.51,17.51,0,0,1-.4,2.784,32.993,32.993,0,0,0-.214,3.3c-.033,1.992-.061,4,1.564,5.414,1.69,1.468,3.637,1.173,5.527.365q2.62-1.122,5.164-2.411A79.367,79.367,0,0,0,147.8,51.276a62.7,62.7,0,0,0,8-9.081,2.42,2.42,0,0,0-.861-3.284,2.454,2.454,0,0,0-3.284.861Z"/><path class="b" d="M174.35,121.02c1.144,3.463,2.136,7.03,3.577,10.384a10.387,10.387,0,0,0,5.112,5.636c4.655,2.249,9.94,2.4,14.918,3.467a2.456,2.456,0,0,0,2.952-1.676,2.425,2.425,0,0,0-1.676-2.953c-4.406-.945-9.437-1.109-13.469-2.84-.228-.1-.832-.405-1.179-.613a3.207,3.207,0,0,1-.832-.6c-.157-.16-.319-.313-.467-.482-.109-.129-.1-.111.033.052-.064-.089-.125-.181-.181-.275a17,17,0,0,1-.942-1.855c-1.284-3.077-2.172-6.36-3.218-9.523-.965-2.919-5.6-1.669-4.628,1.276Z"/><path class="b" d="M134.485,138.839c.215,1.728-.774,2.876-2.371,3.959-1.679,1.138-3.535,2.1-5.318,3.061-4.039,2.185-8.2,4.153-12.2,6.409-2.691,1.517-.274,5.666,2.423,4.145,4.339-2.448,8.863-4.552,13.219-6.97,3.991-2.216,9.723-5.13,9.043-10.6a2.475,2.475,0,0,0-2.4-2.4,2.415,2.415,0,0,0-2.4,2.4Z"/><path class="b" d="M146.515,72.119a12.276,12.276,0,0,0,7.205,2.233,2.5,2.5,0,0,0,1.7-.7,2.4,2.4,0,0,0-1.7-4.1,9.566,9.566,0,0,1-1.385-.073l.638.086a10.527,10.527,0,0,1-2.631-.713l.573.242a9.818,9.818,0,0,1-1.978-1.12,2.413,2.413,0,0,0-1.849-.241,2.4,2.4,0,0,0-1.676,2.952l.242.573a2.4,2.4,0,0,0,.861.861Z"/><path class="b" d="M162.888,83.119a56.275,56.275,0,0,0,.525,6.664c.28,1.946.586,4.206,1.969,5.716a5.888,5.888,0,0,0,5.933,1.415,6.333,6.333,0,0,0,4.147-4.569,2.4,2.4,0,1,0-4.628-1.276c-.044.152-.094.3-.141.451-.157.505.255-.454,0,.008-.074.136-.157.272-.227.41-.19.375.243-.241.053-.046-.109.112-.222.223-.329.337-.172.181.412-.216.032-.04a2.982,2.982,0,0,1-.3.158l.265-.114a3.54,3.54,0,0,0-.469.136c-.5.139.51.01-.013,0l-.494,0c-.443,0,.338.1.071,0-.1-.036-.611-.089-.251-.05.319.034-.025-.037-.143-.092-.445-.208.319.291-.017-.018s.213.422.006-.011q-.063-.108-.117-.222c-.076-.16-.053-.1.07.178a2.57,2.57,0,0,1-.282-.905c-.087-.342-.157-.688-.225-1.034q-.125-.64-.224-1.285c-.009-.057-.108-.767-.036-.215-.028-.212-.053-.425-.077-.638-.186-1.648-.263-3.305-.3-4.962a2.4,2.4,0,1,0-4.8,0Z"/><path class="d" d="M144.364,163.583a56.338,56.338,0,0,0,9.4-.5c17.545-2.32,34.954-10.5,45.559-25.673,12.282.971,30.292,8.677,38.174,16.379,15.928,15.563,22.5,37.106,27.33,57.39,4.993,20.979,9.08,46.729,4.57,60.616-2.1,6.475-5.367,10.516-11.733,15.4-9.043,6.937-28.572,12.211-43.371,12.543a145.943,145.943,0,0,0-4.651-21.517c-24.423,5.553-75.158,17.084-75.158,17.084l-10.928,8.42c-4.492,4.034-16.04,5.6-23.834,3.667-5.993-1.487-10.764-3.315-16.225-10.175-6.511-8.179-8.041-23.1-6.233-38.867,2.776-24.215,2.85-38.554,5.439-62.952,1.276-8.64,3.183-14.149,8.767-22.05,6.952-9.836,14.35-14,26.86-21.492,4.217,5.595,10.246,8.72,16.684,10.4A43.531,43.531,0,0,0,144.364,163.583Z"/><path class="c" d="M130.422,294.35s.029-1.423.055-2.843a7.438,7.438,0,0,1-1.425-1.278,4.628,4.628,0,0,1-.184-5.236l1.425-2.012a6.735,6.735,0,0,1-1.472-1.02,3.973,3.973,0,0,1-.683-4.85,3.781,3.781,0,0,1,3.392-1.925c1.909-.07,5.638.135,10.771,0,4.935-.13,9.639-.833,16.028-1.516l.159-.16-3.624-1.118a28.11,28.11,0,0,1-6.2-2.178,4.481,4.481,0,0,1-1.947-2.035,2.59,2.59,0,0,1-.117-.342l-2.05-.076c-10.758.109-26.49-.611-35.921-3.6a5.11,5.11,0,0,0-.875,1.485,55.575,55.575,0,0,0-2.135,27.316l3,1.815a21.923,21.923,0,0,0,21.427.866l.448-.248A5.971,5.971,0,0,1,130.422,294.35Z"/><path class="c" d="M197.067,294.919c-4.84,1.6-11.183,6.318-15.814,8.119a29.459,29.459,0,0,1-7.854,2.211c-2.2.275-19.536.52-24.277.707a7.785,7.785,0,0,1-5.951-2.079l-.37-1.649c-1.515-.112-2.883-.253-4.007-.432-2.506-.4-5.222-.841-6.969-2.889a7.945,7.945,0,0,1-1.4-4.557s.029-1.423.055-2.843a7.438,7.438,0,0,1-1.425-1.278,4.628,4.628,0,0,1-.184-5.236l1.425-2.012a6.735,6.735,0,0,1-1.472-1.02,3.973,3.973,0,0,1-.683-4.85,3.781,3.781,0,0,1,3.392-1.925c1.909-.07,5.638.135,10.771,0,5.067-.134,9.875-.871,16.529-1.571l-3.966-1.223a28.11,28.11,0,0,1-6.2-2.178,4.481,4.481,0,0,1-1.947-2.035,4.613,4.613,0,0,1,1.023-4.752,8.647,8.647,0,0,1,4.235-1.3c8.459-.341,15.752.935,24.156,2.464a54,54,0,0,0,12.76.869,89.482,89.482,0,0,0,12.716-4.268l1.353-.632c3.372,6.45,7.228,17.952,9.646,29.4l-2.485.726c-5.17,1.716-11.451,3.751-12.672,4.114Q197.258,294.855,197.067,294.919Z"/><path class="b" d="M212.961,196.455a152.939,152.939,0,0,1,7.83,21.357c2.3,7.655,4.668,15.3,6.508,23.087.71,3,5.34,1.732,4.628-1.276-1.869-7.905-4.277-15.67-6.615-23.445a158.462,158.462,0,0,0-8.206-22.146,2.421,2.421,0,0,0-3.284-.861,2.454,2.454,0,0,0-.861,3.284Z"/><path class="b" d="M197.9,139.719c6.857.288,13.678,2.461,19.991,5.029,6.1,2.482,12.416,5.668,17.3,10.161,11.6,10.666,18.369,25.719,22.934,40.523,2.321,7.524,4.2,15.194,5.868,22.886a233.884,233.884,0,0,1,4.175,24.8c.77,7.224,1.248,14.681.275,21.911a27.547,27.547,0,0,1-8.054,16.721A46.862,46.862,0,0,1,243,291.889a98.292,98.292,0,0,1-22.514,5.053q-2.8.283-5.605.38c-3.08.1-3.094,4.9,0,4.8a100.641,100.641,0,0,0,24.2-3.955c6.813-1.953,13.964-4.5,19.675-8.817a42.672,42.672,0,0,0,8.639-8.314A29.455,29.455,0,0,0,272,271.491c1.965-6.839,1.963-14.261,1.558-21.306-.98-17.034-4.636-34.084-9.186-50.495-4.436-16-10.813-31.83-22.04-44.328a55.433,55.433,0,0,0-17.562-12.769,77.931,77.931,0,0,0-21.71-7.136,46.789,46.789,0,0,0-5.162-.538c-3.088-.13-3.082,4.67,0,4.8Z"/><path class="b" d="M119.04,148.629c-5.931,3.567-12.04,6.954-17.578,11.126a56.9,56.9,0,0,0-13.1,13.882,48.469,48.469,0,0,0-7.684,19.288c-.7,4.136-.984,8.354-1.36,12.529q-.52,5.791-.949,11.592c-.535,7.13-1,14.266-1.576,21.394-.652,8.093-1.73,16.154-2.342,24.247a76.657,76.657,0,0,0,1.3,22.934,32.854,32.854,0,0,0,9.684,17.244,31,31,0,0,0,17.274,7.478c6.337.8,13.43.088,19.225-2.719a14.873,14.873,0,0,0,3.315-2.2c2.332-2.034-1.074-5.417-3.394-3.394a11.97,11.97,0,0,1-2.748,1.642,22.627,22.627,0,0,1-3.737,1.2,35,35,0,0,1-9.089.933c-5.474-.125-11.355-1.652-15.8-4.949-10.908-8.089-12.025-22.984-11.4-35.466.39-7.834,1.553-15.638,2.222-23.454.59-6.894,1.06-13.8,1.558-20.7.535-7.411,1.127-14.817,1.868-22.21.656-6.555,1.958-12.923,5.172-18.739a52.394,52.394,0,0,1,11.575-14.442c4.595-3.952,9.893-7.032,15.075-10.135q2.457-1.47,4.912-2.941c2.645-1.591.234-5.743-2.422-4.145Z"/><path class="b" d="M216.674,299.6a145.019,145.019,0,0,0-7.83-31.433c-.806-2.162-1.676-4.3-2.637-6.4-.373-.812-.761-1.617-1.175-2.409a15.738,15.738,0,0,1-1.255-2.2c.005.014-.389.106,0-.229-.009.008.618-.124.7-.153,1.528-.515,3.041-1.08,4.557-1.628q3.916-1.415,7.812-2.884c6.145-2.326,12.234-4.791,18.3-7.318a2.48,2.48,0,0,0,1.677-2.952,2.416,2.416,0,0,0-2.953-1.676c-5.681,2.367-11.384,4.683-17.136,6.875q-4.058,1.548-8.141,3.025-2.135.774-4.274,1.534c-1.436.51-3.047.883-4.118,2.041a4.841,4.841,0,0,0-1.246,3.685,8.144,8.144,0,0,0,1.382,3.3,50.536,50.536,0,0,1,2.485,5.146,123.612,123.612,0,0,1,5,14.692,137.857,137.857,0,0,1,4.045,18.989,2.48,2.48,0,0,0,2.4,2.4c1.164,0,2.573-1.106,2.4-2.4Z"/><path class="b" d="M98.855,202.6c-2.628,15.694,3.3,31.381,11.374,44.594a94.9,94.9,0,0,1,5.937,10.965,2.416,2.416,0,0,0,3.283.861,2.458,2.458,0,0,0,.861-3.283c-3.624-8.179-9.206-15.27-12.518-23.606-3.535-8.9-5.915-18.661-4.308-28.255a2.473,2.473,0,0,0-1.677-2.953,2.419,2.419,0,0,0-2.952,1.677Z"/><path class="b" d="M110.168,267.1a100.4,100.4,0,0,0,17.143,2.519c5.732.436,11.487.593,17.235.54,3.087-.029,3.095-4.829,0-4.8-10.979.1-22.408-.165-33.1-2.888-2.994-.762-4.272,3.866-1.276,4.629Z"/><path class="b" d="M107.4,296.846a24.434,24.434,0,0,0,23.85.865c2.746-1.418.321-5.561-2.422-4.145a19.513,19.513,0,0,1-19-.865c-2.626-1.644-5.038,2.508-2.423,4.145Z"/><path class="b" d="M117,154.023c8.58,10.657,23.664,13.134,36.527,11.49,11.71-1.5,23.255-5.375,32.994-12.15a60.227,60.227,0,0,0,14.553-14.283,2.418,2.418,0,0,0-.861-3.283,2.453,2.453,0,0,0-3.284.861,57.619,57.619,0,0,1-25.64,19.443c-10.934,4.327-23.811,6.815-35.392,3.9-6.048-1.523-11.55-4.459-15.5-9.369a2.416,2.416,0,0,0-3.394,0,2.456,2.456,0,0,0,0,3.394Z"/><path class="b" d="M112.391,261.655c-1.651-.828-3.483-1.032-4.958.279a9.82,9.82,0,0,0-2.522,4.616,54.2,54.2,0,0,0-2.123,10.329,57.629,57.629,0,0,0,1.372,20.72c.766,2.99,5.4,1.723,4.629-1.276a53.158,53.158,0,0,1-1.464-16.433,50.773,50.773,0,0,1,1.13-8.048c.3-1.353.663-2.695,1.085-4.016a10.3,10.3,0,0,1,.579-1.629c.016-.032.415-.6.425-.592a2.066,2.066,0,0,0-.576.195c2.754,1.38,5.188-2.759,2.423-4.145Z"/><path class="b" d="M155.5,270.077c-1.883-.5-4.318-.928-5.93-2.1a1.417,1.417,0,0,1-.734-1.449,2.8,2.8,0,0,1,.2-.89c.026-.064.454-.532.2-.333a5.367,5.367,0,0,1,2.73-.777,41.115,41.115,0,0,1,4.3-.039,81.977,81.977,0,0,1,8.253.624c5.338.659,10.584,1.914,15.93,2.5,3.734.409,7.563.688,11.2-.373a80.84,80.84,0,0,0,11.157-3.976,2.421,2.421,0,0,0,.861-3.284,2.457,2.457,0,0,0-3.284-.861c-.6.276-1.023.444-1.906.779-.946.359-1.9.7-2.856,1.028-1.809.624-3.63,1.221-5.47,1.75-.508.146-1.041.245-1.544.406-.271.087-.483-.06.271-.022a6.815,6.815,0,0,0-.717.052c-.7.041-1.408.054-2.113.05a53.494,53.494,0,0,1-7.791-.636c-6.1-.939-12.121-2.22-18.293-2.663a45.336,45.336,0,0,0-9.022-.03c-2.467.324-5.1,1.259-6.193,3.671a6.667,6.667,0,0,0,1.345,7.818c2.066,1.937,5.455,2.678,8.123,3.382,2.99.789,4.265-3.84,1.276-4.629Z"/><path class="b" d="M159.458,271.15c-5.11.53-10.209,1.289-15.342,1.563-2.62.139-5.249.136-7.872.1a35.454,35.454,0,0,0-5.729.08c-5.411.826-7.062,7.861-2.847,11.208,2.167,1.72,4.69,2.176,7.376,2.4q3.85.323,7.714.441c6.345.194,12.691-.04,19.022-.47a2.457,2.457,0,0,0,2.4-2.4,2.421,2.421,0,0,0-2.4-2.4c-4.954.336-9.916.558-14.882.54a96,96,0,0,1-13.2-.631c-1.321-.19-3.835-.876-3.689-2.617.105-1.253,1.12-1.388,2.237-1.4,4.019-.033,8.032.155,12.05-.069,5.072-.284,10.111-1.029,15.161-1.553a2.469,2.469,0,0,0,2.4-2.4,2.415,2.415,0,0,0-2.4-2.4Z"/><path class="b" d="M126.8,283.781a7.218,7.218,0,0,0,2.925,10.081,14.107,14.107,0,0,0,5.307,1.345c1.678.222,3.362.4,5.048.543a213.99,213.99,0,0,0,22.494.632c3.085-.062,3.095-4.862,0-4.8-6.451.129-12.916.02-19.356-.4-2.849-.185-5.708-.411-8.533-.831a5.692,5.692,0,0,1-3.506-1.373,2.179,2.179,0,0,1-.234-2.777c1.59-2.657-2.558-5.074-4.145-2.423Z"/><path class="b" d="M128.022,294.35a8.912,8.912,0,0,0,5.279,8.5c2.8,1.224,6.031,1.5,9.054,1.744,6.13.489,12.3.461,18.447.461,3.089,0,3.094-4.8,0-4.8-5.48,0-10.969,0-16.441-.324a42.759,42.759,0,0,1-7.1-.838,6.29,6.29,0,0,1-3.482-1.6,4.922,4.922,0,0,1-.956-3.142c.018-3.09-4.782-3.093-4.8,0Z"/><path class="b" d="M141.474,305.574c3.494,3.523,8.571,2.737,13.066,2.633,4.387-.1,8.774-.185,13.161-.309,3.639-.1,7.189-.176,10.7-1.282,5.85-1.842,10.758-5.249,16.166-8.012a41.958,41.958,0,0,1,6.391-2.4q4.906-1.579,9.795-3.2c2.918-.968,1.668-5.605-1.276-4.629s-5.894,1.944-8.847,2.9c-1.775.574-3.6,1.062-5.336,1.755-5.154,2.061-9.56,5.6-14.681,7.7a27.821,27.821,0,0,1-7.358,2.141c-1.2.133-2.424.136-3.629.176-4.1.136-8.2.214-12.3.3-2.109.047-4.219.092-6.328.152-2.134.06-4.482.343-6.127-1.316-2.178-2.2-5.572,1.2-3.394,3.394Z"/><path class="e" d="M53.167,243.57c-8.2-2.458-16.309-5.232-24.518-7.672a2.431,2.431,0,0,0-3.038,2.314c-.324,4.092-.28,8.2-.52,12.3l3.038-2.314c-8.41-2.853-16.793-5.785-25.2-8.646-2.93-1-4.188,3.637-1.276,4.628,8.407,2.861,16.79,5.794,25.2,8.647a2.426,2.426,0,0,0,3.038-2.315c.24-4.1.2-8.209.52-12.3l-3.038,2.314c8.209,2.44,16.314,5.214,24.518,7.673,2.965.888,4.232-3.743,1.276-4.629Z"/><path class="e" d="M64.365,231.337c-7.8-7.729-14.556-16.448-22.368-24.159a2.432,2.432,0,0,0-3.77.486c-2.208,3.461-4.1,7.112-6.236,10.616l3.769-.486c-6.562-6.962-13.411-13.648-19.966-20.617-2.121-2.255-5.51,1.144-3.394,3.394,6.555,6.969,13.4,13.655,19.966,20.618a2.425,2.425,0,0,0,3.769-.486c2.137-3.5,4.029-7.155,6.237-10.616l-3.77.485c7.813,7.711,14.573,16.43,22.369,24.159,2.2,2.177,5.591-1.215,3.394-3.394Z"/></svg>