<?xml version="1.0" encoding="utf-8"?>
<!-- Uploaded to: SVG Repo, www.svgrepo.com, Generator: SVG Repo Mixer Tools -->
<svg width="800px" height="800px" viewBox="-18.24 0 326.261 326.261" xmlns="http://www.w3.org/2000/svg"><defs><style>.a{fill:#ffffff;}.b{fill:#957f6e;}.c{fill:#b3b3b3;}.d{fill:#211715;}</style></defs><path class="a" d="M149.717,81.218a7.252,7.252,0,0,1,5.8-1.7,6.848,6.848,0,0,1,4.923,3.273,9.694,9.694,0,0,1,1.014,3.894,29.02,29.02,0,0,1-2.958,15.378,18.445,18.445,0,0,1-4.768,6.257,12.223,12.223,0,0,1-5.685,2.562l-.973.151c-.466,1.746-.991,3.217-1.248,4-1.705,4.627-11.48,20.983-23.632,26.2-.021,3.276-.093,7.052,1.059,9.886.87,2.15,4.95,5.34,9.24,8.24,0,0-2.36,31.914-32.582,31.914s-30.068-32.124-30.068-32.124c4.58-2.84,8.83-5.93,9.68-8.03,1.121-2.782,1.07-6.446,1.05-9.677a41.59,41.59,0,0,1-15.242-11.915,49.418,49.418,0,0,1-9.451-18.53,11.657,11.657,0,0,1-7.489-2.67,18.429,18.429,0,0,1-4.767-6.257,29.01,29.01,0,0,1-2.958-15.378,9.677,9.677,0,0,1,1.013-3.894A6.85,6.85,0,0,1,46.6,79.52a7.251,7.251,0,0,1,5.8,1.7s2.1-45.8,50.1-45.8C151.835,35.416,149.717,81.218,149.717,81.218Z"/><path class="b" d="M161.456,86.687a9.694,9.694,0,0,0-1.014-3.894,6.848,6.848,0,0,0-4.923-3.273,7.252,7.252,0,0,0-5.8,1.7c-6.993-3.468-11.993-9.579-15.437-14.468-7.085-10.056-9.111-17.061-10.427-24.127-6.224,7.608-20.073,16.139-32.4,20.134a49.2,49.2,0,0,1-4.8,1.267,50.04,50.04,0,0,1-6.455,1.18,117.668,117.668,0,0,1-12.261,8.248c-2.605,1.54-12.387,6.042-15.9,7.475A7.239,7.239,0,0,0,46.6,79.52a6.85,6.85,0,0,0-4.923,3.273,9.677,9.677,0,0,0-1.013,3.894l-3.052-3.518c-1-30.038,6.905-51.821,19.361-63.746C64.482,12.235,81.4,2.441,100.414,2.441c11.6,0,17.739,1.224,24.347,3.77l3.731,1.438,7.005,3.8c4.473,2.428,5.667,4.279,9.777,8.244,9.5,9.17,16.111,25.67,17.164,40.445.3,4.262,1,15.352.329,23.029Z"/><path class="b" d="M32.567,134.333a56.608,56.608,0,0,0-2.638,16.053c-.087,4.745.733,10.076,4.527,12.926A19.73,19.73,0,0,0,48.431,170.9l21.41-11.754c4.58-2.84,8.83-5.93,9.68-8.03,1.12-2.78,1.07-6.44,1.05-9.67a41.683,41.683,0,0,1-15.242-11.922,49.313,49.313,0,0,1-9.4-18.352l-1.854-.286a12.223,12.223,0,0,1-5.685-2.562,18.429,18.429,0,0,1-4.767-6.257,29.01,29.01,0,0,1-2.958-15.378l-3.053-3.523c.01,21.89-1.66,37.68-4,46.65-.37,1.43-.73,3.09-1.07,4.87"/><path class="b" d="M162.771,83.164c.33,27.28,5.01,42.54,7.42,50.05a53.434,53.434,0,0,1,2.94,17.09c.06,7.53-5.92,16.13-14.5,18l-5.944,1.295-20.2-10.245c-4.29-2.9-8.37-6.09-9.24-8.24-1.152-2.833-1.08-6.609-1.058-9.887,12.151-5.211,21.926-21.567,23.631-26.194.257-.781.781-2.252,1.248-4l.973-.152a12.223,12.223,0,0,0,5.685-2.562,18.445,18.445,0,0,0,4.768-6.257,29.02,29.02,0,0,0,2.958-15.378Z"/><path class="c" d="M4.357,286.436c2.36-42.456,5.006-76.89,9.378-91.464,1.611-5.369,3.64-10.116,6.324-12.263s7.149-3.574,10.251-5.073c9.491-4.584,22.133-10.247,29.64-14.973,1.224-1.111,2.53-2.191,3.909-3.253l4.592-3.111.081-.055c5.941,17.675,12.786,38.086,19.179,55.907,4.427,12.343,9.4,25.41,13.9,37.838,4.928-13.765,8.552-23.512,13.405-37.041,6.414-17.878,14.065-38.474,18.527-56.8l4.5,3.05c.669.516,1.324,1.031,1.96,1.551,9.685,5.693,22.444,9.043,32.792,14.046,2.97,1.43,6.46,2.11,8.71,4.52a25.211,25.211,0,0,1,5.24,8.55c6.53,17.04,7.8,26.99,14.08,43.691,1.777-5.972,3.488-11.907,5.351-18.3,10.157,4.073,26.232,9.505,36.076,10.591-3.2,15.866-6.3,32.9-11.463,48.989-3.588,11.18-8.986,21.814-19.971,25.961a29,29,0,0,1-25.413-1.988c-7.4-4.313-16.2-14.358-20.684-18.75-.481,4.416,2.4,30.439,3.526,45.805H2.4C3.054,310.927,3.694,298.365,4.357,286.436Z"/><path class="a" d="M100.459,181.954h-.426a101.58,101.58,0,0,1-23.18-3.331L76,178.4c3.87,11.414,7.872,23.048,11.711,33.749,4.427,12.343,9.4,25.41,13.9,37.838,4.928-13.765,8.552-23.512,13.405-37.041,4.021-11.208,8.528-23.484,12.433-35.6l-2.282.585C118.081,180.749,107.825,181.927,100.459,181.954Z"/><path class="a" d="M216.839,174.615c2.773-6.731,4.893-10.7,8.436-17.539.219-.422,1.753-2.561,3.209-2.982a3.743,3.743,0,0,1,3.732.961,4.84,4.84,0,0,1,1.522,3.465,45.616,45.616,0,0,1-2.039,13.369c7.749-1.04,23.268-8.406,31.544-12.781,1.988-1.05,3.966-2.253,6.2-2.569,2.3-.337,6.38,1.256,7.186,3.469,3.144-1.52,4.857-1.49,6.815-.746,2.324.887,3.006,1.814,3.465,3.129a5.647,5.647,0,0,1-.208,4.528,1.586,1.586,0,0,0-.2.632,1.318,1.318,0,0,0,.224.633,7.045,7.045,0,0,1-1.642,8.178,3.89,3.89,0,0,1-.413,4.567c-5.992,6.8-27.4,19.294-39.632,24.01a5.459,5.459,0,0,0-1.876,1,5.378,5.378,0,0,0-1.214,2.172c-.847,2.32-1.458,3.879-2.171,6.092-5.122-1.393-18.45-5.082-25.783-7.79a41.719,41.719,0,0,0,1.349-6.076s.1-1.131.17-2.006c-1.456-7.578-2.135-15.117.753-22.294Q216.555,175.3,216.839,174.615Z"/><path class="d" d="M287.757,176.555c-.366-2.627-3.458-3.876-5.8-3.626a12.317,12.317,0,0,0-4.1,1.57c-1.295.645-2.584,1.3-3.875,1.955-5.053,2.563-10.14,5.209-15.6,6.806-2.959.865-1.7,5.5,1.276,4.628a83.334,83.334,0,0,0,13.564-5.687c2.168-1.078,4.321-2.187,6.486-3.272a11.726,11.726,0,0,1,2.592-1.242,1.618,1.618,0,0,1,.951.141c-.139-.065-.195-.5-.126,0a2.415,2.415,0,0,0,2.953,1.676,2.463,2.463,0,0,0,1.676-2.952Z"/><path class="d" d="M287.751,165.57a5.763,5.763,0,0,0-4.221-1.659,8.93,8.93,0,0,0-3.99,1.079c-3.057,1.374-6.029,2.931-9.1,4.273-4.926,2.152-10.145,4.625-14.884,6.561a2.477,2.477,0,0,0-1.677,2.952,2.416,2.416,0,0,0,2.953,1.676c4.843-1.978,9.575-4.22,14.365-6.321,2.7-1.185,5.364-2.436,8.023-3.71,1.112-.533,2.223-1.091,3.362-1.562a1.88,1.88,0,0,1,1.252-.131c-.213-.031.589.177.528.152-.134-.057-.284-.241,0,.084a2.421,2.421,0,0,0,3.394,0,2.449,2.449,0,0,0,0-3.394Z"/><path class="d" d="M283.128,177.831c.371,1.385-.98,2.307-1.895,3.148-1.106,1.016-2.346,2.022-3.415,2.828-3.258,2.458-6.685,4.693-10.164,6.823a153.724,153.724,0,0,1-22.255,11.6,16.156,16.156,0,0,0-3.181,1.411,7.182,7.182,0,0,0-2.527,3.663c-1,2.635-1.952,5.285-2.767,7.982-.9,2.963,3.735,4.229,4.628,1.276.717-2.373,1.558-4.7,2.415-7.021.308-.837.468-1.732,1.324-2.137.825-.39,1.716-.677,2.559-1.03,3.908-1.638,7.72-3.5,11.467-5.474a150.341,150.341,0,0,0,22.2-13.925c3.289-2.557,7.512-5.679,6.243-10.419-.8-2.981-5.43-1.716-4.629,1.276Z"/><path class="d" d="M234.761,173.739c7.508-1.818,14.717-5.2,21.658-8.523,3.344-1.6,6.612-3.331,9.9-5.033,1.489-.77,3.173-1.526,4.772-1.176a7.263,7.263,0,0,1,2.164.832,4.14,4.14,0,0,1,.753.542c.053.049.4.492.3.265a2.455,2.455,0,0,0,3.525,1.434,5.947,5.947,0,0,1,4.55-.651,6.259,6.259,0,0,1,1.786.935c.34.293.147.091.335.473.173.353-.105-.3.042.078a5.189,5.189,0,0,1,.282.964c.182,1.064-.3,1.738-.585,2.711-.352,1.195.143,2.057.518,3.091a4.712,4.712,0,0,1-.947,4.556c-2.036,2.309,1.347,5.717,3.394,3.394a9.946,9.946,0,0,0,2.511-5.6,9.482,9.482,0,0,0-.105-2.68c-.148-.862-.635-1.625-.81-2.439v1.277a21.554,21.554,0,0,0,.855-3.305,8.417,8.417,0,0,0-.443-3.132,6.943,6.943,0,0,0-2.907-3.762c-3.54-2.275-7.268-1.763-10.9-.056l3.525,1.435c-1.332-3.171-4.668-4.856-7.975-5.214-3.568-.388-6.81,1.774-9.835,3.352-5.785,3.018-11.7,5.85-17.755,8.279a72.793,72.793,0,0,1-9.892,3.324c-3,.727-1.73,5.356,1.276,4.628Z"/><path class="d" d="M275.417,157.935c-3.974,1.863-7.79,4.061-11.748,5.962-4.557,2.188-8.977,4.651-13.462,6.981-2.742,1.424-.317,5.568,2.423,4.144,4.484-2.329,8.905-4.792,13.461-6.98,3.958-1.9,7.775-4.1,11.748-5.962a2.42,2.42,0,0,0,.861-3.284,2.454,2.454,0,0,0-3.283-.861Z"/><path class="d" d="M246.657,175.75q6.469,5.382,12.391,11.373a2.4,2.4,0,0,0,3.394-3.394q-5.914-5.985-12.391-11.373a2.454,2.454,0,0,0-3.394,0,2.429,2.429,0,0,0,0,3.394Z"/><path class="d" d="M257.719,183.534c-2.559.053-5.115.178-7.666.389a31.684,31.684,0,0,0-7.344,1.122,15.911,15.911,0,0,0-9.249,7.991,2.463,2.463,0,0,0,.861,3.284,2.423,2.423,0,0,0,3.284-.861,11.155,11.155,0,0,1,7.042-5.984,32.423,32.423,0,0,1,6.062-.805q3.5-.268,7.01-.336c3.084-.063,3.1-4.864,0-4.8Z"/><path class="d" d="M212.938,200.336c-.02.22-.125.81.021-.079-.025.156-.047.312-.073.468-.063.366-.136.732-.214,1.095-.183.851-.4,1.695-.615,2.537-.414,1.574-.87,3.136-1.3,4.706a2.4,2.4,0,0,0,4.629,1.276c.9-3.284,2.043-6.6,2.351-10a2.408,2.408,0,0,0-2.4-2.4,2.463,2.463,0,0,0-2.4,2.4Z"/><path class="a" d="M241.278,214.613c-3.5-.946-21.5-5.822-29.02-8.868-.678,1.72-2.046,5.922-2.91,8.187l-.2.485c9.022,3.461,21.2,7.471,30.066,8.991l.053-.173c.853-2.767,2.08-7.7,2.367-8.526Z"/><path class="d" d="M35.211,83.164c0,12.807-.349,25.954-2.378,38.5-.333,2.061-.719,4.115-1.2,6.148-.319,1.35-.676,2.69-.967,4.047-.411,1.922-1.023,3.781-1.486,5.692a59.726,59.726,0,0,0-1.627,11.888,26.292,26.292,0,0,0,1.083,9.436c2.415,7,10.713,11.922,17.968,11.83,3.086-.039,3.094-4.839,0-4.8a15.323,15.323,0,0,1-8.757-2.987,10.842,10.842,0,0,1-4.694-5.656,24.556,24.556,0,0,1-.759-8.77,53.123,53.123,0,0,1,1.767-11.042A145.355,145.355,0,0,0,37.484,122.8c.852-5.313,1.4-10.675,1.776-16.041.554-7.852.75-15.727.751-23.6,0-3.089-4.8-3.094-4.8,0Z"/><path class="d" d="M160.371,83.164a184.115,184.115,0,0,0,4.279,39.148c.824,3.558,1.809,7.074,2.912,10.555a74.925,74.925,0,0,1,2.452,9.246,31.906,31.906,0,0,1,.582,10.215,16.963,16.963,0,0,1-12.6,13.662c-3.01.691-1.736,5.32,1.276,4.628a21.589,21.589,0,0,0,14.689-12.811c2.842-6.772,1.467-14.874-.408-21.737-1.1-4.022-2.489-7.951-3.528-11.992a143.154,143.154,0,0,1-3.038-15.412,198.654,198.654,0,0,1-1.813-25.5c-.041-3.086-4.841-3.095-4.8,0Z"/><path class="d" d="M151.414,82.915a4.753,4.753,0,0,1,6.778.793A8.129,8.129,0,0,1,159.138,88a25.538,25.538,0,0,1-.3,5.263c-1.074,6.345-4.371,14.076-11.435,15.306a2.42,2.42,0,0,0-1.676,2.952,2.455,2.455,0,0,0,2.952,1.677c9.711-1.692,14.352-12.708,15.157-21.474.389-4.242.281-9.548-3.3-12.474a9.712,9.712,0,0,0-12.518.27,2.42,2.42,0,0,0,0,3.394,2.45,2.45,0,0,0,3.394,0Z"/><path class="d" d="M145.571,105.486a24.138,24.138,0,0,1-1.128,6.024c-.228.771-.48,1.535-.736,2.3-.078.233-.158.464-.238.7-.161.469-.095.235-.033.1a50.732,50.732,0,0,1-3.237,5.924,57.5,57.5,0,0,1-12.836,14.8,24.372,24.372,0,0,1-9.466,4.786c-3.009.694-1.735,5.323,1.276,4.628,7.306-1.685,13.426-6.942,18.242-12.459a62.653,62.653,0,0,0,10.014-14.913,32.126,32.126,0,0,0,2.942-11.878c.1-3.089-4.7-3.085-4.8,0Z"/><path class="d" d="M54.1,79.521a9.711,9.711,0,0,0-12.517-.27C38,82.177,37.89,87.483,38.28,91.725c.8,8.766,5.445,19.782,15.156,21.474a2.469,2.469,0,0,0,2.952-1.677,2.42,2.42,0,0,0-1.676-2.952c-7.063-1.23-10.361-8.961-11.434-15.306a25.612,25.612,0,0,1-.3-5.263,8.277,8.277,0,0,1,.946-4.293,4.747,4.747,0,0,1,6.778-.793,2.464,2.464,0,0,0,3.394,0,2.42,2.42,0,0,0,0-3.394Z"/><path class="d" d="M52.545,107.443c3.07,14.516,11.639,28.664,25.317,35.38a34.3,34.3,0,0,0,11.661,3.341,2.416,2.416,0,0,0,2.4-2.4,2.454,2.454,0,0,0-2.4-2.4c-13.461-1.4-24.472-13.04-29.313-25.052a60.68,60.68,0,0,1-3.037-10.145c-.639-3.02-5.267-1.742-4.628,1.276Z"/><path class="d" d="M125.4,3.9C116.649.547,107.09-.331,97.775.1A69.9,69.9,0,0,0,67.053,9.229a54.421,54.421,0,0,0-17.62,15.26,69.616,69.616,0,0,0-10.49,22.72c-3.2,11.664-4.113,23.907-3.731,35.96.1,3.081,4.9,3.094,4.8,0-.577-18.2,1.656-37.864,11.7-53.526a47.174,47.174,0,0,1,14.8-14.5A66.147,66.147,0,0,1,93.878,5.219a78.612,78.612,0,0,1,17.938.183,51.133,51.133,0,0,1,12.307,3.123,2.418,2.418,0,0,0,2.952-1.676A2.453,2.453,0,0,0,125.4,3.9Z"/><path class="d" d="M165.167,83.169a126.342,126.342,0,0,0,.059-16.465,106.532,106.532,0,0,0-1.438-14.626c-2.078-11.125-6.634-22.252-13.939-30.981-1.922-2.3-4.129-4.346-6.245-6.459a30.6,30.6,0,0,0-6.9-5.259c-2.708-1.491-5.132,2.653-2.423,4.144a24.522,24.522,0,0,1,5.456,4.044c1.866,1.829,3.779,3.648,5.539,5.579a52.305,52.305,0,0,1,8.458,13.134,70.975,70.975,0,0,1,5.109,15.5,88.545,88.545,0,0,1,1.521,13.732,130.736,130.736,0,0,1,0,17.659,2.419,2.419,0,0,0,2.4,2.4,2.449,2.449,0,0,0,2.4-2.4Z"/><path class="d" d="M119.791,141.234a50.38,50.38,0,0,0,.21,6.337,12.509,12.509,0,0,0,1.69,5.667c2.371,3.425,6.2,5.888,9.588,8.188a2.4,2.4,0,1,0,2.423-4.144c-1.614-1.095-3.218-2.214-4.728-3.45-.661-.541-1.308-1.1-1.922-1.7-.267-.26-.53-.526-.78-.8-.127-.14-.25-.283-.371-.428-.245-.294.265.432-.066-.091-.145-.23-.29-.45-.413-.693-.132-.26.131.388-.006-.038-.072-.226-.152-.448-.218-.676a13.87,13.87,0,0,1-.449-2.294,53.655,53.655,0,0,1-.158-5.88c.02-3.089-4.78-3.093-4.8,0Z"/><path class="d" d="M78.171,141.444a51.44,51.44,0,0,1-.165,5.757,14.206,14.206,0,0,1-.482,2.362c-.067.222-.142.439-.219.658.054-.152.135-.232.017-.045-.085.133-.549.819-.213.393-2.188,2.771-5.51,4.655-8.48,6.5a2.4,2.4,0,1,0,2.423,4.144c1.939-1.206,3.852-2.459,5.668-3.846A20.629,20.629,0,0,0,81,153.325a11.19,11.19,0,0,0,1.7-5.211,47.924,47.924,0,0,0,.278-6.67c-.02-3.088-4.82-3.094-4.8,0Z"/><path class="d" d="M93.448,47.868A65.225,65.225,0,0,1,77.669,64.133,99.35,99.35,0,0,1,60.505,74.5q-2.475,1.17-4.972,2.3-1.1.493-2.2.978-.485.215-.971.424l-.337.145c-.7.3.4-.165-.24.1A2.481,2.481,0,0,0,50.113,81.4a2.415,2.415,0,0,0,2.953,1.676,147.137,147.137,0,0,0,15.811-7.4A97.7,97.7,0,0,0,88.916,60.808a62.5,62.5,0,0,0,8.677-10.517c1.69-2.6-2.464-5-4.145-2.423Z"/><path class="d" d="M90.811,60.443c-1.851.583-3.728,1.026-5.62,1.452-.847.191-1.694.381-2.548.541q-.65.122-1.3.22c-.126.019-.918.152-.26.04-.265.045-.535.067-.8.1a2.46,2.46,0,0,0-2.4,2.4c.052,1.176,1.064,2.556,2.4,2.4a64.372,64.372,0,0,0,11.807-2.522,2.4,2.4,0,0,0-1.276-4.629Z"/><path class="d" d="M121.99,41.127a55.049,55.049,0,0,1-13.413,10.94,83.441,83.441,0,0,1-17.766,8.376c-2.923.957-1.672,5.593,1.276,4.629A88.838,88.838,0,0,0,111,56.211c5.223-3.222,10.407-6.972,14.385-11.69a2.465,2.465,0,0,0,0-3.394,2.419,2.419,0,0,0-3.394,0Z"/><path class="d" d="M150.928,79.145c-7.2-3.637-12.4-10.057-16.68-16.73a55.615,55.615,0,0,1-7.876-19.34,2.4,2.4,0,1,0-4.629,1.276,57.21,57.21,0,0,0,5.508,15.626A69.187,69.187,0,0,0,138.97,76.214a37.3,37.3,0,0,0,9.536,7.076c2.75,1.39,5.183-2.75,2.422-4.145Z"/><path class="d" d="M241.581,223.873c.859-2.817,1.436-5.733,2.367-8.526a2.427,2.427,0,0,0-1.677-2.952c-4.221-1.144-8.435-2.311-12.635-3.532-5.62-1.634-11.305-3.245-16.74-5.432-1.288-.518-2.528.583-2.953,1.676-1.048,2.7-1.886,5.478-2.909,8.187a2.418,2.418,0,0,0,1.676,2.952,2.452,2.452,0,0,0,2.952-1.676c1.024-2.709,1.862-5.487,2.91-8.187l-2.952,1.677c5.435,2.186,11.12,3.8,16.74,5.431,4.2,1.221,8.414,2.389,12.635,3.532l-1.676-2.952c-.93,2.793-1.508,5.709-2.367,8.526-.9,2.961,3.729,4.227,4.629,1.276Z"/><path class="d" d="M76.215,180.937a93.618,93.618,0,0,0,25.195,3.407c8.146-.133,16.764-1.112,24.392-4.1a2.472,2.472,0,0,0,1.676-2.952,2.417,2.417,0,0,0-2.952-1.676c-7.265,2.844-15.359,3.8-23.116,3.926a88.634,88.634,0,0,1-23.919-3.235c-2.989-.792-4.264,3.837-1.276,4.628Z"/><path class="d" d="M89.953,260.817a6.165,6.165,0,0,1,.738.786l-.375-.486a5.29,5.29,0,0,1,.6,1.013l-.242-.573a4.968,4.968,0,0,1,.338,1.22l-.086-.638a5.4,5.4,0,0,1,0,1.362l.086-.638a5.955,5.955,0,0,1-.393,1.437l.242-.573a4.861,4.861,0,0,1-.576,1.017l.376-.486a4.3,4.3,0,0,1-.758.749l.485-.375a5.166,5.166,0,0,1-1.076.615l.573-.242a6.047,6.047,0,0,1-1.4.375l.639-.085a6.437,6.437,0,0,1-1.635,0l.638.086a5.672,5.672,0,0,1-1.342-.357l.574.242a4.45,4.45,0,0,1-.914-.523l.486.375a5.418,5.418,0,0,1-.89-.888l.375.486a4.627,4.627,0,0,1-.594-1.017l.242.573a4.383,4.383,0,0,1-.258-.962l.085.638a4.747,4.747,0,0,1,0-1.167l-.086.638A5.8,5.8,0,0,1,86.2,262l-.242.573a7.338,7.338,0,0,1,.924-1.549l-.375.486a4.48,4.48,0,0,1,.715-.735l-.485.375a4.837,4.837,0,0,1,.983-.575l-.573.242a5.715,5.715,0,0,1,1.441-.389l-.638.086a5.767,5.767,0,0,1,1.42,0l-.638-.086a5.138,5.138,0,0,1,1.169.313l-.574-.242a4.345,4.345,0,0,1,.955.557l-.485-.375c.053.042.105.085.156.13a2.554,2.554,0,0,0,1.7.7,2.4,2.4,0,0,0,1.7-4.1,7.131,7.131,0,0,0-4.585-1.75,7.537,7.537,0,0,0-4.182,1.145,8,8,0,0,0-3.358,8.064,6.953,6.953,0,0,0,2.863,4.062,7.777,7.777,0,0,0,10.758-2.454,7.785,7.785,0,0,0,.9-4.164,7.406,7.406,0,0,0-2.4-4.9,2.4,2.4,0,0,0-3.394,3.394Z"/><path class="d" d="M102.492,323.861c1.995-18.366,4.229-36.676,5.052-55.144a45.153,45.153,0,0,0-.272-8.373,40.7,40.7,0,0,0-2.512-8.677,2.468,2.468,0,0,0-2.952-1.676,2.419,2.419,0,0,0-1.677,2.952,42.886,42.886,0,0,1,2.346,7.612,33.667,33.667,0,0,1,.309,7.158c-.189,4.968-.541,9.932-.884,14.891-.617,8.911-1.6,17.783-2.583,26.66-.541,4.866-1.1,9.73-1.627,14.6a2.416,2.416,0,0,0,2.4,2.4,2.455,2.455,0,0,0,2.4-2.4Z"/><path class="d" d="M60.087,159.714a136.451,136.451,0,0,1-16.494,8.937c-6.053,2.934-12.1,5.948-18.3,8.57-2.823,1.195-5.893,2.463-7.984,4.8a26.413,26.413,0,0,0-4.709,8.737,74.009,74.009,0,0,0-3.048,11.5c-1.822,9.523-2.834,19.21-3.743,28.855-1.238,13.147-2.128,26.326-2.933,39.5C1.919,286.3,1.109,301.99.315,317.679Q.159,320.771,0,323.861c-.155,3.087,4.645,3.079,4.8,0,1.463-29.114,2.8-58.263,5.314-87.31.866-9.987,1.822-19.881,3.447-29.57a101.9,101.9,0,0,1,2.157-10.232,44.267,44.267,0,0,1,2.93-8.077,11.409,11.409,0,0,1,5.089-5.472c3.171-1.7,6.6-2.93,9.842-4.481,3.449-1.648,6.91-3.269,10.356-4.922,6.307-3.026,12.742-6.04,18.57-9.938,2.555-1.709.155-5.868-2.422-4.145Z"/><path class="d" d="M131.143,155.889c-3.058,12.374-7.1,24.486-11.318,36.5-4.2,11.962-8.535,23.878-12.87,35.791q-3.624,9.959-7.219,19.928a2.422,2.422,0,0,0,1.676,2.952,2.449,2.449,0,0,0,2.952-1.676c8.595-23.953,17.8-47.735,25.58-71.971,2.146-6.69,4.142-13.43,5.828-20.252.741-3-3.887-4.278-4.629-1.276Z"/><path class="d" d="M119.226,244.566q9.054-12.936,17.487-26.293,4.265-6.762,8.363-13.627c2.668-4.469,5.448-8.93,7.861-13.543a4.478,4.478,0,0,0,.182-4.324,14.031,14.031,0,0,0-2.825-3.164c-2.124-2.092-4.331-4.1-6.547-6.088l-.486,3.77c1.98-1.175,3.93-2.4,5.95-3.509,1.964-1.074,4.766-1.974,4.045-4.847a16.414,16.414,0,0,0-2.847-4.989,39.639,39.639,0,0,0-3.7-4.4,75.307,75.307,0,0,0-12.049-9.541c-2.564-1.737-4.968,2.419-2.422,4.144l2.9,1.963a38.188,38.188,0,0,1,3.424,2.527,52.482,52.482,0,0,1,5.847,5.466,28.055,28.055,0,0,1,2.308,2.9q.5.728.952,1.484.253.423.492.853c.057.1.387.836.385.621l.328-1.211-.163.258.861-.861a41.866,41.866,0,0,1-4.2,2.285c-1.523.882-3.02,1.81-4.534,2.708a2.421,2.421,0,0,0-.485,3.769c1.808,1.625,3.609,3.259,5.364,4.941q1.272,1.217,2.506,2.473c.055.055.511.628.648.668-.082-.024.012-.49,0-.474-.267.526-.579,1.033-.87,1.546q-3.707,6.526-7.563,12.967-7.608,12.7-15.79,25.053-4.694,7.086-9.571,14.049a2.421,2.421,0,0,0,.861,3.283,2.449,2.449,0,0,0,3.284-.861Z"/><path class="d" d="M37.567,323.861c.747-10.132,1.787-20.241,2.661-30.362.343-3.983.7-7.972.867-11.967a54.875,54.875,0,0,0-.426-8.487c-1.976-17.443-5.829-34.6-8.587-51.925-.938-5.893-1.824-11.8-2.8-17.681a93.29,93.29,0,0,0-2.415-11.916c-.9-2.946-5.535-1.69-4.629,1.276a82.177,82.177,0,0,1,2.119,10.158c.875,5.109,1.654,10.234,2.457,15.354,1.412,9,3.051,17.95,4.68,26.914,1.52,8.362,3.021,17.048,4.072,25.281a68.816,68.816,0,0,1,.785,9.22c-.028,3.506-.358,7.019-.644,10.511-.917,11.213-2.108,22.4-2.935,33.624a2.4,2.4,0,1,0,4.8,0Z"/><path class="d" d="M175.313,190.933c-2.481,18.424-4.842,36.823-8.172,55.121-1.55,8.514-3.089,17.042-4.2,25.627a57.278,57.278,0,0,0-.662,8.713c.088,3.55.4,7.1.7,10.637.909,10.947,2.062,21.874,2.869,32.83a2.459,2.459,0,0,0,2.4,2.4,2.42,2.42,0,0,0,2.4-2.4c-.721-9.792-1.717-19.563-2.572-29.343-.584-6.692-1.386-13.415-.657-20.12.861-7.923,2.393-16.211,3.847-24.282,1.6-8.868,3.178-17.729,4.489-26.647.909-6.184,1.746-12.378,2.553-18.576q.483-3.711.955-7.423.2-1.578.4-3.155l.177-1.359c.029-.217.183-1.372.1-.747a2.485,2.485,0,0,0-1.677-2.953,2.417,2.417,0,0,0-2.952,1.677Z"/><path class="d" d="M66.285,157.085c8.376,24.917,16.84,49.789,25.979,74.438,2.646,7.139,5.3,14.275,7.871,21.441a2.462,2.462,0,0,0,2.952,1.676,2.421,2.421,0,0,0,1.676-2.952c-4.583-12.768-9.421-25.442-14.028-38.2-4.452-12.331-8.7-24.735-12.9-37.151q-3.475-10.258-6.916-20.527c-.979-2.913-5.617-1.664-4.629,1.276Z"/><path class="d" d="M86.987,242.672Q69.932,218.3,55.125,192.465q-.532-.93-1.062-1.862c-.156-.276-.314-.551-.469-.828-.062-.11-.418-.923-.381-.594.007.063.045.3-.016.351.343-.3.657-.679.976-1q.66-.667,1.331-1.322c2.021-1.972,4.111-3.871,6.212-5.758a2.421,2.421,0,0,0-.486-3.769c-1.514-.9-3.011-1.825-4.534-2.709a41.843,41.843,0,0,1-4.2-2.284l.861.861-.163-.259.327,1.212c0,.18.25-.376.29-.45q.234-.436.481-.866.493-.855,1.039-1.679a30.483,30.483,0,0,1,2.257-3,48.25,48.25,0,0,1,5.76-5.631,33.7,33.7,0,0,1,3.415-2.543l2.9-1.963c2.543-1.723.144-5.883-2.423-4.144a66.591,66.591,0,0,0-11.973,9.682,42.005,42.005,0,0,0-3.635,4.521,17.688,17.688,0,0,0-2.819,5.039c-.731,2.774,1.93,3.7,3.842,4.737,2.093,1.132,4.107,2.405,6.152,3.619l-.485-3.769c-1.984,1.782-3.959,3.575-5.874,5.43-1.734,1.679-4.155,3.486-3.976,6.15a8.349,8.349,0,0,0,1.447,3.39q1.058,1.864,2.129,3.721,1.9,3.3,3.847,6.583,8.094,13.662,16.848,26.918,4.949,7.493,10.1,14.847a2.465,2.465,0,0,0,3.284.861,2.42,2.42,0,0,0,.861-3.284Z"/><path class="d" d="M195.686,255.951c4.622-13.913,8.7-27.986,12.8-42.06l-2.952,1.676q9.031,3.613,18.347,6.475a102.939,102.939,0,0,0,18.367,4.2l-2.314-3.038c-1.938,9.614-3.772,19.252-5.99,28.807-2.092,9.017-4.276,18.28-7.9,26.828-2.791,6.592-6.875,12.947-13.315,16.447a26.833,26.833,0,0,1-24.722.213,47.489,47.489,0,0,1-10.494-7.959c-3.251-3.055-6.313-6.3-9.425-9.491-2.16-2.216-5.552,1.18-3.394,3.4,5.844,6,11.6,12.522,18.763,16.992A31.791,31.791,0,0,0,211,301.276c17.324-6.251,22.25-26.5,26.24-42.438,2.844-11.363,5.011-22.878,7.326-34.356a2.449,2.449,0,0,0-2.315-3.038,98.827,98.827,0,0,1-17.474-4.149q-9.1-2.806-17.964-6.356a2.426,2.426,0,0,0-2.953,1.676c-4.1,14.073-8.182,28.147-12.8,42.06-.976,2.938,3.658,4.2,4.629,1.276Z"/><path class="d" d="M203.139,230.913c-4.5-12.02-7.387-24.528-11.533-36.662-2.1-6.136-4.2-13.433-9.524-17.636-2.5-1.973-5.618-2.737-8.453-4.078-3.044-1.439-6.159-2.723-9.3-3.947-7.113-2.773-14.389-5.217-21.147-8.812-2.726-1.45-5.154,2.692-2.422,4.145a160.123,160.123,0,0,0,18.581,7.873c3.074,1.166,6.153,2.333,9.165,3.654,1.382.607,2.732,1.287,4.12,1.882,1.412.605,2.884,1.082,4.275,1.733,5.717,2.679,7.721,9.711,9.637,15.2,1.991,5.7,3.675,11.5,5.336,17.3,1.989,6.949,4.1,13.85,6.633,20.621a2.466,2.466,0,0,0,2.952,1.676,2.419,2.419,0,0,0,1.676-2.952Z"/><path class="d" d="M218.1,199.085a55.007,55.007,0,0,1-1.38-14.1c.267-4.524,1.9-8.6,3.705-12.706,1.595-3.612,3.373-7.135,5.188-10.641.748-1.446,3.1-7.457,5.279-4.441a4.06,4.06,0,0,1,.411,2.733c-.046,1.2-.129,2.4-.257,3.587a40.471,40.471,0,0,1-1.728,7.979c-.944,2.949,3.689,4.212,4.628,1.276a45.87,45.87,0,0,0,1.8-8.381c.3-2.413.859-5.485.112-7.85a6.9,6.9,0,0,0-5.585-4.932c-2.5-.294-4.519.99-6.052,2.866a33.186,33.186,0,0,0-3.405,6.01c-1.035,2.011-2.056,4.03-3.024,6.074-2.2,4.649-4.608,9.511-5.438,14.624-1.043,6.424-.155,12.856,1.12,19.18a2.4,2.4,0,0,0,4.629-1.276Z"/><path class="d" d="M93.2,120.339a19.4,19.4,0,0,0,9.349,2.163,15.2,15.2,0,0,0,9.428-2.778,2.414,2.414,0,0,0,0-3.394,2.463,2.463,0,0,0-3.4,0c.726-.565.155-.128-.031-.008s-.382.232-.579.335c-.164.086-.874.368-.221.126-.266.1-.528.2-.8.291a14.03,14.03,0,0,1-2.236.51c.351-.052-.085.006-.221.02-.219.021-.439.04-.659.054-.529.034-1.059.047-1.589.044-.475,0-.949-.019-1.423-.051-.217-.015-.434-.032-.651-.054-.019,0-.8-.11-.324-.035a16.05,16.05,0,0,1-2.088-.464c-.292-.087-.578-.192-.866-.291-.616-.211.344.179-.212-.083q-.537-.253-1.061-.53a2.453,2.453,0,0,0-3.284.861,2.427,2.427,0,0,0,.861,3.284Z"/><path class="d" d="M101.344,98.3a44,44,0,0,1,1.034,4.732l-.085-.638a2.852,2.852,0,0,1,.017.653l.086-.638a1.558,1.558,0,0,1-.072.294l.242-.574a1.19,1.19,0,0,1-.1.189l.375-.486a.975.975,0,0,1-.155.153l.486-.375a3.27,3.27,0,0,1-.375.2l.574-.242a2.741,2.741,0,0,1-.632.184l.638-.085a2.557,2.557,0,0,1-.593,0l.638.085c-.224-.031-.443-.085-.667-.115a1.812,1.812,0,0,0-.957-.043,1.774,1.774,0,0,0-.892.285,2.4,2.4,0,0,0-.861,3.283,2.3,2.3,0,0,0,1.434,1.1c.507.068,1,.2,1.514.22a4.843,4.843,0,0,0,2.227-.529,3.208,3.208,0,0,0,1.78-2.116,5.328,5.328,0,0,0-.022-2.283c-.258-1.524-.61-3.035-1-4.53a2.4,2.4,0,1,0-4.629,1.276Z"/><path class="d" d="M76.3,84.9c-.79,2.568-.275,8.476,4.59,8.979,6.431-.039,6.773-7.181,4.608-10.539C83.723,80.591,78.512,79.448,76.3,84.9Z"/><path class="d" d="M127.791,84.9c.79,2.568.275,8.475-4.59,8.978-6.43-.039-6.773-7.181-4.608-10.539C120.365,80.591,125.576,79.448,127.791,84.9Z"/></svg>