<?xml version="1.0" encoding="utf-8"?>
<!-- Uploaded to: SVG Repo, www.svgrepo.com, Generator: SVG Repo Mixer Tools -->
<svg width="800px" height="800px" viewBox="-51.06 0 315.935 315.935" xmlns="http://www.w3.org/2000/svg"><defs><style>.a{fill:#aaa;}.b{fill:#ffffff;}.c{fill:#85807f;}.d{fill:#3d8dcc;}.e{fill:#645d5c;}.f{fill:#211715;}</style></defs><path class="a" d="M207.428,272.165a27.8,27.8,0,0,1-9.256,11.334c-10.541,7.884-27.5,14.484-36.727,17.539l-9.833-2.515L44.535,263.252c-8.965,7.865-23.837,8.349-32.956,0a24.568,24.568,0,0,1-7.887-13.541c-2.079-10.6-1.518-21.406.77-36.762,3.146-21.219,6.05-33.561,10.648-48.444,1.067-3.344,4.488-9.6,6.149-12.265a28.617,28.617,0,0,1,8.646-8.305c7.5-4.76,20.683-9.962,30.3-13.262a35.351,35.351,0,0,0,4.307,1.517c.062.81.163,2.138.163,2.138,1.054,11.936,9.976,50.423,15.4,64.882,2.75,7.315,4.367,11.2,7.436,18.8l2.937-.682c5.159-11.418,19.173-44.891,25.883-64.966,3.12-9.326,6.908-18.9,9.349-29.932,3.159,2.3,8.314,5.966,9.791,6.459,7.288,2.433,16.612,5.805,23.925,8.449,8.552,3.091,15.736,6.939,22.012,13.52,5.641,5.913,11.274,18.192,15.419,31.2,8.861,27.805,14.654,57.321,14.651,70.6,0,3.261-.968,11.028-2.032,14.165C208.852,268.572,208.239,270.361,207.428,272.165Z"/><path class="b" d="M30.038,198.022l14.917.707C52.7,195.8,58.039,205.923,57.183,212.7c0,0-.364,4.03-.7,7.813-7.648,2.182-14.694,4.156-20.017,5.549a1,1,0,0,0-.706,1.243c1.1,3.82,2.677,9.218,4.5,15.474l-7.747,2.873-3.444.863c-4.553.8-6.773,1.439-11.19-.866a13.168,13.168,0,0,1-3.565-3.341c-2.386-3.365-4.522-12.637-3.236-21.283.636-4.282,2.482-8.976,4.808-11.613a10.343,10.343,0,0,0,2.5-4.922,9.413,9.413,0,0,1,8.808-6.6Z"/><path class="b" d="M127.5,76.618a7.46,7.46,0,0,1,5.386-1.2c3.695.551,5.056,2.645,5.6,3.844,1.637,3.586.839,9.743-.968,13.408a19.534,19.534,0,0,1-7.361,8.708,14.218,14.218,0,0,1-7.683,1.6l-.567,1.186c-.841,1.765-2.833,4.857-2.833,4.857a62.373,62.373,0,0,1-6.929,8.707A60.318,60.318,0,0,1,98.194,127.78a68.837,68.837,0,0,1-14.118,4.855,51.741,51.741,0,0,1-5.146.725c-11.047,1-20.215-1.873-28.868-8.917-8.254-6.72-11.865-17.34-13.185-29.089-.761-6.776-1.426-14.14-2.416-21.5,0,0-8.827-31.472,32.507-31.472C128.634,42.383,127.5,76.618,127.5,76.618Z"/><path class="b" d="M116.5,151.855c2.935-8.717,6.421-17.665,8.817-27.841,0,0,.148-.625.372-1.576-1.515-1.1-2.58-1.9-2.58-1.9l-7.331-6.963c-1.117,1.411-2.312,2.793-3.628,4.158A60.318,60.318,0,0,1,98.194,127.78a68.837,68.837,0,0,1-14.118,4.855,51.741,51.741,0,0,1-5.146.725,39.419,39.419,0,0,1-14.623-1.228c.225,1.334.38,2.266.38,2.266,1.078,12.012,9.977,50.38,15.389,64.812,2.75,7.315,4.367,11.2,7.436,18.8l2.937-.682c5.159-11.418,19.173-44.891,25.883-64.966Q116.416,152.109,116.5,151.855Z"/><path class="c" d="M99.334,50.484a27.022,27.022,0,0,1,13.138,11.577,39.448,39.448,0,0,1,4.02,10.364L127.5,76.618a7.46,7.46,0,0,1,5.386-1.2c3.691.551,5.053,2.641,5.6,3.84,2.852-6.446,5.18-13.39,5.349-20.646.5-21.608-4.7-29.724-16.265-40.1C117.839,6.069,104.105,2.6,90.545,2.443A58.674,58.674,0,0,0,54.756,13.434,51.272,51.272,0,0,0,44.589,23.5C38,29.628,32.648,43.121,32.881,56.566A87.8,87.8,0,0,0,34.474,73.5C35.957,72,37.038,70.9,37.038,70.9c5.736-5.841,15.855-14.651,22.947-18.067.832-.4,1.9.134,2.229,1.4a7.631,7.631,0,0,1,.208,3.037,1.692,1.692,0,0,0,2.46,1.691c5.064-2.582,14.087-7.777,20.483-10.256a19.265,19.265,0,0,1,6.9,0A62.591,62.591,0,0,1,99.334,50.484Z"/><path class="d" d="M82.757,159.548c-.694,3.57-1.549,7.484-2,10.812a185.4,185.4,0,0,0-2.137,24.678c.5,1.543.99,2.945,1.451,4.172.971,2.584,1.8,4.739,2.6,6.782.821,2.087,1.616,4.065,2.5,6.253,3.011-.864,5.889-1.686,8.574-2.445,1.837-4.265,4.019-9.437,6.333-15.049-.678-4-1.249-7.375-1.249-7.375-1.067-4.29-4.477-24.695-4.521-26.048,1.133-4.081,2.43-8.844,3.753-12.913-4.3-2.932-9.25-5.915-12.081-7.765-2.9,2.521-5.183,4.588-7.744,7.224l.25.706C79.594,151.676,81.588,156.754,82.757,159.548Z"/><path class="e" d="M53.4,221.383c3.273-.93,6.69-1.909,10.159-2.907l-1.87-1.618c-15.3-15.143-26.8-26.86-40.588-41.211a1.8,1.8,0,0,0-2.656.056l-2.333,2.678-.955,1.1a1.8,1.8,0,0,0,.036,2.407c11.394,12.315,24.685,26.08,36.558,37.934Z"/><path class="f" d="M76.18,149.218c1.319,3.692,2.753,7.349,4.263,10.968V158.91a215.015,215.015,0,0,0-4.058,32.03c-.135,3.088,4.666,3.082,4.8,0a192.952,192.952,0,0,1,2.068-21.163c.316-2.04.717-4.065,1.121-6.089.2-1.023.428-2.045.614-3.072a4.443,4.443,0,0,0-.375-2.815c-1.334-3.259-2.62-6.543-3.8-9.859a2.462,2.462,0,0,0-2.953-1.676,2.421,2.421,0,0,0-1.676,2.952Z"/><path class="f" d="M95.752,147.776c-.713,2.211-1.372,4.439-2.008,6.673a44.572,44.572,0,0,0-1.786,6.56,17.688,17.688,0,0,0,.546,4.535q1.242,7.941,2.7,15.848c.405,2.211.786,4.438,1.322,6.622.737,3,5.367,1.728,4.629-1.276-1.073-4.368-1.74-8.859-2.5-13.288q-.669-3.9-1.3-7.8c-.151-.942-.3-1.885-.441-2.829-.053-.356-.1-.712-.155-1.067-.076-.5.041.522.02.152a1.286,1.286,0,0,1-.038-.324c.006-.028.03-.357-.007-.12-.051.338.136-.341.129-.318.115-.343.2-.7.291-1.054q.513-1.851,1.034-3.7c.7-2.456,1.414-4.906,2.2-7.336.95-2.947-3.683-4.209-4.629-1.276Z"/><path class="f" d="M83.366,162.9c3.055-.12,6.113-.247,9.171-.3a2.4,2.4,0,0,0,0-4.8c-3.058.054-6.116.181-9.171.3a2.4,2.4,0,1,0,0,4.8Z"/><path class="f" d="M77.562,152.1a126.229,126.229,0,0,1,10.123-9.748l-2.909.375c4.837,3.149,9.819,6.073,14.5,9.464a2.419,2.419,0,0,0,3.284-.861,2.455,2.455,0,0,0-.861-3.284c-4.676-3.391-9.658-6.315-14.5-9.463a2.449,2.449,0,0,0-2.908.375A125.9,125.9,0,0,0,74.168,148.7c-2.088,2.27,1.3,5.673,3.394,3.394Z"/><path class="f" d="M162.083,303.352a186.557,186.557,0,0,0,22.369-9.03c8.049-3.889,16.647-8.472,22.066-15.8,4.445-6.011,6.179-13.5,7-20.784.736-6.542,0-13.036-.913-19.527A344.145,344.145,0,0,0,199,180.963c-2.973-9.239-6.559-18.711-11.988-26.82-4.9-7.326-12.186-12.709-20.145-16.345-4.367-2-8.923-3.537-13.437-5.16-4.628-1.664-9.261-3.316-13.913-4.912-1.011-.346-2.02-.7-3.037-1.03-1.036-.334.092.133-.195-.047-.208-.131-.446-.228-.662-.348-1.1-.613-2.142-1.319-3.181-2.022-2.312-1.564-4.576-3.2-6.823-4.856q-.648-.477-1.293-.959a2.416,2.416,0,0,0-3.284.861,2.458,2.458,0,0,0,.861,3.284,111,111,0,0,0,11.147,7.751,21.439,21.439,0,0,0,3.84,1.534q3.3,1.12,6.586,2.281c4.481,1.576,8.951,3.187,13.418,4.8,8.372,3.025,16.251,6.8,22.531,13.276a40.855,40.855,0,0,1,6.321,9.117,105.918,105.918,0,0,1,5.822,12.871,282.843,282.843,0,0,1,9.179,30.128c2.356,9.139,4.428,18.362,6.05,27.662,2.231,12.8,4.022,26.31-1.308,38.628a26.453,26.453,0,0,1-7.174,9.677,61.272,61.272,0,0,1-10.5,6.87,159.289,159.289,0,0,1-22.516,9.96q-2.237.808-4.493,1.559c-2.918.969-1.668,5.606,1.276,4.628Z"/><path class="f" d="M146.539,261.868c5.419-2.3,10.628-4.977,15.921-7.541a2.422,2.422,0,0,0,.861-3.283,2.451,2.451,0,0,0-3.284-.861c-5.293,2.564-10.5,5.242-15.921,7.54a2.416,2.416,0,0,0-.861,3.284,2.465,2.465,0,0,0,3.284.861Z"/><path class="f" d="M42.833,261.558c-8.671,7.49-22.55,7.114-30.623-1.025A22.456,22.456,0,0,1,7,252.635a35.982,35.982,0,0,1-1.767-8.548,93.568,93.568,0,0,1,.084-18.723c.689-7.508,1.877-14.975,3.139-22.406,1.075-6.331,2.3-12.638,3.768-18.89,1.31-5.568,2.822-11.085,4.476-16.56a55.78,55.78,0,0,1,6.852-14.394c3.408-5.179,9.111-8.274,14.53-10.928a187.578,187.578,0,0,1,18.633-7.739c1.373-.5,2.747-1,4.132-1.458,2.916-.972,1.666-5.609-1.276-4.628-6.7,2.234-13.317,4.849-19.763,7.74-6,2.691-12.149,5.648-16.88,10.324a32.754,32.754,0,0,0-5.453,7.535,74.348,74.348,0,0,0-4.162,8.5,86.009,86.009,0,0,0-2.607,8.42Q9.465,175.216,8.37,179.6a321.371,321.371,0,0,0-7.6,43.223,101.459,101.459,0,0,0-.46,20.054,50.409,50.409,0,0,0,1.573,9.562,27.081,27.081,0,0,0,5.134,9.5c8.507,10.392,23.91,12.736,35.369,5.834a28.082,28.082,0,0,0,3.839-2.82c2.342-2.023-1.066-5.4-3.394-3.394Z"/><path class="f" d="M150.393,212.271l8.049,29.464c.813,2.977,5.445,1.713,4.629-1.276L155.021,211c-.813-2.976-5.445-1.713-4.628,1.276Z"/><path class="f" d="M81.882,85.456c-.654-2.4,0-7.844,4.511-8.163,5.943.227,6.046,6.84,3.945,9.88C88.618,89.662,83.767,90.563,81.882,85.456Z"/><path class="f" d="M46.555,85.426c-.6-2.405,0-7.868,4.131-8.189,5.443.227,5.537,6.861,3.613,9.911C52.723,89.645,48.28,90.55,46.555,85.426Z"/><path class="f" d="M64.874,90.9c-.767,1.3-1.5,2.617-2.152,3.976a5.667,5.667,0,0,0-.674,2.22,3.2,3.2,0,0,0,1.085,2.53,4.9,4.9,0,0,0,2.023,1.148,11.525,11.525,0,0,0,1.494.2l-.638-.085.058.008a2.638,2.638,0,0,0,1.849-.242,2.4,2.4,0,0,0,.861-3.284,2.307,2.307,0,0,0-1.434-1.1c-.423-.061-.845-.1-1.268-.151l.638.086a2.574,2.574,0,0,1-.586-.156l.573.242A2.724,2.724,0,0,1,66.214,96l.486.375a2.975,2.975,0,0,1-.408-.377l.375.485a.71.71,0,0,1-.085-.143l.242.573a1.091,1.091,0,0,1-.062-.239l.086.638a1.6,1.6,0,0,1,0-.259l-.086.638a2.693,2.693,0,0,1,.183-.628l-.242.573a40.677,40.677,0,0,1,2.312-4.312A2.4,2.4,0,1,0,64.874,90.9Z"/><path class="f" d="M128.714,78.691a5.664,5.664,0,0,1,6.918.539,3.541,3.541,0,0,1,.24.265c-.027-.032-.192-.265-.04-.05.115.162.22.33.318.5a4.745,4.745,0,0,1,.457,1.133,12.468,12.468,0,0,1,.347,4.106c-.287,5.374-3.25,11.341-8,14.121-1.849,1.082-5.478,1.978-7.842.893a2.471,2.471,0,0,0-3.283.861,2.419,2.419,0,0,0,.861,3.284,14.208,14.208,0,0,0,11.415-.281c3.54-1.5,6.355-4.619,8.272-7.881a24.121,24.121,0,0,0,3.355-10.622c.241-3.351-.259-7.076-2.62-9.637a10.353,10.353,0,0,0-12.819-1.378c-2.55,1.714-.151,5.874,2.423,4.145Z"/><path class="f" d="M78.685,108.847c-.188.107-.381.2-.572.3-.487.255.335-.119.028,0-.109.041-.217.085-.327.126a13.183,13.183,0,0,1-1.5.443q-.373.087-.751.156c-.127.024-.255.044-.382.066-.621.106.325-.026-.04.007-.555.049-1.106.1-1.664.112a15.147,15.147,0,0,1-1.536-.049c-.075-.006-.611-.046-.236-.017.335.026-.066-.011-.133-.022-.233-.039-.465-.084-.7-.138a22.889,22.889,0,0,1-3.274-1.147,2.407,2.407,0,0,0-2.953,1.676,2.472,2.472,0,0,0,1.677,2.952,21.457,21.457,0,0,0,3.444,1.186,17.353,17.353,0,0,0,11.334-1.5,2.4,2.4,0,1,0-2.423-4.145Z"/><path class="f" d="M99.406,129.852a60.033,60.033,0,0,0,14.225-10.206,56.881,56.881,0,0,0,6.2-7.5,47.966,47.966,0,0,0,4.151-6.763,2.463,2.463,0,0,0-.861-3.284,2.422,2.422,0,0,0-3.283.861c-4.856,9.957-13.141,17.655-22.859,22.752-2.737,1.435-.313,5.579,2.423,4.144Z"/><path class="f" d="M32.061,73.855c1.09,8.164,1.648,16.4,2.809,24.551a51.865,51.865,0,0,0,6.141,19.019c6.917,11.779,20.747,18.669,34.215,18.527,8.485-.09,16.533-2.566,24.18-6.1a2.42,2.42,0,0,0,.861-3.283,2.455,2.455,0,0,0-3.284-.861c-11.614,5.367-25.333,7.928-37.3,2.107a33.7,33.7,0,0,1-13.77-11.579c-3.332-5.154-5.09-11.116-6.109-17.123-1.416-8.344-1.826-16.869-2.946-25.258a2.48,2.48,0,0,0-2.4-2.4c-1.163,0-2.573,1.106-2.4,2.4Z"/><path class="f" d="M127.4,14.582a44.046,44.046,0,0,0-24.566-13.36,68.035,68.035,0,0,0-29.091.741,57.58,57.58,0,0,0-24.787,13.18,49.732,49.732,0,0,0-5.175,5.5c-1.353,1.7-2.894,3.215-4.2,4.97a44.442,44.442,0,0,0-6.193,12.4C29.531,49.5,29.928,61.89,32.073,73.68a2.421,2.421,0,0,0,2.952,1.676A2.452,2.452,0,0,0,36.7,72.4c-1.774-9.744-2.254-20.05.291-29.7A45.412,45.412,0,0,1,42.068,30.5a26.2,26.2,0,0,1,3.251-4.337c1.525-1.614,2.849-3.4,4.383-5.015C62.11,8.07,80.744,3.111,98.462,5.354c9.785,1.239,18.844,5.268,25.541,12.622,2.084,2.289,5.471-1.113,3.394-3.394Z"/><path class="f" d="M142.226,76.517a57.228,57.228,0,0,0,3.75-14.237,68.4,68.4,0,0,0,.014-13.7c-.569-6.709-2.108-13.336-5.623-19.147a47.013,47.013,0,0,0-6.512-8.245c-2.15-2.225-5.542,1.171-3.394,3.395a36.083,36.083,0,0,1,8.706,13.641c2.28,6.9,2.652,14.565,2.215,21.771A50.291,50.291,0,0,1,137.6,75.241a2.417,2.417,0,0,0,1.676,2.952,2.456,2.456,0,0,0,2.952-1.676Z"/><path class="f" d="M137.016,138.5a33.465,33.465,0,0,1,2.927,5.147,13.045,13.045,0,0,1,1.271,3.478v-1.276q.987-1.374.518-.925.584-.436.277-.22a3.642,3.642,0,0,0-.439.273c-.374.223-.76.428-1.145.633-1.215.645-2.451,1.252-3.687,1.857-2.469,1.208-4.957,2.377-7.431,3.575a2.424,2.424,0,0,0-.486,3.769c1.638,1.762,3.285,3.515,4.905,5.293q1.07,1.174,2.12,2.365c.656.745,1.735,1.6,1.933,2.627.126.656-.361,1.14-.707,1.665q-.716,1.086-1.42,2.176-1.527,2.359-3.026,4.738c-4.7,7.442-9.323,14.939-14.071,22.354q-4.643,7.25-9.455,14.388c-1.736,2.566,2.421,4.97,4.144,2.423,5.849-8.644,11.443-17.454,16.98-26.3,2.309-3.689,4.609-7.385,6.939-11.061q1.53-2.415,3.084-4.814c1.14-1.752,2.5-3.428,2.348-5.65-.207-3.021-2.667-5.189-4.571-7.306s-3.866-4.2-5.809-6.292l-.485,3.769c4.02-1.945,8.178-3.715,12.054-5.943a4.632,4.632,0,0,0,1.793-1.489c.628-1.054.236-2.284-.149-3.349a35.487,35.487,0,0,0-4.267-8.328,2.466,2.466,0,0,0-3.284-.861,2.421,2.421,0,0,0-.861,3.284Z"/><path class="f" d="M62.287,134.4c.92,10.046,3.357,20.05,5.623,29.856a340.21,340.21,0,0,0,8.9,32.9c2.471,7.276,5.516,14.368,8.392,21.489a2.477,2.477,0,0,0,2.953,1.677,2.417,2.417,0,0,0,1.676-2.953c-2.674-6.62-5.449-13.215-7.854-19.94-1.649-4.611-3-9.331-4.3-14.05q-4.788-17.389-8.307-35.114c-.542-2.728-1.055-5.463-1.506-8.207q-.274-1.661-.508-3.326a2.813,2.813,0,0,1-.04-.315c-.026-.209-.052-.419-.077-.628q-.081-.7-.145-1.393a2.466,2.466,0,0,0-2.4-2.4,2.417,2.417,0,0,0-2.4,2.4Z"/><path class="f" d="M92.521,218.539c4.487-9.942,8.646-20.04,12.739-30.149,4.923-12.156,9.639-24.387,13.863-36.8,3.035-8.921,6.329-17.749,8.51-26.933.713-3-3.914-4.285-4.629-1.276a246.282,246.282,0,0,1-7.459,23.886c-2.107,6.056-4.162,12.122-6.412,18.128-4.609,12.3-9.541,24.479-14.636,36.584-1.992,4.734-4.008,9.461-6.121,14.142a2.474,2.474,0,0,0,.861,3.284,2.42,2.42,0,0,0,3.284-.861Z"/><path class="f" d="M98.123,52.556a25.848,25.848,0,0,1,10.27,7.761,34.494,34.494,0,0,1,5.785,12.746c.764,2.991,5.395,1.724,4.629-1.276a38.824,38.824,0,0,0-6.644-14.38,29.918,29.918,0,0,0-11.617-9,2.474,2.474,0,0,0-3.284.861,2.42,2.42,0,0,0,.861,3.284Z"/><path class="f" d="M63.39,215.161q-18.785-18.6-37.133-37.621-1.1-1.136-2.188-2.272a7.756,7.756,0,0,0-2.876-2.326,4.286,4.286,0,0,0-4.591,1.237,25.626,25.626,0,0,0-3.78,4.511c-1.295,2.371.146,4.32,1.723,6.019q2.21,2.38,4.432,4.748,4.743,5.055,9.541,10.058,10.651,11.115,21.54,22c2.188,2.186,5.584-1.207,3.394-3.394q-17.779-17.758-34.911-36.158c-.351-.377-.7-.759-1.051-1.132-.056-.059-.274-.376-.363-.375-.222,0,.109.072-.009.231-.4.538-.239.464.115.057l1.965-2.255a6.377,6.377,0,0,0,.759-.871c.018-.032.189-.18.179-.206.047.121-.647,0-.628-.009-.112.073.177.23.377.437l.474.494.944.981q1.165,1.212,2.333,2.422,8.159,8.457,16.4,16.833Q49.951,208.629,60,218.555c2.2,2.176,5.594-1.217,3.394-3.394Z"/><path class="f" d="M38.735,72.593A105.97,105.97,0,0,1,57.578,56.928c.745-.466,1.5-.915,2.272-1.335.156-.084,1.05-.427,1.082-.563-.018.079-.8-.067-.857-.053-.258.061-.266-.67-.07.338.191.975-.1,1.947.094,2.917a4.1,4.1,0,0,0,1.955,2.759c2.07,1.2,4,.073,5.865-.91,1.778-.939,3.547-1.9,5.321-2.844A122.439,122.439,0,0,1,86,51.017a2.472,2.472,0,0,0,1.676-2.952,2.418,2.418,0,0,0-2.952-1.677,119.56,119.56,0,0,0-12.015,5.7c-1.875.988-3.741,1.995-5.611,2.994q-1.207.646-2.42,1.282c-.147.077-.742.318-.742.4,0-.165.758.232.668.2.321.126.035.674.25-.028a7.033,7.033,0,0,0-.329-3.342,4.561,4.561,0,0,0-2.283-2.881c-2.093-1.061-4.152.322-5.937,1.371A83.131,83.131,0,0,0,45.847,59.63,134.794,134.794,0,0,0,35.341,69.2c-2.17,2.2,1.222,5.6,3.394,3.394Z"/><path class="f" d="M48.158,141.68a34.476,34.476,0,0,0-3.831,5.639c-.876,1.626-2.279,3.809-1.942,5.73.439,2.5,3.73,3.3,5.751,4.191.253.112.845.523,1.12.5.023,0,.141.083.157.07-.224.195-.365-.961-.255-.881-.1-.072-4.02,4.246-4.443,4.707-1.565,1.7-3.548,3.473-2.685,6a35.075,35.075,0,0,0,2.805,5.249c2.827,5.113,5.818,10.143,8.515,15.326l6.21,11.935,4.926,9.466c1.426,2.741,5.57.317,4.145-2.423l-10.2-19.609c-2.059-3.958-4.261-7.824-6.441-11.717q-1.611-2.877-3.206-5.762-.668-1.208-1.33-2.417c-.205-.376-.411-.752-.615-1.128-.139-.254-.1-.488-.252-.324a.921.921,0,0,1-.047.378q-.169.54.238-.093c.762-.671,1.406-1.57,2.1-2.314.772-.825,1.553-1.641,2.333-2.458,1.44-1.507,2.957-2.976,2.6-5.252-.453-2.868-3.8-3.64-6.08-4.649a3.591,3.591,0,0,0-.806-.357c-.447-.059-.511-.554-.063.444.37.826.139.756.358.424a11.021,11.021,0,0,0,.575-1.274,29.446,29.446,0,0,1,3.764-6,2.469,2.469,0,0,0,0-3.394,2.42,2.42,0,0,0-3.395,0Z"/><path class="f" d="M45.593,201.044a9.016,9.016,0,0,1,1-.311c.163-.039.327-.068.491-.1.406-.084-.473.021.083,0a8.818,8.818,0,0,1,.934,0c.076,0,.152.013.229.018.328.021-.06.1-.188-.025.069.07.409.081.513.107.292.073.567.183.852.272.239.074-.224-.087-.229-.1.012.028.173.08.2.095.156.081.312.158.464.245.264.151.513.323.763.494.361.247-.33-.289,0,0,.136.121.275.237.408.36q.348.322.665.675c.107.119.21.241.314.363.356.412-.158-.24.075.087a15.963,15.963,0,0,1,1.14,1.822c.158.3.3.6.443.908.2.414-.143-.379.022.049.072.184.144.368.211.553a16.891,16.891,0,0,1,.59,2.022c.043.189.082.38.118.571.015.081.03.163.044.245.019.109.171.51.032.169-.1-.256-.013-.119,0,.006.011.108.024.215.035.323.018.187.032.375.043.562a12.84,12.84,0,0,1-.068,2.244,2.4,2.4,0,0,0,2.4,2.4,2.472,2.472,0,0,0,2.4-2.4,17.652,17.652,0,0,0-1.972-9.776,12.8,12.8,0,0,0-7.317-6.722,9.5,9.5,0,0,0-5.977.218,2.4,2.4,0,0,0,1.276,4.629Z"/><path class="f" d="M27.2,195.487a12.012,12.012,0,0,0-7.72,3.031,11.222,11.222,0,0,0-2.486,3.109c-.669,1.255-.865,2.612-1.408,3.9a15.326,15.326,0,0,1-2.2,3.187,19.309,19.309,0,0,0-2.117,3.549A30.153,30.153,0,0,0,8.7,220.83a40.781,40.781,0,0,0,1.449,18.115c1.594,4.862,4.778,8.628,9.8,10.157,4.326,1.316,8.962-.078,13.2-1.141,3-.751,1.726-5.381-1.276-4.629-2.846.714-5.816,1.636-8.776,1.5a9.316,9.316,0,0,1-8-6.244,35.711,35.711,0,0,1-1.941-14.42,23.865,23.865,0,0,1,4.965-13.713,13.259,13.259,0,0,0,2.144-3.793,13.3,13.3,0,0,1,1.331-3.371,7.048,7.048,0,0,1,5.6-3c3.085-.059,3.095-4.86,0-4.8Z"/><path class="f" d="M26.781,198.525c.455,3.259,2.5,6.154,4.574,8.6a65.134,65.134,0,0,0,7.469,7.227c1.246,1.067,2.515,2.109,3.745,3.194A17.252,17.252,0,0,1,44.1,219c-.346-.39.107.174.189.356a2.909,2.909,0,0,1,.217.725,1.674,1.674,0,0,1-.761,1.716c-1.184.79-2.787.44-4.026-.014a23.077,23.077,0,0,1-5.065-3.066q-2.735-1.923-5.289-4.078a2.466,2.466,0,0,0-3.394,0,2.42,2.42,0,0,0,0,3.394q2.667,2.241,5.494,4.284a34,34,0,0,0,5.437,3.463c3.708,1.712,8.619,1.986,11.249-1.706,2.046-2.872,1.191-6.725-1.232-9.051-2.782-2.671-5.9-4.977-8.693-7.643-2.856-2.725-6.238-6.02-6.812-10.127a2.415,2.415,0,0,0-2.952-1.677,2.465,2.465,0,0,0-1.676,2.953Z"/><path class="f" d="M25.156,228.058a65.937,65.937,0,0,0,8.93,6.232,2.4,2.4,0,1,0,2.423-4.144,49.354,49.354,0,0,1-4.291-2.744q-1.059-.742-2.093-1.519l-.536-.4-.261-.2c-.256-.2.124.1.18.139-.325-.244-.641-.5-.958-.754a2.6,2.6,0,0,0-1.7-.7,2.4,2.4,0,0,0-1.7,4.1Z"/><path class="f" d="M24.868,237.2c.938.763,1.891,1.518,2.9,2.189a17.511,17.511,0,0,0,3.02,1.576,2.4,2.4,0,0,0,1.849-.242,2.4,2.4,0,0,0,.861-3.284l-.375-.486a2.4,2.4,0,0,0-1.059-.617l-.076-.031.574.242a17.783,17.783,0,0,1-3.837-2.364l.486.375c-.318-.246-.633-.5-.946-.752a1.791,1.791,0,0,0-.772-.5,1.8,1.8,0,0,0-.925-.207,2.4,2.4,0,0,0-2.4,2.4,2.338,2.338,0,0,0,.7,1.7Z"/><path class="b" d="M123.048,306.288c6.406.11,12.8-.232,18.892-2.114,1.766-.545,3.489-1.215,5.211-1.885,6.228-2.559,10.394-11,9.422-18.167a34.309,34.309,0,0,0-1.885-6.985,40.158,40.158,0,0,0-8.007-11.611c-2.4-2.448-5.644-6.188-10.215-9.13a21.263,21.263,0,0,0-1.953-.944A20.237,20.237,0,0,0,124,253.977c1.832,5.277,3.289,9.45,4.015,11.489-2.468,1.9-4.218,2.915-9.031,2.953-5.368.042-18.577.524-23.939.821A5.975,5.975,0,0,0,90.27,271.5a5.4,5.4,0,0,0,.207,5.719,5.188,5.188,0,0,0,3.851,1.863c-4.158,1.867-3.755,7.366-1.44,9.228a7.508,7.508,0,0,0,4.824,1.31,7.339,7.339,0,0,0-1.237,4.251,4.665,4.665,0,0,0,3.219,4.114c2.438.914,5.213.369,7.7.407-1.856,2.087-.454,5.06,1.693,6.31,1.837,1.069,4.054,1.195,6.176,1.295C117.844,306.123,120.447,306.243,123.048,306.288Z"/><path class="f" d="M104.461,298.708c-1.667,4.684,2.738,8.6,6.966,9.321a55.5,55.5,0,0,0,7.082.518c2.482.1,4.966.176,7.45.156a62.037,62.037,0,0,0,14.392-1.6c4.148-1.027,8.663-2.433,11.936-5.284a21.026,21.026,0,0,0,6.41-19.391,32.111,32.111,0,0,0-4.127-10.654,55.119,55.119,0,0,0-7.689-9.508c-3.326-3.476-6.94-7.111-11.433-9.007A30.689,30.689,0,0,0,127,251.44a2.413,2.413,0,0,0-2.4,2.4,2.46,2.46,0,0,0,2.4,2.4l2.368.3c.461.058.926.1,1.386.174.139.022.284.022.421.054.056.012.106.063-.048.017-.249-.074.729.247.73.248,3.66,1.124,6.55,3.581,9.25,6.212,4.839,4.715,10.066,10.062,12.056,16.7a39.116,39.116,0,0,1,.947,3.982c.051.272.1.545.146.819-.1-.677.021.4.031.583.027.465.032.931.019,1.4a17.059,17.059,0,0,1-2.786,8.684,13.486,13.486,0,0,1-7.163,5.4,46.45,46.45,0,0,1-12.146,2.812,107.95,107.95,0,0,1-14.4.1c-2.151-.093-4.476.016-6.548-.655-1.337-.433-2.7-1.585-2.173-3.079a2.423,2.423,0,0,0-1.676-2.952,2.45,2.45,0,0,0-2.953,1.676Z"/><path class="b" d="M104.473,300.166c-7.48,2.559-36.264,11.479-42.4,13.38a.99.99,0,0,1-1.249-.667c-2.417-8.218-19.558-66.525-25.067-85.579a1,1,0,0,1,.706-1.243c18.132-4.745,56.263-16.233,70.071-19.75a1,1,0,0,1,1.192.638c4.44,12.816,16.722,48.412,19.991,57.664Z"/><path class="f" d="M130.03,263.971c-2.834-8.023-5.6-16.069-8.385-24.109q-5.055-14.6-10.1-29.21l-.9-2.611a8.048,8.048,0,0,0-1.462-3.164c-1.823-1.822-4.67-.533-6.8.039-4.447,1.2-8.879,2.455-13.308,3.718-11.265,3.214-22.508,6.5-33.772,9.714-5.056,1.441-10.115,2.872-15.188,4.25-2.363.641-6.077.892-6.709,3.741-.37,1.67.716,3.936,1.184,5.55q3.735,12.856,7.506,25.7,4.367,14.91,8.744,29.816,3.254,11.08,6.51,22.16.446,1.512.89,3.026a7.8,7.8,0,0,0,.583,1.642,3.51,3.51,0,0,0,4.214,1.525c3.372-.949,6.7-2.079,10.05-3.12,9.285-2.89,18.574-5.771,27.825-8.77,1.4-.455,2.806-.913,4.2-1.389,2.907-.993,1.658-5.631-1.276-4.629-11.815,4.033-23.8,7.6-35.72,11.307l-4.051,1.258a19.72,19.72,0,0,1-2.95.86H62.39c1.043.188.774,1.35.639.6-.026-.14-.084-.285-.124-.421l-.311-1.056-.792-2.7q-1.081-3.678-2.162-7.356-3.062-10.419-6.119-20.837-6.6-22.475-13.16-44.957-.616-2.113-1.23-4.228-.242-.83-.481-1.658a7.621,7.621,0,0,0-.535-1.846l-.787,1.492.23-.061a3.292,3.292,0,0,0,.7-.186l1.091-.29q1.346-.362,2.691-.728,2.819-.768,5.631-1.556c8.878-2.48,17.733-5.045,26.589-7.6,8.3-2.4,16.588-4.805,24.908-7.116q2.346-.653,4.7-1.286,1.012-.271,2.025-.537a4.62,4.62,0,0,0,.834-.216c1.031-.511-1.234,1.959-1.26-.979a2.434,2.434,0,0,0,.184.53q1.582,4.572,3.163,9.144,7.743,22.393,15.517,44.777.532,1.521,1.068,3.041a2.461,2.461,0,0,0,2.952,1.676,2.422,2.422,0,0,0,1.677-2.952Z"/><path class="f" d="M127.2,263.064a11.857,11.857,0,0,1-4.849,2.665,32.436,32.436,0,0,1-6.258.337c-4.951.107-9.9.284-14.849.487-4.4.18-10.781-.48-13.242,4.075A7.7,7.7,0,0,0,89.01,279.2c2.126,2.278,5.263,2.387,8.163,2.318q12.4-.291,24.791-.822c3.076-.137,3.093-4.938,0-4.8q-10.186.453-20.379.713-2.452.065-4.906.121a8.762,8.762,0,0,1-3.352-.282,1.98,1.98,0,0,1-1.3-1.59,3.406,3.406,0,0,1-.057-1.253,3.936,3.936,0,0,1,.181-.554c.207-.6-.031-.1.249-.392,1.109-1.148,3.331-1.059,5-1.138q3.253-.153,6.508-.273c4.416-.169,8.834-.324,13.253-.4a26.627,26.627,0,0,0,7.311-.7,18.9,18.9,0,0,0,6.128-3.682,2.414,2.414,0,0,0,0-3.394,2.46,2.46,0,0,0-3.394,0Z"/><path class="f" d="M92.175,277.548a8.25,8.25,0,0,0-3.2,8.522c.748,3.582,3.7,5.5,7.183,5.873a36.393,36.393,0,0,0,5.736-.1l6.664-.348,13.574-.71c3.073-.161,3.092-4.962,0-4.8l-21.966,1.149a17.945,17.945,0,0,1-4.118-.02,2.808,2.808,0,0,1-2.093-1.243,4.019,4.019,0,0,1-.389-2.114,3.031,3.031,0,0,1,1.029-2.062,2.477,2.477,0,0,0,.861-3.284,2.418,2.418,0,0,0-3.284-.861Z"/><path class="f" d="M123.929,295.108q-8.746.433-17.491.887c-2.08.107-4.987.656-6.77-.736-1.406-1.1-.73-3.172.116-4.423l-2.072,1.188h.012c3.088,0,3.093-4.8,0-4.8-3.287,0-4.085,5.943-3.428,8.3.933,3.347,4.259,5.007,7.471,5.328,3.542.354,7.284-.193,10.83-.375q5.665-.289,11.332-.571c3.074-.153,3.093-4.954,0-4.8Z"/></svg>