<?xml version="1.0" encoding="utf-8"?>
<!-- Uploaded to: SVG Repo, www.svgrepo.com, Generator: SVG Repo Mixer Tools -->
<svg width="800px" height="800px" viewBox="-10.75 0 365.63 365.63" xmlns="http://www.w3.org/2000/svg"><defs><style>.a{fill:#ffffff;}.b{fill:#fed296;}.c{fill:#9ed799;}.d{fill:#b5886a;}.e{fill:#211715;}.f{fill:#a0a0a0;}.g{fill:#3d8dcc;}.h{fill:#a98a75;}.i{fill:#85807f;}</style></defs><path class="a" d="M223.667,74.453a48.654,48.654,0,0,0,6.2-9.1l.014-.033a17.843,17.843,0,0,1-20.271-3.053c.222,1.533.414,2.886.414,2.886A36.071,36.071,0,0,0,215.3,79.584a2.486,2.486,0,0,0,.82.9c.763.405,1.627-.189,2.295-.776A54.367,54.367,0,0,0,223.667,74.453Z"/><path class="b" d="M283.981,269.633v9.93c5.39,3.11,20.486,11.777,25.474,14.659a5.678,5.678,0,0,0,5.124,0l24.991-14.433a5.045,5.045,0,0,0,2.529-4.382V264.1Z"/><path class="b" d="M207.52,314.588v9.931c5.39,3.109,20.486,11.776,25.474,14.659a5.678,5.678,0,0,0,5.124,0l24.991-14.432a5.047,5.047,0,0,0,2.529-4.383v-11.3Z"/><path class="c" d="M126.633,133.426l55.057-31.782c.006-11.862.062-96.794.062-99.653C164.936,11.7,15.779,97.829,2.069,105.75c-.015,2.36-.04,87.56-.042,99.6l112.6-65,10.719-6.188Z"/><path class="d" d="M4.047,218.249,2,219.431c0-.7,0-6.04.006-14.062-5.359,3.092,183.662-106.021,179.711-103.741-.006,8.151-.008,13.519-.008,14.032Z"/><path class="e" d="M4,219.431q0-6.177,0-12.352.006-13.394.013-26.786l.015-32.066q.007-13.886.013-27.771,0-4.709,0-9.418c0-1.623.109-3.288,0-4.909-.008-.121,0-.244,0-.365l-.991,1.727q3.791-2.192,7.581-4.38l13.849-8,18.62-10.753,21.9-12.643,23.671-13.67,23.953-13.832,22.737-13.129,20.024-11.562,15.814-9.132,10.141-5.856,1.415-.817-3.01-1.727q0,6.127,0,12.254,0,13.452-.01,26.906-.006,15.993-.013,31.988,0,13.954-.01,27.909,0,4.715,0,9.428c0,1.593-.1,3.226,0,4.818.007.12,0,.244,0,.366l.991-1.727-5.711,3.3-13.205,7.625-19,10.972-22.931,13.241L94.924,163.463,69.592,178.091,45.786,191.837l-20.38,11.768L10.089,212.45l-8.318,4.8-.78.451c-2.229,1.286-.217,4.744,2.018,3.454l13.33-7.7,28.929-16.705,37.373-21.581,39.337-22.714,34.174-19.734,22-12.7c1.461-.844,2.97-1.635,4.4-2.538,1.111-.7,1.161-1.654,1.162-2.786q0-1.83,0-3.661.006-16.8.013-33.591.008-22.085.017-44.17.006-14.682.011-29.363V1.991A2.019,2.019,0,0,0,180.743.264L163.675,10.12l-30.648,17.7L95.243,49.636,56.676,71.907,24.129,90.7Q13.913,96.6,3.7,102.5c-.8.462-1.619.9-2.4,1.389-1.219.757-1.239,1.733-1.239,2.946q0,4.4,0,8.794-.009,17.55-.017,35.1Q.023,171.171.013,191.609.006,204.64,0,217.669q0,.88,0,1.762C0,222,4,222.009,4,219.431Z"/><path class="e" d="M180.68,99.917l-5.74,3.313-13.3,7.679L142.5,121.957l-22.977,13.264L94.348,149.753,68.92,164.431l-23.735,13.7L24.777,189.913l-15.071,8.7-8.023,4.632-.666.384c-2.229,1.286-.217,4.744,2.019,3.454l6.008-3.469,13.512-7.8,19.292-11.136L64.919,171.36q12.6-7.277,25.21-14.552l25.405-14.666,23.656-13.655,20.27-11.7,14.875-8.587,7.769-4.485.594-.343c2.229-1.287.217-4.745-2.018-3.454Z"/><path class="e" d="M340.091,276.7q0,12.435.008,24.868c0,2.574,4,2.578,4,0q0-12.433-.008-24.868c0-2.573-4-2.578-4,0Z"/><path class="e" d="M310.336,294.566v24.176c0,2.574,4,2.578,4,0V294.566c0-2.574-4-2.578-4,0Z"/><path class="a" d="M283.783,299.418c.069-.045.136-.092.2-.139,0-2.3,0-5.159-.008-8.073-1.286-.053-2.653-.1-3.837-.159a7.214,7.214,0,0,1-4.208-1.1,5.835,5.835,0,0,1-1.049-2.565c-.049-.3-.1-.595-.144-.892-1.316-.388-4.465.039-5.762.35a5.239,5.239,0,0,0-3.033,2.435,3.568,3.568,0,0,0-.425,1.729,3.681,3.681,0,0,0,.605,2.411,7.579,7.579,0,0,0,.542.687c2.1,2.386,5.1,3.745,8.04,4.96a15.169,15.169,0,0,0,5.14,1.423A6.8,6.8,0,0,0,283.783,299.418Z"/><path class="a" d="M275.008,287.928c-.049-.183-.091-.367-.125-.545-.744-4.523-1.232-8.94-1.608-13.836-.125-1.631-.17-3.984-.284-5.615l-.035-.5c3.321,1.462,7.566,3.192,10.522,4.548l.5.23c0,2.756,0,5.1,0,7.38,0,2.961,0,7.352,0,11.617-1.287-.053-2.655-.1-3.84-.159a7.214,7.214,0,0,1-4.208-1.1A4.959,4.959,0,0,1,275.008,287.928Z"/><path class="f" d="M312.138,272.489c-1.134,1.4-3.392,2.23-5.445,2.556a17.216,17.216,0,0,1-5.289-.134c-6.633-1.439-11.742-3.97-17.423-7.147v4.458l-.5-.243c-3.1-1.423-7.624-3.258-11.011-4.764a2,2,0,0,1-1.181-1.914q.065-1.482.138-2.924c1.087-6.584,6.379-10.206,12.464-11.494l28.84-3.614Z"/><path class="e" d="M281.868,268.871a74.548,74.548,0,0,0,16.018,7.222c4.923,1.4,11.863,2.127,15.666-2.19,1.7-1.925-1.123-4.764-2.828-2.828-1.426,1.618-3.852,2.08-5.918,2.11a22.485,22.485,0,0,1-7.081-1.316,72.764,72.764,0,0,1-13.838-6.452c-2.245-1.267-4.263,2.187-2.019,3.454Z"/><path class="e" d="M283.356,248.955c-6.025,1.314-11.572,4.992-13.447,11.116a16.854,16.854,0,0,0-.623,5.23c.05,2.248,1.478,3.344,3.373,4.169,3.266,1.421,6.569,2.756,9.809,4.236a2.061,2.061,0,0,0,2.737-.718,2.017,2.017,0,0,0-.718-2.736c-2.821-1.288-5.691-2.466-8.541-3.689q-.941-.4-1.878-.814c-.19-.083-.818-.38-.809-.362.072.143.047-.521.044-.456a14.774,14.774,0,0,1,.552-4.077c1.54-4.634,6.062-7.06,10.565-8.042,2.513-.548,1.45-4.405-1.064-3.857Z"/><path class="e" d="M283.859,296.4c-1.085,2.07-3.512,2.368-5.587,1.824a27.893,27.893,0,0,1-7.733-3.44c-1.531-.983-4.184-2.965-2.54-4.961,1.312-1.592,4.126-1.59,6.02-1.457a2.018,2.018,0,0,0,2-2,2.038,2.038,0,0,0-2-2,18.643,18.643,0,0,0-3.932.25,8.006,8.006,0,0,0-3.49,1.131,6.484,6.484,0,0,0-2.514,8.118c1.212,2.515,4.037,4.3,6.444,5.506a26.194,26.194,0,0,0,8.786,3.075,8.174,8.174,0,0,0,8-4.027c1.194-2.278-2.257-4.3-3.454-2.019Z"/><path class="e" d="M270.991,267.932c.375,5.7.707,11.358,1.51,17.024.345,2.431.5,5.641,2.876,7.022,2.48,1.444,5.875,1.118,8.639,1.229,2.574.1,2.569-3.9,0-4-1.292-.052-2.585-.093-3.876-.16a5.581,5.581,0,0,1-2.9-.613c.25.175.122.236.037-.05-.064-.215-.17-.425-.237-.641a12.251,12.251,0,0,1-.364-1.738c-.194-1.23-.373-2.461-.529-3.7-.605-4.788-.839-9.569-1.155-14.377-.168-2.555-4.169-2.574-4,0Z"/><path class="a" d="M257.55,250.8a1.566,1.566,0,0,1-1.582,0l-49.923-28.852a1.571,1.571,0,0,1-.632-.687l-.158.017V238.3l1.123.648,50.877,29.4L330.766,225.9V208.52Z"/><path class="e" d="M329.757,224.173q-12.4,7.161-24.807,14.325l-38.478,22.219-10.227,5.906h2.019q-8.788-5.074-17.574-10.156l-26.729-15.448-6.573-3.8c-2.234-1.289-4.25,2.166-2.019,3.454q8.676,5.01,17.348,10.026l26.793,15.484,6.735,3.893a2.027,2.027,0,0,0,2.019,0l25.658-14.817,38.242-22.083,9.612-5.551c2.228-1.286.217-4.744-2.019-3.453Z"/><path class="e" d="M203.255,221.277v57.067c0,2.574,4,2.578,4,0V221.277c0-2.574-4-2.578-4,0Z"/><path class="e" d="M328.766,207.5v57.067c0,2.574,4,2.578,4,0V207.5c0-2.573-4-2.578-4,0Z"/><path class="e" d="M255.522,250.8v57.067c0,2.574,4,2.578,4,0V250.8c0-2.573-4-2.578-4,0Z"/><path class="b" d="M331.094,208.33,257.55,250.8a1.566,1.566,0,0,1-1.582,0l-49.923-28.852a1.592,1.592,0,0,1,0-2.762c12.863-7.431,63.568-36.711,73.544-42.471a1.558,1.558,0,0,1,1.578,0l49.931,28.85A1.6,1.6,0,0,1,331.094,208.33Z"/><path class="e" d="M330.085,206.6,308.65,218.981l-29.741,17.174L257.876,248.3c-.4.232-.8.474-1.207.7-.164.09.261.045.2.009a3.049,3.049,0,0,1-.287-.166c-.247-.17-.528-.305-.788-.455l-4.3-2.488-13.25-7.657-28.312-16.363-2.242-1.3a2.043,2.043,0,0,0-.445-.257c-.345-.075.015-.079.01.241s-.342.3-.024.25a1.964,1.964,0,0,0,.463-.268l4.252-2.456,12.139-7.011,30.489-17.607,23.83-13.761,1.658-.958c.342-.2.528-.152.178-.271a4.367,4.367,0,0,1,.693.4l3.994,2.308,12.853,7.427,28.608,16.53,2.256,1.3c.341.2.679.4,1.023.592.828.459-.117-.058.427-.441-2.089,1.47-.093,4.94,2.019,3.454a3.674,3.674,0,0,0,1.242-5.011A6.879,6.879,0,0,0,330.654,203l-5.418-3.13-14.876-8.595L283.579,175.8c-.542-.313-1.075-.647-1.641-.911-1.478-.688-2.788-.23-4.1.528l-3.966,2.291q-5.985,3.454-11.968,6.911l-31.474,18.175-24.763,14.3c-1.335.771-2.42,1.8-2.42,3.472,0,1.7,1.128,2.726,2.483,3.509l5.1,2.946,14.612,8.444,27.628,15.967c.526.3,1.047.621,1.579.913a4.022,4.022,0,0,0,4.144.049c1-.54,1.98-1.144,2.968-1.714l10.447-6.033,29.91-17.272L328.4,212.2l3.708-2.141C334.332,208.77,332.32,205.312,330.085,206.6Z"/><path class="a" d="M299.119,213.149l-31.513,18.2-21.81-12.6c2.73-1.578,28.1-16.229,31.51-18.2l21.813,12.6Z"/><path class="e" d="M298.109,211.422q-13.543,7.819-27.087,15.642l-4.425,2.555h2.019q-9.466-5.466-18.93-10.939l-2.88-1.665v3.454q13.243-7.656,26.494-15.3l5.016-2.9H276.3q9.468,5.468,18.933,10.939l2.879,1.664-.919-2.258h0a2.059,2.059,0,0,0,1.4,2.46,2.016,2.016,0,0,0,2.46-1.4h0a2.078,2.078,0,0,0-.919-2.259q-9.442-5.451-18.881-10.909l-2.931-1.694a2.022,2.022,0,0,0-2.019,0q-13.423,7.751-26.845,15.5l-4.665,2.694a2.019,2.019,0,0,0,0,3.454q9.432,5.447,18.859,10.9l2.951,1.705a2.022,2.022,0,0,0,2.019,0l27.341-15.788,4.171-2.409C302.357,213.59,300.345,210.132,298.109,211.422Z"/><path class="e" d="M281.968,279.615q0,10.976.016,21.952c0,2.574,4,2.578,4,0q0-10.976-.016-21.952c0-2.574-4-2.578-4,0Z"/><path class="g" d="M318.286,200.569a23.8,23.8,0,0,0-9.451.375c-4.618,1.067-8.92,3.167-13.175,5.254a22.622,22.622,0,0,0-6.185,5.145c-3.642,4.013-6.654,7.019-9.642,11.8a2.34,2.34,0,0,1-.78.932,1.432,1.432,0,0,1-1.111.132c-1.842-.664-4.82-1.509-7.264-2.131-1.778,2.467-3.727,8.721-4.461,14.569a1.12,1.12,0,0,0,.727,1.3c6.6,1.424,11.434,2.957,18.156,2.8a7.978,7.978,0,0,0,3.355-.8,5.673,5.673,0,0,0,.591-.342c-.739,2.1-1,2.717-1.731,4.8-.936,2.672-1.837,5.8-.4,8.219a7.728,7.728,0,0,0,3.053,2.638c4.54,2.518,9.8,3.052,14.931,2.741a55.674,55.674,0,0,0,7.293-1.362s12.376-5.446,18.179-11.006a139,139,0,0,0,.219-18.192c-.118-4.938-1.823-14.375-2.793-18.7a21.939,21.939,0,0,0-1.911-4.106,6.794,6.794,0,0,0-3.021-2.572A16.814,16.814,0,0,0,318.286,200.569Z"/><path class="a" d="M260.631,221.34a9.117,9.117,0,0,0-4.271,1.606c-2.34,1.536-2.651,4.591-2.049,8.087a5.855,5.855,0,0,0,4.322,4.822,19.4,19.4,0,0,0,5.558.33l2.111-.126a45.954,45.954,0,0,1,3.214-11.889l-.061-.331a5.816,5.816,0,0,0-4.044-4.006c-2.03-.469-3.158,1.308-4.631,1.488Z"/><path class="e" d="M296.33,229.419a81.053,81.053,0,0,1-7.431,7.739c-1.657,1.539-3.51,1.634-5.672,1.584a40.5,40.5,0,0,1-6.31-.658c-2.1-.381-4.188-.875-6.273-1.356q-.889-.206-1.78-.406l-.457-.1q-.863-.377-.19.427c-.043-.006.534-3.147.593-3.43.708-3.4,1.575-7.227,3.594-10.129l-2.258.919c1.754.449,3.5.926,5.232,1.46,1.629.5,3.192,1.241,4.807.249,1.409-.866,2.254-2.966,3.2-4.273.96-1.327,2-2.587,3.084-3.819a86.811,86.811,0,0,1,6.769-7.267c2.62-2.372,6.037-3.787,9.25-5.17a32.485,32.485,0,0,1,10.751-2.887c3.29-.195,7.143.22,9.886,2.233a8.316,8.316,0,0,1,2.172,3.278,13.245,13.245,0,0,1,.945,3.234c.58,2.859,1.075,5.736,1.506,8.621s.717,5.742.883,8.641c.163,2.839.473,5.682.491,8.527.016,2.573,4.016,2.578,4,0-.016-2.48-.261-4.962-.423-7.435-.158-2.415-.3-4.815-.6-7.219q-.579-4.565-1.406-9.093A28.2,28.2,0,0,0,328.9,206.1a15.966,15.966,0,0,0-2.006-3.483,10.7,10.7,0,0,0-4.262-2.84,21.56,21.56,0,0,0-10.45-1.393,37.018,37.018,0,0,0-10.389,2.786A43.437,43.437,0,0,0,292,206.22c-2.858,2.171-5.188,5.026-7.574,7.686-1.265,1.411-2.483,2.858-3.635,4.361q-.892,1.164-1.717,2.375-.372.549-.729,1.109-.207.321-.405.65.514-.218-.161-.06h1.063a31.858,31.858,0,0,1-3.576-1.084c-1.346-.394-2.7-.76-4.06-1.108a2.069,2.069,0,0,0-2.258.919c-1.844,2.648-2.792,6.054-3.557,9.148a40.985,40.985,0,0,0-1.148,6.21,3.354,3.354,0,0,0,.794,2.61,5.341,5.341,0,0,0,2.986,1.194,106.448,106.448,0,0,0,11.689,2.276c4.04.446,8.314.671,11.579-2.131a66.444,66.444,0,0,0,7.864-8.128c1.626-1.972-1.189-4.817-2.828-2.828Z"/><path class="e" d="M287.1,239.113c-1.244,3.537-3.28,7.444-2.9,11.286.454,4.548,4.423,6.8,8.357,8.183,6.55,2.3,13.565,1.639,20.162-.018,2.495-.627,1.438-4.486-1.063-3.857-5.4,1.357-10.941,1.994-16.411.519-2.766-.745-7.1-2.143-7.083-5.616.019-3.2,1.744-6.455,2.792-9.434.856-2.433-3.007-3.479-3.857-1.063Z"/><path class="e" d="M271.384,223.307c-.652-2.945-3.891-5.775-6.988-5.53-1.478.118-2.486.96-3.773,1.548.4-.184-.357.085-.116.031-.425.095-.871.114-1.3.2a10.623,10.623,0,0,0-2.283.777,8.511,8.511,0,0,0-3.485,2.729,8.384,8.384,0,0,0-1.343,4.078c-.3,2.949.287,6.383,2.42,8.567,2.5,2.562,6.326,2.659,9.674,2.476a2.044,2.044,0,0,0,2-2,2.019,2.019,0,0,0-2-2,23.4,23.4,0,0,1-4.006-.06,5.262,5.262,0,0,1-2.26-.751,4.148,4.148,0,0,1-1.369-1.686,9.134,9.134,0,0,1-.506-3.116,11.07,11.07,0,0,1,.054-1.5,11.434,11.434,0,0,1,.3-1.159c-.076.187.1-.192.115-.227.048-.089.1-.178.149-.265s.108-.171.168-.253c.195-.267-.162.174.067-.067a3.594,3.594,0,0,1,1.048-.789,7.418,7.418,0,0,1,2.826-.986,8.227,8.227,0,0,0,2.948-1.163,5.652,5.652,0,0,1,.613-.331c-.342.146.531-.116.163-.065a1.747,1.747,0,0,1,1.223.336,3.648,3.648,0,0,1,1.8,2.271,2,2,0,1,0,3.858-1.064Z"/><path class="e" d="M295.284,218.83q.153.33.3.664l-.2-.478a23.128,23.128,0,0,1,.964,2.85,2.065,2.065,0,0,0,.919,1.195,2,2,0,0,0,2.736-.717,2.085,2.085,0,0,0,.2-1.541,25.555,25.555,0,0,0-1.46-3.991,2.011,2.011,0,0,0-1.195-.92,2.047,2.047,0,0,0-1.541.2,2.017,2.017,0,0,0-.919,1.195l-.072.532a2.007,2.007,0,0,0,.273,1.009Z"/><path class="a" d="M313.569,203.842c4.762-3.991,6.443-11.12,7-15.006,1.186-8.33-4.734-15.675-12.394-17.707a18.543,18.543,0,0,0-17.155,4.105,19.174,19.174,0,0,0-6.291,13.944,15.092,15.092,0,0,0,2.294,8.4,10.732,10.732,0,0,0,7.122,4.791"/><path class="e" d="M314.984,205.256c4.48-3.858,6.628-9.958,7.476-15.66a17.887,17.887,0,0,0-6.569-16.712,20.264,20.264,0,0,0-19.19-3.259,21,21,0,0,0-13.5,15.313c-1.667,7.83,1.562,17.793,10.4,19.362a2.058,2.058,0,0,0,2.461-1.4,2.017,2.017,0,0,0-1.4-2.46c-6.227-1.105-8.625-7.814-7.791-13.475a17.1,17.1,0,0,1,10.095-13.191,16.432,16.432,0,0,1,15.52,1.532,14.026,14.026,0,0,1,6.154,12.8c-.51,5.154-2.492,10.876-6.5,14.323-1.954,1.683.886,4.5,2.829,2.829Z"/><path class="h" d="M321.685,185.586c-.288-2.622-2.129-11.984-13.514-14.457a18.659,18.659,0,0,0-23.053,14.411,9.756,9.756,0,0,1,8.4,5.432c1.841,3.819.991,8.312.414,12.511a4.59,4.59,0,0,0,.229,2.83,4.521,4.521,0,0,0,2.2,1.529c3.289,1.649,10.373,3.233,19.1-.606a16.764,16.764,0,0,0,4.948-3.347,8.362,8.362,0,0,0,1.764-3.939C322.755,197.349,322.375,191.866,321.685,185.586Z"/><path class="e" d="M323.685,185.586a18.693,18.693,0,0,0-7.22-12.947,22.071,22.071,0,0,0-24.543-.624,21.172,21.172,0,0,0-8.733,12.994,2.03,2.03,0,0,0,1.929,2.531,7.81,7.81,0,0,1,5.816,3.019c1.614,2.106,1.808,4.826,1.657,7.378-.083,1.4-.278,2.785-.473,4.171a9.107,9.107,0,0,0,.046,4.6c.792,2.085,3.171,2.973,5.122,3.684a24.118,24.118,0,0,0,13.309.548c4.8-1.062,10.9-3.441,12.873-8.367a17.741,17.741,0,0,0,.983-6.925c-.052-3.364-.4-6.723-.766-10.065a2.06,2.06,0,0,0-2-2,2.013,2.013,0,0,0-2,2c.31,2.847.6,5.7.72,8.562a21.193,21.193,0,0,1-.257,5.654,7,7,0,0,1-3.693,4.641,23,23,0,0,1-7.128,2.688,19.7,19.7,0,0,1-11.4-.755,7.065,7.065,0,0,1-1.87-.917c-.61-.662-.073-2.32.041-3.137a29.861,29.861,0,0,0,.358-8.289,11.943,11.943,0,0,0-11.335-10.493l1.929,2.532a16.757,16.757,0,0,1,16.73-13.449c6.043.078,11.84,2.852,14.54,8.385a15.423,15.423,0,0,1,1.008,2.8c.1.392.19.787.264,1.185.034.186.061.373.094.559.081.456-.054-.463,0,.029a2.059,2.059,0,0,0,2,2A2.013,2.013,0,0,0,323.685,185.586Z"/><path class="e" d="M281.981,269.633v9.93a2.01,2.01,0,0,0,.991,1.727q11.381,6.564,22.775,13.1c1.7.981,3.351,2.139,5.35,2.372,2.665.311,4.657-.912,6.858-2.183l13.23-7.641,7.585-4.38a13.213,13.213,0,0,0,3.568-2.494,7.335,7.335,0,0,0,1.761-4.66c.09-2.575-3.91-2.571-4,0-.083,2.353-2.418,3.163-4.178,4.18L329.49,283.3l-12.811,7.4c-1.518.877-3.191,2.284-5.032,2.12-1.44-.128-2.87-1.3-4.1-2q-5.629-3.243-11.264-6.48t-11.3-6.5l.99,1.726v-9.93c0-2.574-4-2.578-4,0Z"/><path class="b" d="M342.1,263.2c0-12.285-.013-27.542-.013-32.483a1.692,1.692,0,0,0-2.512-1.488c-6.112,3.392-18.064,10.32-24.592,14.224a5.131,5.131,0,0,0-2.512,4.4v32.523C321.669,274.948,333.128,268.305,342.1,263.2Z"/><path class="e" d="M314.467,294.566v-44.33c0-1.3-.251-2.92.49-4.057a7.008,7.008,0,0,1,2.528-1.894q1.548-.918,3.1-1.831,7.031-4.134,14.114-8.181,1.583-.9,3.17-1.8c.284-.161,2.709-1.246,2.711-1.52,0,.226-.5-.086-.457-.1-.239.065.119-.269-.04-.013-.1.155,0,.689,0,.875v1.994q0,5.877,0,11.754.006,14.97.011,29.94c0,2.573,4,2.578,4,0q0-14.013-.01-28.025,0-6.416,0-12.83a28.929,28.929,0,0,0-.065-4.417,3.694,3.694,0,0,0-2.76-3.017c-1.458-.337-2.64.346-3.863,1.031-4.728,2.648-9.42,5.36-14.1,8.086q-3.519,2.049-7.023,4.12c-2.368,1.4-4.718,2.722-5.534,5.559a17.214,17.214,0,0,0-.269,4.683v43.969c0,2.574,4,2.578,4,0Z"/><path class="e" d="M313.474,282.133q14.727-8.721,29.616-17.168c2.239-1.269.226-4.726-2.019-3.454q-14.891,8.44-29.616,17.168c-2.214,1.311-.2,4.77,2.019,3.454Z"/><path class="e" d="M263.63,321.655q0,12.434.008,24.867c0,2.574,4,2.579,4,0q0-12.433-.008-24.867c0-2.574-4-2.578-4,0Z"/><path class="e" d="M233.875,339.522V363.7c0,2.573,4,2.578,4,0V339.522c0-2.574-4-2.578-4,0Z"/><path class="f" d="M239.959,305.037l-32.532-9.2c-6.085,1.288-11.377,4.909-12.465,11.493-.179,3.548.821,14.993,1.365,19.454a8.723,8.723,0,0,0,.307,2.159,6.323,6.323,0,0,0,1.316,1.88c2.775,3.032,6.555,3.222,9.209,3.663l2.522.025c0-3.676-.008-7.307-.015-9.442a3.154,3.154,0,0,1-1.5-2.688c0-1.881,0-4.164,0-5.587v-3.714c5.424,3.006,10.393,5.4,16.773,6.785a17.216,17.216,0,0,0,5.289.133c2.053-.325,4.311-1.155,5.445-2.555l15.886-9.127-.458-.13Z"/><path class="a" d="M189.114,330.6a4.92,4.92,0,0,1,2.017-1,17.119,17.119,0,0,1,5.809-.044,8.585,8.585,0,0,0,1.01,1.272c2.9,3.17,6.9,3.233,9.564,3.725,0,3.209.006,6.457.008,9.086a7.554,7.554,0,0,1-4.3,1.139,16.884,16.884,0,0,1-5.717-1.583c-3.266-1.352-6.609-2.863-8.944-5.517a8.338,8.338,0,0,1-.6-.765,3.976,3.976,0,0,1-.675-2.641,5.3,5.3,0,0,1,.583-2.222A5.98,5.98,0,0,1,189.114,330.6Z"/><path class="e" d="M206.9,293.91c-7.4,1.622-14.093,7.069-13.946,15.181.063,3.5.357,6.992.656,10.473q.218,2.512.476,5.02c.188,1.8.108,3.913.9,5.543,2.2,4.5,7.2,5.573,11.643,6.29a2.062,2.062,0,0,0,2.46-1.4,2.015,2.015,0,0,0-1.4-2.46c-3.223-.52-6.755-.861-8.84-3.735-.752-1.037-.623-2.843-.756-4.108q-.237-2.245-.432-4.5c-.282-3.2-.537-6.4-.667-9.609a21.616,21.616,0,0,1-.04-3.112,9.943,9.943,0,0,1,1.9-4.516c2.149-2.941,5.641-4.459,9.1-5.217,2.514-.552,1.45-4.409-1.063-3.858Z"/><path class="e" d="M205.407,313.826a74.451,74.451,0,0,0,16.018,7.222c4.923,1.4,11.863,2.128,15.666-2.189,1.7-1.925-1.123-4.765-2.829-2.828-1.425,1.618-3.851,2.08-5.917,2.11a22.485,22.485,0,0,1-7.081-1.316,72.826,72.826,0,0,1-13.838-6.452c-2.245-1.267-4.263,2.187-2.019,3.453Z"/><path class="e" d="M207.88,340.343c-1.168,2.228-3.786,2.759-6.084,2.228a31.022,31.022,0,0,1-8.1-3.377c-1.884-1.079-4.84-2.838-4.348-5.372.557-2.869,4.227-2.581,6.415-2.408a2.016,2.016,0,0,0,2-2,2.04,2.04,0,0,0-2-2c-3.928-.311-8.638.357-10.089,4.676a6.832,6.832,0,0,0,.56,5.829,14.591,14.591,0,0,0,4.2,3.962,30.724,30.724,0,0,0,5.047,2.612,27.246,27.246,0,0,0,6.029,2.09c3.772.643,7.96-.662,9.825-4.221,1.195-2.277-2.256-4.3-3.453-2.019Z"/><path class="a" d="M181.089,295.755a1.566,1.566,0,0,1-1.582,0c-5.8-3.352-40.418-23.36-49.923-28.852a1.573,1.573,0,0,1-.632-.688l-.158.018v17.021l1.123.649c1.165.672,49.4,28.547,50.876,29.4,3.322-1.917,71.384-41.221,73.512-42.45v-17.38Z"/><path class="e" d="M253.3,269.128q-12.4,7.161-24.807,14.325l-38.478,22.22-10.227,5.9H181.8q-8.788-5.074-17.574-10.156L137.5,285.974q-3.286-1.9-6.573-3.8c-2.234-1.29-4.25,2.166-2.019,3.454q8.676,5.01,17.348,10.026l26.793,15.484q3.368,1.946,6.735,3.892a2.022,2.022,0,0,0,2.019,0l25.658-14.816L245.7,278.133l9.612-5.551c2.228-1.287.216-4.745-2.019-3.454Z"/><path class="e" d="M126.794,266.233V323.3c0,2.574,4,2.579,4,0V266.233c0-2.574-4-2.578-4,0Z"/><path class="e" d="M252.305,252.455v57.067c0,2.573,4,2.578,4,0V252.455c0-2.574-4-2.578-4,0Z"/><path class="e" d="M179.061,295.755v57.067c0,2.573,4,2.578,4,0V295.755c0-2.574-4-2.578-4,0Z"/><path class="b" d="M254.633,253.286l-73.544,42.469a1.566,1.566,0,0,1-1.582,0c-5.8-3.352-40.418-23.36-49.923-28.852a1.592,1.592,0,0,1,0-2.762c12.863-7.431,63.568-36.711,73.544-42.472a1.558,1.558,0,0,1,1.578,0l49.93,28.851A1.594,1.594,0,0,1,254.633,253.286Z"/><path class="e" d="M253.624,251.559l-21.435,12.378-29.741,17.174-21.033,12.146c-.4.232-.8.474-1.207.7-.164.089.261.044.2.009-.095-.052-.2-.105-.287-.166-.247-.17-.528-.305-.788-.455l-4.305-2.489-13.25-7.657-28.312-16.363-2.242-1.3a2,2,0,0,0-.445-.257c-.345-.076.015-.079.01.241s-.342.3-.025.249a1.916,1.916,0,0,0,.464-.268l4.252-2.455,12.139-7.012L178.1,238.429q11.914-6.88,23.83-13.76l1.658-.958c.341-.2.528-.153.178-.271a4.314,4.314,0,0,1,.692.4q2,1.154,4,2.308l12.853,7.426,28.608,16.53,2.256,1.3c.34.2.679.4,1.023.591.827.459-.117-.057.427-.44-2.089,1.47-.093,4.94,2.019,3.454A3.674,3.674,0,0,0,256.885,250a6.866,6.866,0,0,0-2.693-2.048l-5.417-3.13-14.876-8.6-26.781-15.475c-.542-.312-1.075-.647-1.641-.91-1.478-.689-2.789-.23-4.1.528l-3.967,2.29-11.967,6.911-31.474,18.176q-12.381,7.15-24.763,14.3c-1.335.772-2.42,1.8-2.42,3.473,0,1.7,1.128,2.726,2.482,3.508l5.1,2.946,14.612,8.445,27.628,15.967c.526.3,1.046.621,1.579.912a4.02,4.02,0,0,0,4.144.049c1-.539,1.98-1.143,2.968-1.714l10.447-6.033,29.91-17.271,26.282-15.177,3.708-2.141C257.871,253.726,255.859,250.268,253.624,251.559Z"/><path class="a" d="M221.007,258.26l-31.512,18.2-21.81-12.6c2.73-1.578,28.1-16.229,31.51-18.2l21.813,12.6Z"/><path class="e" d="M220,256.533q-13.543,7.819-27.087,15.642l-4.425,2.556h2.019q-9.466-5.467-18.93-10.94l-2.88-1.665v3.454q13.244-7.656,26.494-15.3l5.016-2.9h-2.019q9.467,5.467,18.932,10.939l2.88,1.664-.919-2.258h0a2.059,2.059,0,0,0,1.4,2.46,2.016,2.016,0,0,0,2.46-1.4h0a2.079,2.079,0,0,0-.919-2.259q-9.442-5.451-18.881-10.909l-2.931-1.694a2.022,2.022,0,0,0-2.019,0q-13.424,7.751-26.845,15.5l-4.665,2.694a2.019,2.019,0,0,0,0,3.454q9.432,5.447,18.859,10.9l2.951,1.705a2.022,2.022,0,0,0,2.019,0L217.846,262.4l4.171-2.409C224.246,258.7,222.234,255.243,220,256.533Z"/><path class="e" d="M205.507,324.57q0,10.977.016,21.952c0,2.574,4,2.579,4,0q0-10.976-.016-21.952c0-2.573-4-2.578-4,0Z"/><path class="a" d="M214.752,245.564a13.382,13.382,0,0,0,5.165,1.677c.211-4.234-.014-9.5-2.179-13.146a9.733,9.733,0,0,0-9.19-4.653,18.653,18.653,0,0,0-.225,4.672,16.275,16.275,0,0,0,2.9,8.544A12.185,12.185,0,0,0,214.752,245.564Z"/><path class="i" d="M217.738,234.1c2.165,3.644,2.39,8.912,2.179,13.146l.033.195V250.6l.873-.243a55.25,55.25,0,0,1,11.551-4.459,25.32,25.32,0,0,1,6.836-.659c3.658-4.428,4.906-8.2,4.793-14.567-.15-8.411-5.109-15.349-13.888-16.576a18.644,18.644,0,0,0-21.566,15.345A9.729,9.729,0,0,1,217.738,234.1Z"/><path class="g" d="M241.825,245.525a23.782,23.782,0,0,0-9.451.375c-4.618,1.067-8.92,3.166-13.175,5.253a22.643,22.643,0,0,0-6.185,5.145c-3.642,4.014-6.654,7.02-9.642,11.8a2.344,2.344,0,0,1-.781.933,1.429,1.429,0,0,1-1.11.132c-1.842-.665-4.82-1.509-7.265-2.131-1.777,2.466-3.726,8.72-4.46,14.569a1.119,1.119,0,0,0,.727,1.3c6.6,1.425,11.434,2.958,18.155,2.8a8,8,0,0,0,3.356-.8,5.492,5.492,0,0,0,.591-.341c-.739,2.1-1,2.716-1.731,4.8-.936,2.672-1.837,5.8-.4,8.218a7.73,7.73,0,0,0,3.053,2.639c4.54,2.517,9.8,3.052,14.931,2.741a55.674,55.674,0,0,0,7.293-1.362s12.376-5.446,18.179-11.007a138.984,138.984,0,0,0,.219-18.191c-.118-4.939-1.823-14.375-2.793-18.7a21.88,21.88,0,0,0-1.911-4.106,6.808,6.808,0,0,0-3.021-2.573A16.812,16.812,0,0,0,241.825,245.525Z"/><path class="e" d="M219.917,245.241a10.848,10.848,0,0,1-7.421-4.219,14.906,14.906,0,0,1-2.228-8.117,16.918,16.918,0,0,1,8.1-14.679,17.442,17.442,0,0,1,15.66-.958,14.092,14.092,0,0,1,7.72,10.575,22.521,22.521,0,0,1-.182,8.584,17.625,17.625,0,0,1-3.774,7.408c-1.616,1.978,1.2,4.824,2.828,2.829a22.773,22.773,0,0,0,4.521-8.061,26.192,26.192,0,0,0,.767-9.635c-.586-5.967-3.53-11.606-8.859-14.632-5.876-3.338-13.528-3.153-19.509-.205A20.878,20.878,0,0,0,206.292,231.7a19.034,19.034,0,0,0,2.86,11.5,15.144,15.144,0,0,0,10.765,6.041,2.012,2.012,0,0,0,2-2,2.049,2.049,0,0,0-2-2Z"/><path class="e" d="M208.9,231.411a7.922,7.922,0,0,1,7.724,4.882c1.459,3.384,1.462,7.335,1.291,10.948a2,2,0,0,0,4,0c.214-4.515,0-9.342-2.069-13.454a11.8,11.8,0,0,0-10.946-6.376,2.043,2.043,0,0,0-2,2,2.019,2.019,0,0,0,2,2Z"/><path class="a" d="M183.892,266.334A9.064,9.064,0,0,0,179.9,267.9c-2.34,1.536-3.218,4.658-2.616,8.154.448,2.606,2.8,4.211,4.889,4.756a19.441,19.441,0,0,0,5.558.33l2.111-.126a45.954,45.954,0,0,1,3.214-11.889l-.061-.331a5.817,5.817,0,0,0-4.044-4.007c-2.03-.469-3.158,1.309-4.631,1.488C184.172,266.294,184.03,266.313,183.892,266.334Z"/><path class="e" d="M219.869,274.374a80.935,80.935,0,0,1-7.431,7.739c-1.657,1.539-3.51,1.634-5.672,1.585a40.747,40.747,0,0,1-6.31-.658c-2.1-.382-4.188-.876-6.273-1.356-.593-.137-1.186-.274-1.78-.407l-.458-.1q-.861-.377-.189.427c-.043-.006.534-3.148.593-3.43.707-3.4,1.575-7.228,3.594-10.13l-2.258.919c1.754.45,3.5.926,5.232,1.461,1.629.5,3.191,1.241,4.806.248,1.41-.866,2.255-2.966,3.2-4.273.96-1.326,2-2.587,3.084-3.818a86.811,86.811,0,0,1,6.769-7.267c2.62-2.373,6.037-3.788,9.25-5.171a32.46,32.46,0,0,1,10.751-2.886c3.29-.2,7.143.22,9.886,2.233a8.3,8.3,0,0,1,2.172,3.278,13.233,13.233,0,0,1,.945,3.234c.58,2.858,1.075,5.736,1.506,8.62s.717,5.742.883,8.642c.163,2.839.473,5.681.491,8.526.016,2.573,4.016,2.579,4,0-.016-2.479-.261-4.961-.423-7.434-.158-2.415-.3-4.816-.6-7.22q-.579-4.565-1.407-9.093a28.174,28.174,0,0,0-1.794-6.985,15.966,15.966,0,0,0-2.006-3.483,10.706,10.706,0,0,0-4.262-2.84,21.572,21.572,0,0,0-10.45-1.393,36.986,36.986,0,0,0-10.389,2.787,43.434,43.434,0,0,0-9.788,5.048c-2.858,2.172-5.188,5.027-7.574,7.687-1.265,1.411-2.483,2.857-3.636,4.361q-.891,1.162-1.716,2.375-.372.549-.729,1.108-.207.322-.405.65.514-.217-.161-.059h1.063a31.8,31.8,0,0,1-3.576-1.084c-1.347-.4-2.7-.76-4.06-1.109a2.072,2.072,0,0,0-2.259.919c-1.843,2.649-2.791,6.055-3.556,9.149a40.939,40.939,0,0,0-1.148,6.21,3.353,3.353,0,0,0,.794,2.609,5.327,5.327,0,0,0,2.986,1.194,106.448,106.448,0,0,0,11.689,2.276c4.04.447,8.314.671,11.579-2.13A66.515,66.515,0,0,0,222.7,277.2c1.626-1.972-1.189-4.818-2.828-2.829Z"/><path class="e" d="M210.637,284.069c-1.245,3.536-3.281,7.444-2.9,11.286.454,4.548,4.423,6.8,8.357,8.182,6.55,2.3,13.565,1.64,20.162-.018,2.5-.627,1.438-4.485-1.063-3.857-5.4,1.357-10.941,1.994-16.411.52-2.766-.746-7.1-2.143-7.083-5.616.018-3.2,1.744-6.456,2.792-9.434.856-2.433-3.007-3.479-3.857-1.063Z"/><path class="e" d="M194.922,268.263c-.657-2.972-3.961-5.846-7.092-5.517a6.038,6.038,0,0,0-2.239.721c-.233.123-.457.262-.683.4-.111.066-.22.133-.332.2-.061.034-.535.265-.343.191.219-.085-.131.035-.185.047-.373.083.629-.083-.268.05-.427.063-.852.121-1.273.218a10.861,10.861,0,0,0-2.261.826,8.725,8.725,0,0,0-5,6.805c-.441,3.1.1,6.466,2.62,8.564,2.793,2.325,6.371,2.57,9.865,2.38a2.044,2.044,0,0,0,2-2,2.018,2.018,0,0,0-2-2,23.4,23.4,0,0,1-4.006-.061,10.649,10.649,0,0,1-1.211-.25,3.591,3.591,0,0,1-1.055-.427,4.292,4.292,0,0,1-1.872-1.737,6.206,6.206,0,0,1-.485-2.831,5.875,5.875,0,0,1,.116-1.278,8.678,8.678,0,0,1,.407-1.337,3.813,3.813,0,0,1,1.637-1.816,7.625,7.625,0,0,1,3.052-1.124,7.888,7.888,0,0,0,2.866-1.114,6.206,6.206,0,0,1,.7-.381c-.338.144.534-.113.163-.065a1.573,1.573,0,0,1,1.115.276,3.706,3.706,0,0,1,1.91,2.33,2,2,0,1,0,3.857-1.063Z"/><path class="e" d="M218.823,263.786q.153.33.295.664l-.2-.478a22.846,22.846,0,0,1,.963,2.85,2.073,2.073,0,0,0,.92,1.195,2,2,0,0,0,2.736-.718,2.085,2.085,0,0,0,.2-1.541,25.555,25.555,0,0,0-1.46-3.991,2.01,2.01,0,0,0-1.195-.919,2.043,2.043,0,0,0-1.541.2,2.017,2.017,0,0,0-.919,1.195l-.072.532a1.987,1.987,0,0,0,.273,1.009Z"/><path class="e" d="M205.52,314.588v9.931a2.01,2.01,0,0,0,.991,1.727q11.381,6.564,22.775,13.1c1.7.982,3.351,2.139,5.35,2.373,2.664.31,4.657-.912,6.858-2.183l13.23-7.641,7.585-4.38a13.235,13.235,0,0,0,3.568-2.494,7.337,7.337,0,0,0,1.761-4.661c.09-2.574-3.91-2.571-4,0-.083,2.353-2.418,3.164-4.178,4.18l-6.432,3.714-12.81,7.4c-1.518.877-3.191,2.285-5.032,2.121-1.44-.128-2.87-1.3-4.1-2q-5.631-3.243-11.265-6.479t-11.294-6.5l.99,1.727v-9.931c0-2.573-4-2.578-4,0Z"/><path class="b" d="M265.638,308.153c0-12.285-.013-27.542-.013-32.483a1.692,1.692,0,0,0-2.512-1.488c-6.112,3.392-18.064,10.32-24.592,14.224a5.131,5.131,0,0,0-2.512,4.4v32.523C245.211,319.9,256.67,313.261,265.638,308.153Z"/><path class="e" d="M238.006,339.522v-44.33c0-1.3-.251-2.92.49-4.057a7,7,0,0,1,2.528-1.894q1.548-.919,3.1-1.831,7.031-4.136,14.114-8.181,1.583-.9,3.169-1.8c.284-.16,2.71-1.245,2.712-1.519,0,.225-.5-.086-.457-.1-.239.065.118-.269-.04-.012-.1.155,0,.689,0,.875v1.994q0,5.876,0,11.753.006,14.97.011,29.94c0,2.574,4,2.578,4,0q0-14.013-.01-28.025l-.006-12.829a28.812,28.812,0,0,0-.064-4.418,3.693,3.693,0,0,0-2.761-3.016c-1.458-.337-2.639.346-3.863,1.031-4.727,2.647-9.419,5.359-14.1,8.086q-3.519,2.048-7.023,4.119c-2.368,1.4-4.719,2.723-5.534,5.56a17.21,17.21,0,0,0-.269,4.683v43.969c0,2.573,4,2.578,4,0Z"/><path class="e" d="M237.013,327.089q14.726-8.721,29.616-17.168c2.239-1.27.225-4.727-2.019-3.454q-14.891,8.439-29.616,17.168c-2.214,1.31-.2,4.77,2.019,3.454Z"/><path class="a" d="M241.042,178.389a6.71,6.71,0,0,0-2-4.258,14.169,14.169,0,0,1-2.528.524c-4.884.469-9.517.746-13.836-1.582l-3.487-2.551c-4.11.613-8.647.843-11.868-.274a8.76,8.76,0,0,1-1.035-.438c-1.666,1.492-5.285,4.693-6.111,6.21a6.061,6.061,0,0,0-.416,5.416,5.883,5.883,0,0,0,4.106,2.965,13.531,13.531,0,0,0,5.207-.111,35.039,35.039,0,0,0,7.962-2.338,7.465,7.465,0,0,0,.056,2.65,5.566,5.566,0,0,0,3.027,3.556,10.707,10.707,0,0,0,5.894.857,32.1,32.1,0,0,0,8.708-2.255c1.817-.672,3.732-1.449,4.855-3.028A7.3,7.3,0,0,0,241.042,178.389Z"/><path class="e" d="M205.272,168.035c-1.343,1.215-2.7,2.41-4,3.678a12.678,12.678,0,0,0-3.565,5.015,7.187,7.187,0,0,0,1.841,7.674,10.292,10.292,0,0,0,8.145,2.093,37.136,37.136,0,0,0,9.482-2.45,2.063,2.063,0,0,0,1.4-2.46,2.014,2.014,0,0,0-2.46-1.4,31.967,31.967,0,0,1-8.88,2.357c-2.158.192-5.407-.063-5.891-2.645a4.491,4.491,0,0,1,.683-3.079c.053-.084.43-.565.12-.187.109-.133.219-.266.333-.4.347-.4.714-.785,1.086-1.162,1.45-1.47,3.006-2.828,4.536-4.212a2,2,0,0,0-2.828-2.829Z"/><path class="e" d="M219.843,174.764c-3.034,2.059-5.149,5.214-4.883,9a8.009,8.009,0,0,0,6.534,7.018c4.1.864,8.4-.188,12.268-1.551,3.724-1.312,7.134-2.729,8.7-6.642,1.294-3.233.62-8.673-2.827-10.432-2.288-1.168-4.315,2.282-2.019,3.454.907.462,1.283,1.851,1.425,2.781a5.588,5.588,0,0,1-1.2,4.333,8.668,8.668,0,0,1-3.872,2.188,41.775,41.775,0,0,1-5.825,1.791c-2.688.563-6.853,1-8.684-1.616-1.677-2.394.4-5.509,2.4-6.867,2.118-1.437.119-4.9-2.019-3.454Z"/><path class="a" d="M225.4,122.7c-2.152.117-4.337.158-6.495.153l-.759,0h-.114c-5.458-.018-10.733-.377-14.75-.7.008.241.01.374.01.374.234,11.4,1.383,37.319,1.9,46.627a7.761,7.761,0,0,0,2.134,1.1c3.221,1.117,7.758.887,11.868.274l3.487,2.551c4.319,2.328,8.952,2.051,13.836,1.582a11.315,11.315,0,0,0,4.377-1.333c.156-12.442.017-40.493-.751-52.7A88.64,88.64,0,0,1,225.4,122.7Z"/><path class="e" d="M218.533,124.744q0,18.254.084,36.507.033,5.391.094,10.782c.031,2.572,4.031,2.579,4,0-.159-13.119-.168-26.241-.176-39.361q0-3.965,0-7.928c0-2.574-4-2.578-4,0Z"/><path class="e" d="M201.288,122.522c.169,8.093.511,16.184.851,24.272q.271,6.448.573,12.9.127,2.688.261,5.375a22.679,22.679,0,0,0,.285,4.616c.36,1.311,2.195,2.009,3.349,2.431a16.2,16.2,0,0,0,3.844.8,37.115,37.115,0,0,0,9.269-.457,2.013,2.013,0,0,0,1.4-2.46,2.052,2.052,0,0,0-2.46-1.4c-3.866.563-9.067,1.252-12.461-1.171l.99,1.727c-.684-12.415-1.2-24.844-1.625-37.27-.108-3.119-.208-6.238-.273-9.357-.053-2.571-4.053-2.58-4,0Z"/><path class="e" d="M221.666,174.8a20.2,20.2,0,0,0,9.194,2.172,30.749,30.749,0,0,0,8.339-.8c1.133-.31,2.783-.758,3.416-1.84.489-.835.288-2.2.3-3.152q.027-3.024.031-6.048c.022-9.934-.05-19.872-.268-29.8-.1-4.685-.226-9.372-.5-14.05-.148-2.559-4.149-2.576-4,0,.81,14.013.778,28.1.768,42.134,0,3.3-.016,6.607-.057,9.911l.991-1.727c-2.139,1.339-5.087,1.279-7.522,1.359a17.169,17.169,0,0,1-8.672-1.608c-2.282-1.185-4.307,2.265-2.019,3.454Z"/><path class="a" d="M226.894,33.658c-11.5-3.451-18-.292-19.916,4.208a25.817,25.817,0,0,0-2.292,5.5,26.874,26.874,0,0,0-.527,3.623c-.03.323-.055.629-.076.9a17.916,17.916,0,0,0,31.6,12.891c2.231-.069,3.5-.045,5.332-.86a6.78,6.78,0,0,0,3.721-3.992,5.408,5.408,0,0,0-1.092-5.314,4.589,4.589,0,0,0-2.933-1.53s.938-8.513-6.728-12.263A49.149,49.149,0,0,0,226.894,33.658Z"/><path class="i" d="M219.364,26.878a20.625,20.625,0,0,0-2.72.891,17.07,17.07,0,0,0-6.458,4.9,21.246,21.246,0,0,0,11.187,8.193.869.869,0,0,0,.8-.028.878.878,0,0,0,.236-.559l.436-2.653,6.642,5.963a17.224,17.224,0,0,0,5.153,2.744l8.929,2.976a17.073,17.073,0,0,0,.17-9.289,17.653,17.653,0,0,0-6.14-9.646,19.22,19.22,0,0,0-11.153-4.125A24.859,24.859,0,0,0,219.364,26.878Z"/><path class="e" d="M236.2,62.769a13.73,13.73,0,0,0,6.288-1.347,8.814,8.814,0,0,0,4.114-4.79,7.522,7.522,0,0,0-.618-6.216,7.012,7.012,0,0,0-4.747-3.257,2,2,0,0,0-1.063,3.857c.388.077.757.181,1.135.293s-.321-.2.027.015c.108.065.226.135.337.2.323.177-.292-.292.069.05.124.117.252.229.372.35s.228.24.337.365c-.277-.32.043.089.08.149.088.147.165.3.24.452-.195-.4.041.146.07.243.058.194.1.39.14.588-.075-.348,0-.012.01.158s.012.348.006.522c0,.116-.012.231-.023.347q.051-.322.014-.1a7.793,7.793,0,0,1-.306,1.092c.153-.4-.071.118-.095.163-.083.156-.173.307-.268.455-.064.1-.131.2-.2.289q.177-.222.042-.059c-.141.149-.269.309-.414.454-.125.124-.257.239-.387.357-.333.306.2-.107-.148.118a11.9,11.9,0,0,1-1.054.613c-.337.173.2-.055-.226.095-.173.061-.345.124-.521.178a9.511,9.511,0,0,1-1.169.267c.358-.062.029,0-.145.012s-.353.029-.529.039c-.456.028-.912.04-1.368.053a2,2,0,0,0,0,4Z"/><path class="f" d="M193.2,73.348c.607.635,1.222,1.267,1.837,1.88,3.643-4.538,9.25-7.849,14.851-11.2A36.187,36.187,0,0,0,215.3,79.584a2.486,2.486,0,0,0,.82.9c.763.405,1.627-.189,2.295-.776a49.061,49.061,0,0,0,11.636-14.7c3.623-.434,9.3,3.722,11.719,6.553a26.855,26.855,0,0,1,3.359,5.029,41.8,41.8,0,0,1,2.956,8.389,29.076,29.076,0,0,1-2.657,21.158,28.333,28.333,0,0,1-3.568,5.05c-.08.091-.16.18-.241.27.132,1.122.237,2,.237,2s.484,4.067.484,6.667A92.067,92.067,0,0,1,225.4,122.7c-9.682.524-20.049-.405-25.518-.844-.314-4.092-.207-13.467-.484-17.867l-3.7-9.961c-3.814,3.105-8.194-4.679-9.928-7.1-2.692-3.757-5.164-7.679-7.489-11.673l10.467-6.786c.454.517.939,1.064,1.448,1.629C191.13,71.144,192.15,72.252,193.2,73.348Z"/><path class="e" d="M163.662,35.763Q169.3,48,174.253,60.539a2.061,2.061,0,0,0,2.461,1.4,2.015,2.015,0,0,0,1.4-2.46q-5.136-13.017-10.995-25.731a2.017,2.017,0,0,0-2.737-.718,2.046,2.046,0,0,0-.717,2.736Z"/><path class="e" d="M232.5,67.364c8.273,2.974,12.338,11.529,13.986,19.577a26.878,26.878,0,0,1-6.774,23.628,27.22,27.22,0,0,1-11.317,7.147c-2.439.79-1.395,4.653,1.064,3.857a30.749,30.749,0,0,0,21.2-33.834,36.664,36.664,0,0,0-4.885-14.062,24.579,24.579,0,0,0-12.212-10.17c-2.427-.872-3.472,2.992-1.064,3.857Z"/><path class="e" d="M230.435,91.613a13,13,0,0,1-.8,2.709l.2-.478a12.978,12.978,0,0,1-1.666,2.841,2,2,0,0,0-.2,1.541,2,2,0,0,0,2.46,1.4l.478-.2a2.011,2.011,0,0,0,.717-.717,14.089,14.089,0,0,0,2.671-6.027,2.15,2.15,0,0,0-.2-1.541,2,2,0,0,0-2.736-.718,1.966,1.966,0,0,0-.919,1.195Z"/><path class="a" d="M181.644,59.023a9.717,9.717,0,0,0-4.518,1.007,8.348,8.348,0,0,0-4.59,6.721,7.831,7.831,0,0,0,3.713,7.183,3.309,3.309,0,0,0,2.814.466l1.355-.534,7.1-4.6.18-1.621c.267-2.4-.178-5.511-2.384-7.34A5.994,5.994,0,0,0,181.644,59.023Z"/><path class="e" d="M207.407,63.181c-4.956,2.978-10.084,6.1-13.789,10.632h2.829c-2.174-2.179-4.257-4.447-6.291-6.758a2.012,2.012,0,0,0-2.423-.313l-10.467,6.786a2.038,2.038,0,0,0-.718,2.736c2.946,5.047,6.148,9.956,9.561,14.7,2.237,3.109,6.434,7.95,10.593,4.791a2.066,2.066,0,0,0,.717-2.737,2.014,2.014,0,0,0-2.736-.717,2.087,2.087,0,0,1-.81.452c.129-.024-.357-.05-.349-.048a4.208,4.208,0,0,1-1.556-.977,22.309,22.309,0,0,1-3.333-4.121c-2.974-4.4-5.951-8.766-8.633-13.361l-.717,2.737L189.752,70.2l-2.424-.312c2.034,2.311,4.116,4.578,6.29,6.758a2.014,2.014,0,0,0,2.829,0c3.507-4.288,8.288-7.189,12.979-10.007,2.2-1.324.2-4.784-2.019-3.454Z"/><path class="e" d="M189.694,67.644a10.677,10.677,0,0,0-2.188-7.97c-2.057-2.455-5.363-2.988-8.367-2.421-5.987,1.13-10.294,7.52-7.994,13.429,1.222,3.138,4.7,6.881,8.45,5.647a2.044,2.044,0,0,0,1.4-2.46,2.019,2.019,0,0,0-2.46-1.4.942.942,0,0,1-.833-.032,4.285,4.285,0,0,1-1.119-.706,6,6,0,0,1-1.633-2.251,5.715,5.715,0,0,1,.376-5.107,6.665,6.665,0,0,1,4.217-3.116,7.2,7.2,0,0,1,2.6-.2,6.027,6.027,0,0,1,.74.175c.1.031.206.065.307.1.328.121-.2-.1.115.052a2.867,2.867,0,0,1,1,.708,4.8,4.8,0,0,1,1.271,2.506c.038.163.133.689.132.675-.025-.188.012.154.011.152.012.174.026.346.033.52a11.845,11.845,0,0,1-.06,1.7,2.014,2.014,0,0,0,2,2,2.045,2.045,0,0,0,2-2Z"/><path class="e" d="M197.394,103.988c.358,5.948.048,11.924.484,17.867a2.062,2.062,0,0,0,2,2c6.794.546,13.593,1.05,20.414,1a101.23,101.23,0,0,0,22.578-2.8,2.027,2.027,0,0,0,1.469-1.928,60.941,60.941,0,0,0-.484-6.667,2.062,2.062,0,0,0-2-2,2.012,2.012,0,0,0-2,2,60.959,60.959,0,0,1,.484,6.667l1.468-1.929a96.575,96.575,0,0,1-21.98,2.661c-6.666.027-13.309-.465-19.949-1l2,2c-.436-5.943-.126-11.919-.484-17.867-.154-2.558-4.155-2.575-4,0Z"/><path class="a" d="M220.016,101.455c-1.511-3.853-3.122-9.853-5.066-15.289-7.278.381-13.889.77-20.356,1.034q3.519,12.228,7.643,24.365c2.1-.185,5.557-.377,7.957-.643Z"/><path class="e" d="M221.945,100.923c-1.939-5.006-3.27-10.231-5.067-15.289a2.05,2.05,0,0,0-1.928-1.468c-6.785.356-13.568.754-20.356,1.034a2.024,2.024,0,0,0-1.929,2.532Q196.2,100,200.308,112.1a2.039,2.039,0,0,0,1.929,1.468c2.651-.227,5.311-.359,7.957-.643a2.059,2.059,0,0,0,2-2,2.013,2.013,0,0,0-2-2c-2.646.284-5.306.416-7.957.643l1.928,1.469q-4.107-12.092-7.642-24.366L194.594,89.2c6.788-.28,13.571-.678,20.356-1.034L213.021,86.7c1.8,5.057,3.128,10.283,5.067,15.289a2.06,2.06,0,0,0,2.46,1.4,2.016,2.016,0,0,0,1.4-2.461Z"/><path class="a" d="M215.65,102.949a4.726,4.726,0,0,0-.876.387c-4.987,2.887-3.6,10.13-.8,12.416,5.5,4.486,9.611,4.4,15.31,1.514,2.376-1.61,3.993-3.76,3.829-7-.123-2.421-.86-3.993-2.211-4.8a4.75,4.75,0,0,0-5.629.117,17.62,17.62,0,0,0-6.079-2.921A7.145,7.145,0,0,0,215.65,102.949Z"/><path class="e" d="M215.118,101.021a8.873,8.873,0,0,0-5.633,9.281,11.64,11.64,0,0,0,1.457,4.866,12.036,12.036,0,0,0,4.269,3.934,13.4,13.4,0,0,0,12.434,1.081,12.391,12.391,0,0,0,5.668-3.975,9.124,9.124,0,0,0,1.8-5.937c-.112-2.461-.871-4.99-3.021-6.413a6.863,6.863,0,0,0-7.828,0h2.019c-3.3-2.277-7.126-4.087-11.168-2.839-2.452.757-1.406,4.62,1.063,3.857a5.8,5.8,0,0,1,4.053.181,18.524,18.524,0,0,1,4.033,2.255,1.935,1.935,0,0,0,2.019,0,3.032,3.032,0,0,1,3.757-.029,2.379,2.379,0,0,1,.685.967,6.493,6.493,0,0,1,.4,2.319c.051,3.017-2.173,4.857-4.824,5.863a9.322,9.322,0,0,1-8.264-.31,18.11,18.11,0,0,1-2.276-1.491,7.5,7.5,0,0,1-.669-.564c-.08-.077-.153-.161-.23-.24-.058-.063-.114-.128-.168-.194q.173.228.047.054c-.14-.2-.271-.408-.392-.622-.048-.084-.379-.755-.261-.483a8.839,8.839,0,0,1-.527-1.766,6.855,6.855,0,0,1,.219-3.367,4.262,4.262,0,0,1,2.4-2.573,2.052,2.052,0,0,0,1.4-2.46A2.017,2.017,0,0,0,215.118,101.021Z"/><path class="e" d="M205.251,36.857c-3.769,6.87-4.514,15.422-.53,22.392a19.939,19.939,0,0,0,31.8,3.6c1.769-1.869-1.055-4.7-2.828-2.828a16.111,16.111,0,0,1-22.19,1.262c-6.519-5.717-6.77-15.17-2.8-22.41,1.238-2.258-2.215-4.279-3.454-2.019Z"/><path class="e" d="M214.4,46.469a3.134,3.134,0,0,1-1.474,2.241,2.438,2.438,0,0,1-1.816.186,2.736,2.736,0,0,1-1.839-1.649,3.2,3.2,0,0,1,1.1-3.6,2.529,2.529,0,0,1,3.411.481A2.82,2.82,0,0,1,214.4,46.469Z"/><path class="e" d="M225.9,50.772a3.138,3.138,0,0,1-1.474,2.241,2.436,2.436,0,0,1-1.816.185,2.731,2.731,0,0,1-1.839-1.648,3.2,3.2,0,0,1,1.1-3.6,2.53,2.53,0,0,1,3.411.481A2.823,2.823,0,0,1,225.9,50.772Z"/><path class="e" d="M208.705,38.876a18.683,18.683,0,0,1,5.919-7.687,17.207,17.207,0,0,1,9.815-2.962c6.51-.151,12.846,2.7,15.968,8.62a15.941,15.941,0,0,1,1.392,11.39c-.643,2.495,3.214,3.559,3.857,1.064a20,20,0,0,0-7.729-21.152c-6.783-4.7-16.637-5.448-23.914-1.319a21.474,21.474,0,0,0-8.762,10.027,2.064,2.064,0,0,0,.717,2.736,2.016,2.016,0,0,0,2.737-.717Z"/><path class="e" d="M209.932,35.611a23.044,23.044,0,0,0,7.675,5.907c1.322.62,3.345,1.761,4.857,1.345,2.072-.569,2.03-2.984,2.314-4.714l-3.343.883c2.158,1.938,4.3,3.893,6.476,5.814a18.329,18.329,0,0,0,6.2,3.407c2.437.845,3.484-3.017,1.063-3.857-4.383-1.52-7.539-5.164-10.913-8.193-1.008-.905-3.082-.705-3.342.883a9.3,9.3,0,0,1-.471,2.734l.717-.717-.244.1,1.009-.273a7.05,7.05,0,0,1-2.306-.871,21.375,21.375,0,0,1-2.582-1.44,20.021,20.021,0,0,1-4.283-3.841c-1.672-1.963-4.489.878-2.829,2.828Z"/><path class="e" d="M208.094,65.684a39.047,39.047,0,0,0,3.062,10.442,30.261,30.261,0,0,0,2.416,4.467,4.06,4.06,0,0,0,2.306,1.924,3.755,3.755,0,0,0,2.869-.566,24.215,24.215,0,0,0,3.927-3.5q1.675-1.68,3.187-3.512a52.938,52.938,0,0,0,5.732-8.58c1.219-2.267-2.233-4.29-3.453-2.019a49.22,49.22,0,0,1-10.281,13.179c-.282.258-.559.533-.86.77-.126.1-.5.254-.527.349q1.016.531.642.065c-.092-.137-.182-.275-.268-.415-.21-.332-.412-.67-.609-1.01a32.041,32.041,0,0,1-1.9-3.8,36.808,36.808,0,0,1-2.388-8.862,2.013,2.013,0,0,0-2.46-1.4,2.054,2.054,0,0,0-1.4,2.461Z"/></svg>