<?xml version="1.0" encoding="utf-8"?>
<!-- Uploaded to: SVG Repo, www.svgrepo.com, Generator: SVG Repo Mixer Tools -->
<svg width="800px" height="800px" viewBox="0 -58.87 418.784 418.784" xmlns="http://www.w3.org/2000/svg"><defs><style>.a{fill:#a98a75;}.b{fill:#ffffff;}.c{fill:#ffda71;}.d{fill:#211715;}.e{fill:#febe69;}.f{fill:#7a7473;}.g{fill:#3d8dcc;}.h{fill:#85807f;}</style></defs><path class="a" d="M67.376,67.653a18.215,18.215,0,0,1,5.863,8.427,27.66,27.66,0,0,1,1.549,8.182L38.541,119.028c-3.118,1.823-7.681,1.49-11.862.129a14.464,14.464,0,0,1-6.051-3.963,7.727,7.727,0,0,1-2-3.417l-.236-.079a43.173,43.173,0,0,1-7.251-3c-2.666-1.458-2.745-3.9-1.915-5.156a14.681,14.681,0,0,1,3.32-3.011C16.447,97.4,20.81,86.8,22.806,82.205s3.776-9.374,6.882-13.3A19.968,19.968,0,0,1,47.834,61.77l8,1.525A20.255,20.255,0,0,1,67.311,67.6Z"/><path class="b" d="M294.638,251.682c-22.5-4.633-45.328-9.328-64.277-13.229a25.187,25.187,0,0,0-11.45-15.411c12.594-18.661,36.5-54.049,52.773-78.144l-23.368-2.549c.129-.333.2-.7.3-1.044a6.735,6.735,0,0,1,4.284-4.5,19.711,19.711,0,0,1,2.055-.505c15.455,1.689,35.84,3.917,47.1,5.144v1.437a9.731,9.731,0,0,0-4.736,1.132,7.979,7.979,0,0,0-2.945,3.36c-3.965-.432-8.437-.921-13.111-1.432-9.615,14.223-26.487,39.215-39.128,57.94,2.345,7.617,5.864,19.041,8.252,26.792,27.761,5.713,59.95,12.333,87.895,18.084a24.83,24.83,0,0,0-12.12,9.419C316.03,256.088,305.371,253.892,294.638,251.682Z"/><path class="b" d="M180.456,207.759c-.283-.65-.623-1.565-.762-2.019l-1.666.164a5.072,5.072,0,0,1-4.72-1.914c-7.244-7.228-12.015-11.988-20.573-20.529-11.8,5.445-20.974,13.907-29.773,20.741.782,1.224,1.3,2.038,1.3,2.038,2.078,3.273,10.764,14.82,12.72,18.326a17.634,17.634,0,0,1,2.248,5.337,7.107,7.107,0,0,1-.091,3.007l1.055.35a55.47,55.47,0,0,0,8.667,2.282,4.633,4.633,0,0,0,4.16-1.683,3.954,3.954,0,0,0,.866-2.549V229.6l-4.448-3.695a3.194,3.194,0,0,1-.688-1.442c-2.712-8.515-5.121-15.6-5.862-24.5l-.276-6.835c4.488,3.243,19.19,13.894,24.619,18.275a8.285,8.285,0,0,1,1.734,1.764A9.726,9.726,0,0,1,170,215.61c1.114-.5,2.562-.948,4.441-1.643,1.8-.664,3.485-1.385,5.246-2.095a2.317,2.317,0,0,0,1.1-3.451A4.34,4.34,0,0,1,180.456,207.759Z"/><path class="b" d="M285.822,49.8l.082-.084c4.762-4.837,11.531-7.5,19.689-7.3A23.846,23.846,0,0,1,321.052,48.2l3.263,2.7.612.655c3.085,3.3,4.447,6.914,5.194,11.257a21.452,21.452,0,0,1,.111,6.609c-.35,2.471-.986,8.461-3.205,11.16a9.424,9.424,0,0,1-1.136,4.714,9.034,9.034,0,0,1-3.667,3.788,6.673,6.673,0,0,1-3.124.557c-.478.84-1.562,2.3-1.562,2.3a28.72,28.72,0,0,1-5.834,5.8l-4.632,2.108a31.873,31.873,0,0,1-6.664,1.8c-.778.1-1.574.155-2.4.174A17.479,17.479,0,0,1,284.975,96.8c-3.6-3.356-4.932-8.367-5.175-13.828-.108-2.419-.178-5-.315-7.614a39.456,39.456,0,0,1,.551-14.846A25.144,25.144,0,0,1,285.822,49.8Z"/><polygon class="c" points="128.482 64.951 117.563 35.332 148.562 39.206 153.774 7.754 178.449 26.897 198.395 2.039 210.135 31.32 239.47 19.717 235.129 51.291 265.994 56.052 246.735 81.458 270.859 101.308 241.842 113.739 252.761 143.358 221.762 139.483 216.55 170.935 191.875 151.793 171.929 176.651 160.189 147.37 130.853 158.973 135.195 127.399 104.33 122.638 123.589 97.231 99.465 77.382 128.482 64.951"/><path class="d" d="M114.165,86.9,100.879,75.968l-.405,3.141,25.391-10.878,3.626-1.553a2,2,0,0,0,.92-2.259L120.856,38.5l-1.365-3.7-1.928,2.532L144.7,40.723l3.865.483a1.989,1.989,0,0,0,1.929-1.468l4.572-27.6.639-3.856-3.343.882,21.6,16.756,3.077,2.387a2.032,2.032,0,0,0,2.828,0l17.5-21.81,2.446-3.048-3.343-.883,10.273,25.622,1.467,3.659a2.028,2.028,0,0,0,2.461,1.4L236.336,23.1,240,21.645l-2.46-2.46-3.809,27.7-.533,3.872c-.133.97.223,2.279,1.4,2.46l18.153,2.8a2.062,2.062,0,0,0,2.46-1.4,2.016,2.016,0,0,0-1.4-2.46l-18.152-2.8,1.4,2.46,3.809-27.7.532-3.871c.181-1.313-.861-3.093-2.46-2.461L213.27,27.941l-3.667,1.45,2.46,1.4L201.791,5.167l-1.468-3.66c-.492-1.227-2.3-2.188-3.342-.883l-17.5,21.81-2.446,3.048h2.828l-21.6-16.755L155.188,6.34c-1.042-.809-3.068-.779-3.343.882l-4.572,27.6-.639,3.857,1.928-1.469-27.134-3.391-3.865-.483a2.008,2.008,0,0,0-1.929,2.531l9.555,25.917,1.364,3.7.92-2.258L102.082,74.1l-3.626,1.554a2.007,2.007,0,0,0-.405,3.141l13.286,10.932c1.973,1.623,4.819-1.191,2.828-2.828Z"/><path class="b" d="M287.865,99.708c-4.432,4.124-32.357,23.11-33.562,24l-1.848,1.37,1.038,1.371,6.593,8.712c9.112-4.611,17.1-8.008,26.286-9,.711-.077,1.424-.135,2.136-.193l5.925,1.837a173.906,173.906,0,0,1,13.335,15.358l10.981,12.9c8.8,4.007,32.381,13.083,39.1,17.507l2.542-6.722c2.181-7.861,2.205-14.538,1.111-22.278a53.814,53.814,0,0,0-6.056-17.66c-7.7-14.557-17.8-26.894-31.21-36.453Z"/><path class="e" d="M153.952,246.388a24.219,24.219,0,0,1-4.5-2.589l-7.712-5.212a7.1,7.1,0,0,1-2.886-4.08,1.042,1.042,0,0,1,1.339-1.247,55.47,55.47,0,0,0,8.667,2.282,4.633,4.633,0,0,0,4.16-1.683,3.954,3.954,0,0,0,.866-2.549V229.6c3.76,1.834,8.5,4.247,12.211,6.216a4.3,4.3,0,0,1,.3,7.413c-3.5,2.249-7.863,4.4-11.114,3.589A10.416,10.416,0,0,1,153.952,246.388Z"/><path class="e" d="M187.47,216.694a40.15,40.15,0,0,1,3.573-1.988,45.636,45.636,0,0,0,4.615-2.249,6.575,6.575,0,0,0,3.417-4.864,3.916,3.916,0,0,0-.394-2.017c-.963-1.941-2.755-2.039-4.412-1.988-4.934.151-9.84,1.317-14.746,1.482l.125.5a16.782,16.782,0,0,0,1.143,2.848,2.317,2.317,0,0,1-1.1,3.451c-1.761.71-3.45,1.431-5.246,2.095-1.743.645-3.115,1.079-4.2,1.537a1.626,1.626,0,0,0-.8,2.291,10.729,10.729,0,0,0,3.352,3.785,5.089,5.089,0,0,0,2.131.855,5.58,5.58,0,0,0,2.114-.263C180.839,221.105,184.087,218.768,187.47,216.694Z"/><path class="b" d="M58.8,75.69a20.331,20.331,0,0,0,5.464,5.258A46.856,46.856,0,0,0,74.842,85c.471,4.077,1.226,8.161,1.817,11.886.856,5.4.553,10.575-2.3,14.585a17.482,17.482,0,0,1-11.769,7.523,23.807,23.807,0,0,1-2.382.309,20.075,20.075,0,0,1-5.488-.1l-6.362-1.464a28.779,28.779,0,0,1-6.877-4.509s-1.317-1.184-2.011-1.934a6.679,6.679,0,0,1-3.152.075,9.03,9.03,0,0,1-4.351-2.977c-1.256-1.41-2.368-4.056-2.08-5.855a3.115,3.115,0,0,1,2.025-2.4A3.453,3.453,0,0,1,34.461,100l1.321-3.644A64.81,64.81,0,0,0,58.374,75.636"/><path class="b" d="M156.053,182.041c-.538-2.511-4.116-5.409-7-7.952a42.45,42.45,0,0,0-9.447-6.039c-7.518-3.766-14.112-5.477-24.94-6.575-3.484-.353-6.89.087-10.334-.672l-.9-.029A83.69,83.69,0,0,0,88.925,165.2C81.237,168.151,69.3,174.771,66.7,176.25c0,0-3.526,1.681-6.9,3.323.334,1.2.875,2.891.875,2.891A100.33,100.33,0,0,0,84.841,224.84c1.786,1.86,8.37,1.948,9.906.405,7.477-7.514,16.947-12.681,25.485-18.974,10.457-7.707,21.113-18.43,35.821-24.23"/><path class="e" d="M19.516,168.689a223.945,223.945,0,0,1,8.464-20.857c3.982-8.943,12.948-19.831,21.842-23.921a25.946,25.946,0,0,0,30.165,2.247l-2.2-2.089c17.986-4.907,36.551-4.038,53.618,3.465l.254,13.6c-4.806-.366-9.032-.732-13.838-1.1-3.122-.237-6.249-.476-9.336-1a60.58,60.58,0,0,0-8.8-1.311c-2.969-.061-6.1.668-8.234,2.738l-2.328,2.5a96.831,96.831,0,0,0,14.385,17.8A83.364,83.364,0,0,0,88.925,165.2C81.237,168.151,69.3,174.771,66.7,176.25l-7.071,3.37c-.383.153-1.623.787-2.512,1.15a13.515,13.515,0,0,1-3.3,1.092,6.241,6.241,0,0,1-3.273-1.325c-4.579-4.156-7.909-11.162-10-16.58l-.751-2.25q-3.133,7.53-6.268,15.059l-5.3,2.588-9.873-4.939Z"/><path class="f" d="M346.022,257c-10.473,0-17.712,9.6-17.712,20.831,0,12.567,7.395,21.221,17.712,21.221,10.716,0,17.713-8.735,17.713-21.221C363.735,266.524,356.458,257,346.022,257Z"/><path class="f" d="M182.778,245.441c-7.038,13.677-3.754,27.325,5.782,32.232,10.669,5.491,22.987-.386,29.921-13.86,7.2-13.994,4.487-26.949-6.114-32.4C202.766,226.469,189.792,231.812,182.778,245.441Z"/><path class="g" d="M324.831,239.4c.083.405.157.817.221,1.229,1.018-2,1.993-3.944,2.975-5.912,2.922-5.858,5.906-11.944,10.253-20.457,3.96-7.755,9.121-18.948,12.83-25.739,1.8-3.294,4.969-10.567,5.944-13.111,0,0,.305-.8.729-1.875-6.8-4.439-30.256-13.471-39.034-17.466l-8.974-4.084-3.781,15.66c-2.6,10.773-11.716,45.117-14.093,55.779l-.345,1.547,3.055.923a6.184,6.184,0,0,1,4.67,5.465,1.935,1.935,0,0,0,2.547,1.713c.381-.127.791-.257,1.215-.386a4.537,4.537,0,0,1,4.451,1.039c-2.79.347,4.317-1.7,6.435,3.627a1.936,1.936,0,0,0,2.955.832c.6-.443,1.282-.928,1.981-1.4a3.851,3.851,0,0,1,5.9,2.32C324.791,239.2,324.811,239.3,324.831,239.4Z"/><path class="d" d="M220.781,226.622q21.336,4.392,42.673,8.78l47.931,9.86,26.363,5.425c2.513.517,3.587-3.338,1.064-3.857q-23.672-4.872-47.343-9.741-23.316-4.8-46.633-9.593l-22.992-4.731c-2.512-.517-3.587,3.337-1.063,3.857Z"/><path class="d" d="M229.832,240.387q37.311,7.674,74.619,15.354l21.168,4.363c2.512.518,3.587-3.337,1.063-3.857q-38.171-7.872-76.346-15.718l-19.44-4c-2.513-.517-3.587,3.338-1.064,3.857Z"/><path class="b" d="M284.465,247.337c-2.706.049-8.313-.433-11.014-1.679-5.1-2.354-5.953-5.14-5.435-9.187.285-2.225,2.524-4.273,4.66-5.16,2.452-1.019,8.109-1.86,11.211-2.827,3.461-1.079,5.555-3.978,10.724-2.593a6.184,6.184,0,0,1,4.67,5.465,1.935,1.935,0,0,0,2.547,1.713c.381-.127.791-.257,1.215-.386a4.538,4.538,0,0,1,5.82,5.015c-.154,1-.359,1.987-.574,2.875a4.4,4.4,0,0,1-3.154,3.235,27.794,27.794,0,0,1-5.92,1.071c-5.586.151-9.325,2.256-14.427,2.449C284.685,247.332,284.578,247.335,284.465,247.337Z"/><path class="d" d="M284.465,245.337a32,32,0,0,1-8.713-.991c-2.216-.6-5-2.01-5.661-4.342a7.389,7.389,0,0,1-.086-3.351c.316-1.543,1.824-2.739,3.173-3.382,2.665-1.269,5.93-1.545,8.782-2.212a22.14,22.14,0,0,0,4.311-1.387c1.108-.51,2.14-1.195,3.275-1.644a6.278,6.278,0,0,1,6.68,1.045c1.08,1.079.827,2.4,1.38,3.7a3.968,3.968,0,0,0,4.589,2.265c1.325-.313,2.5-.976,3.735-.035,1.289.981.985,2.466.7,3.849a4.8,4.8,0,0,1-.826,2.307,4.246,4.246,0,0,1-2.375,1.02,56.344,56.344,0,0,1-6.654.894c-4.146.517-8.112,2.149-12.308,2.265-2.569.07-2.579,4.071,0,4,4.306-.119,8.289-1.743,12.521-2.292,4.143-.537,10.229-.075,12.594-4.352a12.089,12.089,0,0,0,1.308-6.2,6.585,6.585,0,0,0-2.911-4.922,6.777,6.777,0,0,0-5.884-.689c-.188.058-.858.3-.87.3.153.048.037-.132-.011-.464a7.928,7.928,0,0,0-.956-2.925c-1.727-2.955-5.363-4.433-8.684-4.258-3.389.179-5.9,2.405-9.067,3.266-3.412.929-7.066,1.26-10.361,2.581a10.659,10.659,0,0,0-5.164,4.217,9.239,9.239,0,0,0-1.08,5.289c.5,8.909,11.535,10.534,18.565,10.449C287.037,249.305,287.044,245.305,284.465,245.337Z"/><path class="b" d="M346.022,268.041c-4.974,0-8.412,4.559-8.412,9.893,0,5.969,3.512,10.08,8.412,10.08,5.09,0,8.413-4.149,8.413-10.08C354.435,272.563,350.979,268.041,346.022,268.041Z"/><path class="b" d="M191.783,250.074c-3.488,6.778-1.861,13.542,2.865,15.974,5.288,2.721,11.392-.191,14.828-6.869,3.569-6.935,2.224-13.355-3.029-16.059C201.689,240.672,195.258,243.32,191.783,250.074Z"/><path class="d" d="M346.022,255c-20.073.2-25.9,29.153-12.5,41.269a19.046,19.046,0,0,0,22.865,1.783c7.6-5.089,10.239-15.105,9.1-23.8-1.323-10.109-8.72-19.149-19.465-19.255-2.575-.025-2.577,3.975,0,4,16.355.161,20.411,24.2,10.176,34.1a14.975,14.975,0,0,1-18.183,1.62c-6.337-4.112-8.377-12.646-7.547-19.748.957-8.186,6.8-15.887,15.554-15.974C348.594,258.976,348.6,254.976,346.022,255Z"/><path class="d" d="M346.022,266.041c-10.412.173-13.81,15.049-6.634,21.435a10.1,10.1,0,0,0,12.15.927c3.887-2.66,5.349-7.67,4.776-12.191-.681-5.388-4.594-10.077-10.292-10.171-2.575-.043-2.575,3.957,0,4,6.781.112,8.257,10.285,4.152,14.344a6.06,6.06,0,0,1-7.437.658c-2.481-1.616-3.4-5.249-3.073-8.259.378-3.474,2.76-6.683,6.358-6.743C348.593,270,348.6,266,346.022,266.041Z"/><path class="d" d="M373.772,277.743c-.051-10.666-4.369-21.57-13.322-27.811a25.635,25.635,0,0,0-29.623.566,31.457,31.457,0,0,0-10.6,15.093c-.843,2.438,3.02,3.486,3.857,1.064,3.091-8.943,10.514-16.5,20.333-17.141,9.245-.607,17.252,4.612,21.579,12.612a33.137,33.137,0,0,1,3.776,15.617c.012,2.573,4.012,2.579,4,0Z"/><path class="d" d="M181.051,244.432c-4.939,9.738-6.353,22.973,1.83,31.476,6.945,7.215,18.134,7.3,26.154,1.913a34.387,34.387,0,0,0,10.982-12.633,35.42,35.42,0,0,0,4.487-16.773,21.854,21.854,0,0,0-4.758-13.636,19.6,19.6,0,0,0-11.654-6.885c-11.744-1.93-21.919,6.711-27.041,16.538-1.189,2.28,2.262,4.3,3.454,2.018,3.877-7.438,10.9-14.6,19.819-14.843,8.085-.219,14.631,6.049,15.935,13.818.787,4.689-.232,9.554-1.932,13.929a34.348,34.348,0,0,1-8.506,12.782c-6,5.533-14.772,7.637-21.884,2.845-9.321-6.28-7.855-19.81-3.432-28.531C185.667,244.16,182.217,242.133,181.051,244.432Z"/><path class="d" d="M190.056,249.065c-2.63,5.249-3.328,12.181,1.018,16.771,3.687,3.894,9.754,4.08,14.1,1.238a19.181,19.181,0,0,0,8.291-15.511c-.065-5.212-3.552-10.273-8.905-11.162-6.282-1.043-11.726,3.381-14.509,8.664-1.2,2.276,2.252,4.3,3.454,2.019,1.734-3.293,4.8-6.649,8.741-6.849a6.988,6.988,0,0,1,7.118,6.008c.708,4.362-1.661,9.311-4.791,12.249-2.621,2.46-6.5,3.541-9.666,1.393-4.159-2.827-3.342-8.929-1.4-12.8C194.659,248.789,191.21,246.761,190.056,249.065Z"/><path class="d" d="M231.937,256.936c1.688-6.637,2.059-13.775-.041-20.369a27.667,27.667,0,0,0-10.968-14.613c-9.932-6.677-22.478-5.245-32.084,1.317a47.3,47.3,0,0,0-15.008,17.448c-1.185,2.282,2.265,4.307,3.453,2.019,5.214-10.04,14.136-19.248,25.779-21.012a23.007,23.007,0,0,1,24.306,14.052c2.619,6.385,2.381,13.508.706,20.094-.635,2.5,3.222,3.561,3.857,1.064Z"/><path class="d" d="M302.053,139.445q-11.089-1.209-22.178-2.421l-12.829-1.4-6.289-.687a54.864,54.864,0,0,0-5.811-.634c-2.574,0-2.578,4,0,4a54.864,54.864,0,0,1,5.811.634l6.083.665,13.035,1.424q11.088,1.212,22.178,2.421a2.012,2.012,0,0,0,2-2,2.046,2.046,0,0,0-2-2Z"/><path class="d" d="M248.316,144.349q23.033,2.51,46.064,5.026a2.012,2.012,0,0,0,2-2,2.047,2.047,0,0,0-2-2q-23.033-2.514-46.064-5.026a2.012,2.012,0,0,0-2,2,2.045,2.045,0,0,0,2,2Z"/><path class="d" d="M220.758,223.873q20.548-30.445,41.114-60.88,5.769-8.541,11.536-17.084c1.445-2.139-2.019-4.143-3.454-2.019Q248.48,175.7,227,207.5L217.3,221.854c-1.444,2.14,2.02,4.144,3.454,2.019Z"/><path class="d" d="M234.351,218.976q9.114-13.5,18.228-27,10.377-15.372,20.758-30.742,4.824-7.141,9.65-14.281c1.446-2.138-2.018-4.142-3.454-2.019q-9.266,13.7-18.52,27.415l-20.677,30.627q-4.719,6.992-9.439,13.981c-1.444,2.139,2.02,4.143,3.454,2.019Z"/><path class="d" d="M240.406,205.077l5.545,18c.756,2.453,4.618,1.406,3.858-1.063l-5.545-18c-.756-2.452-4.619-1.406-3.858,1.064Z"/><path class="d" d="M323.223,92.187a96.781,96.781,0,0,1,22.587,22.818c6.527,9.23,12.441,19.6,13.877,30.978a51.755,51.755,0,0,1-1.228,20.336c-.678,2.487,3.18,3.548,3.857,1.064a55.958,55.958,0,0,0-3.262-37.651,105.267,105.267,0,0,0-19.287-28.388,100.353,100.353,0,0,0-14.525-12.611,2.016,2.016,0,0,0-2.736.718,2.042,2.042,0,0,0,.717,2.736Z"/><path class="d" d="M309.5,142.158A180.583,180.583,0,0,0,295.848,126.4c-1.8-1.847-4.627.982-2.829,2.828a171.829,171.829,0,0,1,13.022,14.954,2.068,2.068,0,0,0,2.737.717,2.012,2.012,0,0,0,.717-2.736Z"/><path class="d" d="M286.45,98.294c-.62.572-1.283,1.1-1.946,1.62l-.258.2c-.446.349.322-.246-.144.112q-.294.225-.589.449-.855.648-1.717,1.286c-2.659,1.968-5.352,3.891-8.053,5.8-5.416,3.832-10.872,7.607-16.334,11.372-1.372.946-2.772,1.861-4.115,2.849a2.06,2.06,0,0,0-.718,2.736,2.015,2.015,0,0,0,2.737.717c3.522-2.59,7.208-4.977,10.8-7.468,5.731-3.976,11.461-7.96,17.079-12.094a69.745,69.745,0,0,0,6.087-4.754c1.9-1.75-.939-4.573-2.829-2.828Z"/><path class="d" d="M263.339,135.771c8-3.926,16.219-7.068,25.169-7.8,2.548-.209,2.57-4.21,0-4a59.979,59.979,0,0,0-13.736,2.685,103.37,103.37,0,0,0-13.452,5.66c-2.311,1.134-.286,4.585,2.019,3.454Z"/><path class="b" d="M258.508,134.5c-.753,1.173-2.131,1.507-3.552,1.8a19.711,19.711,0,0,0-2.055.505,6.735,6.735,0,0,0-4.284,4.5c-.1.345-.172.711-.3,1.044a1.666,1.666,0,0,1-.484.743c-.808.689-2.035.215-2.949-.3-.571-.322-1.141-.656-1.7-1.011a56.438,56.438,0,0,1-8.61-6.425,1.828,1.828,0,0,1-.764-1.184,1.935,1.935,0,0,1,.71-1.281c1.69-1.733,3.391-3.455,5.08-5.188,1.636-1.679,3.67-3.5,5.995-3.142,1.41.215,2.561,1.2,3.885,1.722a6.118,6.118,0,0,0,4.015.172l6.837,9.035"/><path class="d" d="M256.781,133.494c-.468.643-1.651.727-2.356.878a12.587,12.587,0,0,0-3.676,1.221,8.955,8.955,0,0,0-4.153,5.53c-.03.113-.159.373-.128.5l.444-.183a.716.716,0,0,1-.332-.06c-.431-.255-.93-.445-1.372-.705q-1.671-.982-3.282-2.069c-1.159-.781-2.292-1.6-3.382-2.479q-.786-.632-1.55-1.291c-.339-.292-1.171-.806-1.257-1.193V134.7c.111-.7,1.381-1.61,1.888-2.128L240,130.154c1.179-1.2,2.42-2.782,4.03-3.432,1.525-.616,2.765.52,4.084,1.134a8.509,8.509,0,0,0,5.912.525l-2.258-.919L258.6,136.5a2.064,2.064,0,0,0,2.736.718,2.013,2.013,0,0,0,.717-2.736l-6.837-9.036a2.092,2.092,0,0,0-2.259-.919c-2.082.554-3.442-.565-5.254-1.369a6.627,6.627,0,0,0-6.21.387,24.207,24.207,0,0,0-4.836,4.3q-1.271,1.3-2.542,2.592a7.538,7.538,0,0,0-2.182,2.838c-.688,2.375,1.684,3.958,3.256,5.253a61.169,61.169,0,0,0,5.462,4.024c1.681,1.095,3.607,2.583,5.65,2.833,2.349.288,3.617-1.321,4.195-3.372a4.972,4.972,0,0,1,3.941-3.553c2.3-.548,4.321-.922,5.794-2.946a2.015,2.015,0,0,0-.718-2.737,2.046,2.046,0,0,0-2.736.718Z"/><path class="b" d="M321.982,150.808c-.623,3.013-3.61,4.837-6.317,6.3a2.142,2.142,0,0,1-.94.331,2.92,2.92,0,0,1-1.248-.441c-1.257-.591-3.112-.248-3.5,1.086-.351,1.212.637,2.685-.121,3.693a28.094,28.094,0,0,1-16.519-8.656,1.9,1.9,0,0,1-.553-.9,1.94,1.94,0,0,1,.108-.86c.8-2.818,1.906-5.844,4.423-7.345,1.917-1.144,4.276-1.163,6.508-1.149a18.279,18.279,0,0,1,4.049.326,7.912,7.912,0,0,0,1.786.335c1.833,0,3.35-1.791,5.113-1.892q4.671,4.347,9.345,8.692"/><path class="d" d="M320.053,150.277a5.949,5.949,0,0,1-2.6,3.421,23.593,23.593,0,0,1-2.173,1.339c-.3.17-1.042.33-.5.384-.384-.038-.812-.4-1.2-.506a4.726,4.726,0,0,0-4.681,1.138,3.807,3.807,0,0,0-1,2.541,7.9,7.9,0,0,0,.142,1.412q.046.261.091.522.046.548-.01.239l2.259-.919a27,27,0,0,1-10.449-3.824,25.313,25.313,0,0,1-4.054-3.163c-.258-.247-1.047-.81-1.133-1.154.126.5.243-.414.277-.524a18.84,18.84,0,0,1,.831-2.32,6.322,6.322,0,0,1,2.969-3.388c1.674-.748,3.658-.627,5.447-.607a15.329,15.329,0,0,1,3.064.251,6.3,6.3,0,0,0,5.6-.6,5.879,5.879,0,0,1,1.832-.88l-1.415-.586,9.346,8.692c1.883,1.752,4.718-1.07,2.828-2.828l-5.751-5.349-2.516-2.34c-1.116-1.038-1.91-1.821-3.513-1.443-1.739.409-3.069,1.99-4.9,1.593a26.97,26.97,0,0,0-7.136-.478,10.879,10.879,0,0,0-6.208,1.954,11.379,11.379,0,0,0-3.45,4.812c-.778,1.863-1.937,4.326-.68,6.2a19.848,19.848,0,0,0,4.712,4.362,29.654,29.654,0,0,0,13.239,5.485,2.089,2.089,0,0,0,2.259-.919,4.5,4.5,0,0,0,.443-3.135,4.342,4.342,0,0,1-.126-.884c.022-.332-.192.048.031-.02.56-.168,1.127.3,1.621.475a3.669,3.669,0,0,0,2.97-.309c3.179-1.576,6.513-3.937,7.386-7.573.6-2.5-3.255-3.569-3.857-1.063Z"/><path class="d" d="M317.74,157.793c10.753,4.881,21.869,8.93,32.537,14.008a55.616,55.616,0,0,1,6.559,3.5c2.162,1.411,4.169-2.051,2.019-3.454-4.205-2.744-9.007-4.683-13.591-6.686-5.992-2.618-12.042-5.1-18.074-7.624-2.488-1.041-4.976-2.082-7.431-3.2a2.061,2.061,0,0,0-2.737.718,2.016,2.016,0,0,0,.718,2.736Z"/><path class="d" d="M355.126,174.875c-3.182,8.236-7.559,15.918-11.427,23.836-4.813,9.852-9.764,19.631-14.643,29.451-2.306,4.64-4.61,9.281-6.981,13.889-1.176,2.285,2.274,4.311,3.454,2.019,4.619-8.979,9.016-18.07,13.6-27.07,4.754-9.348,9.217-18.835,14.065-28.135a127.4,127.4,0,0,0,5.794-12.927,2.016,2.016,0,0,0-1.4-2.46,2.045,2.045,0,0,0-2.46,1.4Z"/><path class="d" d="M323.814,175.023c-3.065,6.706-5.654,13.645-8.279,20.532q-4.7,12.328-9.171,24.744c-1.2,3.333-2.4,6.669-3.562,10.018-.845,2.437,3.018,3.484,3.857,1.063q7.806-22.522,16.6-44.716c1.342-3.382,2.559-6.438,4.014-9.622a2.061,2.061,0,0,0-.718-2.737,2.016,2.016,0,0,0-2.736.718Z"/><path class="d" d="M293.829,223.953c3.432-15.351,7.679-30.535,11.578-45.771.852-3.332,1.707-6.665,2.516-10.008.6-2.5-3.252-3.568-3.857-1.063-3.7,15.322-7.869,30.534-11.693,45.827-.828,3.31-1.656,6.621-2.4,9.951-.561,2.508,3.3,3.579,3.857,1.064Z"/><path class="d" d="M78.317,126c17.232-4.654,35.629-3.91,52.078,3.264a2.065,2.065,0,0,0,2.736-.718,2.014,2.014,0,0,0-.717-2.736,83.17,83.17,0,0,0-55.16-3.667c-2.482.67-1.429,4.53,1.063,3.857Z"/><path class="d" d="M48.812,122.184c-6.188,2.9-11.357,7.962-15.525,13.289a58.935,58.935,0,0,0-5.781,8.78c-1.782,3.376-3.224,6.96-4.724,10.468-1.89,4.417-3.68,8.875-5.195,13.437-.813,2.448,3.048,3.5,3.857,1.063A177.035,177.035,0,0,1,30.3,147.567a54.616,54.616,0,0,1,11.859-15.892,34.069,34.069,0,0,1,8.67-6.037,2.017,2.017,0,0,0,.718-2.736,2.046,2.046,0,0,0-2.737-.718Z"/><path class="d" d="M44.026,150.031c-3.025,3.452-4.7,7.653-6.438,11.837l-5.979,14.366a2.013,2.013,0,0,0,1.4,2.461,2.052,2.052,0,0,0,2.46-1.4l5.6-13.454c1.58-3.795,3.041-7.849,5.788-10.985,1.69-1.929-1.128-4.769-2.828-2.828Z"/><path class="b" d="M131.78,140.274l-2.277-9.8a2.394,2.394,0,0,1,2.324-2.931c.559,0,1.1-.028,1.758-.089a25.257,25.257,0,0,0,7.127-1.989c1.278-.9,2.37-2.044,3.685-2.885,4.1-2.621,9.7-1.711,13.783.946a5.551,5.551,0,0,1,1.848,1.733,7.058,7.058,0,0,1,.672,2.6c.436,2.935.761,5.585,1,8.739a2.394,2.394,0,0,1-1.56,2.061c-4.5,1.378-9.024,3.074-12.517,6.22a3.726,3.726,0,0,1-1.331.911,3.084,3.084,0,0,1-1.329.018c-3.16-.465-4.413-1.864-7.013-4.128"/><path class="b" d="M29.781,178.327l-.035.045a2.932,2.932,0,0,1-5.012-.9,8.579,8.579,0,0,0-5.019-4.986,5.649,5.649,0,0,0-2.8-.31,7.547,7.547,0,0,0-2.655,1.173A34.3,34.3,0,0,0,2.2,186.366a1.484,1.484,0,0,0-.237.8,1.528,1.528,0,0,0,.745.973l7.541,5.592a2.92,2.92,0,0,0,3.553-.054,13.459,13.459,0,0,1,11.589-2.487,5.076,5.076,0,0,0,1.951.3,3.989,3.989,0,0,0,2.354-1.683,27.506,27.506,0,0,0,3.485-5.526"/><path class="d" d="M92.862,141.878c2.085-1.93,5.028-2.29,7.755-2.111,3.425.224,6.785,1.178,10.189,1.614,6.9.883,13.914,1.223,20.852,1.753,2.568.2,2.555-3.8,0-4-3.72-.284-7.439-.595-11.159-.889-3.675-.291-7.376-.477-11.02-1.06-6.552-1.049-13.946-3.226-19.446,1.864-1.893,1.753.941,4.576,2.829,2.829Z"/><path class="d" d="M133.709,139.743l-1.973-8.485a6,6,0,0,1-.3-1.28c.013-.665,1.464-.451,2.147-.52a26.058,26.058,0,0,0,6.894-1.686c2.695-1.066,4.333-3.7,7.212-4.462a11.633,11.633,0,0,1,8.144,1.168c1.057.549,2.343,1.157,2.679,2.385a35.886,35.886,0,0,1,.76,5.285q.126,1.083.231,2.169.065.675.122,1.351c0,.045-.076,1.285.1.768-.13.379-.129.269-.515.419-.9.35-1.856.592-2.768.918a31.517,31.517,0,0,0-9.609,5.153,5.99,5.99,0,0,1-.932.814,1.543,1.543,0,0,1-1.16.006,6.737,6.737,0,0,1-1.692-.576,19.349,19.349,0,0,1-3.687-2.9c-1.93-1.689-4.77,1.129-2.829,2.828,2.594,2.269,5.214,4.654,8.874,4.767,2.257.07,3.472-1.612,5.163-2.791a26.484,26.484,0,0,1,4.844-2.638c1.769-.747,3.617-1.238,5.41-1.907a4.384,4.384,0,0,0,2.871-3.844,40.494,40.494,0,0,0-.608-6.024,24.453,24.453,0,0,0-.96-5.585c-1.295-3.35-5.88-5.177-9.156-5.767a13.235,13.235,0,0,0-10.622,2.3,19.2,19.2,0,0,1-3.273,2.442,29.524,29.524,0,0,1-4.208,1.19c-1.568.329-3.33.053-4.8.7a4.384,4.384,0,0,0-2.586,4.464,44.991,44.991,0,0,0,1.173,5.266l1.194,5.139c.583,2.506,4.441,1.445,3.858-1.063Z"/><path class="d" d="M31.572,175.749c-.69.375-1.417.693-2.124,1.036-.135.065-.268.139-.406.2-.287.119.266-.084-.035,0a3.181,3.181,0,0,1-1.241.159c-1.253-.049-1.2-.63-1.766-1.676a10.886,10.886,0,0,0-3.493-3.808,8.69,8.69,0,0,0-4.984-1.542,9.935,9.935,0,0,0-5.105,2.047,36.043,36.043,0,0,0-7.771,6.987,37.931,37.931,0,0,0-3.091,4.3c-.933,1.524-2.224,3.374-1.149,5.144.761,1.256,2.633,2.265,3.793,3.125l4.533,3.362a5.9,5.9,0,0,0,1.922,1.039c1.824.511,3.325-.17,4.79-1.191a11.99,11.99,0,0,1,5.106-2.049,16.339,16.339,0,0,1,5.471.519c2.305.4,3.984-.783,5.359-2.52a30.274,30.274,0,0,0,3.525-5.589c1.118-2.307-2.33-4.338-3.454-2.019a21.594,21.594,0,0,1-3.665,5.689c-.652.666-.988.516-1.867.3a16.158,16.158,0,0,0-3.267-.475,15.211,15.211,0,0,0-5.96,1,16.094,16.094,0,0,0-2.605,1.255c-.626.382-1.435,1.35-2.225,1.259-.477-.054-1.1-.663-1.468-.939l-2.612-1.937-2.776-2.058c-.326-.242-.652-.485-.978-.726s-.224-.3-.139-.009v1.063a8.1,8.1,0,0,1,1.436-2.734c.5-.784,1.028-1.554,1.6-2.291a33.076,33.076,0,0,1,3.993-4.3,29.161,29.161,0,0,1,4.715-3.518,4.166,4.166,0,0,1,5.008.36,6.645,6.645,0,0,1,1.535,1.643,26.475,26.475,0,0,0,1.4,2.5,5.459,5.459,0,0,0,4.19,1.78c2.09.047,4.031-.965,5.825-1.939,2.264-1.229.247-4.683-2.019-3.454Z"/><path class="d" d="M67.712,177.977c11.277-6.42,23.373-12.914,36.256-15.274,2.529-.463,1.458-4.319-1.063-3.857-7.739,1.418-15.26,4.461-22.327,7.86-5.047,2.427-10.017,5.046-14.884,7.818-2.237,1.273-.224,4.73,2.018,3.453Z"/><path class="d" d="M58.75,183a103.035,103.035,0,0,0,25.067,43.661c1.792,1.854,4.619-.976,2.828-2.828a98.8,98.8,0,0,1-24.038-41.9c-.694-2.474-4.554-1.423-3.857,1.064Z"/><path class="d" d="M103.674,162.7a39.2,39.2,0,0,0,7.649.611,63.215,63.215,0,0,1,7.178.6,70.017,70.017,0,0,1,11.581,2.413,54.436,54.436,0,0,1,19.364,10.764c1,.858,2.864,1.978,2.649,3.515-.229,1.633-2.528,2.157-3.755,2.807a92.738,92.738,0,0,0-11.326,7.207c-6.744,4.938-13.064,10.422-19.782,15.4-7.953,5.89-15.831,11.879-23.774,17.782a2.062,2.062,0,0,0-.718,2.736,2.015,2.015,0,0,0,2.737.718c7.457-5.542,14.857-11.159,22.315-16.7,7.084-5.264,13.8-11,20.9-16.232a92.889,92.889,0,0,1,12.049-7.657c1.845-.963,3.78-1.694,4.737-3.693a5.966,5.966,0,0,0-.144-5.525c-.979-1.712-2.842-3.046-4.366-4.259q-2.6-2.067-5.374-3.9a56.456,56.456,0,0,0-10.546-5.447,61.826,61.826,0,0,0-12.915-3.407c-2.786-.445-5.611-.847-8.426-1.034-3-.2-6.019.08-8.973-.55-2.511-.536-3.584,3.319-1.064,3.857Z"/><path class="d" d="M78.978,124.431A24.243,24.243,0,0,1,51.236,122.5c-1.973-1.623-4.819,1.191-2.828,2.828A28.35,28.35,0,0,0,81,127.885c2.206-1.32.2-4.78-2.019-3.454Z"/><path class="d" d="M104.273,158.727A96.414,96.414,0,0,1,90.846,141.95c-1.37-2.171-4.833-.166-3.454,2.019a101.132,101.132,0,0,0,14.053,17.587c1.824,1.821,4.653-1.007,2.828-2.829Z"/><path class="d" d="M38.628,164.489a53.623,53.623,0,0,0,8.229,15.053c1.66,2.008,3.614,3.907,6.316,4.267a7.723,7.723,0,0,0,3.916-.876c1.2-.5,2.359-1.079,3.552-1.586a2.013,2.013,0,0,0,.718-2.737,2.053,2.053,0,0,0-2.737-.717c-.875.372-1.717.818-2.6,1.183a17.284,17.284,0,0,1-1.746.653c-.062.018-.66.159-.456.133-.342.043.136.078-.293-.036a4.917,4.917,0,0,1-1.147-.464,5.308,5.308,0,0,1-.558-.342c.395.288-.259-.269-.274-.283a23.32,23.32,0,0,1-2.358-2.637,50.75,50.75,0,0,1-6.709-12.674,2.059,2.059,0,0,0-2.461-1.4,2.014,2.014,0,0,0-1.4,2.46Z"/><path class="d" d="M415.393,207.138l-29.474,31.1c-1.771,1.868,1.053,4.7,2.828,2.828l29.475-31.095c1.77-1.868-1.053-4.7-2.829-2.829Z"/><path class="d" d="M385.793,206.184l-15.748,25.429c-1.359,2.195,2.1,4.205,3.454,2.019L389.247,208.2c1.359-2.194-2.1-4.205-3.454-2.019Z"/><path class="d" d="M14.43,220.228l32.405,28.028c1.939,1.677,4.78-1.14,2.829-2.828L17.259,217.4c-1.939-1.677-4.78,1.14-2.829,2.828Z"/><path class="d" d="M43.127,215.575l18.186,23.747a2.065,2.065,0,0,0,2.736.717,2.012,2.012,0,0,0,.717-2.736L46.581,213.556a2.065,2.065,0,0,0-2.736-.717,2.013,2.013,0,0,0-.718,2.736Z"/><path class="b" d="M304.847,257.158c-2.556.892-8.033,2.186-10.988,1.846-5.582-.642-7.261-3.023-8.033-7.029-.424-2.2,1.063-4.848,2.815-6.358,2.011-1.734,7.122-4.3,9.768-6.188,2.95-2.1,4.033-5.514,9.376-5.812a6.182,6.182,0,0,1,6.144,3.732,1.936,1.936,0,0,0,2.955.832,31.984,31.984,0,0,1,5.785-3.572c1.7,1.24,2.441,5.518,2.7,8.68a4.4,4.4,0,0,1-1.981,4.057,27.72,27.72,0,0,1-5.294,2.87c-5.259,1.889-8.153,5.056-12.94,6.833C305.054,257.085,304.953,257.121,304.847,257.158Z"/><path class="d" d="M304.315,255.23a30.223,30.223,0,0,1-9.161,1.827c-2.3.03-5.264-.6-6.416-2.631a7.546,7.546,0,0,1-.983-3.124,5.683,5.683,0,0,1,2.04-4.036c2.219-2.092,5.347-3.4,7.929-5a20.343,20.343,0,0,0,3.446-2.567,36.547,36.547,0,0,1,2.751-2.7,6.313,6.313,0,0,1,6.285-.922c1.516.712,1.637,2.225,2.723,3.317a3.981,3.981,0,0,0,4.832.6c1.12-.667,2.288-2.176,3.734-1.8,1.412.368,1.479,1.935,1.656,3.145a8.177,8.177,0,0,1,.163,2.882c-.23.975-.964,1.426-1.762,1.928a55.854,55.854,0,0,1-6.484,3.173c-3.715,1.727-6.878,4.518-10.753,5.912-2.4.864-1.368,4.731,1.063,3.857,4.106-1.477,7.439-4.253,11.332-6.136,3.928-1.9,10-3.4,10.608-8.558a12.858,12.858,0,0,0-.176-3.162,13.058,13.058,0,0,0-.83-3.739,5.788,5.788,0,0,0-4.037-3.224c-2.255-.459-4,.454-5.777,1.731-.209.15-.418.3-.624.455-.255.19-.279.038-.106.111-.125-.053.105.306-.112-.225a7.277,7.277,0,0,0-1.6-2.387c-2.513-2.49-6.54-2.871-9.75-1.671a11.892,11.892,0,0,0-4.2,2.788,24.221,24.221,0,0,1-3.062,2.879c-3.086,2.144-6.618,3.643-9.54,6.026a10.692,10.692,0,0,0-3.42,5.06,8.718,8.718,0,0,0,.332,5.461c3.032,8.668,14.128,6.929,20.962,4.591C307.8,258.258,306.76,254.393,304.315,255.23Z"/><path class="h" d="M280.415,59.2q-.21.661-.379,1.313a39.974,39.974,0,0,0-.772,13.329c.109-.44.181-.74.181-.74.537-2.217,5.234-8.112,8.443-9.663.377-.182.843.1.973.719a4.077,4.077,0,0,1,.048,1.484.771.771,0,0,0,1.072.863c1.8-.921,4.933-3.19,8.485-4.475,3.893-.394,9.437,1.213,9.437,1.213,1.339.635,5.4,2.134,9.559,10.824.8.7,3.217,2.551,4.491,3.413a3.449,3.449,0,0,1,2.337-.288,3.112,3.112,0,0,1,2.465,1.947,4.791,4.791,0,0,1,.272,1.5l.387-.588c1.908-2.886,2.489-8.313,2.818-10.634a21.452,21.452,0,0,0-.111-6.609c-.747-4.343-2.109-7.956-5.194-11.257l-.612-.655L321.052,48.2a23.846,23.846,0,0,0-15.459-5.787c-8.158-.193-14.927,2.465-19.689,7.3a18.394,18.394,0,0,0-1.5,1.739A26.178,26.178,0,0,0,280.415,59.2Z"/><path class="d" d="M323.512,52.964a20.252,20.252,0,0,1,4.908,14.33,40.148,40.148,0,0,1-.784,5.947,15.951,15.951,0,0,1-2.043,5.937c-1.429,2.149,2.034,4.154,3.454,2.019a18.98,18.98,0,0,0,2.479-7.06,44.277,44.277,0,0,0,.906-7.317,24.277,24.277,0,0,0-6.091-16.685c-1.742-1.9-4.565.932-2.829,2.829Z"/><path class="d" d="M306.894,64.967a23.309,23.309,0,0,1,2.075,1.391c.308.229-.372-.3.009.008l.28.227c.209.172.416.349.619.528q.632.561,1.223,1.166.646.663,1.242,1.375.151.18.3.363c.105.129.291.371.084.1q.329.429.638.871a29.191,29.191,0,0,1,2.373,4.077,2.01,2.01,0,0,0,2.736.718,2.053,2.053,0,0,0,.718-2.737,26.8,26.8,0,0,0-10.276-11.541,2,2,0,1,0-2.019,3.454Z"/><path class="d" d="M281.374,73.631c.038-.142.084-.28.133-.419-.15.42.047-.09.094-.179.21-.392.427-.776.665-1.152a23,23,0,0,1,1.908-2.561A27.021,27.021,0,0,1,286.6,66.8a13.032,13.032,0,0,1,1.034-.864q.289-.212.6-.4c.1-.061.192-.118.29-.174q.492-.246-.242.043l-1.01-.273q-.412-.769-.319-.316a3.931,3.931,0,0,1-.01.564,3.5,3.5,0,0,0,.117,1.3,2.8,2.8,0,0,0,1.924,1.821c1.464.368,2.808-.7,3.989-1.413,2.85-1.716,5.732-3.371,9.06-3.919a2.015,2.015,0,0,0,1.4-2.46,2.046,2.046,0,0,0-2.46-1.4,22.97,22.97,0,0,0-7,2.581c-.939.5-1.856,1.044-2.768,1.593-.386.233-.77.467-1.159.7-.17.1-.348.191-.514.3-.586.381-.315-.162.309.08l.882.515c.262.211.122.933.233.171a3.173,3.173,0,0,0-.027-.742,4.136,4.136,0,0,0-.491-1.747,2.679,2.679,0,0,0-2.976-1.272c-1.627.446-3.13,1.929-4.3,3.073a32.216,32.216,0,0,0-3.613,4.244,12.126,12.126,0,0,0-2.02,3.769c-.67,2.489,3.187,3.551,3.857,1.064Z"/><path class="d" d="M322.466,46.786a26.641,26.641,0,0,0-12.773-6,32.639,32.639,0,0,0-13.421.709,26.5,26.5,0,0,0-10.882,5.939,25.775,25.775,0,0,0-6.965,11.428,37.457,37.457,0,0,0-1.118,15.32,2.063,2.063,0,0,0,2,2,2.013,2.013,0,0,0,2-2c-.945-7.693.1-16.515,5.487-22.5,5.1-5.664,12.888-7.744,20.3-7.2a22.418,22.418,0,0,1,12.54,5.129,2.058,2.058,0,0,0,2.828,0,2.013,2.013,0,0,0,0-2.828Z"/><path class="d" d="M312.714,99.456a30.668,30.668,0,0,0,5.164-4.779,27.112,27.112,0,0,0,2.935-4.018,2,2,0,0,0-3.454-2.019,21.325,21.325,0,0,1-1.266,1.9c-.072.1-.146.2-.217.3-.2.283.311-.395.127-.162-.313.395-.627.788-.953,1.172a29.382,29.382,0,0,1-2.107,2.243c-.372.354-.755.7-1.146,1.031q-.333.284-.673.554c-.089.071-.433.373-.065.054-.114.1-.244.183-.364.272a2.181,2.181,0,0,0-.919,1.2,2.043,2.043,0,0,0,.2,1.541,2.022,2.022,0,0,0,2.737.717Z"/><path class="d" d="M306.54,97.909a23.678,23.678,0,0,1-11.264,1.79,15.821,15.821,0,0,1-9.02-4.442c-2.522-2.431-3.685-5.816-4.184-9.215-.632-4.293-.438-8.736-.717-13.063-.164-2.556-4.165-2.575-4,0,.45,6.994-.294,14.658,3.062,21.073,3.022,5.776,9.429,9.344,15.815,9.727a27.53,27.53,0,0,0,11.371-2.013,2.056,2.056,0,0,0,1.4-2.461,2.015,2.015,0,0,0-2.46-1.4Z"/><path class="d" d="M300.444,79.976c-.269-1.336.29-4.292,2.771-4.3,3.243.345,3.054,3.967,1.792,5.552C303.973,82.527,301.285,82.84,300.444,79.976Z"/><path class="d" d="M284.4,78.838c-.233-1.312.286-4.221,2.515-4.243,2.912.32,2.721,3.883,1.577,5.449C287.556,81.327,285.14,81.65,284.4,78.838Z"/><path class="d" d="M322.778,79.3q.321-.164.049-.057a3.171,3.171,0,0,1,.367-.113c.239-.047.248-.052.027-.017.122-.009.245-.012.368-.009q.361.027,0-.021c.124.022.246.048.366.081s.244.069.363.111c-.2-.095-.2-.094-.006,0,.136.08.577.461.2.093.083.081.249.312.35.355q-.289-.387-.118-.137c.037.056.071.113.1.172.266.4-.091-.341-.024-.092.05.19.109.383.164.573q.058.336,0-.064.018.163.027.327a9.318,9.318,0,0,1-.031,1.2c-.027.236-.027.236,0,0q-.029.177-.063.354-.069.351-.162.7t-.207.67c-.037.108-.076.215-.118.321q.146-.33.008-.022a12.609,12.609,0,0,1-1.214,1.986c.3-.4-.147.16-.207.227-.116.128-.235.253-.359.374-.173.168-.352.331-.54.482.286-.231-.318.21-.38.249-.079.049-.6.275-.613.344q.5-.2.2-.084-.112.042-.225.078a7.242,7.242,0,0,1-1.117.26c.537-.085-.173,0-.279,0-.225.007-.446-.007-.67-.017.49.023-.171-.04-.29-.074s-.211-.064-.314-.1q.339.142.034-.01a2,2,0,0,0-2.019,3.454,7.387,7.387,0,0,0,5.834.306,9.747,9.747,0,0,0,4.63-3.784c1.979-2.837,3.235-7.474.849-10.433a5.679,5.679,0,0,0-7.006-1.139,2,2,0,1,0,2.019,3.454Z"/><path class="d" d="M293.357,91.284c.02-.06.043-.118.068-.176l-.2.478a2.739,2.739,0,0,1,.294-.5l-.313.405a2.473,2.473,0,0,1,.41-.408l-.4.313a2.251,2.251,0,0,1,.324-.193l-.478.2a5.067,5.067,0,0,1,1.213-.3l-.532.072a5.373,5.373,0,0,1,1.335-.009l-.532-.071a4.368,4.368,0,0,1,1.088.3l-.478-.2a4.06,4.06,0,0,1,.787.462l-.4-.313a4.038,4.038,0,0,1,.7.7l-.312-.4a1.716,1.716,0,0,1,.206.364l-.2-.478a5.137,5.137,0,0,1,.3,1.191l-.071-.532a7.193,7.193,0,0,1,0,1.86l.072-.532a6.186,6.186,0,0,1-.377,1.415l.2-.478c-.043.1-.087.2-.134.3a2.142,2.142,0,0,0-.2,1.541,2,2,0,0,0,3.656.478,8.113,8.113,0,0,0,.168-6.872,4.156,4.156,0,0,0-.895-1.142,5.4,5.4,0,0,0-1.4-.981,6.416,6.416,0,0,0-3.509-.6,5.578,5.578,0,0,0-2.507.737,4.554,4.554,0,0,0-1.729,2.3,2,2,0,0,0,1.4,2.461,2.051,2.051,0,0,0,2.46-1.4Z"/><path class="d" d="M49.369,116.007a28.021,28.021,0,0,1-2.932-1.578q-.65-.4-1.274-.84c-.214-.15-.427-.3-.637-.459-.1-.07-.189-.142-.283-.212-.392-.293.339.271-.043-.033a25.269,25.269,0,0,1-3.278-3,2.011,2.011,0,0,0-2.828,0,2.048,2.048,0,0,0,0,2.828,24.758,24.758,0,0,0,3.389,3.09,30.427,30.427,0,0,0,5.867,3.66,2.047,2.047,0,0,0,2.736-.718,2.024,2.024,0,0,0-.717-2.736Z"/><path class="d" d="M54.189,121.127A25,25,0,0,0,67,119.82a20.144,20.144,0,0,0,8.861-7.033c5.64-7.707,2.344-17.761,1.16-26.315a2.012,2.012,0,0,0-2.46-1.4,2.055,2.055,0,0,0-1.4,2.46c.57,4.118,1.557,8.231,1.847,12.38.249,3.55-.141,7.187-2.152,10.214-3.787,5.7-10.948,8.179-17.607,7.141a2.062,2.062,0,0,0-2.46,1.4,2.016,2.016,0,0,0,1.4,2.461Z"/><path class="d" d="M55.834,98.084c-.005-1.363-1.144-4.146-3.576-3.656-3.109.988-2.2,4.5-.643,5.8C52.887,101.291,55.583,101.059,55.834,98.084Z"/><path class="d" d="M71.324,93.755C71.29,92.422,70.2,89.676,68.01,90.1c-2.788.9-1.887,4.35-.453,5.655C68.731,96.825,71.163,96.658,71.324,93.755Z"/><path class="d" d="M34.992,98.075a5.724,5.724,0,0,0-6.407,2.335,6.352,6.352,0,0,0-.308,5.318,11.969,11.969,0,0,0,2.978,4.826,9.652,9.652,0,0,0,4.92,2.821,7.593,7.593,0,0,0,6.243-1.459,2.01,2.01,0,0,0,0-2.829,2.053,2.053,0,0,0-2.829,0c.256-.217.107-.072-.067.033-.078.047-.545.245-.292.16s-.185.052-.255.072c-.168.048-.339.08-.509.12-.381.09.333-.016-.051.012-.166.012-.33.026-.495.031-.281.008-.556-.011-.836-.022-.364-.015.425.093.1.018-.1-.024-.2-.039-.3-.064-.169-.044-.335-.1-.5-.158-.089-.031-.177-.065-.265-.1.187.072.118.055-.024-.017a9.048,9.048,0,0,1-.966-.552c-.062-.041-.446-.313-.254-.171s-.012-.01-.043-.036c-.077-.066-.154-.13-.23-.2a13.067,13.067,0,0,1-1.225-1.243c-.065-.074-.127-.152-.192-.226.015.016.2.286.078.1-.088-.136-.186-.265-.273-.4a9.765,9.765,0,0,1-.539-.964c-.051-.1-.1-.21-.148-.315.014.028.11.29.033.074-.059-.164-.124-.325-.18-.491-.126-.379-.2-.763-.3-1.148-.057-.226.01.1.012.131-.006-.079-.015-.157-.021-.236-.01-.152-.008-.3-.011-.457a.791.791,0,0,1,.011-.22c.035-.025-.095.361-.032.212a2.979,2.979,0,0,0,.072-.317c.013-.043.032-.088.041-.132.056-.265-.038.184-.089.2a2.018,2.018,0,0,0,.192-.347c.084-.2-.112.193-.129.152-.009-.02.16-.182.179-.2.067-.069.145-.129.211-.2-.116.122-.219.145-.023.026.075-.045.148-.092.224-.135.032-.018.361-.194.174-.1s.068-.025.093-.032c.115-.036.231-.065.346-.1s.351-.014.018-.011c.126,0,.251-.009.378-.007.029,0,.318.051.116.007-.223-.049.317.111.3.106a2.014,2.014,0,0,0,2.46-1.4,2.046,2.046,0,0,0-1.4-2.46Z"/><path class="d" d="M68.552,105.826a4.285,4.285,0,0,0-1.679-1.617,4.948,4.948,0,0,0-2.353-.465,6.741,6.741,0,0,0-3.471.971,5.028,5.028,0,0,0-2.484,5.254A8.146,8.146,0,0,0,60.016,114a2.2,2.2,0,0,0,1.2.92,2.048,2.048,0,0,0,1.541-.2,2.017,2.017,0,0,0,.919-1.2,1.939,1.939,0,0,0-.2-1.541,5.82,5.82,0,0,1-.435-.663c-.072-.129-.134-.262-.2-.394-.17-.345.18.472.018.028a7.014,7.014,0,0,1-.348-1.42l.072.532a6.073,6.073,0,0,1-.023-1.506l-.072.531c.018-.124.045-.244.072-.366.039-.171.22-.364-.148.329.041-.077.075-.159.116-.236s.086-.153.133-.226.285-.395.043-.082.011,0,.068-.062.121-.125.185-.184.135-.111.2-.171c-.436.414-.263.2-.119.1.095-.063.44-.326.556-.306-.093-.016-.51.2-.13.063.09-.032.182-.061.275-.087a5.17,5.17,0,0,1,.685-.141l-.531.071a6.556,6.556,0,0,1,1.428-.017l-.531-.071c.131.017.276.088.4.1q-.468-.21-.191-.064a1.482,1.482,0,0,1,.136.086q.188.13-.192-.147c.054.048.106.1.155.15.137.156.1.1-.109-.157a2.034,2.034,0,0,1,.114.176,2,2,0,0,0,3.453-2.019Z"/><path class="d" d="M57.071,76.7a21.523,21.523,0,0,0,7.36,6.6,49.353,49.353,0,0,0,9.262,3.469c2.49.665,3.552-3.193,1.064-3.857a44.689,44.689,0,0,1-8.1-2.961,17.17,17.17,0,0,1-6.136-5.269,2.064,2.064,0,0,0-2.736-.717,2.014,2.014,0,0,0-.718,2.736Z"/><path class="d" d="M56.647,74.626A62.01,62.01,0,0,1,34.773,94.633c-2.248,1.255-.234,4.711,2.019,3.454A66.251,66.251,0,0,0,60.1,76.645c1.4-2.166-2.057-4.174-3.454-2.019Z"/><path class="d" d="M55.834,65.3a18.056,18.056,0,0,1,11.89,5.393c3.358,3.517,5.007,8.774,5.064,13.574.031,2.572,4.031,2.579,4,0-.069-5.868-2.144-12.117-6.236-16.4A22.251,22.251,0,0,0,55.834,61.3a2,2,0,0,0,0,4Z"/><path class="d" d="M47.834,59.77a22.129,22.129,0,0,0-14.791,3.443c-4.174,2.768-6.906,6.805-9.031,11.276-2,4.207-3.668,8.569-5.613,12.8-1.722,3.748-3.524,8.012-6.416,11.031-1.706,1.781-4.384,2.884-5.019,5.493a6.154,6.154,0,0,0,3.164,6.609c2.236,1.284,4.253-2.171,2.019-3.454a2.35,2.35,0,0,1-1.309-1.648c-.1-.629.037-.748.573-1.3,1.351-1.4,3.031-2.325,4.264-3.865A50.447,50.447,0,0,0,21.71,89.62c1.7-3.682,3.223-7.444,4.862-11.154,1.783-4.037,3.83-8.176,7.351-10.98A18.574,18.574,0,0,1,47.834,63.77a2.012,2.012,0,0,0,2-2,2.049,2.049,0,0,0-2-2Z"/><path class="d" d="M37.531,117.3a10,10,0,0,1-5.835.918,16.426,16.426,0,0,1-6.125-1.693,12.61,12.61,0,0,1-4.237-3.6,6.1,6.1,0,0,1-.784-4.734,2.054,2.054,0,0,0-1.4-2.46,2.019,2.019,0,0,0-2.461,1.4,10.471,10.471,0,0,0,.94,7.423,15.392,15.392,0,0,0,5.648,5.277A21,21,0,0,0,31.53,122.2a13.649,13.649,0,0,0,8.02-1.447c2.247-1.257.232-4.714-2.019-3.454Z"/><path class="d" d="M286.559,102.991c.386,3.023,1.6,5.7,4.491,7.062a17.243,17.243,0,0,0,8.44,1.236,25.154,25.154,0,0,0,15.642-6.908c1.863-1.784-.968-4.61-2.828-2.829a20.982,20.982,0,0,1-11.628,5.622,17.661,17.661,0,0,1-6.3-.178,4.417,4.417,0,0,1-3.818-4,2.064,2.064,0,0,0-2-2,2.012,2.012,0,0,0-2,2Z"/><path class="d" d="M330.811,149.627q5.843-4.5,11.357-9.393a2.014,2.014,0,0,0,0-2.829,2.047,2.047,0,0,0-2.828,0q-2.616,2.334-5.313,4.574-1.329,1.1-2.676,2.182-.654.522-1.312,1.04l-.742.58-.33.257c-.095.074-.111.085-.046.036l-.129.1a2.056,2.056,0,0,0-.718,2.736,2.021,2.021,0,0,0,2.737.718Z"/><path class="d" d="M172.045,215.421a10.611,10.611,0,0,0-2.924-5.036c-.818-.717-1.7-1.372-2.557-2.038q-3.069-2.376-6.189-4.687-6.587-4.908-13.246-9.718-2.2-1.593-4.4-3.179a2.016,2.016,0,0,0-2.736.717,2.045,2.045,0,0,0,.717,2.737c7.4,5.322,14.786,10.671,22.032,16.2.868.662,1.6,1.227,2.472,1.917a17.641,17.641,0,0,1,1.536,1.3,6.663,6.663,0,0,1,1.437,2.851c.81,2.43,4.674,1.388,3.857-1.063Z"/><path class="d" d="M156.27,189.815l10.176,10.154q2.582,2.576,5.163,5.151a10.1,10.1,0,0,0,2.7,2.153,8.528,8.528,0,0,0,3.714.631c2.574,0,2.579-4,0-4a3.859,3.859,0,0,1-2.366-.449,20.354,20.354,0,0,1-2.34-2.276l-4.8-4.788-9.424-9.4c-1.825-1.821-4.654,1.007-2.829,2.828Z"/><path class="d" d="M140.905,233.957c1.912-5.988-3.075-11.98-6.337-16.6-2.852-4.038-5.916-7.963-8.581-12.13-1.382-2.162-4.846-.158-3.454,2.019,2.5,3.909,5.365,7.6,8.05,11.379,1.334,1.88,2.676,3.76,3.916,5.7,1.587,2.488,3.518,5.529,2.549,8.562-.784,2.458,3.076,3.51,3.857,1.063Z"/><path class="d" d="M140.887,199.96a79.429,79.429,0,0,0,2.6,14.2c.63,2.292,1.333,4.564,2.051,6.83.667,2.107,1.092,4.574,2.481,6.332a2.011,2.011,0,0,0,2.828,0,2.05,2.05,0,0,0,0-2.829,9.508,9.508,0,0,1-.821-2.585q-.523-1.64-1.041-3.282c-.617-1.975-1.216-3.955-1.756-5.952a72.727,72.727,0,0,1-2.346-12.713c-.221-2.545-4.223-2.568-4,0Z"/><path class="d" d="M154.484,244.459c-2.782-1.161-5.381-3.3-7.879-4.993l-3.323-2.246c-.24-.162-.5-.315-.723-.5a5.163,5.163,0,0,1-1.018-1.09,5.238,5.238,0,0,1-.453-.781l-.086-.186q-.182-.945-.61.468h-1.063c3.61.591,7.118,2.83,10.893,2.368a6.466,6.466,0,0,0,5.113-3.644,9.971,9.971,0,0,0,.55-4.256l-3.009,1.726q4.073,1.99,8.1,4.07c1.369.706,2.781,1.369,4.11,2.147a2.377,2.377,0,0,1,1.277,1.741c.306,2.205-2.555,3.244-4.109,4.04-2.509,1.286-5.035,2.156-7.77,1.133-2.415-.9-3.457,2.963-1.064,3.857,3.664,1.369,7.3.254,10.661-1.437,2.951-1.486,6.028-3.241,6.277-6.887a6.236,6.236,0,0,0-1.159-4.037,10.255,10.255,0,0,0-3.9-2.816q-5.166-2.7-10.4-5.264a2.024,2.024,0,0,0-3.01,1.727c0,.93.2,2.127-.358,2.932-.84,1.217-2.321,1.1-3.453.869-1.747-.35-3.465-.855-5.167-1.376-1.718-.526-3.643-1.439-5.163.055-2.7,2.653.957,6.838,3.2,8.374,1.679,1.152,3.374,2.28,5.062,3.421a43.35,43.35,0,0,0,7.418,4.439,2.012,2.012,0,0,0,2.461-1.4A2.053,2.053,0,0,0,154.484,244.459Z"/><path class="d" d="M177.72,206.105a17.179,17.179,0,0,0,1.09,2.844c.43.884.652.857-.528,1.35-2.825,1.179-5.744,2.108-8.57,3.276a3.74,3.74,0,0,0-2.471,3.333c-.061,1.506,1,2.849,1.889,3.966,2.05,2.575,4.923,4.131,8.234,3.281a30.968,30.968,0,0,0,8.523-4.11,67.671,67.671,0,0,1,8.117-4.5c2.642-1.191,5.265-2.755,6.476-5.523,1.311-3,.289-6.775-2.927-8.009a10.192,10.192,0,0,0-4.224-.387c-1.965.107-3.917.357-5.866.617a51.907,51.907,0,0,1-11.934.7,2.016,2.016,0,0,0-2,2,2.044,2.044,0,0,0,2,2c5.991.584,11.847-.989,17.8-1.314,1.741-.095,4.5-.155,3.614,2.515-.744,2.231-3.4,3.253-5.349,4.125a56.118,56.118,0,0,0-7.013,3.873,35.814,35.814,0,0,1-6.88,3.72c-1.033.369-2.158.846-3.224.379A6.821,6.821,0,0,1,171.8,217.8a6.278,6.278,0,0,0-.43-.674c-.786-.854.289,0-.191.075-.039.006-.535.123.163,0a4.321,4.321,0,0,0,.617-.23c1.3-.477,2.613-.917,3.906-1.415,1.608-.62,3.281-1.211,4.833-1.96a4.424,4.424,0,0,0,2.309-2.68c.638-2.172-.875-3.878-1.43-5.878-.688-2.476-4.548-1.425-3.857,1.064Z"/><path class="d" d="M133.717,143.547a28.252,28.252,0,0,0,4,.11,2.1,2.1,0,0,0,1.414-.585,2,2,0,0,0-1.414-3.415,28.252,28.252,0,0,1-4-.11,2.006,2.006,0,0,0-1.414.586,2,2,0,0,0,0,2.828l.405.313a1.987,1.987,0,0,0,1.009.273Z"/></svg>