<?xml version="1.0" encoding="iso-8859-1"?>
<!-- Uploaded to: SVG Repo, www.svgrepo.com, Generator: SVG Repo Mixer Tools -->
<svg version="1.1" id="Layer_1" xmlns="http://www.w3.org/2000/svg" xmlns:xlink="http://www.w3.org/1999/xlink" 
	 viewBox="0 0 511.999 511.999" xml:space="preserve">
<path style="fill:#0084FF;" d="M425.253,453.719c0,26.417-21.415,47.832-47.833,47.832H134.578
	c-26.417,0-47.832-21.415-47.832-47.832V58.279c0-26.417,21.415-47.832,47.832-47.832H377.42c26.418,0,47.833,21.415,47.833,47.832
	V453.719z"/>
<polygon style="fill:#F3437F;" points="239.041,332.638 204.467,332.638 204.467,298.065 161.631,298.065 161.631,332.638 
	127.067,332.638 127.067,375.474 161.631,375.474 161.631,410.038 204.467,410.038 204.467,375.474 239.041,375.474 "/>
<rect x="127.932" y="68.265" style="fill:#FFFFFF;" width="257.014" height="165.074"/>
<circle style="fill:#FFD41D;" cx="302.65" cy="388.54" r="21.294"/>
<rect x="348.714" y="370.79" style="fill:#FF1A1A;" width="35.498" height="35.5"/>
<polygon style="fill:#1EB615;" points="302.649,344.23 335.872,286.683 369.098,344.23 "/>
<path d="M377.42,0H134.578c-32.135,0-58.279,26.144-58.279,58.279v395.44c0,32.135,26.144,58.279,58.279,58.279H377.42
	c32.136,0,58.281-26.144,58.281-58.279V58.279C435.7,26.144,409.556,0,377.42,0z M414.805,453.719
	c0,20.613-16.771,37.384-37.385,37.384H134.578c-20.613,0-37.384-16.771-37.384-37.384V58.279c0-20.613,16.771-37.384,37.384-37.384
	H377.42c20.614,0,37.385,16.771,37.385,37.384V453.719z"/>
<path d="M384.941,57.815H127.928c-5.77,0-10.448,4.677-10.448,10.448v165.074c0,5.77,4.677,10.448,10.448,10.448h257.013
	c5.77,0,10.448-4.677,10.448-10.448V68.262C395.389,62.492,390.711,57.815,384.941,57.815z M138.376,222.889v-99.252h91.816
	c5.77,0,10.448-4.677,10.448-10.448s-4.677-10.448-10.448-10.448h-91.816V78.71h236.117v99.252h-92.465
	c-5.77,0-10.448,4.677-10.448,10.448c0,5.77,4.677,10.448,10.448,10.448h92.465v24.031H138.376z"/>
<path d="M274.684,113.231c0.024-5.77-4.635-10.468-10.404-10.492l-0.244-0.001c-0.016,0-0.029,0-0.045,0
	c-5.749,0-10.423,4.649-10.447,10.404c-0.024,5.77,4.635,10.468,10.404,10.492l0.244,0.001c0.016,0,0.029,0,0.045,0
	C269.987,123.635,274.66,118.987,274.684,113.231z"/>
<path d="M248.271,177.963l-0.244-0.001c-0.016,0-0.029,0-0.045,0c-5.749,0-10.423,4.649-10.447,10.404
	c-0.024,5.77,4.635,10.468,10.404,10.492l0.244,0.001c0.016,0,0.029,0,0.045,0c5.749,0,10.423-4.649,10.447-10.404
	C258.699,182.685,254.042,177.987,248.271,177.963z"/>
<path d="M302.649,356.798c-17.502,0-31.742,14.239-31.742,31.741c0,17.503,14.239,31.743,31.742,31.743
	c17.502,0,31.741-14.24,31.741-31.743C334.39,371.037,320.151,356.798,302.649,356.798z M302.649,399.387
	c-5.981,0-10.847-4.867-10.847-10.848c0-5.98,4.866-10.846,10.847-10.846c5.98,0,10.846,4.866,10.846,10.846
	C313.494,394.521,308.629,399.387,302.649,399.387z"/>
<path d="M384.216,360.342h-35.498c-5.77,0-10.448,4.677-10.448,10.448v35.5c0,5.77,4.677,10.448,10.448,10.448h35.498
	c5.77,0,10.448-4.677,10.448-10.448v-35.5C394.664,365.019,389.986,360.342,384.216,360.342z M373.768,395.842h-14.603v-14.605
	h14.603V395.842z"/>
<path d="M302.649,354.678h66.451c0.007,0,0.014,0,0.021,0c5.77,0,10.448-4.677,10.448-10.448c0-2.13-0.637-4.112-1.732-5.764
	l-32.913-57.007c-1.866-3.233-5.315-5.224-9.048-5.224s-7.182,1.991-9.048,5.224l-33.225,57.547c-1.867,3.233-1.867,7.215,0,10.448
	C295.467,352.688,298.916,354.678,302.649,354.678z M335.872,307.579l15.129,26.204h-30.258L335.872,307.579z"/>
<path d="M239.041,322.19h-24.126v-24.125c0-5.77-4.677-10.448-10.448-10.448h-42.836c-5.77,0-10.448,4.677-10.448,10.448v24.125
	h-24.116c-5.77,0-10.448,4.677-10.448,10.448v42.837c0,5.77,4.677,10.448,10.448,10.448h24.116v24.115
	c0,5.77,4.677,10.448,10.448,10.448h42.836c5.77,0,10.448-4.677,10.448-10.448v-24.115h24.126c5.77,0,10.448-4.677,10.448-10.448
	v-42.837C249.488,326.867,244.811,322.19,239.041,322.19z M228.593,365.027h-24.126c-5.77,0-10.448,4.677-10.448,10.448v24.115
	h-21.94v-24.115c0-5.77-4.677-10.448-10.448-10.448h-24.116v-21.941h24.116c5.77,0,10.448-4.677,10.448-10.448v-24.125h21.94v24.125
	c0,5.77,4.677,10.448,10.448,10.448h24.126L228.593,365.027L228.593,365.027z"/>
</svg>