<?xml version="1.0" encoding="utf-8"?>
<!-- Uploaded to: SVG Repo, www.svgrepo.com, Generator: SVG Repo Mixer Tools -->
<svg width="800px" height="800px" viewBox="0 -81.05 478.169 478.169" xmlns="http://www.w3.org/2000/svg"><defs><style>.a{fill:#ffffff;}.b{fill:#211715;}.c{fill:#85807f;}</style></defs><path class="a" d="M122.314,43.769c-1.666,4.111-4,8.833-6.125,12.861,1.375.708,11.737,4.917,14.57,5.639,1.722-4.389,3.514-8.577,4.884-12.9C133.377,48.526,126.957,45.528,122.314,43.769Z"/><path class="a" d="M360.759,46.547c-3.722,3.555-8.278,7.777-11.278,10.916,3.167,3,6.445,6.139,9.375,8.792,3.347-3.431,7.458-7.153,10.792-10.875C368.205,53.861,363.509,49.3,360.759,46.547Z"/><path class="a" d="M342.148,15.158c-4.778-4.389-9.889-9-14.5-12.778-4.667,4.75-8.778,9.611-12.945,14.333,2.846,2.718,9.778,9.084,14.361,12.667C332.564,25.63,339.481,18.324,342.148,15.158Z"/><path class="b" d="M120,43.131c-1.714,4.2-3.769,8.273-5.883,12.288a2.432,2.432,0,0,0,.861,3.283c2.31,1.17,4.8,2.062,7.2,3.014a70.187,70.187,0,0,0,7.939,2.867,2.47,2.47,0,0,0,2.952-1.676c1.683-4.28,3.483-8.518,4.884-12.9a2.454,2.454,0,0,0-1.676-2.953c-1.711-.644-3.384-1.424-5.471-2.331-2.6-1.131-5.207-2.257-7.858-3.268A2.42,2.42,0,0,0,120,43.131a2.454,2.454,0,0,0,1.676,2.952c4.5,1.715,8.806,3.9,13.329,5.6l-1.676-2.952c-1.4,4.383-3.2,8.621-4.884,12.9l2.952-1.677a68.308,68.308,0,0,1-7.724-2.782q-2.1-.826-4.176-1.69l-.5-.208c.236.1.338.145.041.017-.241-.1-.481-.206-.721-.311-.309-.135-.618-.27-.919-.422l.861,3.283c2.31-4.387,4.494-8.842,6.367-13.434a2.417,2.417,0,0,0-1.677-2.953A2.461,2.461,0,0,0,120,43.131Z"/><path class="b" d="M359.062,44.849c-3.783,3.611-7.656,7.142-11.278,10.917a2.435,2.435,0,0,0,0,3.394c3.11,2.947,6.2,5.914,9.375,8.792a2.443,2.443,0,0,0,3.394,0c3.573-3.65,7.372-7.077,10.792-10.875a2.453,2.453,0,0,0,0-3.394c-2.883-3.021-5.935-5.883-8.889-8.834-2.188-2.185-5.584,1.208-3.394,3.4,2.954,2.95,6.006,5.812,8.889,8.833V53.683c-3.42,3.8-7.219,7.225-10.792,10.875h3.394c-3.173-2.878-6.265-5.845-9.375-8.792V59.16c3.622-3.775,7.5-7.3,11.278-10.916C364.7,46.106,361.3,42.716,359.062,44.849Z"/><path class="b" d="M343.845,13.461C339.1,9.1,334.324,4.773,329.345.683a2.455,2.455,0,0,0-3.394,0c-4.507,4.6-8.687,9.5-12.945,14.333a2.444,2.444,0,0,0,0,3.394c4.611,4.4,9.349,8.73,14.361,12.667a2.455,2.455,0,0,0,3.395,0c4.391-4.7,8.926-9.308,13.083-14.222a2.465,2.465,0,0,0,0-3.394,2.419,2.419,0,0,0-3.394,0c-4.157,4.914-8.692,9.519-13.084,14.222h3.395c-5.013-3.937-9.751-8.27-14.362-12.667V18.41c4.258-4.83,8.438-9.73,12.945-14.333h-3.394c4.979,4.09,9.755,8.421,14.5,12.778C342.723,18.941,346.126,15.555,343.845,13.461Z"/><path class="a" d="M21.2,104.426c8.153,5.037,12.825,7.91,21.316,9.911,1.116.263,8.279,6.7,9.194,7.773,0,0,.415.484,1.075,1.261,6.316-7.732,13.154-15.622,20.163-23.051q-1.587-1.726-3.123-3.5c-.593-3.831-1.91-8.91-2.8-12.66-1.2-5.046-2.438-10.179-5.086-14.638-1.952-3.287-4.771-6.453-8.556-5.914a3.394,3.394,0,0,0-1.77,1.092,3.725,3.725,0,0,0-.749,3.174c.822,3.66,1.388,5.561,2.292,8.891l-3.2-2.973c-5.067-4.7-15.418-13.277-20.485-17.98a15.146,15.146,0,0,0-4.17-2.82,5.7,5.7,0,0,0-5.129-.044,5.119,5.119,0,0,0-2.246,5.025,13.937,13.937,0,0,0,1.284,3.386l.477.76q-1.526-1.371-3-2.712c-1.948-1.766-3.879-3.04-6.386-2.605a4.783,4.783,0,0,0-3.808,4.972c.179,2.244,1.553,4.046,3.169,5.614.81.786,1.686,1.616,2.612,2.479a13.294,13.294,0,0,0-4.332-2.5A4.643,4.643,0,0,0,2.8,69.5a5.731,5.731,0,0,0,.374,5.127,19.132,19.132,0,0,0,3.39,4.264c1.784,1.713,4.056,3.756,6.52,5.869a12.279,12.279,0,0,0-5-1.453c-2.21-.087-3.64,1-4.051,2.275a5.633,5.633,0,0,0,.823,5.157A37.94,37.94,0,0,0,10.4,96.5a92.025,92.025,0,0,0,10.8,7.926"/><path class="b" d="M55.957,83.911a59.944,59.944,0,0,0-.2-6.443A59.078,59.078,0,0,0,54.2,71.433q-.4-1.53-.758-3.069c-.182-.776-.517-1.574.115-2.227.278-.287.22-.156.373-.178A2.891,2.891,0,0,1,55,66.042a4.912,4.912,0,0,1,2.059,1.129c3.351,2.9,4.984,7.67,6.167,11.794,1.3,4.538,2.358,9.185,3.377,13.794.277,1.255.539,2.513.76,3.78a3.809,3.809,0,0,0,.769,1.979c.506.619,1.055,1.209,1.588,1.8q3.044,3.41,6.279,6.64c2.184,2.19,5.579-1.2,3.394-3.394q-4.077-4.088-7.867-8.445l.617,1.059c-.7-4.416-1.868-8.748-2.906-13.093-1.131-4.732-2.355-9.5-4.679-13.812-1.981-3.675-4.994-7.521-9.417-8.056a5.785,5.785,0,0,0-5.72,2.442c-1.5,2.251-.958,4.568-.367,7.009.543,2.239,1.179,4.452,1.774,6.677.571,2.136.238,4.374.33,6.561.129,3.077,4.93,3.094,4.8,0Z"/><path class="b" d="M22.414,102.354a86.714,86.714,0,0,1-13.35-10.41,14.122,14.122,0,0,1-2.35-2.765,3.7,3.7,0,0,1-.366-2.961c-.07.393.15-.125-.085.108.056-.056.522-.47.227-.255a1.64,1.64,0,0,1,.924-.356,8.02,8.02,0,0,1,3.955.858A2.416,2.416,0,0,0,14.321,84.9a2.46,2.46,0,0,0-1.676-2.952c-3.091-1.266-7.3-1.78-9.776.988-2.594,2.9-1.542,7.193.617,9.972a44.8,44.8,0,0,0,7.792,7.46c2.8,2.194,5.757,4.159,8.713,6.135a2.4,2.4,0,1,0,2.423-4.145Z"/><path class="b" d="M12.381,66.968c-2.775-2.059-6.373-2.983-9.46-1-3.518,2.257-3.6,6.9-1.614,10.228,1.751,2.932,4.363,5.208,6.88,7.462q3.888,3.481,7.948,6.768c2.98,2.422,6.012,4.791,9.153,7a2.422,2.422,0,0,0,3.284-.861,2.452,2.452,0,0,0-.861-3.284A177.612,177.612,0,0,1,11.177,79.9c-1.189-1.071-2.4-2.141-3.507-3.293-1.162-1.2-2.665-2.814-2.893-4.548a1.9,1.9,0,0,1,1.631-2.4c1.2-.215,2.546.714,3.55,1.459a2.417,2.417,0,0,0,3.284-.861,2.457,2.457,0,0,0-.861-3.284Z"/><path class="b" d="M38.621,75.679Q31.9,69.837,25.256,63.9q-3.282-2.933-6.546-5.888c-2-1.806-4.127-3.429-6.9-3.669a7.174,7.174,0,0,0-6.609,3.3,7.691,7.691,0,0,0-.19,7.565c1.053,2.23,2.966,3.919,4.73,5.58q2.729,2.568,5.534,5.053,6.525,5.81,13.31,11.323a2.473,2.473,0,0,0,3.394,0,2.419,2.419,0,0,0,0-3.4c-6.919-5.606-13.711-11.429-20.133-17.6-1.281-1.231-2.828-2.671-2.964-4.563a2.373,2.373,0,0,1,2.562-2.482c1.9.146,3.392,1.851,4.715,3.047Q19,64.739,21.862,67.3,28.5,73.229,35.226,79.073c2.323,2.017,5.732-1.364,3.4-3.394Z"/><path class="b" d="M51.649,72.1c-4.826-4.468-9.9-8.668-14.864-12.981-2.431-2.112-4.742-4.455-7.307-6.4-3.152-2.39-7.794-4.081-11.261-1.3A7.654,7.654,0,0,0,15.448,56.9a11.2,11.2,0,0,0,1.686,5.673c1.547,2.673,5.7.259,4.144-2.423-.707-1.222-1.378-2.756-.785-4.058.635-1.392,2.04-1.558,3.4-1.084,3.131,1.094,5.61,4.1,8.052,6.24C37.372,66,42.959,70.587,48.255,75.49c2.265,2.1,5.667-1.29,3.394-3.394Z"/><path class="b" d="M38.806,75.519c-5.787,5.55-10.235,12.288-14.6,18.961A2.4,2.4,0,0,0,28.346,96.9C32.5,90.557,36.7,84.192,42.2,78.913c2.233-2.143-1.164-5.534-3.4-3.394Z"/><path class="a" d="M456.938,104.426c-8.153,5.037-12.825,7.91-21.316,9.911-1.117.263-8.279,6.7-9.195,7.773,0,0-.414.484-1.074,1.261-6.317-7.732-13.155-15.622-20.164-23.051q1.588-1.726,3.123-3.5c.593-3.831,1.911-8.91,2.8-12.66,1.2-5.046,2.438-10.179,5.085-14.638,1.952-3.287,4.771-6.453,8.556-5.914a3.386,3.386,0,0,1,1.77,1.092,3.725,3.725,0,0,1,.749,3.174c-.822,3.66-1.387,5.561-2.292,8.891l3.2-2.973c5.067-4.7,15.419-13.277,20.486-17.98a15.131,15.131,0,0,1,4.17-2.82,5.7,5.7,0,0,1,5.129-.044,5.119,5.119,0,0,1,2.245,5.025,13.9,13.9,0,0,1-1.284,3.386l-.476.76q1.524-1.371,3-2.712c1.947-1.766,3.878-3.04,6.385-2.605a4.784,4.784,0,0,1,3.809,4.972c-.18,2.244-1.554,4.046-3.17,5.614-.81.786-1.686,1.616-2.612,2.479a13.305,13.305,0,0,1,4.332-2.5,4.645,4.645,0,0,1,5.138,2.132,5.731,5.731,0,0,1-.375,5.127,19.076,19.076,0,0,1-3.39,4.264c-1.784,1.713-4.056,3.756-6.519,5.869a12.274,12.274,0,0,1,5-1.453c2.21-.087,3.64,1,4.052,2.275a5.633,5.633,0,0,1-.823,5.157,37.94,37.94,0,0,1-5.547,5.763,92.108,92.108,0,0,1-10.8,7.926"/><path class="b" d="M426.984,83.911a46.448,46.448,0,0,1,.108-5.661c.339-2.041,1.105-4.069,1.62-6.075.541-2.1,1.46-4.53.845-6.7a5.776,5.776,0,0,0-4.982-4.283c-4.449-.419-7.865,3.029-10.057,6.489-2.63,4.149-4.033,8.949-5.195,13.679-1.206,4.909-2.531,9.831-3.325,14.826l.617-1.059q-3.786,4.358-7.867,8.445c-2.184,2.189,1.209,5.585,3.395,3.394q2.887-2.895,5.636-5.925a20.4,20.4,0,0,0,2.606-3.006,11.911,11.911,0,0,0,.763-3.44c.933-4.586,2.06-9.161,3.239-13.69,1.133-4.35,2.546-9.1,5.554-12.566,1.019-1.174,2.418-2.5,4.1-2.386.368.024.715.132.893.8.231.868-.354,2.18-.565,3.037-.579,2.349-1.365,4.665-1.871,7.029-.5,2.338-.21,4.73-.309,7.1-.13,3.089,4.67,3.082,4.8,0Z"/><path class="b" d="M458.149,106.5c2.9-1.942,5.815-3.87,8.571-6.023a45.318,45.318,0,0,0,7.935-7.572c2.139-2.754,3.193-6.97.686-9.883-2.459-2.857-6.712-2.361-9.845-1.077a2.477,2.477,0,0,0-1.677,2.952,2.417,2.417,0,0,0,2.953,1.677,8.182,8.182,0,0,1,3.955-.858,1.655,1.655,0,0,1,.923.356c-.285-.206.212.24.228.255-.267-.262.021.342-.085-.108a3.466,3.466,0,0,1-.271,2.79,13.689,13.689,0,0,1-2.445,2.936,86.762,86.762,0,0,1-13.35,10.41,2.456,2.456,0,0,0-.861,3.284,2.424,2.424,0,0,0,3.283.861Z"/><path class="b" d="M468.182,71.113c1-.744,2.354-1.673,3.551-1.459a1.907,1.907,0,0,1,1.631,2.4c-.228,1.741-1.725,3.338-2.893,4.548-1.113,1.151-2.318,2.221-3.508,3.293A177.468,177.468,0,0,1,450.43,93.28a2.464,2.464,0,0,0-.861,3.284,2.42,2.42,0,0,0,3.284.861,188.768,188.768,0,0,0,16.133-12.91,46.385,46.385,0,0,0,7.031-7.1c2.206-3.014,3.334-7.651.309-10.584-3.065-2.972-7.408-2.2-10.567.14a2.475,2.475,0,0,0-.861,3.284,2.418,2.418,0,0,0,3.284.861Z"/><path class="b" d="M442.914,79.073q5.921-5.143,11.775-10.36,2.89-2.574,5.765-5.164c1.55-1.4,3.157-3.346,5.126-4.163a2.556,2.556,0,0,1,3.559,1.3c.592,1.609-.759,3.347-1.792,4.439-2.929,3.095-6.244,5.891-9.439,8.7q-5.774,5.082-11.744,9.936a2.417,2.417,0,0,0,0,3.4,2.457,2.457,0,0,0,3.394,0q5.978-4.844,11.744-9.936,2.895-2.548,5.73-5.161a39.224,39.224,0,0,0,5.1-5.222,8.562,8.562,0,0,0,1.635-7.4,7.2,7.2,0,0,0-5.287-4.955A9.079,9.079,0,0,0,461,56.672c-2.222,1.748-4.254,3.773-6.359,5.66q-7.509,6.73-15.118,13.347c-2.336,2.029,1.071,5.412,3.394,3.394Z"/><path class="b" d="M429.885,75.49c5.3-4.9,10.883-9.49,16.312-14.244,2.424-2.121,4.87-5.078,7.955-6.21,1.379-.506,2.843-.376,3.5,1.054.594,1.3-.078,2.836-.785,4.058-1.55,2.679,2.6,5.1,4.145,2.423,1.847-3.192,2.4-6.97.014-10.036-2.818-3.616-7.641-2.856-11.114-.69-2.746,1.713-5.061,4.223-7.491,6.346-2.64,2.306-5.3,4.585-7.956,6.875-2.682,2.313-5.37,4.624-7.969,7.03-2.272,2.1,1.129,5.492,3.394,3.394Z"/><path class="b" d="M435.94,78.913c5.5,5.279,9.7,11.644,13.855,17.99a2.454,2.454,0,0,0,3.283.861,2.426,2.426,0,0,0,.861-3.284c-4.37-6.673-8.818-13.411-14.605-18.961-2.23-2.139-5.629,1.25-3.394,3.394Z"/><path class="a" d="M170.648,313.753c0-23.219.2-58.81-.03-64.58-.2-5.06-.79-11.72-4.53-16.25a150.456,150.456,0,0,0-11.954-12.815C125.468,195.645,64.3,142.969,50.671,125.979c7.592-9.42,16.025-19.186,24.666-28.161a1.025,1.025,0,0,1,1.322-.105c17.891,13.52,75.622,58.972,89.548,67.471,4.761,2.906,21.19,8.911,25.28,10.022,1.28.347,2.858.775,4.473,1.215l7.9,3.083c5.147,9,19.861,18.079,35.028,18.21,18.154.157,30.727-10.967,35.71-17.671,0,0,.143-.193.342-.455l.637-1.354c2.843-.793,7.888-2.163,11.076-3.028,4.09-1.111,20.519-7.116,25.28-10.022,13.926-8.5,71.657-53.951,89.548-67.471a1.026,1.026,0,0,1,1.323.105c8.64,8.975,17.074,18.741,24.666,28.161-13.629,16.99-74.8,69.666-103.463,94.129a150.47,150.47,0,0,0-11.955,12.815c-3.74,4.53-4.33,11.19-4.53,16.25-.23,5.77-.03,41.361-.03,64.58Z"/><path class="b" d="M455.727,102.354c-3.449,2.13-6.891,4.3-10.532,6.094a42.914,42.914,0,0,1-4.8,2.015c-1.787.623-3.657.971-5.444,1.569-2.077.7-3.868,2.607-5.488,4.009a48.146,48.146,0,0,0-4.734,4.372c-2.036,2.31,1.347,5.717,3.394,3.394a46.917,46.917,0,0,1,4.522-4.188q.825-.719,1.666-1.418.293-.243.588-.482c.066-.054.8-.633.41-.332.323-.247.676-.461,1-.711.431-.337.281.1-.109-.006.238.066.846-.209,1.1-.274,7.62-1.933,14.219-5.8,20.848-9.9,2.624-1.621.216-5.774-2.422-4.145Z"/><path class="a" d="M285.016,103q-.2.167-.4.352s3.6-35.638-45.73-35.638-45.067,35.638-45.067,35.638a7.1,7.1,0,0,0-5.131-1.879,6.586,6.586,0,0,0-5.916,3.287c-2.01,3.486-1.925,9.91-.576,13.885.956,2.815,2.521,7.121,6.295,10.209a7.67,7.67,0,0,0,6.526,1.634A53.976,53.976,0,0,0,205.26,149.81c5.081,6.081,10.47,10.286,16.681,12.406a59.665,59.665,0,0,1-2.24,8.47c-1.944,4.118-7.911,7.422-15.882,8.747,5.109,9.021,19.861,18.15,35.069,18.281,18.154.157,30.727-10.967,35.71-17.671,0,0,.191-.258.451-.6-8-1.318-14-4.629-15.958-8.758-.66-1.4-1.371-5.1-2.16-8.578,12.381-3.9,22.628-21.36,24.329-25.978a46.024,46.024,0,0,0,2.076-5.633l.578.1a7.821,7.821,0,0,0,6.032-1.741c3.774-3.088,5.339-7.394,6.295-10.209,1.349-3.975,1.434-10.4-.576-13.885a6.587,6.587,0,0,0-5.916-3.287A7.191,7.191,0,0,0,285.016,103Z"/><path class="c" d="M232.2,31.376a60.636,60.636,0,0,1,6.892-.387,53.775,53.775,0,0,1,32.653,10.526c10.457,7.549,21.28,20.888,22.187,42.364a57.979,57.979,0,0,1-2.161,17.889,8.787,8.787,0,0,0-2.019-.3,7.1,7.1,0,0,0-5.131,1.879l-7.2-5.706c-2.325-5.85-7.575-12.314-13.05-17.025a29.137,29.137,0,0,0-8.309-5.226s-4.558-.818-8.92-1.151l-.1.043c-6.084,2.564-14.663,7.947-19.477,10.622a1.648,1.648,0,0,1-2.349-1.769,8.675,8.675,0,0,0-.207-3.165c-.321-1.321-1.336-1.882-2.127-1.467-6.745,3.537-16.356,12.683-21.8,18.751l-7.256,6.093a7.1,7.1,0,0,0-5.131-1.879,8.5,8.5,0,0,0-2.213.354,59.886,59.886,0,0,1-2.224-17.948,54.393,54.393,0,0,1,22.458-42.558A52.132,52.132,0,0,1,232.2,31.376Z"/><path class="b" d="M195.518,101.655a10.128,10.128,0,0,0-11.15-1.562,9.75,9.75,0,0,0-4.938,6.693c-1.664,6.6.029,14.19,3.823,19.783,2.783,4.1,6.763,7.033,11.91,6.34a2.414,2.414,0,0,0,1.676-2.952,2.464,2.464,0,0,0-2.952-1.676c-3.493.47-6.2-3.35-7.609-6a21.725,21.725,0,0,1-2.6-8.533c-.185-2.658.009-6.363,1.482-8.28-.169.22.325-.349.381-.407a1.59,1.59,0,0,1,.5-.41,4.7,4.7,0,0,1,1.737-.68,5.023,5.023,0,0,1,4.348,1.079c2.289,2.063,5.694-1.321,3.394-3.394Z"/><path class="b" d="M286.315,105.049a5.071,5.071,0,0,1,7.029.5c-.343-.421.111.191.167.283a7,7,0,0,1,.369.664,10.5,10.5,0,0,1,.652,2.238,18.746,18.746,0,0,1,.228,5.012,21.674,21.674,0,0,1-2.518,8.378c-1.405,2.7-4.138,6.634-7.69,6.156a2.483,2.483,0,0,0-2.952,1.676,2.417,2.417,0,0,0,1.676,2.952c8.353,1.124,13.212-7.015,15.375-13.921a23.992,23.992,0,0,0,.635-10.835,10.907,10.907,0,0,0-4.241-7.5,10.034,10.034,0,0,0-12.124,1c-2.3,2.072,1.1,5.458,3.394,3.394Z"/><path class="b" d="M281.878,126.526a56.559,56.559,0,0,1-3.086,9.361s.2-.438-.007.009c-.091.194-.178.39-.27.584-.213.45-.438.9-.67,1.336-.573,1.095-1.19,2.168-1.833,3.223a56.514,56.514,0,0,1-12.152,14.45,22.41,22.41,0,0,1-9.038,4.7c-3.008.7-1.735,5.325,1.276,4.628,6.952-1.607,12.733-6.7,17.259-11.984a61.41,61.41,0,0,0,9.573-14.514q.214-.483.414-.971c.063-.153.35-.823.075-.191.381-.876.754-1.753,1.089-2.648a44.933,44.933,0,0,0,2-6.707,2.459,2.459,0,0,0-1.676-2.952,2.424,2.424,0,0,0-2.952,1.676Z"/><path class="b" d="M191.8,127.641a57.018,57.018,0,0,0,8.006,18.849c4.112,6.191,9.518,11.989,16.064,15.633a31.836,31.836,0,0,0,10.807,3.694,2.48,2.48,0,0,0,2.953-1.677,2.419,2.419,0,0,0-1.677-2.952c-13.4-1.984-23.41-13.56-28.525-25.462a53.827,53.827,0,0,1-3-9.361c-.683-3.011-5.312-1.737-4.629,1.276Z"/><path class="b" d="M270.584,37.815a58.906,58.906,0,0,0-54.967-4.433,57.3,57.3,0,0,0-30.891,34.144,60.8,60.8,0,0,0-.782,34.119c.766,2.991,5.4,1.723,4.629-1.276a56.211,56.211,0,0,1-.134-28.475A50.769,50.769,0,0,1,198.7,52.1a51.289,51.289,0,0,1,41.962-18.694,52.452,52.452,0,0,1,27.5,8.551c2.6,1.687,5.007-2.467,2.423-4.145Z"/><path class="b" d="M294.268,101.645a66.276,66.276,0,0,0,2.1-14.11,63.248,63.248,0,0,0-1.28-14,54.763,54.763,0,0,0-9.279-21.343,56.479,56.479,0,0,0-7.674-8.578c-2.282-2.073-5.687,1.311-3.394,3.394,10.943,9.939,16.666,23.9,16.839,38.62a58.781,58.781,0,0,1-1.938,14.743c-.734,3,3.893,4.28,4.629,1.276Z"/><path class="b" d="M254.847,77.468A36.494,36.494,0,0,1,266.557,86,40.134,40.134,0,0,1,275.1,98.284a2.476,2.476,0,0,0,2.952,1.677,2.417,2.417,0,0,0,1.677-2.953A45.934,45.934,0,0,0,270.22,82.89a40.313,40.313,0,0,0-12.95-9.567,2.478,2.478,0,0,0-3.284.861,2.418,2.418,0,0,0,.861,3.284Z"/><path class="b" d="M202.774,98.956c5.408-6.007,11.391-11.9,18.11-16.435.71-.479,1.432-.94,2.173-1.37a3.266,3.266,0,0,0,.521-.3c.2-.185.177-.053.158-.123a7.062,7.062,0,0,1-1.009-.19c-.1.077.043.135.015.3a9.14,9.14,0,0,0,.131,1.226c0,.469-.087.939-.068,1.407a4.249,4.249,0,0,0,1.882,3.379c2.021,1.31,3.927.227,5.745-.818,1.691-.972,3.37-1.964,5.056-2.943a116.889,116.889,0,0,1,12.761-6.737,2.415,2.415,0,0,0,.861-3.284,2.464,2.464,0,0,0-3.284-.861,107.535,107.535,0,0,0-11.414,5.957c-1.762,1.016-3.515,2.048-5.273,3.07q-1.149.667-2.3,1.323a4.382,4.382,0,0,0-.486.271c.012-.26.992.052,1.03.058.114.019.089.331.233.246.1-.061.055-.78.057-.885.039-2.225-.515-4.821-2.672-5.9-2.058-1.024-4.01.382-5.706,1.471a79.681,79.681,0,0,0-10.086,7.932,132.037,132.037,0,0,0-9.825,9.8c-2.062,2.29,1.322,5.7,3.394,3.394Z"/><path class="b" d="M272.867,178.376q-.23.307-.46.614c-.4.534.307-.379-.125.161-.226.282-.454.563-.687.84q-.926,1.095-1.926,2.124a45.763,45.763,0,0,1-4.516,4.074,43.408,43.408,0,0,1-12.435,6.839,41.893,41.893,0,0,1-34.41-3.455c-4.847-2.739-9.538-6.4-12.376-11.28-1.553-2.669-5.7-.255-4.144,2.423,2.856,4.908,7.326,8.785,12.079,11.794a48.971,48.971,0,0,0,18.474,7.028,46.209,46.209,0,0,0,34.274-8.479,49.48,49.48,0,0,0,10.4-10.26,2.415,2.415,0,0,0-.861-3.284,2.46,2.46,0,0,0-3.284.861Z"/><path class="b" d="M275.3,180.8c5.831-1.638,11.721-3.05,17.438-5.061a171.581,171.581,0,0,0,18.04-7.225,65.089,65.089,0,0,0,8.824-5.582c4.08-2.868,8.1-5.825,12.1-8.8,10.371-7.707,20.627-15.567,30.868-23.446,9.934-7.642,19.811-15.3,29.6-22.843q2.855-2.2,5.714-4.394,1.212-.928,2.426-1.854a19.193,19.193,0,0,0,2.139-1.625c.04-.041.213-.124.245-.186l-1.257.072.328.342a12.845,12.845,0,0,0,1.309,1.374q1.392,1.472,2.768,2.957,2.6,2.808,5.145,5.668,5.14,5.772,10.077,11.721,2.377,2.862,4.711,5.758v-3.4a133.42,133.42,0,0,1-9.766,10.535c-4.906,4.907-9.95,9.675-15.034,14.4-12.526,11.636-25.321,22.982-38.183,34.246Q344.8,199.22,326.6,214.747a121.625,121.625,0,0,0-8.99,8.346q-2.94,3.075-5.715,6.3a24.914,24.914,0,0,0-4.247,6.229c-2.7,6.22-2.576,13.189-2.614,19.851-.1,17.275.034,34.553.055,51.829q0,3.224,0,6.447c0,3.089,4.8,3.094,4.8,0,0-17.785-.109-35.569-.076-53.354.01-5.448-.243-11.068.514-16.478a22.627,22.627,0,0,1,1.857-6.74,27.679,27.679,0,0,1,4.485-5.98,106.2,106.2,0,0,1,10.477-10.629q17.469-14.919,34.791-30.007c12.946-11.3,25.826-22.675,38.475-34.3,9.228-8.484,18.67-16.98,26.936-26.427.619-.708,1.227-1.425,1.816-2.157a2.5,2.5,0,0,0,0-3.4c-6.494-8.05-13.221-15.915-20.258-23.5q-1.3-1.4-2.607-2.779c-.9-.945-1.815-2.25-3.091-2.677-1.693-.568-2.888.268-4.152,1.228q-2.462,1.871-4.913,3.755c-9.464,7.265-18.855,14.559-28.275,21.822-10.625,8.193-21.263,16.37-32,24.422-7.382,5.539-14.737,11.275-22.561,16.188-4.674,2.935-9.981,4.724-15.131,6.651-5.75,2.151-11.524,3.857-17.443,5.475q-2.358.645-4.714,1.3c-2.969.834-1.708,5.467,1.276,4.629Z"/><path class="b" d="M204.5,181.741c5.093-.872,10.335-2.6,14.289-6.05a12.2,12.2,0,0,0,3.482-4.99,62.2,62.2,0,0,0,1.985-7.847,2.454,2.454,0,0,0-1.676-2.952,2.426,2.426,0,0,0-2.952,1.676c-.558,2.493-1.048,5.036-1.854,7.464-.062.187-.132.371-.2.557-.179.513.232-.408-.027.04-.221.381-.436.752-.676,1.122-.27.418.265-.28-.1.134-.134.151-.261.306-.4.454a12.906,12.906,0,0,1-.981.948c-.058.05-.528.442-.351.3.153-.122-.409.3-.486.353q-.585.408-1.2.77c-.467.277-.946.534-1.432.775-.467.231-.974.463-1.24.571a35.719,35.719,0,0,1-7.463,2.045,2.419,2.419,0,0,0-1.676,2.952,2.455,2.455,0,0,0,2.952,1.677Z"/><path class="b" d="M254.617,162.744a71.455,71.455,0,0,0,1.91,7.953,11.925,11.925,0,0,0,3.483,4.994c3.957,3.447,9.2,5.178,14.293,6.05a2.471,2.471,0,0,0,2.952-1.677,2.42,2.42,0,0,0-1.676-2.952,35.529,35.529,0,0,1-7.464-2.045c-.28-.114-.674-.293-1.125-.514q-.789-.386-1.548-.832c-.409-.242-.81-.5-1.2-.77-.187-.13-.374-.263-.554-.4.36.281-.218-.193-.285-.251a12.736,12.736,0,0,1-.982-.948c-.137-.148-.265-.3-.4-.454-.418-.47.235.383-.1-.134-.223-.343-.428-.688-.636-1.04-.332-.563.082.337-.067-.125-.06-.188-.13-.373-.19-.561-.776-2.467-1.214-5.048-1.783-7.567a2.4,2.4,0,0,0-4.628,1.276Z"/><path class="b" d="M19.991,106.5c6.63,4.095,13.228,7.964,20.848,9.9.258.065.866.34,1.105.274-.391.109-.54-.331-.11.006.32.251.673.464,1,.711-.394-.3.343.278.41.332q.3.239.588.482.788.654,1.56,1.326a47.574,47.574,0,0,1,4.627,4.28c2.047,2.322,5.431-1.083,3.394-3.394a48.248,48.248,0,0,0-4.733-4.372c-1.621-1.4-3.412-3.314-5.489-4.009-1.786-.6-3.657-.946-5.444-1.569a42.806,42.806,0,0,1-4.8-2.015c-3.641-1.791-7.083-3.964-10.531-6.094-2.636-1.628-5.049,2.523-2.423,4.145Z"/><path class="b" d="M196.6,174.107a174.284,174.284,0,0,1-16.712-5.5c-4.658-1.787-9.356-3.489-13.59-6.2-7.606-4.876-14.809-10.433-22.031-15.851-10.316-7.739-20.544-15.595-30.759-23.468-9.239-7.122-18.424-14.249-27.693-21.378q-2.559-1.969-5.124-3.929-1.1-.836-2.195-1.669a3.622,3.622,0,0,0-5.018.179c-3.617,3.423-6.889,7.327-10.192,11.049s-6.561,7.525-9.749,11.365q-2.3,2.772-4.561,5.576a2.5,2.5,0,0,0,0,3.4,133.57,133.57,0,0,0,9.765,10.534c4.835,4.836,9.805,9.537,14.813,14.192,12.428,11.554,25.125,22.818,37.888,34q17.909,15.692,36.02,31.15c2.957,2.529,5.879,5.031,8.6,7.82q2.927,3,5.69,6.149a25.885,25.885,0,0,1,4.286,5.83c2.649,5.6,2.24,12.39,2.272,18.457.091,17.165-.036,34.332-.057,51.5q0,3.224,0,6.447c0,3.089,4.8,3.094,4.8,0,0-17.875.112-35.749.076-53.624-.011-5.753.164-11.589-.658-17.3a27.941,27.941,0,0,0-2.049-7.38,26.039,26.039,0,0,0-4.441-6.368A103.57,103.57,0,0,0,155.115,217.8q-17.514-14.951-34.881-30.071c-13.044-11.376-26.021-22.835-38.768-34.544C72.12,144.6,62.552,136,54.183,126.44c-.618-.708-1.226-1.425-1.815-2.158v3.4c6.143-7.617,12.5-15.068,19.123-22.269q1.291-1.406,2.6-2.8a26.406,26.406,0,0,0,2.616-2.755c-.017-.033-1.229-.156-1.2-.025.018.071.193.13.247.187a3.888,3.888,0,0,0,.444.336q.57.432,1.139.865,2.418,1.842,4.827,3.694c9.058,6.959,17.835,13.773,26.942,20.8q15.177,11.706,30.458,23.281c7.532,5.672,15.054,11.416,22.906,16.644a65.508,65.508,0,0,0,11.857,5.916c5.216,2.122,10.522,4.2,15.928,5.8,1.677.5,3.377.926,5.065,1.385,2.984.812,4.258-3.817,1.276-4.628Z"/><path class="b" d="M238.441,120.73a42,42,0,0,1,.984,4.5l-.086-.638a2.745,2.745,0,0,1,.017.621l.086-.638a1.507,1.507,0,0,1-.069.28l.242-.574a1.157,1.157,0,0,1-.1.18l.375-.486a.877.877,0,0,1-.147.145l.485-.375a2.881,2.881,0,0,1-.356.189l.573-.242a2.573,2.573,0,0,1-.6.175l.638-.086a2.365,2.365,0,0,1-.564,0l.638.086c-.212-.03-.421-.081-.634-.11a1.823,1.823,0,0,0-.957-.043,1.794,1.794,0,0,0-.892.285,2.4,2.4,0,0,0-.861,3.284,2.3,2.3,0,0,0,1.434,1.1c.492.066.97.191,1.471.213a4.7,4.7,0,0,0,2.178-.52A3.16,3.16,0,0,0,244.044,126a5.212,5.212,0,0,0-.021-2.234c-.245-1.45-.581-2.887-.954-4.31a2.4,2.4,0,0,0-2.952-1.676,2.445,2.445,0,0,0-1.676,2.952Z"/><path class="b" d="M214.632,107.957c-.752,2.443-.262,8.063,4.366,8.541,6.118-.036,6.443-6.831,4.384-10.026C221.7,103.857,216.738,102.769,214.632,107.957Z"/><path class="b" d="M263.807,107.957c.752,2.443.262,8.063-4.366,8.541-6.118-.037-6.443-6.831-4.384-10.026C256.743,103.857,261.7,102.769,263.807,107.957Z"/><path class="b" d="M236.24,143.518a17.973,17.973,0,0,1-2.589-3.526,9.65,9.65,0,0,1-.754-1.71,8.467,8.467,0,0,1-.284-1.1c-.115-.674.191-.87-.756.035-.9.86-.858.662-.247.662h1.966l3.338,0,7.305,0,3.207,0h.58c.66,0,.763.225-.165-.683-.824-.806-.641-.993-.809-.269q-.149.636-.326,1.262a15.354,15.354,0,0,1-4.255,7.336,2.4,2.4,0,0,0,3.394,3.394,20.035,20.035,0,0,0,5.445-9.3c.595-2.027,1.276-4.61-.9-5.982-1.257-.792-2.933-.559-4.362-.558l-8.984.006-4.086,0c-1.544,0-3.139-.14-4.3,1.111-1.741,1.88-.639,4.989.257,7.021a21.307,21.307,0,0,0,3.93,5.7c2.094,2.28,5.482-1.122,3.394-3.394Z"/></svg>