<?xml version="1.0" encoding="utf-8"?>
<!-- Uploaded to: SVG Repo, www.svgrepo.com, Generator: SVG Repo Mixer Tools -->
<svg width="800px" height="800px" viewBox="-8.62 0 421.396 421.396" xmlns="http://www.w3.org/2000/svg">

<defs>

<style>.a{fill:#ffffff;}.b{fill:#211715;}.c{fill:#957f6e;}.d{fill:none;}.e{fill:#b3b3b3;}.f{fill:#f4b467;}.g{fill:#ffda71;}.h{fill:#3f88c9;}.i{opacity:0.96;}.j{fill:#83d1fb;}.k{fill:#4d4544;}</style>

</defs>

<path class="a" d="M397.8,381.43a2.145,2.145,0,0,0-.538-.676,47.9,47.9,0,0,0-6.251-7.518c-1.921-1.675-6.21-3.157-9.7-4.592-8.3-3.408-19.7-3.591-19.7-3.591a58.257,58.257,0,0,0-13.19,1.55c-13.416,3.073-28.9,9.349-35.931,20.54a62.811,62.811,0,0,0-4.032,8.039c-2.9,6.551-4.916,14.489-7.614,21.894-1.052,3.864,24.746,5.16,38.466,3.79,11.957-1.194,29.333-4.148,42.111-6.63,6.635-1.288,20.834-5.555,20.731-7.56C401.666,400.39,399.637,385.866,397.8,381.43Z"/>

<path class="b" d="M318.594,291.057a7.219,7.219,0,0,0-1.333.98c-.42.359-.817.744-1.2,1.137a32.907,32.907,0,0,0-2.637,3.056,7.8,7.8,0,0,0-.789,1.174,2.12,2.12,0,0,0-.2,1.541,2,2,0,0,0,3.655.477,7.974,7.974,0,0,1,.825-1.221l-.312.4c.593-.765,1.232-1.5,1.9-2.2a17.727,17.727,0,0,1,1.941-1.826l-.405.313a3.793,3.793,0,0,1,.581-.384,2.016,2.016,0,0,0,.718-2.737,2.048,2.048,0,0,0-2.737-.717Z"/>

<path class="a" d="M330.138,355.832,327.917,373.9a86.433,86.433,0,0,1,20.5-7.3,58.273,58.273,0,0,1,13.19-1.55l6.584.48a30.522,30.522,0,0,1-1.892-8.853c.016-.586.066-1.278.14-2.023l-.227-.046c-3.676-.735-9.664-2.824-11.911-5.253-3.52-3.805-6.679-13.571-3.361-12.266a11.434,11.434,0,0,0,2.1-3.624c1.805-5.318-.894-8.832-4.941-9.081-7.685-5.079-13.957-13.065-17.763-20.184l-3.86,2.017c-3.617-1.642-6.69-6.1-7.557-10.5l-1,1.687a45.551,45.551,0,0,0-3.491,8.949c-1.413,5.98-3.884,12.049-8.725,15.834a3.341,3.341,0,0,0-1.362,1.571c-.342,1.264.946,2.3,1.829,3.263,4.018,4.4-.092,11.8,2.122,17.329,2.805,7,12.954,10.029,21.912,11.488"/>

<path class="c" d="M330.335,304.2c3.806,7.119,10.078,15.105,17.763,20.184,4.047.249,6.746,3.763,4.941,9.081a11.434,11.434,0,0,1-2.1,3.624c-3.318-1.305-.159,8.461,3.361,12.266,2.247,2.429,8.235,4.518,11.911,5.253l.227.046c-.074.745-.124,1.437-.14,2.023a31.714,31.714,0,0,0,3.673,12.757c1.957,3.212,3.991,6.165,7.353,8.075,2.644,1.5,10.568,4.814,14.276,1.568-4.847-6.058.521-16.341,3.554-23.612,1.991-4.774,1.837-10.612-1.591-14.835-2.74-3.376-6.87-5.008-11.549-5.625,7.556-13.529,5.719-29.972.187-32.894l-2.39-5.893c-2.6-13.742-24.844-21.857-40.519-19.257a28.539,28.539,0,0,0-16.245,9.444c-1.713,1.947-2.841,4.274-4.357,6.322-.283,5.2,3.34,11.472,7.786,13.49Z"/>

<path class="d" d="M338.6,316.023a62.165,62.165,0,0,1-8.079-11.473l-3.894,2.022c-4.629-2.1-8.365-8.807-7.732-14.127a71.975,71.975,0,0,1,4.15-6.037,28.539,28.539,0,0,1,16.245-9.444c17.662-2.93,43.662,7.745,40.508,24.744,7.272-1.126,10.782,17.96,2.214,33.3,4.679.617,8.809,2.249,11.549,5.625,3.428,4.223,3.582,10.061,1.591,14.835-3.033,7.271-8.4,17.554-3.554,23.612-3.708,3.246-11.632-.066-14.276-1.568-3.362-1.91-5.4-4.863-7.353-8.075A31.714,31.714,0,0,1,366.3,356.68c.016-.586.066-1.277.141-2.023l-.228-.046c-3.676-.735-9.664-2.824-11.911-5.253-3.521-3.806-6.681-13.578-3.36-12.267a11.446,11.446,0,0,0,2.1-3.623c1.806-5.321-.9-8.836-4.947-9.084A49.453,49.453,0,0,1,338.6,316.023Z"/>

<path class="b" d="M344.16,327.27a8.535,8.535,0,0,1,1.637-.641,8.633,8.633,0,0,1,.914-.208,1.049,1.049,0,0,1,.358-.038c.286-.016.572-.024.859-.013.139.006.278.015.416.029q-.288-.048.074.014a6.816,6.816,0,0,1,.674.163c.077.024.668.26.332.1a5.356,5.356,0,0,1,.66.363c.105.067.207.138.307.212q-.243-.181.024.042c.135.129.265.258.389.4.149.178.161.19.034.036.073.1.142.209.207.317a2.443,2.443,0,0,1,.433,1.064,3.7,3.7,0,0,1,.131,1.307c-.045,2.584-1.6,4.853-3.414,6.722a30.579,30.579,0,0,1-3.015,2.826,25.615,25.615,0,0,1-3.2,2.011c-2.242,1.264-.229,4.72,2.019,3.454a28.7,28.7,0,0,0,6.191-4.626,17.629,17.629,0,0,0,4.867-7.08,9.85,9.85,0,0,0-.288-7.189,7.449,7.449,0,0,0-4.708-3.847,11.026,11.026,0,0,0-7.92,1.125,2,2,0,0,0,2.019,3.454Z"/>

<path class="b" d="M347.739,340.255a23.972,23.972,0,0,0,2.32,6.337,14.954,14.954,0,0,0,3.773,5.028,22.759,22.759,0,0,0,5.927,3.157,36.433,36.433,0,0,0,5.919,1.763,2.049,2.049,0,0,0,2.46-1.4,2.019,2.019,0,0,0-1.4-2.46c-3.585-.732-7.387-1.889-10.327-4.085.275.2-.183-.156-.194-.166-.134-.117-.265-.238-.389-.365-.139-.142-.271-.29-.4-.441.033.038-.394-.5-.243-.3a18.938,18.938,0,0,1-1.676-2.753,20.111,20.111,0,0,1-1.917-5.381,2.018,2.018,0,0,0-2.46-1.4,2.041,2.041,0,0,0-1.4,2.46Z"/>

<path class="b" d="M325.725,298.8a58,58,0,0,0,20.061,26.415,2.014,2.014,0,0,0,2.736-.717,2.046,2.046,0,0,0-.718-2.737,56.22,56.22,0,0,1-18.222-24.024c-.877-2.4-4.745-1.362-3.857,1.063Z"/>

<path class="b" d="M381.641,336.957c3.293.419,6.771,1.443,9.253,3.75a11.472,11.472,0,0,1,3.535,9.035c-.137,3.441-1.79,6.513-3.1,9.622a45.958,45.958,0,0,0-3.341,10.172c-.608,3.631-.441,7.523,1.888,10.553l.313-2.423c-1.749,1.441-4.748.744-6.7.2a19.668,19.668,0,0,1-6.514-2.966c-4.791-3.575-7.3-9.838-8.381-15.52-.579-3.047-.046-6.118.454-9.146a2.06,2.06,0,0,0-1.4-2.46,2.015,2.015,0,0,0-2.46,1.4c-.56,3.4-1.153,6.816-.63,10.247a34.4,34.4,0,0,0,2.961,9.674,25.281,25.281,0,0,0,6.712,8.711,23.208,23.208,0,0,0,8.192,3.921c3.572.983,7.576,1.251,10.593-1.235a1.993,1.993,0,0,0,.313-2.423c-2.008-2.613-1.906-5.825-1.2-8.905a60.842,60.842,0,0,1,3.785-10.424c1.5-3.459,2.768-6.864,2.492-10.709a15.19,15.19,0,0,0-4.817-10.276c-3.324-3-7.593-4.247-11.946-4.8a2.01,2.01,0,0,0-2,2,2.05,2.05,0,0,0,2,2Z"/>

<path class="b" d="M381.191,303.841a4.508,4.508,0,0,1,1.315,1.177,10.017,10.017,0,0,1,1.249,2.411,23.3,23.3,0,0,1,1.26,7.171,37.9,37.9,0,0,1-4.334,18.673c-1.191,2.279,2.259,4.3,3.454,2.019a41.828,41.828,0,0,0,4.85-21.379c-.247-4.6-1.3-11.042-5.775-13.526-2.253-1.249-4.273,2.2-2.019,3.454Z"/>

<path class="b" d="M319.077,295.4c1.993-2.224,3.221-4.969,5.108-7.259a27.5,27.5,0,0,1,6.18-5.475,26.589,26.589,0,0,1,14.537-4.184c8.982-.113,18.705,2.44,25.923,7.936,3.413,2.6,6.2,6.051,7.056,10.331.5,2.523,4.358,1.455,3.857-1.063-1.881-9.456-11.238-15.3-19.668-18.305-9.823-3.5-21.8-4.538-31.3.414a32.054,32.054,0,0,0-8.339,6.323c-2.436,2.563-3.842,5.843-6.181,8.453-1.714,1.912,1.106,4.751,2.828,2.829Z"/>

<path class="b" d="M324.329,392.372A61.315,61.315,0,0,1,335.305,417.7c.468,2.528,4.324,1.457,3.857-1.063a63.952,63.952,0,0,0-11.379-26.285,2.06,2.06,0,0,0-2.736-.718,2.016,2.016,0,0,0-.718,2.737Z"/>

<path class="b" d="M317.01,312.042c-.966,1.352-1.824,4.918.923,6.165,3.769,1.236,5.371-2.887,4.763-5.281C322.2,310.967,319.375,309.276,317.01,312.042Z"/>

<path class="b" d="M316.194,296.4c-2.456,4.263-3.331,9.015-4.875,13.609a26.118,26.118,0,0,1-3.84,7.559,18.129,18.129,0,0,1-2.882,2.965c-1.218,1-2.321,2.013-2.3,3.733a5.621,5.621,0,0,0,1.951,3.639,5.7,5.7,0,0,1,1.67,3.193c.407,2.507-.156,5.139-.287,7.65a14.305,14.305,0,0,0,1.454,7.717,15.989,15.989,0,0,0,5.228,5.447c5.07,3.429,11.41,4.878,17.361,5.859a2.06,2.06,0,0,0,2.46-1.4,2.016,2.016,0,0,0-1.4-2.46c-5-.825-10.183-1.941-14.669-4.4a14.241,14.241,0,0,1-4.89-4.032,9.771,9.771,0,0,1-1.564-6.368c.1-2.512.58-5.032.362-7.55a11.206,11.206,0,0,0-.845-3.578,11.845,11.845,0,0,0-2.316-3.182c-.107-.118-.262-.332-.392-.454-.574-.536.052-.26-.124-.05a11.762,11.762,0,0,1,1.425-1.188,20.74,20.74,0,0,0,2.974-3.216,29.2,29.2,0,0,0,3.942-7.329c1.8-4.691,2.465-9.733,5.008-14.147,1.287-2.235-2.168-4.252-3.454-2.019Z"/>

<path class="b" d="M302.732,417.7c2.208-6.079,3.895-12.335,6.181-18.386,1.981-5.243,4.33-10.7,8.144-14.891,6.879-7.551,16.923-11.771,26.558-14.523a66.3,66.3,0,0,1,17.99-2.849c2.574-.013,2.579-4.013,0-4-11.252.054-22.779,3.309-32.866,8.2a49.517,49.517,0,0,0-13.29,9.077c-4.314,4.262-6.937,9.573-9.264,15.1-2.9,6.9-4.758,14.181-7.31,21.209-.88,2.423,2.984,3.468,3.857,1.063Z"/>

<path class="b" d="M328.138,355.832,326.532,368.9a2,2,0,0,0,2,2,2.061,2.061,0,0,0,2-2l1.606-13.064a2,2,0,0,0-2-2,2.061,2.061,0,0,0-2,2Z"/>

<path class="b" d="M395.33,381.285a110.929,110.929,0,0,1,4.816,25.391c.179,2.554,4.18,2.574,4,0a115.594,115.594,0,0,0-4.958-26.454c-.766-2.449-4.629-1.4-3.858,1.063Z"/>

<path class="b" d="M316.669,293.042a17.09,17.09,0,0,0,2.5,8.787,15.125,15.125,0,0,0,6.3,6.118,2.057,2.057,0,0,0,2.736-.718,2.017,2.017,0,0,0-.717-2.736,10.081,10.081,0,0,1-1.5-.859c-.028-.019-.49-.367-.171-.115-.1-.075-.189-.152-.281-.23-.236-.2-.463-.4-.684-.62a14.521,14.521,0,0,1-1.27-1.412c.221.281-.149-.208-.154-.215-.076-.106-.15-.212-.224-.32-.2-.3-.4-.6-.579-.912a12.392,12.392,0,0,1-1.452-3.3,15.414,15.414,0,0,1-.424-1.873c-.038-.232.017.261-.014-.121-.013-.155-.029-.309-.04-.464-.022-.337-.028-.672-.023-1.009a2,2,0,0,0-4,0Z"/>

<path class="b" d="M309.723,333.433c.22.02.164.009-.165-.032.08.012.16.026.239.042a4.479,4.479,0,0,1,.468.124c.076.025.151.051.226.08q-.438-.192-.147-.061c.106.056.214.106.318.166.138.079.268.169.4.256.169.124.129.093-.122-.1.061.051.12.1.179.156.1.093.2.191.293.292.041.043.08.087.118.132q.2.243-.092-.128a2.357,2.357,0,0,0,.26.392,2.041,2.041,0,0,0,.219.415q-.171-.423-.087-.208c.021.054.041.109.06.164a4.2,4.2,0,0,1,.127.451c.017.076.032.153.044.23-.041-.338-.05-.4-.029-.181,0,.139.014.276.01.415,0,.06,0,.12-.008.179-.021.218-.011.16.029-.171a2.178,2.178,0,0,0-.105.47c-.04.146-.091.287-.14.43-.125.369.2-.392.029-.082-.068.12-.129.243-.2.36-.279.437.239-.244.015,0-.155.17-.332.315-.49.479.4-.421.181-.138,0-.029a3.958,3.958,0,0,1-.349.193c-.321.159-.066-.011.1-.037a3.3,3.3,0,0,0-.4.135c-.28.084-.58.106-.857.19.5-.151.274-.034.074-.015-.159.015-.318.025-.477.031-.335.013-.67.007-1-.008a2.014,2.014,0,0,0-2,2,2.044,2.044,0,0,0,2,2c2.6.121,5.249-.578,6.774-2.834a6.376,6.376,0,0,0-.841-7.844,6.821,6.821,0,0,0-4.479-2.055,2.009,2.009,0,0,0-2,2,2.051,2.051,0,0,0,2,2Z"/>

<path class="a" d="M83.723,386.427A41.326,41.326,0,0,0,70.579,375.37c-.242-3.919-.966-8.8-1.208-12.721a2.241,2.241,0,0,0-2.013-2.508l-21.169-6.788-10.867-3.485a1.881,1.881,0,0,0-1.49-.051,1.839,1.839,0,0,0-.6.684A70.265,70.265,0,0,0,27.2,363.09c-11.407,7.836-21.174,21.627-25.178,35.567,1.063,4.649,29.032,14.727,35.731,16.357,7.511,1.828,18.77,4.5,26.444,5.333,6.829.745,25.778,2,26.389-1.761a84.62,84.62,0,0,0,1.082-12.892C91.455,399.093,88.3,392.2,83.723,386.427Z"/>

<path class="a" d="M85.814,296.879c-.384-1.142-.73-2.294-1.043-3.445a62.935,62.935,0,0,0-3.728-9.214c-.22-.964-.405-1.705-.64-2.6-2.2-4.77-11.608-3.834-16.654-2.771-23.893,5.031-35.32,40.162-32.1,63.026.274,1.944,2.594,3.038,3.055,5.453-.019.637-.084,1.359-.173,2.051a3.5,3.5,0,0,1,.788.18l10.867,3.485,19.917,6.386c-.012.843,2.639-3.289,3.309-5.3,9.769-1.97,21.342-5.412,24.5-14.157.976-2.7.749-5.71.4-8.709-.551-4.672-1.409-9.318,1.493-12.721,1.047-1.228,2.59-2.552,2.115-4.1a4.111,4.111,0,0,0-1.743-1.877C91.022,308.813,87.869,302.99,85.814,296.879Z"/>

<path class="e" d="M31.207,342.124c-7.383-5.017-12.563-13.639-15.919-21.922-4.2-10.377-1.263-29.2,7.086-33.8.861-1.891,1.7-3.77,1.7-3.77a23.561,23.561,0,0,1,11.807-11.417c4.571-2.134,8.456-2.707,13.463-3.315,7.5-3.649,28.32,2.431,30.6,13.414h0c-3.233.742-12.187,2.087-14.093,3.516-4.628,3.469-4.813,10.859-6.86,16.594-.455,1.275-.434,2.947-2.832,3.951a26.251,26.251,0,0,0,.3,5.971c-1.405-.975-2.9-2.132-4.636-2.261a5.484,5.484,0,0,0-5.212,3.809,10.312,10.312,0,0,0,.344,6.794,18.943,18.943,0,0,0,1.886,3.878c-4.085,7.984-6.033,10.889-11.34,15.19Z"/>

<path class="b" d="M67.486,353.906c-.066.2-.141.389-.221.58l.2-.478a20.781,20.781,0,0,1-1.212,2.356,18.336,18.336,0,0,1-1.3,1.975l.313-.4c-.075.095-.151.189-.232.278a2.107,2.107,0,0,0-.586,1.415,2.036,2.036,0,0,0,.586,1.414,2,2,0,0,0,2.828,0,16.21,16.21,0,0,0,1.877-2.721,18.555,18.555,0,0,0,1.6-3.352,2,2,0,1,0-3.857-1.063Z"/>

<path class="b" d="M56.971,309.178c-2.6-1.814-5.493-2.96-8.521-1.4a8.479,8.479,0,0,0-4.265,7.387c-.2,5.991,3.839,11.738,8.453,15.165a2.014,2.014,0,0,0,2.736-.718,2.047,2.047,0,0,0-.717-2.736,16.2,16.2,0,0,1-6.416-10.328,5.176,5.176,0,0,1,1.64-4.962c1.772-1.317,3.54-.021,5.071,1.048a2.018,2.018,0,0,0,2.737-.717,2.042,2.042,0,0,0-.718-2.737Z"/>

<path class="b" d="M47.12,322.464c-1.559,2.731-3.233,5.4-5.051,7.966a34.048,34.048,0,0,1-5.978,6.822,2.014,2.014,0,0,0,0,2.828,2.045,2.045,0,0,0,2.829,0,37.83,37.83,0,0,0,6.464-7.436,95.312,95.312,0,0,0,5.19-8.161c1.278-2.239-2.177-4.257-3.454-2.019Z"/>

<path class="b" d="M92.582,418.586a91.025,91.025,0,0,0,1.1-12.173,29.022,29.022,0,0,0-1.806-9.649,43.682,43.682,0,0,0-11.2-16.607,40.721,40.721,0,0,0-9.079-6.514c-2.283-1.181-4.309,2.27-2.019,3.454a40.143,40.143,0,0,1,16.5,16.488,28.406,28.406,0,0,1,3.5,10.684c.448,4.773-.407,9.594-.992,14.317a2.01,2.01,0,0,0,2,2,2.05,2.05,0,0,0,2-2Z"/>

<path class="b" d="M72.58,375.37c-.282-4.316-.834-8.621-1.225-12.928a4.508,4.508,0,0,0-1.218-3.059,7.452,7.452,0,0,0-2.953-1.4l-7.291-2.338-14.117-4.526-7.323-2.349c-2.047-.656-4.59-1.946-6.368-.065a15.4,15.4,0,0,0-1.939,3.122q-.933,1.675-1.773,3.4a77.3,77.3,0,0,0-3.105,7.329c-.886,2.421,2.978,3.465,3.857,1.063a67.537,67.537,0,0,1,2.8-6.575q.8-1.62,1.675-3.2a8.842,8.842,0,0,1,1.646-2.618l-.882.514c.549-.19,2.219.627,2.789.81l2.835.909,6.14,1.969,12.231,3.921,6.115,1.961,1.411.453c.311.1,1.06.182,1.306.423.228.224.189.227.193.656,0,.47.068.948.108,1.417.315,3.706.845,7.393,1.088,11.106.167,2.555,4.168,2.574,4,0Z"/>

<path class="b" d="M26.187,361.363a68.724,68.724,0,0,0-26.1,36.763c-.72,2.476,3.138,3.534,3.857,1.063,3.928-13.5,12.652-26.333,24.26-34.372,2.1-1.456.105-4.925-2.019-3.454Z"/>

<path class="b" d="M60.848,371.248a181.143,181.143,0,0,0-33.12-10.087c-2.515-.478-3.593,3.376-1.063,3.857a181.143,181.143,0,0,1,33.12,10.087,2.013,2.013,0,0,0,2.46-1.4,2.048,2.048,0,0,0-1.4-2.46Z"/>

<path class="b" d="M79.081,391.591c-6.957-.945-13.345,2.529-17.978,7.532a62.606,62.606,0,0,0-11.213,17.6,2.067,2.067,0,0,0,.718,2.737,2.014,2.014,0,0,0,2.736-.718,61.213,61.213,0,0,1,9.867-15.986c3.634-4.151,8.969-8.1,14.806-7.3a2.068,2.068,0,0,0,2.46-1.4,2.014,2.014,0,0,0-1.4-2.461Z"/>

<path class="b" d="M76.88,305.008c-.2,1.738.836,5.459,4,5.2,4.1-.79,3.467-5.4,1.684-7.3C81.107,301.364,77.643,301.252,76.88,305.008Z"/>

<path class="b" d="M60.525,287.32a13.868,13.868,0,0,0-2.655,4.792,18.547,18.547,0,0,0-.578,4.294,22.834,22.834,0,0,1-.416,4.048q-.145.642-.345,1.27a5.63,5.63,0,0,1-.311.833c-.063.115-.127.23-.2.34.166-.251-.063.073-.115.127s-.332.305-.149.159a4.567,4.567,0,0,1-.607.375c-2.242,1.266-.228,4.722,2.018,3.454,3.217-1.816,3.837-5.738,4.051-9.128.043-.7.064-1.4.1-2.094a11.489,11.489,0,0,1,.183-1.7,8.5,8.5,0,0,1,1.846-3.943,2.061,2.061,0,0,0,0-2.829,2.014,2.014,0,0,0-2.828,0Z"/>

<path class="b" d="M20.629,285.035c-6.471,4.494-8.618,13.5-9.139,20.907a37.067,37.067,0,0,0,1.015,12.128,49.452,49.452,0,0,0,6.012,12.854A43.5,43.5,0,0,0,30.2,343.763l-.718-.718a28.579,28.579,0,0,1,1.992,2.719,4.9,4.9,0,0,1,.658,3.446,2.014,2.014,0,0,0,2,2,2.046,2.046,0,0,0,2-2,7.831,7.831,0,0,0-.608-4.293,15.22,15.22,0,0,0-2.041-3.193c-1.543-1.984-3.835-3.343-5.606-5.16a50.367,50.367,0,0,1-8.891-13.059,31.627,31.627,0,0,1-3.528-12.271,38.93,38.93,0,0,1,1.27-12.576c1.009-3.687,2.728-7.951,5.922-10.169,2.1-1.458.1-4.927-2.019-3.454Z"/>

<path class="b" d="M25.969,283.19a22.378,22.378,0,0,1,11.337-10.528,33.474,33.474,0,0,1,8.279-2.336,26.357,26.357,0,0,0,4.532-.689c.18-.065.339-.161.513-.237-.409.178-.064.026.043-.011.3-.1.6-.2.91-.271a14.727,14.727,0,0,1,4.062-.251,28.524,28.524,0,0,1,5.069.745,35.927,35.927,0,0,1,10.89,4.37c3.146,1.949,6.091,4.63,6.87,8.17.553,2.513,4.41,1.449,3.857-1.064-1.175-5.343-5.928-9.161-10.528-11.6a39.051,39.051,0,0,0-16.276-4.622,14.3,14.3,0,0,0-7.19,1.221l1.009-.273c-5.6.683-11.021,1.649-16.035,4.376a25.287,25.287,0,0,0-10.8,10.986c-1.117,2.307,2.332,4.337,3.454,2.018Z"/>

<path class="b" d="M78.369,283.878c2.78,4.447,3.993,9.466,5.692,14.353,2.16,6.216,5.455,12.126,10.794,16.141.221.166,1.076.645,1.138.915.079.347-.442.833-.641,1.071a14.55,14.55,0,0,0-2.853,4.283c-1.2,3.221-.693,6.764-.289,10.082s.913,6.891-.638,9.989a14.643,14.643,0,0,1-4.958,5.463c-5.224,3.557-11.621,5.094-17.731,6.334-2.521.512-1.454,4.368,1.064,3.857,11.05-2.242,26.772-6.9,26.667-20.791-.029-3.757-1.065-7.468-.829-11.232a7.166,7.166,0,0,1,1.55-4.21c1.063-1.279,2.324-2.429,2.6-4.149.316-1.949-.821-3.392-2.293-4.5a24.521,24.521,0,0,1-3.63-3.283,30.072,30.072,0,0,1-5.138-8.5c-1.185-2.85-1.878-5.848-2.927-8.741a47.916,47.916,0,0,0-4.126-9.1c-1.361-2.179-4.823-.173-3.454,2.019Z"/>

<path class="b" d="M92.378,326.16a6.62,6.62,0,0,0-6.52,4.574,6.25,6.25,0,0,0,2.915,7.176,6.405,6.405,0,0,0,4.622.773,2.014,2.014,0,0,0,1.4-2.46,2.05,2.05,0,0,0-2.461-1.4c-.075.016-.151.03-.227.042.342-.042.405-.054.19-.034-.134,0-.266.009-.4,0-.057,0-.114,0-.171-.01q-.323-.033.193.029a2.74,2.74,0,0,0-.391-.085c-.129-.034-.254-.08-.382-.12q-.3-.113.159.072c-.07-.031-.139-.064-.208-.1a5.638,5.638,0,0,0-.686-.425l.223.171c-.06-.049-.118-.1-.175-.15a4.56,4.56,0,0,1-.328-.324c-.078-.085-.147-.178-.225-.263.4.443.069.073-.014-.065-.059-.1-.108-.2-.166-.3-.09-.191-.07-.135.061.166-.029-.07-.055-.142-.08-.214-.036-.108-.068-.217-.095-.328-.019-.074-.034-.149-.048-.224-.035-.214-.026-.151.025.19a1.9,1.9,0,0,0-.012-.418c0-.061,0-.121.008-.181q.031-.327-.028.175a2.039,2.039,0,0,0,.091-.408,1.694,1.694,0,0,0,.131-.4q-.191.438-.057.148.053-.108.111-.213c.058-.105.12-.208.187-.309q.066-.1.138-.2-.288.366-.087.121c.082-.089.161-.18.247-.266.069-.069.334-.239.358-.326-.232.175-.287.217-.165.129.048-.036.1-.071.148-.1a4.677,4.677,0,0,1,.415-.247c.07-.037.142-.072.215-.106l-.257.107a2.069,2.069,0,0,0,.453-.153c.116-.031.233-.052.35-.079q.324-.054-.176.023c.079-.007.159-.012.239-.014a4.324,4.324,0,0,1,.483.018,2.008,2.008,0,0,0,2-2,2.052,2.052,0,0,0-2-2Z"/>

<path class="b" d="M74.439,280.432A13.513,13.513,0,0,0,64.193,274.7a2.012,2.012,0,0,0-2,2,2.047,2.047,0,0,0,2,2c.171.01.341.027.511.041.387.032-.4-.067-.165-.024.088.016.177.027.265.042.365.063.727.146,1.084.245q.561.156,1.1.367c.07.027.4.166.092.034s.051.024.091.043q.276.126.546.266a11.937,11.937,0,0,1,1.065.623c.174.115.344.236.513.358.214.155-.039-.016-.105-.082.072.072.166.134.245.2a10.367,10.367,0,0,1,.925.878q.22.236.425.485c.257.314.029-.047-.032-.046.045,0,.206.289.228.32a2,2,0,0,0,3.454-2.019Z"/>

<path class="b" d="M67.277,281.937a11.822,11.822,0,0,0-5.125-1.108,13.425,13.425,0,0,0-4.564.906,2.174,2.174,0,0,0-1.2.919,2,2,0,0,0,2.259,2.938,12.812,12.812,0,0,1,1.786-.554q.266-.06.534-.108a1.186,1.186,0,0,1,.405-.066c-.3.04-.345.047-.122.021.091-.01.183-.018.275-.025.161-.013.322-.022.484-.027.325-.011.651-.007.976.014a1.39,1.39,0,0,1,.491.043c-.3-.043-.335-.047-.111-.014.071.011.141.023.211.037a9.131,9.131,0,0,1,.98.235c.163.05.326.1.486.161.093.034.185.069.277.106q-.372-.161-.065-.024a2.172,2.172,0,0,0,1.541.2,2,2,0,0,0,.478-3.655Z"/>

<path class="a" d="M348.44,250.788c-.036-4.432-.1-9.992-.088-13.427l8.433,0c0,3.781.108,11.843.108,17.569-1.771,0-6.825.041-8.431.041C348.462,253.823,348.453,252.378,348.44,250.788Z"/>

<path class="a" d="M28.873,252.751c-.028-4.6-.12-11.263-.1-15.214,0,0,0-.057,0-.156,2.37-.006,5.2-.011,8.432-.016v.1c0,3.723.11,11.665.11,17.469-1.771,0-6.825.041-8.432.041C28.881,254.314,28.878,253.565,28.873,252.751Z"/>

<path class="a" d="M20.65,237.416l-.261,0c0-2,0-4.822.009-8.181,58.4-.009,287.595-.01,344.876-.01,0,3.172,0,5.949,0,8.136C344.925,237.365,34.109,237.24,20.65,237.416Z"/>

<path class="a" d="M365.011,178.948c-25.331,0-324.2-.25-344.518-.25,0,14.368-.1,48.108-.1,58.722,8.827-.182,324.376-.055,344.885-.055C365.274,222.207,365.226,178.732,365.011,178.948Z"/>

<path class="a" d="M20.493,178.7c20.44,0,322.725.253,344.938.25-3.077-5.16-9.695-15.089-13.356-19.9a3.128,3.128,0,0,0-2.437-1.41c-22.435.006-44.456.006-44.456.006l-224.7.444s-22.022,0-44.456,0a3.141,3.141,0,0,0-2.437,1.379c-3.6,4.624-10.054,14.094-13.2,19.231"/>

<path class="b" d="M365.011,176.948q-7.371,0-14.741-.007-13.657-.007-27.316-.018l-36.8-.027q-21.6-.015-43.2-.033l-46.325-.035-46.736-.037-43.882-.033-37.8-.029-28.948-.02q-8.421-.006-16.84-.01H20.493a2.03,2.03,0,0,0-2,2c0,16.25-.06,32.5-.091,48.75q-.011,4.986-.013,9.972a2.024,2.024,0,0,0,2,2c3.6-.072,7.194-.037,10.79-.044q12.48-.025,24.962-.03,17.89-.014,35.779-.017,21.62-.006,43.239-.007,23.672,0,47.343,0,24.045,0,48.09.007l45.48.01,39.514.01,30.193.009,17.551,0h1.944a2.029,2.029,0,0,0,2-2c0-17.725.027-35.453-.146-53.177-.018-1.849.4-4.5-.387-6.249a2,2,0,0,0-1.727-.991h0c-2.571-.156-2.562,3.845,0,4h0l-1.727-.99c-.192-.425-.232-1.345-.237-.546,0,.345.02.692.028,1.037.024,1.128.035,2.255.046,3.383q.057,5.61.072,11.22.064,14.634.07,29.268.007,6.522.008,13.045l2-2-13.876,0-27.382-.008-37.53-.011-44.322-.01-47.759-.008q-23.919,0-47.838,0-22.281,0-44.561,0-18.964,0-37.928.014-13.97.007-27.938.026c-4.872.007-9.745,0-14.617.041-.378,0-.756.005-1.134.012l2,2c0-15.6.064-31.207.091-46.81q.01-5.957.013-11.912l-2,2q6.708,0,13.416.007l26.278.018,36.051.027,42.736.033,46.147.036,46.846.036,44.277.034,38.484.028q14.958.011,29.916.021,9.048.006,18.1.01h2.271C367.585,180.948,367.589,176.948,365.011,176.948Z"/>

<path class="b" d="M131.752,186.255c0,11.575.109,23.151.11,34.727,0,2.574,4,2.578,4,0,0-11.576-.108-23.152-.11-34.727,0-2.574-4-2.578-4,0Z"/>

<path class="b" d="M250.074,186.255c0,11.575.109,23.151.11,34.727,0,2.574,4,2.578,4,0,0-11.576-.109-23.152-.11-34.727,0-2.574-4-2.578-4,0Z"/>

<path class="b" d="M26.772,237.537c-.024,5.812.107,11.624.109,17.436a2.03,2.03,0,0,0,2,2c2.811,0,5.621-.04,8.432-.041a2.03,2.03,0,0,0,2-2c0-5.823-.107-11.646-.11-17.469,0-2.573-4-2.578-4,0,0,5.823.108,11.646.11,17.469l2-2c-2.811,0-5.621.039-8.432.041l2,2c0-5.812-.133-11.624-.109-17.436.011-2.574-3.989-2.578-4,0Z"/>

<path class="b" d="M346.352,237.263c-.024,5.9.107,11.806.11,17.71a2.03,2.03,0,0,0,2,2c2.81,0,5.621-.04,8.431-.041a2.029,2.029,0,0,0,2-2c0-5.823-.107-11.646-.109-17.469,0-2.573-4-2.578-4,0,0,5.823.108,11.646.109,17.469l2-2c-2.81,0-5.621.039-8.431.041l2,2c0-5.9-.134-11.806-.11-17.71.011-2.574-3.989-2.577-4,0Z"/>

<path class="b" d="M28.315,231.229H356.967c2.573,0,2.578-4,0-4H28.315c-2.574,0-2.579,4,0,4Z"/>

<path class="b" d="M22.116,179.708c2.471-4.025,5.121-7.945,7.819-11.822,1.315-1.891,2.648-3.771,4.023-5.62.464-.624,1.062-1.761,1.789-2.1a3.781,3.781,0,0,1,1.524-.079H40l33.661,0h6.816c2.574,0,2.578-4,0-4H60.109l-19.609,0a38.462,38.462,0,0,0-5.071.057,5.45,5.45,0,0,0-3.57,2.313c-1.38,1.786-2.7,3.613-4.008,5.455-3.187,4.5-6.3,9.073-9.189,13.775-1.351,2.2,2.108,4.211,3.454,2.019Z"/>

<path class="b" d="M367,177.689c-2.527-4.2-5.243-8.3-8.009-12.355-1.373-2.011-2.764-4.011-4.206-5.973a13.492,13.492,0,0,0-2.143-2.572c-1.361-1.116-2.815-1.146-4.5-1.145q-17.79,0-35.581,0h-7.38c-2.574,0-2.578,4,0,4h19.532l18.474,0h4.955a4.681,4.681,0,0,1,1.772.086c.457.2.794.808,1.076,1.189,1.31,1.762,2.572,3.561,3.817,5.37,3.027,4.393,5.99,8.845,8.739,13.419,1.325,2.2,4.785.195,3.454-2.019Z"/>

<path class="a" d="M224.249,145.782c.124,2.514.351,2.382.57,4.905.511,5.887,3.138,8.17,6.148,9.284a4.112,4.112,0,0,1,3.32,2.18c.519,1.122.6,4.613-1.149,4.613l-80.484-.013c-1.7,0-1.86-3.478-1.341-4.6s1.572-1.72,3.321-2.18c3.93-1.035,5.637-3.4,6.148-9.284.219-2.523.445-2.391.57-4.905"/>

<path class="d" d="M224.225,145.782c.124,2.514.351,2.382.57,4.905.511,5.887,3.138,8.17,6.148,9.284a4.116,4.116,0,0,1,3.321,2.18c.518,1.122.6,4.613-1.149,4.613l-80.484-.013c-1.705,0-1.86-3.478-1.342-4.6s1.572-1.72,3.321-2.18c3.93-1.035,5.637-3.4,6.148-9.284.219-2.523.446-2.391.57-4.905"/>

<path class="b" d="M222.249,145.782c.083,1.5.373,2.968.529,4.462a19.358,19.358,0,0,0,1.3,5.843,10.413,10.413,0,0,0,6.022,5.681,7.177,7.177,0,0,1,1.9.662,1.217,1.217,0,0,1,.576.949,5.5,5.5,0,0,1-.006,1.338,1.744,1.744,0,0,1-.168.475c-.073-.061.665-.454.689-.428-.168-.177-1.511,0-1.747,0l-21.011,0-30.626-.006-23.569,0h-2.764c-.311,0-1.162-.022-.277.122.281.045.055.263.139.072.038-.086-.146-.524-.155-.586a2.588,2.588,0,0,1,.1-1.524c.444-.7,2.212-.952,3.147-1.307a9.01,9.01,0,0,0,3.483-2.215c2.287-2.472,2.686-5.864,3.013-9.069.152-1.494.445-2.958.529-4.462.142-2.572-3.858-2.564-4,0-.088,1.573-.4,3.09-.55,4.683a15.063,15.063,0,0,1-.977,4.678,4.531,4.531,0,0,1-2.124,2.314c-1.338.712-3,.833-4.322,1.71a6,6,0,0,0-1.141,8.438c1,1.157,2.306,1.146,3.681,1.147q10.731,0,21.462,0l31.883,0,23.314,0c.756,0,1.514.014,2.27,0,2.729-.05,3.845-2.451,3.76-4.919a5.82,5.82,0,0,0-1.64-4.128c-1.247-1.225-2.946-1.332-4.315-2.062-2.69-1.433-3.568-4.276-3.855-7.19-.157-1.593-.462-3.11-.549-4.683-.142-2.56-4.143-2.577-4,0Z"/>

<path class="b" d="M166.244,160.522h53.174c2.574,0,2.578-4,0-4H166.244c-2.573,0-2.578,4,0,4Z"/>

<path class="b" d="M68.577,3.639c0-.719,0-1.27,0-1.639,10.423,0,205.408.027,248.46.033,0,15.68.058,127.474.066,143.683-32.065.006-205.825.046-248.545.057C68.56,125.658,68.576,20.192,68.577,3.639Z"/>

<path class="a" d="M73.43,145.772H68.559c0-2.32,0-5.775,0-10.107,42.719-.011,216.462-.051,248.539-.057,0,4.6,0,8.093,0,10.107C286.144,145.721,123.084,145.76,73.43,145.772Z"/>

<path class="d" d="M68.577,3.639c0-.719,0-1.27,0-1.639,10.423,0,205.408.027,248.46.033,0,15.68.058,127.474.066,143.683-32.065.006-205.825.046-248.545.057C68.56,125.658,68.576,20.192,68.577,3.639Z"/>

<path class="d" d="M75.312,145.772c51.76-.013,211.212-.051,241.792-.056,0-2.013,0-5.5,0-10.1-32.077,0-205.82.038-248.539.049,0,4.328,0,7.786,0,10.107Z"/>

<path class="b" d="M70.577,3.639q0-.82,0-1.639l-2,2H76.57L93.3,4l23.441,0,28.475,0,31.387,0,32.545,0,31.972,0,29.245,0,24.888,0,18.441,0h3.347l-2-2q0,9.374.006,18.747.006,16.084.014,32.169l.018,37.032q.007,16.668.017,33.335,0,10.54.01,21.08v1.32l2-2-13.218,0-19.707,0-24.867,0-28.268.007-30.424.007-30.917.007-29.738.007-27.328.007-23.238,0-17.546,0H68.559l2,2q0-10.113,0-20.226,0-15.976,0-31.954,0-17.958,0-35.917,0-16.058.005-32.116,0-10.273,0-20.548V3.639c0-2.574-4-2.578-4,0q0,9.273,0,18.548,0,15.544,0,31.09,0,17.932,0,35.866,0,16.439,0,32.878,0,11.061,0,22.124v1.628a2.028,2.028,0,0,0,2,2l16.038,0,21.907,0,26.467-.006,29.254-.007,30.8-.007,30.686-.007,28.9-.007,25.878-.006,21.175,0,14.887,0H317.1a2.03,2.03,0,0,0,2-2q0-9.5-.01-19-.007-16.148-.016-32.3l-.018-37.039-.015-33.222q0-10.422-.007-20.845V2.033a2.028,2.028,0,0,0-2-2l-16.6,0-23.5,0-28.324,0L217.1.019l-32.544,0-31.844,0-29.4,0L98.5,0,79.927,0H68.578a2.028,2.028,0,0,0-2,2q0,.819,0,1.639C66.577,6.212,70.577,6.217,70.577,3.639Z"/>

<path class="b" d="M317.1,133.609l-13.218,0-19.707,0-24.867,0-28.268.007-30.424.007-30.917.007-29.738.007-27.328.006-23.238.006-17.546,0H68.559c-2.574,0-2.578,4,0,4l16.038,0,21.907,0,26.467-.006,29.254-.007,30.8-.007,30.686-.008,28.9-.006,25.878-.006,21.175,0,14.887,0H317.1c2.573,0,2.578-4,0-4Z"/>

<path class="f" d="M218.094,35.6c2.532-4.163,6.4-7.507,10.236-10.432,3.331-2.538,6.67-4.837,10.742-6.021,2.467-.717,1.417-4.578-1.064-3.857-4.5,1.308-8.2,3.762-11.879,6.563-4.342,3.3-8.626,7.021-11.489,11.728-1.342,2.2,2.116,4.217,3.454,2.019Z"/>

<path class="f" d="M187.273,20.484a11.211,11.211,0,0,1,5.178,1.081c.822.407,1.567.916,2.346,1.394.419.257-.292-.27.1.071.131.113.263.224.391.341.278.254.542.521.8.8a24.65,24.65,0,0,1,2.88,3.838c.408.64.8,1.292,1.165,1.957.164.3.323.6.474.9.071.144.477,1.064.227.459a2.066,2.066,0,0,0,2.46,1.4,2.013,2.013,0,0,0,1.4-2.461,30.132,30.132,0,0,0-5.909-9.059,15.713,15.713,0,0,0-11.511-4.713c-2.57.062-2.579,4.062,0,4Z"/>

<path class="a" d="M183.883,34.468a16.482,16.482,0,0,1,3.587-.036c.1.01.47.053.193.016.138.018.276.041.413.064q.467.078.927.181a17.375,17.375,0,0,1,1.821.511,13.666,13.666,0,0,1,3.017,1.457q.394.251.774.523c.03.022.314.235.211.155s.173.143.2.166a14.026,14.026,0,0,1,1.4,1.355,2,2,0,0,0,2.829-2.828,18.35,18.35,0,0,0-15.375-5.564,2.062,2.062,0,0,0-2,2,2.013,2.013,0,0,0,2,2Z"/>

<path class="g" d="M196.985,41.555a41.337,41.337,0,0,0-19.536-.747c-5.167,1.173-11.064,4.209-13.719,8.992-1.251,2.252,2.2,4.272,3.454,2.019,2.228-4.014,7.4-6.324,11.707-7.237a37.185,37.185,0,0,1,17.03.83c2.491.658,3.554-3.2,1.064-3.857Z"/>

<path class="a" d="M197.018,47.981a15.046,15.046,0,0,0-4.991,1.421,27.785,27.785,0,0,0-4.327,2.356,21.516,21.516,0,0,0-4.043,3.56c-.431.484-.845.984-1.245,1.494-.206.263-.412.527-.613.794-.264.35.352-.334.1-.142a2.01,2.01,0,0,0,0,2.828,2.052,2.052,0,0,0,2.829,0,2.732,2.732,0,0,0,.4-.511c.105-.138.392-.584.037-.051a13.652,13.652,0,0,1,1.132-1.376,18.888,18.888,0,0,1,3.283-3.052,27.434,27.434,0,0,1,3.9-2.194,14.645,14.645,0,0,1,1.927-.754c.315-.1.634-.191.957-.265.159-.037.337-.048.492-.1.153-.025.107-.02-.141.015.1-.011.2-.019.3-.024a2.048,2.048,0,0,0,2-2,2.016,2.016,0,0,0-2-2Z"/>

<path class="f" d="M200.1,52.773c-5.777,4.21-11.152,8.9-14.5,15.319a25.289,25.289,0,0,0-3.152,13.1c.147,2.559,4.148,2.576,4,0a20.82,20.82,0,0,1,2.606-11.083c3.037-5.8,7.835-10.069,13.069-13.883a2.059,2.059,0,0,0,.718-2.736,2.015,2.015,0,0,0-2.737-.718Z"/>

<path class="a" d="M204.471,56.88a13.705,13.705,0,0,0-1.984,5.073c-.357,1.565-.572,3.156-.9,4.726a2,2,0,0,0,3.857,1.064c.32-1.527.531-3.075.872-4.6a21.632,21.632,0,0,1,.7-2.514c.035-.1.071-.2.108-.293.027-.072.182-.4.036-.1s.012-.023.043-.091c.04-.089.082-.176.126-.264a6.863,6.863,0,0,1,.595-.982,2.006,2.006,0,0,0-.718-2.736,2.057,2.057,0,0,0-2.736.717Z"/>

<path class="a" d="M208.2,24.041c0,2.243,0,4.49.094,6.732a2,2,0,0,0,4,0c-.094-2.242-.094-4.489-.094-6.732a2,2,0,1,0-4,0Z"/>

<path class="a" d="M222.37,49.008c-.415.056.347-.02.484-.027.3-.018.6-.025.9-.024.651,0,1.3.04,1.952.107a16.462,16.462,0,0,1,1.74.278c.677.14,1.349.31,2.01.516a11.075,11.075,0,0,1,2.759,1.24q.789.474,1.552.992.378.255.748.521c.1.073.2.149.3.223.476.347-.283-.23.127.1a2.059,2.059,0,0,0,2.828,0,2.014,2.014,0,0,0,0-2.829A22.124,22.124,0,0,0,230.524,46a21.505,21.505,0,0,0-9.217-.85,2.012,2.012,0,0,0-1.4,2.46,2.054,2.054,0,0,0,2.46,1.4Z"/>

<path class="a" d="M242.459,57.537c2.574,0,2.578-4,0-4s-2.578,4,0,4Z"/>

<path class="g" d="M221.016,41.5c6.985-2.351,15.008-3.787,22.372-2.558,5.041.842,10.282,3.075,13.572,7.134a2.014,2.014,0,0,0,2.828,0,2.048,2.048,0,0,0,0-2.829c-3.669-4.527-9.711-7.22-15.337-8.162-8.1-1.357-16.782-.039-24.5,2.558-2.427.817-1.386,4.682,1.064,3.857Z"/>

<path class="g" d="M217.594,56.315c-.55-.053.1.036.224.069.213.056.421.124.629.2a14.641,14.641,0,0,1,1.428.584,37.78,37.78,0,0,1,3.543,1.9,33.292,33.292,0,0,1,5.739,4.467,34.864,34.864,0,0,1,5.025,5.425c1.649,2.469,2.954,5.159,4.494,7.7,1.334,2.2,4.8.19,3.454-2.018-1.608-2.648-2.943-5.493-4.723-8.033a41.35,41.35,0,0,0-5.888-6.334,37.342,37.342,0,0,0-6.532-4.923c-2.229-1.3-4.774-2.774-7.393-3.027a2.014,2.014,0,0,0-2,2,2.043,2.043,0,0,0,2,2Z"/>

<path class="a" d="M212.807,61.414a13.057,13.057,0,0,1,.751,1.329c.116.234.227.47.336.707.06.131.119.264.177.4.016.038.161.375.067.153-.105-.247.07.172.089.22.049.12.1.241.145.362q.117.3.23.595c.138.367.273.735.394,1.107a15.444,15.444,0,0,1,.487,1.892c.031.164.059.329.087.494s.035.257.009.04q.054.45.087.9c.064.909.048,1.818.046,2.729a2,2,0,0,0,4,0,22.543,22.543,0,0,0-.858-7.119,24.755,24.755,0,0,0-2.593-5.825,2,2,0,0,0-3.454,2.019Z"/>

<path class="h" d="M122.526,43.672a28.415,28.415,0,0,1,7.28-7.422,23.745,23.745,0,0,1,7.714-4.342c2.467-.717,1.417-4.578-1.063-3.857a26.944,26.944,0,0,0-8.8,4.846c-3.246,2.468-6.441,5.236-8.582,8.756-1.342,2.2,2.116,4.218,3.454,2.019Z"/>

<path class="h" d="M98.075,33.648a9.632,9.632,0,0,1,1.431.053c-.35-.043.143.032.23.05.184.037.366.081.547.13a8.978,8.978,0,0,1,1.038.35c-.388-.158.184.095.259.132q.239.12.473.251c.337.189.666.394.986.611q.222.151.44.309c.1.07.194.141.289.213l-.221-.168c.03.129.51.466.614.574.22.226.428.464.63.707.1.12.2.241.293.363-.288-.364.015.026.075.109.214.291.42.587.621.886q.585.873,1.111,1.784c.335.579.655,1.166.953,1.765.117.236.23.475.34.714.173.374.105.035-.017-.054.067.05.117.293.147.374a2.047,2.047,0,0,0,2.461,1.4,2.024,2.024,0,0,0,1.4-2.46,27.089,27.089,0,0,0-4.65-7.823,12.288,12.288,0,0,0-9.447-4.267,2,2,0,1,0,0,4Z"/>

<g class="i">

<path class="a" d="M95.6,44.3a12.07,12.07,0,0,1,2.619-.026c.437.043.017.051,0-.008a1.791,1.791,0,0,0,.3.047c.227.038.452.082.677.132a12.874,12.874,0,0,1,1.33.374c.194.066.383.144.576.212.233.082-.33-.154.017.006.093.043.186.085.278.129a11.509,11.509,0,0,1,1.2.662c.192.121.381.249.565.382.04.029.306.235.1.07s.054.049.092.08a10.4,10.4,0,0,1,1.024.989,2.014,2.014,0,0,0,2.828,0,2.044,2.044,0,0,0,0-2.828A13.9,13.9,0,0,0,95.6,40.3a2.051,2.051,0,0,0-2,2c.044.978.888,2.132,2,2Z"/>

</g>

<path class="j" d="M105.458,49.749a30.8,30.8,0,0,0-14.571-.54c-3.913.892-8.3,3.206-10.319,6.808-1.263,2.247,2.191,4.265,3.453,2.019,1.587-2.823,5.237-4.408,8.27-5.045a26.616,26.616,0,0,1,12.1.615c2.492.655,3.555-3.2,1.064-3.857Z"/>

<path class="h" d="M105.023,56.19c-4.275,3.117-8.264,6.58-10.757,11.328a19.037,19.037,0,0,0-2.4,9.889c.146,2.559,4.147,2.576,4,0-.025-.433-.038-.865-.027-1.3q.011-.409.045-.817c.014-.166.031-.332.05-.5-.056.471.024-.139.033-.187a17.921,17.921,0,0,1,1.754-5.071c2.143-4.08,5.482-7.093,9.322-9.892a2.058,2.058,0,0,0,.717-2.736,2.016,2.016,0,0,0-2.736-.718Z"/>

<path class="h" d="M110.214,61.309a10.4,10.4,0,0,0-1.5,3.832c-.261,1.143-.417,2.3-.658,3.451a2,2,0,0,0,3.858,1.064c.233-1.115.387-2.245.636-3.357a15.762,15.762,0,0,1,.513-1.836c.025-.071.052-.143.079-.214s.144-.352,0-.01c-.157.37.054-.11.1-.194a4.885,4.885,0,0,1,.434-.717,2.012,2.012,0,0,0,.2-1.542,2.047,2.047,0,0,0-.919-1.2,2.018,2.018,0,0,0-1.541-.2,2.3,2.3,0,0,0-1.2.919Z"/>

<g class="i">

<path class="a" d="M113.555,35.556c0,1.638,0,3.279.069,4.915a2.1,2.1,0,0,0,.586,1.414,2,2,0,0,0,2.828,0,2.013,2.013,0,0,0,.586-1.414c-.068-1.636-.068-3.277-.069-4.915a2.06,2.06,0,0,0-.586-1.414,2,2,0,0,0-3.414,1.414Z"/>

</g>

<g class="i">

<path class="a" d="M124.926,54.767c-.2.028-.378.039-.069.019.093-.005.186-.014.279-.019.22-.013.44-.018.66-.017a14.162,14.162,0,0,1,1.426.078c.109.011.219.024.328.037-.283-.032-.16-.023.049.01.251.04.5.085.75.137.494.1.985.226,1.467.376q.314.1.621.21s.48.182.208.075c-.24-.093.075.035.119.056a10.246,10.246,0,0,1,.938.51q.576.346,1.133.724.276.186.546.381c.075.053.148.109.223.163.375.272-.34-.273-.017-.01a2.051,2.051,0,0,0,2.829,0,2.023,2.023,0,0,0,0-2.829,16.852,16.852,0,0,0-5.537-3.137,16.32,16.32,0,0,0-7.016-.621,2.005,2.005,0,0,0-1.4,2.461,2.064,2.064,0,0,0,2.46,1.4Z"/>

</g>

<path class="j" d="M123.892,49.117c7.906-2.647,19.721-4.157,25.719,3.2a2.013,2.013,0,0,0,2.828,0,2.045,2.045,0,0,0,0-2.828c-2.753-3.378-7.27-5.407-11.482-6.106a38.385,38.385,0,0,0-18.128,1.875c-2.429.813-1.388,4.678,1.063,3.858Z"/>

<path class="j" d="M121.4,60.252c-.7-.067.273.1.479.174a5.976,5.976,0,0,1,.914.372,27.557,27.557,0,0,1,2.586,1.387q.7.42,1.371.882c.228.158.455.318.676.486-.243-.185.038.032.122.1.657.546,1.291,1.121,1.912,1.708.733.692,1.451,1.4,2.141,2.137.305.324.605.653.9.992.128.15.259.3.379.456-.271-.352.121.193.17.267,1.2,1.8,2.157,3.767,3.281,5.619,1.335,2.2,4.8.189,3.454-2.019-1.174-1.934-2.148-4.011-3.448-5.865a30.854,30.854,0,0,0-4.384-4.734,27.971,27.971,0,0,0-4.878-3.679,14.56,14.56,0,0,0-5.67-2.284,2.014,2.014,0,0,0-2,2,2.043,2.043,0,0,0,2,2Z"/>

<g class="i">

<path class="a" d="M116.1,63.412a9.351,9.351,0,0,1,.548.97q.127.256.246.516l.129.29c.026.059.143.336.022.047-.129-.306.01.027.038.1l.106.264c.057.145.112.289.167.435.1.267.2.536.288.808A11.375,11.375,0,0,1,118,68.219c.023.12.041.241.063.361.048.269-.014,0-.013-.114,0,.214.049.443.064.657.047.664.035,1.328.033,1.993a2,2,0,0,0,4,0,16.926,16.926,0,0,0-.646-5.341,18.583,18.583,0,0,0-1.947-4.382,2,2,0,0,0-3.454,2.019Z"/>

</g>

<path class="k" d="M287.562,12.657c-6.152.656-14.013,3.4-15.873,10.045a8.133,8.133,0,0,0,.115,5.1,15.032,15.032,0,0,0,2.788,4.1,5.02,5.02,0,0,1,1.558,3.287,1.949,1.949,0,0,1-.337.985,7.591,7.591,0,0,1-1.108,1.272c-1.965,1.931-4.339,3.86-4.236,6.9a6.815,6.815,0,0,0,3.866,5.794c4.78,2.465,10.96,2.159,16.168,1.889,5.615-.29,11.162-1.236,16.764-1.6,2.556-.165,2.575-4.166,0-4-4.365.282-8.7.989-13.064,1.347-5.1.42-10.714.859-15.595-.325-.476-.115-.949-.249-1.411-.41a4.062,4.062,0,0,1-1.082-.483c-.178-.1-.348-.209-.519-.318-.377-.24.051.083-.186-.14-.136-.127-.265-.256-.4-.389-.047-.047-.246-.311-.088-.1.171.233-.094-.163-.1-.175a2.36,2.36,0,0,1-.173-2.051,9.354,9.354,0,0,1,2.171-2.444c2.083-1.955,3.695-4.028,3.215-7.047a8.888,8.888,0,0,0-2.01-4.083,18.369,18.369,0,0,1-2.339-3.069c-1.277-2.606.832-5.488,2.9-6.938a19.368,19.368,0,0,1,8.976-3.158,2.059,2.059,0,0,0,2-2,2.012,2.012,0,0,0-2-2Z"/>

<path class="a" d="M209.546,80.212a39.7,39.7,0,0,0,.326,4.45,27.655,27.655,0,0,0,.7,4.367,2,2,0,1,0,3.857-1.063,13.873,13.873,0,0,1-.322-1.565c-.061-.37-.109-.741-.165-1.111.019.127.064.489.021.152-.012-.092-.024-.183-.035-.275-.026-.206-.05-.412-.074-.618a39.346,39.346,0,0,1-.313-4.337,2,2,0,1,0-4,0Z"/>

<g class="i">

<path class="a" d="M113.74,79.973A217.733,217.733,0,0,0,115,102.1a2.056,2.056,0,0,0,2,2,2.014,2.014,0,0,0,2-2,217.733,217.733,0,0,1-1.257-22.122c.011-2.575-3.989-2.578-4,0Z"/>

</g>

<g class="i">

<path class="a" d="M88.642,87.049c.142,4.008.525,8.024.905,12.015a2.044,2.044,0,0,0,2,2,2.022,2.022,0,0,0,2-2c-.38-3.991-.763-8.007-.905-12.015a2,2,0,0,0-4,0Z"/>

</g>

<path class="g" d="M267.753,127.038c2.289-.144,4.59-.1,6.883-.152a2,2,0,0,0,0-4c-2.293.05-4.594.008-6.883.152a2,2,0,0,0,0,4Z"/>

<path class="j" d="M90.617,129.9c2-.261,4.01-.456,6.023-.533a2,2,0,0,0,0-4c-2.013.077-4.026.272-6.023.533a2.194,2.194,0,0,0-1.414.586,2,2,0,0,0,0,2.828,1.913,1.913,0,0,0,1.414.586Z"/>

<path class="h" d="M110.3,132.071q2.682-.183,5.364-.37a2.122,2.122,0,0,0,1.414-.586,2,2,0,0,0,0-2.828,1.981,1.981,0,0,0-1.414-.586q-2.682.188-5.364.37a2.123,2.123,0,0,0-1.415.586,2,2,0,0,0,0,2.828,1.983,1.983,0,0,0,1.415.586Z"/>

<path class="k" d="M77.393,120.008c8.609-.523,17.245-.712,25.864-.987,9.983-.319,19.967-.624,29.953-.847,1.42-.032,2.842-.073,4.263-.079a2.032,2.032,0,0,1,1.846.7,1.79,1.79,0,0,1-.063,2.514,2.058,2.058,0,0,0-.717,2.736,2.014,2.014,0,0,0,2.736.718,5.846,5.846,0,0,0,.954-8.7c-1.505-1.735-3.537-1.989-5.678-1.956-3.857.06-7.714.169-11.57.273q-17.247.463-34.49,1.071c-4.366.158-8.737.292-13.1.557-2.557.155-2.575,4.156,0,4Z"/>

<path class="k" d="M134.191,125.664c10.069-.24,20.117-1.148,30.189-1.323a8.593,8.593,0,0,1,3.863.524,4.254,4.254,0,0,1,2.367,3.94c.1,2.565,4.1,2.578,4,0a8.37,8.37,0,0,0-7.037-8.283,37.066,37.066,0,0,0-7.507-.05c-6.5.246-13,.583-19.506.9-2.121.1-4.245.239-6.369.29-2.569.061-2.579,4.061,0,4Z"/>

<path class="k" d="M120.809,118.011c5.058-2.847,10.327-5.345,15.572-7.824,6.281-2.969,12.614-5.873,19.093-8.386a53.477,53.477,0,0,1,6.762-2.27,36.908,36.908,0,0,1,14.52-.5c9.313,1.535,17.536,6.137,25.6,10.8,3.227,1.865,6.633,3.445,10,5.031s6.745,3.149,10.192,4.547a2.014,2.014,0,0,0,2.46-1.4,2.049,2.049,0,0,0-1.4-2.46c-2.661-1.079-5.915-2.586-8.782-3.93-3.184-1.493-6.373-3-9.462-4.687-8.124-4.432-15.975-9.245-25.129-11.287a42.008,42.008,0,0,0-23.646,1.477c-6.635,2.411-13.093,5.351-19.491,8.325-6.171,2.869-12.378,5.769-18.312,9.109-2.244,1.262-.23,4.719,2.019,3.454Z"/>

<path class="k" d="M199.719,106.094a47.949,47.949,0,0,1,10.305-4.734,60.176,60.176,0,0,1,6.062-1.9,10.331,10.331,0,0,1,3.83-.453c.087.006.385.045-.033-.011.179.024.358.054.536.086.324.057.646.124.968.2.776.174,1.545.384,2.308.61,1.805.533,3.581,1.159,5.342,1.818,4.114,1.538,8.154,3.269,12.168,5.049,3.712,1.646,7.393,3.359,11.088,5.04a2.061,2.061,0,0,0,2.737-.718,2.016,2.016,0,0,0-.718-2.736c-7.638-3.475-15.239-7.051-23.077-10.062a49.688,49.688,0,0,0-10.288-3.14c-3.554-.53-7.137.69-10.467,1.826-4.319,1.473-8.961,3.12-12.779,5.672-2.13,1.424-.13,4.89,2.018,3.454Z"/>

<path class="k" d="M307.4,109.269c-6.382,0-12.766-.122-19.148-.193q-14.922-.165-29.847-.274c-4.188-.024-8.377-.041-12.566-.024a69.763,69.763,0,0,0-8.867.254c-2.916.387-6.164,1.625-7.258,4.615a5.647,5.647,0,0,0,2.9,6.97,11.281,11.281,0,0,0,4.845.936c2.084.014,4.169.048,6.254.065a16.461,16.461,0,0,1,2.619.061,1.644,1.644,0,0,1,.977.45,1.208,1.208,0,0,1-.059,1.262c-.75.9-2.205.791-3.252.791l-3.1.006q-4.1.01-8.2.027-8.67.03-17.341.056-1.609,0-3.219,0c-2.574,0-2.578,4,0,4,10.621,0,21.243-.083,31.864-.093,2.868,0,6.278-.759,7.233-3.892a5.081,5.081,0,0,0-3.167-6.285c-1.742-.61-3.772-.378-5.582-.4-2-.024-4.018.045-6.012-.075a4.166,4.166,0,0,1-2.748-.951,1.684,1.684,0,0,1,.2-2.245c2.127-2.091,6.667-1.517,9.459-1.541,3.865-.034,7.732-.024,11.6-.008,9.876.041,19.751.144,29.627.251,7.224.079,14.448.188,21.672.229.375,0,.749,0,1.123,0,2.574,0,2.578-4,0-4Z"/>

<path class="g" d="M85.513,20.968a4.6,4.6,0,0,0-2.7-1.516.6.6,0,0,1-.151-1.133,5.974,5.974,0,0,0,2.558-2.157,6.868,6.868,0,0,0,.944-2.251.587.587,0,0,1,1.1-.112,5.555,5.555,0,0,0,2,2.395,9.064,9.064,0,0,0,2.073.9.6.6,0,0,1,.122,1.1,6.515,6.515,0,0,0-2.7,2.513,5.224,5.224,0,0,0-.638,2.128.588.588,0,0,1-1.109.21A9.518,9.518,0,0,0,85.513,20.968Z"/>

<path class="g" d="M159.587,75.19a4.6,4.6,0,0,0-2.7-1.516.6.6,0,0,1-.151-1.133,5.978,5.978,0,0,0,2.558-2.156,6.883,6.883,0,0,0,.944-2.252.587.587,0,0,1,1.1-.112,5.555,5.555,0,0,0,2,2.395,9.019,9.019,0,0,0,2.073.9.6.6,0,0,1,.122,1.1,6.515,6.515,0,0,0-2.7,2.513,5.228,5.228,0,0,0-.638,2.128.588.588,0,0,1-1.109.21A9.508,9.508,0,0,0,159.587,75.19Z"/>

<path class="g" d="M255.291,18.005a4.6,4.6,0,0,0-2.7-1.516.6.6,0,0,1-.151-1.133A5.978,5.978,0,0,0,255,13.2a6.862,6.862,0,0,0,.945-2.252.587.587,0,0,1,1.1-.112,5.559,5.559,0,0,0,2,2.395,9.062,9.062,0,0,0,2.073.9.6.6,0,0,1,.123,1.1,6.515,6.515,0,0,0-2.7,2.513,5.208,5.208,0,0,0-.638,2.128.588.588,0,0,1-1.109.21A9.551,9.551,0,0,0,255.291,18.005Z"/>

</svg>