<?xml version="1.0" encoding="utf-8"?>
<!-- Uploaded to: SVG Repo, www.svgrepo.com, Generator: SVG Repo Mixer Tools -->
<svg width="800px" height="800px" viewBox="0 -114.68 473.028 473.028" xmlns="http://www.w3.org/2000/svg"><defs><style>.a{fill:#ffffff;}.b{fill:#211715;}.c{fill:#3f88c9;}.d{fill:#6dbf6b;}.e{fill:#957f6e;}.f{fill:#bdbdbd;}.g{fill:#a0a0a0;}.h{fill:#94d1e6;}</style></defs><path class="a" d="M9.7,2.027H2c0,6.5,0,191.711,0,197.933,28.842,0,295.463-.248,334.847-.287.033-66.648.076-193.548.077-197.674C300.466,2,63.457,2.023,9.7,2.027Z"/><path class="b" d="M310.247,201.67h.012v-4c-2.5.023-5,.005-7.5.008l-20.378.021-30.349.031-37.413.038-41.567.041q-21.494.023-42.987.042l-41.135.039-36.552.034-29.057.024q-9.352.007-18.706.012H2l2,2v-21.44q0-23.2,0-46.393V2.028l-2,2H17.6l26.261,0,34.417,0,40.206,0,43.1,0,43.6,0,41.729,0,36.942,0,29.8,0,20.166,0h3.114l-2-2q0,16.524-.021,33.048-.022,32.733-.046,65.466l-.027,39.092c0,2.573,4,2.578,4,0q.024-34.908.049-69.816.019-27.606.037-55.213,0-6.288.008-12.577a2.03,2.03,0,0,0-2-2h-17.42l-27.68,0-35.443,0-40.845,0L172.2.014l-43.45,0-41.186,0-36.009,0-28.473,0L4.639.028H2a2.029,2.029,0,0,0-2,2V125.453q0,24.183,0,48.368v26.14a2.029,2.029,0,0,0,2,2q7.863,0,15.728-.009l26.8-.022,35-.031,40.29-.038,42.672-.041,42.313-.042,38.689-.039,32.332-.033,23.065-.024c3.632,0,7.277.084,10.907-.012.155,0,.31,0,.464,0a2,2,0,0,0,0-4h-.012c-2.574,0-2.578,4,0,4Z"/><path class="a" d="M84.945,120.452c.021,10.162.072,33.5.072,36.8l33.121-.067c0-4.57,0-39.42,0-41.4h-33.2C84.936,116.079,84.94,117.825,84.945,120.452Z"/><path class="a" d="M140.443,101.164c0-3.563-.007-5.857-.007-6.128h33.2v62.031l-33.134.074C140.505,153.07,140.46,116.048,140.443,101.164Z"/><path class="c" d="M195.931,81.022c0-3.993-.006-6.494-.006-6.738h33.2v82.655c-10.686.024-21.848.05-33.123.078C196.005,151.779,195.95,99.836,195.931,81.022Z"/><path class="b" d="M87.017,157.268c0-12.079-.046-24.159-.071-36.238q0-2.622-.01-5.242l-2,2h33.2l-2-2V157.2c0,2.574,4,2.578,4,0V115.788a2.028,2.028,0,0,0-2-2h-33.2a2.029,2.029,0,0,0-2,2c0,11.62.049,23.241.071,34.862q.006,3.309.01,6.618c0,2.574,4,2.578,4,0Z"/><path class="b" d="M142.505,157.153q0-11.418-.023-22.836-.018-15.81-.037-31.619,0-3.831-.009-7.662l-2,2h33.2l-2-2v62.048c0,2.574,4,2.578,4,0V95.036a2.029,2.029,0,0,0-2-2h-33.2a2.029,2.029,0,0,0-2,2q0,10.145.024,20.291.018,16.167.037,32.333,0,4.746.008,9.493c0,2.574,4,2.578,4,0Z"/><path class="b" d="M198.005,157.026q0-15.156-.027-30.314-.021-21.183-.044-42.367,0-5.031-.009-10.061l-2,2h33.2l-2-2v82.662c0,2.573,4,2.578,4,0V74.284a2.03,2.03,0,0,0-2-2h-33.2a2.028,2.028,0,0,0-2,2q0,13.411.027,26.824.023,21.672.043,43.345.006,6.287.01,12.573c0,2.574,4,2.578,4,0Z"/><path class="b" d="M253.3,154.768q-11.9,0-23.793.052-20.649.057-41.3.124l-48.569.149q-22.6.069-45.2.13-15.617.04-31.233.063H60.778c-2.573,0-2.578,4,0,4q14.493,0,28.984-.052,21.976-.055,43.951-.124,24.362-.072,48.723-.15,21.422-.066,42.843-.129,13.19-.038,26.38-.063H253.3c2.574,0,2.578-4,0-4Z"/><path class="d" d="M233.867,44.836a1.845,1.845,0,0,0-1.434-1.324,14.492,14.492,0,0,0-7.594,0,17,17,0,0,0-8.433,4.983,14.354,14.354,0,0,0-3.316,10.752.552.552,0,0,0,.433.476c1.734.463,8.861,1.954,14.528-1.895a14.525,14.525,0,0,0,5.73-7.131A12.048,12.048,0,0,0,233.867,44.836Z"/><path class="b" d="M235.8,44.3c-.87-3.011-4.742-3.36-7.387-3.289a19.241,19.241,0,0,0-8.781,2.424,16.01,16.01,0,0,0-8.584,15.541c.234,2.467,2.289,2.847,4.307,3.135,4.874.694,10.055.072,14.143-2.861a17.516,17.516,0,0,0,4.965-5.247,13.416,13.416,0,0,0,1.337-9.7,2.019,2.019,0,0,0-2.46-1.4,2.041,2.041,0,0,0-1.4,2.46,9.072,9.072,0,0,1-.636,6.086,13.313,13.313,0,0,1-3.354,3.985c-.1.082-.2.161-.3.238.339-.263-.069.046-.121.082-.163.114-.325.232-.491.343a12.35,12.35,0,0,1-2.951,1.487,16.456,16.456,0,0,1-5.719.8,24.23,24.23,0,0,1-3.891-.488,2.213,2.213,0,0,0-.281-.069c-.516-.009.714,1.683.835,1.038a3.669,3.669,0,0,0-.036-.685A14.035,14.035,0,0,1,215.1,56a12.128,12.128,0,0,1,4.611-7.849,15.919,15.919,0,0,1,5.663-2.708,14.167,14.167,0,0,1,4.243-.409,9.724,9.724,0,0,1,1.7.252c.2.047.394.118.591.157.5.1.138.274.038-.073C232.652,47.836,236.513,46.786,235.8,44.3Z"/><path class="d" d="M191.259,44.836a1.845,1.845,0,0,1,1.434-1.324,14.492,14.492,0,0,1,7.594,0,17,17,0,0,1,8.434,4.983,14.363,14.363,0,0,1,3.316,10.752.552.552,0,0,1-.434.476c-1.733.463-8.86,1.954-14.527-1.895a14.531,14.531,0,0,1-5.731-7.131A12.061,12.061,0,0,1,191.259,44.836Z"/><path class="b" d="M193.188,45.368c-.11.378-.477.126,0,.075a1.738,1.738,0,0,0,.332-.084,7.88,7.88,0,0,1,1.333-.272,12.644,12.644,0,0,1,3.73.1,15.7,15.7,0,0,1,6.069,2.415,12.178,12.178,0,0,1,5.2,7.441,10.343,10.343,0,0,1,.266,2.045,14.306,14.306,0,0,0-.026,1.778c.12.646,1.351-1.047.836-1.038a2.3,2.3,0,0,0-.281.069c-.242.039-.481.108-.721.155a13.573,13.573,0,0,1-1.915.265,15.442,15.442,0,0,1-10.417-2.563s-.4-.3-.185-.133c.167.127-.333-.27-.387-.315q-.52-.436-1-.915a11.861,11.861,0,0,1-1.743-2.151,9.134,9.134,0,0,1-1.089-6.877,2.053,2.053,0,0,0-1.4-2.46,2.017,2.017,0,0,0-2.46,1.4,13.658,13.658,0,0,0,.83,8.75A15.646,15.646,0,0,0,194.5,58.39a18.8,18.8,0,0,0,13.512,3.932c1.463-.121,4.039-.163,5.181-1.28,1.34-1.311,1-3.858.772-5.546a16.03,16.03,0,0,0-6.979-11.127,19.273,19.273,0,0,0-9-3.268c-2.871-.307-7.671-.186-8.65,3.2C188.614,46.782,192.473,47.84,193.188,45.368Z"/><path class="b" d="M210.547,60.564c0,4.356-.027,8.713-.027,13.069a2,2,0,1,0,4,0c0-4.356.026-8.713.027-13.069a2,2,0,1,0-4,0Z"/><path class="e" d="M428.818,149.018c7.737,2.984,14.015-3.951,13.966-9.774a30.383,30.383,0,0,0-1.672-9.744c-1.376-4.286-4.043-12.992-4.236-28.548a97.433,97.433,0,0,0-.188-13.135c-.6-8.427-4.368-17.838-9.79-23.069a33.164,33.164,0,0,0-11.7-7.691c-3.769-1.452-7.273-2.15-13.887-2.15a38.563,38.563,0,0,0-24.777,9.686c-7.105,6.8-11.612,19.227-11.044,36.359,0,12.486-.949,21.491-2.282,26.608a64.181,64.181,0,0,0-1.713,12.9c-.049,5.822,5.818,12.207,14.468,10.234Z"/><path class="a" d="M383.762,154.618c2.963,1.8,9.333,3.724,17.333,3.724,10.371,0,14.222-2.963,18.222-5.177l.1-8.921c-2.438-1.648-4.757-3.461-5.251-4.683a15.526,15.526,0,0,1-.6-5.619c6.906-2.962,12.461-12.258,13.43-14.888.141-.428.424-1.222.682-2.17l.8-.123a6.963,6.963,0,0,0,3.242-1.462,10.512,10.512,0,0,0,2.72-3.569,16.55,16.55,0,0,0,1.687-8.771,5.532,5.532,0,0,0-.578-2.221,3.907,3.907,0,0,0-2.808-1.867,4.135,4.135,0,0,0-3.309.968l-1.69,1.528a45.569,45.569,0,0,0-6.568-13.5,15.222,15.222,0,0,0-15.14-6.034l-.139.028c-12.669,3.383-26.777,11.08-31.321,18.78a3.948,3.948,0,0,0-3.958-1.773,3.907,3.907,0,0,0-2.808,1.867,5.532,5.532,0,0,0-.578,2.221,16.54,16.54,0,0,0,1.687,8.771,10.512,10.512,0,0,0,2.72,3.569,6.676,6.676,0,0,0,4.258,1.528,28.067,28.067,0,0,0,5.353,10.462,23.691,23.691,0,0,0,8.663,6.776,15.28,15.28,0,0,1-.6,5.5c-.483,1.194-2.9,2.95-5.5,4.564C383.813,144.125,383.762,152.12,383.762,154.618Z"/><path class="b" d="M430.847,101.254a2.064,2.064,0,0,1,2.909.383,4.5,4.5,0,0,1,.426,2.286,13.764,13.764,0,0,1-.191,2.831c-.614,3.362-2.3,7.407-6.044,8.078a2.018,2.018,0,0,0-1.4,2.46,2.045,2.045,0,0,0,2.461,1.4c5.873-1.053,8.678-7.675,9.12-13,.23-2.768-.022-5.886-2.412-7.672a6.169,6.169,0,0,0-7.7.407,2.016,2.016,0,0,0,0,2.829,2.045,2.045,0,0,0,2.829,0Z"/><path class="b" d="M375.341,98.425a6.171,6.171,0,0,0-7.7-.407c-2.393,1.78-2.641,4.91-2.412,7.672.442,5.324,3.247,11.946,9.12,13a2.057,2.057,0,0,0,2.461-1.4,2.018,2.018,0,0,0-1.4-2.46c-3.741-.671-5.43-4.716-6.044-8.078a13.724,13.724,0,0,1-.194-2.67,5.213,5.213,0,0,1,.362-2.336,2.048,2.048,0,0,1,2.976-.494,2.057,2.057,0,0,0,2.829,0,2.017,2.017,0,0,0,0-2.829Z"/><path class="b" d="M375.431,148.76a10.012,10.012,0,0,1-9.843-2.923c-2.356-2.657-2.187-5.832-1.875-9.151a105.7,105.7,0,0,1,1.929-10.815,89.805,89.805,0,0,0,1.373-10.843c.374-4.976.565-10,.45-14.989a69.432,69.432,0,0,1,.963-13.96c1.261-6.971,3.774-14.121,8.769-19.321,5.364-5.586,13.654-9.059,21.287-9.726,8.389-.733,16.871.906,23.621,6.148a29.5,29.5,0,0,1,7.4,8.176,38.9,38.9,0,0,1,4.7,12.721,66.442,66.442,0,0,1,.827,11.292c.031,2.268-.18,4.533-.133,6.8.053,2.509.174,5.018.379,7.52a89.076,89.076,0,0,0,3.536,19.167c1.118,3.6,2.531,7.716,1.891,11.544a9.082,9.082,0,0,1-5.947,6.988,8.2,8.2,0,0,1-5.4-.3c-2.421-.887-3.465,2.978-1.063,3.858a11.906,11.906,0,0,0,12.2-2.405,13.337,13.337,0,0,0,4.232-11.09c-.246-3.906-1.447-7.5-2.522-11.223a78.442,78.442,0,0,1-2.066-9.3,106.286,106.286,0,0,1-1.227-14.286c-.059-2.424.155-4.846.122-7.274-.029-2.1-.124-4.206-.257-6.306-.578-9.113-3.607-18.889-10.214-25.488a35.232,35.232,0,0,0-22.53-10.516,41.641,41.641,0,0,0-27.772,7.547c-6.143,4.481-10,11.061-12.2,18.254a61.791,61.791,0,0,0-2.439,13.992c-.364,5.449-.063,10.923-.274,16.38a114.91,114.91,0,0,1-1.1,12.957c-.56,3.656-1.587,7.206-2.1,10.875-.573,4.13-1.284,8.486.5,12.412a13.171,13.171,0,0,0,8.955,7.212,15.91,15.91,0,0,0,6.9-.07c2.516-.54,1.451-4.4-1.063-3.858Z"/><path class="b" d="M405.364,79.935a79.81,79.81,0,0,0-18.765,7.73c-4.987,2.857-9.947,6.375-13.247,11.165-1.464,2.125,2,4.127,3.454,2.019,2.968-4.309,7.691-7.4,12.17-9.934a75.542,75.542,0,0,1,17.451-7.123c2.483-.671,1.429-4.53-1.063-3.857Z"/><path class="b" d="M404.833,77.718c10.853,4.07,17.831,13.691,21.079,24.5.739,2.459,4.6,1.412,3.857-1.063a47.5,47.5,0,0,0-7.889-15.646A36.264,36.264,0,0,0,405.9,73.86a2.017,2.017,0,0,0-2.46,1.4,2.044,2.044,0,0,0,1.4,2.461Z"/><path class="b" d="M426.218,113.629a15.43,15.43,0,0,1-.9,4.15c-.082.248-.177.493-.249.744-.039.133-.2.463.042-.081-.131.294-.266.584-.41.871a35.387,35.387,0,0,1-3.047,4.9c-2.632,3.61-6.219,7.431-10.7,8.482-2.5.588-1.445,4.446,1.063,3.857,5.476-1.284,9.719-5.756,12.94-10.117,2.778-3.761,5.064-8.025,5.258-12.8.1-2.574-3.9-2.57-4,0Z"/><path class="b" d="M373.37,114.91c2.278,10.706,10.088,21.235,21.63,22.474a2.014,2.014,0,0,0,2-2,2.045,2.045,0,0,0-2-2c-4.638-.5-8.586-3.3-11.625-6.686a27.5,27.5,0,0,1-6.148-12.851c-.535-2.517-4.392-1.452-3.857,1.063Z"/><path class="b" d="M411.566,133.946a29.242,29.242,0,0,0,.119,3.6,7.8,7.8,0,0,0,1.048,3.542c1.415,2.044,3.652,3.508,5.678,4.882a2.012,2.012,0,0,0,2.736-.717,2.05,2.05,0,0,0-.717-2.737c-.483-.327-.963-.66-1.435-1-.254-.184-.5-.372-.755-.561.16.121.093.073-.026-.022s-.229-.183-.343-.276c-.376-.308-.743-.626-1.092-.964-.152-.147-.3-.3-.444-.456-.069-.077-.135-.172-.211-.243-.169-.159.263.4.063.077-.079-.126-.149-.275-.235-.394-.1-.14.128.4.061.13-.033-.129-.087-.255-.124-.384-.069-.24-.125-.483-.171-.728-.026-.14-.048-.28-.07-.421.028.186.026.225.008.015-.1-1.114-.1-2.226-.09-3.342a2,2,0,1,0-4,0Z"/><path class="b" d="M387.912,134.065c.007,1.095-.01,2.18-.094,3.272-.03.394.041-.184,0,.056-.021.109-.036.219-.057.328a7.612,7.612,0,0,1-.19.789,1.669,1.669,0,0,0-.124.374c-.014-.049.2-.372.073-.177-.043.064-.082.135-.119.2-.091.163-.242.182.1-.107-.284.241-.515.573-.794.827-.185.169-.376.332-.57.491-.082.068-.166.135-.25.2-.411.33.2-.137-.059.045-.992.7-1.985,1.389-3.018,2.032a2,2,0,0,0,2.019,3.454c1.1-.686,2.19-1.4,3.221-2.186a12.629,12.629,0,0,0,2.659-2.527,6.916,6.916,0,0,0,1.04-3.2,27.727,27.727,0,0,0,.169-3.876,2,2,0,0,0-4,0Z"/><path class="a" d="M419.851,241.676a46.74,46.74,0,0,1-1.828-6.564c-.466-2.882-.925-5.927-1.317-9.223-7.517.059-27,.448-31.24.448h-1.085c-.39,3.124-.829,6.024-1.274,8.775a46.863,46.863,0,0,1-1.827,6.564Z"/><path class="f" d="M438.231,198.422c.756-3.221,1.522-7.22,2.255-11.57h18.737c-3.9-10.174-4.581-16.01-8.478-26.184a14.673,14.673,0,0,0-3.052-4.982c-1.313-1.406-3.345-1.8-5.077-2.635-5.1-2.464-13.5-4.968-19.1-7.6-1.184-1.443-2.435-2.9-3.812-4.436l-3.3-.754c1.228,10.747.605,21.61-.02,32.409-.236,4.1-.716,12.2-.937,21.381-.071,2.967-.115,6.045-.115,9.136a188.953,188.953,0,0,0,2.691,31.93,46.74,46.74,0,0,0,1.828,6.564h19.578c-1.671-11.791-3.134-26.3-3.134-28.9A63.3,63.3,0,0,1,438.231,198.422Z"/><path class="f" d="M383.107,235.112a188.953,188.953,0,0,0,2.691-31.93c0-12.653-.739-25.1-1.052-30.517-.625-10.8-1.248-21.662-.02-32.409l-2.528.754c-1.185,1.323-2.278,2.588-3.307,3.841-5.542,2.853-14.845,5.549-20.333,8.2-1.731.837-3.764,1.229-5.076,2.635a14.66,14.66,0,0,0-3.053,4.982c-2.389,6.237-3.57,10.844-5.025,15.82-.949,3.245-2.014,6.647-3.606,10.76-2.234-5.232-4.188-10.086-6.4-15.533-5.608,2.952-14.537,7.043-20.144,8.262,2.8,8.94,5.6,18.565,9.534,27.515,2.737,6.222,5.669,12.6,12.373,13.685a16.615,16.615,0,0,0,12.691-3.926,114.6,114.6,0,0,0,10.876-12.045l.9-1.179,1.935-2.53a56.816,56.816,0,0,1,1.271,11.277c0,2.606-1.463,17.111-3.134,28.9H381.28A46.863,46.863,0,0,0,383.107,235.112Z"/><path class="a" d="M327.324,149.739a7.617,7.617,0,0,1-1.769-3.365c-.473-2.162-1.622-5-3.919-5.136a2.086,2.086,0,0,0-2.2,1.758s-.148.5-.386,1.31a9.493,9.493,0,0,0-1.665-.454c-3.984-.73-8.336.152-8.478,2.211-.182,1.024.082,1.934.889,3.549-.708.708-1.221,2.741-.681,3.175,0,0,.161.487.346,1.041a2.658,2.658,0,0,0-2.608.8c-.817.9-1.44,2.827-.454,3.532.434.31.818.622,1.189.926l-.06-.009c-1.655-.574-3.955.887-3.818,2.4a4.791,4.791,0,0,0,1.976,3l.136.107.679,1.126a26.456,26.456,0,0,0,6.316,7.146c.714.56,1.458,1.084,2.148,1.673a14.7,14.7,0,0,1,2.919,3.387l.467.815c3.109-1.152,10.738-4.019,14.694-5.932-.075-.623-.127-1.081-.127-1.081-.608-8.042-.9-15.862-2.331-18.078A36.648,36.648,0,0,0,327.324,149.739Z"/><path class="b" d="M310.2,163.366c.058.08.216.407.065.061-.189-.432.014.321-.045-.153-.049-.4-.008.027-.01.123,0,.05-.009.1-.007.152.008.237.105-.5.023-.172-.025.1-.045.206-.074.307-.021.075-.183.5-.04.153s-.036.052-.077.121a.822.822,0,0,0-.077.121c-.051.157.266-.285.148-.187a.649.649,0,0,0-.118.122c-.081.119.212-.167.227-.17a1.578,1.578,0,0,0-.333.2c-.168.108.214-.084.214-.083a1.661,1.661,0,0,0-.167.06,3.788,3.788,0,0,1-.467.126c-.452.092.328,0-.015,0-.122,0-.242.01-.364,0-.076,0-.166-.022-.239-.016,0,0,.438.089.244.026-.155-.05-.321-.1-.477-.142-.211-.06.137.047.146.067-.014-.029-.163-.077-.194-.093-.151-.074-.3-.154-.443-.239a10.13,10.13,0,0,1-.843-.563,1.939,1.939,0,0,0-.233-.174c.008,0,.293.234.119.09-.121-.1-.243-.195-.361-.3-.238-.209-.449-.439-.667-.668-.254-.267.184.283-.021-.02-.087-.128-.173-.256-.25-.391-.032-.057-.061-.116-.093-.173-.168-.3.047.072.046.124a1.82,1.82,0,0,0-.138-.486c.01.015.011.388.035.24a.657.657,0,0,0,0-.133c-.023-.308-.071.559-.006.137a.566.566,0,0,1,.043-.128c.055-.012-.236.427-.106.268.045-.056.309-.461.08-.158-.217.286.075-.052.148-.129.031-.033.092-.064.116-.1-.058.1-.4.27-.112.092.106-.065.209-.133.32-.192a1.186,1.186,0,0,0,.192-.1c-.046.043-.438.156-.178.08.138-.04.272-.088.413-.119.051-.011.107-.016.157-.03.2-.055-.523.015-.163.03.119.006.245.009.365.009.243,0-.44-.128-.225-.025a1.9,1.9,0,0,0,.248.07,2.018,2.018,0,0,0,2.46-1.4,2.044,2.044,0,0,0-1.4-2.46A5.26,5.26,0,0,0,303,158.5a4.155,4.155,0,0,0-1.276,2.626,4.679,4.679,0,0,0,.784,2.794,8.186,8.186,0,0,0,1.879,2.062,11.647,11.647,0,0,0,2.413,1.587,5.656,5.656,0,0,0,3.153.52,5.145,5.145,0,0,0,2.8-1.191c1.378-1.231,2.04-3.971.9-5.549a2.171,2.171,0,0,0-1.195-.919,2,2,0,0,0-2.259,2.938Z"/><path class="b" d="M311.683,152.554a5.786,5.786,0,0,0-4.029-.65,4.829,4.829,0,0,0-2.811,2.084,5.48,5.48,0,0,0-.938,3.2,3.465,3.465,0,0,0,.54,1.761,3.4,3.4,0,0,0,.948.939c.1.075.2.148.305.224-.313-.234.175.142.234.189,1.377,1.116,2.834,2.123,4.26,3.175a11.077,11.077,0,0,0,1.819,1.168,4.9,4.9,0,0,0,3.471.219,4.551,4.551,0,0,0,3.087-2.78,4.7,4.7,0,0,0-.593-4.386,2.043,2.043,0,0,0-2.736-.717,2.023,2.023,0,0,0-.718,2.736,3.635,3.635,0,0,1,.373.622c-.042-.094-.1-.336-.037-.019s-.035-.043.006-.085c-.053.054.086.649.021.3-.045-.242.009-.067-.025.064-.009.035-.1.305-.1.308-.04-.039.243-.429.044-.142a.73.73,0,0,0-.093.152c-.067.227.279-.3.107-.13s-.139.037-.021.052l.106-.077c-.052.038-.105.073-.161.106s-.115.063-.17.1c-.3.182.054-.054.108-.04a1.633,1.633,0,0,0-.328.1c-.089.023-.181.037-.269.061-.265.072.4-.02.126-.015-.153,0-.308,0-.461.01-.409.013.419.038.044,0-.045,0-.088-.043-.132-.047.073.007.5.248.217.083a16.685,16.685,0,0,1-1.421-.916c-.92-.666-1.843-1.325-2.765-1.986-.047-.033-.333-.244-.134-.095s-.084-.067-.129-.1c-.156-.125-.31-.252-.465-.378-.183-.149-.366-.3-.551-.443s-.365-.286-.548-.425c-.057-.043-.413-.381-.215-.157.243.274-.193-.275.1.112.183.244.074.092.04.03.215.39.138.338.09.178-.093-.311.046.166.023.2a1.536,1.536,0,0,0,0-.236c-.01-.27.115.057-.029.165.065-.049.1-.413.126-.5-.006.019.081-.246.089-.245.035.007-.2.394-.012.066.051-.088.294-.386.293-.477,0,.051-.325.348-.095.136a2.337,2.337,0,0,0,.213-.209c.151-.183-.343.173-.122.092a1.753,1.753,0,0,0,.258-.153c.247-.152-.062.133-.142.057a1.711,1.711,0,0,0,.239-.069c.312-.106-.085.03-.151.009a1.684,1.684,0,0,0,.338-.009c.084,0,.366.064.09,0-.316-.075.118.038.181.056.106.029.208.066.312.1-.34-.111.057.03.177.092a2,2,0,1,0,2.019-3.454Z"/><path class="b" d="M316.346,156.246c-1.553-1.259-3.062-2.57-4.589-3.86q-.429-.364-.865-.721c-.084-.069-.166-.149-.256-.209-.175-.115-.148-.261.116.217.278.5.144.414.11.254.125.594.031.332.031.136a1.076,1.076,0,0,0,.011-.229c.1.254-.087.407-.006.1.051-.193.092-.386.157-.576a1.463,1.463,0,0,1,.092-.25c.026-.007-.2.39-.041.124a1.313,1.313,0,0,0,.151-.264q.127-.195-.149.177a1.243,1.243,0,0,1,.12-.131c.062-.057.3-.208.075-.081-.3.166.173-.073.166-.075s-.475.144-.073.037l.284-.075c.409-.11-.1.015-.092.011.036-.043.31-.006.372,0l.075,0q.342.032-.086-.012a1.2,1.2,0,0,1,.433.119c-.014-.019-.475-.245-.03,0,.109.06.221.115.331.174.238.129.473.262.7.4a15.993,15.993,0,0,1,1.334.9c-.347-.259.135.116.23.2q.308.261.6.537c.358.337.7.689,1.033,1.056.09.1.179.2.265.305s.276.386.021.019c.113.163.228.324.331.493a6.7,6.7,0,0,1,.323.595c.027.057.159.362.06.122-.107-.258.083.242.1.29.151.4-.07-.07.015-.078a2.414,2.414,0,0,1-.008.406c-.049.019.147-.522,0-.122l-.039.136c-.074.207-.058.18.047-.079a1.133,1.133,0,0,1-.133.255c-.036.062-.074.123-.115.182-.083.122-.049.082.1-.118-.011.048-.171.189-.191.209-.05.05-.1.1-.155.142q-.17.145.132-.1c0-.018-.2.146-.232.135q.39-.15.06-.051l.233-.039c-.441.069.118,0,.086.025-.1.063-.485-.193-.1,0a5.625,5.625,0,0,1-.731-.437c-.056-.04-.321-.234-.092-.064.247.184-.171-.139-.213-.174a2.049,2.049,0,0,0-2.829,0,2.022,2.022,0,0,0,0,2.828c1.161.941,2.443,1.912,4.029,1.815a4.5,4.5,0,0,0,3.663-2.713,4.847,4.847,0,0,0,.492-2.229,6.175,6.175,0,0,0-.756-2.423,11.584,11.584,0,0,0-2.448-3.1c-2.042-1.957-4.9-4.1-7.881-3.465a4.609,4.609,0,0,0-3.275,2.96,4.383,4.383,0,0,0-.043,3.769,6.032,6.032,0,0,0,1.427,1.35c.457.384.911.774,1.364,1.162,1.132.97,2.27,1.932,3.428,2.87a2.049,2.049,0,0,0,2.829,0A2.023,2.023,0,0,0,316.346,156.246Z"/><path class="b" d="M321.368,143.527c.025-.081.043-.3.122-.308.313-.032.617.286.805.491a7.3,7.3,0,0,1,1.332,3.2c.834,3.232,3.39,4.905,5.118,7.567a5.98,5.98,0,0,1,.8,2.328,38.215,38.215,0,0,1,.54,3.888c.364,3.668.562,7.352.837,11.028.191,2.551,4.193,2.572,4,0-.326-4.357-.514-8.738-1.067-13.073a22.654,22.654,0,0,0-.867-4.506,11.888,11.888,0,0,0-2.586-3.968c-1.077-1.207-2.363-2.343-2.823-3.948a13.77,13.77,0,0,0-1.94-4.7c-2.317-3.1-6.878-3.021-8.127.943-.776,2.461,3.085,3.514,3.857,1.063Z"/><path class="b" d="M316.519,149.584a31.864,31.864,0,0,0,1.635,6.144,15.425,15.425,0,0,1,.723,2.883c-.038-.311.014.273.018.332a8.547,8.547,0,0,1,.007.862s-.066.632-.019.326a6.547,6.547,0,0,1-.2.849,2,2,0,1,0,3.857,1.063,11.857,11.857,0,0,0-.327-6.746c-.3-.991-.659-1.963-.981-2.947-.159-.489-.31-.981-.439-1.479-.064-.247-.123-.5-.174-.745-.029-.142-.056-.285-.08-.428-.039-.248-.046-.286-.018-.114a2.051,2.051,0,0,0-2-2c-.978.044-2.132.888-2,2Z"/><path class="b" d="M315.425,151.018c2.162.343,4.906.571,6.694-.971a4.2,4.2,0,0,0-.041-6.231c-1.887-1.674-4.585-2.137-7.028-2.21-2.068-.062-4.551.173-6.3,1.4a4.551,4.551,0,0,0-1.318,1.326,3.475,3.475,0,0,0-.381.851c-.073.253-.182,1.175-.093.5a7.667,7.667,0,0,0,.871,4.437,2.009,2.009,0,0,0,2.736.718,2.058,2.058,0,0,0,.718-2.737,2,2,0,0,1-.147-.331c-.077-.2-.148-.408-.205-.618-.022-.08-.109-.561-.078-.295s.007-.25.006-.342c0-.046,0-.311,0-.035-.012.507-.023-.862.034-.253.036.373.092-.221-.023.11-.144.412.206-.25-.039.08-.225.3.347-.2.049-.043-.278.15.094-.053.163-.094.117-.069.248-.12.363-.192.179-.112-.127.052-.145.058.1-.032.19-.072.285-.1.177-.06.357-.113.538-.16.335-.088.674-.147,1.015-.207.31-.054-.308.018.014,0,.093,0,.187-.019.28-.027q.334-.027.671-.039c.431-.016.863-.012,1.294.009q.3.015.609.042l.306.03c.343.033-.262-.042.08.007a11.553,11.553,0,0,1,1.354.274q.289.078.573.175c.089.03.177.067.266.1.226.076-.228-.127.093.047.144.078.29.15.429.235.178.109.334.262.081.03a4.1,4.1,0,0,0,.341.32c.192.138-.166-.163-.117-.166a.827.827,0,0,1,.127.2c0,.038.156.256,0-.022-.139-.252-.033-.036,0,.019.174.345-.113-.316.015.035.151.413-.015-.175.04-.109a.717.717,0,0,1-.049.206c-.123.169.07-.134.077-.146a2.662,2.662,0,0,0-.142.249s.194-.317.081-.12c-.048.083-.368.3-.014.025-.022.016-.266.157-.057.048s-.06.018-.111.03c-.081.02-.162.04-.244.057-.048.01-.1.017-.144.026-.4.082.116-.01.117-.012a6.093,6.093,0,0,1-1.142.064,10.6,10.6,0,0,1-1.433-.094,2.051,2.051,0,0,0-2.46,1.4,2.023,2.023,0,0,0,1.4,2.46Z"/><path class="b" d="M304.777,166.718a28.557,28.557,0,0,0,5.428,6.549c1.091.966,2.368,1.839,3.349,2.676a12.537,12.537,0,0,1,2.606,2.981,2,2,0,1,0,3.454-2.019A17.047,17.047,0,0,0,316.7,173.4c-1.127-1.02-2.295-1.774-3.355-2.683a23.94,23.94,0,0,1-5.117-6.014,2,2,0,0,0-3.454,2.019Z"/><path class="b" d="M298.388,98.925c4.161,11.3,8.21,22.631,12.451,33.9q1.908,5.069,3.88,10.112a2.061,2.061,0,0,0,2.461,1.4,2.015,2.015,0,0,0,1.4-2.46c-4.736-12.048-9.126-24.231-13.551-36.4q-1.386-3.808-2.781-7.614c-.882-2.4-4.75-1.359-3.857,1.064Z"/><path class="g" d="M294.508,95.405c.121.3.747,1.838,1.778,4.372a2.629,2.629,0,0,0,3.408,1.454l2.959-1.186a2.624,2.624,0,0,0,1.461-3.4c-1-2.539-1.331-3.354-1.739-4.369-.912-2.266-3.92-4.287-5.872-3.644C294.82,89.187,293.439,92.77,294.508,95.405Z"/><path class="b" d="M292.58,95.937q.513,1.263,1.027,2.525c.693,1.706,1.226,3.558,3,4.439a4.738,4.738,0,0,0,2.964.427,12.7,12.7,0,0,0,2.476-.9,8.781,8.781,0,0,0,2.736-1.4,4.624,4.624,0,0,0,1.359-2.23c.452-1.752-.335-3.279-.965-4.864-.392-.986-.747-2.014-1.211-2.969-1.305-2.684-4.923-5.218-8-4.262a5.756,5.756,0,0,0-3.372,3.843,8.045,8.045,0,0,0-.019,5.391,2.047,2.047,0,0,0,2.46,1.4,2.023,2.023,0,0,0,1.4-2.46,7.424,7.424,0,0,1-.257-.85c-.093-.368-.022-.088-.012,0-.017-.148-.026-.3-.031-.445a7.986,7.986,0,0,1,.021-.8c.036-.551-.073.236.012-.083.045-.168.069-.343.112-.512.065-.249.149-.488.233-.731-.135.391-.028.056.027-.047s.119-.233.185-.347c.051-.087.111-.17.161-.257.22-.385-.207.152-.009,0a1.942,1.942,0,0,0,.232-.247c.247-.288-.336.217-.012,0a.966.966,0,0,1,.2-.115c-.064-.026-.477.133-.07.062.282-.049-.507-.02-.046.007.094.006.2,0,.291,0,.354,0-.013,0-.085-.016.153.038.306.067.457.112.1.031.2.074.307.1-.411-.119.045.025.135.071.26.134.5.294.746.449.06.038.3.229.023.007.092.075.184.152.272.232.224.2.424.414.628.633.254.273.071.076.018.006.1.138.2.281.29.429s.162.3.244.442.209.213-.031-.085a1.8,1.8,0,0,1,.164.408q.2.5.4,1c.424,1.062.851,2.123,1.244,3.2.056.152-.025.3,0-.039,0,.011-.024.547.013.221s-.061.186-.066.206c.019-.079.2-.345.012-.035-.014.023-.311.4-.116.2.211-.218-.179.149-.18.15.081-.069.3-.177,0-.029-.512.249.429-.155-.283.127-.686.271-1.369.549-2.053.823a8.256,8.256,0,0,1-.942.325c.36-.1.17-.032.039-.027q-.349-.021.048.024l-.157-.035c-.478-.233.33.26-.12-.033-.109-.07-.411-.361-.122-.061-.076-.079-.153-.152-.227-.235.278.312-.007-.068-.052-.154.143.273-.068-.17-.1-.237l-.254-.625-.412-1.011-.885-2.178a2.052,2.052,0,0,0-2.46-1.4A2.02,2.02,0,0,0,292.58,95.937Z"/><path class="h" d="M406.955,155.317a68.835,68.835,0,0,0,8.957-1.708l1.2-.322c.023,6.457-.35,12.929-.723,19.378-.313,5.421-1.052,17.864-1.052,30.517a183.223,183.223,0,0,0,1.362,22.706c-1.138-.007-1.769-.007-1.769-.007-5.164,0-23.692.456-27.793.456,0,0-1.132,0-2.752,0a183.072,183.072,0,0,0,1.418-23.159c0-12.653-.739-25.1-1.052-30.517-.386-6.676-.772-13.376-.722-20.058,4.531,2.232,12.059,3.125,17.2,3.112A48.731,48.731,0,0,0,406.955,155.317Z"/><path class="b" d="M415.38,151.681c-9.471,2.495-20.248,3.169-29.547-.438a2.015,2.015,0,0,0-2.46,1.4,2.045,2.045,0,0,0,1.4,2.46,45.628,45.628,0,0,0,15.6,2.613,60.117,60.117,0,0,0,16.077-2.175c2.487-.655,1.432-4.515-1.064-3.857Z"/><path class="b" d="M343.876,187.383c2.882-7.561,4.658-15.457,7.34-23.08a25.282,25.282,0,0,1,2.525-5.759,8.07,8.07,0,0,1,4.282-3.1c3.369-1.349,6.667-2.816,10.08-4.072a108.309,108.309,0,0,0,11.784-4.791c2.3-1.167.273-4.619-2.019-3.454a97.783,97.783,0,0,1-10.641,4.319c-3.535,1.3-6.961,2.8-10.448,4.212-2,.808-3.822,1.526-5.248,3.223a18.728,18.728,0,0,0-3.119,5.491c-1.524,3.976-2.772,8.042-3.944,12.132-1.336,4.659-2.722,9.287-4.449,13.818a2.016,2.016,0,0,0,1.4,2.461,2.045,2.045,0,0,0,2.46-1.4Z"/><path class="b" d="M347.005,194.16c-3.419-7.579-6.55-15.276-9.681-22.977a2.039,2.039,0,0,0-2.938-1.195c-6.193,3.25-12.8,6.524-19.666,8.061a2.019,2.019,0,0,0-1.4,2.46c1.969,6.3,3.856,12.622,6.093,18.83,1.977,5.489,4.064,11.269,7.176,16.237,2.791,4.458,6.956,7.7,12.4,7.75,5.588.047,10.451-2.707,14.282-6.572a121.3,121.3,0,0,0,10.08-11.718,2.011,2.011,0,0,0-.717-2.736,2.051,2.051,0,0,0-2.736.717l-.526.688c-.1.132-.2.266-.3.4-.21.267.458-.568-.081.093-.65.8-1.295,1.6-1.955,2.385-1.578,1.888-3.194,3.746-4.869,5.549a30.41,30.41,0,0,1-4.635,4.412,15.573,15.573,0,0,1-6.807,2.692c-4.709.606-8.258-1.809-10.68-5.676-2.772-4.427-4.664-9.52-6.453-14.4-2.377-6.489-4.35-13.115-6.412-19.709l-1.4,2.46a60.97,60.97,0,0,0,10.364-3.605q5.226-2.214,10.257-4.859l-2.938-1.195c3.261,8.021,6.523,16.039,10.084,23.932a2.015,2.015,0,0,0,2.736.718,2.049,2.049,0,0,0,.718-2.737Z"/><path class="b" d="M354.409,154.686c1.117,11.782,2.675,23.56,4.743,35.213,1.074,6.053,2.819,12.04,3.436,18.161a59.535,59.535,0,0,1-.468,12.633q-1.12,10.24-2.506,20.452a2.069,2.069,0,0,0,1.4,2.46,2.013,2.013,0,0,0,2.46-1.4q1.267-9.4,2.348-18.818c.463-4.061,1.143-8.21.983-12.309-.255-6.534-2.015-12.808-3.232-19.194-1.14-5.978-2.06-12-2.895-18.027-.883-6.374-1.659-12.767-2.266-19.174a2.055,2.055,0,0,0-2-2,2.014,2.014,0,0,0-2,2Z"/><path class="b" d="M461.146,186.319c-2.955-7.773-4.762-15.9-7.561-23.723-1.357-3.8-2.99-8.187-6.914-10.009-3.5-1.626-7.135-3.07-10.756-4.417-2.127-.791-4.262-1.559-6.382-2.369-1.048-.4-2.1-.807-3.129-1.243a8.706,8.706,0,0,0-2.9-1.107c-2.574,0-2.578,4,0,4h.01l-1.01-.273c3.453,1.6,7.039,2.9,10.608,4.208,3.4,1.251,6.681,2.713,10.036,4.055a8.078,8.078,0,0,1,4.062,2.786,20.337,20.337,0,0,1,2.437,5.216c1.306,3.629,2.395,7.325,3.455,11.032,1.246,4.354,2.573,8.672,4.183,12.908a2.058,2.058,0,0,0,2.46,1.4,2.016,2.016,0,0,0,1.4-2.461Z"/><path class="b" d="M418.287,142.424c2.053,2.3,4.039,4.651,5.928,7.085.856,1.1,1.69,2.223,2.514,3.35q.721.99,1.434,1.986a5.448,5.448,0,0,1,1.211,1.982v-1.064c-.182.83-1.211,1.732-1.761,2.359-.74.844-1.524,1.644-2.339,2.416a2.028,2.028,0,0,0,0,2.828,38.075,38.075,0,0,1,3.03,3.283,4.075,4.075,0,0,1,1.091,2.437,20.535,20.535,0,0,1-1.439,6.106l-6.714,19.776c-.83,2.443,3.032,3.491,3.857,1.063,2.4-7.056,5.033-14.077,7.194-21.208.614-2.027,1.336-4.554,1.048-6.679-.416-3.079-3.19-5.5-5.239-7.606v2.828a24.446,24.446,0,0,0,4.769-5.553c1.352-2.484-1.189-4.917-2.559-6.8-2.884-3.953-5.935-7.772-9.2-11.421-1.719-1.924-4.54.913-2.829,2.828Z"/><path class="b" d="M380.784,139.6c-3.261,3.649-6.312,7.468-9.2,11.421-1.323,1.815-3.83,4.217-2.641,6.635,1.055,2.146,3.135,4.089,4.851,5.714v-2.828c-1.991,2.044-4.677,4.386-5.2,7.34-.39,2.189.374,4.854,1.013,6.945,2.178,7.127,4.8,14.15,7.194,21.208.823,2.424,4.688,1.384,3.857-1.063l-6.714-19.776a23.579,23.579,0,0,1-1.43-5.992,3.891,3.891,0,0,1,1.082-2.551,37.471,37.471,0,0,1,3.03-3.283,2.025,2.025,0,0,0,0-2.828c-.815-.772-1.6-1.572-2.339-2.416-.55-.627-1.579-1.529-1.761-2.359v1.064a4.742,4.742,0,0,1,1.079-1.8q.714-1,1.437-1.994c.866-1.187,1.743-2.366,2.643-3.527,1.888-2.434,3.875-4.788,5.928-7.085,1.71-1.914-1.109-4.752-2.829-2.828Z"/><path class="b" d="M385.466,228.337c10.376-.008,20.749-.45,31.126-.456,2.573,0,2.578-4,0-4-10.377.006-20.75.448-31.126.456-2.574,0-2.579,4,0,4Z"/><path class="b" d="M384.089,239.493a101.332,101.332,0,0,0,2.686-16.571,186.4,186.4,0,0,0,1.024-19.737c.006-12.49-.814-24.933-1.435-37.4a159.59,159.59,0,0,1,.359-25.534,2.012,2.012,0,0,0-2-2,2.047,2.047,0,0,0-2,2c-1.464,13.2-.245,26.468.423,39.682.679,13.422,1.123,26.931-.107,40.334-.556,6.052-1.163,12.3-2.807,18.162-.7,2.483,3.162,3.542,3.857,1.063Z"/><path class="b" d="M441.6,241.373q-1.242-9.307-2.334-18.635a74.42,74.42,0,0,1-.921-12.083c.308-6.352,2.1-12.478,3.259-18.7,1.1-5.906,2-11.85,2.813-17.8.887-6.473,1.686-12.962,2.3-19.467a2.015,2.015,0,0,0-2-2,2.043,2.043,0,0,0-2,2c-1.1,11.66-2.648,23.316-4.724,34.843-1.114,6.183-2.824,12.27-3.455,18.531a58.761,58.761,0,0,0,.5,12.668c.776,6.891,1.647,13.771,2.564,20.645a2.066,2.066,0,0,0,2,2c.969,0,2.143-.922,2-2Z"/><path class="b" d="M414.4,140.252c1.49,13.323.236,26.713-.431,40.045-.672,13.433-1.094,26.946.161,40.357.579,6.2,1.171,12.636,2.853,18.645.694,2.475,4.554,1.423,3.858-1.064a95.689,95.689,0,0,1-2.562-16.06,188.922,188.922,0,0,1-.944-19.483c.017-12.49.852-24.93,1.454-37.4a157.07,157.07,0,0,0-.389-25.042,2.06,2.06,0,0,0-2-2,2.014,2.014,0,0,0-2,2Z"/><path class="a" d="M395.889,190.76A19.864,19.864,0,0,0,393.853,193a38.239,38.239,0,0,0,3.493,3.227l.342.254a16.239,16.239,0,0,1,7.687-5.735,35.853,35.853,0,0,1,14.465-2.6c4.887.161,10.283,1.7,13.927,5.174,2.979-3.417,8.538-6.068,12.831-7.14a38.714,38.714,0,0,1,12.98-.69,20.975,20.975,0,0,1,7.492,2.137l.1-.1c.759-.721,2.278-2.24,3.569-3.607-4.67-3.531-7.288-4.058-12.8-4.594-4.191-.408-8.952-.545-13.049.478s-9.352,2.732-12.263,5.971A23.871,23.871,0,0,0,419.84,182a35.853,35.853,0,0,0-14.465,2.6,25.827,25.827,0,0,0-5.941,3.166A41,41,0,0,0,395.889,190.76Z"/><path class="g" d="M455.2,205.349c3.164-2.818,13.162-12.207,15.845-14.892a18.924,18.924,0,0,0-11.463-4.963,38.714,38.714,0,0,0-12.98.69c-4.293,1.072-9.852,3.723-12.831,7.14-3.644-3.477-9.04-5.013-13.927-5.174a35.853,35.853,0,0,0-14.465,2.6,15.811,15.811,0,0,0-8.827,7.608c2.864,2.5,13.482,10.665,16.462,13.03Z"/><path class="a" d="M441.487,197.645q-.29-.234-.585-.462c-2.513-1.942-4.336-2.245-6.918-.8l-1.386,1.2c-1.056-1.12-1.952-2.049-2.334-2.381a4.316,4.316,0,0,0-4.139-.93c-1.632.608-2.316,1.5-2.316,2.867l-.155,1.162c-.865-.916-1.645-1.7-2.24-2.238-.5-.451-2.956-1.66-4.589-.434a2.65,2.65,0,0,0-.828,3.8c.094.145.16.3.239.455l-.366-.191a3.715,3.715,0,0,0-5.255,1.894,5.335,5.335,0,0,0,.42,3.49c1.058,2.045,5.679,7.174,8.174,9.809,5.715,4.043,14.835,1.227,22.14-.471a9.628,9.628,0,0,0,2.894-1.245c2.733-1.9,4.139-4.227,6.371-6.693a17.282,17.282,0,0,0,2.506-3.038,6.424,6.424,0,0,0,.921-4.506,3.389,3.389,0,0,0-1.277-2.026c-1.086-.717-2.541-.375-3.746.117a18.674,18.674,0,0,0-4.963,3A23.2,23.2,0,0,0,441.487,197.645Z"/><path class="b" d="M443.234,211.446a14.9,14.9,0,0,1-5.015,1.665c-2.128.514-4.261,1.023-6.42,1.394-3.666.63-7.819.957-11.135-1.04-2.21-1.332-4.223,2.125-2.018,3.454,4.058,2.444,8.913,2.271,13.432,1.571,2.363-.365,4.692-.916,7.015-1.476,2.1-.507,4.332-.881,6.16-2.114,2.122-1.432.123-4.9-2.019-3.454Z"/><path class="b" d="M446.852,200.315a22.106,22.106,0,0,0-6.173-5.708,7.435,7.435,0,0,0-3.733-1.128,8.316,8.316,0,0,0-3.971,1.174,2.019,2.019,0,0,0-.717,2.737,2.041,2.041,0,0,0,2.736.717c.115-.063.23-.126.347-.186.042-.021.494-.237.266-.135-.194.088.134-.049.17-.063.106-.037.212-.073.32-.105.081-.024.653-.221.7-.159,0,0-.418.025-.076.025.1,0,.2-.006.3,0,.064,0,.5.018.182,0-.281-.016.044.013.107.026a4.967,4.967,0,0,1,.6.17c.187.065.293.134.053.014.1.051.206.1.308.152.244.127.48.269.711.418s.442.3.658.458c.28.2-.178-.142.077.057q.189.147.375.3.633.511,1.236,1.06c.4.365.787.744,1.157,1.139q.261.279.51.569c.1.121.2.249.306.368.229.257-.263-.357.1.124a2.053,2.053,0,0,0,2.737.718,2.02,2.02,0,0,0,.717-2.736Z"/><path class="b" d="M439.429,201.921c-1.748-1.646-3.315-3.512-4.957-5.262-.815-.868-1.623-1.749-2.479-2.577a6.644,6.644,0,0,0-5.737-1.9,5.174,5.174,0,0,0-4.447,4.96,2,2,0,1,0,4,0c0-.116,0-.231.016-.346q-.057.387.012.051.108-.323-.042.042a2.506,2.506,0,0,1,.151-.267c-.213.388.091-.081.223-.187-.335.268.3-.141.375-.18q.315-.151.113-.051a2.99,2.99,0,0,1,.371-.112q.357-.072.057-.013c.136-.007.272-.008.408,0,.245.019.276.021.091.005.139.028.278.062.414.1.332.076.046-.027.332.124a12.307,12.307,0,0,1,2.575,2.4c1.9,2,3.687,4.155,5.7,6.046a2,2,0,0,0,2.828-2.828Z"/><path class="b" d="M414.424,209.97c-5.477-4.341-11.186-8.442-16.461-13.03l.312,2.424c3.115-5.811,9.686-8.043,15.886-8.926s13.415-.138,18.192,4.3a2.025,2.025,0,0,0,2.828,0c4.027-4.5,10.58-6.889,16.475-7.363,6.061-.487,13.414-.09,17.971,4.5v-2.829c-5.123,5.111-10.447,10.074-15.846,14.892-1.924,1.717.913,4.538,2.829,2.828,5.4-4.818,10.723-9.78,15.845-14.891a2.032,2.032,0,0,0,0-2.829c-5.32-5.355-13.641-6.239-20.8-5.668-6.917.552-14.563,3.241-19.3,8.534h2.828c-5.775-5.365-14.093-6.442-21.626-5.393-7.382,1.028-15.042,3.942-18.733,10.829a2.037,2.037,0,0,0,.312,2.424c5.276,4.588,10.985,8.689,16.462,13.03a2.063,2.063,0,0,0,2.828,0,2.014,2.014,0,0,0,0-2.829Z"/><path class="b" d="M398.355,194.5c.36.276-.4-.355-.532-.473q-.529-.468-1.048-.949a15.291,15.291,0,0,1-1.508-1.493v2.828c4.216-5.388,10.468-8.482,17.075-9.81,6.383-1.284,13.771-.882,19.278,2.9a2.012,2.012,0,0,0,2.424-.313,18.233,18.233,0,0,1,7.969-4.491,32.626,32.626,0,0,1,10.037-1.677,49.3,49.3,0,0,1,9.984.857,19.138,19.138,0,0,1,7.694,3.769l-.405-3.141c-1.164,1.226-2.347,2.437-3.569,3.607-1.863,1.783.968,4.609,2.828,2.828,1.222-1.169,2.405-2.38,3.569-3.607a2.036,2.036,0,0,0-.405-3.141,21.757,21.757,0,0,0-8.649-4.173,54.171,54.171,0,0,0-11.492-.995,36.245,36.245,0,0,0-11.185,1.992c-3.365,1.14-6.749,2.7-9.2,5.344l2.423-.313c-6.266-4.308-14.645-4.759-21.907-3.4-7.343,1.379-14.618,4.951-19.293,10.928a2.083,2.083,0,0,0,0,2.828,23.4,23.4,0,0,0,3.9,3.54,2.012,2.012,0,0,0,2.737-.717,2.051,2.051,0,0,0-.718-2.736Z"/><path class="b" d="M416.88,197.969a5.774,5.774,0,0,0-6.238.434,5.207,5.207,0,0,0-2.147,4.549,8.5,8.5,0,0,0,1.917,4.806c1.087,1.459,2.257,2.854,3.454,4.225q1.908,2.185,3.9,4.295a2,2,0,0,0,2.829-2.829q-1.844-1.95-3.616-3.965-.995-1.131-1.956-2.287c-.294-.356-.583-.717-.872-1.078-.265-.331.133.184-.134-.173-.118-.158-.237-.315-.353-.475a9.474,9.474,0,0,1-.912-1.389,2.958,2.958,0,0,1-.267-1.353c0-.083.042-.684-.014-.275.01-.067.156-.662.035-.285-.114.357.088-.111.122-.185.156-.341-.26.234.038-.05.156-.149.3-.308.465-.443-.277.22.058,0,.165-.076.325-.23-.182.008.186-.093a3.244,3.244,0,0,1,.363-.1q-.321.024.051,0a1.541,1.541,0,0,1,.961.2,2.052,2.052,0,0,0,2.736-.717,2.019,2.019,0,0,0-.717-2.737Z"/><path class="b" d="M431.655,204.116c-1.644-1.782-3.247-3.6-4.882-5.391-.808-.884-1.621-1.764-2.456-2.623a12.658,12.658,0,0,0-2.157-1.956c-2.616-1.658-6.265-1.359-7.972,1.431-1.939,3.171.808,6,2.713,8.333a89.535,89.535,0,0,0,6.407,7.164c1.835,1.809,4.665-1.017,2.828-2.828-1.78-1.755-3.456-3.6-5.055-5.522-.814-.978-1.614-1.967-2.421-2.951a8.421,8.421,0,0,1-.937-1.351c-.049-.088-.105-.173-.154-.262-.157-.286.069.241-.02-.058-.016-.055-.112-.435-.051-.186.05.2.058-.281-.011.076a1.967,1.967,0,0,1,.1-.356c-.129.313.018,0,.055-.04-.19.195.055-.069.076-.09a3.781,3.781,0,0,1,.333-.312c-.1.081-.052.029.132-.057-.09.042-.287.079.077-.012.075-.019.377-.045.045-.021a4.615,4.615,0,0,1,.485,0c.325.011-.276-.064.037,0,.092.02.184.038.275.06a6.446,6.446,0,0,1,.678.218c-.413-.155.093.056.205.12.066.038.135.09.2.124.3.149-.309-.31-.143-.111.531.64,1.234,1.192,1.812,1.8.73.761,1.445,1.537,2.156,2.315,1.612,1.765,3.192,3.558,4.813,5.315a2,2,0,1,0,2.828-2.829Z"/><path class="b" d="M446.251,200.835a19.793,19.793,0,0,1,2.985-1.736,3.975,3.975,0,0,1,2.324-.579c.309.1.556.742.609,1.283a5.135,5.135,0,0,1-.882,2.823,11.679,11.679,0,0,1-1.7,2.019c-.708.755-1.373,1.545-2.029,2.345a23.364,23.364,0,0,1-4.327,4.456,2.055,2.055,0,0,0-.718,2.736,2.017,2.017,0,0,0,2.737.718,32.186,32.186,0,0,0,5.837-5.928c.79-.937,1.66-1.8,2.457-2.731a11.529,11.529,0,0,0,2.219-3.91c.953-2.833.075-6.773-3.161-7.66-2.857-.784-6.124,1.133-8.373,2.711a2.052,2.052,0,0,0-.717,2.736,2.016,2.016,0,0,0,2.736.717Z"/><path class="b" d="M396.316,122.7a11.733,11.733,0,0,0,5.651,1.32,9.323,9.323,0,0,0,5.824-1.769,2,2,0,0,0,.586-1.414,2.032,2.032,0,0,0-.586-1.414,2.06,2.06,0,0,0-2.828,0c.693-.541,0-.027-.221.088-.169.088-.613.228.025.008-.153.052-.3.116-.456.165-.416.134-.862.163-1.275.291.21-.065.345-.041.042-.011-.125.012-.251.023-.376.031q-.453.029-.906.025-.406,0-.812-.029c-.124-.008-.248-.018-.371-.031-.071-.007-.142-.014-.212-.023-.158-.019-.093-.011.195.026a2.986,2.986,0,0,0-.61-.114c-.2-.043-.389-.093-.581-.151-.167-.05-.33-.109-.494-.166-.442-.151.43.2.03.016-.2-.1-.406-.2-.606-.3a2,2,0,0,0-2.019,3.454Z"/><path class="b" d="M400.672,109.748a25.4,25.4,0,0,1,.59,2.7l-.072-.532a1.606,1.606,0,0,1,.01.373l.072-.532a.958.958,0,0,1-.041.168l.2-.478a.667.667,0,0,1-.059.108l.313-.405a.557.557,0,0,1-.088.087l.4-.313a1.736,1.736,0,0,1-.213.113l.478-.2a1.572,1.572,0,0,1-.361.105l.532-.072a1.415,1.415,0,0,1-.338,0l.531.071c-.127-.017-.252-.048-.38-.066a1.512,1.512,0,0,0-.8-.035,1.489,1.489,0,0,0-.744.237,2,2,0,0,0-.718,2.736l.313.4a2,2,0,0,0,.883.514c.345.047.679.133,1.031.148a3.4,3.4,0,0,0,1.589-.388,2.426,2.426,0,0,0,1.305-1.584,3.707,3.707,0,0,0-.013-1.637c-.147-.87-.348-1.731-.571-2.584a2.067,2.067,0,0,0-.919-1.2,2.046,2.046,0,0,0-1.542-.2,2.023,2.023,0,0,0-1.195.919,2.1,2.1,0,0,0-.2,1.541Z"/><path class="b" d="M386.994,101.94c-.451,1.465-.157,4.835,2.618,5.122,3.668-.022,3.863-4.1,2.628-6.012C391.229,99.482,388.257,98.83,386.994,101.94Z"/><path class="b" d="M416.365,101.941c.451,1.464.157,4.834-2.618,5.121-3.668-.023-3.863-4.1-2.629-6.012C412.129,99.482,415.1,98.83,416.365,101.941Z"/></svg>