<?xml version="1.0" encoding="utf-8"?>
<!-- Uploaded to: SVG Repo, www.svgrepo.com, Generator: SVG Repo Mixer Tools -->
<svg width="800px" height="800px" viewBox="-5.43 0 295.171 295.171" xmlns="http://www.w3.org/2000/svg"><defs><style>.a{fill:#ffffff;}.b{fill:#b5886a;}.c{fill:#211715;}.d{fill:#f4b467;}</style></defs><path class="a" d="M113.95,165.986c-10.294-1.459-19.747-8.015-27.549-17.353a56.387,56.387,0,0,1-10.908-21.7l-.615.153c-3.282.821-5.866-.831-7.695-2.29a20.917,20.917,0,0,1-5.409-7.1,32.912,32.912,0,0,1-3.356-17.446,10.979,10.979,0,0,1,1.15-4.418,7.765,7.765,0,0,1,5.585-3.713,8.226,8.226,0,0,1,6.582,1.926s4.321-43.035,54.4-43.035S182.14,94.05,182.14,94.05a8.226,8.226,0,0,1,6.582-1.926,7.765,7.765,0,0,1,5.585,3.713,10.979,10.979,0,0,1,1.15,4.418A32.912,32.912,0,0,1,192.1,117.7a20.917,20.917,0,0,1-5.409,7.1c-1.787,1.425-4.92,1.425-7.283,1.764-.576,2.453-1.342,4.586-1.686,5.631-2.125,5.768-15.341,28.21-31,31.69Z"/><path class="b" d="M55.839,121.725q.228-.7.525-1.377a12.394,12.394,0,0,1,4.267-5.21q.516,1.3,1.143,2.563a20.917,20.917,0,0,0,5.409,7.1c1.829,1.459,4.413,3.111,7.695,2.29,0,0,.215-.053.614-.156a56.387,56.387,0,0,0,10.909,21.7q1.746,2.09,3.6,3.986c-2.035,5.774-7.226,11.336-12.5,14.507-4.122,2.477-8.365,4.115-13.512,3.5-.931-.111-1.909-.168-2.343-1-.626-1.2,1.34-3.4,2.458-5.554,1.327-2.552.529-6.68-.417-9.4a60.707,60.707,0,0,0-3.843-7.714,44.584,44.584,0,0,1-4.658-15.2A23.584,23.584,0,0,1,55.839,121.725Z"/><path class="b" d="M191.642,62.107c1.428,9.757,2.233,23.436-1.555,32.173a6.908,6.908,0,0,0-1.365-.342,8.13,8.13,0,0,0-7.038,2.378c-8.189-2.6-17-14.694-20.179-20.129-2.345-4.015-5.536-13.2-7.468-20-9.162,11.519-24.316,18.9-40.127,22.563-3.787.918-.781-8.012.065-13.262C104.134,73.947,84.111,86.817,72.987,95.6a7.834,7.834,0,0,0-7.661-3.5C64.393,87.536,63.4,82.7,63.4,82.7c-1.409-6.087-1.6-19.133-.045-26.758C69.08,27.666,97.335,5.225,126.966,6.864c29.63-1.639,57.885,20.8,63.606,49.073C190.928,57.693,191.3,59.789,191.642,62.107Z"/><path class="c" d="M57.361,114.737c-5.23,5.315-5.347,13-4.166,19.92a46.54,46.54,0,0,0,3.21,10.625c1.362,3.155,3.333,6.014,4.647,9.183.947,2.286,1.956,5.617,1.1,8.065-.888,2.541-3.834,4.751-2.824,7.735,1.164,3.436,6.422,3.08,9.266,2.717a25.088,25.088,0,0,0,9.051-3.166,32.417,32.417,0,0,0,14.616-16.41,2.421,2.421,0,0,0-1.676-2.952,2.454,2.454,0,0,0-2.953,1.676c-1.919,5.131-6.113,9.592-10.679,12.509a24.294,24.294,0,0,1-7.232,3.286,14.957,14.957,0,0,1-3.794.428,13.861,13.861,0,0,1-1.942-.127c.05.008-.767-.092-.72-.144a.915.915,0,0,1,.615.972q-.028.548.081,0A33.259,33.259,0,0,0,65.774,166a10.054,10.054,0,0,0,1.365-4.179A18.57,18.57,0,0,0,66,154.038a65.686,65.686,0,0,0-4.086-8.288,41.89,41.89,0,0,1-3.327-8.8c-1.544-6-2.608-13.967,2.169-18.822,2.169-2.2-1.223-5.6-3.394-3.394Z"/><path class="c" d="M183.837,95.747c2.466-2.106,6.779-1.634,8.4,1.3.886,1.608.907,3.654.937,5.444a29.547,29.547,0,0,1-.589,6.487,28.205,28.205,0,0,1-4.858,11.329c-.977,1.282-2.171,2.722-3.773,3.178a40.7,40.7,0,0,1-5.348.789,2.416,2.416,0,0,0-1.677,2.952,2.464,2.464,0,0,0,2.953,1.677c1.666-.241,3.363-.295,5-.7a10.169,10.169,0,0,0,4.884-2.961A28.566,28.566,0,0,0,196,114.588a34.873,34.873,0,0,0,1.957-12.544c-.127-4.222-1.04-8.259-4.757-10.729a10.684,10.684,0,0,0-12.761,1.038,2.42,2.42,0,0,0,0,3.394,2.45,2.45,0,0,0,3.394,0Z"/><path class="c" d="M177.758,121.365a28.381,28.381,0,0,1-1.412,7.324c-.255.835-.53,1.664-.811,2.491-.068.2-.138.4-.208.594-.254.721.119-.224-.092.23a64.631,64.631,0,0,1-3.691,6.808,67.459,67.459,0,0,1-14.677,17.222,27.062,27.062,0,0,1-10.783,5.537c-3.009.691-1.736,5.32,1.276,4.628,8.213-1.887,15.043-7.907,20.4-14.134a74.159,74.159,0,0,0,11.462-17.293,36.094,36.094,0,0,0,3.333-13.407c.1-3.09-4.7-3.086-4.8,0Z"/><path class="c" d="M73.432,92.353A10.757,10.757,0,0,0,61.8,90.688c-4.046,1.884-5.5,5.824-5.815,10.014-.62,8.357,1.955,17.832,7.7,24.094,3.057,3.334,7.234,5.62,11.835,4.609,3.016-.663,1.74-5.292-1.276-4.629-3.259.716-6.273-2.083-8.09-4.468a28.308,28.308,0,0,1-4.9-11.55,29.532,29.532,0,0,1-.545-6.266c.03-1.839.059-3.97,1.027-5.594,1.678-2.818,5.9-3.212,8.308-1.151a2.463,2.463,0,0,0,3.394,0,2.421,2.421,0,0,0,0-3.394Z"/><path class="c" d="M70.806,114.657a78.036,78.036,0,0,0,6.365,23.86,58.211,58.211,0,0,0,20.859,23.82,38.9,38.9,0,0,0,15.282,5.963,2.479,2.479,0,0,0,2.953-1.676,2.418,2.418,0,0,0-1.677-2.952c-9.324-1.378-17.261-6.792-23.635-13.523a55.291,55.291,0,0,1-13.335-24.57q-.778-3.027-1.308-6.111-.243-1.4-.441-2.8c-.1-.678-.144-1.04-.263-2.015a2.475,2.475,0,0,0-2.4-2.4,2.415,2.415,0,0,0-2.4,2.4Z"/><path class="c" d="M65.72,82.052a51.64,51.64,0,0,1-1.01-9.911,87.715,87.715,0,0,1,.42-12.053,52.086,52.086,0,0,1,7.011-20.367,62.787,62.787,0,0,1,34.334-27.713,56.349,56.349,0,0,1,10.812-2.442c3.891-.457,7.762-.3,11.664-.38a57.187,57.187,0,0,1,22.181,4.149,62.662,62.662,0,0,1,32.5,29.78,64.632,64.632,0,0,1,5.776,20.172c1.083,7.652,1.667,15.782.331,23.437a34.38,34.38,0,0,1-1.354,5.328c-1.011,2.926,3.624,4.183,4.628,1.276,2.72-7.872,2.542-16.718,1.786-24.907-.692-7.505-1.832-15.137-4.576-22.193a66.841,66.841,0,0,0-32.057-34.949,63.934,63.934,0,0,0-23.3-6.694,55.869,55.869,0,0,0-6.1-.2c-2.045.046-4.084-.046-6.129,0a60.921,60.921,0,0,0-12.134,1.523A67.593,67.593,0,0,0,71.052,32.574a60.283,60.283,0,0,0-9.791,21.7A75.193,75.193,0,0,0,60.3,78.241a44.111,44.111,0,0,0,.788,5.087c.68,3.012,5.309,1.737,4.628-1.276Z"/><path class="c" d="M151.958,57.646c1.161,3.973,2.453,7.913,3.925,11.782a52.141,52.141,0,0,0,4.111,8.905A64.907,64.907,0,0,0,172.5,93.447c2.8,2.411,6,4.664,9.662,5.483,3.009.673,4.294-3.953,1.276-4.628-5.7-1.275-10.418-6.612-14.038-11.025a52.336,52.336,0,0,1-8.539-14.213c-1.625-4.159-3.024-8.409-4.277-12.694-.865-2.959-5.5-1.7-4.628,1.276Z"/><path class="c" d="M152.5,54.285a56.964,56.964,0,0,1-19.607,15.28,83.147,83.147,0,0,1-12.076,4.813q-3.24,1.02-6.543,1.817c-.266.064-.537.116-.8.19-.529.148.208.1-.006.024a2.142,2.142,0,0,1,.949.56c-.006-.008.222.388.091.152a1.391,1.391,0,0,1-.078-.348c.116.579.013-.061.016-.179.083-3.37,1.259-6.94,1.845-10.472a2.422,2.422,0,0,0-4.011-2.335C107.335,68.024,102,71.8,96.692,75.563c-6.044,4.293-12.149,8.5-18.145,12.863-2.95,2.147-5.877,4.332-8.708,6.635a2.417,2.417,0,0,0,0,3.394,2.455,2.455,0,0,0,3.394,0C84.056,89.647,96,82.191,107.2,73.854c2.883-2.146,5.744-4.333,8.474-6.673l-4.011-2.335c-.622,3.745-1.907,7.469-2.013,11.286a5.276,5.276,0,0,0,1.377,4.175c1.743,1.586,4.144.628,6.122.116A84.017,84.017,0,0,0,144.167,68.5a54.96,54.96,0,0,0,11.726-10.816,2.475,2.475,0,0,0,0-3.394,2.417,2.417,0,0,0-3.394,0Z"/><path class="a" d="M268.625,43.7c-4.815,1.487-8.23,2.032-10.69,3.118a12.464,12.464,0,0,0-5.25,4.206,41.9,41.9,0,0,0-3.029,4.565c-1.162,2.009-3.422,3.942-6.021,3.212-3.63-1.019-5.224-2.275-5.44-5.082-.071-4.785,2.277-8.243,5.292-12.48,5.745-6.479,11.727-6.759,18.175-8.76,5.106-1.527,6.577-7.4,4.512-11.171-1.831-3.768-6.9-5.576-10.421-4.652-3.069.635-4.418,2.2-8.951,6.488a5.86,5.86,0,0,1-4.423,1.174c-5.13-.545-5.534-5.123-5.1-7.3.8-5.763,4.123-10.023,10.087-12.76C258.3-.761,275.994,4.815,280.543,17.3,284.218,27.381,280.633,39.994,268.625,43.7Z"/><path class="a" d="M241.888,77.96a6.851,6.851,0,0,1-8.108,1.347,6.689,6.689,0,0,1-3-4.138c-.123-.453-.99-3.856,1.21-6.337a6.788,6.788,0,0,1,8.767-.92A7.029,7.029,0,0,1,241.888,77.96Z"/><path class="c" d="M267.987,41.385c-3.646,1.113-7.513,1.738-11.022,3.256-3.9,1.689-6.445,4.942-8.631,8.476-.766,1.24-1.722,3.377-3.463,3.458a5.993,5.993,0,0,1-2.191-.605,6.663,6.663,0,0,1-1.439-.824,1.437,1.437,0,0,1-.553-.954,5.668,5.668,0,0,1,0-2.257,15,15,0,0,1,2.214-5.547,23.184,23.184,0,0,1,4.013-5.218A18.756,18.756,0,0,1,251.721,38c3.234-1.5,6.834-2.073,10.228-3.1a10.18,10.18,0,0,0,7.214-7.355,10.679,10.679,0,0,0-2.493-9.691,12.289,12.289,0,0,0-9.908-3.784,13.6,13.6,0,0,0-7.927,3.857c-.662.594-1.305,1.209-1.949,1.822a9.694,9.694,0,0,1-2.162,1.9,4.307,4.307,0,0,1-4.047-.394,2.66,2.66,0,0,1-.7-.874c-.257-.428-.064-.049-.171-.387a7.3,7.3,0,0,1-.239-.986c-.064-.381.027.366.008-.009-.008-.14-.018-.279-.021-.419-.006-.232.005-.463.014-.7,0-.123.022-.246.034-.368-.006.059-.079.552-.007.137.078-.452.141-.905.239-1.354,1.426-6.522,7.477-10.479,13.6-11.3a26.224,26.224,0,0,1,17.538,4.214,18.67,18.67,0,0,1,8.519,14.652c.322,5.888-1.9,12-7.031,15.4a17.7,17.7,0,0,1-4.468,2.121c-2.933.932-1.68,5.568,1.276,4.629a21.113,21.113,0,0,0,14.445-15.5,24.063,24.063,0,0,0-4.617-20.41C270.12-.9,250.6-4.032,240.005,6.339a17.852,17.852,0,0,0-5.071,10.2c-.439,2.91.072,6.145,2.418,8.171a8.757,8.757,0,0,0,12.163-.836c.744-.708,1.484-1.422,2.239-2.118.305-.282.612-.561.926-.833.256-.222.616-.52.659-.551a10.182,10.182,0,0,1,1.569-.965c.34-.17-.322.117.035-.02.139-.054.28-.1.422-.149.338-.109.68-.189,1.026-.268a7.218,7.218,0,0,1,7.838,3.793,5.711,5.711,0,0,1,.306,3.507,5.291,5.291,0,0,1-2.175,3.27c-1.471.966-3.468,1.244-5.151,1.682a54.283,54.283,0,0,0-5.7,1.706,23.169,23.169,0,0,0-11,8.385c-2.553,3.663-5.107,8.046-4.684,12.7.376,4.146,3.863,6.544,7.751,7.217A7.384,7.384,0,0,0,250.031,59c1.566-1.549,2.5-3.651,3.758-5.436a12.767,12.767,0,0,1,4.272-4.145,20.844,20.844,0,0,1,4.637-1.611c2.2-.577,4.393-1.134,6.565-1.8C272.209,45.114,270.953,40.48,267.987,41.385Z"/><path class="c" d="M240.191,76.263c-.122.123-.246.245-.375.36-.064.057-.132.11-.195.167-.194.179.134-.115.153-.115-.09,0-.393.267-.485.324q-.246.149-.5.278c-.073.036-.148.068-.22.105-.234.119.192-.085.2-.085a1.963,1.963,0,0,0-.454.158c-.176.055-.355.1-.536.143-.077.017-.155.031-.232.048-.322.073.053-.013.174-.013-.308,0-.617.054-.928.05-.178,0-.356-.025-.534-.029-.258,0,.255.038.261.041a1.147,1.147,0,0,0-.3-.051,6.3,6.3,0,0,1-.864-.233c-.07-.024-.138-.055-.208-.076-.238-.072.229.087.234.1-.032-.076-.457-.234-.542-.285-.1-.061-.315-.272-.425-.283.022,0,.343.3.165.12-.056-.056-.121-.105-.18-.159-.113-.106-.223-.218-.328-.332-.027-.03-.188-.23-.2-.228.04-.008.311.442.108.138-.151-.227-.3-.452-.433-.692-.06-.109-.117-.22-.171-.332-.247-.51.133.379.016.06a10.618,10.618,0,0,1-.457-1.65c-.091-.475.053.584.025.195-.008-.112-.022-.224-.03-.337q-.03-.409-.019-.82c0-.161.019-.321.027-.482.021-.433-.1.5-.011.063a8.421,8.421,0,0,1,.242-.966c.176-.525-.165.278.03-.1.077-.15.151-.3.237-.444a2.827,2.827,0,0,1,.286-.435c.02.007-.3.341-.1.134.075-.076.143-.161.217-.239q.16-.166.333-.319c.437-.387-.292.177.055-.052a7.941,7.941,0,0,1,.859-.5,1.663,1.663,0,0,0,.209-.1s-.463.172-.217.1c.172-.052.339-.12.512-.171q.224-.065.45-.114c.1-.023.684-.12.292-.062s.125,0,.222-.007c.181-.009.362-.012.544-.008.155,0,.31.017.465.027.41.026-.495-.094.055.013a6.731,6.731,0,0,1,.9.242c.56.194-.3-.169.076.023.163.083.326.165.483.258.136.08.262.176.4.256.221.13-.184-.141-.191-.155.022.046.129.1.167.139.251.231.469.488.712.723.172.167-.147-.182-.149-.2.006.061.134.185.17.238.1.142.187.288.273.436.1.169.167.361.273.524.13.2-.093-.212-.093-.234a1.092,1.092,0,0,0,.107.278,7.473,7.473,0,0,1,.286,1.005c.02.1.036.2.055.3.071.356-.059-.128-.024-.191-.049.089.032.417.036.526.006.176,0,.353,0,.529,0,.11-.072.679-.009.284s-.05.243-.075.354c-.04.173-.086.345-.14.515-.031.1-.237.633-.094.29s-.1.182-.146.274c-.1.186-.216.361-.328.54-.051.08-.115.278,0,.017.122-.279-.039.043-.118.136a2.4,2.4,0,1,0,3.394,3.394A9.393,9.393,0,0,0,245.9,74a9.688,9.688,0,0,0-1.287-5.306,9,9,0,0,0-10.064-4.076,8.431,8.431,0,0,0-6.426,8.786,9.8,9.8,0,0,0,3.006,6.919,9.188,9.188,0,0,0,12.461-.67,2.4,2.4,0,0,0-3.394-3.394Z"/><path class="a" d="M216.17,242.706c-1.37,4.38,3.055,12.709,5.328,14.681a17.944,17.944,0,0,0,12.482,4.952c4.889.093,10.7-1.122,14.173-5.14,2.92-3.381,4.351-5.728,5.024-11.86.312-2.842-.842-11.847-3.255-16.249"/><path class="a" d="M212.31,130.551a1.626,1.626,0,0,0-.9-.267c-19.945,0-64.812,14.085-83.72,29.383-17.9-15.277-71.947-28.736-84.856-28.736a1.025,1.025,0,0,0-1.07.995c-.012,1.532-.043,6.576-.05,9.887,18.92,1.493,70.245,11.327,83.914,20.488a4.238,4.238,0,0,0,4.148.138c14.22-8.5,62.415-19.2,83.179-20.638,0-3.6,0-7.226,0-7.226v-2.843A1.4,1.4,0,0,0,212.31,130.551Z"/><path class="a" d="M39.456,242.706c1.37,4.38-3.055,12.709-5.328,14.681a17.942,17.942,0,0,1-12.481,4.952c-4.89.093-10.7-1.122-14.173-5.14-2.92-3.381-4.352-5.728-5.025-11.86-.312-2.842.842-11.847,3.255-16.249"/><path class="c" d="M37.142,243.344a5.5,5.5,0,0,1,.127,2.215,16.185,16.185,0,0,1-.885,3.372,23.46,23.46,0,0,1-2.829,5.467,3.219,3.219,0,0,1-.481.633,8.89,8.89,0,0,1-.643.659,18.11,18.11,0,0,1-3.247,2.325,15.137,15.137,0,0,1-6.93,1.905c-4.847.207-10.009-.838-13.294-4.663A16.674,16.674,0,0,1,4.8,244.227a35.128,35.128,0,0,1,.759-6.809A25.872,25.872,0,0,1,7.776,230.3c1.453-2.725-2.689-5.153-4.144-2.423C1.161,232.512.182,238.331.011,243.536A21.518,21.518,0,0,0,4.773,257.7c3.988,4.977,9.932,7.006,16.186,7.046a21.653,21.653,0,0,0,9.066-1.785,18.864,18.864,0,0,0,6.58-4.7,26.089,26.089,0,0,0,4.177-7.438c1.051-2.712,1.808-5.882.988-8.756-.846-2.965-5.479-1.705-4.628,1.276Z"/><path class="c" d="M213.856,242.068a13.357,13.357,0,0,0,.65,7.83,27.991,27.991,0,0,0,3.42,6.922c3.255,4.677,8.883,7.362,14.464,7.839,6,.511,12.979-.908,17.214-5.487a22.209,22.209,0,0,0,6.011-14.341,35.772,35.772,0,0,0-.789-8.008A30.579,30.579,0,0,0,252,227.879c-1.454-2.727-5.6-.3-4.145,2.423,1.965,3.684,2.723,8.521,2.943,12.731a16.842,16.842,0,0,1-3.158,11.047,13.5,13.5,0,0,1-5.373,4.445,19.2,19.2,0,0,1-6.9,1.405c-4.742.157-9.556-1.261-12.812-4.9a21.344,21.344,0,0,1-3.08-5.483,19.5,19.5,0,0,1-1.039-3.54,5.929,5.929,0,0,1,.05-2.664c.849-2.976-3.781-4.246-4.628-1.276Z"/><path class="d" d="M125.625,162.3c-14.593-9.78-72.1-20.327-87.286-20.674a1.965,1.965,0,0,0-2.015,1.966c-.034,18.082-.338,106.275-.442,123.784a1.989,1.989,0,0,0,1.782,1.961c14.257,1.188,74.379,16.755,87.984,23.049a5.578,5.578,0,0,0,4.147-.014c13.567-6.39,73.282-22.264,88.124-23.053a1.967,1.967,0,0,0,1.825-1.955c-.1-17.545-.407-105.774-.442-123.8a1.928,1.928,0,0,0-1.92-1.929c-17.255-.124-72.25,11.615-87.609,20.8A4.238,4.238,0,0,1,125.625,162.3Z"/><path class="c" d="M44.109,140.793c0-2.727.036-5.454.05-8.18a2.442,2.442,0,0,0,0-.573c.352,1.225-2.017,1.141-.854,1.3.388.052.8.029,1.192.054,1.016.064,2.029.17,3.039.293.242.029.483.06.725.092-.639-.083.252.036.4.057q.959.138,1.915.292,2.067.333,4.122.727c3.145.6,6.274,1.275,9.39,2.006a250.918,250.918,0,0,1,43.528,14.008,114.973,114.973,0,0,1,10.429,5.156c1.53.866,3.035,1.779,4.493,2.761a33.924,33.924,0,0,1,3.447,2.582,2.491,2.491,0,0,0,3.395,0,92.269,92.269,0,0,1,16.492-10.046,189.253,189.253,0,0,1,21.046-8.773,220.827,220.827,0,0,1,22.135-6.568,116.4,116.4,0,0,1,18.4-3.137c.735-.054,1.471-.1,2.207-.123.331-.012.661-.021.992-.027.142,0,.287.007.429,0,.574-.051.082.091-.038-.092-.414-.627-.5-1.214-.5-.342v8.542c0,3.088,4.8,3.093,4.8,0v-6.338c0-.885.046-1.783,0-2.666a4,4,0,0,0-4.152-3.9c-6.234-.132-12.656,1.137-18.727,2.412a211.125,211.125,0,0,0-45.832,15.347A100.427,100.427,0,0,0,125.99,157.97h3.395c-5.1-4.329-11.11-7.5-17.163-10.273A211.7,211.7,0,0,0,89.276,138.9c-13.482-4.375-27.462-8.245-41.559-10-2.75-.342-7.5-1.346-8.27,2.383a26.115,26.115,0,0,0-.111,4.893c-.01,1.537-.025,3.074-.027,4.612,0,3.088,4.8,3.093,4.8,0Z"/><path class="c" d="M126.836,160.229a54.4,54.4,0,0,0-11.853-5.436c-5.5-1.972-11.135-3.58-16.79-5.051-12.488-3.249-25.168-5.83-37.9-7.9-5.193-.845-10.406-1.611-15.639-2.155-1.8-.187-3.613-.35-5.425-.428a4.953,4.953,0,0,0-4.208,1.462,5.417,5.417,0,0,0-1.1,3.856q-.025,12.078-.069,24.156-.057,17.885-.12,35.77-.063,18.017-.132,36.033-.05,12.473-.108,24.945c0,.582-.028,1.167-.01,1.748a4.466,4.466,0,0,0,3.543,4.426c.836.166,1.726.195,2.574.3.405.049-.566-.083.1.014l.544.079q.7.1,1.406.218c4.584.744,9.134,1.707,13.668,2.707,12.074,2.664,24.068,5.712,35.991,8.981,10.112,2.772,20.317,5.556,30.13,9.28q.573.217,1.142.443.285.113.568.228c.109.044.753.314.381.156-.325-.138.5.22.684.3a8.713,8.713,0,0,0,2.764.78,9.064,9.064,0,0,0,4.723-1.01c.145-.065.292-.127.437-.192l.261-.112c.285-.123-.462.192-.169.072.387-.158.773-.317,1.161-.47,4.15-1.643,8.406-3.026,12.661-4.367,11.789-3.716,23.728-6.976,35.713-10,10.475-2.638,21.047-5.271,31.741-6.865q.309-.046.619-.09c.237-.034.772-.1.21-.032.423-.055.846-.108,1.27-.156.73-.082,1.462-.13,2.193-.194a4.47,4.47,0,0,0,4.332-4.2c.039-.624.007-1.258,0-1.883q-.027-5.138-.048-10.273-.069-15.9-.125-31.8-.068-18.593-.13-37.187-.052-15.775-.1-31.552-.013-5.031-.026-10.06a6.72,6.72,0,0,0-.545-3.308,4.694,4.694,0,0,0-4.487-2.232c-2,.02-4,.163-6,.345a288.376,288.376,0,0,0-35.918,6.079c-12.218,2.71-24.5,5.76-36.232,10.178-2.19.826-4.365,1.709-6.485,2.7-.863.4-1.717.829-2.552,1.289-.894.493-1.646,1-2.655.4-2.661-1.584-5.078,2.565-2.423,4.145a6.667,6.667,0,0,0,6.005.405c.919-.405,1.775-.966,2.673-1.421a55.418,55.418,0,0,1,5.6-2.46c5.251-2.043,10.645-3.717,16.061-5.261a384.257,384.257,0,0,1,38.139-8.719c5.522-.98,10.681-1.8,16.006-2.356,2.106-.223,4.217-.405,6.333-.486q.64-.024,1.282-.034a4.389,4.389,0,0,0,.562,0c-.024,0,.309,0,.31,0-.056.18-.447-.3-.415-.288-.217-.062.023-.288-.064.024a1.892,1.892,0,0,0,0,.432q0,.466,0,.934.027,12.086.069,24.17.056,17.568.118,35.135.061,17.766.13,35.532.049,12.456.107,24.912,0,.927.01,1.852a2.537,2.537,0,0,0,0,.37c.071.419-.1.069.084-.013.5-.224.214-.166-.262-.129-1.8.14-3.6.395-5.388.669-4.688.72-9.34,1.683-13.972,2.7-11.994,2.624-23.9,5.685-35.721,8.986-9.881,2.758-19.851,5.547-29.425,9.262q-1.35.523-2.682,1.1c-.313.134-.627.268-.937.411-.1.048-.562.218-.181.091a3.542,3.542,0,0,1-1.135.2,3.479,3.479,0,0,1-1.137-.186c.306.1.024,0-.122-.059-.481-.2-.955-.414-1.436-.615q-1.109-.463-2.234-.89c-4.169-1.587-8.429-2.939-12.692-4.25-11.561-3.556-23.255-6.7-34.985-9.646-10.3-2.587-20.657-5.135-31.127-6.925-1.775-.3-3.557-.578-5.347-.775-.124-.014-.777-.164-.864-.086.446-.4.45.964.506.02.037-.618.007-1.248.01-1.868q.027-5.151.048-10.3.067-15.657.122-31.315.067-18.372.129-36.745.052-15.577.1-31.155.015-5.082.027-10.164c0-.3.189-1.566,0-1.774.329.37-.916.241.014.394a11.007,11.007,0,0,0,1.151.051c1.862.1,3.719.279,5.573.482q1.688.184,3.372.4l.809.1.546.072q.981.132,1.96.272,4.137.588,8.259,1.279,9.222,1.534,18.374,3.453c11.844,2.475,23.758,5.242,35.155,9.355q1.658.6,3.293,1.251.411.165.821.335a3.385,3.385,0,0,1,.319.135c.473.206.946.414,1.414.63a34.062,34.062,0,0,1,4.629,2.518C126.993,166.089,129.4,161.933,126.836,160.229Z"/><path class="c" d="M125.545,171.335c0,12.548-.053,25.1-.089,37.646q-.075,25.824-.142,51.65-.024,10.407-.032,20.815c0,3.089,4.8,3.094,4.8,0q0-21.4.089-42.794.069-25.1.141-50.2.022-8.557.033-17.116c0-3.089-4.8-3.094-4.8,0Z"/><path class="a" d="M12.951,204.9a21.783,21.783,0,0,1,5.2-5.076,20.623,20.623,0,0,1,11.308-3.847,16.789,16.789,0,0,1,8.142,1.667,15.969,15.969,0,0,1,4.591,3.477,8.312,8.312,0,0,1,2.165,3.69,4.04,4.04,0,0,1-1.13,3.956,3.032,3.032,0,0,1-1.412.628c.85.646,1.478,1.126,1.478,1.126,1.368,1.046,2.941,2.9,3.171,4.448a5.557,5.557,0,0,1-.883,4.35,4.55,4.55,0,0,1-3.163,1.809l1.9,1.764a5.567,5.567,0,0,1,.7,6.809,4.881,4.881,0,0,1-3.754,2.2l.492,1.776c.2.729,1.678,5.509-1.21,8.353a11.878,11.878,0,0,1-7.133,3,37.313,37.313,0,0,1-7.878-.03c-2.668-.279-5.45-.382-7.891-1.292a12.8,12.8,0,0,1-5.889-4.442,20.88,20.88,0,0,1-3.33-7.048,49.372,49.372,0,0,1-.9-6.256c-.127-4.411-.371-10.781,3.223-17.477A29.266,29.266,0,0,1,12.951,204.9Z"/><path class="c" d="M23.8,210.586c4.51.243,8.991.865,13.494,1.2,2.123.158,4.582.434,6.536-.567,2.771-1.419,3.609-5.014,2.609-7.793-2.027-5.629-8.426-9.086-14.062-9.729a22.591,22.591,0,0,0-13.646,2.915C9.8,201.716,5.3,211.792,5.072,221.791c-.115,4.959.258,10.29,2.37,14.839,2.157,4.649,5.724,8.434,10.8,9.786a46.416,46.416,0,0,0,10.728,1.2,22.356,22.356,0,0,0,10.209-1.741,9.193,9.193,0,0,0,5.388-7,14.226,14.226,0,0,0-.507-5.838c-.835-2.969-5.467-1.707-4.629,1.276a8.839,8.839,0,0,1,.462,3.334,4.417,4.417,0,0,1-2.614,3.81,14.784,14.784,0,0,1-6.829,1.354,60.014,60.014,0,0,1-8.287-.546,12.782,12.782,0,0,1-6.313-2.217,12.17,12.17,0,0,1-3.306-3.986c-2-3.537-2.582-7.59-2.668-11.612a30.454,30.454,0,0,1,2.082-13.021,23.053,23.053,0,0,1,6.683-9.021c5.91-4.615,15.1-5.952,20.951-.5.887.827,3.647,3.575,2.159,4.949-.516.476-1.719.25-2.369.234-.841-.02-1.681-.083-2.519-.149-4.357-.345-8.7-.931-13.062-1.166-3.087-.166-3.078,4.635,0,4.8Z"/><path class="c" d="M41.59,212.22a6.576,6.576,0,0,1,2.519,3.132,2.819,2.819,0,0,1-1.258,3.194c-1.411.645-3.6.064-5.082-.095-5.122-.551-10.254-1.2-15.4-1.481-3.087-.169-3.077,4.632,0,4.8,4.685.257,9.359.829,14.023,1.333,1.528.164,3.063.385,4.6.477a7.338,7.338,0,0,0,7.57-4.9c1.338-3.755-.646-7.532-3.575-9.859a2.478,2.478,0,0,0-3.395,0,2.419,2.419,0,0,0,0,3.4Z"/><path class="c" d="M42.613,224.591c1.325,1.332,1.088,4.022-.76,4.784a7.118,7.118,0,0,1-3.393.187c-1.312-.134-2.623-.274-3.935-.406-4.576-.463-9.166-1-13.76-1.25-3.087-.165-3.078,4.635,0,4.8,5.6.3,11.2.977,16.771,1.559,3.509.366,7.158.11,9.352-3.059a8.02,8.02,0,0,0-.881-10.009c-2.182-2.192-5.577,1.2-3.394,3.394Z"/><path class="a" d="M242.675,204.9a21.783,21.783,0,0,0-5.2-5.076,20.622,20.622,0,0,0-11.307-3.847,16.791,16.791,0,0,0-8.143,1.667,15.969,15.969,0,0,0-4.591,3.477,8.312,8.312,0,0,0-2.165,3.69,4.04,4.04,0,0,0,1.13,3.956,3.041,3.041,0,0,0,1.412.628c-.85.646-1.477,1.126-1.477,1.126-1.369,1.046-2.942,2.9-3.172,4.448a5.561,5.561,0,0,0,.883,4.35,4.55,4.55,0,0,0,3.163,1.809c-1.03.957-1.9,1.764-1.9,1.764a5.566,5.566,0,0,0-.7,6.809,4.879,4.879,0,0,0,3.753,2.2l-.492,1.776c-.2.729-1.678,5.509,1.21,8.353a11.878,11.878,0,0,0,7.134,3A37.3,37.3,0,0,0,230.1,245c2.668-.279,5.451-.382,7.891-1.292a12.794,12.794,0,0,0,5.889-4.442,20.88,20.88,0,0,0,3.33-7.048,49.372,49.372,0,0,0,.9-6.256c.127-4.411.371-10.781-3.223-17.477A29.017,29.017,0,0,0,242.675,204.9Z"/><path class="c" d="M231.823,205.786a80.98,80.98,0,0,0-9.64.811c-1.664.172-3.33.352-5,.457-1.051.066-3.21.56-3.562-.72-.536-1.947,1.885-4.061,3.2-5.1a13.417,13.417,0,0,1,6.39-2.729,17.758,17.758,0,0,1,10.921,2.062c7.077,3.882,11.058,11.709,11.556,19.6.46,7.3-.3,17.7-7.963,21.083-2.63,1.16-5.784,1.211-8.605,1.442a25.1,25.1,0,0,1-8.979-.505c-2.005-.589-4-1.748-4.359-3.957a8.162,8.162,0,0,1,.413-3.911c.837-2.978-3.793-4.25-4.628-1.276-1.261,4.487-.656,9.1,3.364,11.943,5.194,3.676,12.6,2.761,18.533,2.085A18.189,18.189,0,0,0,242.2,244.2a17.236,17.236,0,0,0,4.867-5.427c2.652-4.55,3.424-9.748,3.5-14.954a33.722,33.722,0,0,0-3.7-16.719,26.4,26.4,0,0,0-9-9.9,22.89,22.89,0,0,0-13.339-3.609c-5.733.271-12.017,3.276-14.778,8.549-1.577,3.013-1.3,7.363,2.049,9.079,2.044,1.047,4.64.714,6.857.523,4.356-.376,8.792-1.231,13.172-1.155,3.09.054,3.091-4.746,0-4.8Z"/><path class="c" d="M210.642,208.825c-3.349,2.661-5.183,7.044-3.05,11.065,1.672,3.154,4.979,3.877,8.254,3.589,5.579-.49,11.158-1.085,16.752-1.388,3.072-.166,3.092-4.967,0-4.8-5,.27-9.983.777-14.966,1.228-1.41.128-3.527.645-4.857.027a2.818,2.818,0,0,1-1.257-3.194,6.568,6.568,0,0,1,2.518-3.132,2.415,2.415,0,0,0,0-3.4,2.46,2.46,0,0,0-3.394,0Z"/><path class="c" d="M209.62,221.2a8.019,8.019,0,0,0-.882,10.008c2.17,3.118,5.9,3.328,9.367,3.127,5.605-.325,11.157-1.312,16.756-1.626,3.072-.172,3.092-4.973,0-4.8-4.585.257-9.149,1.011-13.725,1.4-1.269.108-2.54.2-3.812.263a8.989,8.989,0,0,1-3.542-.255c-1.854-.7-2.1-3.391-.768-4.727C215.2,222.4,211.8,219,209.62,221.2Z"/><path class="c" d="M120.767,142.055a40.453,40.453,0,0,1,5.136-1.476c.335-.066.671-.122,1.007-.175.275-.043-.31.028.149-.018.193-.019.385-.042.577-.059.81-.076,1.624-.12,2.438-.149a13.369,13.369,0,0,1,4.6.409c.164.049.327.1.488.157.065.023.57.236.251.093s.2.106.211.112c.1.057.207.11.308.169.242.14.461.314.7.458-.5-.3.065.067.246.232a2.451,2.451,0,0,0,3.394,0,2.425,2.425,0,0,0,0-3.394c-2.633-2.4-6.037-3.1-9.524-3.054a35.931,35.931,0,0,0-11.256,2.066,2.457,2.457,0,0,0-1.676,2.953,2.423,2.423,0,0,0,2.952,1.676Z"/><path class="c" d="M127.492,116.987a50.022,50.022,0,0,1,1.174,5.369l-.086-.638a3.279,3.279,0,0,1,.02.741l.086-.638a1.82,1.82,0,0,1-.082.333l.242-.573a1.391,1.391,0,0,1-.117.214l.375-.486a1.108,1.108,0,0,1-.176.173l.486-.375a3.594,3.594,0,0,1-.425.225l.573-.242a3.094,3.094,0,0,1-.716.209l.638-.086a2.859,2.859,0,0,1-.673,0l.638.086c-.254-.036-.5-.1-.756-.131a2.646,2.646,0,0,0-1.85.242,2.4,2.4,0,0,0-.861,3.283,2.3,2.3,0,0,0,1.435,1.1c.546.074,1.076.214,1.631.238a5.154,5.154,0,0,0,2.364-.556,3.336,3.336,0,0,0,1.871-2.208,5.683,5.683,0,0,0-.025-2.418c-.293-1.729-.692-3.444-1.137-5.14a2.4,2.4,0,0,0-4.629,1.276Z"/><path class="c" d="M98.922,102.5c-.9,2.913-.312,9.615,5.207,10.186,7.3-.044,7.683-8.147,5.228-11.957C107.346,97.613,101.434,96.315,98.922,102.5Z"/><path class="c" d="M156.09,102.5c.9,2.913.313,9.615-5.207,10.186-7.3-.044-7.684-8.147-5.228-11.957C147.666,97.613,153.578,96.315,156.09,102.5Z"/></svg>