<?xml version="1.0" encoding="utf-8"?>
<!-- Uploaded to: SVG Repo, www.svgrepo.com, Generator: SVG Repo Mixer Tools -->
<svg width="800px" height="800px" viewBox="0 -40.93 381.559 381.559" xmlns="http://www.w3.org/2000/svg"><defs><style>.a{fill:#ffffff;}.b{fill:#211715;}.c{fill:#85807f;}.d{fill:#7abee6;}.e{fill:#3d8dcc;}.f{fill:#b3b3b3;}.g{fill:#ffda71;}</style></defs><path class="a" d="M155.85,152.336a5.776,5.776,0,0,1,4.135-1.083,5.214,5.214,0,0,1,4.447,2.814c1.37,2.728.93,7.516-.364,10.4a15.127,15.127,0,0,1-5.446,6.952,11.134,11.134,0,0,1-5.384,1.478c-.214.469-.363.8-.363.8-.637,1.477-2.18,4.078-2.18,4.078a55.781,55.781,0,0,1-3.5,5.067c0,1.482,0,2.674,0,2.674a106.379,106.379,0,0,1-16.777,19.838l-3.216-.006c-3.785-3.046-8.5-6.338-9.839-7.3v-.174a29.071,29.071,0,0,1-20.062-6.3c-6.581-4.963-9.68-13.078-11.04-22.133-.784-5.222-1.51-10.9-2.488-16.569,0,0-9.132-25.405,31.09-29.183S155.85,152.336,155.85,152.336Z"/><path class="a" d="M69.722,181.676q.171.258.328.523a33.62,33.62,0,0,1,3.3,7.278,4.282,4.282,0,0,1-2.359,5.273l.234,1.905a3.527,3.527,0,0,1,1.738.765,6.345,6.345,0,0,1,1.361,2.121c1.118,2.515.548,4.989-.642,7.471a23.572,23.572,0,0,1-5.071,6.459c-2.686,2.618-5.2,6.848-11.8,9.426a25.9,25.9,0,0,0,.314,7.609c-6.363.879-16.793,2.294-22.8,3.137-.042-.516-.071-.84-.071-.84a101.3,101.3,0,0,0-1.44-10.315,12.44,12.44,0,0,1-.159-1.483c.271-8.419,3.575-23.3,5.779-30.054.713-2.185,1.747-3.13,3.36-4.769a11.727,11.727,0,0,1,3.271-2.113,100.613,100.613,0,0,1,12.974-5.453c2.136-.705,4.423-1.313,6.611-.792A8.769,8.769,0,0,1,69.722,181.676Z"/><path class="a" d="M183.417,165.939a14.536,14.536,0,0,1-.884-2.782c-.246-2.611-.188-5.884,1.706-7.759a144.743,144.743,0,0,1,13.32-7.466c1.221-.575,4.431-1.068,5.9,1.06a3.815,3.815,0,0,1,.7,2.625l.172-.612c.088-1.624,1.287-2.5,3.179-3.352a4.406,4.406,0,0,1,3.353-.025c2.6,1.573,4.7,5.16,5.493,8.16a5.014,5.014,0,0,1-.363,3.3c-.6,1.234-1.931,1.714-4.122,1.587,1.234,1.41,1.554,5.037-.951,5.9,1.091.087,3.656-.13,4.374,1.878a3.4,3.4,0,0,1-.12,2.626,10.143,10.143,0,0,1-1.966,2.492,3.188,3.188,0,0,0-1.136,2.679c.045,1.725.928,5.219.774,6.9a8.94,8.94,0,0,1-1.915,4.809c-.4.473-4.637,2.07-7.545,3.006-.916.39-2.837,1.177-4.313.8-6.139-1.578-8.635-11.04-12.879-19.4C185.859,171.7,184.391,168.453,183.417,165.939Z"/><path class="a" d="M292.193,6.644a3.06,3.06,0,0,0-.663.361,4.2,4.2,0,0,0-1.508,3.5l.024.919-.1-.076a3.439,3.439,0,0,0-4.477.778c-1.063,1.278-1,3.075-.589,4.691l.048.19-1.551-.53a3.628,3.628,0,0,0-2.829.554,4.6,4.6,0,0,0-1.012,3.938,21.273,21.273,0,0,0,2.832,5.952c1.4,1.934,3.081,3.4,4.955,3.263l.193-.014a11.968,11.968,0,0,0,.582,3.456,17.663,17.663,0,0,0,5.3,5.652,9.423,9.423,0,0,0,4.886,1.473,13.55,13.55,0,0,0,4.373-.776c2.127-.856,4.469-1.835,6.9-3l1.606,1.656a150.312,150.312,0,0,1,12.293-9.968,36.023,36.023,0,0,1-5.108-5.725l-.189-.335c-2.473-5.935-5.1-13.26-9.37-17.861A14.019,14.019,0,0,0,306.725,3.2a7.528,7.528,0,0,0-5.113-1.152c-1.47.077-5.656,1.677-4.838,5.9l.008.041-.568-.634A3.645,3.645,0,0,0,292.193,6.644Z"/><path class="b" d="M320.28,22.533c-2.383-5.612-4.37-11.551-7.946-16.554-1.768-2.475-4.122-4.915-7.189-5.668a9.528,9.528,0,0,0-6.868.761,6.806,6.806,0,0,0-3.432,7.411,2.017,2.017,0,0,0,2.461,1.4,2.048,2.048,0,0,0,1.4-2.461c-.321-1.911,1.25-2.948,2.645-3.306.153-.04.79-.1.152-.056.385-.027.773-.039,1.16-.034a5.64,5.64,0,0,1,2.04.328,9.072,9.072,0,0,1,3.4,2.638c4.175,5.014,6.21,11.645,8.722,17.563a2.011,2.011,0,0,0,2.736.718,2.053,2.053,0,0,0,.718-2.737Z"/><path class="b" d="M294.845,8.483a20.225,20.225,0,0,0,1.171,4.069,19.71,19.71,0,0,0,1.823,3.832,5.745,5.745,0,0,0,3.172,2.376,4.219,4.219,0,0,0,3.157-.252,7.288,7.288,0,0,0,2.777-3.958,2.012,2.012,0,0,0-1.4-2.46,2.05,2.05,0,0,0-2.46,1.4c-.035.1-.071.2-.11.3q.156-.354.019-.05c-.089.178-.174.357-.272.531-.07.122-.143.243-.22.361-.049.075-.1.149-.152.222q.277-.348.082-.106c-.078.087-.152.175-.233.257-.126.126-.518.387.025.009-.353.246.572-.174.1-.046-.4.106.523-.026.21-.024-.073,0-.145.007-.218.007-.262,0-.386-.148.138.039-.1-.037-.229-.041-.336-.069-.087-.023-.172-.054-.259-.08-.311-.094.494.249.038.01-.089-.047-.177-.1-.262-.154-.439-.282.221.234-.024-.012-.1-.1-.195-.183-.286-.283-.327-.359.176.312-.031-.031-.167-.275-.325-.55-.471-.837q-.249-.488-.482-.983-.113-.237-.22-.477c-.043-.1-.353-.682-.1-.222a11.25,11.25,0,0,1-.752-2.065,18.607,18.607,0,0,1-.564-2.362,2.009,2.009,0,0,0-2.461-1.4,2.056,2.056,0,0,0-1.4,2.46Z"/><path class="b" d="M294.8,22.209a5.694,5.694,0,0,0,4.993-.633,4.278,4.278,0,0,0,1.189-1.156,5.148,5.148,0,0,0,.554-1.108,7.236,7.236,0,0,0,.433-2,2,2,0,0,0-.586-1.414,2,2,0,0,0-2.829,0l-.312.4a1.987,1.987,0,0,0-.273,1.009c-.006.055-.012.109-.019.164l.071-.532a5.316,5.316,0,0,1-.355,1.336l.2-.478a3.109,3.109,0,0,1-.376.649l.313-.405a1.947,1.947,0,0,1-.287.287l.405-.312a4.238,4.238,0,0,1-.82.468l.478-.2a4.091,4.091,0,0,1-1.023.283l.532-.072a3.8,3.8,0,0,1-.959-.008l.531.072a4.007,4.007,0,0,1-.8-.209,2.02,2.02,0,0,0-1.542.2,2,2,0,0,0-.717,2.736,2.261,2.261,0,0,0,1.195.919Z"/><path class="b" d="M295.1,17.665a27.6,27.6,0,0,1-2.211-4.19,12.428,12.428,0,0,1-.683-1.875c-.053-.2-.1-.4-.139-.605-.084-.4-.026.152-.034-.287,0-.156-.013-.311-.009-.467,0-.066.066-.593.019-.34-.052.275.05-.2.064-.246.044-.168.1-.331.158-.494-.148.4.058-.077.095-.14s.305-.4.136-.214.211-.186.251-.227c.19-.2-.306.161-.017.026a1.559,1.559,0,0,0,.322-.17c-.022.1-.411.146.011.019.132-.04.267-.066.4-.1.352-.09-.264-.031-.039,0a2.552,2.552,0,0,0,.436-.013c.29-.009.19-.06-.02-.026a1.463,1.463,0,0,1,.433.095c.211.061.362.231.077.015.118.09.266.149.388.235-.279-.2-.07-.033.062.107a2.018,2.018,0,0,0,2.829,0,2.043,2.043,0,0,0,0-2.829A5.568,5.568,0,0,0,292.4,4.5a5.473,5.473,0,0,0-4.022,3.68,8.465,8.465,0,0,0,.481,5.967,30.245,30.245,0,0,0,2.787,5.539,2,2,0,0,0,3.454-2.019Z"/><path class="b" d="M289.854,20.849c-.171-.081-.338-.164-.5-.261-.039-.023-.438-.3-.266-.167s-.183-.178-.215-.207c-.374-.341.183.317-.127-.154-.386-.588-.777-1.169-1.12-1.784-.178-.319-.345-.644-.5-.978.113.251-.024-.064-.061-.164-.057-.156-.11-.312-.158-.47a9.44,9.44,0,0,1-.241-1c-.032-.172-.053-.384-.023-.09-.018-.178-.034-.355-.041-.534a5.231,5.231,0,0,1,.03-.876c-.062.472.039-.08.056-.144s.17-.489.069-.244.1-.175.127-.221c.216-.413-.2.159.09-.137.089-.09.186-.173.272-.264.152-.162-.293.172.022-.01.132-.076.27-.148.4-.226-.213.127-.212.077.02,0,.122-.039.246-.066.369-.1.438-.121-.384-.018.067-.006a3.324,3.324,0,0,0,.373.006c.211-.018-.356-.117-.022.009a1.981,1.981,0,0,1,.212.063c.14.049.093.029-.139-.061.118.087.259.15.38.236a2.01,2.01,0,0,0,2.736-.718,2.051,2.051,0,0,0-.717-2.736,5.266,5.266,0,0,0-5.434-.079,5.8,5.8,0,0,0-2.9,4.8,10.608,10.608,0,0,0,1.316,5.514c.9,1.765,2.051,3.578,3.9,4.448a2,2,0,0,0,2.019-3.454Z"/><path class="b" d="M329.7,31.869c-2.1-1.977-4.207-3.959-6.233-6.018-.77-.783-1.53-1.576-2.252-2.4-.161-.184-.32-.369-.475-.558l-.177-.218c-.208-.255.023,0,.085.113-.167-.3-.408-.559-.579-.858a2,2,0,1,0-3.454,2.019,24.2,24.2,0,0,0,3.906,4.615c2.061,2.1,4.2,4.123,6.35,6.137a2,2,0,0,0,2.829-2.828Z"/><path class="b" d="M315.253,42.311c-1.689-2.1-3.469-4.132-5.265-6.145a2.014,2.014,0,0,0-2.829,0,2.048,2.048,0,0,0,0,2.829c1.8,2.012,3.577,4.041,5.266,6.145a2,2,0,0,0,1.414.586,2.032,2.032,0,0,0,1.414-.586,2.012,2.012,0,0,0,.586-1.414,2.309,2.309,0,0,0-.586-1.415Z"/><path class="b" d="M308.545,35.245c-2.856,1.357-6,3.115-9.193,3.451-3.141.331-5.43-1.257-7.546-3.408a6.832,6.832,0,0,1-2.213-3.983,12.981,12.981,0,0,1,.245-4.569c.286-1.272.636-2.535,1.032-3.777.089-.279.188-.555.281-.833.033-.1.071-.205.113-.3-.043.1-.165.221,0,0a2.459,2.459,0,0,1,1.113-.746,2.214,2.214,0,0,1,.59-.156c-.394,0,0,.045.086.126a2.535,2.535,0,0,1,.461.436,5.662,5.662,0,0,1,.438,1.669c.373,1.736.7,3.482,1.049,5.222.509,2.521,4.366,1.454,3.857-1.064-.388-1.918-.734-3.847-1.167-5.756a5.525,5.525,0,0,0-3.435-4.3,5.725,5.725,0,0,0-5.693,1.568c-1.151,1.14-1.538,2.949-1.966,4.459-1.064,3.758-2.008,8.547.179,12.089,2.119,3.434,5.817,6.608,9.883,7.221,4.9.738,9.619-1.853,13.9-3.887a2.019,2.019,0,0,0,.717-2.737,2.044,2.044,0,0,0-2.736-.717Z"/><path class="b" d="M283.9,14.544a4.985,4.985,0,0,0-5.668,2.266,7.519,7.519,0,0,0-.017,6.516,22.57,22.57,0,0,0,3.087,5.478c1.459,1.845,3.534,3.486,6.013,3.376a2.042,2.042,0,0,0,2-2,2.02,2.02,0,0,0-2-2,3.7,3.7,0,0,1-.557-.006c.426.045-.1-.054-.191-.074-.452-.1.191.144-.223-.087-.173-.1-.339-.2-.509-.3-.464-.283.169.184-.252-.187-.163-.143-.323-.287-.476-.44a10.171,10.171,0,0,1-.905-1.018A20.022,20.022,0,0,1,282.19,22.5c-.069-.15-.137-.3-.2-.452.144.337-.061-.157-.088-.226-.122-.318-.237-.64-.331-.968a2.962,2.962,0,0,1-.017-1.607c0-.017.206-.608.058-.256a4.487,4.487,0,0,1,.255-.473c-.15.263-.05.051.093-.08-.3.277.209-.031-.173.113.165-.063.338-.095.507-.144.367-.1-.148-.008.068-.012a1.9,1.9,0,0,0,.472-.009q.246.015-.2-.039a1.356,1.356,0,0,1,.207.05,2,2,0,1,0,1.063-3.857Z"/><path class="a" d="M213.094,129.328A38.679,38.679,0,0,1,219,124.577c3.99-2.62,8.44-4.47,12.45-7.06a25.344,25.344,0,0,0,6.5-5.8c.314,1.027.573,1.864.573,1.864a61.282,61.282,0,0,0,3.927,8.692c5.932,10.48,11.354,19.687,18.164,29.619a57.716,57.716,0,0,0,5.91,7.427v60.4H236.5c.429-7.094,1.243-27.47-.817-31.614-.919-1.848-7.231-16.584-7.6-18.615-1.721-9.584-2.432-14.381-4.154-23.966l-19.281-4.2c.93-1.61,2.07-3.86,2.82-5.04A38.782,38.782,0,0,1,213.094,129.328Z"/><path class="b" d="M222,146.05c1.292,7.2,2.462,14.423,3.737,21.626.744,4.207,2.472,8.042,4.115,11.974q1.385,3.314,2.817,6.608c.313.717.626,1.433.951,2.145.093.2.186.408.284.61.109.224.084.2-.009-.05.056.151.113.3.157.457a22.75,22.75,0,0,1,.753,5.346c.176,2.727.217,5.461.215,8.193,0,5.586-.19,11.178-.525,16.754-.154,2.571,3.846,2.562,4,0q.44-7.333.513-14.685c.051-5.054.153-10.282-.77-15.274a16.66,16.66,0,0,0-1.369-3.823c-.841-1.875-1.649-3.765-2.451-5.657q-1.381-3.261-2.7-6.548a35.828,35.828,0,0,1-1.67-4.591c-.929-3.79-1.373-7.768-2.024-11.617-.707-4.18-1.421-8.358-2.17-12.531a2.017,2.017,0,0,0-2.46-1.4,2.044,2.044,0,0,0-1.4,2.46Z"/><path class="c" d="M232.506,91.73,204.365,74.773a62.617,62.617,0,0,1-4.045-21.094,39.331,39.331,0,0,1,4.864-18.65c5.427-9.16,14.731-15.759,27.226-18.54,8.81-1.962,18.025-1.588,29.169,4.8,8.993,3.781,17.239,15.632,19.4,26.674a104.95,104.95,0,0,1,1.99,14.849c.663,8.656,2.774,13.878,4.107,17.878,1.773,5.319.111,8.556-7.444,13.778l-9.056,7.833S244.774,99.122,232.506,91.73Z"/><path class="a" d="M204.854,73.411c.361-4.092,3.153-6.968,5.588-9.608,3.846-4.168,8.1-7.844,12.174-12.223.382,3.409-.487,12.117,1.784,10.909,9.332-4.829,16.109-12.363,20.693-22.032,4.053,9.054,14.313,21.321,18.864,22.488l7.025.657a5.432,5.432,0,0,1,3.739-1.465,4.9,4.9,0,0,1,4.46,2.138c1.578,2.395,1.693,6.912.8,9.749a14.212,14.212,0,0,1-4.319,7.086,10.435,10.435,0,0,1-4.914,1.977c-.117.455-.2.78-.2.78-.432,1.447-1.586,4.044-1.586,4.044a51.8,51.8,0,0,1-2.548,4.831,14.928,14.928,0,0,0,9.282,8.646c-1.381,5.873-2.52,11.764-3.479,17.678-1.891,1.891-4.8,5.491-7.581,6.941a23.358,23.358,0,0,1-5.05,1.65,21.825,21.825,0,0,1-6.52.7,53.652,53.652,0,0,1-7.729-1.012q-1.434-2.494-2.894-5.075a61.282,61.282,0,0,1-3.927-8.692s-.379-1.358-.816-2.916a27.453,27.453,0,0,1-17.06-4.007c-6.687-3.909-10.471-11.142-12.735-19.443-1.052-3.857-2.1-8-3.274-12.167l.219-2.023"/><path class="d" d="M260.791,127.368c-.426.112-.834.21-1.2.289a21.825,21.825,0,0,1-6.52.7,53.774,53.774,0,0,1-7.729-1.012c4.859,8.453,9.58,16.246,15.27,24.544,1.762,2.571,4.881,6.77,7.063,8.454,1.036-13.926,2.323-27.659,4.546-41.276-1.89,1.89-4.8,5.49-7.58,6.94A20.177,20.177,0,0,1,260.791,127.368Z"/><path class="a" d="M276.409,100.217c1.523,1.079,3.4,1.833,5.079,1.28A283.591,283.591,0,0,0,315.277,86c3.214-1.738,7.33-5.476,8.938-8.756l3.263-6.606a109.792,109.792,0,0,0-10.666-13.1c-3.632-3.939-8.361-9-11.993-12.943a156.474,156.474,0,0,1,21.535-17.958c2.132,2.535,25.2,24.469,25.994,25.329,6.369,6.936,12.146,13.211,16.659,21.474a22.365,22.365,0,0,1,2.249,10.2,14.333,14.333,0,0,1-1.731,5.675c-2.76,5.418-6.246,8.935-11.13,12.557s-34.18,23.015-42.942,29.817l-4.044,3.222-1.808,1.44c1,4.647,2.981,11.916,4.711,17.442l-46.5,4.654c1.52-19.82,3.6-39.26,8.23-58.54"/><path class="b" d="M243.3,92.194a3.385,3.385,0,0,0-3.609-3.288,18.675,18.675,0,0,0-4.283.884c-1.4.381-2.786.825-4.152,1.318a10.444,10.444,0,0,0-1.841.748,3.15,3.15,0,0,0-1.46,2.473c-.114,1.545,1.09,2.752,2.081,3.79a27.844,27.844,0,0,0,3.206,2.825,5.168,5.168,0,0,0,3.458,1.266,4.868,4.868,0,0,0,3.559-1.742,15.292,15.292,0,0,0,2.085-4.271,16.009,16.009,0,0,0,.956-4,2.007,2.007,0,0,0-2-2,2.054,2.054,0,0,0-2,2c-.034.356.029-.095.025-.129a1.347,1.347,0,0,1-.046.285c-.036.2-.079.405-.126.606-.1.444-.23.882-.37,1.315s-.3.869-.461,1.3c-.078.2-.159.406-.244.606.134-.315.007-.021-.019.036-.063.14-.125.28-.19.419-.184.4-.39.78-.588,1.169-.151.3,0,.023.06-.043-.063.072-.126.145-.194.212a1,1,0,0,1-.21.19c.188-.069.248-.16,0-.039-.406.2.247-.024-.092.043a2.642,2.642,0,0,1-.267.068c-.025-.052.453-.012.122-.019-.089,0-.19,0-.277,0-.334.017.151-.017.116.024a.883.883,0,0,1-.205-.047c-.285-.072-.184.027.007.033-.151,0-.392-.219-.51-.3-.1-.067-.189-.141-.283-.211-.051-.038-.29-.234-.027-.021-.4-.32-.79-.641-1.172-.977a21.86,21.86,0,0,1-2.129-2.132c-.082-.094-.162-.19-.241-.286-.035-.042-.294-.315-.127-.156.117.111-.019-.224.016.056.016.13.069.25.074.39-.012-.343-.018.1-.031.151a1,1,0,0,1-.27.436c.077-.085.272-.224-.091.068-.225.18-.086.042.112-.032q1.483-.558,3-1.031c1.2-.375,2.418-.709,3.646-.989.271-.062.542-.121.815-.178.135-.028.271-.052.406-.081.575-.126-.179-.036.083-.018.072,0,.418-.03.135-.024q-.24-.043.041.016l-.194-.095.132.074-.164-.119-.111-.149q-.157-.945-.148-.42a2,2,0,0,0,4,0Z"/><path class="b" d="M283.975,64.539h0a1.974,1.974,0,0,0,.991-1.727,84.142,84.142,0,0,0-1.375-11.655,51.721,51.721,0,0,0-2.521-9.994c-2.954-7.643-7.883-14.8-14.674-19.5-2.121-1.469-4.123,2-2.019,3.454,6.084,4.214,10.611,10.977,13.12,17.867a52.978,52.978,0,0,1,2.237,9.237,76.367,76.367,0,0,1,1.232,10.592l.99-1.727h0c-2.285,1.187-.265,4.64,2.019,3.454Z"/><path class="b" d="M239.166,75.068c-.738-1.651-.879-5.64,2.331-6.374,4.3-.5,5.113,4.242,3.942,6.663C244.481,77.339,241.093,78.53,239.166,75.068Z"/><path class="b" d="M213.759,79c-.7-1.662-.881-5.658,2.055-6.351,3.939-.445,4.749,4.315,3.706,6.723C218.667,81.342,215.573,82.49,213.759,79Z"/><path class="b" d="M227.242,80.991c-.411,1.028-.789,2.071-1.113,3.13a3.7,3.7,0,0,0-.158,1.587,2.67,2.67,0,0,0,1.348,1.98,3.744,3.744,0,0,0,1.733.529c.225.017.445-.014.67-.016a2.076,2.076,0,0,0,1.414-.586,2,2,0,0,0-1.414-3.414,5.379,5.379,0,0,1-.751.006l.532.071a1.749,1.749,0,0,1-.349-.095l.477.2a2.383,2.383,0,0,1-.469-.271l.4.313a.477.477,0,0,1-.086-.082l.312.405a.749.749,0,0,1-.087-.147l.2.478a1.008,1.008,0,0,1-.043-.17l.072.531a1.488,1.488,0,0,1,0-.313l-.071.531a10.5,10.5,0,0,1,.577-1.873c.207-.581.423-1.16.652-1.733a2.009,2.009,0,0,0-.2-1.541,2,2,0,0,0-2.736-.717l-.405.312a2,2,0,0,0-.514.883Z"/><path class="b" d="M263.427,100.244A45.26,45.26,0,0,0,272.48,84.4a2,2,0,0,0-3.857-1.063c-.172.562-.377,1.113-.591,1.661q-.177.453-.364.9c-.056.138-.113.275-.171.412.057-.135.107-.249.019-.048-.439,1.01-.92,2-1.429,2.977a42.829,42.829,0,0,1-5.488,8.176,2.051,2.051,0,0,0,0,2.828,2.016,2.016,0,0,0,2.828,0Z"/><path class="b" d="M259.139,17.744a40.56,40.56,0,0,0-21.392-4.121,49.906,49.906,0,0,0-19.382,6.012,40.336,40.336,0,0,0-13.713,12.5,39.316,39.316,0,0,0-6.284,19.98A57.937,57.937,0,0,0,202.436,75.3a2.058,2.058,0,0,0,2.461,1.4,2.015,2.015,0,0,0,1.4-2.46c-4.565-11.855-6.129-26.416.423-37.869C212.7,25.919,223.874,19.846,235.5,17.918A36.33,36.33,0,0,1,257.12,21.2c2.314,1.1,4.347-2.35,2.019-3.453Z"/><path class="b" d="M254.62,101.944c-8.038,5.337-17.656,8.725-27.212,5.622a23.959,23.959,0,0,1-11.044-7.167,32.862,32.862,0,0,1-5.788-11.225c-1.867-5.817-3.153-11.822-4.881-17.683-.726-2.464-4.588-1.415-3.857,1.063,1.673,5.673,2.955,11.465,4.7,17.115a39.3,39.3,0,0,0,6.32,12.719c6.342,8.112,17.306,11.569,27.283,9.955a42.336,42.336,0,0,0,16.5-6.945c2.135-1.418.134-4.884-2.018-3.454Z"/><path class="b" d="M272.4,65.017a3.789,3.789,0,0,1,3.423-.773,3.03,3.03,0,0,1,.744.266c.051.027.545.354.316.179a4.591,4.591,0,0,1,.469.456c.1.114.08.083-.056-.091.056.075.11.152.162.23a10.337,10.337,0,0,1,.894,7.038,13.122,13.122,0,0,1-3.074,6.4c-.24.256-.5.491-.75.732q-.48.405-.14.135c-.11.079-.222.154-.337.226a9.755,9.755,0,0,1-1.39.724,5.856,5.856,0,0,1-3.742.429c-2.484-.69-3.544,3.168-1.063,3.857a10.6,10.6,0,0,0,8.39-1.671,14.466,14.466,0,0,0,5.088-6.909,16.844,16.844,0,0,0,1.126-7.873c-.268-2.537-1-5.183-3.111-6.8a7.806,7.806,0,0,0-9.777.612c-1.9,1.742.931,4.565,2.828,2.829Z"/><path class="b" d="M206.377,142.326a56.977,56.977,0,0,1,5.692-8.963,37.525,37.525,0,0,1,8.719-7.557c6.943-4.342,15.048-7.065,19.7-14.26,1.4-2.168-2.059-4.175-3.454-2.019-4.507,6.973-13.188,9.3-19.73,13.783a40.579,40.579,0,0,0-8.591,7.861,65.729,65.729,0,0,0-5.789,9.136c-1.28,2.239,2.175,4.256,3.454,2.019Z"/><path class="b" d="M264.515,93.339A16.933,16.933,0,0,0,277.1,103.782a2.048,2.048,0,0,0,2.46-1.4,2.024,2.024,0,0,0-1.4-2.46,14.519,14.519,0,0,1-1.747-.409c-.286-.087-.57-.183-.85-.288-.127-.048-.253-.1-.38-.148.444.168-.059-.029-.121-.058a14.832,14.832,0,0,1-1.583-.846q-.382-.235-.751-.493c-.111-.078-.221-.159-.331-.238-.44-.318.305.259-.112-.088a16.9,16.9,0,0,1-1.328-1.21q-.285-.293-.554-.6c-.107-.123-.21-.249-.316-.374-.273-.322.182.264-.089-.109a16.092,16.092,0,0,1-.941-1.43q-.225-.389-.423-.791c-.073-.147-.14-.3-.209-.443-.182-.389.122.31-.053-.125a2.052,2.052,0,0,0-2.46-1.4,2.022,2.022,0,0,0-1.4,2.461Z"/><path class="b" d="M332.514,74.646a122.856,122.856,0,0,0-11.7-15.677c-4.757-5.354-9.72-10.528-14.576-15.793v2.829a152.31,152.31,0,0,1,21.13-17.645l-2.423-.312c1.892,2.226,4.132,4.209,6.22,6.246q5.223,5.093,10.493,10.137c2.718,2.613,5.445,5.217,8.154,7.839a123.707,123.707,0,0,1,10.815,12.175,66.637,66.637,0,0,1,6.659,10A17.363,17.363,0,0,1,369.2,84.22c-.49,3.545-2.858,7.116-5.127,9.8a39.716,39.716,0,0,1-6.994,6.35c-7.4,5.388-15.121,10.353-22.675,15.514-7.707,5.265-15.463,10.485-22.766,16.305L310,133.5a2.012,2.012,0,0,0,0,2.828,2.048,2.048,0,0,0,2.829,0q1.971-1.57,3.943-3.142c.036-.028.192-.153.025-.022s.275-.209.327-.249c.367-.28.737-.556,1.108-.832q1.248-.927,2.513-1.834c4.368-3.144,8.8-6.2,13.242-9.239,8.127-5.57,16.377-10.977,24.413-16.679,5.329-3.783,10.009-8.279,12.952-14.2a17.3,17.3,0,0,0,1.5-11.309,28.628,28.628,0,0,0-4.594-10.558c-5.759-8.933-13.233-16.537-20.86-23.861-6.3-6.052-12.747-12-18.807-18.3-.28-.29-.561-.581-.823-.889a2.006,2.006,0,0,0-2.424-.313A158.028,158.028,0,0,0,303.4,43.176a2.038,2.038,0,0,0,0,2.829c4.764,5.165,9.627,10.246,14.306,15.489A117.109,117.109,0,0,1,329.06,76.665c1.38,2.165,4.843.161,3.454-2.019Z"/><path class="b" d="M307.1,130.526a14.3,14.3,0,0,0,.4,5.536c.376,1.851.822,3.689,1.285,5.519q1.625,6.419,3.6,12.743c.765,2.449,4.627,1.4,3.857-1.063q-1.872-5.994-3.429-12.082c-.451-1.758-.885-3.521-1.268-5.3-.145-.671-.283-1.343-.4-2.019-.052-.291-.1-.582-.144-.874.075.512-.03-.281-.043-.446a3.6,3.6,0,0,1,.006-.956c.483-2.515-3.371-3.592-3.857-1.063Z"/><path class="b" d="M244.819,129.275a48.241,48.241,0,0,0,8.974,1.118,27.752,27.752,0,0,0,8.4-1.338,16.36,16.36,0,0,0,6.248-3.313c1.878-1.605,3.46-3.508,5.192-5.261,1.811-1.833-1.016-4.663-2.829-2.828-1.5,1.52-2.889,3.15-4.458,4.6a12.43,12.43,0,0,1-5.216,2.941,24.761,24.761,0,0,1-7.1,1.2,40.223,40.223,0,0,1-8.15-.982c-2.508-.554-3.58,3.3-1.063,3.857Z"/><path class="b" d="M280.641,96.194c2.879-2.005,6.028-4.231,7.811-7.343a10.029,10.029,0,0,0,.879-7.584c-.625-2.494-1.66-4.888-2.37-7.361a56.549,56.549,0,0,1-1.992-11.1c-.2-2.549-4.206-2.571-4,0A74.167,74.167,0,0,0,285,80.771c.659,1.954,1.1,3.819.246,5.606-1.305,2.744-4.211,4.686-6.62,6.363-2.1,1.46-.1,4.929,2.019,3.454Z"/><path class="b" d="M221.4,49.956c-3.71,3.99-7.795,7.6-11.546,11.554-3.282,3.455-6.471,6.965-7,11.9a2.012,2.012,0,0,0,2,2,2.046,2.046,0,0,0,2-2c.429-4.03,4-7.207,6.66-9.94,3.52-3.614,7.274-6.99,10.711-10.687,1.751-1.883-1.071-4.718-2.828-2.828Z"/><path class="b" d="M229.272,118.427l-1.981,9.61a2.074,2.074,0,0,0,.919,2.258l6.7,4.25-.717-2.736a31.526,31.526,0,0,0-2.973,5.358,12.11,12.11,0,0,0-1,2.758,3.231,3.231,0,0,0,1.021,2.816c1.674,1.974,3.3,3.984,5.023,5.918,3.886,4.36,7.912,8.618,12.12,12.669a27.677,27.677,0,0,0,4.346,3.755c2.2,1.357,4.207-2.1,2.019-3.454-.165-.1-.32-.218-.477-.333.477.348-.328-.283-.482-.416-.64-.553-1.259-1.128-1.873-1.709-1.74-1.644-3.428-3.343-5.1-5.059-3.774-3.878-7.479-7.844-10.947-12q-.584-.7-1.152-1.407a3.168,3.168,0,0,0-.548-.678c-.395-.25.193.18.059.307a2.962,2.962,0,0,0,.308-.818,29.114,29.114,0,0,1,3.1-5.689,2.03,2.03,0,0,0-.718-2.737l-6.7-4.25.919,2.259,1.981-9.609c.519-2.513-3.336-3.587-3.857-1.064Z"/><path class="b" d="M282.2,101.275a27.537,27.537,0,0,1,7.386,7.746l.718-2.736c-2.775,1.9-5.507,3.853-8.287,5.74a2.022,2.022,0,0,0,0,3.454,45.091,45.091,0,0,1,7.788,5.165L289.3,118.7c-2.375,8.1-4.628,16.238-6.983,24.345-.719,2.477,3.14,3.534,3.858,1.063,2.354-8.107,4.607-16.244,6.982-24.345a1.966,1.966,0,0,0-.514-1.946,49.931,49.931,0,0,0-8.6-5.791v3.454c2.781-1.887,5.513-3.844,8.288-5.741a2.037,2.037,0,0,0,.717-2.736,32.547,32.547,0,0,0-8.821-9.181,2.014,2.014,0,0,0-2.736.718,2.044,2.044,0,0,0,.717,2.736Z"/><path class="b" d="M236.592,114.11a71.993,71.993,0,0,0,5.543,11.661c2.4,4.2,4.826,8.388,7.338,12.523s5.106,8.218,7.8,12.234a67.912,67.912,0,0,0,7.832,10.2c1.816,1.829,4.645-1,2.828-2.828a64.279,64.279,0,0,1-7.469-9.786q-3.9-5.834-7.539-11.84c-2.43-4-4.784-8.047-7.1-12.113a68.548,68.548,0,0,1-5.374-11.117c-.85-2.411-4.716-1.373-3.857,1.064Z"/><path class="b" d="M269.81,158.447c1.5-19.49,3.607-38.966,8.159-58.009.6-2.5-3.258-3.569-3.857-1.063-4.634,19.383-6.775,39.234-8.3,59.072-.2,2.567,3.8,2.554,4,0Z"/><path class="b" d="M275.4,101.944a8.8,8.8,0,0,0,4.988,1.738c1.92-.035,3.83-1.1,5.58-1.8q5.708-2.277,11.319-4.788,5.481-2.454,10.853-5.138a77.9,77.9,0,0,0,10.065-5.436,24,24,0,0,0,7.737-8.274c1.168-2.288-2.282-4.314-3.454-2.018a20.183,20.183,0,0,1-7.644,7.711c-4.021,2.382-8.32,4.4-12.528,6.429q-6.344,3.051-12.835,5.785-3.256,1.367-6.548,2.649a6.819,6.819,0,0,1-2.919.868,5.9,5.9,0,0,1-2.6-1.184c-2.133-1.454-4.136,2.01-2.019,3.454Z"/><path class="a" d="M379.529,260.093c-7.734-4.243-15.7-8.565-24.445-9.707a71.25,71.25,0,0,0-13.907.01l-14.95.988-1.1-1.3c-.064-.32-3.695-6.042-5.893-9.112a106.347,106.347,0,0,1-16.777,19.838l-2.78,1.53c-3.785-3.046-10.11-10.728-10.343-11.084-1.26,2.284-3.838,6.962-4.449,8.257l-1.336.23c-6.782,1.864-13.607,3.744-19.939,6.8s-12.211,7.405-16.032,13.309c0,0-.212,1.491.871,1.741,21.253,2.225,94.239,7.352,116.042-1.459,4.719-1.906,13.285-13.457,16.042-18.5C380.779,261.258,379.529,260.093,379.529,260.093Z"/><path class="e" d="M296.329,267.95l.071.287a93.21,93.21,0,0,0,2.85,9.25c.18,2.72.02,6.28.21,9.58,0,0,.06,1.066.06,1.691a118.515,118.515,0,0,1,16.367-1.691,51.57,51.57,0,0,1-5.167-11.34,44.439,44.439,0,0,1-.18-8.225,74.294,74.294,0,0,1-8.053-6.7l-3.217,0a52.268,52.268,0,0,0-3.069,6.636Z"/><path class="a" d="M137.381,198.306a89.713,89.713,0,0,1-6.972,7.05l-3.216-.006c-3.785-3.046-8.5-6.338-9.839-7.3a46.846,46.846,0,0,0-4.649,6.339c0,.171,1.456,3.589,3.244,7.271l-1.371,1.1a23.437,23.437,0,0,0,2.429,7.283c5.449,11.783,10.462,22.154,16.9,33.425,1.664,2.911,4.636,7.684,6.829,9.693,3.46-21.862,7.447-43.241,14.337-64.178l-3.082-.825c.665-2.063,1.1-3.454,1.086-3.528-.064-.32-3.7-6.042-5.893-9.111A123.31,123.31,0,0,1,137.381,198.306Z"/><path class="e" d="M126.984,226.876c-.041-2.638-.079-4.86-.144-5.839a93.21,93.21,0,0,1-2.85-9.25l-.07-.3c1.135-2.236,2.255-4.437,3.273-6.139l3.216.006a70.6,70.6,0,0,0,7.671,6.405,47.2,47.2,0,0,0,.23,7.516,82.944,82.944,0,0,0,6.04,14.52l1.3,1.58c-1.861,9.175-3.437,18.434-4.916,27.782-2.194-2.008-5.165-6.781-6.829-9.692-2.3-4.031-4.424-7.947-6.447-11.854-.032-.849-.053-1.368-.053-1.368C127.143,237.577,127.058,231.569,126.984,226.876Z"/><path class="f" d="M139.6,261.967a62.187,62.187,0,0,1-5.7-8.5c-6.44-11.271-11.453-21.642-16.9-33.425a23.437,23.437,0,0,1-2.429-7.283l-.974-9.876c-8.442,2.565-19,5.8-26.772,9.97a21.683,21.683,0,0,0-6.744,5.058,33.268,33.268,0,0,0-3.24,5.378,57.373,57.373,0,0,1-9.71,13.046s-3.535,2.884-6.809,5.557c-.2-3.863-.447-7.722-.861-11.712-7.449,1.041-26.028,3.546-29.314,4.065-.605,5.62-1.836,23.71-1.605,33.494.191,8.062.917,16.47,5.138,23.341a15.015,15.015,0,0,0,3.843,4.381c4.89,3.548,11.7,2.321,17.4.314,8.475-2.983,29.425-17.246,36.159-23.195l5.486-4.171q5.139,13.5,10.657,26.841l93.047-14.185c-.374-3.667-.835-7.326-1.122-11-.691-8.875-1.136-16.764-1.366-25.811l23.677-32.4c-6.647-4.43-13.37-8.9-20.855-11.691C187.9,195.416,169.744,195.8,156,196.235c-7.322,21.408-11.49,43.276-15.059,65.648"/><path class="a" d="M326.136,204.742a5.779,5.779,0,0,1,4.149-1.021,5.216,5.216,0,0,1,4.406,2.88c1.329,2.748.817,7.529-.519,10.4a15.132,15.132,0,0,1-5.55,6.87,11.019,11.019,0,0,1-5.92,1.373c1.658-1.265-2.1,4.862-2.1,4.862a53.7,53.7,0,0,1-4.356,5.951,41.777,41.777,0,0,0,1.527,6.352l.164.49a100.023,100.023,0,0,1-17.684,19.859c-3.685-2.681-10.645-11.13-10.889-11.5v-1.727A29.257,29.257,0,0,1,267,243.1c-6.506-5.061-9.485-13.222-10.709-22.3-.706-5.233-1.348-10.924-2.241-16.6,0,0-5.93-29.1,29.1-29.1C329.187,175.1,326.136,204.742,326.136,204.742Z"/><path class="b" d="M54.7,224.148a28.858,28.858,0,0,0,.58,7.37,2.014,2.014,0,0,0,2.461,1.4,2.049,2.049,0,0,0,1.4-2.46q-.186-.908-.313-1.825l.072.532a26.939,26.939,0,0,1-.2-5.014,2.013,2.013,0,0,0-2-2,2.045,2.045,0,0,0-2,2Z"/><path class="b" d="M55.015,225.609A25.768,25.768,0,0,0,66,219.212c1.088-1.081,2.073-2.256,3.111-3.383,1.422-1.543,2.957-2.948,4.249-4.61,3.23-4.155,5.132-10.019,1.57-14.6-3.531-4.537-10.619-.517-14.437,1.515a5.48,5.48,0,0,0-2.992,6.417c.716,2.489,2.963,3.243,5.293,3.517a2.011,2.011,0,0,0,2-2,2.049,2.049,0,0,0-2-2,4.178,4.178,0,0,1-1.324-.367c-.061-.034-.15-.235-.04,0a1.63,1.63,0,0,1-.143-.838c.081-.648.515-.9,1.043-1.181.866-.467,1.752-.9,2.64-1.32,1.669-.8,3.487-1.745,5.382-1.758,1.648-.011,2.365,1.666,2.543,3.139.46,3.822-2.77,7.4-5.261,9.871-1.642,1.631-3.092,3.443-4.757,5.05a21.375,21.375,0,0,1-8.927,5.08c-2.463.73-1.414,4.591,1.063,3.857Z"/><path class="b" d="M57.322,189.079a8.38,8.38,0,0,1,4.778,2.37c1.033,1.2,1.69,2.708,2.765,3.869,2.67,2.883,7.718,2.169,9.753-1.116,2.129-3.437,0-7.624-1.619-10.786-1.985-3.886-4.786-7.4-9.457-7.76a18.027,18.027,0,0,0-7.153,1.408c-2.381.827-4.717,1.777-7.024,2.79-2.2.967-4.435,1.949-6.538,3.118a15.486,15.486,0,0,0-4.53,4.052c-2.023,2.578-2.675,6.159-3.471,9.276q-1.43,5.593-2.475,11.278a98.706,98.706,0,0,0-1.659,12.439,26.988,26.988,0,0,0,.7,5.811c.373,2.313.62,4.645.86,6.975a2.057,2.057,0,0,0,2,2,2.012,2.012,0,0,0,2-2c-.37-3.585-.864-7.128-1.478-10.678-.472-2.728.215-5.88.618-8.591a152.866,152.866,0,0,1,4.177-19.442,17.85,17.85,0,0,1,1.229-3.64,10.881,10.881,0,0,1,3.213-3.522,37.18,37.18,0,0,1,5.451-2.755c1.975-.911,3.975-1.765,6.01-2.534,3.435-1.3,7.983-3.434,11.161-.527a15,15,0,0,1,3.012,4.506,16.3,16.3,0,0,1,1.875,4.823,2.284,2.284,0,0,1-1.466,2.528,2.152,2.152,0,0,1-1.844-.04,1.99,1.99,0,0,1-.759-.81,19.031,19.031,0,0,0-3.311-4.311,13.043,13.043,0,0,0-5.749-2.588c-2.509-.548-3.581,3.307-1.064,3.857Z"/><path class="b" d="M50.785,195.217c.6.119,1.2.263,1.788.44.386.117.767.247,1.143.393.086.033.17.07.255.1-.647-.239-.195-.083-.048-.017q.285.129.562.271a10.911,10.911,0,0,1,1.153.678q.126.085.249.174c.426.307-.263-.226,0,0,.171.144.342.287.505.441s.323.318.474.487c.092.1.173.231.274.323-.149-.136-.252-.34-.055-.062a7.067,7.067,0,0,1,.407.645c.055.1.107.2.157.295.062.125.277.635.032.041a2.2,2.2,0,0,0,.919,1.195,2.044,2.044,0,0,0,1.541.2,2.02,2.02,0,0,0,1.4-2.461,9.97,9.97,0,0,0-2.131-3.312,11.505,11.505,0,0,0-2.731-2.007,17.482,17.482,0,0,0-4.829-1.682,2,2,0,0,0-1.063,3.857Z"/><path class="b" d="M46.953,202.727a18.073,18.073,0,0,1,2.194.763l-.478-.2c.909.386,1.79.833,2.658,1.3a2.1,2.1,0,0,0,1.541.2,2,2,0,0,0,.478-3.655,25.572,25.572,0,0,0-5.33-2.269,2.067,2.067,0,0,0-1.541.2,2,2,0,0,0,.478,3.655Z"/><path class="b" d="M51.327,204.593c.126.072.328.269.465.3-.1-.019-.284-.246-.089-.055.065.063.132.122.2.186s.121.131.181.2c.287.314-.147-.246-.033-.037.081.15.172.306.261.451.129.209-.114-.358-.05-.123.022.081.055.161.078.242s.035.167.06.247c.07.222,0-.389-.019-.157-.011.163,0,.34,0,.5-.005.237.1-.379.012-.154-.037.1-.057.213-.087.311-.09.3,0-.094.042-.1a1.619,1.619,0,0,0-.138.244c-.153.274,0-.075.064-.066-.021,0-.171.179-.193.2-.224.234.043-.079.078-.053-.015-.011-.24.165-.253.145s.386-.119.056-.035l-.294.077c-.325.086.07.02.08,0a1.3,1.3,0,0,1-.326.028,6.7,6.7,0,0,1-.789,0c-.117-.007-.233-.019-.35-.029-.3-.023.3.079.012-.005-.252-.073-.514-.114-.766-.189a2,2,0,0,0-1.946.515,2.114,2.114,0,0,0-.514,1.945c-.1-.725.01.123.03.306.036.319.069.638.1.957.066.635.131,1.269.2,1.9a2.048,2.048,0,0,0,2,2c.981-.044,2.127-.886,2-2-.162-1.409-.289-2.822-.48-4.228l-2.461,2.46a8.42,8.42,0,0,0,4.415.158,4.757,4.757,0,0,0,3.238-3.051c.944-2.517-.558-5.29-2.765-6.55a2,2,0,1,0-2.019,3.454Z"/><path class="b" d="M123.184,179.6a3.359,3.359,0,0,0-.75-2.9,3.721,3.721,0,0,0-1.957-1.145,14.285,14.285,0,0,0-4.931.269c-1.581.216-3.152.5-4.71.847-1.607.355-3.335.641-4.051,2.337-.694,1.645.053,3.033,1.017,4.36a32.952,32.952,0,0,0,3.046,3.605,6.166,6.166,0,0,0,3.675,1.985,5.538,5.538,0,0,0,3.952-.94,10.777,10.777,0,0,0,2.94-3.956,18.213,18.213,0,0,0,1.769-4.458,2,2,0,0,0-3.857-1.063,10.529,10.529,0,0,1-.351,1.231,9.135,9.135,0,0,1-.487,1.2,27.578,27.578,0,0,1-1.618,2.981c-.075.121-.154.24-.229.361-.018.028-.188.251-.045.074.127-.157-.229.223-.294.285-.266.254-.044.026.022-.014-.091.055-.178.115-.271.167s-.188.1-.283.143c.153-.071.249-.084.036-.036-.1.022-.207.051-.3.079-.138.041-.321-.011.068,0a2.561,2.561,0,0,0-.547.006c-.239.056.292.109.064.013a1.654,1.654,0,0,0-.232-.051c-.1-.026-.2-.071-.3-.093.364.079.093.05-.037-.028s-.486-.343-.212-.1c-.192-.169-.372-.348-.551-.531q-.618-.631-1.2-1.292a17.489,17.489,0,0,1-1.882-2.442c-.054-.084-.1-.172-.159-.254-.259-.377-.012-.065-.029.023,0-.009-.042-.567,0,.087.006.088-.121.418,0,.1a1.071,1.071,0,0,1-.147.3c-.043.053-.389.29-.182.17s-.1.05-.119.052a5.407,5.407,0,0,0,.647-.16q1.674-.4,3.369-.718c1.35-.248,2.369-.4,3.655-.533a13.805,13.805,0,0,1,1.905-.12c-.095,0-.379-.1-.043.012.227.074.094.057-.037-.022-.321-.194-.1-.129-.034-.023a.934.934,0,0,1-.174-.864,2.057,2.057,0,0,0,1.4,2.46A2.021,2.021,0,0,0,123.184,179.6Z"/><path class="b" d="M292.846,231.85a3.445,3.445,0,0,0-2.692-4.1,15.712,15.712,0,0,0-4.578,0c-1.6.121-3.2.317-4.792.558a15.416,15.416,0,0,0-1.866.323,3.224,3.224,0,0,0-2.137,2.068c-.518,1.554.376,2.978,1.184,4.247a30.131,30.131,0,0,0,2.661,3.529,5.8,5.8,0,0,0,3.35,2.2,5.14,5.14,0,0,0,4.293-1.162,9.913,9.913,0,0,0,1.482-1.8q.651-.9,1.226-1.851a17.177,17.177,0,0,0,1.869-4.009,2,2,0,1,0-3.857-1.063c-.056.191-.116.38-.184.567-.027.074-.064.149-.086.225-.081.28.135-.286.006-.011-.2.419-.392.834-.611,1.241a25.821,25.821,0,0,1-1.643,2.639c-.133.189-.27.375-.407.561-.237.32-.093.121-.039.053-.074.093-.146.188-.226.277a2.092,2.092,0,0,0-.174.179c-.149.212.254-.118.026,0a1.716,1.716,0,0,0-.2.128c-.344.24.185-.013-.022.028-.175.035-.348.1-.526.137.485-.1-.074-.035-.239-.044.422.023.016-.067-.153-.073-.222-.007.2.174.041.018a2.36,2.36,0,0,0-.344-.207c.312.2-.049-.074-.161-.194-.156-.167-.308-.338-.459-.509-.364-.415-.72-.839-1.057-1.276.145.188-.224-.3-.267-.362-.147-.2-.292-.407-.433-.613-.317-.463-.618-.937-.9-1.425-.133-.233-.264-.469-.382-.71.026.053.042.259.034.081-.01-.26.022.224.017.282-.031.31-.207.44-.418.637-.067.063-.41.086-.049.037.176-.024.352-.063.527-.093,1.153-.2,1.973-.314,2.987-.427,1.283-.142,2.57-.242,3.86-.285a14.728,14.728,0,0,1,1.795-.01c-.094-.008-.387-.1-.059.014.227.078.085.035-.051-.032.306.15.018.011-.044-.046l-.12-.168q.284.546-.041-.614a2,2,0,1,0,3.857,1.063Z"/><path class="c" d="M83.907,126.089a43.282,43.282,0,0,0-1.5,6.966,66.717,66.717,0,0,0,1.508,22.238c.088-.752.145-1.264.145-1.264.425-3.784,6.971-14.529,11.963-17.769.585-.38,1.416-.017,1.761.988a6.793,6.793,0,0,1,.39,2.447,1.287,1.287,0,0,0,1.955,1.206c3.552-2.428,10.275-8.957,17.974-11.13l7.243.6c2.351.772,13.165,3.785,21.876,17.306l8.631,4.657a5.776,5.776,0,0,1,4.135-1.083,5.214,5.214,0,0,1,4.447,2.814l.623,1.238c2.441-5.215,2.286-14.133,2.345-17.988a35.826,35.826,0,0,0-1.57-10.93c-2.14-7.03-5.16-12.73-10.95-17.55l-1.153-.96-5.968-3.783a39.811,39.811,0,0,0-26.813-6.351c-13.551,1.384-24.2,7.2-31.081,16.208A38.861,38.861,0,0,0,83.907,126.089Z"/><path class="b" d="M166.95,155.527v-.01l-.273,1.009c2.679-5.606,2.653-12.225,2.713-18.312a43.259,43.259,0,0,0-5.474-21.641,33.5,33.5,0,0,0-7.621-9.15c-1.957-1.649-4.8,1.167-2.829,2.828a33.658,33.658,0,0,1,10.318,16.285c1.946,6.262,1.869,12.926,1.325,19.408a36.287,36.287,0,0,1-.731,5,21.991,21.991,0,0,1-.638,2.292,8.048,8.048,0,0,0-.79,2.295c0,2.574,4,2.578,4,0Z"/><path class="b" d="M124.812,132.3c1.034.338,2.06.686,3.073,1.084a1.732,1.732,0,0,1,.29.118c.163.071.326.142.488.215q.706.318,1.4.666,1.394.7,2.724,1.524a41.194,41.194,0,0,1,12.708,12.781c1.4,2.15,4.862.148,3.454-2.019a45.9,45.9,0,0,0-13.937-14.087,41.082,41.082,0,0,0-9.134-4.139c-2.452-.8-3.5,3.06-1.063,3.857Z"/><path class="b" d="M86.057,154.029c-.069.533.063-.2.09-.3.058-.229.128-.455.2-.679a15.609,15.609,0,0,1,.61-1.556,45.1,45.1,0,0,1,8.026-11.78,16,16,0,0,1,1.447-1.307c.052-.041.586-.345.6-.419l-1.126-.076.077.272a4.409,4.409,0,0,0,.173.811,5.508,5.508,0,0,0,.545,2.564,3.325,3.325,0,0,0,2.629,1.545c1.573.054,2.825-1.2,3.986-2.1,1.214-.945,2.409-1.914,3.637-2.842,3.557-2.687,7.366-5.2,11.682-6.459,2.466-.72,1.416-4.581-1.064-3.857a37.518,37.518,0,0,0-11.321,5.889c-1.571,1.136-3.094,2.337-4.615,3.538-.524.414-1.045.83-1.579,1.23a4.246,4.246,0,0,0-.668.488c-.316.369-.339-.082.09.2q.557-.126.7.508v-.312a6.156,6.156,0,0,0-.663-3.144,3.441,3.441,0,0,0-2.5-2.062c-1.708-.318-3.18,1.138-4.333,2.208a40.7,40.7,0,0,0-6.614,8.391c-1.741,2.8-3.572,5.934-4,9.253a2.011,2.011,0,0,0,2,2,2.051,2.051,0,0,0,2-2Z"/><path class="b" d="M120.8,160.487c-.575-1.837-.227-6.07,3.256-6.447,4.606,0,4.876,5.12,3.338,7.533C126.132,163.548,122.4,164.386,120.8,160.487Z"/><path class="b" d="M93.457,161.479c-.533-1.844-.227-6.089,2.961-6.456,4.219.019,4.483,5.151,3.081,7.566C98.352,164.567,94.939,165.4,93.457,161.479Z"/><path class="b" d="M107.7,165.055a39.119,39.119,0,0,0-1.753,3.617l.2-.478a4.414,4.414,0,0,0-.514,1.834,2.626,2.626,0,0,0,.976,2.069,3.707,3.707,0,0,0,1.632.854c.4.073.788.084,1.186.126a2,2,0,0,0,1.414-.585,2,2,0,0,0,0-2.829,2.3,2.3,0,0,0-1.414-.586c-.181-.019-.363-.018-.544-.038l.532.071a1.874,1.874,0,0,1-.466-.123l.477.2a2.259,2.259,0,0,1-.393-.233l.405.313a2.263,2.263,0,0,1-.258-.231l.313.405a.513.513,0,0,1-.07-.108l.2.477a.9.9,0,0,1-.055-.183l.072.532a1.282,1.282,0,0,1,0-.27l-.071.531a2.475,2.475,0,0,1,.171-.557l-.2.477q.144-.326.28-.654l-.2.477c.447-1.057.985-2.083,1.532-3.091a2.1,2.1,0,0,0,.2-1.541,2,2,0,0,0-3.656-.478Z"/><path class="b" d="M143.4,189.866a50.041,50.041,0,0,0,7.382-8.564,41.144,41.144,0,0,0,3.817-6.593,2.065,2.065,0,0,0-.718-2.737,2.015,2.015,0,0,0-2.736.718,40.819,40.819,0,0,1-3.681,6.4,45.558,45.558,0,0,1-6.893,7.952,2,2,0,1,0,2.829,2.829Z"/><path class="b" d="M148.768,102.368a43.047,43.047,0,0,0-22.032-6.875,52.277,52.277,0,0,0-21.068,4,42.337,42.337,0,0,0-15.912,11.423,41.63,41.63,0,0,0-9.083,20.254,62.792,62.792,0,0,0,1.453,25.213c.638,2.492,4.5,1.435,3.857-1.064-3.363-13.137-3.016-28.57,5.263-39.9,7.534-10.307,20.4-15.426,32.868-15.908a39.214,39.214,0,0,1,22.635,6.3c2.187,1.372,4.2-2.087,2.019-3.453Z"/><path class="b" d="M133.629,191.047c-8.907,4.516-19.536,6.939-29.014,2.613a25.814,25.814,0,0,1-10.849-8.679,35.442,35.442,0,0,1-5.03-12.919c-1.327-6.51-1.922-13.173-3.043-19.722a2.018,2.018,0,0,0-2.461-1.4,2.046,2.046,0,0,0-1.4,2.461c1.077,6.292,1.7,12.671,2.889,18.942a39.691,39.691,0,0,0,5.29,14.2c5.809,8.98,16.811,13.939,27.358,13.331a46.281,46.281,0,0,0,18.275-5.382c2.3-1.164.274-4.616-2.019-3.453Z"/><path class="b" d="M156.86,154.063a4.239,4.239,0,0,1,3.889-.625,3.724,3.724,0,0,1,1.275.694,4.245,4.245,0,0,1,.4.428c-.261-.325.114.2.155.275,1.216,2.164.775,5.383.092,7.661a13.838,13.838,0,0,1-4.3,6.646,7.4,7.4,0,0,1-7.137,1.338,2.013,2.013,0,0,0-2.46,1.4,2.049,2.049,0,0,0,1.4,2.46c2.782,1.146,6.2.458,8.817-.829a14.728,14.728,0,0,0,6.073-6.488,18.708,18.708,0,0,0,2.208-8.443c.035-2.554-.485-5.438-2.418-7.273a8.169,8.169,0,0,0-10.011-.695,2.057,2.057,0,0,0-.717,2.736,2.015,2.015,0,0,0,2.736.718Z"/><path class="b" d="M290.966,212.369c-.548-1.845-.137-6.072,3.351-6.4,4.606.074,4.8,5.193,3.226,7.582C296.253,215.51,292.513,216.292,290.966,212.369Z"/><path class="b" d="M263.613,212.954c-.5-1.852-.137-6.092,3.057-6.412,4.218.083,4.4,5.218,2.968,7.612C268.461,216.114,265.037,216.891,263.613,212.954Z"/><path class="b" d="M277.789,216.768c-.578,1.027-1.123,2.075-1.613,3.147a4.418,4.418,0,0,0-.511,1.8,2.629,2.629,0,0,0,.966,2.075,3.73,3.73,0,0,0,1.627.865c.4.078.788.088,1.185.136a1.994,1.994,0,0,0,1.414-.585,2,2,0,0,0,0-2.829l-.405-.313a1.987,1.987,0,0,0-1.009-.273c-.181-.022-.363-.024-.543-.046l.532.071a1.925,1.925,0,0,1-.4-.1l.477.2a2.085,2.085,0,0,1-.451-.265l.4.313a2.26,2.26,0,0,1-.255-.234l.313.4a.511.511,0,0,1-.068-.109l.2.477a.881.881,0,0,1-.052-.184l.072.532a1.218,1.218,0,0,1,.007-.27l-.071.532a2.4,2.4,0,0,1,.15-.489l-.2.478c.5-1.133,1.082-2.232,1.688-3.311a2.081,2.081,0,0,0,.2-1.541,2,2,0,0,0-3.655-.477Z"/><path class="b" d="M313.151,242.061a50.108,50.108,0,0,0,7.573-8.555,40.959,40.959,0,0,0,3.845-6.438,2.06,2.06,0,0,0-.718-2.736,2.015,2.015,0,0,0-2.736.717,40.48,40.48,0,0,1-3.707,6.241,45.911,45.911,0,0,1-7.085,7.943,2,2,0,1,0,2.828,2.828Z"/><path class="b" d="M303.314,243.132c-8.884,4.339-19.458,6.6-28.805,2.266a25.955,25.955,0,0,1-10.815-8.758,35.209,35.209,0,0,1-4.959-13.157c-1.237-6.542-1.731-13.232-2.757-19.812a2.014,2.014,0,0,0-2.46-1.4,2.049,2.049,0,0,0-1.4,2.46c.985,6.319,1.512,12.719,2.613,19.018a39.374,39.374,0,0,0,5.207,14.449c5.72,8.955,16.6,13.965,27.083,13.506a46.351,46.351,0,0,0,18.309-5.122c2.313-1.13.287-4.581-2.019-3.454Z"/><path class="b" d="M206.329,151.005q.03-.357-.009.051a2.768,2.768,0,0,1,.08-.3c-.1.454.039-.035.126-.188-.238.42.092-.066.188-.173q.252-.215-.028,0c.092-.069.187-.135.283-.2a9.031,9.031,0,0,1,1.355-.732c-.3.129.156-.046.226-.066.121-.032.244-.06.367-.082q-.324.036.037,0c.25,0,.494-.006.744,0-.465-.018.163.054.271.074q-.388-.186-.117-.044c.1.062.2.127.3.194s.2.139.3.212q-.24-.186.033.036c.335.306.665.607.971.942.179.2.353.4.519.607-.181-.226.255.351.3.41a18.035,18.035,0,0,1,1.507,2.676c.1.221.108.246.035.075.05.122.1.244.145.367.091.241.177.485.256.73s.131.481.21.715q.067.354.036.059c.015.139.023.277.025.416,0,.094-.073.793-.023.537-.042.214-.1.419-.162.628-.084.232-.1.27-.037.116-.042.085-.088.169-.138.249-.152.3.235-.289-.13.124.317-.358-.016-.018-.179.081.417-.256-.095.024-.253.064-.11.028-.222.052-.334.071q.354-.039-.015,0c-.273.014-.543.027-.816.027a2,2,0,0,0,0,4c2.163,0,4.439-.667,5.407-2.789a7.172,7.172,0,0,0,.557-4.256,13.912,13.912,0,0,0-1.089-3.14,15.906,15.906,0,0,0-3.745-5.348,6.406,6.406,0,0,0-2.793-1.691,6.717,6.717,0,0,0-3.511.161,9.669,9.669,0,0,0-3.34,1.943,5.083,5.083,0,0,0-1.556,3.435,2.01,2.01,0,0,0,2,2,2.05,2.05,0,0,0,2-2Z"/><path class="b" d="M204.513,155.761c.338-.152-.336.1.027-.006.158-.047.311-.1.47-.143.075-.019.523-.1.223-.058-.283.042.26,0,.379,0,.072,0,.144.01.216.015-.054,0-.337-.1-.17-.009a.969.969,0,0,0,.216.058c.152.034.223.163-.051-.028.133.092.286.156.418.252-.3-.216.109.14.194.234.213.238-.131-.208.061.082.065.1.125.2.186.294.153.248.078.065.158.324.03.1.053.2.08.293.087.315,0-.274.011.039.007.149-.056.65.023.285-.038.173-.082.342-.133.513-.106.359-.034.086,0,.008-.039.077-.077.155-.119.231a5.1,5.1,0,0,1-.27.441c-.048.07-.1.14-.148.208.24-.323,0-.016-.057.046-.233.243-.462.482-.718.7-.076.065-.157.126-.233.192-.206.18.406-.3.069-.053q-.682.5-1.379.98c-1.159.795-2.338,1.562-3.525,2.314-1.091.692-2.185,1.389-3.318,2.011a2.02,2.02,0,0,0-.717,2.737,2.041,2.041,0,0,0,2.736.717,78.84,78.84,0,0,0,7.516-4.793,11.013,11.013,0,0,0,3.457-3.407,5.911,5.911,0,0,0-.987-7.132c-1.845-1.891-4.387-1.814-6.639-.8a2.007,2.007,0,0,0-.717,2.736,2.059,2.059,0,0,0,2.736.718Z"/><path class="b" d="M208.756,161.939c.278-.137-.467.136.07,0l.124-.029q.324-.06-.138.007c.062-.115.9-.009,1,0-.322-.017-.208-.036.047.024.162.037.326.117.488.145.14.053.091.032-.149-.062.084.041.166.086.246.134q.22.15.023,0t.006.017c.16.347-.191-.368.057.071s-.053-.276.061.116c.042.147.094.288.132.437.015.062.1.647.078.349s.008.308.008.365c0,.159-.011.315-.023.473.04-.521-.036.035-.06.156-.02.074-.043.147-.069.22q.163-.361.018-.062c-.119.184-.246.325-.026.093a5.062,5.062,0,0,1-.508.463c-.177.145-.357.286-.537.428.047-.037-.52.406-.313.246-.83.643-1.679,1.263-2.539,1.867q-2.481,1.742-5.1,3.27a2,2,0,1,0,2.019,3.454q2.469-1.448,4.824-3.078,1.2-.834,2.365-1.716a24.939,24.939,0,0,0,2.46-1.94c2.369-2.323,1.919-7.338-1.168-8.849a6.227,6.227,0,0,0-5.412-.048,2.011,2.011,0,0,0-.718,2.736,2.053,2.053,0,0,0,2.737.718Z"/><path class="b" d="M211.954,168.611c.5.035,1.232.053,1.48.538.438.857-.587,1.893-1.1,2.449-1.543,1.658-2.453,3.067-2.2,5.438a44.949,44.949,0,0,1,.73,5.737,6.68,6.68,0,0,1-.772,2.846,5.423,5.423,0,0,0-.412.694c-.166.524.018.085.043.067a5.556,5.556,0,0,1-.852.435,53.453,53.453,0,0,1-5.375,2.006c-1.674.556-3.232,1.485-4.956.614-3.29-1.663-5.008-5.9-6.459-9.043-1.635-3.543-3.3-7.079-4.9-10.637-.638-1.421-1.255-2.852-1.819-4.3-.241-.622-.48-1.248-.675-1.886-.072-.236-.133-.472-.19-.712.037.155.045.7.006-.04-.019-.356-.051-.711-.063-1.068a11.129,11.129,0,0,1,.172-2.746,5.7,5.7,0,0,1,.444-1.344c.091-.181.211-.344.31-.518.238-.421.331-.351.077-.157a28.955,28.955,0,0,1,3.06-1.882c3.056-1.778,6.153-3.514,9.323-5.08a3.532,3.532,0,0,1,1.479-.539,3,3,0,0,1,2.282.383,1.839,1.839,0,0,1,.366,2.227c-.13.272-.07.159-.426.493-.181.171-.5.435-.607.52a66.5,66.5,0,0,1-8.555,5.325c-2.249,1.254-.234,4.71,2.019,3.454a67.661,67.661,0,0,0,9.244-5.858,5.946,5.946,0,0,0,2.467-5.648,5.793,5.793,0,0,0-5.394-4.9,9.509,9.509,0,0,0-5.311,1.3c-1.846.93-3.662,1.919-5.468,2.922-1.733.962-3.462,1.936-5.154,2.969a7.809,7.809,0,0,0-3.592,3.92,13.623,13.623,0,0,0-.536,7.334,25.635,25.635,0,0,0,1.716,4.692c1.7,4.055,3.663,7.993,5.456,12.008,1.922,4.305,4.029,9.411,8.226,12a7.773,7.773,0,0,0,7.1.588c2.217-.829,4.473-1.551,6.659-2.465a7.7,7.7,0,0,0,2.545-1.37,9.559,9.559,0,0,0,2.243-4.51c.6-2.662-.161-5.177-.455-7.822-.154-1.378.129-1.643,1.027-2.609a7.5,7.5,0,0,0,2.325-4.461c.244-3.451-2.471-5.142-5.529-5.355-2.569-.178-2.558,3.823,0,4Z"/><path class="b" d="M249.334,280.861c7.685-11.695,22.055-15.7,34.776-19.194,2.479-.682,1.426-4.542-1.063-3.858-13.852,3.808-28.84,8.361-37.167,21.033-1.418,2.157,2.045,4.164,3.454,2.019Z"/><path class="b" d="M326.26,253.384l14.452-.955a74.508,74.508,0,0,1,13.929-.1c8.621,1.053,16.42,5.384,23.911,9.493,2.259,1.239,4.279-2.214,2.019-3.454-7.84-4.3-15.939-8.677-24.922-9.909a71.457,71.457,0,0,0-14.439-.061q-7.474.492-14.95.988c-2.556.169-2.574,4.17,0,4Z"/><path class="b" d="M287.637,250.241c-1.273,2.308-2.554,4.614-3.781,6.947a10.336,10.336,0,0,0-1,2.119,3.351,3.351,0,0,0,.639,2.432c2.409,4.515,5.04,8.978,7.879,13.237a2.026,2.026,0,0,0,3.454,0c2.563-4.138,3.711-8.974,6.171-13.166a2.02,2.02,0,0,0-.312-2.424c-2.173-1.763-4.2-3.711-6.181-5.68q-1.269-1.258-2.509-2.547c-.27-.283-.542-.566-.806-.855-.166-.181-.64-.81-.1-.063a2.058,2.058,0,0,0-2.737-.717,2.015,2.015,0,0,0-.717,2.736,35.478,35.478,0,0,0,3.83,4.068,85.885,85.885,0,0,0,6.389,5.886l-.313-2.423c-2.46,4.192-3.608,9.028-6.171,13.166h3.454c-1.832-2.748-3.513-5.6-5.174-8.453-.722-1.24-1.437-2.485-2.134-3.74-.235-.424-.471-.848-.7-1.278-.07-.133-.13-.276-.207-.4-.206-.344.133.442.1.226v1.063c.033-.181-.286.548-.01.024.142-.268.273-.544.413-.813.4-.764.805-1.522,1.215-2.28q1.368-2.527,2.762-5.041C292.335,250,288.882,247.984,287.637,250.241Z"/><path class="b" d="M327.085,249.547a18.809,18.809,0,0,0-2.261-3.867c-1.239-1.933-2.5-3.853-3.834-5.722a2.032,2.032,0,0,0-3.454,0,107.647,107.647,0,0,1-16.464,19.433,2.04,2.04,0,0,0,0,2.829,26.807,26.807,0,0,0,3.377,3.035c1.771,1.446,3.585,2.842,5.408,4.222q2.356,1.782,4.752,3.513a11.3,11.3,0,0,0,2.713,1.739,2.021,2.021,0,0,0,2.46-1.4c.74-2.855,1.793-5.655,2.71-8.457,1.266-3.87,2.547-7.736,3.789-11.614a11.088,11.088,0,0,0,.875-3.182c-.033-2.572-4.033-2.579-4,0-.01-.8.006-.245-.13.2-.16.532-.33,1.062-.5,1.592q-.819,2.564-1.66,5.119c-1.287,3.939-2.587,7.873-3.861,11.816-.37,1.146-.779,2.292-1.081,3.458l2.46-1.4c.917.312.016-.085-.29-.3-.521-.36-1.035-.729-1.549-1.1q-2.356-1.7-4.67-3.454c-2.694-2.039-5.747-4.065-7.975-6.632v2.829a112.225,112.225,0,0,0,17.089-20.243h-3.454c1.27,1.782,2.476,3.61,3.659,5.451.489.76.975,1.523,1.448,2.293.171.278.343.555.505.838.136.236.343.842.08.052C324.038,253.041,327.9,252,327.085,249.547Z"/><path class="b" d="M314.5,237.663a40.9,40.9,0,0,0,1.34,5.274,2.12,2.12,0,0,0,.92,1.2,2,2,0,0,0,2.938-2.259,40.718,40.718,0,0,1-1.341-5.275,2.017,2.017,0,0,0-.919-1.195,2,2,0,0,0-2.736.717,2.242,2.242,0,0,0-.2,1.542Z"/><path class="b" d="M113.072,200.955a203.764,203.764,0,0,0-22.024,7.665,44.218,44.218,0,0,0-9.944,5.536c-3.312,2.617-4.875,6.309-6.96,9.851a56.042,56.042,0,0,1-8.42,10.914c-1.809,1.834,1.018,4.665,2.829,2.828a61.147,61.147,0,0,0,7.529-9.29c1.1-1.666,2.087-3.392,3.023-5.152a20.3,20.3,0,0,1,3.247-4.924c2.521-2.555,5.99-4.167,9.216-5.641,3.436-1.571,6.986-2.886,10.558-4.112,3.973-1.364,7.99-2.6,12.009-3.818,2.457-.746,1.41-4.608-1.063-3.857Z"/><path class="b" d="M63.066,257.238c-.53-9.02-.678-18.063-1.6-27.058a2.047,2.047,0,0,0-2.532-1.928c-9.767,1.363-19.571,2.536-29.314,4.064a2.033,2.033,0,0,0-1.468,1.929c-.809,7.6-1.2,15.267-1.471,22.9-.34,9.489-.7,19.66,2.415,28.756,1.672,4.877,4.485,10.17,9.383,12.42,4.646,2.134,9.985,1.5,14.749.1,6.907-2.026,13.189-6.107,19.2-9.955A164.433,164.433,0,0,0,92.5,274c1.937-1.7-.9-4.524-2.828-2.829A147.3,147.3,0,0,1,73.491,283.01c-3.3,2.182-6.643,4.3-10.062,6.285-1.473.856-2.96,1.688-4.472,2.473-1.1.572-2.672,1.337-3.506,1.677-3.743,1.524-8.152,2.73-12.219,2.155-4.994-.706-7.894-4.8-9.691-9.188-3.483-8.506-3.188-18.3-2.921-27.331.244-8.277.656-16.6,1.534-24.836l-1.468,1.928c9.743-1.527,19.546-2.7,29.314-4.064l-2.532-1.929c.92,9,1.068,18.038,1.6,27.058.15,2.559,4.151,2.576,4,0Z"/><path class="b" d="M82.535,235.564Q90.668,259.2,99.9,282.446q2.656,6.685,5.405,13.335a2.065,2.065,0,0,0,2.46,1.4,2.012,2.012,0,0,0,1.4-2.46q-9.541-23.106-18-46.641-2.43-6.772-4.77-13.576c-.833-2.42-4.7-1.38-3.857,1.063Z"/><path class="b" d="M155.743,198.245c16.95-.545,35.167-1.344,50.649,6.683a151.045,151.045,0,0,1,14.066,8.648c2.148,1.432,4.153-2.031,2.019-3.454-7.991-5.325-16.174-10.7-25.545-13.233-8.644-2.337-17.774-2.823-26.688-2.891-4.835-.037-9.669.091-14.5.247-2.568.082-2.579,4.082,0,4Z"/><path class="b" d="M195.79,244.253c.32,12.319,1.226,24.558,2.488,36.812a2.058,2.058,0,0,0,2,2,2.014,2.014,0,0,0,2-2c-1.262-12.254-2.168-24.493-2.488-36.812-.067-2.569-4.067-2.579-4,0Z"/><path class="b" d="M109.9,45.971C93.529,36.275,77.273,26.385,61,16.519q-6.5-3.942-13-7.874c-2.209-1.335-4.222,2.123-2.019,3.454,16.1,9.728,32.159,19.531,48.292,29.209q6.794,4.077,13.609,8.116c2.22,1.315,4.235-2.141,2.019-3.453Z"/><path class="b" d="M82.957,63.87l-26.2-5.909-39.52-8.912L2.5,45.726c-2.507-.565-3.577,3.29-1.063,3.857L32.971,56.7,71,65.27l10.9,2.458c2.507.565,3.577-3.291,1.063-3.858Z"/><path class="b" d="M63.4,87.486C50.123,89.067,36.79,90.229,23.488,91.55q-4.036.4-8.072.806a2.056,2.056,0,0,0-2,2,2.014,2.014,0,0,0,2,2C28.858,95,42.307,93.7,55.746,92.31c2.551-.264,5.1-.521,7.651-.824a2.063,2.063,0,0,0,2-2,2.012,2.012,0,0,0-2-2Z"/><path class="g" d="M183.076,147.911C176.2,136.545,158.759,108.4,152.263,96.14a2.511,2.511,0,0,1,.886-3.276A68.432,68.432,0,0,1,169.352,85a81.792,81.792,0,0,1,18.089-4.2,2.6,2.6,0,0,1,2.837,2.239c1.614,12.425,5.825,44.25,7.8,58.538"/><path class="b" d="M184.8,146.9c-10.1-16.7-20.706-33.166-30.033-50.319-.291-.534-.994-1.433-.733-1.85.336-.536,1.372-.953,1.906-1.284q1.039-.644,2.1-1.251a64.233,64.233,0,0,1,8.565-4.063,80.572,80.572,0,0,1,19.643-5.211c.826-.1,1.814-.443,2.077.508a21.177,21.177,0,0,1,.37,2.839q.417,3.186.836,6.373,1.017,7.734,2.043,15.467,2.254,17,4.569,34a2.012,2.012,0,0,0,2.461,1.4,2.053,2.053,0,0,0,1.4-2.46q-2.153-15.586-4.195-31.189-1.1-8.313-2.2-16.626-.442-3.362-.882-6.722c-.3-2.315-.195-5.167-2.2-6.729-1.416-1.1-2.994-1.016-4.68-.808q-2.7.333-5.356.876a89.657,89.657,0,0,0-10.378,2.782,87.115,87.115,0,0,0-9.884,3.921q-2.235,1.059-4.38,2.293a24.859,24.859,0,0,0-4.4,2.818,4.584,4.584,0,0,0-1.309,4.525,14.187,14.187,0,0,0,1.45,2.926c1.089,1.99,2.209,3.962,3.34,5.927,2.725,4.736,5.518,9.432,8.33,14.116,5.505,9.175,11.108,18.291,16.669,27.432q.708,1.166,1.415,2.333c1.331,2.2,4.791.191,3.454-2.019Z"/><path class="b" d="M103.288,213.506l-2.977,10.435a1.958,1.958,0,0,0,.514,1.946l6.824,5.3v-2.829a36.991,36.991,0,0,0-4.066,6.226,7.912,7.912,0,0,0-1.238,3.429,5.2,5.2,0,0,0,1.284,2.68c1.648,2.52,3.427,4.955,5.226,7.368,4.1,5.506,8.349,10.927,12.813,16.145a30.583,30.583,0,0,0,4.51,4.693,2.012,2.012,0,0,0,2.736-.717,2.05,2.05,0,0,0-.717-2.737c.646.489-.026-.051-.18-.2-.264-.25-.516-.513-.766-.776-.683-.719-1.341-1.463-1.992-2.211-1.841-2.115-3.622-4.284-5.381-6.469-3.92-4.867-7.763-9.816-11.329-14.951q-.588-.846-1.159-1.7c-.182-.274-.356-.552-.54-.824-.1-.154-.2-.3-.314-.449-.516-.7-.038-.126-.065-.092a12.8,12.8,0,0,0,.866-1.748q.457-.862.965-1.7a30.727,30.727,0,0,1,2.176-3.143c.6-.763.928-2.108,0-2.829l-6.824-5.3.514,1.946,2.977-10.435c.707-2.48-3.151-3.539-3.857-1.064Z"/><path class="b" d="M163.066,197.431a32.228,32.228,0,0,1,7.647,9.895l.718-2.736c-3.149,1.883-6.254,3.838-9.41,5.71a2.025,2.025,0,0,0,0,3.454,49.005,49.005,0,0,1,7.915,6.627l-.514-1.946c-4.736,12.92-9.231,25.926-14.061,38.813q-.911,2.429-1.847,4.848-.366.941-.744,1.876c-.095.236-.193.47-.29.705-.161.395.189-.439.029-.068-.051.12-.1.239-.156.358a2.065,2.065,0,0,0,.718,2.737,2.014,2.014,0,0,0,2.736-.718c2.583-5.866,4.656-11.983,6.852-18q4.17-11.422,8.247-22.877c.789-2.205,1.567-4.413,2.373-6.612a1.982,1.982,0,0,0-.514-1.945,53.97,53.97,0,0,0-8.725-7.253v3.454c3.156-1.872,6.261-3.828,9.41-5.71a2.052,2.052,0,0,0,.717-2.737,35.213,35.213,0,0,0-8.272-10.7c-1.9-1.725-4.741,1.095-2.829,2.828Z"/><path class="b" d="M112.578,212.759c.6,4.925,3.215,9.434,5.3,13.866,2.075,4.412,4.194,8.8,6.4,13.153q3.342,6.591,6.961,13.035a67.676,67.676,0,0,0,6.952,10.568c1.661,1.97,4.479-.872,2.828-2.828a64.578,64.578,0,0,1-6.559-10.173q-3.39-6.038-6.522-12.216c-2.068-4.067-4.061-8.172-6.011-12.3q-1.509-3.192-2.99-6.4a23.05,23.05,0,0,1-2.358-6.709,2.063,2.063,0,0,0-2-2,2.012,2.012,0,0,0-2,2Z"/><path class="b" d="M153.146,198.45a355.614,355.614,0,0,0-11.754,48.692c-.841,4.729-1.626,9.467-2.383,14.21a2.061,2.061,0,0,0,1.4,2.46,2.016,2.016,0,0,0,2.461-1.4c2.638-16.515,5.636-33,10.022-49.151q1.881-6.927,4.115-13.751c.8-2.451-3.057-3.5-3.857-1.063Z"/><path class="b" d="M294.472,268.768a78.6,78.6,0,0,0,2.565,8.445,13.925,13.925,0,0,1,.313,4.339c.008,1.839.011,3.678.11,5.515.138,2.56,4.139,2.576,4,0-.1-1.837-.1-3.676-.11-5.515-.008-1.665.186-3.58-.373-5.164a79.64,79.64,0,0,1-2.648-8.683c-.572-2.509-4.43-1.447-3.857,1.063Z"/><path class="b" d="M308.54,267.5a25.768,25.768,0,0,0,.9,10.781A60.875,60.875,0,0,0,314.113,288c1.281,2.233,4.738.22,3.454-2.019a55.155,55.155,0,0,1-4.268-8.762,10.889,10.889,0,0,1-.64-2.181c-.109-.824-.136-1.67-.18-2.5a34.721,34.721,0,0,1,.061-5.038,2.014,2.014,0,0,0-2-2,2.043,2.043,0,0,0-2,2Z"/><path class="b" d="M300.743,280.37c1.649-.525,3.324-.974,5-1.408s3.354-.877,5.06-1.145a2.006,2.006,0,0,0,1.4-2.46,2.059,2.059,0,0,0-2.46-1.4c-1.706.268-3.391.712-5.06,1.145s-3.35.883-5,1.408a2,2,0,0,0,1.063,3.857Z"/><path class="b" d="M115.94,196.636a37.092,37.092,0,0,0-4.962,6.743c-.715,1.411.413,3.117.977,4.4a80.759,80.759,0,0,0,6.227,12.145,2.026,2.026,0,0,0,3.454,0c2.726-4.354,4.665-9.146,7.284-13.561a2.016,2.016,0,0,0-.313-2.424c-3.321-2.663-6.781-5.138-10.244-7.613a2.016,2.016,0,0,0-2.736.718,2.043,2.043,0,0,0,.717,2.736c3.185,2.276,6.38,4.538,9.435,6.988l-.313-2.424c-2.619,4.415-4.558,9.207-7.284,13.561h3.454a68.058,68.058,0,0,1-4.576-8.536q-.91-1.923-1.766-3.87c-.114-.26-.226-.521-.338-.783s.178.437.01.022c-.03-.074-.062-.148-.092-.222-.119-.3-.293-1.1-.169-.124l-.273,1.009a44.658,44.658,0,0,1,4.336-5.934,2.053,2.053,0,0,0,0-2.828A2.016,2.016,0,0,0,115.94,196.636Z"/><path class="b" d="M155.007,194.1a18.745,18.745,0,0,0-2.261-3.868c-1.238-1.933-2.5-3.852-3.833-5.722a2.032,2.032,0,0,0-3.454,0A107.688,107.688,0,0,1,129,203.941a2.04,2.04,0,0,0,0,2.829,26.79,26.79,0,0,0,3.376,3.035c1.772,1.446,3.586,2.842,5.409,4.222q2.357,1.782,4.751,3.513a11.328,11.328,0,0,0,2.714,1.739,2.021,2.021,0,0,0,2.46-1.4c.74-2.855,1.793-5.655,2.71-8.456,1.266-3.871,2.546-7.737,3.788-11.615a11.058,11.058,0,0,0,.876-3.182c-.033-2.572-4.033-2.579-4,0-.01-.8.006-.245-.13.2-.161.533-.331,1.063-.5,1.593-.545,1.708-1.1,3.413-1.659,5.118-1.287,3.939-2.587,7.873-3.861,11.817-.37,1.146-.779,2.291-1.081,3.458l2.46-1.4c.916.312.016-.085-.29-.295-.521-.36-1.036-.729-1.549-1.1q-2.356-1.7-4.67-3.455c-2.694-2.039-5.747-4.065-7.975-6.632v2.829a112.157,112.157,0,0,0,17.089-20.243h-3.454c1.27,1.782,2.476,3.61,3.659,5.451.489.76.974,1.523,1.448,2.293.17.278.343.556.5.839.135.235.343.841.079.051C151.961,197.591,155.825,196.549,155.007,194.1Z"/><path class="b" d="M122.061,212.319c.7,3.057,1.913,5.939,2.743,8.95-.052-.189.069.419.076.609.014.388.024.776.034,1.164.026,1.07.043,2.14.06,3.21.075,4.652-.01,9.357.435,13.993a2.056,2.056,0,0,0,2,2,2.014,2.014,0,0,0,2-2c-.454-4.731-.362-9.533-.44-14.28a24.84,24.84,0,0,0-.254-5.61c-.8-3.069-2.083-5.993-2.8-9.1-.576-2.508-4.433-1.446-3.857,1.064Z"/><path class="b" d="M136.08,211.757a44.453,44.453,0,0,0,.2,7.139,21.827,21.827,0,0,0,1.627,5.4,74.07,74.07,0,0,0,4.72,10.51c1.273,2.238,4.73.224,3.454-2.019a67.232,67.232,0,0,1-4.317-9.555,24.517,24.517,0,0,1-1.5-4.529,31.882,31.882,0,0,1-.179-6.946c.167-2.57-3.833-2.56-4,0Z"/><path class="b" d="M128.333,223.92c1.649-.525,3.324-.974,5-1.408s3.354-.877,5.061-1.145a2.007,2.007,0,0,0,1.4-2.46,2.059,2.059,0,0,0-2.46-1.4c-1.706.268-3.39.712-5.06,1.145s-3.349.883-5,1.408a2,2,0,0,0,1.063,3.857Z"/><path class="c" d="M326.136,204.742a5.779,5.779,0,0,1,4.149-1.021,5.216,5.216,0,0,1,4.406,2.88l.6,1.242c2.526-5.18,2.5-14.095,2.616-17.954a35.857,35.857,0,0,0-1.406-10.937c-2.044-7.075-4.972-12.816-10.689-17.722l-1.119-.96-3.058-2-2.874-1.882a39.809,39.809,0,0,0-26.714-6.751c-13.571,1.183-24.311,6.841-31.32,15.743a41.852,41.852,0,0,0-7.745,18.992,66.075,66.075,0,0,0,1.692,24.28l.068.243-.141-3.675c-.25-6.5,5.051-16.274,11.317-18.752,4.412-1.631,11.485.853,16.336,1.422,8.032.941,22.882-1.657,26.373,2.054,2.74,1.984,6.5,19.477,8.69,15.984,0,0,.013.979-.008,1.563C319.6,207.4,326.136,204.742,326.136,204.742Z"/><path class="b" d="M324.4,162.644a33.429,33.429,0,0,1,9.949,16.073c1.863,6.159,1.759,12.544,1.224,18.9-.267,3.162-.685,6.552-2.11,9.427-1.139,2.3,2.31,4.328,3.454,2.019,2.758-5.564,2.816-12.193,2.969-18.274a43.253,43.253,0,0,0-5.17-21.711,33.486,33.486,0,0,0-7.487-9.26c-1.935-1.681-4.776,1.137-2.829,2.829Z"/><path class="b" d="M319.774,154.658a43.041,43.041,0,0,0-21.932-7.187,51.873,51.873,0,0,0-21.124,3.695,42.657,42.657,0,0,0-16.073,11.2,41.657,41.657,0,0,0-9.371,20.123,62.818,62.818,0,0,0,1.093,25.232c.6,2.5,4.458,1.442,3.857-1.064-3.149-13.11-2.613-28.633,5.842-39.76,7.754-10.2,20.618-15.142,33.154-15.44a39.217,39.217,0,0,1,22.535,6.656c2.166,1.4,4.173-2.057,2.019-3.454Z"/><path class="b" d="M327.145,206.469a4.223,4.223,0,0,1,3.9-.544,2.815,2.815,0,0,1,1.793,1.442c1.174,2.2.672,5.4-.045,7.664a13.979,13.979,0,0,1-4.183,6.387c-1.669,1.391-4.7,2.538-6.912,1.591a2.067,2.067,0,0,0-2.736.717,2.014,2.014,0,0,0,.717,2.737,11.293,11.293,0,0,0,9.2-.475,14.578,14.578,0,0,0,6.164-6.28,18.82,18.82,0,0,0,2.4-8.27c.127-2.634-.328-5.585-2.247-7.543a8.161,8.161,0,0,0-10.076-.88,2.054,2.054,0,0,0-.717,2.736,2.017,2.017,0,0,0,2.736.718Z"/><path class="b" d="M256.6,205.217a18.548,18.548,0,0,1,2.51-9.1,17.913,17.913,0,0,1,6.49-7.283c3.012-1.707,6.936-.753,10.129-.117a56.512,56.512,0,0,0,10.286,1.387c3.428.051,6.855-.145,10.282-.212a34.537,34.537,0,0,1,8.813.508c.3.072.586.157.875.25a2.5,2.5,0,0,1,.386.147,5.655,5.655,0,0,1,.579.323c.324.209.084.058.018.005.1.08.19.176.282.263s.18.17.27.253c.2.179-.192-.347.084.111.212.353.425.7.613,1.067a56.051,56.051,0,0,1,2.512,6.289,39.084,39.084,0,0,0,3,7.149c1.264,2.047,3.724,3.057,5.31.681,1.433-2.148-2.03-4.152-3.454-2.019-.185.276.11-.153.127-.162-.122.066-.332.132.212-.162a1.512,1.512,0,0,1,1.3-.086c.065.025.375.267.285.171,0,0-.149-.131-.148-.153.011-.2.1.14.049.066a14.432,14.432,0,0,1-1.239-2.382c-.314-.728-.83-2.1-1.2-3.1-.452-1.221-.892-2.445-1.351-3.663A25.462,25.462,0,0,0,310.9,189.5a8.506,8.506,0,0,0-5.69-3.163c-6.569-1.147-13.345-.067-19.965-.255-3.545-.1-6.923-.99-10.4-1.6-3.675-.64-7.581-1.077-11,.743-3.514,1.873-6.219,5.271-8.1,8.707a22.79,22.79,0,0,0-3.14,11.278c.067,2.569,4.067,2.579,4,0Z"/><path class="b" d="M243.436,41.636a65.552,65.552,0,0,0,9.658,14.64,48.411,48.411,0,0,0,5.322,5.5,13.65,13.65,0,0,0,5.009,3.1c2.485.686,3.546-3.172,1.063-3.857-.156-.043-.308-.094-.461-.149-.135-.052-.092-.033.127.055-.1-.045-.195-.093-.292-.142-.315-.178-.63-.351-.934-.549a15.467,15.467,0,0,1-2.055-1.61,50.9,50.9,0,0,1-5.153-5.415,61.585,61.585,0,0,1-8.83-13.589,2.016,2.016,0,0,0-2.736-.718,2.048,2.048,0,0,0-.718,2.737Z"/><path class="b" d="M243.16,39.879a48.117,48.117,0,0,1-10.335,14.285,41.5,41.5,0,0,1-7.015,5.252q-.889.531-1.8,1.022c-.152.081-.315.153-.462.244-.38.235.128-.039.265-.055a1.544,1.544,0,0,1,1.337.579c-.195-.186.061.29-.023-.027-.043-.164-.094-.326-.131-.492a5.174,5.174,0,0,1-.148-1.151c-.189-2.508-.015-5.029-.193-7.537-.182-2.553-4.183-2.573-4,0,.178,2.508,0,5.029.193,7.537.159,2.109.8,5.736,3.812,4.982a16.08,16.08,0,0,0,4.192-2.276,48.621,48.621,0,0,0,4.264-3.061,44.788,44.788,0,0,0,7.195-7.239A54.907,54.907,0,0,0,246.614,41.9c1.124-2.3-2.325-4.334-3.454-2.018Z"/></svg>