<?xml version="1.0" encoding="utf-8"?>
<!-- Uploaded to: SVG Repo, www.svgrepo.com, Generator: SVG Repo Mixer Tools -->
<svg width="800px" height="800px" viewBox="0 -51.58 410.04 410.04" xmlns="http://www.w3.org/2000/svg"><defs><style>.a{fill:#ad7b59;}.b{fill:#ffffff;}.c{fill:#211715;}.d{fill:#f4b3b3;}.e{fill:#645d5b;}</style></defs><path class="a" d="M356.109,160.652c13.18,3.788,23.629-8.61,22.966-17.619a44.2,44.2,0,0,0-3.759-14.909c-2.72-6.487-8.032-19.681-9.909-43.746.167-7.33-1.176-17.818-1.726-21.847-1.9-13.965-9.19-29.227-18.779-37.352-4.146-3.513-5.394-5.2-9.79-7.228l-4.929-2.278-2.409-.8a65.681,65.681,0,0,0-26.529-3.326c-18.052,1.167-33.518,11.505-40.207,18.791-11.1,12.089-17.264,33.258-14.474,61.719,1.253,19.332.569,33.378-1.137,41.445a92.859,92.859,0,0,0-1.562,20.149c.5,9.021,10.906,18.276,25.109,14.29,0,0,27.873,7.1,46.891,4.87C336.113,170.433,356.109,160.652,356.109,160.652Z"/><path class="b" d="M351.018,81.128l-3.409-3.846c-6.629-1.563-14.586-12.27-17.4-16.809-1.977-3.191-4.359-10.253-6.193-15.184-7.022,10.465-16.3,18.162-28.167,22.4-2.819,1.041-.7-8.253-.467-12.593-7.156,8-20.8,21.473-28.14,28.315L261.89,88.64a6.6,6.6,0,0,0-6.461-2.155,6.436,6.436,0,0,0-4.423,3.371,9.1,9.1,0,0,0-.716,3.718A27.3,27.3,0,0,0,254,107.833a17.35,17.35,0,0,0,4.857,5.586c1.689,1.177,4.092,2.488,6.983,1.3A49.8,49.8,0,0,0,271.892,127c2.16,2.258,4.138,4.336,4.138,4.336a44.965,44.965,0,0,0,14.637,10.606,56.01,56.01,0,0,1-.76,6.686c-.551,3.145-.378,5.956-4.75,7.535-.318.114-18.747,5.893-17.97,5.827,0,7.833,16.947,19.248,39.573,19.248,25.887,0,42.886-11.823,42.886-18.874l-.371-.152c-.442-.182-12.843-6.082-13.132-6.186-4.372-1.579-4.2-4.39-4.751-7.535a63.4,63.4,0,0,1-.931-8.5c10.927-5.856,18.967-21.953,20.274-26.358.168-.646.491-1.786.788-3.158,1.965-.481,4.834-.575,6.337-1.941a17.356,17.356,0,0,0,4.1-6.164A27.3,27.3,0,0,0,363.8,87.747a9.1,9.1,0,0,0-1.188-3.595,6.444,6.444,0,0,0-4.821-2.774,6.8,6.8,0,0,0-5.056,1.687Z"/><path class="c" d="M354.145,85.021a4.319,4.319,0,0,1,6.4.343c.863,1.191.981,2.977,1.087,4.4a25.59,25.59,0,0,1-.131,5.3,23.2,23.2,0,0,1-3.315,9.377,6.517,6.517,0,0,1-2.739,2.75,27.108,27.108,0,0,1-4.292.907c-3.022.631-1.743,5.259,1.276,4.629,1.968-.411,4.036-.568,5.831-1.559a12.871,12.871,0,0,0,4.288-4.655,28.678,28.678,0,0,0,3.907-13.149c.251-4.2-.022-9.584-3.587-12.418a9.238,9.238,0,0,0-12.115.685c-2.231,2.145,1.166,5.537,3.394,3.394Z"/><path class="c" d="M349.772,104.535a25.933,25.933,0,0,1-1.585,9.166c-.139.4-.294.784-.451,1.173s.172-.376-.08.189c-.123.275-.244.552-.37.826-.506,1.105-1.052,2.192-1.624,3.265A55.7,55.7,0,0,1,334.649,134a22.449,22.449,0,0,1-8.514,5.2c-2.951.886-1.694,5.52,1.276,4.629,6.877-2.065,12.195-7.4,16.444-12.96a62.8,62.8,0,0,0,8.726-15.259,29.345,29.345,0,0,0,1.991-11.073c-.091-3.082-4.891-3.095-4.8,0Z"/><path class="c" d="M262.191,85.654a9.193,9.193,0,0,0-11.9,1.071c-3.244,3.474-2.66,9.055-1.795,13.352a28.314,28.314,0,0,0,5.783,12.33c2.817,3.414,7.173,6.078,11.7,4.81,2.97-.831,1.708-5.464-1.276-4.628-2.846.8-5.537-1.65-7.165-3.735a24.976,24.976,0,0,1-4.835-13.532c-.064-1.468-.191-3.221.527-4.561,1.314-2.458,4.523-2.448,6.532-.962a2.417,2.417,0,0,0,3.283-.861,2.457,2.457,0,0,0-.861-3.284Z"/><path class="c" d="M262.125,110.6a55,55,0,0,0,8.036,18.1,2.464,2.464,0,0,0,3.283.861,2.42,2.42,0,0,0,.861-3.284,50.676,50.676,0,0,1-7.551-16.952,2.4,2.4,0,0,0-4.629,1.276Z"/><path class="c" d="M321.894,46.447c1.474,4,2.863,8.032,4.579,11.934a38.845,38.845,0,0,0,4.592,7.563,60.557,60.557,0,0,0,7.264,8.314c2.465,2.284,5.324,4.5,8.642,5.339,3,.755,4.274-3.873,1.276-4.629-2.575-.649-4.983-2.618-7.02-4.573a56.166,56.166,0,0,1-6.378-7.362,37.373,37.373,0,0,1-4.231-7.075c-1.545-3.52-2.766-7.183-4.095-10.787A2.466,2.466,0,0,0,323.57,43.5a2.419,2.419,0,0,0-1.676,2.952Z"/><path class="c" d="M321.922,44.114a56.668,56.668,0,0,1-14.587,15.027,53.032,53.032,0,0,1-9.394,5.178c-.775.328-1.562.634-2.353.918-.54.194-.553.043-.128.13a2.693,2.693,0,0,1,1.2.514c.035.026.366.47.161.2.258.342.092.28.025-.074-.049-.263.012.173.014.183-.018-.134-.029-.275-.036-.41-.026-.563-.02-1.126.009-1.69.154-3.014.775-5.983.954-8.994a2.423,2.423,0,0,0-4.1-1.7c-8.866,9.892-18.43,19.256-28.14,28.315-2.264,2.112,1.136,5.5,3.394,3.394,9.71-9.059,19.274-18.423,28.14-28.315l-4.1-1.7c-.179,3.011-.8,5.98-.954,8.994-.134,2.627.512,6.8,4.19,5.984a29.116,29.116,0,0,0,5.565-2.241,54.218,54.218,0,0,0,5.42-2.891A57.694,57.694,0,0,0,317,57.409a66.089,66.089,0,0,0,9.065-10.872c1.735-2.566-2.422-4.971-4.144-2.423Z"/><path class="c" d="M328.412,12.559a69.9,69.9,0,0,0-29.747-3.182,66.558,66.558,0,0,0-28.2,10.214,52.355,52.355,0,0,0-16.057,15.438,65.849,65.849,0,0,0-8.84,22.49,115.479,115.479,0,0,0-1.408,34.538,2.466,2.466,0,0,0,2.4,2.4,2.417,2.417,0,0,0,2.4-2.4c-1.675-17.365-.807-36.472,8.01-52,7.751-13.648,23.179-22.575,38.533-25.4a64.334,64.334,0,0,1,31.629,2.531c2.94.97,4.2-3.664,1.276-4.629Z"/><path class="c" d="M367.807,84.378a119.633,119.633,0,0,0-.932-15.447,103.432,103.432,0,0,0-2.2-13.83c-2.631-10.489-7.619-20.931-15.121-28.819-1.986-2.089-4.235-3.923-6.4-5.821a29.02,29.02,0,0,0-6.83-4.583,2.468,2.468,0,0,0-3.283.861,2.419,2.419,0,0,0,.861,3.284c4.224,1.984,7.8,5.277,11.122,8.5A49.5,49.5,0,0,1,353.7,40.205a67.1,67.1,0,0,1,5.987,14.808,64.222,64.222,0,0,1,1.6,7.579c.038.257.073.514.108.771.063.452.012.087,0,0q.083.614.161,1.227.192,1.494.367,2.989a124.763,124.763,0,0,1,1.086,16.8c-.06,3.09,4.74,3.09,4.8,0Z"/><path class="c" d="M244.164,92.057c.505,7.882.782,15.789.578,23.687-.078,3.03-.228,6.06-.5,9.08a65.663,65.663,0,0,1-.879,6.751,104.7,104.7,0,0,0-1.974,19.513,20.453,20.453,0,0,0,1.5,8.37,18.552,18.552,0,0,0,4.96,6.613c6.072,5.156,14.205,6.24,21.757,4.184,2.977-.81,1.714-5.442-1.276-4.628-5.683,1.547-11.966,1.071-16.733-2.658a14.52,14.52,0,0,1-4.452-5.678,16.183,16.183,0,0,1-.958-6.723,102.377,102.377,0,0,1,1.843-17.94,107.488,107.488,0,0,0,1.463-15.447c.284-8.375,0-16.765-.535-25.124a2.456,2.456,0,0,0-2.4-2.4,2.421,2.421,0,0,0-2.4,2.4Z"/><path class="c" d="M363.007,84.378c1.023,12.914,3.134,25.866,7.526,38.093,1.659,4.621,3.859,9.055,5.064,13.829a37.214,37.214,0,0,1,.96,5.381,20.4,20.4,0,0,1,.146,2.356,10.467,10.467,0,0,1-.116,1.43,15.866,15.866,0,0,1-3.107,6.918,15.69,15.69,0,0,1-16.733,5.953c-2.982-.825-4.254,3.805-1.276,4.629a20.148,20.148,0,0,0,19.009-4.629c4.341-3.9,7.439-9.821,6.959-15.761a45.92,45.92,0,0,0-2.649-12.153c-.789-2.15-1.726-4.243-2.559-6.376a113.807,113.807,0,0,1-4.408-13.922,158.275,158.275,0,0,1-4.016-25.748,2.461,2.461,0,0,0-2.4-2.4,2.419,2.419,0,0,0-2.4,2.4Z"/><path class="c" d="M274.333,133.032c6.8,7.1,15.423,12.757,25.425,13.591a2.419,2.419,0,0,0,2.4-2.4,2.45,2.45,0,0,0-2.4-2.4c-8.677-.723-16.179-6.077-22.031-12.185-2.141-2.235-5.533,1.163-3.394,3.394Z"/><path class="d" d="M395.648,207.027c-.374-4.332-3.3-14.956-7.014-19.907a44.028,44.028,0,0,0-13.409-11.9c-8.642-4.7-15.95-8.545-24.294-12.434-.763-.25-1.288-.342-1.487-.214-9.5,5.544-28.006,10.492-42.05,10.437a94.729,94.729,0,0,1-42.421-10.949C253,166.421,240.788,170.7,232.741,176.6c-5.5,4.264-9.342,12.021-10.453,20.08-2.052,22.474,1.622,44.417,9.2,65.913,2.317,6.571,5.175,13.2,10.232,18,4.392,4.161,10.821,6.623,16.611,5.358-1.555,6.221-2.859,8.474-6.316,17.759,25.963,0,135.085-.588,155.447-.592-2.18-22.331-8.67-74.92-11.82-96.08"/><path class="c" d="M265.261,164.941a96.646,96.646,0,0,0,34.97,10.111c11.691,1.117,23.551-.676,34.764-4.01,2.87-.854,5.708-1.825,8.479-2.959,1.383-.567,2.757-1.159,4.1-1.808q.841-.407,1.667-.843c.22-.117.439-.235.657-.356.169-.094.339-.189.507-.285q-1.5.014-.487.2c3,.757,4.274-3.871,1.276-4.629a4.74,4.74,0,0,0-3.978.714c-1.012.551-2.047,1.06-3.094,1.54a70.7,70.7,0,0,1-6.721,2.627,107.831,107.831,0,0,1-16.485,4.16,82.478,82.478,0,0,1-35.445-1.877,88.257,88.257,0,0,1-17.79-6.727c-2.74-1.417-5.171,2.724-2.423,4.144Z"/><path class="c" d="M328.07,140.672a81.872,81.872,0,0,0,1.414,11.258,8.669,8.669,0,0,0,5.737,6.632c.9.358-.617-.307.021,0,.234.113.47.219.7.329q1.11.521,2.218,1.045,3,1.417,6,2.84c1.365.646,2.719,1.34,4.109,1.933a2.482,2.482,0,0,0,3.284-.861,2.417,2.417,0,0,0-.861-3.284c-2.948-1.257-5.816-2.74-8.712-4.11-1.406-.666-2.807-1.345-4.222-1.99a16.638,16.638,0,0,1-2.13-1.007,2.757,2.757,0,0,1-1.286-1.79,35.454,35.454,0,0,1-.754-4.19,60.481,60.481,0,0,1-.727-6.806,2.452,2.452,0,0,0-2.4-2.4,2.422,2.422,0,0,0-2.4,2.4Z"/><path class="c" d="M267.28,164.606c5.654-2.077,11.489-3.731,17.229-5.552,3-.952,5.441-2.608,6.478-5.691a24.239,24.239,0,0,0,.729-3.834c.347-2.11.629-4.224.786-6.358a2.421,2.421,0,0,0-2.4-2.4,2.446,2.446,0,0,0-2.4,2.4c-.133,1.8-.374,3.571-.66,5.354a22.245,22.245,0,0,1-.684,3.562,3.708,3.708,0,0,1-.509.926,4.155,4.155,0,0,1-1.122.833,16.717,16.717,0,0,1-2.892,1.022c-5.276,1.671-10.635,3.2-15.831,5.109a2.464,2.464,0,0,0-1.676,2.952,2.419,2.419,0,0,0,2.952,1.677Z"/><path class="c" d="M339.176,160.166c10.806,4.61,21.3,9.826,31.641,15.4a49.717,49.717,0,0,1,10.048,6.654,32.821,32.821,0,0,1,8.724,11.648,57.782,57.782,0,0,1,2.473,7.386c.3,1.1.563,2.206.79,3.321q.159.781.287,1.566c.026.157.051.315.072.472-.071-.523.029.323.037.415a2.466,2.466,0,0,0,2.4,2.4,2.417,2.417,0,0,0,2.4-2.4,50.453,50.453,0,0,0-3.159-12.714,41.634,41.634,0,0,0-3.063-6.708,36,36,0,0,0-5.3-6.6,43.523,43.523,0,0,0-9.957-7.785q-7.891-4.375-15.973-8.415-9.358-4.7-19-8.788a2.483,2.483,0,0,0-3.284.861,2.417,2.417,0,0,0,.861,3.284Z"/><path class="c" d="M224.6,197.316c.991-6.9,3.869-14.465,9.6-18.829,6.033-4.595,13.553-7.441,20.575-10.118,4.562-1.74,9.165-3.37,13.749-5.054a2.465,2.465,0,0,0,1.676-2.953,2.42,2.42,0,0,0-2.952-1.676c-8.4,3.087-16.91,5.97-25.035,9.75a64.275,64.275,0,0,0-10.246,5.773,26.56,26.56,0,0,0-7.514,8.577,37.673,37.673,0,0,0-4.481,13.254,2.48,2.48,0,0,0,1.676,2.952,2.418,2.418,0,0,0,2.953-1.676Z"/><path class="b" d="M275.379,198.294c1.872-2.894,6.945-9.318,7.289-11.175a25.119,25.119,0,0,0,.047-7.321c-1.078-8.037-1.672-19.017-3.083-23.8a49.311,49.311,0,0,0-5.059-12.135,98.5,98.5,0,0,0-7.13-10.708,7.411,7.411,0,0,1-1.507-3.864,3.093,3.093,0,0,1,1.992-3.121,6.558,6.558,0,0,1,4.272.1c4.189,2.27,6.969,5.627,10.116,10.519,2.167,3.368,8.971,12.341,10.949,15.823l.2.306c1.665-.958,3.288-1.672,5.568-2.7,1.012-.457,4.084-1.486,5.2-1.334a7.392,7.392,0,0,1,6.327,6.611c2.134-.544,3.916.709,5.151,2.18,1.1,1.308,2.1,3.363,1.026,7.456h0a6.464,6.464,0,0,1,3.765,5.741c.157,2.179.359,4.1-.846,6.521-1.25,2.512-4.481.992-5.4-.175l-.355-.17c.926,3.281,2.3,9.051.642,13.248-.595,1.51-5.56,5.274-7.667,6.591-2.783,4.333-5.5,13.2-6.464,15.816Z"/><path class="c" d="M291.248,157.267a35.093,35.093,0,0,1,5.411-3.329c.982-.482,1.981-.928,2.977-1.378.072-.032.789-.348.5-.228s.187-.07.234-.086c.414-.147.825-.3,1.244-.427,1.691-.531,2.349-.852,3.859-.073a5.088,5.088,0,0,1,2.687,3.746,2.451,2.451,0,0,0,3.038,2.314,2.287,2.287,0,0,1,1.928.647,6.175,6.175,0,0,1,.525.511c.042.045.482.548.3.32-.1-.126.32.485.408.64a3.435,3.435,0,0,1,.409,1.312,8.978,8.978,0,0,1-.345,3.254c-.744,3,3.884,4.277,4.629,1.276.71-2.864.9-6.059-.777-8.644-1.856-2.866-4.91-4.652-8.353-3.945l3.038,2.315a10.187,10.187,0,0,0-3.59-6.882,8.576,8.576,0,0,0-7.2-1.908,29.841,29.841,0,0,0-6.439,2.386,38.585,38.585,0,0,0-6.905,4.034,2.475,2.475,0,0,0-.861,3.284,2.418,2.418,0,0,0,3.284.861Z"/><path class="c" d="M298.665,163.191c1.064-.541,2.148-1.044,3.238-1.531q.954-.427,1.914-.838l.884-.378c.6-.253-.463.194.132-.055l.437-.183c1.968-.82,3.947-1.613,5.928-2.4a2.46,2.46,0,0,0,1.676-2.952,2.425,2.425,0,0,0-2.952-1.677c-4.6,1.83-9.262,3.621-13.68,5.87a2.416,2.416,0,0,0-.861,3.283,2.457,2.457,0,0,0,3.284.861Z"/><path class="c" d="M317.949,163.056c-2.767-1.219-5.632-.556-8.412.289-1.273.387-2.549.75-3.785,1.244-1.363.545-3,1.313-4.179,1.807a2.467,2.467,0,0,0-1.676,2.953c.358,1.106,1.712,2.2,2.952,1.676q1.164-.489,2.319-1c.312-.138.623-.278.936-.415.153-.068.307-.135.46-.2l.116-.05c1.153-.477,2.333-.836,3.524-1.2a32.693,32.693,0,0,1,3.321-.9c.147-.029.293-.055.441-.079-.274.032-.269.033.015,0s.563-.044.848-.041c.163,0,.936.158.362.008.124.033.893.3.335.051a2.465,2.465,0,0,0,3.284-.861,2.427,2.427,0,0,0-.861-3.284Z"/><path class="c" d="M312.557,178.912A6.691,6.691,0,0,0,316.194,181a4.942,4.942,0,0,0,5.337-2.055,10.922,10.922,0,0,0,1.489-6.013,14.49,14.49,0,0,0-.88-5.431,8.656,8.656,0,0,0-4.191-4.441,2.4,2.4,0,1,0-2.423,4.145c.292.142,1.012.4,1.175.7l-.227-.174c.083.068.165.138.245.211a6.162,6.162,0,0,1,.448.452c.383.429.074-.006.019.006.048-.011.309.475.339.529.043.074.322.491.287.565l-.119-.278c.039.1.075.2.11.3a10.01,10.01,0,0,1,.281,1.129q.063.4-.013-.124c.013.116.023.234.032.351.021.253.038.506.055.76a19.9,19.9,0,0,1,.017,2.6c-.03.487.086-.424-.037.212-.044.228-.1.455-.16.679-.076.272-.172.535-.266.8.157-.444-.108.223-.128.262a2.892,2.892,0,0,1-.156.277q-.221.321.111-.136a2.2,2.2,0,0,1-.195.191c.3-.22.376-.28.224-.182-.454.295.472-.1.062,0-.626.139.449.028.027.022l-.379,0c-.41,0,.634.139,0-.016-.148-.036-.29-.088-.436-.132-.537-.161.426.23.038.016a4.887,4.887,0,0,0-.736-.44q.5.394.219.168c-.053-.046-.105-.092-.156-.141a3.241,3.241,0,0,1-.258-.279,2.409,2.409,0,0,0-3.394,0,2.467,2.467,0,0,0,0,3.394Z"/><path class="c" d="M311.034,175.764a51.349,51.349,0,0,1,1.719,7.251,16.372,16.372,0,0,1,.033,4.621,10.271,10.271,0,0,1-.28,1.2c-.049.167-.1.331-.159.5.021-.063.094-.3-.007.007-.108.33.205-.2-.076.123-.213.245-.436.481-.666.709-1.887,1.875-4.155,3.154-6.179,4.829-1.119.928-1.781,2.683-2.381,3.978-.733,1.581-1.393,3.2-2.016,4.825-1.047,2.729-1.925,5.516-2.927,8.26a2.423,2.423,0,0,0,1.677,2.953,2.45,2.45,0,0,0,2.952-1.677c1.871-5.127,3.286-10.584,6.222-15.243l-.861.861a48.155,48.155,0,0,0,5.617-4.211,9.614,9.614,0,0,0,3.645-5.485c1.049-5-.357-9.982-1.684-14.772-.824-2.973-5.456-1.71-4.629,1.276Z"/><path class="c" d="M295.337,151.4c-2.035-3.538-4.582-6.81-6.958-10.121-2.655-3.7-5.03-7.67-7.935-11.176-3.077-3.713-7.937-8.085-13.154-6.243-3.174,1.12-4.341,4.431-3.4,7.51.842,2.762,2.989,5.017,4.613,7.348a58.3,58.3,0,0,1,8.817,17.922c.809,2.978,5.441,1.714,4.629-1.276a58.471,58.471,0,0,0-6.706-15.108c-1.335-2.185-2.8-4.282-4.3-6.354a25.425,25.425,0,0,1-2.1-3.024c-.3-.575-.844-1.709-.329-2.282.369-.411,1.37-.373,1.919-.321.085.008.77.145.556.068a8.622,8.622,0,0,1,1.693,1.027,21.734,21.734,0,0,1,4.728,4.57c2.39,3.008,4.393,6.371,6.635,9.5,2.438,3.4,5.06,6.755,7.149,10.387,1.539,2.677,5.688.262,4.144-2.423Z"/><path class="c" d="M277.451,199.505c1.45-2.22,3.073-4.323,4.584-6.5,1.452-2.092,2.837-4.072,3.154-6.646.436-3.538-.165-7.01-.55-10.52-.392-3.564-.71-7.135-1.108-10.7a59.222,59.222,0,0,0-1.584-9.779c-.851-2.963-5.484-1.7-4.629,1.276,1.622,5.651,1.743,11.806,2.352,17.621a74.914,74.914,0,0,1,.878,10.053,15.149,15.149,0,0,1-.194,2.169c-.018.1-.17.573-.054.248s-.144.28-.2.388a29.78,29.78,0,0,1-1.766,2.82c-1.639,2.407-3.436,4.707-5.028,7.146-1.694,2.594,2.461,5,4.145,2.422Z"/><path class="c" d="M219.888,196.678c-1.978,22.094,1.612,44.3,8.817,65.2,3.125,9.064,7.214,18.871,15.959,23.857a20.621,20.621,0,0,0,13.665,2.65c4.024-.7,7.693-3.156,10.919-5.542a58.03,58.03,0,0,0,9.692-8.784,64.572,64.572,0,0,0,5.714-8.347c3.919-6.392,7.556-12.96,11.063-19.586,3.22-6.084,6.349-12.229,9.192-18.5,1.006-2.218,2-4.453,2.824-6.747.472-1.315,1.022-2.824.6-4.22-.6-2.007-2.842-3.447-4.44-4.577-2.481-1.755-5.122-3.287-7.764-4.785-6.306-3.574-12.773-6.857-19.222-10.164q-1.883-.966-3.761-1.939a2.463,2.463,0,0,0-3.284.861c-3.364,5.067-6.406,10.357-9.4,15.648s-5.963,10.623-8.588,16.11a2.465,2.465,0,0,0,.861,3.283,2.421,2.421,0,0,0,3.284-.861c2.625-5.487,5.592-10.818,8.587-16.11s6.038-10.581,9.4-15.648l-3.284.861c5.785,3.01,11.615,5.931,17.362,9.013,2.986,1.6,5.957,3.235,8.864,4.976,1.225.733,2.439,1.485,3.624,2.282.47.316.936.639,1.394.974.134.1.691.534.265.194.22.176.439.352.651.536.286.248.548.515.817.78.141.14.487.6-.017-.05a1.732,1.732,0,0,1,.215.355c-.012-.028-.193-1.11-.211-.593.022-.63.07-.4-.045.086a17.7,17.7,0,0,1-.615,1.919c-.158.432-.324.86-.494,1.287q-.133.336-.271.67c-.053.129-.376.9-.169.411-2.376,5.605-5.113,11.065-7.893,16.479-3.354,6.533-6.851,13-10.542,19.345-3.29,5.659-6.5,11.408-11.261,15.966a54.084,54.084,0,0,1-9.709,7.5c-3.285,1.952-6.665,2.929-10.491,2.093-8.948-1.957-13.988-10.176-17.108-18.132A154.333,154.333,0,0,1,224.2,204.436q.132-3.885.484-7.758a2.418,2.418,0,0,0-2.4-2.4,2.451,2.451,0,0,0-2.4,2.4Z"/><path class="c" d="M255.812,286.116c-1.526,5.816-4.012,11.327-6.108,16.949a2.42,2.42,0,0,0,1.676,2.952,2.451,2.451,0,0,0,2.952-1.676c2.1-5.622,4.583-11.133,6.108-16.949a2.4,2.4,0,0,0-4.628-1.276Z"/><path class="c" d="M365.485,203.9q.775,15.292.927,30.607c.05,5.229.02,10.372-.4,15.578-.976,12.056-2.322,24.087-3.68,36.1-.643,5.7-1.3,11.393-2.016,17.081a2.412,2.412,0,0,0,2.4,2.4,2.46,2.46,0,0,0,2.4-2.4c1.427-11.314,2.674-22.654,3.859-34,1.078-10.316,2.311-20.649,2.264-31.032q-.076-17.179-.953-34.341c-.156-3.073-4.957-3.092-4.8,0Z"/><path class="c" d="M393.331,207.669c1.749,11.769,3.213,23.281,4.712,35.138q2.641,20.893,5.038,41.817c.7,6.159,1.381,12.319,1.984,18.487a2.467,2.467,0,0,0,2.4,2.4,2.417,2.417,0,0,0,2.4-2.4c-1.19-12.164-2.629-24.305-4.083-36.439q-2.522-21.045-5.293-42.058c-.808-6.078-1.628-12.155-2.53-18.221a2.416,2.416,0,0,0-2.952-1.676,2.462,2.462,0,0,0-1.676,2.952Z"/><path class="c" d="M252.018,306.1q11.8,0,23.6-.059,17.508-.063,35.016-.142,19.248-.084,38.5-.171,17.192-.077,34.384-.147,11.312-.045,22.622-.073h1.591c3.088,0,3.093-4.8,0-4.8-6.867,0-13.735.033-20.6.059q-16.738.065-33.477.142l-38.407.171q-17.871.078-35.741.148-12.718.047-25.436.072h-2.041c-3.088,0-3.094,4.8,0,4.8Z"/><path class="c" d="M310.066,99.516c.247.744.477,1.493.7,2.245a16.737,16.737,0,0,1,.6,2.391l-.086-.638a2.128,2.128,0,0,1,0,.472l.085-.638a1.4,1.4,0,0,1-.054.212l.242-.573a1.108,1.108,0,0,1-.1.184l.375-.486a.649.649,0,0,1-.1.1l.486-.375a2.764,2.764,0,0,1-.519.294l.574-.242a2.381,2.381,0,0,1-.555.153l.638-.086a5.746,5.746,0,0,1-1.04-.058,2.4,2.4,0,0,0-1.7,4.1,2.648,2.648,0,0,0,1.7.7,8.073,8.073,0,0,0,.864.072,4.763,4.763,0,0,0,2.21-.627A3.2,3.2,0,0,0,316,104.624a4.992,4.992,0,0,0-.1-2.224c-.338-1.4-.752-2.79-1.208-4.16a2.539,2.539,0,0,0-1.1-1.434,2.4,2.4,0,0,0-3.283.861,2.409,2.409,0,0,0-.242,1.849Z"/><path class="c" d="M285.2,88.545c-.586,2.46.256,7.975,4.855,8.152,6.035-.426,5.923-7.153,3.687-10.175C291.907,84.048,286.944,83.291,285.2,88.545Z"/><path class="c" d="M333.544,85.422c.9,2.363.773,7.941-3.764,8.708-6.04.354-6.795-6.332-4.966-9.616C326.311,81.825,331.134,80.435,333.544,85.422Z"/><path class="c" d="M306.9,124.1c.474-.3.959-.579,1.46-.832.238-.12.479-.233.722-.342q.228-.1-.031.01.224-.092.449-.175a16.141,16.141,0,0,1,1.911-.585c.25-.06.5-.114.756-.16.17-.032.342-.06.513-.086-.2.031-.156.029.145-.007,1.3-.088,2.6-.152,3.9-.112.539.017,1.078.047,1.615.1.139.013.277.027.414.044-.31-.045-.332-.047-.066-.008.22.041.44.079.658.128a2.4,2.4,0,0,0,1.276-4.629,25.218,25.218,0,0,0-8.062-.3,18.893,18.893,0,0,0-8.085,2.806A2.4,2.4,0,1,0,306.9,124.1Z"/><path class="b" d="M64.506,161.442c2.614-.826,9.361-2.9,9.676-3.02,4.818-1.736,4.633-4.836,5.236-8.3.293-1.631.517-3.153.706-4.732a50.426,50.426,0,0,1-13.587-10.4A57.742,57.742,0,0,1,54.652,116.13c-.642.23-1.067.379-1.067.379-2.63.895-4.768-.4-6.483-1.6A18.667,18.667,0,0,1,41.87,108.9a29.4,29.4,0,0,1-4-15.356,9.806,9.806,0,0,1,.769-4A6.937,6.937,0,0,1,43.4,85.905a7.19,7.19,0,0,1,6.691,2l4.525-5.437C63.167,71.68,74.467,61.005,85.967,50.074c.341,1.152,4.041,10.436,4.55,11.679,1.018-.925,13.13-10.959,17.587-14.6,5.349.3,10.037.551,10.037.551,5.877,1.352,11.615,5.5,16.791,11.06a67.967,67.967,0,0,1,10.774,16.645l3.142,6.979a7.347,7.347,0,0,1,5.732-2.075,6.941,6.941,0,0,1,5.193,2.987,9.8,9.8,0,0,1,1.28,3.872,29.389,29.389,0,0,1-1.982,15.744,18.7,18.7,0,0,1-4.411,6.641,5.637,5.637,0,0,1-5.551,1.684l-1.129-.265c-.357,1.774-.785,3.275-.992,4.075-1.437,4.848-10.443,22.847-22.605,28.792.165,2.142.453,4.279.816,6.407.585,3.314.4,6.276,5.013,7.937.2.084,6.517,3.064,10.527,4.967,0,0-10.286,19.465-37.792,19.465S64.506,161.442,64.506,161.442Z"/><path class="c" d="M121.982,143.847a92.994,92.994,0,0,0,1.312,9.6,8.575,8.575,0,0,0,4.221,6.147c.292.163.593.3.9.438-.026-.012,1.372.573.634.249.189.083.376.175.564.262q1.28.6,2.556,1.2,3.683,1.736,7.361,3.481a2.466,2.466,0,0,0,3.284-.861,2.42,2.42,0,0,0-.861-3.283c-3.738-1.774-7.452-3.627-11.251-5.265a7.444,7.444,0,0,1-1.414-.777q-.209-.147.018.013c-.113-.1-.222-.2-.326-.305s-.2-.208-.289-.318c.138.187.16.211.063.073-.13-.2-.238-.4-.358-.606-.226-.383.066.313-.1-.253-.134-.455-.26-.905-.351-1.372a76.694,76.694,0,0,1-1.16-8.428,2.461,2.461,0,0,0-2.4-2.4,2.419,2.419,0,0,0-2.4,2.4Z"/><path class="b" d="M55.652,272.849a56.427,56.427,0,0,1-8.542,10.387,31.742,31.742,0,0,1-3.177,2.533l.388.736c1.761,3.466,7.541,12.151,7.974,12.782a12.663,12.663,0,0,0,4.271,4.313,5.39,5.39,0,0,0,5.839-.284,24.9,24.9,0,0,0,2.258-2.993c2.726-3.266,7.838-2.73,12.149-2.914a27.3,27.3,0,0,0,15.038-5.33l8.4-.249a276.04,276.04,0,0,1,.353-27.912c-9.409-.85-28.111-3.307-37.163-4.846A123.5,123.5,0,0,1,55.652,272.849Z"/><path class="b" d="M10.39,194.037c3.539-9.073,7.528-14.837,14.955-19C34.726,169.769,49.7,163.083,61,160.287a2.155,2.155,0,0,1,2.2.69c9.61,8.407,22.908,12.429,38.492,12.468,13.67.033,32.566-5.2,40.119-10.66a2.03,2.03,0,0,1,1.976-.265c7.331,2.879,22.113,7.978,36.447,17.495,6.231,4.136,10.848,14.225,12.557,18.811,8.206,23.4,12.236,45.861,12.955,65.08.344,9.228.922,18.52-2.159,25-4.209,8.858-12.426,11.248-19.96,12.557-23.785,4.105-66.22,2.871-82.033,2.648-1.517-.291-2-28.938-.977-40.208-9.257-.818-28.3-3.32-37.183-4.84-3.487,7.169-9.5,17.959-16.324,24.17a26.172,26.172,0,0,1-5.7,4.031c-5.5,2.647-13.094,4.536-19.707,3.393-8.336-1.436-11.953-7.185-14.511-13.3-7.076-16.844-6.522-57.369,3.1-83.32Z"/><path class="e" d="M37.8,67.785A72.215,72.215,0,0,1,38.513,53.5c1.256-7.245,4.144-15.121,9.237-20.816-1.587-1.415-2.957-2.452-3.735-3.258C43.432,29.153,54.084,16.737,66,12.379A104.167,104.167,0,0,1,76.75,8.746C76.126,7.122,75.586,5.3,75.579,5.29c2.8-2.2,10.629-2.721,14.185-2.863,14.751-.592,34.887,5.147,40.9,16.621l6.725,4.764C143.975,26.142,151.3,35.7,153.9,42.463c4.02,10.415,5.6,28.1,3.129,38.516a7.065,7.065,0,0,0-2.448-.663,7.405,7.405,0,0,0-5.231,1.62l-3.643-6.524a67.967,67.967,0,0,0-10.774-16.645c-5.176-5.56-10.914-9.708-16.791-11.06l-9.451-1.028c-3.856,3.132-17.106,14.1-18.173,15.074-.509-1.243-4.209-10.527-4.55-11.679-11.5,10.931-22.8,21.606-31.348,32.395l-4.125,5.944A7.041,7.041,0,0,0,43.4,85.905a6.674,6.674,0,0,0-1.783.657C39.4,83.363,38.1,75.61,37.8,67.785Z"/><path class="c" d="M150.521,84.111c1.921-1.857,5.463-1.988,7.139.324a8.566,8.566,0,0,1,1.163,4.063,28.579,28.579,0,0,1,.043,5.549,25.75,25.75,0,0,1-2.949,9.928c-1.175,2.157-3.292,5.544-6.17,4.954a2.46,2.46,0,0,0-2.953,1.677,2.423,2.423,0,0,0,1.677,2.952c7.946,1.628,12.518-7.455,14.22-13.825a31.175,31.175,0,0,0,.907-11.456c-.415-3.69-1.487-7.3-4.977-9.187a9.845,9.845,0,0,0-11.494,1.626c-2.226,2.151,1.171,5.543,3.394,3.4Z"/><path class="c" d="M146.132,105.259a27.972,27.972,0,0,1-1.734,9.992c-.142.4-.3.786-.454,1.177-.14.351.157-.346-.115.27-.122.275-.243.551-.368.824-.551,1.208-1.146,2.395-1.77,3.567a60.012,60.012,0,0,1-12,16.137,24.157,24.157,0,0,1-9.141,5.553c-2.952.885-1.694,5.519,1.276,4.629,7.409-2.222,13.134-8.007,17.7-14.007a67.511,67.511,0,0,0,9.268-16.239,31.391,31.391,0,0,0,2.144-11.9c-.094-3.082-4.894-3.095-4.8,0Z"/><path class="c" d="M50.593,85.168a9.749,9.749,0,0,0-10.317-.619c-3.486,1.9-4.748,5.433-4.809,9.215-.119,7.388,2.516,15.428,7.65,20.85,2.824,2.982,6.9,5.463,11.106,4.21,2.954-.88,1.7-5.514-1.276-4.629-2.889.861-5.793-2.023-7.419-4.106A26.98,26.98,0,0,1,40.28,95.1a9.484,9.484,0,0,1,.592-4.661c1.439-2.748,5.056-2.789,7.3-1.124a2.417,2.417,0,0,0,3.284-.861,2.457,2.457,0,0,0-.861-3.284Z"/><path class="c" d="M50.754,112.146c4.284,14.318,13.955,27.716,27.28,34.86a35.714,35.714,0,0,0,11.682,3.982,2.48,2.48,0,0,0,2.952-1.676,2.419,2.419,0,0,0-1.676-2.953c-14.171-2.059-25.712-13.877-31.92-26.172a56.687,56.687,0,0,1-3.689-9.317c-.884-2.952-5.518-1.7-4.629,1.276Z"/><path class="c" d="M106.993,44.982C100.9,49.933,94.657,54.805,88.82,60.056l4.011,1.059c-1.568-3.841-3.328-7.714-4.55-11.679a2.427,2.427,0,0,0-4.011-1.059C73.392,58.716,62.283,69,52.922,80.772a2.476,2.476,0,0,0,0,3.394,2.417,2.417,0,0,0,3.394,0c9.361-11.775,20.47-22.056,31.348-32.395l-4.012-1.059c1.223,3.965,2.982,7.839,4.55,11.679a2.44,2.44,0,0,0,4.012,1.059C98.051,58.2,104.3,53.327,110.387,48.376a2.417,2.417,0,0,0,0-3.394,2.456,2.456,0,0,0-3.394,0Z"/><path class="c" d="M117.5,50.021c6.3,1.511,11.536,5.879,15.83,10.549a61.355,61.355,0,0,1,10.3,16.054,2.417,2.417,0,0,0,3.283.861,2.457,2.457,0,0,0,.862-3.284A64.652,64.652,0,0,0,136.47,56.9c-4.8-5.128-10.731-9.837-17.691-11.507-3-.721-4.283,3.906-1.276,4.628Z"/><path class="c" d="M46.053,30.988c-10.9,12.365-12.094,30.443-9.8,46.05a30.862,30.862,0,0,0,2.808,9.935c1.44,2.734,5.585.311,4.145-2.423-.132-.25-.257-.5-.374-.759-.006-.014-.149-.352-.057-.129.1.254-.077-.206-.095-.259-.214-.605-.422-1.21-.6-1.827a41.134,41.134,0,0,1-.968-4.361,73.527,73.527,0,0,1-.943-10.285c-.213-7.224.372-14.074,2.74-20.915a34.659,34.659,0,0,1,6.538-11.633c2.035-2.31-1.347-5.717-3.394-3.394Z"/><path class="c" d="M76.112,6.432a89.051,89.051,0,0,0-11.09,3.76,44.349,44.349,0,0,0-9.083,4.785,61.424,61.424,0,0,0-12.292,10.8c-1.083,1.272-3.3,3.733-1.329,5.346a2.471,2.471,0,0,0,3.394,0,2.419,2.419,0,0,0,0-3.395l.354.457.328,1.211c.024.417-.571,1.324-.075.692.091-.116.176-.245.261-.366.2-.293-.368.435.071-.084.672-.8,1.359-1.574,2.081-2.326a62.707,62.707,0,0,1,6.935-6.248,45.956,45.956,0,0,1,9.5-5.783c1.941-.851,3.976-1.521,5.967-2.243a56.249,56.249,0,0,1,6.255-1.978c3-.708,1.733-5.338-1.276-4.629Z"/><path class="c" d="M132.741,17.837c-3.939-7.362-12-11.661-19.6-14.29A65.479,65.479,0,0,0,87.721.133,60.3,60.3,0,0,0,80.58.972a14.994,14.994,0,0,0-6.212,2.245A2.474,2.474,0,0,0,73.507,6.5a2.416,2.416,0,0,0,3.283.861C79.315,5.481,83.562,5.243,86.828,5a63.065,63.065,0,0,1,11.07.1c7.864.787,15.966,2.988,22.721,7.178a21.752,21.752,0,0,1,7.977,7.986c1.458,2.725,5.6.3,4.145-2.422Z"/><path class="c" d="M136.755,26.127c3.377,1.243,6.345,4.272,8.687,7.044a36,36,0,0,1,6.143,9.93c2.951,7.609,4.04,16.077,4.206,24.193a52.986,52.986,0,0,1-1.077,13.048c-.7,3.006,3.929,4.289,4.628,1.276,2.038-8.781,1.474-18.222.088-27.054a62.979,62.979,0,0,0-3.106-12.451,42.394,42.394,0,0,0-6.763-11.457c-3.068-3.827-6.857-7.436-11.53-9.158a2.421,2.421,0,0,0-2.952,1.676,2.452,2.452,0,0,0,1.676,2.953Z"/><path class="c" d="M139.358,163.178c.2-.129,1.066.345,1.358.458l2.1.814q2.634,1.025,5.257,2.075c4.236,1.706,8.434,3.506,12.569,5.446a157.821,157.821,0,0,1,14.155,7.452,35.734,35.734,0,0,1,5.758,3.872,26.617,26.617,0,0,1,4.07,4.784,55.13,55.13,0,0,1,5.854,11.385,2.468,2.468,0,0,0,2.952,1.676,2.419,2.419,0,0,0,1.676-2.952,61.773,61.773,0,0,0-5.561-11.348,36.636,36.636,0,0,0-4.638-6.011,30.757,30.757,0,0,0-5.9-4.459c-9.206-5.747-19.162-10.231-29.205-14.292-2.052-.83-4.113-1.638-6.177-2.439-2.2-.854-4.422-2.042-6.685-.606-2.6,1.651-.195,5.807,2.423,4.145Z"/><path class="c" d="M61.5,162.675c18.092,15.693,44.89,15.543,66.647,8.813,5.118-1.583,10.477-3.493,14.873-6.631a2.468,2.468,0,0,0,.861-3.283,2.419,2.419,0,0,0-3.284-.861,43.957,43.957,0,0,1-11.619,5.467,99.521,99.521,0,0,1-16.087,3.933,69.692,69.692,0,0,1-32.953-2.374A44.731,44.731,0,0,1,64.9,159.28c-2.324-2.015-5.733,1.366-3.394,3.4Z"/><path class="c" d="M65.144,163.756c2.991-.944,5.993-1.853,8.984-2.8a12.441,12.441,0,0,0,4.447-2.322,8.661,8.661,0,0,0,2.667-4.869c.519-2.484.85-5.041,1.18-7.554a2.4,2.4,0,0,0-2.4-2.4,2.473,2.473,0,0,0-2.4,2.4c.027-.207-.053.381-.065.465-.047.324-.095.646-.145.969-.1.613-.2,1.224-.308,1.836-.134.78-.233,1.566-.366,2.346-.122.715-.343,1.381-.52,2.078-.078.308.213-.4.057-.127-.04.07-.069.147-.105.219-.074.145-.153.287-.239.425-.139.224-.264.35-.009.058-.153.176-.3.352-.47.514q-.2.192-.416.366c.368-.3-.1.047-.252.138-.187.114-.378.219-.573.318-.1.052-.208.1-.313.152.237-.112,0,0-.109.045-.325.124-.656.226-.987.33q-2.023.636-4.049,1.259c-1.629.5-3.258,1.008-4.885,1.521a2.4,2.4,0,0,0,1.276,4.629Z"/><path class="c" d="M12.7,194.675c2.755-7.012,6.605-13.309,13.233-17.214a152.013,152.013,0,0,1,23.135-10.818c2.259-.859,4.538-1.668,6.841-2.4q1.631-.52,3.279-.988.878-.247,1.76-.475a4.487,4.487,0,0,1,.689-.174c-.208.016-.432-.2-.138.073,2.264,2.095,5.667-1.291,3.394-3.4-2.161-2-4.427-1.377-6.981-.657-2.246.632-4.466,1.352-6.667,2.127-4.745,1.669-9.405,3.587-13.991,5.652C33.1,168.274,29,170.279,25,172.478a32.68,32.68,0,0,0-9.574,7.622,47.736,47.736,0,0,0-7.352,13.3,2.417,2.417,0,0,0,1.676,2.952,2.456,2.456,0,0,0,2.952-1.676Z"/><path class="c" d="M171.474,256.5c-18.959-.207-37.943-.01-56.9.432-4.428.1-8.858.218-13.281.459a2.531,2.531,0,0,0-2.315,1.762,17.3,17.3,0,0,0-.8,5.062c-.228,2.659-.329,5.329-.4,8q-.27,9.918.083,19.847c.092,2.62.209,5.245.451,7.857.153,1.646.168,3.647.984,5.144.709,1.3,1.892,1.449,3.256,1.47q2.078.031,4.155.07,5.286.093,10.572.168c18.1.234,36.3.294,54.34-1.373,4.042-.374,8.081-.848,12.086-1.518a40.623,40.623,0,0,0,12.216-3.708,22.1,22.1,0,0,0,9.565-9.686c2.44-4.911,2.9-10.518,2.939-15.924a223.593,223.593,0,0,0-10.381-67.468q-1.386-4.477-2.938-8.9a2.459,2.459,0,0,0-2.952-1.677,2.422,2.422,0,0,0-1.676,2.953c7.3,20.89,12.041,42.763,12.886,64.911.212,5.535.585,11.158-.1,16.674a19.581,19.581,0,0,1-5.39,11.86c-5.476,5.364-14.074,6.309-21.232,7.157-17.373,2.06-35.009,2.094-52.48,1.97-6.935-.05-13.868-.183-20.8-.3l-.808-.013c-.331,0-1.307-.18-.28.143a2.108,2.108,0,0,1,1.221.868c-.191-.318.165.7.117.286-.065-.57-.259-1.174-.357-1.746.082.476.043.357,0-.013q-.042-.363-.08-.724c-.054-.519-.1-1.04-.142-1.56-.1-1.21-.17-2.422-.231-3.635-.316-6.2-.378-12.416-.308-18.622.034-2.985.1-5.97.253-8.952.06-1.187.132-2.374.234-3.558.041-.48.086-.959.141-1.438.013-.116.1-.846.043-.383s.048-.313.067-.429a6.99,6.99,0,0,1,.381-1.536l-2.314,1.762c8.952-.488,17.931-.58,26.894-.7q15.708-.216,31.418-.227c3.955,0,7.91,0,11.865.039,3.089.034,3.091-4.766,0-4.8Z"/><path class="c" d="M42.249,287.716c1.548,3.012,3.448,5.859,5.286,8.7,1.591,2.459,3.146,5.208,5.226,7.284a9.45,9.45,0,0,0,7,3.01c2.809-.13,4.621-1.7,6.1-3.947,2.3-3.5,6.926-2.808,10.6-2.938a29.878,29.878,0,0,0,16.6-5.672,2.474,2.474,0,0,0,.861-3.284,2.418,2.418,0,0,0-3.284-.861,25.231,25.231,0,0,1-12.974,4.953c-4.142.309-8.66-.326-12.432,1.816a8.613,8.613,0,0,0-2.267,1.851c-.725.845-1.2,1.959-1.985,2.734-1.232,1.21-3.287.322-4.383-.635-1.908-1.667-3.242-4.151-4.611-6.259a106.4,106.4,0,0,1-5.593-9.173c-1.413-2.748-5.556-.323-4.145,2.423Z"/><path class="c" d="M99.578,261.307c-5.819-.452-11.622-1.206-17.408-1.959-5.639-.734-11.29-1.483-16.887-2.494a2.467,2.467,0,0,0-2.952,1.676,2.42,2.42,0,0,0,1.676,2.952c5.906,1.067,11.87,1.843,17.819,2.621,5.9.771,11.818,1.543,17.752,2a2.421,2.421,0,0,0,2.4-2.4,2.446,2.446,0,0,0-2.4-2.4Z"/><path class="c" d="M169.383,201.439c-1.4,15.97-3.093,31.922-4.857,47.856-.334,3.02-.663,6.042-1.057,9.055a2.413,2.413,0,0,0,2.4,2.4,2.461,2.461,0,0,0,2.4-2.4c1.982-15.171,3.366-30.442,4.857-45.667.367-3.747.729-7.494,1.057-11.244a2.419,2.419,0,0,0-2.4-2.4,2.45,2.45,0,0,0-2.4,2.4Z"/><path class="b" d="M44.84,209.953a108.862,108.862,0,0,0,7.152-11.43c.991-2.742,1.1-5.826,1.925-10.452,1.654-9.2.4-11.369,2.889-18.567,2.4-6.343,4.825-9.133,8.631-14.617,1.269-1.828,6.091-5.9,8.513-7.66a129.554,129.554,0,0,1,11.112-6.713,21.163,21.163,0,0,1,10.92-2.594c1.91.114,4.029.931,4.67,2.734.546,1.535.251,3.744-1.173,4.535-3.879,2.151-8.222,3.577-11.375,5.483-4.375,2.645-6.845,5.121-10.772,8.62l-.648.576c4.28-.589,10.063-.917,13.3-.14a10.309,10.309,0,0,1,1.862.7c.908.476,3.208,1.752,4.067,2.311,3.738,2.434,7.245,4.635,8.785,7.749a6.107,6.107,0,0,1,.179,4.45c-.47.954-1.6,2.1-4.07,1.909,1.094.867,1.28,2.986,1.079,4.676-.181,1.518-1.96,3.455-4.779,3.661,1.169,2.992-1.106,6.739-3.679,6.086-.837-.212-2.678-.833-4.389-1.187l-.254.274c-.9.973-1.474,4.147-1.752,5.444-.818,3.811-2.288,7.87-5.649,9.842-1.59.933-3.447,1.294-5.12,2.066-1.583.731-2.956,4.6-3.7,6.913l-1.619,6.974"/><path class="c" d="M59.12,170.142a40.632,40.632,0,0,1,4.015-7.78c.723-1.1,1.484-2.174,2.246-3.247.462-.651.926-1.3,1.386-1.954.248-.353.485-.717.743-1.063.292-.392-.291.3.136-.161a49.867,49.867,0,0,1,10.032-8.3c4.155-2.636,8.514-5.611,13.333-6.846a15.805,15.805,0,0,1,4.517-.49c.857.031,2.3.165,2.81.994a1.937,1.937,0,0,1-.071,1.824,6.816,6.816,0,0,1-1.97,1.021c-.924.451-1.861.873-2.8,1.29a51.542,51.542,0,0,0-9.419,5.027,104.232,104.232,0,0,0-8.442,7.141c-2.309,2.062,1.1,5.447,3.394,3.394a88.222,88.222,0,0,1,7.8-6.622,56.551,56.551,0,0,1,9.692-5.062c1.649-.739,3.69-1.427,5.025-2.681a6.088,6.088,0,0,0,1.761-4.561c-.064-3.953-3.344-6.166-6.983-6.516-6.607-.636-12.617,2.783-18.056,6.079a70.732,70.732,0,0,0-12.447,9.305,48.387,48.387,0,0,0-6.049,7.853,48.061,48.061,0,0,0-5.278,10.082,2.42,2.42,0,0,0,1.677,2.952,2.455,2.455,0,0,0,2.952-1.676Z"/><path class="c" d="M74.566,162.638a53.9,53.9,0,0,1,10.027-.966,22.871,22.871,0,0,1,4.228.258,12.831,12.831,0,0,1,3.861,1.693c3.043,1.714,6.331,3.636,8.7,6.242a4.45,4.45,0,0,1,1.443,3.58,3.573,3.573,0,0,1-.153.594c.064-.171.061-.191-.009-.058-.089.136-.066.117.067-.057a3.145,3.145,0,0,1-.324.329c.271-.154-.359.129-.387.137a3.845,3.845,0,0,1-1.212.055,2.424,2.424,0,0,0-1.7,4.1,1.811,1.811,0,0,1,.429,1.208,7.156,7.156,0,0,1,.006,1.076c-.012.193-.048.473-.036.441a3.142,3.142,0,0,1-2.4,1.515,2.47,2.47,0,0,0-2.4,2.4,2.415,2.415,0,0,0,2.4,2.4c2.868-.3,5.654-1.665,6.8-4.467.985-2.411.575-6.154-1.4-7.967l-1.7,4.1c3.672.172,6.61-2.076,6.8-5.83.2-3.795-2.284-6.778-5.095-9a60.982,60.982,0,0,0-8.82-5.716,18.231,18.231,0,0,0-9.1-1.824,61.03,61.03,0,0,0-11.3,1.137,2.424,2.424,0,0,0-1.676,2.952,2.45,2.45,0,0,0,2.952,1.677Z"/><path class="c" d="M102.015,174.773a55.442,55.442,0,0,0-9.751-5.591,43.509,43.509,0,0,0-11.983-2.789,2.414,2.414,0,0,0-2.4,2.4,2.458,2.458,0,0,0,2.4,2.4,37.354,37.354,0,0,1,10.285,2.443,53.43,53.43,0,0,1,9.026,5.281,2.423,2.423,0,0,0,3.284-.861,2.448,2.448,0,0,0-.861-3.283Z"/><path class="c" d="M98.314,183.11a59.277,59.277,0,0,0-6.939-4.215,29.251,29.251,0,0,0-9.483-2.441,2.409,2.409,0,0,0-2.4,2.4,2.464,2.464,0,0,0,2.4,2.4c.313.029.625.061.938.1-.427-.051.506.078.591.092q1.045.176,2.074.433a21.48,21.48,0,0,1,3.936,1.386,66.186,66.186,0,0,1,6.46,3.992,2.423,2.423,0,0,0,3.284-.861,2.451,2.451,0,0,0-.861-3.284Z"/><path class="c" d="M87.247,191.968c.238-.268-.216.146-.277.191a.793.793,0,0,1,.131-.072c-.023.011-.515.157-.388.169a.845.845,0,0,0,.253-.062c.147-.074-.4.053-.406.052a1.812,1.812,0,0,0,.253-.017,5.738,5.738,0,0,1,.73.022c.122.01.245.033.367.038.036,0-.58-.094-.321-.041.085.018.173.028.259.042a31.145,31.145,0,0,1,3.506.879,7.324,7.324,0,0,0,3.835.428,5.956,5.956,0,0,0,3.726-3.11,7.517,7.517,0,0,0,.5-5.943,2.4,2.4,0,0,0-4.629,1.276c.106.286.126.647.251.915,0-.008-.038-.509-.038-.25,0,.076.011.155.014.232.006.181,0,.36-.011.541a.829.829,0,0,0-.021.229c-.014-.028.107-.489.027-.26-.049.139-.064.3-.1.442s-.1.284-.14.428c-.061.237.08-.222.1-.231-.041.018-.106.219-.129.263-.068.127-.14.252-.219.373-.038.059-.085.115-.12.176-.117.206.149-.2.162-.209-.08.024-.213.237-.278.3a1.59,1.59,0,0,0-.148.136c-.155.19.391-.239.175-.133a1.793,1.793,0,0,0-.328.2c-.158.133.261-.11.288-.112a1.367,1.367,0,0,0-.177.06c-.1.026-.543.112-.1.046.475-.071-.1-.053-.181-.031.167-.047.554.111.187,0-.075-.022-.15-.04-.226-.061-.2-.056-.4-.115-.6-.174-.506-.149-1.011-.3-1.519-.442a24.429,24.429,0,0,0-3.805-.777,4.6,4.6,0,0,0-4,1.092,2.4,2.4,0,1,0,3.394,3.394Z"/><path class="c" d="M74.87,215.258a30.545,30.545,0,0,1,1.225-3.319,11.772,11.772,0,0,1,.848-1.591c.343-.52-.082.01.3-.4s-.216.053.228-.167c1.391-.69,2.962-1,4.369-1.673a10.755,10.755,0,0,0,3.478-2.669,18.83,18.83,0,0,0,3.7-7.608c.272-1.047.464-2.111.7-3.165.141-.614.293-1.227.486-1.827.021-.068.258-.707.167-.5.049-.11.429-.674.1-.282a2.468,2.468,0,0,0,0-3.394,2.419,2.419,0,0,0-3.394,0c-1.592,1.927-1.914,4.486-2.446,6.85-.559,2.487-1.343,5.181-3.181,7.045-2.1,2.131-5.567,1.866-7.609,4-1.888,1.975-2.779,4.889-3.606,7.429-.958,2.945,3.675,4.206,4.628,1.276Z"/><path class="c" d="M46.912,211.164a88.04,88.04,0,0,0,6.309-9.947,14.737,14.737,0,0,0,1.737-4.428c.385-1.852.589-3.739.87-5.607.6-4.024,1.249-7.991,1.539-12.054a33.533,33.533,0,0,1,1.753-8.986c1-2.93-3.635-4.188-4.629-1.276a37.838,37.838,0,0,0-1.864,9.44c-.287,3.769-.787,7.437-1.363,11.172-.293,1.905-.5,3.827-.871,5.719A10.147,10.147,0,0,1,49,198.922a87.433,87.433,0,0,1-6.236,9.82,2.412,2.412,0,0,0,.861,3.283,2.459,2.459,0,0,0,3.283-.861Z"/><path class="c" d="M27.025,237.524q3.86-7.461,7.742-14.91,1.792-3.438,3.6-6.869.745-1.417,1.494-2.833a14.987,14.987,0,0,0,.818-1.543c.2-.522.177-.166-.043-.257,1.263.519,2.81,1.405,4.173,2.044q2.779,1.3,5.583,2.556c4.081,1.836,8.18,3.632,12.271,5.444,3.7,1.638,7.4,3.274,11.051,5.012.161.077.325.152.485.232l.236.113q.489.336.19.043c-.182-.019-.094-.2-.1-.284a3.994,3.994,0,0,1,0,.609,10.338,10.338,0,0,1-.714,2.36c-.639,1.794-1.329,3.57-2.039,5.336-2.842,7.064-6,14.01-9.254,20.891-3.535,7.464-7.485,14.949-12.722,21.376-3.023,3.709-6.515,7.107-10.985,8.983a33.025,33.025,0,0,1-14.432,2.732,15.186,15.186,0,0,1-10.824-4.953,26.576,26.576,0,0,1-4.783-8.8c-2.379-6.743-3.229-13.922-3.674-21-1.115-17.762.467-36.229,5.574-53.316q.878-2.939,1.938-5.818a2.42,2.42,0,0,0-1.676-2.952A2.45,2.45,0,0,0,7.981,193.4,128.735,128.735,0,0,0,1.54,221.046,172.324,172.324,0,0,0,.109,250c.294,8.071,1.06,16.36,3.394,24.126,2.372,7.891,6.794,15.7,15.128,18.274,5.295,1.634,11.168,1.129,16.455-.264A32.012,32.012,0,0,0,49.2,284.565c7.164-6.736,12.227-15.86,16.477-24.625Q70.69,249.61,75.109,239c.809-1.935,1.6-3.879,2.351-5.837a23.908,23.908,0,0,0,1.83-5.954c.269-2.618-1.168-4.239-3.4-5.3-1.868-.885-3.75-1.741-5.635-2.59-8.292-3.732-16.692-7.243-24.887-11.188-1.889-.91-3.821-2.28-6.01-1.637-2.562.754-3.555,3.834-4.683,5.974q-3.931,7.46-7.808,14.949-2,3.843-3.983,7.688c-1.417,2.74,2.723,5.171,4.144,2.423Z"/><path class="c" d="M98.85,126.477c.478-.3.967-.584,1.472-.839.24-.121.483-.235.728-.345q.228-.1-.026.008.225-.092.453-.176a16.168,16.168,0,0,1,1.927-.59q.378-.09.762-.162c.172-.031.344-.06.518-.086-.2.031-.151.028.151-.007a39.132,39.132,0,0,1,3.935-.113c.543.016,1.087.047,1.628.1.14.013.279.028.418.044q-.462-.066-.061-.007c.222.041.443.079.663.129a2.4,2.4,0,0,0,1.276-4.629,25.373,25.373,0,0,0-8.124-.3,19.022,19.022,0,0,0-8.143,2.826,2.4,2.4,0,1,0,2.423,4.145Z"/><path class="c" d="M103,101.4c.268.807.518,1.62.757,2.436a18.056,18.056,0,0,1,.655,2.6l-.085-.638a2.307,2.307,0,0,1,0,.512l.086-.638a1.651,1.651,0,0,1-.059.23l.242-.573a1.115,1.115,0,0,1-.112.2l.375-.485a.709.709,0,0,1-.108.111l.486-.375a3.038,3.038,0,0,1-.563.32l.573-.242a2.615,2.615,0,0,1-.6.166l.638-.086a6.281,6.281,0,0,1-1.13-.063,2.4,2.4,0,0,0-2.4,2.4,2.458,2.458,0,0,0,2.4,2.4,8.68,8.68,0,0,0,.938.078,4.962,4.962,0,0,0,2.3-.653,3.271,3.271,0,0,0,1.653-2.151,5.192,5.192,0,0,0-.1-2.3c-.367-1.523-.817-3.027-1.312-4.514a2.539,2.539,0,0,0-1.1-1.434A2.4,2.4,0,0,0,103,101.4Z"/><path class="c" d="M76.684,87.526c-.622,2.609.273,8.46,5.152,8.647,6.4-.454,6.282-7.59,3.909-10.8C83.8,82.753,78.537,81.951,76.684,87.526Z"/><path class="c" d="M127.764,84.213c.954,2.507.822,8.424-3.991,9.239-6.408.377-7.21-6.715-5.271-10.2C120.089,80.4,125.206,78.923,127.764,84.213Z"/></svg>