<?xml version="1.0" encoding="utf-8"?>
<!-- Uploaded to: SVG Repo, www.svgrepo.com, Generator: SVG Repo Mixer Tools -->
<svg width="800px" height="800px" viewBox="0 -20.69 349.005 349.005" xmlns="http://www.w3.org/2000/svg"><defs><style>.a{fill:#ffffff;}.b{fill:#85807f;}.c{fill:#211715;}</style></defs><path class="a" d="M216.215,99.8q-.192-.843-.4-1.782c0-.007,1.847-3.025,2.614-4.743l.474-.929a13.038,13.038,0,0,0,6.292-1.652,17.715,17.715,0,0,0,6.484-8.061c1.558-3.363,2.146-8.965.582-12.181a6.113,6.113,0,0,0-5.168-3.363,6.772,6.772,0,0,0-4.858,1.207s5.813-31.638-42.732-35.075c-32.167-2.278-43.255,10.084-43.255,21.235a81.962,81.962,0,0,0,1.419,12.662c1.128,6.891,1.919,13.82,2.79,20.171,1.456,10.627,4.966,20.179,12.6,26.091a36.97,36.97,0,0,0,11.42,6.174c3.491,6.227,8.183,11.5,15.888,13.216,6,1.333,14.825,1.6,20.766-.354,9.02-2.966,18.719-8.157,24.5-15.969,0,0,.576-.778,1.427-1.923-2.805-1-6.095-2.879-7.138-4.157C218.511,108.637,217.7,106.309,216.215,99.8Z"/><path class="b" d="M222.235,68.3a6.772,6.772,0,0,1,4.858-1.207,6.113,6.113,0,0,1,5.168,3.363l.689,1.414c2.4-5.4,2.822-14.63,2.946-19.11a63.792,63.792,0,0,0-2.364-15.747c-2.4-8.276-5.217-12.937-11.792-19.678-14.3-13.967-29.321-15.7-39.34-14.812C169.247,3.69,159.434,6.89,151.223,15.177l-6.588,7.541c-4.727,6.031-6.848,12.974-7.915,20.587a76.476,76.476,0,0,0,.309,20.03l5.506-4.639c5.437-4.973,14.961-12.4,21.512-15.141.768-.32,1.705.209,1.948,1.361.492,2.331-.675,5.564,1.134,5.015,3.132-.952,12.668-6.494,19.977-8.894a73.654,73.654,0,0,1,7.079,2.487,26.046,26.046,0,0,1,6.377,4.7c5.6,5.249,8.421,11.365,12.015,20.488a2.33,2.33,0,0,0,3.78.573Z"/><path class="a" d="M194.56,304.8a5.636,5.636,0,0,0,3.206-6.887c-2.98-9.531-7.54-24.073-12.153-38.761l62.8,10.517,5.438,9.058c-7.418,3.408-46.542,20.792-58.625,25.833"/><path class="a" d="M188.3,253.105c-1.094,1.427-2.151,2.884-3.228,4.309,3.629,11.557,7.264,23.142,10.16,32.388q3.565-3.611,7.135-7.217l2.763-2.793c2.711-2.741,4.5-4.762,6.787-7.175-1.879,3.871-2.915,5.543-5.443,11.069-.464,1.015-.278,3.5,1,4.492,1.953,1.5,4.485-.183,5.1-.827,4.328-4.51,7.477-9.069,11.669-12.413a46.1,46.1,0,0,0,16.807-5.143c.667-.363,2.684-2.15,3.311-2.579a22.37,22.37,0,0,1,2.914-1.7c-2.817-9.161-7.918-18.977-13.538-23.951-4.341,3.67-10.414,2.656-15.837,1.792q-4.473-.714-8.981-1.174a25.069,25.069,0,0,0-4.749-.161,18.316,18.316,0,0,0-10.234,4.813A43.129,43.129,0,0,0,188.3,253.105Z"/><path class="a" d="M228.373,114.85q-.707-.183-1.413-.353c-5.534,8.906-16.079,14.713-25.829,17.919-5.941,1.954-14.766,1.687-20.766.354-8.115-1.8-12.887-7.561-16.436-14.22-14.137,5.957-22.669,8.659-29.049,12.709a23.859,23.859,0,0,0-7.22,6.94,48.735,48.735,0,0,0-4.17,11.17,379.724,379.724,0,0,0-6.29,45.21c-.255,7.019-.527,11.717,2.174,15.125,18.264.082,34.666.146,44.345.211a8.787,8.787,0,0,1,8.328,6.14c3.046,9.631,8.03,25.469,13.021,41.36,2.768-3.662,5.407-7.536,8.873-10.581a18.316,18.316,0,0,1,10.234-4.813,25.069,25.069,0,0,1,4.749.161q4.506.461,8.981,1.174c5.423.864,11.5,1.878,15.829-1.8,6.49,5.745,12.282,17.924,14.675,28.111,8.389-2.778,23.806-8.778,33.389-15.945,6.766-5.059,8.583-10.25,10.25-15.166.966-2.852,1.737-9.915,1.847-12.878.143-3.833-1.514-14.817-2.514-20.039-2.222-12.25-4.028-20.472-10.8-44.139-3.417-11.929-8.889-22.986-14.017-28.362-5.706-5.982-12.237-9.48-20.011-12.29C240.638,118.71,234.5,116.437,228.373,114.85Z"/><path class="a" d="M209.95,120.538h0C210,120.515,210,120.512,209.95,120.538Z"/><path class="c" d="M288.131,249.85q9.887,0,19.771-.024l31.024-.038q3.88-.006,7.761-.009c3.088,0,3.094-4.8,0-4.8q-10.14,0-20.28.024l-30.882.038q-3.7,0-7.394.009c-3.088,0-3.093,4.8,0,4.8Z"/><path class="c" d="M2.318,249.858c11.016,0,22.031-.047,33.046-.069q2.661-.006,5.323-.01c3.088,0,3.094-4.8,0-4.8-11.151,0-22.3.046-33.453.069q-2.459.006-4.916.01c-3.088,0-3.093,4.8,0,4.8Z"/><path class="c" d="M214.428,102.685c.791,3.264,1.59,6.919,3.9,9.5a15.114,15.114,0,0,0,4.272,2.978,23.789,23.789,0,0,0,5.589,2.2,2.4,2.4,0,0,0,1.276-4.629,16.936,16.936,0,0,1-2.435-.776c-.121-.048-.648-.275-.119-.044-.232-.1-.464-.2-.694-.31-.4-.187-.8-.383-1.194-.589a23.027,23.027,0,0,1-2.149-1.264c-.174-.118-.343-.241-.515-.362-.434-.3.408.35.029.022-.232-.2-.455-.4-.666-.623-.163-.171-.28-.5.086.13-.068-.116-.164-.223-.241-.334-.142-.207-.274-.42-.4-.638-.135-.237-.259-.481-.375-.728-.032-.068-.169-.266-.157-.346q.232.557.087.2c-.034-.086-.069-.173-.1-.26a43.476,43.476,0,0,1-1.564-5.4,2.424,2.424,0,0,0-2.953-1.676,2.451,2.451,0,0,0-1.676,2.952Z"/><path class="c" d="M162.848,121.537a31.118,31.118,0,0,0,9.192,10.273c4.1,2.756,8.909,3.734,13.748,4.189a42.234,42.234,0,0,0,14.984-.968,59.25,59.25,0,0,0,13.828-5.985,43.639,43.639,0,0,0,13.107-11.388,2.417,2.417,0,0,0-.861-3.284,2.459,2.459,0,0,0-3.284.861c-5.4,7.2-13.986,11.774-22.346,14.625a35,35,0,0,1-13.061,1.506c-4.075-.2-8.384-.717-12.02-2.688-4-2.169-6.863-5.7-9.143-9.564-1.568-2.659-5.719-.246-4.144,2.423Z"/><path class="c" d="M225.432,116.6a128.451,128.451,0,0,1,13.064,3.907c3.953,1.376,7.972,2.7,11.8,4.391,6.434,2.842,12.668,6.906,16.835,12.683,4.577,6.346,7.708,13.78,10.1,21.188,2.423,7.5,4.41,15.19,6.4,22.819,2.517,9.646,4.63,19.4,6.226,29.241.88,5.423,1.95,11.076,1.529,16.587-.444,5.8-1.386,11.566-4.211,16.726-3.494,6.381-10.066,10.216-16.307,13.515a149.389,149.389,0,0,1-19.324,8.39q-1.881.676-3.778,1.307c-2.917.969-1.667,5.606,1.276,4.628a172.969,172.969,0,0,0,19.134-7.633c6.929-3.261,14.513-7.073,19.666-12.889,4.323-4.878,6.695-11.238,7.617-17.623a58.4,58.4,0,0,0,.838-8.918,74.148,74.148,0,0,0-.855-8.884,288.111,288.111,0,0,0-6.118-31.559c-1.78-7.126-3.758-14.2-5.769-21.266-2.4-8.416-5.358-16.743-9.839-24.3a43.1,43.1,0,0,0-15.689-15.476,70.084,70.084,0,0,0-11.29-5.06c-4.431-1.605-8.86-3.225-13.37-4.6-2.2-.672-4.422-1.279-6.664-1.8-3.006-.7-4.288,3.927-1.276,4.628Z"/><path class="c" d="M236.969,234.245c4.926-2.089,9.661-4.524,14.473-6.855a2.413,2.413,0,0,0,.861-3.284,2.463,2.463,0,0,0-3.284-.861c-4.812,2.331-9.546,4.766-14.473,6.855a2.4,2.4,0,0,0-.861,3.284,2.478,2.478,0,0,0,3.284.861Z"/><path class="c" d="M240.152,189.026l7.317,26.786c.813,2.976,5.445,1.713,4.629-1.276L244.78,187.75c-.813-2.976-5.445-1.713-4.628,1.276Z"/><path class="c" d="M231.607,240.186c-3.409,2.177-7.641,1.691-11.453,1.109-4.715-.72-9.536-1.661-14.317-1.727-9.748-.136-16.147,7.637-21.445,14.767a2.416,2.416,0,0,0,.861,3.283,2.457,2.457,0,0,0,3.284-.861c2.5-3.367,5.095-6.93,8.553-9.387a16.561,16.561,0,0,1,5.311-2.607,17.514,17.514,0,0,1,6.286-.205c4.453.442,8.844,1.278,13.286,1.789,4.128.475,8.457.282,12.057-2.016,2.6-1.657.191-5.814-2.423-4.145Z"/><path class="c" d="M194.549,257.661l-7.34,7.277a2.4,2.4,0,0,0,3.394,3.394l7.34-7.277a2.4,2.4,0,0,0-3.394-3.394Z"/><path class="c" d="M195.228,278.544c3.7-4.326,7.756-8.348,11.8-12.348a2.4,2.4,0,0,0-3.394-3.394c-4.048,4-8.1,8.022-11.8,12.347a2.4,2.4,0,0,0,3.394,3.395Z"/><path class="c" d="M200.59,287.791c2.726-2.756,5.486-5.482,8.161-8.287,2.363-2.479,4.654-5.024,7.06-7.462a2.4,2.4,0,0,0-3.394-3.394c-2.407,2.438-4.7,4.983-7.06,7.462-2.675,2.805-5.435,5.531-8.161,8.287a2.4,2.4,0,0,0,3.394,3.394Z"/><path class="c" d="M224.505,277.309a52.413,52.413,0,0,0,14.246-3.739,22.1,22.1,0,0,0,5.34-3.072c.33-.267.656-.538.983-.806q.242-.2.484-.393c.309-.246-.269.19-.039.031a25.764,25.764,0,0,1,2.99-1.752,2.4,2.4,0,0,0-2.422-4.144,24.915,24.915,0,0,0-4.619,3.038,16.934,16.934,0,0,1-1.429,1.129,22.087,22.087,0,0,1-2.929,1.481,44.384,44.384,0,0,1-12.605,3.427,2.478,2.478,0,0,0-2.4,2.4,2.415,2.415,0,0,0,2.4,2.4Z"/><path class="c" d="M231.17,242.533c3.867,2.885,6.682,7.51,8.922,11.766a68.468,68.468,0,0,1,6,16c.716,3,5.345,1.732,4.628-1.276a73.491,73.491,0,0,0-6.673-17.505c-2.641-4.942-5.923-9.752-10.457-13.134a2.415,2.415,0,0,0-3.284.861,2.457,2.457,0,0,0,.861,3.283Z"/><path class="c" d="M209.122,272.866c-.981,1.958-2,3.9-2.96,5.866a40.545,40.545,0,0,0-2.032,4.384,6.955,6.955,0,0,0-.033,3.9,5.48,5.48,0,0,0,7.5,3.708c2.884-1.146,4.785-3.929,6.747-6.209a61.246,61.246,0,0,1,7.526-7.816,2.416,2.416,0,0,0,0-3.394,2.456,2.456,0,0,0-3.394,0c-4.423,3.6-7.649,8.356-11.631,12.39-.062.063-.4.326-.136.131.288-.209-.312.184-.379.222-.113.064-.571.27-.219.133-.141.055-.713.219-.584.2a.585.585,0,0,1-.609-.11c.233.137-.134-.228.081.1a3.576,3.576,0,0,1-.211-.371c.112.221.045.153,0-.038-.05-.217-.116-.428-.153-.648.078.455.016-.172.008-.325,0-.1.02-.2.011-.3.005.053-.119.4-.026.178.032-.074.031-.171.057-.248.12-.352-.109.215.075-.177.532-1.13,1.055-2.264,1.6-3.386.942-1.932,1.943-3.834,2.906-5.756a2.459,2.459,0,0,0-.861-3.283,2.423,2.423,0,0,0-3.284.861Z"/><path class="c" d="M207.154,112.089a58.739,58.739,0,0,0,8.86-10.052,47.8,47.8,0,0,0,4.487-7.551,2.47,2.47,0,0,0-.861-3.283,2.418,2.418,0,0,0-3.283.861,47.523,47.523,0,0,1-4.327,7.32,53.569,53.569,0,0,1-8.27,9.311,2.4,2.4,0,0,0,3.394,3.394Z"/><path class="c" d="M142.938,21.021c-5.38,6.954-7.931,15.3-8.822,23.969A76.9,76.9,0,0,0,136,70.671c.728,3,5.358,1.73,4.628-1.276a73.585,73.585,0,0,1-1.776-23.7c.667-7.489,2.825-15.26,7.484-21.281a2.481,2.481,0,0,0,0-3.394,2.417,2.417,0,0,0-3.4,0Z"/><path class="c" d="M234.909,73.33c1.973-4.356,2.616-9.181,3.025-13.906a58.612,58.612,0,0,0-.023-12.5c-1.187-9.362-3.842-18.463-9.744-25.97A56.019,56.019,0,0,0,202.59,2.519C194.709-.171,186.511-.5,178.314.565a59.36,59.36,0,0,0-15.862,4.068,41.339,41.339,0,0,0-12.926,8.847c-2.187,2.187,1.206,5.582,3.394,3.394,6.2-6.2,13.988-9.532,22.537-11.057,7.539-1.344,15.189-1.586,22.574.343A50.089,50.089,0,0,1,222.2,21.321a38.781,38.781,0,0,1,6.919,10.335,53.763,53.763,0,0,1,3.515,12.276,54.765,54.765,0,0,1,.662,13.262c-.285,4.523-.644,9.537-2.536,13.713a2.472,2.472,0,0,0,.861,3.284,2.42,2.42,0,0,0,3.284-.861Z"/><path class="c" d="M195.572,113.272c-10.385,5.107-22.775,7.781-33.719,2.712a30.312,30.312,0,0,1-12.7-10.29,41.459,41.459,0,0,1-5.8-15.457c-1.436-7.609-2.036-15.381-3.247-23.03a2.417,2.417,0,0,0-2.952-1.677,2.46,2.46,0,0,0-1.677,2.953c1.16,7.325,1.8,14.738,3.069,22.044a46.32,46.32,0,0,0,6.169,17.136c6.731,10.5,19.506,16.376,31.811,15.805,7.581-.352,14.7-2.724,21.47-6.052a2.423,2.423,0,0,0,.861-3.283,2.45,2.45,0,0,0-3.284-.861Z"/><path class="c" d="M223.446,70.369a4.893,4.893,0,0,1,4.524-.646,3.194,3.194,0,0,1,2.071,1.657c1.363,2.523.8,6.283-.035,8.933a16.341,16.341,0,0,1-4.867,7.468c-1.918,1.609-5.446,2.977-8.022,1.878a2.481,2.481,0,0,0-3.284.861,2.416,2.416,0,0,0,.861,3.283,13.289,13.289,0,0,0,10.838-.573c3.121-1.45,5.6-4.428,7.228-7.391a22.121,22.121,0,0,0,2.8-9.722c.143-3.1-.4-6.573-2.664-8.872a9.616,9.616,0,0,0-11.874-1.021,2.467,2.467,0,0,0-.861,3.284,2.422,2.422,0,0,0,3.284.861Z"/><path class="c" d="M191.441,72.727c.712,2.139.393,7.1-3.679,7.619-5.4.089-5.818-5.9-4.066-8.754C185.13,69.252,189.48,68.194,191.441,72.727Z"/><path class="c" d="M158.966,72.528c.659,2.077.379,6.894-3.355,7.382-4.949.072-5.354-5.735-3.754-8.5C153.167,69.14,157.154,68.125,158.966,72.528Z"/><path class="c" d="M167.066,82.307c-.674,1.206-1.31,2.434-1.882,3.691a5.267,5.267,0,0,0-.6,2.136,3.132,3.132,0,0,0,1.151,2.47,4.42,4.42,0,0,0,1.931,1.026c.47.092.934.1,1.4.16a2.388,2.388,0,0,0,1.7-.7,2.4,2.4,0,0,0,0-3.394l-.485-.375a2.4,2.4,0,0,0-1.212-.328c-.211-.025-.424-.027-.635-.053l.638.086a2.239,2.239,0,0,1-.545-.151l.574.242a2.583,2.583,0,0,1-.458-.279l.486.375a2.758,2.758,0,0,1-.3-.273l.376.485a.63.63,0,0,1-.081-.128l.242.573a1.057,1.057,0,0,1-.061-.215l.085.638a1.528,1.528,0,0,1,.008-.317l-.085.638a2.8,2.8,0,0,1,.175-.572l-.242.573c.578-1.329,1.261-2.617,1.968-3.882a2.5,2.5,0,0,0,.242-1.849,2.4,2.4,0,0,0-4.387-.574Z"/><path class="c" d="M192.973,45.6a31.561,31.561,0,0,1,12.363,12.785,80.965,80.965,0,0,1,4.11,8.917c.672,1.667,1.125,3.474,2.778,4.447a4.854,4.854,0,0,0,5.345-.386,2.474,2.474,0,0,0,.861-3.284,2.418,2.418,0,0,0-3.284-.861c-.028.021-.713.341-.453.421.15.046-.051-.194-.131-.394-.164-.406-.324-.813-.488-1.219-.641-1.59-1.3-3.174-1.991-4.743a56.71,56.71,0,0,0-4.017-7.7A35.227,35.227,0,0,0,195.4,41.452c-2.722-1.46-5.149,2.682-2.423,4.145Z"/><path class="c" d="M144.232,60.393c5.819-5.3,12.266-10.5,19.355-14a9.59,9.59,0,0,0,1.127-.53c.6-.411-.239.038-.512-.039l-.534-.37.013.1a4.561,4.561,0,0,0,.048.962c0,.523-.038,1.045-.052,1.567-.052,1.906.522,3.989,2.725,4.265,1.427.18,2.935-.683,4.191-1.255,1.538-.7,3.05-1.459,4.566-2.206a101.08,101.08,0,0,1,12.608-5.544c2.917-.971,1.667-5.608-1.276-4.629a98.077,98.077,0,0,0-11.973,5.154c-1.706.833-3.4,1.686-5.116,2.5-.627.3-1.257.6-1.894.873-.448.194-.12.049-.027.011-.12.048-.24.1-.362.143a3.3,3.3,0,0,0-.331.121c-.074.026-.149.051-.225.074q-1.23.358,1.925,1.282c-.125-.013.062-.509-.012.012a4.5,4.5,0,0,0-.006-.52c0-.4.031-.8.044-1.2a9.457,9.457,0,0,0-.31-3.246,4.084,4.084,0,0,0-2.47-2.62,4.424,4.424,0,0,0-3.443.421,58.8,58.8,0,0,0-10.31,6.265A126.183,126.183,0,0,0,140.838,57c-2.288,2.086,1.115,5.472,3.394,3.394Z"/><path class="c" d="M195.86,306.872c7.83-3.27,15.592-6.7,23.358-10.121q13.451-5.918,26.866-11.912c3-1.339,5.993-2.674,8.974-4.043a2.418,2.418,0,0,0,.861-3.283,2.455,2.455,0,0,0-3.283-.861c-15.65,7.186-31.447,14.072-47.236,20.944q-3.173,1.381-6.351,2.749-1.328.57-2.658,1.136c-.2.084-1.359.575-.761.323l-1.046.439a2.48,2.48,0,0,0-1.676,2.952,2.415,2.415,0,0,0,2.952,1.677Z"/><path class="a" d="M37.551,209.075c30.788.512,101.072.672,126.168.84a8.787,8.787,0,0,1,8.328,6.14c5.972,18.886,19.4,61.641,25.719,81.855a5.633,5.633,0,0,1-5.4,7.317c-27.195-.1-100.463-.36-128.632-.93a5.621,5.621,0,0,1-5.264-3.963C52.916,282.37,38.652,237.1,32.08,216.423A5.639,5.639,0,0,1,37.551,209.075Z"/><path class="c" d="M37.551,211.475c14.38.238,28.762.331,43.143.423q25.2.164,50.4.257,10.6.047,21.2.1,4.14.02,8.28.044c3.068.018,6.221-.167,8.25,2.621a14.961,14.961,0,0,1,1.752,4.443q.708,2.239,1.414,4.479,1.686,5.345,3.369,10.692,3.911,12.424,7.813,24.851,3.846,12.245,7.685,24.491,1.62,5.164,3.236,10.329c.776,2.481,3.053,6.784-.324,8.328-1.138.52-2.6.294-3.829.289l-3.975-.014-9.171-.034q-10.962-.042-21.926-.092-24.94-.115-49.881-.3c-13.491-.1-26.983-.206-40.472-.469-1.5-.029-2.927-.386-3.616-1.89a31.941,31.941,0,0,1-1.2-3.821q-1.446-4.653-2.9-9.3-3.63-11.616-7.285-23.226-7.175-22.82-14.4-45.621c-.421-1.327-1.2-2.86-.773-4.241a3.289,3.289,0,0,1,3.211-2.334c3.086-.04,3.095-4.84,0-4.8a8.135,8.135,0,0,0-7.955,9.717,46.917,46.917,0,0,0,1.424,4.621q.786,2.478,1.571,4.956,3.755,11.855,7.491,23.714,7.405,23.495,14.747,47.008c1.1,3.547,1.849,7.463,5.562,9.211,2.807,1.321,6.541.858,9.591.905q10.267.162,20.537.249,25.368.246,50.736.355,22.467.117,44.935.194l4.052.015a13.22,13.22,0,0,0,5.08-.562,8.142,8.142,0,0,0,4.779-5.2c.652-2.148.116-4.154-.528-6.212q-3.467-11.084-6.945-22.163-7.822-24.933-15.674-49.858c-1.014-3.215-1.781-6.721-3.215-9.776-2.032-4.33-6.346-6.314-10.931-6.343q-8.968-.058-17.936-.093-24.9-.112-49.8-.233C78.886,207.1,62.694,207,46.5,206.8q-4.476-.054-8.952-.127C34.461,206.624,34.46,211.424,37.551,211.475Z"/><path class="c" d="M168.662,103.387a1.762,1.762,0,0,0,.271-.129c0,.047-.5.188-.14.064.2-.07.408-.146.617-.208a11.918,11.918,0,0,1,1.434-.331c.065-.011.468-.077.126-.024s.067-.006.133-.013q.366-.037.734-.059a15.551,15.551,0,0,1,1.572-.008c.243.012.486.029.728.053a1.38,1.38,0,0,0,.358.04c-.131.03-.439-.071-.111-.009a12.222,12.222,0,0,1,1.321.308c.2.063.4.137.6.211.427.157-.215-.108.057.023.122.06.248.112.371.171a17.107,17.107,0,0,1,1.62.879,2.4,2.4,0,0,0,2.423-4.145,15.266,15.266,0,0,0-7.367-2.331,14.861,14.861,0,0,0-7.17,1.363,2.414,2.414,0,0,0-.861,3.284,2.462,2.462,0,0,0,3.284.861Z"/><path class="c" d="M197.532,63.542c-.14-.009-.278-.022-.417-.039l.638.086a6.275,6.275,0,0,1-1.607-.442l.573.242a6.439,6.439,0,0,1-1.376-.813l.485.375a6.22,6.22,0,0,1-1.032-1.032l.375.486-.042-.055a2.677,2.677,0,0,0-1.434-1.1,2.454,2.454,0,0,0-1.85.242,2.425,2.425,0,0,0-1.1,1.434,2.315,2.315,0,0,0,.242,1.849,8.75,8.75,0,0,0,1.288,1.442,9.133,9.133,0,0,0,1.553,1.094,8.929,8.929,0,0,0,3.707,1.034,2.4,2.4,0,0,0,1.7-4.1,2.63,2.63,0,0,0-1.7-.7Z"/><path class="c" d="M147.532,122.625c-6.233,2.52-12.768,5.041-17.851,9.584-4.377,3.912-6.506,9.258-8.076,14.8-.8,2.817-1.223,5.762-1.744,8.639q-.9,4.974-1.68,9.97c-1.168,7.517-2.132,15.068-2.845,22.642a117.737,117.737,0,0,0-.685,12.676c.044,3.163.411,6.406,2.075,9.166,1.593,2.643,5.745.233,4.144-2.422a13.312,13.312,0,0,1-1.419-6.744,101.886,101.886,0,0,1,.466-10.26q.922-10.62,2.5-21.17,1.425-9.6,3.318-19.126a42.816,42.816,0,0,1,2.086-6.806,18.964,18.964,0,0,1,3.256-5.957c4.579-5.221,11.458-7.823,17.735-10.361a2.475,2.475,0,0,0,1.676-2.952,2.416,2.416,0,0,0-2.952-1.676Z"/><path class="a" d="M174.658,145.94a6.594,6.594,0,0,0-1.683-1.04l.975-2.464a5.071,5.071,0,0,0-1.093-4.725,5.251,5.251,0,0,0-3.648-1.479l1.055-2.206a5.793,5.793,0,0,0,0-3.974A5.138,5.138,0,0,0,169,128.3a6.317,6.317,0,0,0-3.292-.422,54.79,54.79,0,0,0-13.516,2.884,30.618,30.618,0,0,1,1.607-3.332c.831-1.416,2.342-2.182,3.737-2.959,2.65-1.48,5.365-3.087,7.9-4.758A3.3,3.3,0,0,0,166.486,115a3.538,3.538,0,0,0-2.491-1.82c-2.337-.566-5.328.351-8,1.415-2.64,1.054-6.552,2.481-8.681,4.471-2.544,2.374-3.545,5.557-4.716,8.665-.649,1.714-2.022,6.578-2.586,8.335l-.692,4.091a8.364,8.364,0,0,0,.15,3.482q2.557,9.874,5.09,19.762a70.493,70.493,0,0,1,1.757,8.239l.05,2.758c6.007.614,14.136,1.492,20.422,2.328.177-.973.311-1.727.328-1.882.18-1.479.34-3.959.4-5.439.076-1.913.069-4.973.053-7.937l.382.452a3.752,3.752,0,0,0,5.07,2.406,5.25,5.25,0,0,0,2.5-3.329,20.127,20.127,0,0,0,.6-4.451c.107-2.547.092-4.332.1-7.046A4.588,4.588,0,0,0,174.658,145.94Z"/><path class="c" d="M142.327,136.7c.881-2.771,1.588-5.6,2.587-8.335a29.909,29.909,0,0,1,2.449-5.593,9.906,9.906,0,0,1,3.94-3.537,46.8,46.8,0,0,1,5.032-2.211,17.408,17.408,0,0,1,5.994-1.618c1.064-.012,2.5.39,2.322,1.619-.051.348-.548.693-1,.989q-1.548,1.007-3.133,1.956c-2.108,1.271-4.434,2.323-6.421,3.776-2.044,1.494-2.974,3.556-3.975,5.8a2.475,2.475,0,0,0,.861,3.284,2.417,2.417,0,0,0,3.283-.861c.443-1,.862-2,1.394-2.954a5.064,5.064,0,0,1,2.115-1.932c2.387-1.385,4.8-2.712,7.137-4.185,2.2-1.386,4.422-2.86,4.532-5.729a6.427,6.427,0,0,0-3.139-5.663c-4.418-2.536-10.3.426-14.467,2.195a22.255,22.255,0,0,0-5.972,3.442,16.142,16.142,0,0,0-4.057,6.025c-1.7,3.985-2.8,8.135-4.107,12.253-.938,2.95,3.695,4.213,4.629,1.276Z"/><path class="c" d="M138.866,176.056c3.966.368,7.929.776,11.89,1.2,5.311.564,11.155,1.212,16.121,1.882,2.262.305,4.531.619,6.768,1.074l-1.762-2.314c-.284,4.19-.515,8.382-.932,12.562-.583,5.842-1.509,11.638-2.6,17.405a2.463,2.463,0,0,0,1.676,2.952,2.422,2.422,0,0,0,2.953-1.676c1.156-6.084,2.12-12.207,2.745-18.37.434-4.282.672-8.579.963-12.873a2.407,2.407,0,0,0-1.762-2.314c-4.68-.954-9.47-1.455-14.209-2.016-5.423-.642-10.853-1.22-16.286-1.766q-2.779-.279-5.56-.542a2.417,2.417,0,0,0-2.4,2.4,2.451,2.451,0,0,0,2.4,2.4Z"/><path class="c" d="M144.677,136.984a48.629,48.629,0,0,1,14.758-5.764,33.841,33.841,0,0,1,7.345-.979,9.1,9.1,0,0,0,1.159.165c-.3.049-.3-.377-.291-.091,0,.112.369.548.4.63a3.339,3.339,0,0,1-.1,2.443,2.415,2.415,0,0,0,1.676,2.952,2.462,2.462,0,0,0,2.953-1.676c1.124-2.734.216-6.8-2.369-8.436-2.528-1.595-6.5-.575-9.208-.152a53.267,53.267,0,0,0-18.748,6.764c-2.664,1.56-.251,5.711,2.423,4.144Z"/><path class="c" d="M152.526,142.26a58.548,58.548,0,0,1,13.4-3.4c1.435-.235,3.247-.531,4.527.038a2.459,2.459,0,0,1,1.184,2.9c-.993,2.932,3.642,4.191,4.628,1.276a7.364,7.364,0,0,0-1.71-7.06c-1.808-1.872-4.508-2.35-7.007-2.161a63.923,63.923,0,0,0-8.046,1.311,44.233,44.233,0,0,0-8.251,2.467,2.481,2.481,0,0,0-1.676,2.952,2.415,2.415,0,0,0,2.952,1.677Z"/><path class="c" d="M155.822,149.488c3.624-.787,7.254-1.546,10.909-2.184a14.107,14.107,0,0,1,4.361-.49,2.988,2.988,0,0,1,2.546,1.959,17.8,17.8,0,0,1,.175,4.763,43.68,43.68,0,0,1-.237,5.077c-.145,1.1-.4,2.6-1.24,3.323a1.291,1.291,0,0,1-2.064-.657,2.471,2.471,0,0,0-2.953-1.676,2.418,2.418,0,0,0-1.676,2.952,6.439,6.439,0,0,0,3.726,4.06A5.957,5.957,0,0,0,175,165.9c3.16-2.343,3.439-6.537,3.563-10.153.064-1.857.106-3.728.068-5.586a8.83,8.83,0,0,0-1.341-4.821,8.11,8.11,0,0,0-4.613-3.081,13.628,13.628,0,0,0-5.73.166c-4.156.7-8.282,1.545-12.4,2.439a2.4,2.4,0,1,0,1.276,4.628Z"/><path class="c" d="M169.187,176.927a55.716,55.716,0,0,0,.8-11.161c.014-3.571-.057-7.142-.018-10.713.033-3.09-4.767-3.092-4.8,0-.038,3.473.029,6.948.019,10.421a50.6,50.6,0,0,1-.626,10.177,2.458,2.458,0,0,0,1.677,2.952,2.424,2.424,0,0,0,2.952-1.676Z"/><path class="c" d="M142.254,132.841a11.217,11.217,0,0,0-5.231,7.025c-.649,3.575.91,7.393,1.79,10.815q1.41,5.484,2.82,10.969A94.337,94.337,0,0,1,144,172.275a2.415,2.415,0,0,0,2.952,1.677A2.465,2.465,0,0,0,148.632,171c-.889-6.49-2.949-12.877-4.578-19.211q-.612-2.383-1.226-4.767a37.348,37.348,0,0,1-1.126-4.6,5.648,5.648,0,0,1,2.974-5.439c2.6-1.647.2-5.8-2.422-4.144Z"/><path class="c" d="M282.845,96.638c3.163.925,6.738,1.788,9.97.655a8.525,8.525,0,0,0,5.579-5.943c1.45-6.747-7.276-10.054-12.472-10.849-1.434-.219-3.042-.509-4.4.177a3.573,3.573,0,0,0-1.895,4.187c.863,3.111,4.666,4.317,7.364,5.248,5.1,1.763,11.371,2.809,16.389.214a8.171,8.171,0,0,0,4.323-5.485,9.717,9.717,0,0,0-3.129-8.754c-2.207-2.1-5.029-3.437-7.733-4.77a45.4,45.4,0,0,0-7.886-3.188,29.279,29.279,0,0,0-7.94-1.021c-2.869.015-7.367.071-7.5,3.964-.111,3.166,2.968,4.959,5.373,6.258a64.289,64.289,0,0,0,7.7,3.548,60.464,60.464,0,0,0,16.321,3.413,14.42,14.42,0,0,0,8.312-1.345,8.692,8.692,0,0,0,4.633-6.984c.335-5.772-5.736-10.1-10.108-12.637a74.538,74.538,0,0,0-16.573-7.063c-4.272-1.226-10.253-2.7-14.356-.188-1.645,1.006-3.043,2.952-2.5,4.949a6.348,6.348,0,0,0,2.646,3.265c2.827,2.056,6.405,3.212,9.7,4.271a129.488,129.488,0,0,0,13.863,3.534A135.5,135.5,0,0,0,312.9,74.317c4.654.435,10.839-2.323,11.639-7.407.4-2.58-1.011-4.872-2.575-6.8a25.206,25.206,0,0,0-5.651-5.025,59.526,59.526,0,0,0-8.357-4.3,69.542,69.542,0,0,0-9.1-3.456,47.911,47.911,0,0,0-8.908-1.691,2.418,2.418,0,0,0-2.4,2.4,2.451,2.451,0,0,0,2.4,2.4,48.176,48.176,0,0,1,14.114,3.845c4.2,1.78,8.784,3.718,12.2,6.813a12.632,12.632,0,0,1,3.434,4.267,3.953,3.953,0,0,0,.164.65c-.078-.223,0-.026-.055.2a3.332,3.332,0,0,1-1.136,1.656c-2.67,2.286-6.1,1.676-9.282,1.247a138.055,138.055,0,0,1-23.015-5.039,36.758,36.758,0,0,1-7.772-3.14c-.245-.141-.486-.288-.722-.443-.072-.047-.67-.478-.379-.253s-.25-.22-.333-.3-.5-.586-.247-.24c.259.363-.066-.13-.111-.236,0-.009.227.619.136.29-.06-.216.048-.229.035.356.006-.3-.038-.425-.161.628a1.472,1.472,0,0,1,.212-.363c-.233.164.2-.146.2-.149a3.459,3.459,0,0,1,1.439-.506,12.406,12.406,0,0,1,2.279-.1,27.351,27.351,0,0,1,5.979,1.015,71.323,71.323,0,0,1,13.339,5.214c3.568,1.772,7.55,3.863,9.8,7.271,1.08,1.635,1.428,3.374-.121,4.873a6.893,6.893,0,0,1-4.687,1.646,48.319,48.319,0,0,1-13.219-2A54.206,54.206,0,0,1,280,72.459a7.017,7.017,0,0,1-1.053-.654c-.027-.022-.631-.679-.633-.679l0,.041a1.309,1.309,0,0,1-.461.9c.036.028.147-.034.178-.015a7.935,7.935,0,0,0,2.171-.128,24.971,24.971,0,0,1,6.118.495,44.236,44.236,0,0,1,12.111,5.121c1.88,1.071,3.817,2.421,4.483,4.589a3.116,3.116,0,0,1-1.178,3.6c-3.117,2.228-7.853,1.342-11.277.424a31.627,31.627,0,0,1-3.465-1.142q-.772-.306-1.519-.668c-.069-.034-1.3-.86-1.275-.866-.108.026-.152,1.122-.279,1.283-.513.649-.765.171-.235.286.445.1.94.078,1.394.151a20.515,20.515,0,0,1,3.753.987c1.51.547,4.35,1.576,4.86,3.314.442,1.5-1.231,2.86-2.485,3.276-2.268.752-4.895-.126-7.079-.764-2.971-.869-4.24,3.762-1.276,4.628Z"/></svg>