<?xml version="1.0" encoding="utf-8"?>
<!-- Uploaded to: SVG Repo, www.svgrepo.com, Generator: SVG Repo Mixer Tools -->
<svg width="800px" height="800px" viewBox="-63.58 0 322.04 322.04" xmlns="http://www.w3.org/2000/svg"><defs><style>.a{fill:#ffffff;}.b{fill:#ad7b59;}.c{fill:#211715;}.d{fill:#f4b3b3;}</style></defs><path class="a" d="M90.062,283.312c-.541,7.013-.86,15.862-.849,22.885-.851-.037-1.472-.061-1.472-.061-4.862.167-16.867,3.455-22.222,3.111-7.594-.489-18.674-6.239-19.778-9.111l-.532-1.543c6.284-2.947,15.372-10.54,19.132-16.129,1.979-2.941,4.2-6.539,6.514-10.483l.109.1c1.629,1.185,4.6,3.753,7.222,4.167,4.925.777,8.051.888,12.1,1.319l.314.043C90.4,279.281,90.223,281.214,90.062,283.312Z"/><path class="b" d="M147.615,165.171c14.369,4.13,25.761-9.386,25.037-19.208a48.13,48.13,0,0,0-4.1-16.253c-2.966-7.073-8.756-21.457-10.8-47.692.182-7.992-1.282-19.425-1.881-23.818-2.078-15.225-10.02-31.864-20.474-40.721-4.519-3.83-5.879-5.666-10.673-7.88l-5.373-2.483-2.626-.872A71.585,71.585,0,0,0,87.8,2.618C68.123,3.889,51.262,15.16,43.969,23.1c-12.1,13.178-18.82,36.257-15.779,67.285,1.366,21.075.621,36.389-1.24,45.183a101.305,101.305,0,0,0-1.7,21.967c.547,9.834,11.89,19.924,27.374,15.579,0,0,30.387,7.744,51.12,5.309C125.816,175.835,147.615,165.171,147.615,165.171Z"/><path class="a" d="M142.065,78.474l-3.716-4.192c-7.227-1.7-15.9-13.377-18.967-18.326-2.154-3.478-4.751-11.177-6.751-16.553C104.976,50.812,94.862,59.2,81.924,63.82c-3.073,1.135-.762-9-.509-13.729-7.8,8.72-22.676,23.41-30.679,30.869l-5.838,5.7a7.2,7.2,0,0,0-7.043-2.35,7.026,7.026,0,0,0-4.823,3.676,9.922,9.922,0,0,0-.78,4.053A29.765,29.765,0,0,0,36.3,107.588a18.924,18.924,0,0,0,5.294,6.09c1.842,1.283,4.462,2.713,7.614,1.416a54.272,54.272,0,0,0,6.6,13.389c2.354,2.461,4.51,4.727,4.51,4.727a49.018,49.018,0,0,0,15.958,11.562,61.043,61.043,0,0,1-.828,7.289c-.6,3.429-.413,6.493-5.179,8.215-.347.125-20.438,6.425-19.591,6.353,0,8.539,18.476,20.983,43.143,20.983,28.222,0,46.754-12.889,46.754-20.575l-.405-.167c-.482-.2-14-6.63-14.316-6.744-4.767-1.721-4.579-4.786-5.18-8.214a69.223,69.223,0,0,1-1.015-9.271c11.913-6.384,20.678-23.933,22.1-28.735.183-.7.535-1.947.859-3.443,2.142-.524,5.27-.627,6.908-2.116a18.914,18.914,0,0,0,4.467-6.72A29.762,29.762,0,0,0,156,85.691a9.91,9.91,0,0,0-1.3-3.919,7.022,7.022,0,0,0-5.255-3.025,7.414,7.414,0,0,0-5.513,1.84Z"/><path class="c" d="M145.321,82.565c2.007-1.945,5.611-1.984,7.313.418.962,1.358,1.1,3.336,1.218,4.943a27.756,27.756,0,0,1-.157,5.841A25.58,25.58,0,0,1,150.062,104a7.574,7.574,0,0,1-2.894,3.019,25.634,25.634,0,0,1-4.9,1.068c-3.021.634-1.743,5.262,1.276,4.628a42.59,42.59,0,0,0,4.567-.952,9.336,9.336,0,0,0,4.258-2.9,26,26,0,0,0,5.138-10.029,31.6,31.6,0,0,0,1.066-11.8c-.4-3.85-1.5-7.7-5.213-9.582a9.93,9.93,0,0,0-11.433,1.723c-2.222,2.154,1.174,5.546,3.394,3.394Z"/><path class="c" d="M140.923,103.992a28.359,28.359,0,0,1-1.755,10.109c-.151.421-.319.836-.485,1.252-.216.543.138-.291-.117.274-.124.274-.244.551-.369.824-.552,1.207-1.147,2.394-1.771,3.565a60.729,60.729,0,0,1-12.171,16.357A24.493,24.493,0,0,1,115,141.991c-2.952.884-1.695,5.518,1.276,4.628,7.45-2.231,13.218-8.031,17.818-14.055a68.61,68.61,0,0,0,9.441-16.481,31.76,31.76,0,0,0,2.192-12.091c-.094-3.081-4.894-3.095-4.8,0Z"/><path class="c" d="M45.118,83.6a9.815,9.815,0,0,0-10.738-.442c-3.449,2.109-4.537,5.688-4.534,9.546.007,7.481,2.74,15.762,8.161,21.091,3,2.945,7.049,5.025,11.3,3.819,2.967-.842,1.706-5.475-1.276-4.629-3.065.87-5.888-1.589-7.734-3.779a25.078,25.078,0,0,1-4.782-9.775,26.173,26.173,0,0,1-.836-5.414,10.63,10.63,0,0,1,.508-4.969c1.4-2.916,5.17-3.041,7.509-1.3a2.416,2.416,0,0,0,3.284-.861,2.457,2.457,0,0,0-.861-3.283Z"/><path class="c" d="M45.364,110.546a59.8,59.8,0,0,0,8.738,19.68,2.465,2.465,0,0,0,3.284.861,2.422,2.422,0,0,0,.861-3.284,55.986,55.986,0,0,1-8.255-18.533c-.763-2.991-5.394-1.723-4.628,1.276Z"/><path class="c" d="M110.523,40.608c2.187,5.929,4,12.335,7.49,17.66a64.745,64.745,0,0,0,11.275,13.376,21.113,21.113,0,0,0,8.423,4.952c3,.752,4.275-3.876,1.276-4.628-4.747-1.191-8.882-5.9-12.033-9.663a47.228,47.228,0,0,1-7.775-12.243c-1.454-3.533-2.7-7.147-4.027-10.73a2.464,2.464,0,0,0-2.952-1.676,2.42,2.42,0,0,0-1.677,2.952Z"/><path class="c" d="M110.531,38.231A61.968,61.968,0,0,1,94.549,54.692,58.072,58.072,0,0,1,84.29,60.345c-.866.367-1.746.709-2.632,1.027-.658.236-.485.083.074.168a1.6,1.6,0,0,1,.578.2c.046.027.683.687.476.431.228.282.135.355.022-.072-.139-.523-.014.247-.033-.21-.027-.64-.036-1.273,0-1.914.16-3.312.848-6.574,1.044-9.882a2.424,2.424,0,0,0-4.1-1.7C70.052,59.179,59.626,69.387,49.039,79.263c-2.263,2.112,1.137,5.5,3.395,3.394C63.02,72.781,73.446,62.573,83.112,51.788l-4.1-1.7c-.2,3.308-.884,6.57-1.044,9.882-.133,2.728.531,7.159,4.385,6.221a34.714,34.714,0,0,0,6.2-2.53,58.7,58.7,0,0,0,5.722-3.076,62.8,62.8,0,0,0,10.639-8.207,71.8,71.8,0,0,0,9.763-11.727c1.734-2.566-2.423-4.971-4.145-2.423Z"/><path class="c" d="M117.363,3.93A75.888,75.888,0,0,0,84.81.489,72.431,72.431,0,0,0,54.532,11.464a56.962,56.962,0,0,0-17.545,16.78,71.333,71.333,0,0,0-9.612,24.275c-2.622,12.426-2.8,25.266-1.585,37.87a2.467,2.467,0,0,0,2.4,2.4,2.417,2.417,0,0,0,2.4-2.4c-1.839-19.039-.86-40,8.873-56.994A48.916,48.916,0,0,1,53.983,17.6,69.862,69.862,0,0,1,81.258,5.842a70.309,70.309,0,0,1,34.829,2.716c2.94.971,4.2-3.663,1.276-4.628Z"/><path class="c" d="M160.152,82.018a130.226,130.226,0,0,0-1.022-16.895,112.859,112.859,0,0,0-2.342-14.79c-2.857-11.509-8.326-22.995-16.586-31.617-2.134-2.228-4.543-4.192-6.86-6.224a31.364,31.364,0,0,0-7.406-4.965,2.468,2.468,0,0,0-3.284.861,2.419,2.419,0,0,0,.861,3.283,26.012,26.012,0,0,1,6.057,3.885c2,1.732,4.055,3.442,5.963,5.276A53.977,53.977,0,0,1,145.2,33.793a73.36,73.36,0,0,1,6.5,16.049,70.019,70.019,0,0,1,1.8,8.609c.027.193.053.387.08.58.093.68-.069-.526.029.215q.081.618.161,1.237.211,1.644.4,3.288a135.188,135.188,0,0,1,1.176,18.247c-.061,3.09,4.739,3.09,4.8,0Z"/><path class="c" d="M25.79,90.389c.554,8.63.855,17.286.627,25.933a113.094,113.094,0,0,1-1.5,17.21,114.085,114.085,0,0,0-2.144,21.114,22.3,22.3,0,0,0,1.6,9.1,20.044,20.044,0,0,0,5.291,7.1c6.556,5.634,15.411,6.816,23.6,4.582,2.977-.813,1.713-5.444-1.276-4.629-6.226,1.7-13.083,1.173-18.336-2.859a16.077,16.077,0,0,1-4.961-6.234,15.1,15.1,0,0,1-.964-3.347c-.01-.067-.033-.237-.057-.558-.027-.341-.04-.683-.053-1.025-.032-.827-.044-1.654-.043-2.481a109.673,109.673,0,0,1,1.993-19.6,116.177,116.177,0,0,0,1.612-16.932c.308-9.125,0-18.267-.584-27.375a2.457,2.457,0,0,0-2.4-2.4,2.421,2.421,0,0,0-2.4,2.4Z"/><path class="c" d="M155.352,82.018c1.113,14.063,3.417,28.167,8.2,41.481,1.806,5.028,4.2,9.855,5.514,15.049a41.6,41.6,0,0,1,1.089,6.277,16.547,16.547,0,0,1-.027,3.954,17.806,17.806,0,0,1-3.432,7.546,17.312,17.312,0,0,1-18.443,6.532c-2.982-.827-4.254,3.8-1.277,4.629a21.749,21.749,0,0,0,20.628-5.094c4.7-4.282,7.947-10.662,7.392-17.116a50.359,50.359,0,0,0-3.03-13.449c-.84-2.239-1.815-4.427-2.683-6.657a124.054,124.054,0,0,1-4.771-15.128,172.942,172.942,0,0,1-4.361-28.024,2.46,2.46,0,0,0-2.4-2.4,2.419,2.419,0,0,0-2.4,2.4Z"/><path class="d" d="M19.825,288.879a61.616,61.616,0,0,1-6.766-14.34c-8.166-23.155-12.28-48.26-10.07-72.468,1.2-8.681,4.62-14.589,9.145-18.477,8.68-6.359,23.808-12.42,37.016-17.335a101.976,101.976,0,0,0,45.67,11.787c15.129.059,35.063-5.27,45.3-11.243.2-.128.7-.051,1.432.176,9.488,4.448,18.08,9,27.525,14.138,2.58,1.4,9.541,5.957,11.557,8.125,3.958,3.306,6.682,9.348,8.3,15.111a66.674,66.674,0,0,1,1.5,10.556c2.732,28.229,3.369,68.162-2.853,88.767-1.251,4.141-7.108,11.992-19.917,13.814-27.546,3.918-59.19,1.439-77.4.642-1.679-.373-1.143-27.934.358-40.544l-.319-.022c-4.052-.431-7.178-.542-12.1-1.319-2.62-.414-5.593-2.982-7.222-4.167l-.119-.08c-2.309,3.936-4.528,7.527-6.5,10.464-3.849,5.721-13.28,13.541-19.589,16.326-6.866,3.03-15.224.295-20.671-4.868A30.966,30.966,0,0,1,19.825,288.879Z"/><path class="c" d="M58.616,134.907c7.371,7.694,16.722,13.852,27.566,14.754a2.42,2.42,0,0,0,2.4-2.4,2.449,2.449,0,0,0-2.4-2.4c-9.519-.792-17.75-6.645-24.171-13.348-2.142-2.235-5.533,1.162-3.4,3.394Z"/><path class="c" d="M117.264,143.389A88.743,88.743,0,0,0,118.8,155.6a9.23,9.23,0,0,0,6.1,7.079c.95.377-.6-.3.075.023.254.123.513.238.768.358q1.21.567,2.418,1.139,3.274,1.547,6.545,3.1c1.489.705,2.965,1.461,4.481,2.107a2.48,2.48,0,0,0,3.283-.861,2.416,2.416,0,0,0-.861-3.284c-3.213-1.37-6.34-2.987-9.5-4.481-1.532-.725-3.059-1.466-4.6-2.168a17.275,17.275,0,0,1-2.321-1.1,3.277,3.277,0,0,1-1.5-2.081,38.635,38.635,0,0,1-.822-4.568,66.751,66.751,0,0,1-.8-7.477c-.16-3.074-4.961-3.093-4.8,0Z"/><path class="c" d="M50.717,169.273c6.152-2.261,12.5-4.06,18.747-6.041,3.168-1,5.742-2.692,6.9-5.924a22.407,22.407,0,0,0,.8-4.032c.382-2.381.72-4.756.9-7.162a2.421,2.421,0,0,0-2.4-2.4,2.446,2.446,0,0,0-2.4,2.4c-.146,1.982-.411,3.924-.726,5.886a25.531,25.531,0,0,1-.712,3.785,3.652,3.652,0,0,1-1.948,2.173,17.646,17.646,0,0,1-3.12,1.1c-5.768,1.827-11.628,3.5-17.308,5.585a2.466,2.466,0,0,0-1.677,2.952,2.421,2.421,0,0,0,2.953,1.677Z"/><path class="c" d="M155.144,209.439c-.707,7.418-.811,14.927-1.121,22.37-.273,6.56-.557,13.121-.793,19.683-.257,7.146-.212,14.3-.212,21.451,0,3.089,4.8,3.094,4.8,0,0-9.246.1-18.47.465-27.708.334-8.5.67-17,1.071-25.5.161-3.428.264-6.876.59-10.294a2.417,2.417,0,0,0-2.4-2.4,2.451,2.451,0,0,0-2.4,2.4Z"/><path class="c" d="M91.727,274.281q25.167.476,50.336.849,7.862.108,15.724.2c3.089.035,3.091-4.765,0-4.8q-25.737-.294-51.47-.773-7.294-.133-14.59-.272c-3.09-.059-3.09,4.741,0,4.8Z"/><path class="c" d="M188.022,214.909a392.348,392.348,0,0,1,1.584,57.592,154.621,154.621,0,0,1-2.984,25.219c-.373,1.7-.789,3.395-1.291,5.063-.068.227-.143.451-.215.676-.04.125-.094.246-.14.369-.123.329.263-.545.012-.035-.265.537-.532,1.065-.846,1.576a13.946,13.946,0,0,1-2.418,3.029,19.883,19.883,0,0,1-3.847,3.042,30.948,30.948,0,0,1-12.6,3.971c-5.421.695-10.871,1.144-16.328,1.428-10.672.555-21.37.479-32.047.122-4.74-.158-9.478-.375-14.215-.612q-3.164-.157-6.326-.322-1.425-.073-2.85-.143a11.075,11.075,0,0,0-2.829-.133l-.144-.006a2.221,2.221,0,0,1,1.314.636c-.146-.145-.041-.13.306.405-.073-.112-.273-.312.012.075.259.353.056.183.019-.011-.024-.13-.065-.258-.093-.387-.055-.253-.163-1.3-.079-.38-.038-.416-.094-.83-.129-1.246-.2-2.346-.242-4.708-.264-7.061-.058-6.3.132-12.6.478-18.893.161-2.942.36-5.883.643-8.816.113-1.165.24-2.328.392-3.488-.094.717.034-.224.055-.364q.045-.309.1-.617c.074-.453.154-.9.25-1.353.065-.307.135-.614.221-.917.118-.411.351-.915.043-.236a2.475,2.475,0,0,0-.861-3.284,2.421,2.421,0,0,0-3.284.861,18.066,18.066,0,0,0-1.211,5.1c-.381,2.78-.638,5.575-.843,8.374-.484,6.6-.731,13.233-.78,19.855-.021,2.764-.009,5.531.11,8.293a27.807,27.807,0,0,0,.58,5.652,3.462,3.462,0,0,0,1.455,2.228,5.052,5.052,0,0,0,2.44.414q1.518.069,3.035.146c4.468.222,8.935.463,13.4.668,10.654.489,21.323.79,31.988.568,5.71-.119,11.419-.386,17.111-.872,5.442-.465,11.174-.8,16.417-2.411,6.832-2.1,13.624-6.762,16.275-13.654a54.75,54.75,0,0,0,2.415-10.1c.776-4.406,1.316-8.855,1.719-13.309,1.8-19.868,1.233-40.026-.347-59.889q-.271-3.412-.6-6.821a2.466,2.466,0,0,0-2.4-2.4,2.417,2.417,0,0,0-2.4,2.4Z"/><path class="c" d="M90.289,275.166c-3.333-.35-6.684-.543-10-1.014a9.955,9.955,0,0,1-4.371-1.452c-1.308-.812-2.5-1.782-3.739-2.692a2.418,2.418,0,0,0-3.284.861,2.457,2.457,0,0,0,.861,3.284c1.279.939,2.508,1.944,3.866,2.77a13.633,13.633,0,0,0,5.391,1.857c3.748.532,7.517.791,11.28,1.186a2.416,2.416,0,0,0,2.4-2.4,2.454,2.454,0,0,0-2.4-2.4Z"/><path class="c" d="M43.669,301.347c.926,2.18,3.63,3.729,5.568,4.858A45.424,45.424,0,0,0,59,310.413a25.156,25.156,0,0,0,9.264,1.172,96.9,96.9,0,0,0,10.046-1.548,68.959,68.959,0,0,1,9.434-1.5c3.078-.13,3.094-4.93,0-4.8-5.85.246-11.656,2.048-17.408,2.824a21.466,21.466,0,0,1-7.7-.156,38.58,38.58,0,0,1-9.134-3.342,30.285,30.285,0,0,1-4.11-2.47c-.023-.016-.219-.161-.462-.37-.213-.182-.415-.374-.615-.57-.068-.066-.128-.14-.2-.206-.393-.374.142.251,0,.025a3.994,3.994,0,0,1-.3-.547,2.416,2.416,0,0,0-3.284-.861,2.465,2.465,0,0,0-.861,3.284Z"/><path class="c" d="M49.529,169.192a103.809,103.809,0,0,0,37.7,10.878c12.618,1.188,25.424-.77,37.516-4.4a96.216,96.216,0,0,0,9.144-3.219c1.378-.57,2.747-1.162,4.091-1.81q.912-.44,1.808-.912.394-.21.785-.426c.17-.094.338-.19.506-.286q-1.433.025-.4.206c3,.757,4.273-3.871,1.276-4.629a4.91,4.91,0,0,0-4.063.706c-1.1.6-2.225,1.158-3.364,1.681a77,77,0,0,1-7.38,2.887,116.1,116.1,0,0,1-17.844,4.488,89.036,89.036,0,0,1-38.112-2.036,95.15,95.15,0,0,1-19.241-7.274c-2.74-1.418-5.17,2.723-2.423,4.144Z"/><path class="c" d="M129.149,164.048c11.579,4.942,22.819,10.58,33.9,16.54a112.447,112.447,0,0,1,12.17,7.333,42.258,42.258,0,0,1,4.242,3.486,21.306,21.306,0,0,1,4.488,6.409c2.672,5.437,3.547,11.125,4.069,17.093a2.463,2.463,0,0,0,2.4,2.4,2.417,2.417,0,0,0,2.4-2.4c-.5-5.774-1.24-11.291-3.463-16.683a29.73,29.73,0,0,0-8.981-12.4,79.985,79.985,0,0,0-11.509-7.55c-5.646-3.061-11.315-6.083-17.053-8.967q-9.977-5.014-20.244-9.405a2.482,2.482,0,0,0-3.284.861,2.416,2.416,0,0,0,.861,3.283Z"/><path class="c" d="M5.3,202.709c1.05-7.347,3.937-14.462,10.344-18.627,7.1-4.614,15.006-8,22.834-11.152,4.774-1.922,9.592-3.731,14.421-5.509a2.464,2.464,0,0,0,1.676-2.952,2.42,2.42,0,0,0-2.952-1.676c-9.011,3.316-18.016,6.726-26.711,10.813a99.229,99.229,0,0,0-11.259,6.053,26.021,26.021,0,0,0-8.139,7.955A34.39,34.39,0,0,0,.675,201.433a2.481,2.481,0,0,0,1.676,2.952A2.418,2.418,0,0,0,5.3,202.709Z"/><path class="a" d="M62.92,207.582c1.967-2.83,9.77-14.056,9.981-17.734a5.325,5.325,0,0,0-1.372-1.854c-5.04-5.089-8.091-7.693-11.54-13.119-3.491-4.164-6.141-14.637-8.123-25.1a85.353,85.353,0,0,1-1-17.826,2.687,2.687,0,0,1,2.467-2.873s1.287-.128,2.719-.147a11.883,11.883,0,0,1-.151-4.981,3.1,3.1,0,0,1,2.285-2.447c1.651-.4,3.911.062,4.882,1.269a13.482,13.482,0,0,1,2.459,5.855l.388.878a3.348,3.348,0,0,1,2.315-1.482c4.216-.176,6.142,4.48,6.672,6.063,1.285,3.837,6.144,13.282,9.354,21.823a27.311,27.311,0,0,0,1.911,3.5,72.215,72.215,0,0,0,10.816,10.437c3.12,2.512,7.149,6.392,7.905,10.326a14.617,14.617,0,0,1-.687,6.522c-1.307,4.816-5.163,9.978-7.027,14.607-1.479,3.671-4.542,15.3-5.849,20.294"/><path class="c" d="M52.7,126.765c-5.161.76-4.312,7.005-4.279,10.759a85.913,85.913,0,0,0,1.923,16.861A98.554,98.554,0,0,0,54.37,169.25a40.348,40.348,0,0,0,6.039,10.387,60.382,60.382,0,0,0,4.958,5.6c.894.9,1.8,1.8,2.7,2.693.951.945,2.216,1.884,2.76,3.133l-.328-1.212c-.038.479.1-.436.019-.133-.037.133-.054.272-.093.405-.089.308-.183.612-.293.913-.074.2-.154.406-.237.606.1-.243.025-.067-.038.071q-.264.577-.548,1.145c-.9,1.793-1.922,3.523-2.976,5.228-1.741,2.82-3.6,5.567-5.488,8.287a2.423,2.423,0,0,0,.861,3.284,2.449,2.449,0,0,0,3.284-.861c2.44-3.511,4.838-7.063,6.973-10.769a33.144,33.144,0,0,0,2.931-6.095,4.959,4.959,0,0,0,.32-2.719c-.507-1.841-2.3-3.235-3.6-4.525-4.173-4.152-8.558-8.572-11.207-13.555a41.9,41.9,0,0,1-3.031-8.089c-1.057-3.653-1.9-7.368-2.649-11.094a73.467,73.467,0,0,1-1.5-13.216c-.044-2.261.034-4.518.033-6.778a2.843,2.843,0,0,1,.026-.391c-.131.942.234-.531-.02.111.123-.313-.165-.065.166-.246-.405.222.508-.03.533-.033a2.417,2.417,0,0,0,1.676-2.952,2.462,2.462,0,0,0-2.952-1.677Z"/><path class="c" d="M74.8,154.908c-2.168-6.8-3.918-13.734-5.875-20.594-.272-.954-1.171-2.83-.773-3.693-.181.391.363-.3.223-.18l-.052.046q.387-.2.01-.039c.037.029.273.034-.1-.023a3.574,3.574,0,0,1,2.1.689,5.556,5.556,0,0,1,1.3,1.58c.21.347.393.706.575,1.069.066.13.124.265.183.4-.22-.5.038.109.075.214.565,1.614,1.229,3.187,1.918,4.752,2.143,4.869,4.456,9.663,6.454,14.6,1.141,2.815,2.15,5.631,4.136,7.987a63.615,63.615,0,0,0,5.754,5.937c3.841,3.508,9.3,6.677,11.407,11.666,1.036,2.453.272,5.261-.529,7.673a44.3,44.3,0,0,1-3.621,7.387,48.628,48.628,0,0,0-3.518,7.349c-.68,1.926-1.251,3.893-1.818,5.855-1.282,4.44-2.466,8.909-3.636,13.38-.783,2.991,3.846,4.267,4.628,1.276,1.115-4.259,2.244-8.515,3.455-12.748.561-1.96,1.131-3.92,1.781-5.852a36.36,36.36,0,0,1,2.731-5.894c2.962-5.394,6.891-11.758,5.6-18.205-1.16-5.775-6.517-9.629-10.715-13.2a72.487,72.487,0,0,1-6.812-6.523,16.921,16.921,0,0,1-2.378-3.189,36.6,36.6,0,0,1-1.833-4.178c-2.155-5.318-4.628-10.492-6.938-15.742-1.439-3.267-2.372-7.188-5.527-9.551-1.849-1.386-4.551-2.084-6.71-1.017a5.673,5.673,0,0,0-2.867,6.41c.883,4,2.256,7.95,3.362,11.891,1.1,3.921,2.148,7.867,3.386,11.747.935,2.932,5.571,1.679,4.628-1.276Z"/><path class="c" d="M65.889,157.176a101.967,101.967,0,0,1-6.93-24.713c-.264-1.789-.574-3.588-.789-5.382a8.075,8.075,0,0,1-.029-2.112,2.744,2.744,0,0,1,.2-.83c-.153.277.17-.207.09-.147a2.567,2.567,0,0,1,2.936.479c1.113,1.234,1.472,3.253,1.842,4.8.72,3,5.349,1.731,4.628-1.276-.834-3.477-2.13-7.353-5.831-8.622-3.43-1.176-7.5.194-8.423,3.945a13.277,13.277,0,0,0-.011,5.269c.284,1.845.531,3.694.812,5.54a100.931,100.931,0,0,0,2.437,11.407A111.827,111.827,0,0,0,61.744,159.6a2.415,2.415,0,0,0,3.284.861,2.465,2.465,0,0,0,.861-3.284Z"/><path class="c" d="M.589,202.071c-2.111,23.542,1.576,47.465,9.028,69.817,3.326,9.979,7.449,20.9,16.738,26.823A22.254,22.254,0,0,0,40.6,302.328c4.677-.553,8.741-3.024,12.491-5.737a63.492,63.492,0,0,0,10.672-9.512,65.569,65.569,0,0,0,6.191-8.93c4.222-6.858,8.134-13.91,11.907-21.023,3.514-6.626,6.927-13.319,10.033-20.148,1.087-2.39,2.161-4.8,3.058-7.269.5-1.378,1.155-3.036.736-4.513-.6-2.117-2.944-3.636-4.617-4.828a96.213,96.213,0,0,0-8.392-5.186c-6.806-3.861-13.787-7.405-20.748-10.975q-2.049-1.05-4.092-2.11a2.465,2.465,0,0,0-3.284.861c-3.624,5.458-6.9,11.157-10.127,16.856S38,231.257,35.177,237.168a2.465,2.465,0,0,0,.861,3.283,2.421,2.421,0,0,0,3.284-.861c2.827-5.91,6.024-11.653,9.251-17.353s6.5-11.4,10.127-16.856l-3.284.861c6.266,3.261,12.583,6.424,18.807,9.765,3.288,1.765,6.559,3.565,9.755,5.49,1.28.772,2.549,1.563,3.786,2.4q.777.526,1.532,1.085c.1.075.2.152.3.229-.059-.045-.388-.311-.059-.041.214.174.428.348.636.53.312.275.589.578.886.868.414.4-.231-.333-.036-.057.251.358.139.382.021-.077.139.542,0-.807-.034-.11.035-.813.028-.206-.083.229a21.812,21.812,0,0,1-.71,2.16c-.173.467-.355.93-.541,1.392q-.137.34-.277.68c-.048.118-.1.236-.147.354a1.413,1.413,0,0,1-.067.159c-2.608,6.091-5.577,12.031-8.607,17.92-3.628,7.051-7.409,14.027-11.4,20.877-1.764,3.024-3.571,6.024-5.468,8.967a43.926,43.926,0,0,1-7.084,8.457,56.65,56.65,0,0,1-10.518,7.889,14.964,14.964,0,0,1-11.769,1.655c-9.7-2.636-14.826-12.044-18.109-20.805C8.387,255.332,4.137,232.7,4.878,210.323q.138-4.132.511-8.252a2.418,2.418,0,0,0-2.4-2.4,2.452,2.452,0,0,0-2.4,2.4Z"/><path class="c" d="M97.628,98.464q.4,1.215.76,2.446a18.236,18.236,0,0,1,.658,2.608l-.086-.638a2.265,2.265,0,0,1,0,.514l.086-.638a1.534,1.534,0,0,1-.059.231l.242-.573a1.2,1.2,0,0,1-.112.2l.375-.486a.722.722,0,0,1-.109.112l.486-.375a3.035,3.035,0,0,1-.566.321l.573-.242a2.576,2.576,0,0,1-.6.166l.638-.086a6.341,6.341,0,0,1-1.135-.063,2.4,2.4,0,0,0-2.4,2.4,2.458,2.458,0,0,0,2.4,2.4,8.771,8.771,0,0,0,.943.078,4.967,4.967,0,0,0,2.3-.654,3.274,3.274,0,0,0,1.657-2.154,5.21,5.21,0,0,0-.1-2.309c-.368-1.531-.82-3.042-1.316-4.535a2.542,2.542,0,0,0-1.1-1.435,2.4,2.4,0,0,0-3.526,2.711Z"/><path class="c" d="M70.307,86.561c-.639,2.681.279,8.694,5.292,8.887,6.579-.465,6.457-7.8,4.019-11.093C77.622,81.658,72.213,80.832,70.307,86.561Z"/><path class="c" d="M123.016,83.155c.978,2.577.842,8.658-4.105,9.494-6.584.386-7.407-6.9-5.414-10.483C115.13,79.234,120.388,77.719,123.016,83.155Z"/><path class="c" d="M94.714,124.271c-.3.386.28-.284.343-.348a8.617,8.617,0,0,1,.672-.61c-.319.26.389-.263.463-.31q.405-.258.832-.478.218-.113.438-.214.394-.179.108-.047c.232-.089.468-.172.705-.247q.481-.151.973-.261c.088-.02.976-.168.616-.124a14.407,14.407,0,0,1,2.208-.079c.277.009.555.025.832.047.184.014.367.032.549.052q-.278-.047.172.024a16,16,0,0,1,2.029.459c.31.093.613.2.916.311q.4.159.057.023c.132.06.262.124.39.19a2.458,2.458,0,0,0,3.284-.861,2.423,2.423,0,0,0-.861-3.283c-6.125-3.083-14.538-2.334-18.87,3.333a2.414,2.414,0,0,0,.861,3.284,2.46,2.46,0,0,0,3.283-.861Z"/><path class="c" d="M70.932,73.366a12.475,12.475,0,0,1-1.767,1.624l.485-.375A13.055,13.055,0,0,1,66.9,76.321l.573-.242a4.812,4.812,0,0,1-.479.175,2.5,2.5,0,0,0-1.434,1.1,2.453,2.453,0,0,0-.242,1.849,2.426,2.426,0,0,0,1.1,1.434,2.458,2.458,0,0,0,1.849.242,11.137,11.137,0,0,0,3.143-1.633,16.087,16.087,0,0,0,2.916-2.488,2.55,2.55,0,0,0,.7-1.7,2.4,2.4,0,0,0-2.4-2.4,2.392,2.392,0,0,0-1.7.7Z"/></svg>