<?xml version="1.0" encoding="utf-8"?>
<!-- Uploaded to: SVG Repo, www.svgrepo.com, Generator: SVG Repo Mixer Tools -->
<svg width="800px" height="800px" viewBox="-53.22 0 330.194 330.194" xmlns="http://www.w3.org/2000/svg"><defs><style>.a{fill:#ffffff;}.b{fill:#645d5c;}.c{fill:#211715;}</style></defs><path class="a" d="M68.38,170.854c2.768-.874,9.915-3.07,10.249-3.2,5.1-1.839,4.907-5.123,5.546-8.791.309-1.728.547-3.34.747-5.012a53.418,53.418,0,0,1-14.391-11.021A61.163,61.163,0,0,1,57.942,122.86c-.679.243-1.129.4-1.129.4-2.786.947-5.051-.425-6.867-1.691A19.778,19.778,0,0,1,44.4,115.2a31.134,31.134,0,0,1-4.237-16.265,10.4,10.4,0,0,1,.815-4.242,7.35,7.35,0,0,1,5.046-3.847,7.615,7.615,0,0,1,7.087,2.119l4.793-5.758c9.054-11.428,21.023-22.735,33.2-34.313.361,1.22,4.28,11.054,4.819,12.37,1.078-.979,13.907-11.607,18.628-15.46,5.667.314,10.632.583,10.632.583,6.224,1.433,12.3,5.826,17.784,11.715a71.951,71.951,0,0,1,11.412,17.63l3.328,7.393a7.775,7.775,0,0,1,6.071-2.2,7.349,7.349,0,0,1,5.5,3.163,10.4,10.4,0,0,1,1.356,4.1,31.134,31.134,0,0,1-2.1,16.676,19.791,19.791,0,0,1-4.672,7.034c-1.638,1.49-3.321,2.384-5.88,1.783l-1.2-.28c-.379,1.879-.832,3.469-1.051,4.316-1.522,5.135-11.061,24.2-23.943,30.5.175,2.269.48,4.533.864,6.787.62,3.51.423,6.647,5.31,8.407.216.088,6.9,3.245,11.15,5.261,0,0-10.894,20.616-40.029,20.616S68.38,170.854,68.38,170.854Z"/><path class="b" d="M40.091,71.654a76.59,76.59,0,0,1,.757-15.13c1.331-7.673,4.39-16.016,9.784-22.048-1.681-1.5-3.132-2.6-3.956-3.451-.618-.29,10.665-13.441,23.29-18.057A110.388,110.388,0,0,1,81.349,9.12c-.661-1.72-1.233-3.65-1.241-3.661,2.966-2.325,11.259-2.881,15.025-3.032,15.624-.627,36.952,5.451,43.325,17.605l7.123,5.046c6.972,2.468,14.73,12.586,17.483,19.754,4.258,11.033,5.93,29.764,3.314,40.8a7.457,7.457,0,0,0-2.593-.7,7.841,7.841,0,0,0-5.54,1.715l-3.859-6.91A71.951,71.951,0,0,0,142.974,62.1c-5.481-5.889-11.56-10.282-17.784-11.715L115.179,49.3C111.1,52.616,97.06,64.238,95.93,65.264c-.539-1.316-4.458-11.15-4.819-12.37-12.18,11.578-24.149,22.885-33.2,34.313l-4.369,6.3a7.459,7.459,0,0,0-7.511-2.657,7.071,7.071,0,0,0-1.889.7C41.786,88.154,40.413,79.942,40.091,71.654Z"/><path class="a" d="M207.2,211.186c-1.81-4.857-6.7-15.543-13.3-19.924-14.991-9.954-34.231-17.079-42.183-20.186l-1.456,1.2c-8,5.783-28.014,11.326-42.494,11.29-16.506-.041-30.592-4.3-40.77-13.205a2.282,2.282,0,0,0-2.327-.731C52.7,172.592,36.837,179.674,26.9,185.249c-7.866,4.414-12.458,10.6-15.84,20.129C5.126,224.9,2.908,242.62,2.414,262.765c-.213,8.7.964,24.843,2,33.487.756,6.291,2.156,12.607,5.205,18.162s7.912,10.315,13.954,12.226c4.094,1.3,8.483,1.239,12.77,1,15.992-.906,38.282-5.834,58.807-11.938l2,1.231c1.107.683,34.653,3.76,42.382,3.942,19.17.453,39.083,2.541,58.089-.739,7.98-1.387,16.684-3.917,21.142-13.3,3.263-6.867,2.651-16.71,2.286-26.484-.761-20.357-5.03-44.145-13.721-68.932"/><path class="a" d="M70.425,256.137A217.4,217.4,0,0,0,53.58,238.586a5.7,5.7,0,0,0-2.345-1.541,1.992,1.992,0,0,0-2.376,1.019,14.13,14.13,0,0,0-1.042,2.47q-.392-.346-.792-.7A14.476,14.476,0,0,0,42.2,237.01c-1.674-.518-3.917-.486-5.239.666-1.715,1.494-1.884,2.7-.915,4.761a9.463,9.463,0,0,0,1.836,2.443l-.393-.055a5.607,5.607,0,0,0-5.381,1.606,4.124,4.124,0,0,0-.639,4.356,16,16,0,0,0,3.543,4.646q1.45,1.45,2.881,2.928l-1.9.1a4.4,4.4,0,0,0-3.519,1.6,3.737,3.737,0,0,0-.606,3.705,11.008,11.008,0,0,0,2.069,3.331l7.147,8.917.226.3c9.882-1.372,27.685-4.647,30.851-5.362,2.224-.5,5.156-1.158,8.5-1.912L80.642,269Q75.779,262.38,70.425,256.137Z"/><path class="a" d="M148.039,295.5l-.094.015c-5.121.78-10.045-.5-14.67-2.722l-.312-.118c-2.689-8.177-6.387-18.706-8.821-26.426.483-.192.8-.32.8-.32,6.831-1.9,11.032-3.363,17.734-5.668,5.963-2.05,14.3-6.015,20.351-5.692a29.138,29.138,0,0,1,8.46,2.2c1.087.4,5.327,2.051,6.414,2.455l1.978.757c-1.7,14.87-3.471,28.4-4.429,32.907-.709.665-3.565,3.251-5.4,3.44-1.953.2-7.208-1.775-8.377-2.043C158.2,293.492,152.119,294.87,148.039,295.5Z"/><path class="c" d="M129.4,152.218a98.261,98.261,0,0,0,1.384,10.132,8.956,8.956,0,0,0,4.406,6.427c.309.172.628.32.952.462-.03-.012,1.363.566.67.265.2.087.4.185.6.278q1.355.633,2.707,1.273,3.9,1.839,7.8,3.688a2.467,2.467,0,0,0,3.284-.861,2.422,2.422,0,0,0-.861-3.284c-3.948-1.873-7.87-3.836-11.883-5.562a7.51,7.51,0,0,1-1.531-.837c-.138-.1-.141-.1-.01-.009-.119-.1-.235-.211-.346-.323s-.209-.22-.306-.336q.188.252.045.048c-.139-.208-.253-.426-.379-.642-.217-.371.042.246-.121-.3-.145-.482-.276-.96-.373-1.454a81.587,81.587,0,0,1-1.233-8.964,2.461,2.461,0,0,0-2.4-2.4,2.419,2.419,0,0,0-2.4,2.4Z"/><path class="c" d="M159.386,88.845c2.1-2.035,5.968-2.157,7.788.375a9.76,9.76,0,0,1,1.284,4.742,30.622,30.622,0,0,1-.016,5.792,27.4,27.4,0,0,1-3.19,10.434c-1.277,2.313-3.543,5.819-6.624,5.182-3.014-.623-4.3,4-1.276,4.629,8.248,1.7,13.015-7.73,14.828-14.327a33,33,0,0,0,1.056-11.932c-.4-3.982-1.466-7.936-5.234-9.982a10.267,10.267,0,0,0-12.01,1.693c-2.222,2.154,1.174,5.546,3.394,3.394Z"/><path class="c" d="M154.98,111.346a29.687,29.687,0,0,1-1.823,10.565c-.148.417-.314.826-.475,1.238-.2.512.138-.3-.146.349q-.2.457-.407.914c-.584,1.277-1.213,2.534-1.874,3.774a63.671,63.671,0,0,1-12.709,17.1,25.817,25.817,0,0,1-9.768,5.939c-2.952.884-1.7,5.518,1.276,4.629,7.852-2.351,13.906-8.51,18.732-14.869a71.039,71.039,0,0,0,9.739-17.1,33.085,33.085,0,0,0,2.255-12.54c-.1-3.082-4.9-3.095-4.8,0Z"/><path class="c" d="M53.572,90.188a10.185,10.185,0,0,0-10.844-.626C39.049,91.6,37.8,95.369,37.761,99.37c-.07,7.713,2.686,16.073,8.029,21.748,2.953,3.136,7.239,5.785,11.661,4.458,2.951-.885,1.694-5.519-1.276-4.628-3.133.939-6.3-2.179-8.049-4.45a28.8,28.8,0,0,1-5.546-15.824c-.062-1.706-.17-3.707.723-5.233,1.658-2.831,5.427-2.911,7.846-1.108a2.416,2.416,0,0,0,3.284-.861,2.458,2.458,0,0,0-.861-3.284Z"/><path class="c" d="M53.951,118.6C58.468,133.71,68.661,147.831,82.7,155.4a37.714,37.714,0,0,0,12.422,4.247,2.48,2.48,0,0,0,2.952-1.676,2.418,2.418,0,0,0-1.676-2.952c-7.293-1.058-13.876-4.638-19.435-9.383a59.328,59.328,0,0,1-14.5-18.477,60.106,60.106,0,0,1-3.885-9.83c-.883-2.952-5.517-1.695-4.629,1.276Z"/><path class="c" d="M113.482,47.6c-3.6,2.923-7.164,5.884-10.732,8.842-2.845,2.358-5.77,4.652-8.517,7.124l4.011,1.059c-1.661-4.067-3.527-8.17-4.819-12.37A2.427,2.427,0,0,0,89.414,51.2c-11.521,10.951-23.289,21.84-33.2,34.313a2.475,2.475,0,0,0,0,3.394,2.417,2.417,0,0,0,3.394,0c9.914-12.473,21.682-23.362,33.2-34.313L88.8,53.532c1.292,4.2,3.158,8.3,4.819,12.37a2.438,2.438,0,0,0,4.011,1.059c2.747-2.472,5.672-4.766,8.517-7.123,3.568-2.958,7.135-5.919,10.732-8.843a2.416,2.416,0,0,0,0-3.394,2.456,2.456,0,0,0-3.394,0Z"/><path class="c" d="M124.552,52.7c6.69,1.6,12.259,6.245,16.823,11.2a64.947,64.947,0,0,1,10.939,17.039,2.419,2.419,0,0,0,3.284.861,2.459,2.459,0,0,0,.861-3.284,68.326,68.326,0,0,0-11.946-18.286c-5.072-5.417-11.332-10.4-18.685-12.162-3-.719-4.284,3.908-1.276,4.628Z"/><path class="c" d="M48.935,32.779C37.42,45.833,36.167,64.961,38.594,81.439a32.467,32.467,0,0,0,2.957,10.466c1.441,2.734,5.586.311,4.144-2.422-.131-.25-.255-.5-.374-.757-.03-.064-.176-.415-.026-.051-.06-.146-.118-.294-.172-.441-.234-.645-.45-1.294-.638-1.954a44.155,44.155,0,0,1-1.032-4.662,78.283,78.283,0,0,1-.991-10.82c-.231-7.646.388-14.948,2.891-22.2a36.9,36.9,0,0,1,6.976-12.425c2.036-2.309-1.346-5.716-3.394-3.394Z"/><path class="c" d="M80.711,6.806a95.873,95.873,0,0,0-11.555,3.912,46.349,46.349,0,0,0-9.607,5.009A65.3,65.3,0,0,0,46.457,27.178c-1.09,1.271-3.526,3.914-1.478,5.544a2.476,2.476,0,0,0,3.394,0,2.416,2.416,0,0,0,0-3.394l.354.457L49.054,31c.021.221-.482,1.206-.187.858.15-.176.276-.4.409-.595.23-.332-.319.383-.029.039.106-.125.207-.254.312-.38.267-.322.542-.636.82-.948a62.474,62.474,0,0,1,4.91-4.868c4.4-3.934,9.42-7.583,14.971-9.692a94.18,94.18,0,0,1,11.727-3.975c3.005-.707,1.733-5.336-1.276-4.629Z"/><path class="c" d="M140.531,18.82c-4.168-7.8-12.729-12.342-20.783-15.107A69.406,69.406,0,0,0,92.822.148a62.931,62.931,0,0,0-7.473.892A15.609,15.609,0,0,0,78.9,3.387a2.474,2.474,0,0,0-.861,3.283,2.416,2.416,0,0,0,3.283.861c2.695-2.013,7.154-2.252,10.605-2.518a66.819,66.819,0,0,1,11.859.1c8.333.838,16.922,3.168,24.083,7.607a23.177,23.177,0,0,1,8.52,8.522c1.457,2.725,5.6.3,4.145-2.423Z"/><path class="c" d="M144.943,27.392c3.636,1.337,6.767,4.543,9.264,7.5a38.327,38.327,0,0,1,6.543,10.58c3.155,8.137,4.306,17.2,4.464,25.879a55.854,55.854,0,0,1-1.15,13.642c-.7,3.006,3.928,4.289,4.628,1.276,2.152-9.261,1.558-19.228.1-28.544a67,67,0,0,0-3.249-13.1,44.593,44.593,0,0,0-7.093-12.1c-3.243-4.071-7.267-7.94-12.23-9.764a2.421,2.421,0,0,0-2.952,1.676,2.451,2.451,0,0,0,1.676,2.952Z"/><path class="c" d="M65.3,172.059c19.168,16.634,47.613,16.414,70.642,9.24,5.345-1.665,10.939-3.67,15.531-6.95a2.467,2.467,0,0,0,.861-3.284,2.419,2.419,0,0,0-3.283-.861,47.129,47.129,0,0,1-12.614,5.9,105.664,105.664,0,0,1-17.005,4.113,73.658,73.658,0,0,1-35.049-2.658,47.4,47.4,0,0,1-15.688-8.89c-2.324-2.016-5.733,1.365-3.395,3.394Z"/><path class="c" d="M69.018,173.168c3.168-1,6.347-1.963,9.515-2.961a13.009,13.009,0,0,0,4.648-2.423,9.059,9.059,0,0,0,2.789-5.095c.546-2.618.9-5.314,1.244-7.964a2.412,2.412,0,0,0-2.4-2.4,2.461,2.461,0,0,0-2.4,2.4c-.039.3-.153,1.082-.227,1.557-.1.65-.215,1.3-.327,1.945-.142.827-.246,1.659-.388,2.485-.129.757-.367,1.462-.55,2.2-.078.314.206-.383.046-.1-.042.073-.073.155-.111.231-.078.153-.162.3-.253.451-.124.2-.292.4-.032.089a7.131,7.131,0,0,1-.5.545,5.56,5.56,0,0,1-.44.387c.355-.28-.171.093-.3.169-.2.12-.4.232-.607.337-.11.055-.22.109-.331.161.227-.106-.086.038-.15.062-.344.131-.695.239-1.046.35-1.428.449-2.858.89-4.288,1.333-1.725.535-3.451,1.068-5.174,1.611a2.452,2.452,0,0,0-1.676,2.953,2.427,2.427,0,0,0,2.952,1.676Z"/><path class="c" d="M13.375,206.016a40.487,40.487,0,0,1,5.693-11.011,28.9,28.9,0,0,1,8.422-7.327,163.561,163.561,0,0,1,24.528-11.461c2.5-.951,5.028-1.844,7.581-2.651q1.8-.569,3.62-1.074.785-.216,1.573-.417c.092-.023.722-.065.433-.119-.081-.015-.041-.006.074.1,2.247,2.118,5.648-1.27,3.395-3.394-2.182-2.057-4.506-1.43-7.105-.7-2.428.68-4.829,1.457-7.207,2.294-5,1.758-9.908,3.778-14.74,5.951-4.44,2-8.822,4.138-13.086,6.488a35.467,35.467,0,0,0-10.224,8.1A44.838,44.838,0,0,0,8.747,204.74a2.422,2.422,0,0,0,1.676,2.952,2.448,2.448,0,0,0,2.952-1.676Z"/><path class="c" d="M173.913,291.041c-1.159,1.125-2.825,2.631-4.161,2.918-.12.026.252.069-.183-.015a3.3,3.3,0,0,0-.331-.023c.056,0,.321.048.02,0a18.15,18.15,0,0,1-1.843-.41c-1.2-.316-2.388-.7-3.573-1.075-5.781-1.844-11.445.353-17.248.838a23.757,23.757,0,0,1-12.108-2.553,2.467,2.467,0,0,0-3.284.861,2.422,2.422,0,0,0,.861,3.284,30.917,30.917,0,0,0,12.08,3.264c3.685.132,7.3-.871,10.931-1.369a16.511,16.511,0,0,1,7.613.342c2.449.782,5.392,2.009,8,1.543,2.522-.45,4.83-2.477,6.617-4.213,2.219-2.156-1.177-5.549-3.394-3.394Z"/><path class="c" d="M125.577,268.246c7.442-2.074,14.814-4.5,22.031-7.259a78.542,78.542,0,0,1,10.6-3.515,17.567,17.567,0,0,1,4.812-.5,22.011,22.011,0,0,1,6.082,1.482c2.74.971,5.431,2.074,8.154,3.091a2.42,2.42,0,0,0,2.952-1.676,2.453,2.453,0,0,0-1.676-2.953c-6.216-2.32-12.411-5.474-19.224-4.507a52.188,52.188,0,0,0-10.945,3.177c-3.642,1.37-7.286,2.7-10.97,3.955-4.331,1.474-8.689,2.849-13.1,4.077-2.972.828-1.71,5.461,1.276,4.629Z"/><path class="c" d="M181.813,213.218c-.3,10.135-1.5,20.282-2.547,30.359-1.282,12.381-2.674,24.755-4.328,37.092.056-.419-.074.546-.1.718q-.059.438-.12.875-.137.988-.277,1.977-.243,1.7-.5,3.407c-.246,1.587-.5,3.178-.834,4.749-.65,3.011,3.976,4.3,4.629,1.276.736-3.41,1.17-6.9,1.645-10.349.8-5.777,1.514-11.564,2.2-17.355,1.509-12.727,2.893-25.473,4.021-38.24.426-4.825.868-9.665,1.012-14.509.092-3.09-4.708-3.087-4.8,0Z"/><path class="c" d="M36.917,215.17c1.164,7.8,3.568,15.37,5.26,23.057.664,3.016,5.292,1.739,4.629-1.276-1.692-7.687-4.1-15.261-5.261-23.057a2.415,2.415,0,0,0-2.952-1.676,2.46,2.46,0,0,0-1.676,2.952Z"/><path class="c" d="M8.747,204.74a212.836,212.836,0,0,0-7.94,78.572c.571,7.711,1.038,15.667,3.1,23.148,2.264,8.229,6.889,16.178,14.488,20.506,7.312,4.164,16.059,3.416,24.115,2.56,15.129-1.608,30.077-5.044,44.729-9.067a343.458,343.458,0,0,0,42.217-14.245c1.483-.623,2.96-1.258,4.428-1.916a2.418,2.418,0,0,0,.861-3.284,2.46,2.46,0,0,0-3.284-.861A304.077,304.077,0,0,1,92.3,314.036a322.46,322.46,0,0,1-44.128,9.981c-3.05.439-6.115.792-9.188,1.038-4.06.324-8.3.663-12.327-.114-7.8-1.506-13.436-7.651-16.429-14.746-3.01-7.137-3.634-15.026-4.286-22.661-.621-7.274-1.113-14.585-1.152-21.888a202.475,202.475,0,0,1,6.634-52.78q.913-3.443,1.95-6.85c.9-2.963-3.734-4.229-4.628-1.276Z"/><path class="c" d="M38.423,279.079c10.751-1.254,21.468-3.265,32.084-5.35,10.51-2.064,20.955-4.645,31.371-7.132,6.219-1.486,12.456-2.967,18.582-4.806,2.951-.885,1.694-5.52-1.276-4.628-11.528,3.459-23.369,5.975-35.1,8.636-9.18,2.083-18.339,4.021-27.613,5.643q-5.06.885-10.131,1.7c-2.852.453-5.4.845-7.918,1.138a2.474,2.474,0,0,0-2.4,2.4,2.415,2.415,0,0,0,2.4,2.4Z"/><path class="c" d="M120.46,261.791c-.215.041-.225-.431-.1.207.1.536.306,1.072.46,1.6.358,1.208.731,2.412,1.111,3.613.893,2.819,1.825,5.625,2.766,8.428,2.006,5.979,4.07,11.938,6.036,17.93q.688,2.1,1.353,4.213a6.04,6.04,0,0,1,.515,1.6c.019-.166-.024,0-.156.15a3.981,3.981,0,0,1-.984.623c-2.681,1.533-.266,5.681,2.423,4.145,1.757-1,3.413-2.432,3.51-4.606.069-1.569-.691-3.242-1.163-4.72-1.044-3.269-2.139-6.522-3.238-9.773-2.282-6.752-4.631-13.487-6.754-20.291-.458-1.466-.848-2.956-1.315-4.417a4.766,4.766,0,0,0-5.736-3.328,2.422,2.422,0,0,0-1.676,2.952,2.451,2.451,0,0,0,2.952,1.676Z"/><path class="c" d="M150.533,173.306c.311-.2,1.185.329,1.575.481l2.34.908q2.718,1.058,5.427,2.143c4.538,1.828,9.035,3.756,13.463,5.837,5.031,2.363,9.981,4.914,14.754,7.766a39.084,39.084,0,0,1,6.137,4.1,27.794,27.794,0,0,1,4.331,5.03,55.8,55.8,0,0,1,3.975,6.866,55.2,55.2,0,0,1,2.351,5.39,2.466,2.466,0,0,0,2.952,1.676,2.419,2.419,0,0,0,1.677-2.952,65.243,65.243,0,0,0-5.834-11.919,39.155,39.155,0,0,0-4.854-6.324,31.8,31.8,0,0,0-6.165-4.695c-9.691-6.069-20.177-10.807-30.757-15.1q-3.258-1.32-6.539-2.587c-2.362-.917-4.82-2.312-7.256-.766-2.6,1.651-.2,5.807,2.423,4.145Z"/><path class="c" d="M95.94,319a8.673,8.673,0,0,0,3,.684c2.059.282,4.123.517,6.189.74,5.453.587,10.916,1.094,16.38,1.568,12.663,1.1,25.317,1.553,38.018,2.041a222.252,222.252,0,0,0,29.391-.357c7.568-.713,15.812-1.659,22.527-5.523a23.357,23.357,0,0,0,8.073-7.718,27.848,27.848,0,0,0,3.821-11.757,86.309,86.309,0,0,0,.294-13.452c-.148-4.328-.316-8.654-.659-12.971A242.27,242.27,0,0,0,212,217.809q-1.129-3.531-2.357-7.03a2.459,2.459,0,0,0-2.952-1.677,2.422,2.422,0,0,0-1.676,2.953,245.7,245.7,0,0,1,12.512,53.46,226.976,226.976,0,0,1,1.421,25.418c0,7.618-.835,15.577-6.88,20.928-4.989,4.416-12.141,5.615-18.515,6.491a174.178,174.178,0,0,1-28.511,1.068c-13.127-.363-26.278-.8-39.368-1.874q-8.228-.675-16.441-1.5c-2.275-.228-4.548-.465-6.819-.728q-1.276-.149-2.549-.313c.8.1-.248-.035-.477-.07-.254-.038-.508-.076-.761-.121-.525-.1-1.043-.389-.264.038-2.71-1.486-5.135,2.657-2.423,4.145Z"/><path class="c" d="M51.142,237.024a1.973,1.973,0,0,0-2.283,1.04l-1.443,2.116c7.028,6.178,12.048,11.611,19.152,19.45l3.783-3.579A217.4,217.4,0,0,0,53.58,238.586a5.7,5.7,0,0,0-2.345-1.541Q51.189,237.033,51.142,237.024Z"/><path class="c" d="M68.265,257.933c-3.713-4.1-7.432-8.192-11.336-12.108q-2.75-2.757-5.626-5.382a27.692,27.692,0,0,0-6.714-5.052,9.421,9.421,0,0,0-7.434-.563c-2.246.9-4.21,3.169-4.091,5.7.124,2.631,1.847,4.823,3.653,6.582s3.6,3.529,5.375,5.335c4.348,4.437,8.816,8.757,13.047,13.308,2.107,2.267,5.5-1.133,3.394-3.395-3.344-3.6-6.833-7.053-10.3-10.531-1.541-1.546-3.079-3.093-4.586-4.673-1.577-1.653-3.527-3.082-4.913-4.9a5.3,5.3,0,0,1-.871-1.724c-.043-.263,0-.293.048-.365a2.6,2.6,0,0,1,.772-.79c1.41-.83,3.407.054,4.658.775a31.355,31.355,0,0,1,5.341,4.4q2.475,2.285,4.852,4.672c3.9,3.916,7.623,8.012,11.336,12.108,2.079,2.294,5.465-1.109,3.394-3.394Z"/><path class="c" d="M38.128,242.511a7.859,7.859,0,0,0-7.91,2.463c-2.478,3.011-1.448,6.679.729,9.5A89.918,89.918,0,0,0,38,261.914c2.462,2.527,4.948,5.031,7.575,7.389,2.293,2.059,5.7-1.325,3.394-3.394-4.129-3.707-7.9-7.782-11.8-11.715a26.715,26.715,0,0,1-2.5-2.695c-.532-.708-1.29-1.7-1.142-2.647.224-1.435,2.215-2.038,3.322-1.712,2.969.873,4.238-3.757,1.276-4.629Z"/><path class="c" d="M35.995,256.06a6.968,6.968,0,0,0-5.895,3.165,6.751,6.751,0,0,0,.113,6.717,38.731,38.731,0,0,0,4.411,5.819l4.765,5.945a2.415,2.415,0,0,0,3.394,0,2.458,2.458,0,0,0,0-3.394c-2.476-3.089-5.014-6.139-7.431-9.274a9.2,9.2,0,0,1-1.066-1.63c-.06-.134-.266-.937-.222-.62a4.867,4.867,0,0,1-.021-.5c-.027-.645-.065.117.02-.217.012-.045.152-.458.08-.284-.094.226.226-.252.066-.089-.12.124.685-.6.395-.381.119-.089.768-.434.5-.329,0,0,.588-.159.415-.132s.47,0,.48,0a2.4,2.4,0,1,0,0-4.8Z"/><path class="c" d="M50.931,239.276c-.181.372-.584-.154.182.343a13.456,13.456,0,0,1,1.773,1.6q2,1.885,3.951,3.822Q60.819,249,64.6,253.154A213.546,213.546,0,0,1,78.57,270.215a2.473,2.473,0,0,0,3.284.861,2.419,2.419,0,0,0,.861-3.284,224.839,224.839,0,0,0-16.586-20.055q-4.374-4.692-9.018-9.12c-1.472-1.4-3.029-3.23-5.047-3.824a4.449,4.449,0,0,0-5.278,2.06,2.464,2.464,0,0,0,.862,3.284,2.422,2.422,0,0,0,3.283-.861Z"/><path class="c" d="M105.171,133.321a7.665,7.665,0,0,1,.549-.591c.065-.063.723-.593.341-.313a10.366,10.366,0,0,1,1.38-.846,6.191,6.191,0,0,1,1.486-.587,14.9,14.9,0,0,1,1.68-.388,19.968,19.968,0,0,1,3.945,0c.134.013.268.028.4.044q-.3-.039.147.027c.336.062.67.122,1,.2.316.074.63.158.939.255.084.026.946.344.492.152a2.468,2.468,0,0,0,3.284-.861c.542-1.026.373-2.761-.861-3.283a19.189,19.189,0,0,0-9.988-1.251,13.035,13.035,0,0,0-8.191,4.048,2.4,2.4,0,0,0,3.394,3.394Z"/><path class="c" d="M109.289,107.22c.284.854.549,1.715.8,2.579a19.241,19.241,0,0,1,.694,2.749l-.085-.638a2.4,2.4,0,0,1,0,.542l.086-.638a1.59,1.59,0,0,1-.063.244l.242-.573a1.183,1.183,0,0,1-.118.211l.375-.485a.748.748,0,0,1-.114.118l.485-.375a3.211,3.211,0,0,1-.6.338l.573-.242a2.7,2.7,0,0,1-.637.176l.638-.086a6.744,6.744,0,0,1-1.2-.066,2.4,2.4,0,0,0-2.4,2.4,2.457,2.457,0,0,0,2.4,2.4,9.186,9.186,0,0,0,.994.082,5.106,5.106,0,0,0,2.359-.672,3.324,3.324,0,0,0,1.687-2.194,5.357,5.357,0,0,0-.11-2.365c-.389-1.614-.865-3.207-1.389-4.781a2.547,2.547,0,0,0-1.1-1.435,2.4,2.4,0,0,0-3.526,2.711Z"/><path class="c" d="M81.3,93.1c-.663,2.607.273,8.448,5.439,8.625,6.782-.467,6.669-7.593,4.162-10.789C88.845,88.316,83.27,87.526,81.3,93.1Z"/><path class="c" d="M135.436,89.613c.994,2.491.819,8.386-4.281,9.227-6.786.415-7.592-6.645-5.518-10.127C127.335,85.861,132.76,84.36,135.436,89.613Z"/><path class="c" d="M81.789,79.011a10.783,10.783,0,0,1-1.108.974l.485-.375a14.5,14.5,0,0,1-3.156,1.9l.573-.242a5.152,5.152,0,0,1-.772.26,2.4,2.4,0,0,0,1.276,4.629,9.031,9.031,0,0,0,1.724-.671,13.844,13.844,0,0,0,1.416-.784,15.706,15.706,0,0,0,2.956-2.3,2.488,2.488,0,0,0,.7-1.7,2.447,2.447,0,0,0-.7-1.7,2.417,2.417,0,0,0-1.7-.7,2.48,2.48,0,0,0-1.7.7Z"/></svg>