<?xml version="1.0" encoding="utf-8"?>
<!-- Uploaded to: SVG Repo, www.svgrepo.com, Generator: SVG Repo Mixer Tools -->
<svg width="800px" height="800px" viewBox="0 -41 1106 1106" class="icon"  version="1.1" xmlns="http://www.w3.org/2000/svg"><path d="M0.006206 549.101899l0.134465 77.348202 49.410586 18.328566 21.938424-43.66998L0.006206 549.101899zM539.581802 860.625455v73.293575l66.384162 49.069253 7.126626-69.176889-73.510788-53.185939zM1102.068105 604.946101v87.546828l-26.603313 7.602425-8.316121-63.715556 34.857373-20.128323" fill="#4762AF" /><path d="M331.275378 651.543273c-47.238465-18.773333-211.895596-101.603556-243.01899-128.641293-8.409212-7.302465 33.905778-20.686869 50.20703-27.554909 56.857859-23.945051 289.419636-89.284525 402.142384-120.459637 37.577697-10.384808 42.925253-8.212687 61.429657-5.87507 19.466343 2.461737 37.060525 10.053818 55.378747 20.635151l411.327354 237.474909c25.610343 14.780768 37.691475 50.579394 31.899151 81.16493-4.344242 22.962424-19.683556 38.767192-41.859879 63.901737-57.550869 65.20501-143.711677 166.146586-172.828444 189.202101-8.098909 6.412929-526.067071-308.927354-538.841212-311.099475-6.80598-1.158465-11.29503 3.061657-15.835798 1.251556z" fill="#4762AF" /><path d="M77.592307 522.467556c87.588202-50.569051 214.005657-59.69196 282.137859-20.355879 68.121859 39.325737 52.317091 112.319354-35.271111 162.888404-87.588202 50.569051-214.005657 59.69196-282.127516 20.355879-24.700121-14.253253-38.363798-32.933495-41.580606-53.361778-5.657859-35.933091 21.007515-77.286141 76.841374-109.526626zM617.167903 833.991111c87.588202-50.569051 214.016-59.69196 282.137859-20.355879 54.437495 31.423354 56.402747 81.175273 9.867636 126.976-11.708768 11.512242-27.534222 25.755152-45.138747 35.912404-87.588202 50.569051-214.005657 59.69196-282.127516 20.355879-68.121859-39.325737-52.327434-112.319354 35.260768-162.888404z" fill="#4762AF" /><path d="M331.275378 580.773495c-47.238465-18.783677-211.895596-101.613899-243.01899-128.641293-8.409212-7.312808 33.905778-20.697212 50.20703-27.565253 56.857859-23.934707 289.419636-89.274182 402.142384-120.449292 37.577697-10.395152 42.925253-8.22303 61.429657-5.885415 19.466343 2.461737 37.060525 10.053818 55.378747 20.635152l411.327354 237.474909c25.610343 14.791111 37.691475 50.579394 31.899151 81.175273-4.344242 22.962424-19.683556 38.756848-41.859879 63.891394-57.550869 65.20501-143.711677 166.156929-172.828444 189.202101-8.098909 6.412929-526.067071-308.927354-538.841212-311.099475-6.80598-1.158465-11.29503 3.061657-15.835798 1.261899z" fill="#6D8ACA" /><path d="M77.592307 449.17398c87.588202-50.569051 214.005657-59.69196 282.137859-20.366222 68.121859 39.336081 52.317091 112.319354-35.271111 162.888404-87.588202 50.569051-214.005657 59.69196-282.127516 20.366222-68.121859-39.336081-52.327434-112.319354 35.260768-162.888404zM617.167903 760.697535c87.588202-50.569051 214.016-59.69196 282.137859-20.366222 54.437495 31.433697 56.402747 81.175273 9.867636 126.976-11.708768 11.512242-27.534222 25.755152-45.138747 35.912404-87.588202 50.569051-214.005657 59.69196-282.127516 20.366222-68.121859-39.336081-52.327434-112.319354 35.260768-162.888404z" fill="#6D8ACA" /><path d="M347.111176 576.987798v73.303919l233.182384 136.52299s45.728323-33.078303 61.326222-35.819313c0.941253-0.165495 1.32396-0.165495 1.35499-0.413737 0.041374-0.258586 0.341333-0.206869-1.148121-1.096404-27.099798-16.228848-287.185455-171.825131-294.715475-172.497455z" fill="#39549F" /><path d="M625.0496 794.872242c48.603798-28.061737 127.524202-28.061737 176.128 0 48.603798 28.061737 48.603798 73.624566 0 101.686303-48.603798 28.061737-127.524202 28.061737-176.128 0-48.603798-28.061737-48.603798-73.624566 0-101.686303z" fill="#1A2E66" /><path d="M588.599337 833.815273l0.010344 13.022384 8.378182 0.630949-2.472081-12.670707-5.916445-0.982626 249.028526 0.196525-0.020687 13.094788-4.675233 3.992566 0.775758-16.042667 3.920162-1.05503" fill="#1A2E66" /><path d="M625.0496 783.866828c48.603798-28.061737 127.524202-28.061737 176.128 0 48.603798 28.061737 48.603798 73.634909 0 101.696647-48.603798 28.061737-127.524202 28.061737-176.128 0-48.603798-28.061737-48.603798-73.634909 0-101.696647z" fill="#2D468A" /><path d="M649.635943 798.068364c35.033212-20.231758 91.922101-20.231758 126.955314 0 35.033212 20.221414 35.033212 53.072162 0 73.293575-35.033212 20.231758-91.922101 20.231758-126.955314 0-35.043556-20.221414-35.043556-53.072162 0-73.293575z" fill="#6D8ACA" /><path d="M658.934691 803.436606c29.902869-17.263192 78.454949-17.263192 108.357818 0 29.902869 17.263192 29.902869 45.293899 0 62.557091-29.902869 17.263192-78.454949 17.263192-108.357818 0-29.902869-17.263192-29.902869-45.293899 0-62.557091z" fill="#39549F" /><path d="M684.451943 818.165657c15.815111-9.122909 41.497859-9.122909 57.31297 0 15.815111 9.133253 15.815111 23.965737 0 33.098989-15.815111 9.122909-41.497859 9.122909-57.31297 0-15.815111-9.133253-15.815111-23.965737 0-33.098989z" fill="#0BC5FC" /><path d="M672.588024 822.323717V834.715152l4.809697 2.048 3.092687-2.254869-5.12-9.360808-2.782384-2.823758zM753.628832 822.892606v12.629333l-3.030626 1.406707-2.699636-3.878787 0.175838-6.144 5.554424-4.013253z" fill="#0BC5FC" /><path d="M684.451943 806.353455c15.815111-9.133253 41.497859-9.133253 57.31297 0 15.815111 9.122909 15.815111 23.955394 0 33.088646s-41.497859 9.133253-57.31297 0c-15.815111-9.133253-15.815111-23.965737 0-33.088646z" fill="#72DFFF" /><path d="M689.106489 719.168646c13.249939-7.654141 34.764283-7.654141 48.014222 0 13.249939 7.643798 13.249939 20.066263 0 27.720405-13.249939 7.643798-34.764283 7.643798-48.014222 0-13.249939-7.654141-13.249939-20.076606 0-27.720405z" fill="#B9EEFE" /><path d="M697.401923 723.947313c8.667798-5.006222 22.755556-5.006222 31.433697 0 8.667798 5.006222 8.667798 13.146505 0 18.152727-8.678141 5.006222-22.765899 5.006222-31.433697 0-8.678141-5.006222-8.678141-13.146505 0-18.152727z" fill="#FFFFFF" /><path d="M699.698166 725.281616c7.405899-4.271838 19.42497-4.271838 26.830868 0s7.405899 11.212283 0 15.484121c-7.405899 4.271838-19.42497 4.271838-26.830868 0-7.395556-4.271838-7.395556-11.212283 0-15.484121z" fill="#72DFFF" /><path d="M694.154085 729.274182v3.744323l1.096404 0.424081 0.351677-1.68598-1.448081-2.482424zM732.083459 729.274182v3.599515l-1.551516 0.289616 0.093091-1.572202 1.458425-2.316929z" fill="#72DFFF" /><path d="M699.698166 721.526949c7.405899-4.271838 19.42497-4.271838 26.830868 0s7.405899 11.212283 0 15.484122c-7.405899 4.282182-19.42497 4.282182-26.830868 0-7.395556-4.271838-7.395556-11.212283 0-15.484122z" fill="#3FAAF3" /><path d="M85.474004 483.348687c48.603798-28.061737 127.524202-28.061737 176.128 0 48.603798 28.061737 48.603798 73.624566 0 101.686303-48.603798 28.061737-127.524202 28.061737-176.128 0-48.603798-28.061737-48.603798-73.624566 0-101.686303z" fill="#1A2E66" /><path d="M49.023741 522.291717l0.010344 13.022384 8.378182 0.63095-2.472081-12.670708-5.916445-0.982626 249.018182 0.196525-0.010343 13.094788-4.675233 3.992566 0.775758-16.042667 3.920162-1.05503" fill="#1A2E66" /><path d="M85.474004 472.343273c48.603798-28.061737 127.524202-28.061737 176.128 0 48.603798 28.061737 48.603798 73.624566 0 101.686303-48.603798 28.061737-127.524202 28.061737-176.128 0-48.603798-28.061737-48.603798-73.624566 0-101.686303z" fill="#2D468A" /><path d="M110.050004 486.544808c35.043556-20.231758 91.932444-20.231758 126.965657 0 35.033212 20.221414 35.033212 53.072162 0 73.293576-35.033212 20.231758-91.922101 20.231758-126.965657 0-35.033212-20.221414-35.033212-53.072162 0-73.293576z" fill="#6D8ACA" /><path d="M119.359095 491.913051c29.902869-17.263192 78.454949-17.263192 108.357818 0 29.902869 17.263192 29.902869 45.293899 0 62.55709-29.902869 17.263192-78.454949 17.263192-108.357818 0-29.902869-17.263192-29.902869-45.293899 0-62.55709z" fill="#39549F" /><path d="M144.876347 506.642101c15.815111-9.133253 41.497859-9.133253 57.31297 0 15.815111 9.133253 15.815111 23.965737 0 33.088646-15.815111 9.133253-41.497859 9.133253-57.31297 0-15.815111-9.122909-15.815111-23.955394 0-33.088646z" fill="#0BC5FC" /><path d="M133.012428 510.800162v12.391434l4.809697 2.048 3.092687-2.254869-5.12-9.360808-2.782384-2.823757zM214.053236 511.369051v12.629333l-3.030626 1.406707-2.699636-3.878788 0.175838-6.144 5.554424-4.013252z" fill="#0BC5FC" /><path d="M144.876347 494.819556c15.815111-9.122909 41.497859-9.122909 57.31297 0 15.815111 9.133253 15.815111 23.965737 0 33.098989-15.815111 9.122909-41.497859 9.122909-57.31297 0-15.815111-9.133253-15.815111-23.965737 0-33.098989z" fill="#72DFFF" /><path d="M149.530893 407.645091c13.249939-7.654141 34.764283-7.654141 48.014222 0 13.249939 7.643798 13.249939 20.066263 0 27.720404-13.249939 7.643798-34.764283 7.643798-48.014222 0-13.249939-7.654141-13.249939-20.076606 0-27.720404z" fill="#B9EEFE" /><path d="M157.826327 412.423758c8.667798-5.006222 22.755556-5.006222 31.423354 0 8.678141 5.006222 8.678141 13.136162 0 18.152727-8.667798 5.006222-22.755556 5.006222-31.423354 0-8.678141-5.016566-8.678141-13.146505 0-18.152727z" fill="#FFFFFF" /><path d="M160.12257 413.758061c7.405899-4.282182 19.42497-4.282182 26.830868 0 7.405899 4.271838 7.405899 11.212283 0 15.484121-7.405899 4.271838-19.42497 4.271838-26.830868 0-7.395556-4.271838-7.395556-11.212283 0-15.484121z" fill="#72DFFF" /><path d="M154.578489 417.750626v3.744323l1.096404 0.413738 0.351677-1.675636-1.448081-2.482425zM192.507863 417.750626v3.599515l-1.551516 0.289617 0.093091-1.572202 1.458425-2.31693z" fill="#72DFFF" /><path d="M160.12257 410.003394c7.405899-4.271838 19.42497-4.271838 26.830868 0s7.405899 11.212283 0 15.484121c-7.405899 4.282182-19.42497 4.282182-26.830868 0-7.395556-4.271838-7.395556-11.212283 0-15.484121z" fill="#3FAAF3" /><path d="M679.094044 401.759677c-7.074909-4.085657-17.801051-4.530424-23.934707-0.99297l-136.481616 78.796283c-6.133657 3.547798-5.357899 9.733172 1.71701 13.829172l250.311111 144.508121c7.085253 4.085657 17.811394 4.530424 23.934707 0.99297L931.122166 560.09697c6.133657-3.537455 5.368242-9.733172-1.71701-13.818829l-250.311112-144.518464z" fill="#39549F" /><path d="M514.540347 448.915394v36.657131l25.610344 2.74101 10.891636-23.179636-14.429091-15.235879-22.072889-0.982626zM935.259539 517.854384v35.715879l-26.95499 2.968565-7.829979-26.561939 34.784969-12.122505z" fill="#39549F" /><path d="M679.094044 365.112889c-7.074909-4.085657-17.801051-4.530424-23.934707-0.99297l-136.481616 78.796283c-6.133657 3.537455-5.357899 9.733172 1.71701 13.818828l250.311111 144.518465c7.085253 4.085657 17.811394 4.530424 23.934707 0.99297l136.481617-78.796283c6.133657-3.537455 5.368242-9.733172-1.71701-13.818828l-250.311112-144.518465z" fill="#BBC6E6" /><path d="M698.001842 407.996768c-5.171717-2.989253-13.01204-3.309899-17.490747-0.724041l-85.240242 49.214061c-4.478707 2.585859-3.920162 7.116283 1.251555 10.105535L749.905196 555.142465c5.171717 2.989253 13.01204 3.309899 17.490747 0.72404l85.250586-49.214061c4.478707-2.585859 3.909818-7.105939-1.261899-10.095191l-153.382788-88.560485z" fill="#39549F" /><path d="M380.654933 392.967758c-2.254869-1.303273-5.657859-1.437737-7.612767-0.320647l-33.719596 19.476687c-1.944566 1.117091-1.696323 3.092687 0.548202 4.385616l32.623192 18.845738c2.254869 1.292929 5.668202 1.437737 7.612767 0.310303l33.719596-19.466344c1.954909-1.127434 1.706667-3.092687-0.548202-4.395959l-32.623192-18.835394z" fill="#1A2E66" /><path d="M415.315782 402.452687l-0.155152 11.832889-8.771232 5.068283V407.531313l8.926384-5.078626zM338.019297 401.780364v12.060444l10.353778 1.779071v-11.512243l-10.353778-2.327272z" fill="#1A2E66" /><path d="M380.748024 380.669414c-2.254869-1.303273-5.668202-1.448081-7.623111-0.320646l-33.792 19.51806c-1.954909 1.127434-1.706667 3.092687 0.548202 4.39596l32.695596 18.876768c2.254869 1.303273 5.668202 1.448081 7.623111 0.320646l33.792-19.507717c1.954909-1.127434 1.706667-3.10303-0.548202-4.406303l-32.695596-18.876768z m-0.279272 1.448081c-2.099717-1.220525-5.285495-1.344646-7.10594-0.29996l-31.485414 18.183758c-1.820444 1.05503-1.592889 2.885818 0.506828 4.106343l30.471758 17.594182c2.099717 1.210182 5.285495 1.344646 7.105939 0.289616l31.495758-18.183757c1.820444-1.044687 1.592889-2.885818-0.517172-4.096l-30.471757-17.594182z" fill="#6D8ACA" /><path d="M380.468752 382.117495c-2.099717-1.220525-5.285495-1.344646-7.10594-0.29996l-31.485414 18.183758c-1.820444 1.05503-1.592889 2.885818 0.506828 4.106343l30.471758 17.594182c2.099717 1.210182 5.285495 1.344646 7.105939 0.289616l31.495758-18.183757c1.820444-1.044687 1.592889-2.885818-0.517172-4.096l-30.471757-17.594182z" fill="#39549F" /><path d="M378.937923 389.099313c-1.251556-0.72404-3.154747-0.796444-4.240808-0.175838l-18.814707 10.860606c-1.086061 0.630949-0.951596 1.727354 0.310303 2.451394l18.194101 10.508929c1.261899 0.72404 3.165091 0.806788 4.251152 0.175838l18.804363-10.860606c1.086061-0.620606 0.951596-1.727354-0.299959-2.451394l-18.204445-10.508929z" fill="#72DFFF" /><path d="M856.752873 667.844525c-2.254869-1.303273-5.657859-1.448081-7.612768-0.320646l-33.719596 19.466343c-1.944566 1.127434-1.706667 3.10303 0.548202 4.39596l32.623192 18.835394c2.254869 1.303273 5.668202 1.448081 7.612768 0.320646l33.719596-19.466343c1.954909-1.127434 1.706667-3.092687-0.548202-4.39596l-32.623192-18.835394z" fill="#1A2E66" /><path d="M891.413721 677.329455l-0.165495 11.832888-8.760889 5.068283v-11.822545l8.926384-5.078626zM814.106893 676.646788v12.070788l10.364121 1.768727v-11.501899l-10.364121-2.337616z" fill="#1A2E66" /><path d="M856.845964 655.546182c-2.254869-1.303273-5.668202-1.448081-7.623111-0.320647l-33.792 19.507718c-1.954909 1.127434-1.706667 3.10303 0.548202 4.406303l32.695596 18.876767c2.254869 1.303273 5.668202 1.448081 7.623111 0.320647l33.792-19.507717c1.954909-1.127434 1.706667-3.10303-0.548202-4.406304l-32.695596-18.876767z m-0.279273 1.448081c-2.099717-1.220525-5.285495-1.35499-7.105939-0.29996l-31.495758 18.183758c-1.820444 1.05503-1.582545 2.885818 0.517172 4.106343l30.471757 17.594182c2.099717 1.210182 5.285495 1.344646 7.10594 0.289616l31.495757-18.183758c1.820444-1.044687 1.592889-2.885818-0.517172-4.106343l-30.471757-17.583838z" fill="#6D8ACA" /><path d="M856.566691 656.994263c-2.099717-1.220525-5.285495-1.35499-7.105939-0.29996l-31.495758 18.183758c-1.820444 1.05503-1.582545 2.885818 0.517172 4.106343l30.471757 17.594182c2.099717 1.210182 5.285495 1.344646 7.10594 0.289616l31.495757-18.183758c1.820444-1.044687 1.592889-2.885818-0.517172-4.106343l-30.471757-17.583838z" fill="#39549F" /><path d="M855.035863 663.976081c-1.251556-0.72404-3.154747-0.806788-4.240808-0.175839l-18.814708 10.860606c-1.086061 0.630949-0.951596 1.727354 0.310304 2.451394l18.194101 10.50893c1.261899 0.72404 3.154747 0.806788 4.251151 0.175838l18.804364-10.860606c1.086061-0.630949 0.951596-1.727354-0.29996-2.451394l-18.204444-10.508929z" fill="#72DFFF" /><path d="M440.822691 358.234505c-2.244525-1.303273-5.657859-1.448081-7.612768-0.320646l-33.719596 19.466343c-1.944566 1.127434-1.696323 3.092687 0.548202 4.39596l32.633536 18.835394c2.244525 1.303273 5.657859 1.437737 7.602424 0.320646l33.719596-19.476687c1.954909-1.117091 1.706667-3.092687-0.537859-4.385616l-32.633535-18.835394z" fill="#1A2E66" /><path d="M475.483539 367.719434l-0.155151 11.832889-8.771232 5.05794v-11.822546l8.926383-5.068283zM398.187055 367.036768v12.070788l10.353777 1.768727v-11.501899l-10.353777-2.337616z" fill="#1A2E66" /><path d="M440.915782 345.936162c-2.254869-1.303273-5.668202-1.448081-7.623111-0.320647L399.500671 365.123232c-1.954909 1.127434-1.706667 3.10303 0.548202 4.406303l32.695596 18.876768c2.254869 1.303273 5.678545 1.448081 7.623111 0.310303l33.792-19.507717c1.954909-1.127434 1.706667-3.092687-0.548202-4.39596l-32.695596-18.876767z m-0.279273 1.437737c-2.099717-1.210182-5.285495-1.344646-7.105939-0.289616l-31.485414 18.183757c-1.820444 1.044687-1.592889 2.885818 0.506828 4.096l30.471757 17.594182c2.099717 1.220525 5.285495 1.344646 7.10594 0.29996l31.495757-18.183758c1.820444-1.05503 1.592889-2.896162-0.517171-4.106343L440.636509 347.373899z" fill="#6D8ACA" /><path d="M440.636509 347.373899c-2.099717-1.210182-5.285495-1.344646-7.105939-0.289616l-31.485414 18.183757c-1.820444 1.044687-1.592889 2.885818 0.506828 4.096l30.471757 17.594182c2.099717 1.220525 5.285495 1.344646 7.10594 0.29996l31.495757-18.183758c1.820444-1.05503 1.592889-2.896162-0.517171-4.106343L440.636509 347.373899z" fill="#39549F" /><path d="M439.105681 354.366061c-1.251556-0.72404-3.154747-0.806788-4.240808-0.175839l-18.814707 10.860606c-1.086061 0.630949-0.951596 1.727354 0.310303 2.451394l18.194101 10.50893c1.261899 0.72404 3.165091 0.796444 4.251151 0.175838l18.804364-10.860606c1.086061-0.630949 0.951596-1.727354-0.29996-2.451394l-18.204444-10.508929z" fill="#72DFFF" /><path d="M916.92063 633.100929c-2.254869-1.292929-5.657859-1.437737-7.612767-0.310303l-33.719596 19.466344c-1.944566 1.127434-1.706667 3.092687 0.548202 4.395959l32.623192 18.835394c2.254869 1.303273 5.668202 1.437737 7.612767 0.310303l33.719596-19.466343c1.954909-1.127434 1.706667-3.092687-0.548202-4.39596l-32.623192-18.835394z" fill="#1A2E66" /><path d="M951.581479 642.596202l-0.155152 11.832889-8.771232 5.057939v-11.822545l8.926384-5.068283zM874.274651 641.913535v12.060445l10.364121 1.779071v-11.501899l-10.364121-2.337617z" fill="#1A2E66" /><path d="M917.013721 620.802586c-2.254869-1.303273-5.668202-1.437737-7.623111-0.310303l-33.792 19.507717c-1.954909 1.127434-1.706667 3.10303 0.548202 4.406303l32.695596 18.876768c2.254869 1.303273 5.668202 1.437737 7.623111 0.310303l33.792-19.507717c1.954909-1.127434 1.706667-3.10303-0.548202-4.406303l-32.695596-18.876768z m-0.279273 1.448081c-2.099717-1.210182-5.285495-1.344646-7.105939-0.289616l-31.485414 18.173414c-1.820444 1.05503-1.592889 2.896162 0.506828 4.106343l30.471758 17.594182c2.099717 1.210182 5.285495 1.344646 7.105939 0.299959l31.495758-18.183757c1.820444-1.05503 1.592889-2.896162-0.517172-4.106344l-30.471758-17.594181z" fill="#6D8ACA" /><path d="M916.734448 622.250667c-2.099717-1.210182-5.285495-1.344646-7.105939-0.289616l-31.485414 18.173414c-1.820444 1.05503-1.592889 2.896162 0.506828 4.106343l30.471758 17.594182c2.099717 1.210182 5.285495 1.344646 7.105939 0.299959l31.495758-18.183757c1.820444-1.05503 1.592889-2.896162-0.517172-4.106344l-30.471758-17.594181z" fill="#39549F" /><path d="M915.20362 629.242828c-1.251556-0.72404-3.154747-0.806788-4.240808-0.175838l-18.814707 10.860606c-1.086061 0.620606-0.951596 1.71701 0.310303 2.451394l18.194101 10.498586c1.261899 0.734384 3.154747 0.806788 4.251152 0.175838l18.804363-10.850262c1.086061-0.630949 0.951596-1.727354-0.299959-2.451394l-18.204445-10.50893z" fill="#72DFFF" /><path d="M498.259782 391.395556c-2.244525-1.303273-5.657859-1.448081-7.612768-0.320647l-33.719596 19.466344c-1.944566 1.127434-1.696323 3.092687 0.548202 4.395959l32.633536 18.835394c2.244525 1.303273 5.657859 1.437737 7.602424 0.320647l33.719596-19.466344c1.954909-1.127434 1.706667-3.10303-0.537859-4.39596l-32.633535-18.835393z" fill="#1A2E66" /><path d="M532.92063 400.880485l-0.155151 11.832889-8.771233 5.068283v-11.832889l8.926384-5.068283zM455.624145 400.197818v12.070788l10.353778 1.768727v-11.501899l-10.353778-2.337616z" fill="#1A2E66" /><path d="M498.352873 379.097212c-2.254869-1.303273-5.668202-1.448081-7.623111-0.320646l-33.792 19.507717c-1.954909 1.127434-1.706667 3.10303 0.548202 4.406303l32.695596 18.876768c2.254869 1.303273 5.678545 1.448081 7.623111 0.320646l33.792-19.518061c1.954909-1.127434 1.71701-3.092687-0.548202-4.395959l-32.695596-18.876768z m-0.279273 1.437737c-2.099717-1.210182-5.285495-1.344646-7.105939-0.289616l-31.485415 18.183758c-1.820444 1.044687-1.592889 2.885818 0.506829 4.096l30.471757 17.594182c2.099717 1.220525 5.285495 1.344646 7.10594 0.299959l31.495757-18.183757c1.820444-1.05503 1.592889-2.885818-0.517171-4.106344l-30.471758-17.594182z" fill="#6D8ACA" /><path d="M498.0736 380.534949c-2.099717-1.210182-5.285495-1.344646-7.105939-0.289616l-31.485415 18.183758c-1.820444 1.044687-1.592889 2.885818 0.506829 4.096l30.471757 17.594182c2.099717 1.220525 5.285495 1.344646 7.10594 0.299959l31.495757-18.183757c1.820444-1.05503 1.592889-2.885818-0.517171-4.106344l-30.471758-17.594182z" fill="#39549F" /><path d="M496.542772 387.527111c-1.251556-0.72404-3.154747-0.806788-4.240808-0.175838l-18.814707 10.860606c-1.086061 0.630949-0.951596 1.727354 0.310303 2.451394l18.194101 10.508929c1.261899 0.72404 3.165091 0.796444 4.251151 0.175838l18.804364-10.860606c1.086061-0.630949 0.951596-1.727354-0.29996-2.451394l-18.204444-10.508929z" fill="#72DFFF" /><path d="M974.357721 666.26198c-2.254869-1.292929-5.657859-1.437737-7.612767-0.310303l-33.719596 19.466343c-1.944566 1.127434-1.706667 3.092687 0.548202 4.39596l32.623192 18.835394c2.254869 1.303273 5.668202 1.437737 7.612767 0.310303l33.719596-19.466344c1.954909-1.117091 1.706667-3.092687-0.548202-4.385616L974.357721 666.26198z" fill="#1A2E66" /><path d="M1009.01857 675.757253l-0.155152 11.832888-8.771232 5.05794v-11.822546l8.926384-5.068282zM931.722085 675.074586v12.060444l10.353778 1.779071v-11.501899l-10.353778-2.337616z" fill="#1A2E66" /><path d="M974.450812 653.963636c-2.254869-1.303273-5.668202-1.437737-7.623111-0.310303l-33.792 19.507718c-1.954909 1.127434-1.706667 3.10303 0.548202 4.406303l32.695596 18.876767c2.254869 1.303273 5.668202 1.437737 7.623111 0.310303l33.792-19.507717c1.954909-1.127434 1.706667-3.10303-0.548202-4.406303l-32.695596-18.876768z m-0.279273 1.448081c-2.099717-1.210182-5.285495-1.344646-7.105939-0.289616l-31.485414 18.173414c-1.820444 1.05503-1.592889 2.896162 0.506828 4.106344l30.471758 17.594181c2.099717 1.210182 5.285495 1.344646 7.105939 0.29996l31.495758-18.183758c1.820444-1.05503 1.592889-2.896162-0.517172-4.106343l-30.471758-17.594182z" fill="#6D8ACA" /><path d="M974.171539 655.411717c-2.099717-1.210182-5.285495-1.344646-7.105939-0.289616l-31.485414 18.173414c-1.820444 1.05503-1.592889 2.896162 0.506828 4.106344l30.471758 17.594181c2.099717 1.210182 5.285495 1.344646 7.105939 0.29996l31.495758-18.183758c1.820444-1.05503 1.592889-2.896162-0.517172-4.106343l-30.471758-17.594182z" fill="#39549F" /><path d="M972.640711 662.403879c-1.251556-0.72404-3.154747-0.806788-4.240808-0.175839l-18.814707 10.860606c-1.086061 0.620606-0.951596 1.727354 0.310303 2.451394l18.194101 10.50893c1.261899 0.72404 3.154747 0.796444 4.251152 0.175838l18.804363-10.860606c1.086061-0.630949 0.951596-1.727354-0.299959-2.451394l-18.204445-10.508929z" fill="#72DFFF" /><path d="M436.706004 426.935596c-2.254869-1.303273-5.668202-1.448081-7.612768-0.320647l-33.719596 19.466344c-1.954909 1.127434-1.706667 3.092687 0.548202 4.39596l32.623192 18.835393c2.254869 1.303273 5.657859 1.448081 7.612768 0.320647l33.719596-19.466344c1.944566-1.127434 1.706667-3.10303-0.548202-4.395959l-32.623192-18.835394z" fill="#1A2E66" /><path d="M471.356509 436.420525l-0.155151 11.832889-8.771233 5.068283v-11.832889l8.926384-5.068283zM394.060024 435.737859v12.070787l10.364121 1.768728v-11.501899l-10.364121-2.337616z" fill="#1A2E66" /><path d="M436.799095 414.637253c-2.254869-1.303273-5.678545-1.448081-7.623111-0.320647l-33.792 19.507717c-1.954909 1.127434-1.71701 3.10303 0.548202 4.406303l32.695596 18.876768c2.254869 1.303273 5.668202 1.448081 7.623111 0.320646l33.792-19.51806c1.954909-1.127434 1.706667-3.092687-0.548202-4.39596l-32.695596-18.876767z m-0.279273 1.437737c-2.099717-1.210182-5.285495-1.344646-7.105939-0.289616l-31.495758 18.183757c-1.820444 1.044687-1.592889 2.885818 0.517172 4.096l30.471758 17.594182c2.099717 1.220525 5.285495 1.344646 7.105939 0.29996l31.485414-18.183758c1.820444-1.05503 1.592889-2.885818-0.506828-4.106343l-30.471758-17.594182z" fill="#6D8ACA" /><path d="M436.519822 416.07499c-2.099717-1.210182-5.285495-1.344646-7.105939-0.289616l-31.495758 18.183757c-1.820444 1.044687-1.592889 2.885818 0.517172 4.096l30.471758 17.594182c2.099717 1.220525 5.285495 1.344646 7.105939 0.29996l31.485414-18.183758c1.820444-1.05503 1.592889-2.885818-0.506828-4.106343l-30.471758-17.594182z" fill="#39549F" /><path d="M434.988994 423.067152c-1.261899-0.72404-3.165091-0.806788-4.251152-0.175839l-18.804363 10.860606c-1.086061 0.630949-0.951596 1.727354 0.299959 2.451394l18.204445 10.508929c1.251556 0.72404 3.154747 0.806788 4.240808 0.175839l18.814707-10.860606c1.086061-0.630949 0.951596-1.727354-0.310303-2.451394l-18.194101-10.508929z" fill="#72DFFF" /><path d="M912.803943 701.80202c-2.254869-1.292929-5.668202-1.437737-7.612767-0.310303l-33.719596 19.466344c-1.954909 1.127434-1.706667 3.092687 0.548202 4.395959l32.623192 18.835394c2.254869 1.303273 5.657859 1.437737 7.612767 0.320647l33.719596-19.476687c1.944566-1.117091 1.706667-3.092687-0.548202-4.385616l-32.623192-18.845738z" fill="#1A2E66" /><path d="M947.454448 711.297293l-0.155151 11.832889-8.771232 5.057939v-11.822545l8.926383-5.068283zM870.157964 710.614626v12.070788l10.364121 1.768727v-11.501899l-10.364121-2.337616z" fill="#1A2E66" /><path d="M912.897034 689.503677c-2.254869-1.292929-5.678545-1.437737-7.633454-0.310303l-33.781657 19.507717c-1.954909 1.127434-1.71701 3.10303 0.537859 4.406303l32.705939 18.876768c2.254869 1.303273 5.668202 1.437737 7.623111 0.310303l33.792-19.507718c1.954909-1.127434 1.706667-3.10303-0.548202-4.395959l-32.695596-18.887111z m-0.279272 1.448081c-2.099717-1.210182-5.285495-1.344646-7.10594-0.289617l-31.495757 18.183758c-1.820444 1.044687-1.592889 2.885818 0.506828 4.096l30.471758 17.594182c2.110061 1.210182 5.295838 1.344646 7.116282 0.299959l31.485414-18.183757c1.820444-1.05503 1.592889-2.896162-0.506828-4.106344l-30.471757-17.594181z" fill="#6D8ACA" /><path d="M912.617762 690.951758c-2.099717-1.210182-5.285495-1.344646-7.10594-0.289617l-31.495757 18.183758c-1.820444 1.044687-1.592889 2.885818 0.506828 4.096l30.471758 17.594182c2.110061 1.210182 5.295838 1.344646 7.116282 0.299959l31.485414-18.183757c1.820444-1.05503 1.592889-2.896162-0.506828-4.106344l-30.471757-17.594181z" fill="#39549F" /><path d="M911.086933 697.943919c-1.261899-0.72404-3.165091-0.806788-4.251151-0.175838l-18.804364 10.860606c-1.086061 0.620606-0.951596 1.727354 0.29996 2.451394l18.204444 10.508929c1.251556 0.72404 3.154747 0.796444 4.240808 0.175838l18.814707-10.860606c1.086061-0.630949 0.951596-1.727354-0.310303-2.451394l-18.194101-10.508929z" fill="#72DFFF" /><path d="M339.891459 573.926141l7.302464 3.00994s-14.522182 10.022788-22.734868 14.760081c-87.588202 50.569051-214.005657 59.69196-282.127516 20.366222C12.211459 594.675071-1.503935 570.709333 0.140671 545.005899c1.468768 22.590061 15.277253 43.37002 42.190868 58.916202 68.121859 39.325737 194.539313 30.202828 282.127516-20.366222 5.41996-3.123717 15.432404-9.629737 15.432404-9.629738zM882.04257 884.725657s6.44396 1.965253 7.105939 2.937535c0.29996 0.444768-1.923879 2.172121-3.144404 2.875475l-21.969454 12.68105c-87.588202 50.569051-214.005657 59.69196-282.127516 20.366222-30.120081-17.387313-43.835475-41.353051-42.190868-67.056484 1.468768 22.590061 15.277253 43.380364 42.190868 58.916202 68.121859 39.325737 194.539313 30.202828 282.127516-20.366223l18.007919-10.353777z" fill="#FFFFFF" /><path d="M881.670206 885.108364c0.062061-0.206869 0.486141-0.465455 0.72404-0.66198 31.154424-24.93802 121.059556-127.286303 181.21697-193.618748 15.432404-17.025293 27.710061-29.882182 35.757253-43.390707-6.578424 17.532121-20.304162 31.992242-38.787879 52.937697-56.257939 63.736242-139.915636 161.285172-170.842505 187.164445-0.713697 0.589576-1.158465 1.137778-1.820445 1.654949-0.424081 0.341333-2.430707 0.165495-5.533737-1.189495a1.665293 1.665293 0 0 0-0.155151-0.786101c-0.341333-0.506828 0-1.024-0.258586-1.551515-0.103434-0.196525-0.372364-0.36202-0.29996-0.558545zM337.574529 575.415596s249.907717 147.187071 301.004283 176.365899l0.237899-0.072404 0.724041-0.217212c0.610263-0.186182 1.365333-0.289616 1.996282-0.475798 0.393051-0.124121 0.961939-0.010343 1.489455-0.206869a3.640889 3.640889 0 0 0 1.479111-1.024c0.289616-0.755071 0.093091-1.696323-1.210182-2.461737L345.725156 573.791677l-3.744324-2.151435s-4.592485 3.723636-4.406303 3.775354" fill="#FFFFFF" /><path d="M668.440307 301.914505c0-3.475394-1.530828-4.882101-3.423677-3.154747-1.892848 1.727354-3.43402 5.957818-3.43402 9.422868v19.269818l6.857697-6.268121v-19.269818z" fill="#42FBFF" /><path d="M668.440307 321.184323l-6.857697 6.268121v14.99798l6.857697-6.268121v-14.99798z" fill="#9BFDFF" /><path d="M668.440307 336.182303l-6.857697 6.268121v14.99798l6.857697-6.278465v-14.987636z" fill="#ACFDFF" /><path d="M668.440307 351.169939l-6.857697 6.278465v14.987636l6.857697-6.268121v-14.99798z" fill="#C5FEFF" /><path d="M668.440307 366.167919l-6.857697 6.268121v14.99798l6.857697-6.268121v-14.99798z" fill="#E1FEFF" /><path d="M668.440307 381.165899l-6.857697 6.268121v14.987637l6.857697-6.268122v-14.987636z" fill="#F6FFFF" /><path d="M807.735337 365.961051c0-4.033939-1.530828-5.678545-3.423676-3.661576-1.892848 2.006626-3.43402 6.919758-3.434021 10.943353v22.424566l6.857697-7.292121v-22.414222z" fill="#42FBFF" /><path d="M807.735337 388.375273l-6.857697 7.292121v17.43903l6.857697-7.292121v-17.43903z" fill="#9BFDFF" /><path d="M807.735337 405.814303l-6.857697 7.292121v17.439031l6.857697-7.292122v-17.43903z" fill="#ACFDFF" /><path d="M807.735337 423.253333l-6.857697 7.292122v17.428686l6.857697-7.292121V423.253333z" fill="#C5FEFF" /><path d="M807.735337 440.68202l-6.857697 7.292121v17.439031l6.857697-7.292121v-17.439031z" fill="#E1FEFF" /><path d="M807.735337 458.121051l-6.857697 7.292121v17.43903l6.857697-7.292121v-17.43903z" fill="#F6FFFF" /><path d="M693.32661 285.406384c0-2.74101-1.220525-3.868444-2.720323-2.503111-1.499798 1.365333-2.70998 4.706263-2.70998 7.447272v15.215192l5.430303-4.954505v-15.204848z" fill="#42FBFF" /><path d="M693.32661 300.611232l-5.430303 4.954505v11.832889l5.430303-4.944161v-11.843233z" fill="#9BFDFF" /><path d="M693.32661 312.454465l-5.430303 4.944161v11.832889l5.430303-4.944161v-11.832889z" fill="#ACFDFF" /><path d="M693.32661 324.287354l-5.430303 4.944161v11.843232l5.430303-4.954505v-11.832888z" fill="#C5FEFF" /><path d="M693.32661 336.120242l-5.430303 4.954505v11.832889l5.430303-4.944161v-11.843233z" fill="#E1FEFF" /><path d="M693.32661 347.963475l-5.430303 4.944161v11.832889l5.430303-4.944161v-11.832889z" fill="#F6FFFF" /><path d="M704.507863 388.892444c0-1.934222-1.210182-2.844444-2.70998-2.037656-1.499798 0.806788-2.720323 3.030626-2.720323 4.954505v8.419555l5.430303-2.927191v-8.409213z" fill="#42FBFF" /><path d="M704.507863 397.301657l-5.430303 2.927191v6.981819l5.430303-2.916849v-6.992161z" fill="#9BFDFF" /><path d="M704.507863 404.293818l-5.430303 2.916849v6.981818l5.430303-2.916849v-6.981818z" fill="#ACFDFF" /><path d="M704.507863 411.275636l-5.430303 2.916849v6.992161l5.430303-2.927191v-6.981819z" fill="#C5FEFF" /><path d="M704.507863 418.257455l-5.430303 2.927191v6.981819l5.430303-2.916849v-6.992161z" fill="#E1FEFF" /><path d="M704.507863 425.249616l-5.430303 2.916849v6.992161l5.430303-2.927192v-6.981818z" fill="#F6FFFF" /><path d="M675.877236 382.427798c0-2.07903-1.220525-3.009939-2.720323-2.068687-1.499798 0.930909-2.70998 3.37196-2.70998 5.45099v10.002101l5.430303-3.37196v-10.012444z" fill="#42FBFF" /><path d="M675.877236 392.440242l-5.430303 3.37196v8.078222l5.430303-3.371959v-8.078223z" fill="#9BFDFF" /><path d="M675.877236 400.518465l-5.430303 3.371959v8.078222l5.430303-3.371959v-8.078222z" fill="#ACFDFF" /><path d="M675.877236 408.596687l-5.430303 3.371959v8.078223l5.430303-3.37196v-8.078222z" fill="#C5FEFF" /><path d="M675.877236 416.674909l-5.430303 3.37196v8.078222l5.430303-3.37196v-8.078222z" fill="#E1FEFF" /><path d="M675.877236 424.753131l-5.430303 3.37196v8.078222l5.430303-3.371959v-8.078223z" fill="#F6FFFF" /><path d="M736.717317 407.489939c0-1.934222-1.210182-2.844444-2.70998-2.037656-1.499798 0.806788-2.720323 3.030626-2.720323 4.954505v8.409212l5.430303-2.916848v-8.409213z" fill="#42FBFF" /><path d="M736.717317 415.899152l-5.430303 2.916848v6.992162l5.430303-2.927192v-6.981818z" fill="#9BFDFF" /><path d="M736.717317 422.88097l-5.430303 2.927192v6.981818l5.430303-2.916849v-6.992161z" fill="#ACFDFF" /><path d="M736.717317 429.873131l-5.430303 2.916849v6.992161l5.430303-2.927192v-6.981818z" fill="#C5FEFF" /><path d="M736.717317 436.854949l-5.430303 2.927192v6.981819l5.430303-2.916849v-6.992162z" fill="#E1FEFF" /><path d="M736.717317 443.847111l-5.430303 2.916849v6.992161l5.430303-2.927192v-6.981818z" fill="#F6FFFF" /><path d="M762.23457 439.151192c0-1.68598-1.220525-2.627232-2.720324-2.099717a4.489051 4.489051 0 0 0-2.709979 4.002909v4.695919l5.430303-1.903192v-4.695919z" fill="#42FBFF" /><path d="M762.23457 443.847111l-5.430303 1.903192v4.551111l5.430303-1.903192v-4.551111z" fill="#9BFDFF" /><path d="M762.23457 448.398222l-5.430303 1.903192v4.540768l5.430303-1.903192v-4.540768z" fill="#ACFDFF" /><path d="M762.23457 452.93899l-5.430303 1.903192v4.551111l5.430303-1.903192v-4.551111z" fill="#C5FEFF" /><path d="M762.23457 457.490101l-5.430303 1.903192v4.540768l5.430303-1.903192v-4.540768z" fill="#E1FEFF" /><path d="M762.23457 462.030869l-5.430303 1.903192v4.551111l5.430303-1.903192v-4.551111z" fill="#F6FFFF" /><path d="M774.284671 417.46101c0-2.885818-1.220525-4.06497-2.70998-2.616889-1.499798 1.448081-2.720323 4.964848-2.720323 7.86101v16.115071l5.430303-5.244121V417.46101z" fill="#42FBFF" /><path d="M774.284671 433.576081l-5.430303 5.244121v12.515556l5.430303-5.233778v-12.525899z" fill="#9BFDFF" /><path d="M774.284671 446.10198l-5.430303 5.233778v12.525899l5.430303-5.233778v-12.525899z" fill="#ACFDFF" /><path d="M774.284671 458.627879l-5.430303 5.233778v12.525899l5.430303-5.233778V458.627879z" fill="#C5FEFF" /><path d="M774.284671 471.153778l-5.430303 5.233778v12.525899l5.430303-5.233778v-12.525899z" fill="#E1FEFF" /><path d="M774.284671 483.679677l-5.430303 5.233778v12.525899l5.430303-5.244122v-12.515555z" fill="#F6FFFF" /><path d="M782.38358 324.463192c0-3.165091-1.210182-4.447677-2.70998-2.865131-1.499798 1.572202-2.70998 5.41996-2.70998 8.58505v17.594182l5.41996-5.719919v-17.594182z" fill="#42FBFF" /><path d="M782.38358 342.057374l-5.41996 5.719919v13.67402l5.41996-5.719919V342.057374z" fill="#9BFDFF" /><path d="M782.38358 355.731394l-5.41996 5.719919v13.684364l5.41996-5.719919v-13.684364z" fill="#ACFDFF" /><path d="M782.38358 369.415758l-5.41996 5.719919v13.67402l5.41996-5.719919v-13.67402z" fill="#C5FEFF" /><path d="M782.38358 383.089778l-5.41996 5.719919v13.67402l5.41996-5.719919v-13.67402z" fill="#E1FEFF" /><path d="M782.38358 396.763798l-5.41996 5.719919v13.684364l5.41996-5.719919v-13.684364z" fill="#F6FFFF" /><path d="M725.608469 305.855354c0-2.782384-1.344646-3.930505-2.989253-2.565172-1.644606 1.365333-2.989253 4.726949-2.989252 7.509333v15.142788l5.978505-4.944162V305.855354z" fill="#42FBFF" /><path d="M725.608469 320.998141l-5.978505 4.944162v11.843232l5.978505-4.954505v-11.832889z" fill="#9BFDFF" /><path d="M725.608469 332.83103l-5.978505 4.954505v11.832889l5.978505-4.954505v-11.832889z" fill="#ACFDFF" /><path d="M725.608469 344.663919l-5.978505 4.954505v11.832889l5.978505-4.944161v-11.843233z" fill="#C5FEFF" /><path d="M725.608469 356.507152l-5.978505 4.944161v11.843232l5.978505-4.954505v-11.832888z" fill="#E1FEFF" /><path d="M725.608469 368.34004l-5.978505 4.954505v11.832889l5.978505-4.954505v-11.832889z" fill="#F6FFFF" /><path d="M844.464873 385.230869c0-2.492768-1.334303-3.568485-2.978909-2.37899-1.654949 1.179152-2.989253 4.168404-2.989253 6.671515v12.94998l5.968162-4.282182v-12.960323z" fill="#42FBFF" /><path d="M844.464873 398.191192l-5.968162 4.282182v10.260687l5.968162-4.292526v-10.250343z" fill="#9BFDFF" /><path d="M844.464873 408.441535l-5.968162 4.292526v10.250343l5.968162-4.282182v-10.260687z" fill="#ACFDFF" /><path d="M844.464873 418.702222l-5.968162 4.282182v10.260687l5.968162-4.292525v-10.250344z" fill="#C5FEFF" /><path d="M844.464873 428.952566l-5.968162 4.292525v10.250343l5.968162-4.282181v-10.260687z" fill="#E1FEFF" /><path d="M844.464873 439.213253l-5.968162 4.282181v10.260687l5.968162-4.292525v-10.250343z" fill="#F6FFFF" /><path d="M707.124752 25.662061c-20.055919-11.574303-50.444929-12.836202-67.811556-2.803071L338.846772 196.328727c-17.366626 10.033131-15.194505 27.575596 4.871757 39.149899l290.722909 167.853253c20.055919 11.584646 50.444929 12.846545 67.821899 2.813414l300.466425-173.469737c17.366626-10.033131 15.184162-27.575596-4.871758-39.160243L707.124752 25.662061z" fill="#1A2E66" /><path d="M327.148347 198.211232l-0.03103 17.428687 17.563152 6.092283 0.03103-13.663677-17.563152-9.857293zM1014.448873 199.586909v16.08404l-6.185374 4.633859-4.509737-12.898263 10.695111-7.819636z" fill="#1A2E66" /><path d="M707.124752 9.57802C687.068832-1.996283 656.679822-3.258182 639.313196 6.764606L338.846772 180.244687c-17.366626 10.033131-15.194505 27.575596 4.871757 39.149899l290.722909 167.853252c20.055919 11.584646 50.444929 12.846545 67.821899 2.813415l300.466425-173.480081c17.366626-10.022788 15.184162-27.565253-4.871758-39.149899L707.124752 9.57802z" fill="#93A3C5" /><path d="M691.061398 93.059879c-11.191596-6.464646-28.144485-7.168-37.836283-1.572202l-167.63604 96.793858c-9.691798 5.595798-8.471273 15.380687 2.70998 21.845334l162.21608 93.649454c11.181253 6.454303 28.134141 7.157657 37.82594 1.561859l167.646384-96.783515c9.691798-5.595798 8.471273-15.380687-2.720324-21.845334L691.061398 93.059879z" fill="#1A2E66" /><path d="M689.013398 91.870384c-10.064162-5.802667-25.30004-6.433616-34.009212-1.406707l-150.683152 86.998626c-8.709172 5.026909-7.612768 13.818828 2.441051 19.631838l145.80105 84.174869c10.053818 5.802667 25.30004 6.433616 34.009212 1.406707l150.672809-86.988283c8.709172-5.037253 7.623111-13.829172-2.441051-19.642181L689.013398 91.870384z" fill="#6D8ACA" /><path d="M580.552145 156.651313l40.56695-6.412929 29.706343 17.511434-10.870949 23.924364-40.577293 6.412929-29.696-17.511434 10.870949-23.924364zM617.591984 206.18602l27.410101-4.323555 20.066262 11.832889-7.343838 16.156444-27.410101 4.333899-20.066263-11.832889 7.343839-16.166788zM659.079499 174.710949l30.813091-4.871757 22.548687 13.301656-8.254061 18.173415-30.813091 4.861414-22.548687-13.291313 8.254061-18.173415zM703.059782 151.717495l24.576-3.889131 17.997576 10.612363-6.588768 14.491152-24.576 3.878788-17.997576-10.602021 6.588768-14.491151zM721.233196 188.322909l20.500687-3.237495 14.99798 8.85398-5.492364 12.081131-20.490343 3.237495-15.008324-8.843636 5.492364-12.091475z" fill="#A6B1CF" /><path d="M580.459055 159.702626l40.225616-6.216404 29.447757 16.994263-10.777858 23.231353-40.225616 6.216404-29.447758-16.994262 10.777859-23.231354zM617.18859 207.789253l27.172202-4.199435 19.890424 11.491556-7.281778 15.680646-27.172202 4.209778-19.890424-11.491556 7.281778-15.690989zM658.314085 177.234747l30.544161-4.726949 22.362506 12.918949-8.181657 17.635556-30.544162 4.72695-22.362505-12.91895 8.181657-17.635556zM701.922004 154.913616l24.358788-3.76501 17.842424 10.291717-6.526707 14.067071-24.369131 3.775353-17.842424-10.30206 6.53705-14.067071zM719.940267 190.453657l20.314505-3.144404 14.884202 8.595393-5.45099 11.729455-20.324849 3.144404-14.873858-8.595394 5.45099-11.729454z" fill="#39549F" /></svg>