<?xml version="1.0" encoding="iso-8859-1"?>
<!-- Uploaded to: SVG Repo, www.svgrepo.com, Generator: SVG Repo Mixer Tools -->
<svg version="1.1" id="Layer_1" xmlns="http://www.w3.org/2000/svg" xmlns:xlink="http://www.w3.org/1999/xlink" 
	 viewBox="0 0 81.526 81.526" xml:space="preserve">
<g>
	<path style="fill:#FFCC3B;" d="M73.5,63.564c-1.108,0-2.007-0.898-2.007-2.007V20.675H17.068v40.882
		c0,1.108-0.898,2.007-2.006,2.007c-1.107,0-2.006-0.898-2.006-2.007V18.669c0-1.108,0.899-2.006,2.006-2.006H73.5
		c1.108,0,2.007,0.899,2.007,2.006v42.888C75.507,62.665,74.609,63.564,73.5,63.564z"/>
	<path style="fill:#FFCC3B;" d="M81.526,64.863c-13.29,0-42.136,0-76.689,0l0,0c0-3.438,2.786-6.225,6.224-6.225h64.241
		C78.739,58.639,81.526,61.426,81.526,64.863L81.526,64.863z"/>
	<g>
		<circle style="fill:#403833;" cx="34.165" cy="48.808" r="5.309"/>
		<rect x="33.208" y="20.268" style="fill:#403833;" width="1.916" height="24.349"/>
	</g>
	<g>
		<circle style="fill:#403833;" cx="5.309" cy="37.541" r="5.309"/>
		
			<rect x="16.99" y="14.969" transform="matrix(-0.6351 -0.7724 0.7724 -0.6351 8.3814 58.2457)" style="fill:#403833;" width="1.917" height="24.348"/>
	</g>
	<g>
		<circle style="fill:#403833;" cx="44.784" cy="48.808" r="5.31"/>
		<rect x="43.825" y="20.268" style="fill:#403833;" width="1.916" height="24.349"/>
	</g>
	<g>
		<circle style="fill:#403833;" cx="55.402" cy="48.808" r="5.309"/>
		<rect x="54.443" y="20.268" style="fill:#403833;" width="1.917" height="24.349"/>
	</g>
	<g>
		<circle style="fill:#403833;" cx="66.02" cy="48.808" r="5.309"/>
		<rect x="65.062" y="20.268" style="fill:#403833;" width="1.917" height="24.349"/>
	</g>
</g>
</svg>