<?xml version="1.0" encoding="utf-8"?>
<!-- Uploaded to: SVG Repo, www.svgrepo.com, Generator: SVG Repo Mixer Tools -->
<svg width="800px" height="800px" viewBox="0 0 1024 1024" class="icon"  version="1.1" xmlns="http://www.w3.org/2000/svg"><path d="M993.763 493.538v35c0 13.331-6.04 26.664-18.135 37.137-140.149 121.422-280.35 242.795-420.49 364.219-11.813 10.237-25.813 15.501-42.454 15.501v-35c16.644 0 30.641-5.264 42.454-15.501C695.28 773.47 835.474 652.092 975.628 530.677c12.095-10.475 18.135-23.803 18.135-37.139z" fill="#48BDC5" /><path d="M30.239 528.367v-3.5-1.75-3.5-3.5-1.75-3.5-3.5-1.75-3.5-3.5-1.75-3.5c0 14.707 6.701 29.313 19.037 40.019 138.448 120.064 277.049 239.996 415.562 360.02 13.002 11.26 28.74 16.466 47.853 16.994v35c-19.108-0.528-34.851-5.734-47.853-16.994C326.325 808.382 187.725 688.45 49.276 568.386c-12.337-10.705-19.037-25.312-19.037-40.019z" fill="#48BDC5" /><path d="M510.786 76.601c16.263 0 32.546 5.362 44.946 16.097 139.949 121.188 279.9 242.376 419.818 363.586 24.241 20.995 24.295 53.413 0.079 74.396C835.48 652.101 695.28 773.478 555.141 894.898c-11.814 10.238-25.813 15.502-42.451 15.502-19.109-0.528-34.853-5.734-47.854-16.994C326.324 773.382 187.724 653.45 49.275 533.386c-19.581-16.987-24.96-43.81-11.895-65.251 3.919-6.438 8.669-11.829 14.465-16.849C189.954 331.734 328.024 212.152 466.107 92.567c12.296-10.639 28.478-15.966 44.679-15.966z" fill="#84CEE2" /><path d="M628.762 462.289c4.517 2.673 7.751 5.75 7.707 11.118-0.156 5.693-3.877 8.419-8.21 10.994-30.926 18.314-61.892 36.567-92.839 54.847-22.076 13.035-44.14 26.075-66.214 39.091-3.213 1.795-6.081 2.6-8.827 2.652-4.007-0.041-7.327-1.354-9.902-3.979-2.136-2.35-2.951-5.359-2.964-7.884-0.1-20.039-0.118-40.079-0.118-60.118 0-12.022 0.009-24.047 0.009-36.072 0-15.839 0.026-31.677 0.026-47.514 0-15.839-0.026-31.675-0.138-47.515 0.026-5.25 1.832-9.198 6.833-11.208 2.042-0.795 3.947-1.187 5.861-1.235 3.482 0.046 6.305 0.84 8.999 2.432 53.242 31.484 106.525 62.92 159.777 94.391z m-155.403 85.55c42.417-25.046 84.26-49.75 126.391-74.639-42.123-24.87-83.966-49.583-126.392-74.628l0.001 149.267" fill="#76CADD" /><path d="M447.395 526.654v-16.8c0 19.758 0.02 39.519 0.118 59.274 0.012 2.523 0.827 5.534 2.964 7.884v16.802c-2.136-2.352-2.951-5.361-2.964-7.886-0.099-19.757-0.118-39.515-0.118-59.274z" fill="#6199CF" /><path d="M450.477 577.012v16.8c-2.136-2.35-2.951-5.359-2.964-7.883-0.099-19.758-0.118-39.518-0.118-59.275v-16.799c0 19.758 0.02 39.518 0.118 59.275 0.012 2.521 0.828 5.533 2.964 7.882" fill="#6199CF" /><path d="M469.206 578.338v16.8c-3.213 1.795-6.081 2.601-8.827 2.652v-16.8c2.746-0.053 5.614-0.857 8.827-2.652z" fill="#6199CF" /><path d="M469.206 578.338v16.8a23.695 23.695 0 0 1-3.413 1.592v-16.8c1.1-0.407 2.231-0.932 3.413-1.592" fill="#6199CF" /><path d="M465.794 579.928v16.8a17.332 17.332 0 0 1-3.634 0.922v-16.802a17.14 17.14 0 0 0 3.634-0.92" fill="#6199CF" /><path d="M462.161 580.85v16.801c-0.603 0.083-1.195 0.13-1.782 0.141v-16.8c0.587-0.014 1.18-0.06 1.782-0.142" fill="#6199CF" /><path d="M460.379 580.989v16.8c-4.007-0.041-7.327-1.354-9.902-3.979v-16.8c2.575 2.627 5.895 3.938 9.902 3.979z" fill="#6199CF" /><path d="M460.379 580.989v16.8c-4.007-0.041-7.327-1.354-9.902-3.979v-16.8c2.575 2.627 5.895 3.938 9.902 3.979" fill="#6199CF" /><path d="M511.711 298.27c113.048 0.114 201.095 77.675 202.831 174.906a155.36 155.36 0 0 1-0.108 3.687 152.504 152.504 0 0 1-0.305 5.394c-6.837 92.992-92.876 165.576-201.261 165.877-113.269-0.112-202.677-77.675-202.677-174.905-0.008-97.368 89.508-174.751 201.52-174.959z m124.751 175.394c0.048-5.624-3.185-8.702-7.7-11.375-53.252-31.472-106.536-62.905-159.775-94.392-2.693-1.592-5.516-2.387-8.33-2.435-2.583 0.051-4.486 0.442-6.338 1.164-5.191 2.086-7 6.034-7.026 11.045 0.112 16.079 0.138 31.916 0.138 47.753 0 15.836-0.026 31.675-0.026 47.515 0 12.023-0.009 24.049-0.009 36.071 0 20.039 0.02 40.079 0.119 60.118 0.012 2.524 0.827 5.534 2.56 7.455 2.979 3.055 6.297 4.364 9.842 4.408 3.209-0.055 6.076-0.857 8.828-2.391 22.538-13.277 44.602-26.32 66.677-39.354 30.946-18.279 61.913-36.531 92.839-54.848 4.332-2.572 8.052-5.297 8.201-10.734" fill="#B8E0E8" /><path d="M714.543 473.174v16.8a155.606 155.606 0 0 1-0.107 3.688c-0.07 1.805-0.174 3.6-0.305 5.392-6.838 92.994-92.876 165.578-201.262 165.876-113.268-0.11-202.677-77.674-202.677-174.904v-16.801c0 97.23 89.409 174.792 202.677 174.904 108.386-0.301 194.424-72.885 201.262-165.877a162.685 162.685 0 0 0 0.412-9.078z" fill="#6199CF" /><path d="M714.543 473.174v16.8a172.941 172.941 0 0 1-0.266 6.927V480.1a172.524 172.524 0 0 0 0.266-6.926M714.274 480.102v16.801c-0.044 0.721-0.092 1.436-0.146 2.151-2.609 35.515-16.772 68.054-39.321 94.725v-16.801c22.549-26.671 36.712-59.21 39.321-94.724 0.056-0.715 0.102-1.433 0.146-2.152" fill="#6199CF" /><path d="M674.809 576.978v16.801c-12.053 14.259-26.501 26.84-42.863 37.304v-16.8c16.362-10.467 30.81-23.049 42.863-37.305M631.944 614.278v16.8c-12.464 7.973-26.039 14.716-40.512 20.034V634.31c14.473-5.317 28.048-12.058 40.512-20.032" fill="#6199CF" /><path d="M591.434 634.312v16.802c-14.81 5.44-30.557 9.394-47.014 11.642v-16.801c16.457-2.249 32.204-6.202 47.014-11.643M544.42 645.953v16.801a237.92 237.92 0 0 1-31.551 2.176c-113.268-0.11-202.677-77.674-202.677-174.904v-16.801c0 97.23 89.409 174.792 202.677 174.904 10.756-0.03 21.29-0.772 31.551-2.176" fill="#6199CF" /><path d="M512.263 275.38c125.037 0.341 229.708 89.688 227.966 197.925 1.639 108.048-103.053 197.714-228.084 197.714-124.988-0.146-228.665-89.73-228.391-198.316 0.281-107.659 103.323-197.323 228.509-197.323z m202.173 201.481c0.05-1.228 0.088-2.454 0.107-3.688-1.733-97.23-89.784-174.792-202.166-174.906-112.688 0.201-202.194 77.587-202.182 174.958 0 97.23 89.406 174.792 201.792 174.906 109.278-0.293 195.306-72.878 202.143-165.878 0.133-1.789 0.234-3.586 0.306-5.392" fill="#65C4E2" /><path d="M473.359 398.571c42.427 25.045 84.268 49.759 126.391 74.628a896595.157 896595.157 0 0 1-126.392 74.639l0.001-149.267z" fill="#C4E6EC" /><path d="M740.226 473.305v16.8c1.642 108.05-103.05 197.715-228.081 197.715-124.988-0.146-228.665-89.731-228.391-198.317v-16.8c-0.271 108.588 103.402 198.171 228.391 198.316 125.031 0.002 229.721-89.665 228.081-197.714z" fill="#6199CF" /><path d="M740.226 473.305v16.8c0.066 4.257-0.033 8.485-0.295 12.682v-16.8c0.259-4.197 0.359-8.424 0.295-12.682M739.931 485.986v16.8c-2.376 38.338-18.099 73.932-43.147 103.451v-16.801c25.048-29.52 40.769-65.112 43.147-103.45M696.781 589.436v16.801c-13.821 16.286-30.483 30.724-49.314 42.755v-16.8c18.831-12.032 35.493-26.47 49.314-42.756" fill="#6199CF" /><path d="M647.468 632.19v16.8c-14.479 9.252-30.237 17.077-46.973 23.229v-16.8c16.734-6.15 32.494-13.976 46.973-23.229M600.495 655.42v16.8c-16.871 6.2-34.731 10.694-53.271 13.225v-16.801c18.54-2.53 36.4-7.024 53.271-13.224" fill="#6199CF" /><path d="M547.226 668.646v16.801a259.622 259.622 0 0 1-35.081 2.373c-124.988-0.146-228.665-89.731-228.391-198.317v-16.8c-0.271 108.588 103.402 198.171 228.391 198.316 11.9 0.002 23.621-0.81 35.081-2.373" fill="#6199CF" /></svg>