<?xml version="1.0" encoding="utf-8"?>
<!-- Uploaded to: SVG Repo, www.svgrepo.com, Generator: SVG Repo Mixer Tools -->
<svg height="800px" width="800px" version="1.1" id="Uploaded to svgrepo.com" xmlns="http://www.w3.org/2000/svg" xmlns:xlink="http://www.w3.org/1999/xlink" 
	 viewBox="0 0 32 32" xml:space="preserve">
<style type="text/css">
	.hatch_een{fill:#265AA5;}
	.hatch_twee{fill:#FFC5BB;}
</style>
<g>
	<path class="hatch_twee" d="M5.264,25.991c1.303-0.05,2.318-0.86,2.518-1.102c0.034-0.041,0.571-0.541,0.912-1.359
		c0.001-0.001,0.433-0.933,0.834-1.798L5.264,25.991z M1.676,18.998c0,0,0.493-1.827,0.522-1.936L5,14.259V15
		c0,0.191,0.068,0.36,0.161,0.512L1.676,18.998z M9.254,6.005l-5.579,5.579L3.153,13.52l7.301-7.301
		C10.07,6.101,9.673,6.025,9.254,6.005z M26.992,12.264c0.295,0.169,0.538,0.41,0.714,0.7l0.781-0.778l-0.3-1.114L26.992,12.264z
		 M24.013,24.659l6.174-6.173l-0.3-1.114l-6.446,6.446C23.597,24.124,23.787,24.406,24.013,24.659z M24.896,10.363
		C24.963,10.562,25,10.779,25,11c0,0.323-0.07,0.61-0.207,0.881l2.81-2.812c-0.139-0.32-0.308-0.619-0.506-0.902L24.896,10.363z
		 M22.657,6.012c-0.713,0.052-1.38,0.243-1.977,0.565L13,14.259V15c0,0.552-0.448,1-1,1h-0.741L11,16.259V17c0,0.552-0.448,1-1,1
		H9.259l-6.887,6.887c0.002,0.002,0.004,0.003,0.006,0.005c0.245,0.229,0.513,0.429,0.799,0.595
		c0.002,0.001,0.004,0.002,0.006,0.003L22.657,6.012z M18.088,14.586C18.031,14.402,18,14.202,18,14c0-0.383,0.102-0.708,0.279-1.02
		L10.259,21h1.414L18.088,14.586z M10,10c0.191,0,0.36,0.068,0.512,0.161l2.578-2.579c-0.329-0.126-0.643-0.282-0.941-0.472
		L9.259,10H10z M7,17v-0.741l-5.988,5.988c0.013,0.174,0.041,0.351,0.085,0.532C1.1,22.789,1.102,22.8,1.104,22.81
		c0.046,0.184,0.102,0.378,0.186,0.571l5.871-5.869C7.068,17.36,7,17.191,7,17z M21.266,17.993L18.259,21h1.414l2.29-2.29
		C21.673,18.534,21.435,18.287,21.266,17.993z M30.986,21.684c-0.017-0.192-0.047-0.376-0.089-0.56
		c-0.001-0.004-0.059-0.221-0.156-0.58c-0.002-0.007-0.004-0.014-0.006-0.021l-5.201,5.2c0.362,0.142,0.747,0.232,1.152,0.262
		L30.986,21.684z M29.337,15.336c-0.101-0.375-0.202-0.748-0.3-1.114l-6.864,6.864l0.448,0.966L29.337,15.336z M15.261,7.998
		L11.259,12H12c0.191,0,0.36,0.068,0.512,0.161l4.162-4.164C16.629,7.999,16.592,8,16.546,8h-1.093
		C15.393,8,15.322,7.999,15.261,7.998z M24.888,6.372l-2.905,2.907C22.287,9.092,22.617,9,23,9c0.202,0,0.401,0.033,0.585,0.089
		L25.8,6.872C25.514,6.675,25.212,6.506,24.888,6.372z M21.796,14.878l2.081-2.084C23.606,12.931,23.323,13,23,13
		c-0.221,0-0.439-0.039-0.638-0.106l-0.467,0.472C21.962,13.565,22,13.779,22,14C22,14.323,21.932,14.608,21.796,14.878z M15.673,21
		l5.201-5.201C20.572,15.931,20.323,16,20,16c-0.221,0-0.438-0.037-0.637-0.104L14.259,21H15.673z M18.98,12.28
		c0.305-0.181,0.661-0.273,1.02-0.28c0.202-0.004,0.402,0.03,0.587,0.087l0.499-0.501C21.029,11.401,20.998,11.202,21,11
		c0.005-0.391,0.089-0.673,0.277-1.016L18.98,12.28z M24.267,14.993L24,15.268c0.295,0.169,0.534,0.407,0.71,0.697l0.254-0.258
		C24.674,15.532,24.436,15.288,24.267,14.993z"/>
	<g>
		<path class="hatch_een" d="M23,15c-1.103,0-2,0.897-2,2s0.897,2,2,2s2-0.897,2-2S24.103,15,23,15z M23,18c-0.552,0-1-0.448-1-1
			s0.448-1,1-1c0.552,0,1,0.448,1,1S23.552,18,23,18z"/>
		<path class="hatch_een" d="M12,12h-1v-1c0-0.552-0.448-1-1-1H8c-0.552,0-1,0.448-1,1v1H6c-0.552,0-1,0.448-1,1v2
			c0,0.552,0.448,1,1,1h1v1c0,0.552,0.448,1,1,1h2c0.552,0,1-0.448,1-1v-1h1c0.552,0,1-0.448,1-1v-2C13,12.448,12.552,12,12,12z
			 M12,15h-2v2H8v-2H6v-2h2v-2h2v2h2V15z"/>
		<path class="hatch_een" d="M31.873,20.906c-0.005-0.026-0.005-0.026-1.692-6.279c-0.641-2.376-1.237-4.583-1.307-4.846
			c-0.166-0.802-0.506-1.563-1.012-2.266c-0.043-0.075-0.095-0.144-0.154-0.206C26.558,5.84,24.848,5,23,5
			c-1.26,0-2.467,0.393-3.49,1.135C18.526,6.85,17.355,7,16.546,7h-1.093c-0.809,0-1.979-0.15-2.963-0.865C11.467,5.393,10.26,5,9,5
			C7.16,5,5.457,5.833,4.307,7.29C4.226,7.368,4.158,7.459,4.107,7.559C3.618,8.25,3.288,8.996,3.126,9.781
			c-0.07,0.263-0.666,2.47-1.307,4.846c-1.687,6.253-1.687,6.253-1.697,6.301c-0.3,1.339-0.049,2.577,0.771,3.765
			C1.891,26.137,3.429,27,5.008,27c0.004,0,0.048,0,0.052,0c2.001-0.024,3.79-1.236,4.557-3.088
			c0.005-0.008,0.367-0.789,0.888-1.912h10.988c0.521,1.124,0.885,1.908,0.903,1.946c0.753,1.818,2.541,3.03,4.542,3.054
			c0.004,0,0.048,0,0.052,0c1.579,0,3.117-0.863,4.115-2.307C31.927,23.505,32.178,22.266,31.873,20.906z M30.284,24.124
			C29.528,25.219,28.319,26,26.992,26c-0.013,0-0.027,0-0.04,0c-1.646-0.02-3.05-1.035-3.645-2.471
			c-0.004-0.009-0.5-1.077-1.173-2.529H9.867c-0.673,1.452-1.169,2.52-1.173,2.529C8.099,24.965,6.695,25.98,5.049,26
			c-0.013,0-0.027,0-0.04,0c-1.328,0-2.537-0.781-3.292-1.876c-0.775-1.122-0.814-2.105-0.613-3
			c0.006-0.03,2.991-11.086,2.997-11.115C4.247,9.275,4.569,8.61,5,8.031L5.022,8C5.934,6.792,7.369,6,9,6
			c1.087,0,2.087,0.352,2.903,0.945C12.923,7.686,14.193,8,15.454,8h1.093c1.261,0,2.531-0.314,3.551-1.055
			C20.913,6.352,21.913,6,23,6c1.631,0,3.066,0.792,3.978,2L27,8.031c0.431,0.579,0.753,1.245,0.9,1.979
			c0.006,0.029,2.991,11.086,2.997,11.115C31.098,22.019,31.059,23.002,30.284,24.124z"/>
		<path class="hatch_een" d="M23,13c1.103,0,2-0.897,2-2s-0.897-2-2-2s-2,0.897-2,2S21.897,13,23,13z M23,10c0.552,0,1,0.448,1,1
			s-0.448,1-1,1c-0.552,0-1-0.448-1-1S22.448,10,23,10z"/>
		<path class="hatch_een" d="M22,14c0-1.103-0.897-2-2-2s-2,0.897-2,2s0.897,2,2,2S22,15.103,22,14z M20,15c-0.552,0-1-0.448-1-1
			s0.448-1,1-1c0.552,0,1,0.448,1,1S20.552,15,20,15z"/>
		<path class="hatch_een" d="M26,12c-1.103,0-2,0.897-2,2s0.897,2,2,2s2-0.897,2-2S27.103,12,26,12z M26,15c-0.552,0-1-0.448-1-1
			s0.448-1,1-1c0.552,0,1,0.448,1,1S26.552,15,26,15z"/>
	</g>
</g>
</svg>