<?xml version="1.0" encoding="utf-8"?><!-- Uploaded to: SVG Repo, www.svgrepo.com, Generator: SVG Repo Mixer Tools -->
<svg fill="#000000" width="800px" height="800px" viewBox="0 0 24 24" id="cube" data-name="Flat Color" xmlns="http://www.w3.org/2000/svg" class="icon flat-color"><path id="primary" d="M20.35,5.06l-8-3a1.05,1.05,0,0,0-.7,0l-8,3A1,1,0,0,0,3,6V18a1,1,0,0,0,.65.94l8,3a1.05,1.05,0,0,0,.7,0l8-3A1,1,0,0,0,21,18V6A1,1,0,0,0,20.35,5.06Z" style="fill: rgb(0, 0, 0);"></path><path id="secondary" d="M21,5.71h0l-8.6,3.22a1.05,1.05,0,0,1-.7,0L3.05,5.71a1,1,0,0,1,.6-.65l8-3a1.05,1.05,0,0,1,.7,0l8,3A1,1,0,0,1,21,5.71Z" style="fill: rgb(44, 169, 188);"></path></svg>