<?xml version="1.0" encoding="iso-8859-1"?>
<!-- Uploaded to: SVG Repo, www.svgrepo.com, Generator: SVG Repo Mixer Tools -->
<svg height="800px" width="800px" version="1.1" id="Layer_1" xmlns="http://www.w3.org/2000/svg" xmlns:xlink="http://www.w3.org/1999/xlink" 
	 viewBox="0 0 448.002 448.002" xml:space="preserve">
<g transform="translate(0 -1020.36)" shape-rendering="auto" image-rendering="auto" color-rendering="auto" color-interpolation="sRGB">
	<path style="fill:#5A3392;" d="M424.031,1196.342v9.125l-238.812-0.961c-7.434,0-14.81,0.992-21.875,3.283l-14.5,4.754
		c-11.633,2.588-21.321,0.961-31.906-1.658c-10.703-2.66-22.261-6.5-36.125-6.5H1.906c17.783,31.344,7.115,70.242-1.906,96.031
		l124.75-17.936c16.113-2.311,27.338-10.551,35.719-22.094h46.719c-2.178,12.383-5.635,25.49-13.344,35.063
		c-2.767,3.445-2.217,8.48,1.228,11.248c0.595,0.477,1.254,0.867,1.959,1.158l40.031,15.938c4.095,1.66,8.76-0.314,10.42-4.41
		c0.132-0.324,0.242-0.656,0.33-0.996l15.937-64.031c0.011-0.059,0.022-0.117,0.032-0.176c11.002-4.996,20.702-12.791,27.844-22.969
		h0.126l7.844-10.281l148.406,0.607V1205.6h-8.031v-9.189h-15.937L424.031,1196.342z"/>
	<g>
		<path style="fill:#FB9761;" d="M27.125,1220.09l53.688,0.367c10.817,0,20.772,3.156,32.219,5.998
			c11.447,2.844,24.522,5.141,39.688,1.658l0.375-0.16l3.875-1.279c-6.226,18.078-14.582,37.053-34.469,39.906l-97.156,14.406
			c6.377-19.641,8.538-39.484,1.782-60.938L27.125,1220.09z"/>
		<path style="fill:#FB9761;" d="M279.562,1220.797l-0.813,1.072l-0.126,0.16c-9.822,14.045-25.83,22.438-42.969,22.438h-66.125
			c3.284-7.287,6.031-15.18,8.406-23.406c33.713-1.039,67.808-0.367,101.627-0.24L279.562,1220.797z"/>
	</g>
	<path style="fill:#FFFFFF;" d="M246,1259.499l-11.531,45.998l-24.688-9.813c6.507-11.801,11.403-24.408,13.531-35.313h12.344
		c3.501,0,6.939-0.367,10.344-0.881V1259.499z"/>
	<path style="fill:#5A3392;" d="M264,1164.34v8.031h-88v15.938h88v8.031h16.062v-32H264z"/>
	<g>
		<path style="fill:#EE746C;" d="M151.5,1240.622l-120.625,12.846c-0.68,9.309-2.582,18.479-5.531,27.563l97.156-14.406
			c14.727-2.111,23.102-13.115,29-26V1240.622z"/>
		<path style="fill:#EE746C;" d="M269.031,1232.184l-95.781,2.938c-1.176,3.168-2.374,6.328-3.719,9.313h66.125
			C248.032,1244.434,259.738,1239.905,269.031,1232.184z"/>
	</g>
	<path style="fill:#EBFEFF;" d="M246,1259.497c-3.405,0.512-6.842,0.881-10.344,0.881h-2.125l-10.219,40.688l11.156,4.438l11.531-46
		V1259.497z"/>
</g>
</svg>