<?xml version="1.0" encoding="iso-8859-1"?>
<!-- Uploaded to: SVG Repo, www.svgrepo.com, Generator: SVG Repo Mixer Tools -->
<svg height="800px" width="800px" version="1.1" id="Layer_1" xmlns="http://www.w3.org/2000/svg" xmlns:xlink="http://www.w3.org/1999/xlink" 
	 viewBox="0 0 512 512" xml:space="preserve">
<g>
	<polygon style="fill:#CEE8FA;" points="97.409,61.893 255.999,61.893 149.583,193.179 	"/>
	<polygon style="fill:#CEE8FA;" points="414.589,61.893 255.999,61.893 362.415,193.179 	"/>
	<polygon style="fill:#CEE8FA;" points="146.993,194.664 255.999,446.434 365.006,194.664 	"/>
</g>
<path style="fill:#2D527C;" d="M511.985,194.034c0.017-2.515-0.654-5.029-2.054-7.225L425.782,54.76
	c-0.038-0.061-0.085-0.114-0.123-0.174c-0.032-0.048-0.054-0.1-0.086-0.146c-0.066-0.098-0.147-0.183-0.216-0.279
	c-0.202-0.281-0.411-0.555-0.63-0.816c-0.107-0.127-0.216-0.252-0.329-0.376c-0.249-0.275-0.508-0.535-0.776-0.784
	c-0.096-0.089-0.187-0.181-0.284-0.265c-0.76-0.668-1.585-1.24-2.458-1.708c-0.1-0.053-0.202-0.098-0.303-0.149
	c-0.337-0.17-0.681-0.328-1.03-0.468c-0.147-0.06-0.296-0.114-0.445-0.169c-0.328-0.118-0.66-0.222-0.995-0.315
	c-0.146-0.04-0.292-0.084-0.439-0.119c-0.472-0.113-0.948-0.206-1.429-0.267c-0.005,0-0.009-0.001-0.015-0.003
	c-0.502-0.062-1.007-0.089-1.514-0.093c-0.04,0-0.078-0.007-0.118-0.007H255.999H97.409c-4.398,0-8.511,2.179-10.981,5.818
	c-2.47,3.64-2.977,8.267-1.352,12.355l45.255,113.875H37.457l29.313-46.001c3.939-6.182,2.122-14.385-4.06-18.324
	c-6.182-3.939-14.384-2.123-18.324,4.06L2.069,186.81c-1.403,2.2-2.074,4.717-2.054,7.236c-0.162,3.486,1.033,7.031,3.626,9.761
	l242.738,255.441c0.072,0.076,0.151,0.139,0.224,0.212c0.077,0.077,0.145,0.161,0.223,0.236c0.098,0.093,0.203,0.173,0.303,0.263
	c0.161,0.145,0.321,0.287,0.487,0.422c0.183,0.15,0.37,0.291,0.559,0.429c0.17,0.125,0.34,0.248,0.515,0.364
	c0.199,0.131,0.402,0.252,0.605,0.372c0.173,0.101,0.344,0.204,0.52,0.297c0.218,0.115,0.441,0.218,0.664,0.32
	c0.17,0.078,0.338,0.159,0.511,0.23c0.24,0.098,0.484,0.18,0.729,0.264c0.162,0.056,0.322,0.117,0.487,0.165
	c0.265,0.08,0.535,0.141,0.804,0.203c0.147,0.035,0.293,0.076,0.443,0.105c0.301,0.058,0.604,0.098,0.908,0.135
	c0.121,0.015,0.242,0.038,0.362,0.05c0.425,0.041,0.851,0.064,1.277,0.064h0.001h0.001c0.425,0,0.849-0.023,1.273-0.062
	c0.119-0.012,0.239-0.036,0.358-0.05c0.303-0.037,0.605-0.076,0.905-0.134c0.15-0.029,0.297-0.07,0.446-0.105
	c0.267-0.061,0.534-0.122,0.796-0.2c0.165-0.049,0.326-0.11,0.488-0.165c0.242-0.082,0.483-0.163,0.721-0.26
	c0.174-0.07,0.344-0.153,0.515-0.23c0.22-0.101,0.439-0.2,0.656-0.315c0.178-0.093,0.35-0.196,0.524-0.297
	c0.202-0.118,0.402-0.236,0.6-0.366c0.175-0.115,0.345-0.239,0.515-0.362c0.188-0.137,0.374-0.276,0.557-0.425
	c0.165-0.134,0.324-0.273,0.483-0.415c0.1-0.089,0.206-0.169,0.304-0.261c0.08-0.076,0.149-0.159,0.226-0.238
	c0.073-0.073,0.151-0.135,0.223-0.21l122.146-127.72c5.066-5.297,4.879-13.698-0.418-18.765c-5.298-5.067-13.699-4.877-18.765,0.418
	l-73.842,77.211l79.323-183.21h94.601l-36.481,38.638c-5.033,5.33-4.791,13.73,0.539,18.761c2.564,2.422,5.84,3.622,9.108,3.622
	c3.525,0,7.042-1.395,9.653-4.161l56.933-60.299C510.965,201.045,512.15,197.509,511.985,194.034z M255.999,83.044l78.675,97.626
	h-157.35L255.999,83.044z M137.964,207.214l79.065,182.616L43.495,207.214H137.964z M417.34,90.907l57.203,89.764h-92.875
	L417.34,90.907z M395.033,75.165l-36.581,92.048l-74.611-92.048H395.033z M228.158,75.165l-74.611,92.048l-36.581-92.048H228.158z
	 M255.999,413.03l-88.797-205.094h177.595L255.999,413.03z"/>
</svg>