<?xml version="1.0" encoding="iso-8859-1"?>
<!-- Uploaded to: SVG Repo, www.svgrepo.com, Generator: SVG Repo Mixer Tools -->
<svg version="1.1" id="Layer_1" xmlns="http://www.w3.org/2000/svg" xmlns:xlink="http://www.w3.org/1999/xlink" 
	 viewBox="0 0 512 512" xml:space="preserve">
<rect x="20.077" y="391.731" style="fill:#CEE8FA;" width="471.844" height="76.536"/>
<path style="fill:#2D527C;" d="M491.924,483.81H20.076c-8.588,0-15.553-6.963-15.553-15.553v-76.534
	c0-8.59,6.965-15.553,15.553-15.553h471.849c8.588,0,15.553,6.963,15.553,15.553v76.534
	C507.477,476.847,500.513,483.81,491.924,483.81z M35.629,452.705h440.743v-45.428H35.629V452.705z"/>
<rect x="20.077" y="43.735" style="fill:#CEE8FA;" width="471.844" height="76.536"/>
<path style="fill:#2D527C;" d="M491.924,135.83H20.076c-8.588,0-15.553-6.963-15.553-15.553V43.743
	c0-8.59,6.965-15.553,15.553-15.553h471.849c8.588,0,15.553,6.963,15.553,15.553v76.534
	C507.477,128.867,500.513,135.83,491.924,135.83z M35.629,104.724h440.743V59.295H35.629V104.724z"/>
<circle style="fill:#CEE8FA;" cx="66.626" cy="256.001" r="51.073"/>
<g>
	<path style="fill:#2D527C;" d="M66.626,322.626C29.888,322.626,0,292.738,0,256.001s29.888-66.626,66.626-66.626
		s66.627,29.888,66.627,66.626C133.253,292.738,103.363,322.626,66.626,322.626z M66.626,220.479
		c-19.586,0-35.52,15.934-35.52,35.521s15.934,35.52,35.52,35.52c19.587,0,35.521-15.934,35.521-35.52
		C102.147,236.415,86.213,220.479,66.626,220.479z"/>
	<path style="fill:#2D527C;" d="M256.001,322.626c-36.738,0-66.626-29.888-66.626-66.626c0-36.738,29.888-66.626,66.626-66.626
		c36.737,0,66.626,29.888,66.626,66.626c0,8.59-6.965,15.553-15.553,15.553s-15.553-6.963-15.553-15.553
		c0-19.586-15.934-35.52-35.52-35.52c-19.586,0-35.52,15.934-35.52,35.52c0,19.586,15.934,35.52,35.52,35.52
		c8.588,0,15.553,6.963,15.553,15.553C271.554,315.663,264.589,322.626,256.001,322.626z"/>
</g>
<circle style="fill:#CEE8FA;" cx="445.373" cy="256.001" r="51.073"/>
<path style="fill:#2D527C;" d="M445.374,322.626c-36.738,0-66.627-29.888-66.627-66.626c0-36.738,29.89-66.626,66.627-66.626
	S512,219.263,512,256.001C512,292.738,482.112,322.626,445.374,322.626z M445.374,220.479c-19.587,0-35.521,15.934-35.521,35.52
	s15.934,35.52,35.521,35.52c19.586,0,35.52-15.934,35.52-35.52S464.96,220.479,445.374,220.479z"/>
</svg>