<?xml version="1.0" encoding="iso-8859-1"?>
<!-- Uploaded to: SVG Repo, www.svgrepo.com, Generator: SVG Repo Mixer Tools -->
<svg version="1.1" id="Layer_1" xmlns="http://www.w3.org/2000/svg" xmlns:xlink="http://www.w3.org/1999/xlink" 
	 viewBox="0 0 512 512" xml:space="preserve">
<polygon style="fill:#83C9FF;" points="512,178.087 512,100.174 478.609,100.174 478.609,33.391 445.217,33.391 445.217,0 66.783,0 
	66.783,33.391 33.391,33.391 33.391,100.174 0,100.174 0,178.087 33.391,178.087 33.391,445.217 0,445.217 0,512 512,512 
	512,445.217 478.609,445.217 478.609,178.087 "/>
<polygon style="fill:#FB0023;" points="478.609,100.174 478.609,33.391 445.217,33.391 445.217,0 66.783,0 66.783,33.391 
	33.391,33.391 33.391,100.174 0,100.174 0,178.087 33.391,178.087 33.391,211.478 89.043,211.478 89.043,178.087 122.435,178.087 
	122.435,211.478 189.217,211.478 189.217,178.087 222.609,178.087 222.609,211.478 289.391,211.478 289.391,178.087 
	322.783,178.087 322.783,211.478 389.565,211.478 389.565,178.087 422.957,178.087 422.957,211.478 478.609,211.478 
	478.609,178.087 512,178.087 512,100.174 "/>
<g>
	<rect x="122.435" style="fill:#FFFFFF;" width="66.783" height="211.478"/>
	<rect x="322.783" style="fill:#FFFFFF;" width="66.783" height="211.478"/>
</g>
<g>
	<rect x="100.174" y="244.87" style="fill:#00479B;" width="100.174" height="200.348"/>
	<rect x="233.739" y="244.87" style="fill:#00479B;" width="178.087" height="122.435"/>
</g>
<polygon style="fill:#787680;" points="478.609,445.217 478.609,411.826 33.391,411.826 33.391,445.217 0,445.217 0,512 512,512 
	512,445.217 "/>
<rect y="100.174" width="33.391" height="77.913"/>
<rect x="89.043" y="133.565" width="33.391" height="44.522"/>
<rect x="122.435" y="178.087" width="66.783" height="33.391"/>
<rect x="289.391" y="133.565" width="33.391" height="44.522"/>
<rect x="189.217" y="133.565" width="33.391" height="44.522"/>
<rect x="322.783" y="178.087" width="66.783" height="33.391"/>
<rect x="222.609" y="178.087" width="66.783" height="33.391"/>
<rect x="389.565" y="133.565" width="33.391" height="44.522"/>
<rect x="478.609" y="100.174" width="33.391" height="77.913"/>
<rect x="33.391" y="33.391" width="33.391" height="66.783"/>
<rect x="445.217" y="33.391" width="33.391" height="66.783"/>
<rect x="66.783" width="378.435" height="33.391"/>
<path d="M478.609,178.087h-55.652v33.391h22.261v200.348H66.783V211.478h22.261v-33.391H33.391v267.13h445.217V178.087z"/>
<polygon points="33.391,478.609 33.391,445.217 0,445.217 0,512 512,512 512,445.217 478.609,445.217 478.609,478.609 "/>
</svg>