<?xml version="1.0" encoding="iso-8859-1"?>
<!-- Uploaded to: SVG Repo, www.svgrepo.com, Generator: SVG Repo Mixer Tools -->
<svg version="1.1" id="Layer_1" xmlns="http://www.w3.org/2000/svg" xmlns:xlink="http://www.w3.org/1999/xlink" 
	 viewBox="0 0 512 512" xml:space="preserve">
<polygon style="fill:#57A4FF;" points="495.304,122.435 428.522,122.435 428.522,33.391 395.13,33.391 395.13,0 306.087,0 
	306.087,33.391 272.696,33.391 272.696,66.783 239.304,66.783 239.304,33.391 205.913,33.391 205.913,0 116.87,0 116.87,33.391 
	83.478,33.391 83.478,122.435 16.696,122.435 16.696,222.609 50.087,222.609 50.087,512 461.913,512 461.913,222.609 
	495.304,222.609 "/>
<polygon style="fill:#83C9FF;" points="495.304,122.435 16.696,122.435 16.696,222.609 50.087,222.609 50.087,256 461.913,256 
	461.913,222.609 495.304,222.609 "/>
<polygon style="fill:#FB0023;" points="395.13,33.391 395.13,0 306.087,0 306.087,33.391 272.696,33.391 272.696,66.783 
	239.304,66.783 239.304,33.391 205.913,33.391 205.913,0 116.87,0 116.87,33.391 83.478,33.391 83.478,155.826 205.913,155.826 
	239.304,155.826 272.696,155.826 306.087,155.826 428.522,155.826 428.522,33.391 "/>
<path d="M428.522,122.435V33.391H395.13v89.043H272.696V66.783h-33.391v55.652H116.87V33.391H83.478v89.043H16.696v100.174h33.391
	v-66.783h189.217v66.783H50.087V512h411.826V222.609H272.696v-66.783h189.217v66.783h33.391V122.435H428.522z M83.478,478.609V256
	h155.826v222.609H83.478z M428.522,256v222.609H272.696V256H428.522z"/>
<rect x="116.87" width="89.043" height="33.391"/>
<rect x="306.087" width="89.043" height="33.391"/>
<rect x="205.913" y="33.391" width="33.391" height="33.391"/>
<rect x="272.696" y="33.391" width="33.391" height="33.391"/>
</svg>