<?xml version="1.0" encoding="iso-8859-1"?>
<!-- Uploaded to: SVG Repo, www.svgrepo.com, Generator: SVG Repo Mixer Tools -->
<svg version="1.1" id="Layer_1" xmlns="http://www.w3.org/2000/svg" xmlns:xlink="http://www.w3.org/1999/xlink" 
	 viewBox="0 0 512 512" xml:space="preserve">
<polygon style="fill:#003068;" points="467.478,66.783 467.478,33.391 434.087,33.391 434.087,0 77.913,0 77.913,33.391 
	44.522,33.391 44.522,66.783 11.13,66.783 11.13,311.652 44.522,311.652 44.522,378.435 77.913,378.435 77.913,411.826 
	111.304,411.826 111.304,445.217 144.696,445.217 144.696,478.609 211.478,478.609 211.478,512 300.522,512 300.522,478.609 
	367.304,478.609 367.304,445.217 400.696,445.217 400.696,411.826 434.087,411.826 434.087,378.435 467.478,378.435 
	467.478,311.652 500.87,311.652 500.87,66.783 "/>
<polygon style="fill:#00479B;" points="256,512 256,0 77.913,0 77.913,33.391 44.522,33.391 44.522,66.783 11.13,66.783 
	11.13,311.652 44.522,311.652 44.522,378.435 77.913,378.435 77.913,411.826 111.304,411.826 111.304,445.217 144.696,445.217 
	144.696,478.609 211.478,478.609 211.478,512 "/>
<rect x="211.478" y="478.609" width="89.043" height="33.391"/>
<rect x="144.696" y="445.217" width="66.783" height="33.391"/>
<rect x="300.522" y="445.217" width="66.783" height="33.391"/>
<rect x="434.087" y="311.652" width="33.391" height="66.783"/>
<rect x="111.304" y="411.826" width="33.391" height="33.391"/>
<rect x="367.304" y="411.826" width="33.391" height="33.391"/>
<rect x="77.913" y="378.435" width="33.391" height="33.391"/>
<rect x="400.696" y="378.435" width="33.391" height="33.391"/>
<rect x="11.13" y="66.783" width="33.391" height="244.87"/>
<rect x="467.478" y="66.783" width="33.391" height="244.87"/>
<rect x="44.522" y="311.652" width="33.391" height="66.783"/>
<rect x="77.913" width="356.174" height="33.391"/>
<rect x="44.522" y="33.391" width="33.391" height="33.391"/>
<rect x="434.087" y="33.391" width="33.391" height="33.391"/>
<polygon style="fill:#60DC4D;" points="333.913,122.435 333.913,155.826 300.522,155.826 300.522,189.217 267.13,189.217 
	267.13,222.609 233.739,222.609 233.739,256 189.217,256 189.217,222.609 122.435,222.609 122.435,289.391 155.826,289.391 
	155.826,322.783 189.217,322.783 189.217,356.174 233.739,356.174 233.739,322.783 267.13,322.783 267.13,289.391 300.522,289.391 
	300.522,256 333.913,256 333.913,222.609 367.304,222.609 367.304,189.217 400.696,189.217 400.696,122.435 "/>
</svg>