<?xml version="1.0" encoding="iso-8859-1"?>
<!-- Uploaded to: SVG Repo, www.svgrepo.com, Generator: SVG Repo Mixer Tools -->
<svg version="1.1" id="Layer_1" xmlns="http://www.w3.org/2000/svg" xmlns:xlink="http://www.w3.org/1999/xlink" 
	 viewBox="0 0 512 512" xml:space="preserve">
<polygon style="fill:#57A4FF;" points="478.609,445.217 478.609,311.652 445.217,311.652 445.217,278.261 411.826,278.261 
	411.826,178.087 378.435,178.087 378.435,144.696 311.652,144.696 311.652,111.304 378.435,111.304 378.435,0 211.478,0 
	211.478,111.304 278.261,111.304 278.261,144.696 133.565,144.696 133.565,178.087 100.174,178.087 100.174,278.261 66.783,278.261 
	66.783,311.652 33.391,311.652 33.391,445.217 0,445.217 0,512 512,512 512,445.217 "/>
<rect x="211.478" style="fill:#FFDE46;" width="166.957" height="111.304"/>
<polygon style="fill:#57565C;" points="478.609,445.217 478.609,411.826 33.391,411.826 33.391,445.217 0,445.217 0,512 512,512 
	512,445.217 "/>
<polygon points="478.609,445.217 478.609,311.652 445.217,311.652 445.217,411.826 66.783,411.826 66.783,311.652 33.391,311.652 
	33.391,445.217 "/>
<polygon points="478.609,445.217 478.609,478.609 33.391,478.609 33.391,445.217 0,445.217 0,512 512,512 512,445.217 "/>
<rect x="66.783" y="278.261" width="33.391" height="33.391"/>
<rect x="100.174" y="178.087" width="33.391" height="100.174"/>
<rect x="411.826" y="278.261" width="33.391" height="33.391"/>
<rect x="378.435" y="178.087" width="33.391" height="100.174"/>
<path d="M378.435,178.087v-33.391h-66.783v-33.391h66.783V0H211.478v111.304h66.783v33.391H133.565v33.391H378.435z M244.87,77.913
	V33.391h100.174v44.522H244.87z"/>
<rect x="166.957" y="211.478" style="fill:#00479B;" width="178.087" height="66.783"/>
<g>
	<rect x="111.304" y="345.043" style="fill:#FFDE46;" width="66.783" height="33.391"/>
	<rect x="345.043" y="345.043" style="fill:#FFDE46;" width="66.783" height="33.391"/>
	<rect x="222.609" y="345.043" style="fill:#FFDE46;" width="66.783" height="33.391"/>
</g>
</svg>