<?xml version="1.0" encoding="iso-8859-1"?>
<!-- Uploaded to: SVG Repo, www.svgrepo.com, Generator: SVG Repo Mixer Tools -->
<svg fill="#000000" height="800px" width="800px" version="1.1" id="Capa_1" xmlns="http://www.w3.org/2000/svg" xmlns:xlink="http://www.w3.org/1999/xlink" 
	 viewBox="0 0 490 490" xml:space="preserve">
<g>
	<g>
		<path d="M245,0C109.5,0,0,109.5,0,245s109.5,245,245,245s245-109.5,245-245S380.5,0,245,0z M245,449.3
			c-112.6,0-204.3-91.7-204.3-204.3S132.4,40.7,245,40.7S449.3,132.4,449.3,245S357.6,449.3,245,449.3z"/>
		<path d="M314.9,288.8c-38.6,38.6-100.1,38.6-138.7,0c-8.3-8.3-20.9-8.3-29.2,0s-8.3,20.9,0,29.2c27.1,27.1,62.6,40.7,98,40.7
			s70.9-13.6,99-40.7c8.3-8.3,8.3-20.9,0-29.2C335.7,280.4,323.2,280.4,314.9,288.8z"/>
		<circle cx="155.3" cy="189.7" r="21"/>
		<circle cx="334.7" cy="189.7" r="21"/>
	</g>
</g>
</svg>