<?xml version="1.0" encoding="utf-8"?>
<!-- Uploaded to: SVG Repo, www.svgrepo.com, Generator: SVG Repo Mixer Tools -->
<svg width="800px" height="800px" viewBox="0 0 1024 1024" class="icon"  version="1.1" xmlns="http://www.w3.org/2000/svg"><path d="M277.333333 789.333333a21.333333 21.333333 0 0 0-21.333333-21.333333H192a21.333333 21.333333 0 0 0-21.333333 21.333333v106.666667a21.333333 21.333333 0 0 0 21.333333 21.333333h64a21.333333 21.333333 0 0 0 21.333333-21.333333v-106.666667zM853.333333 789.333333a21.333333 21.333333 0 0 0-21.333333-21.333333h-64a21.333333 21.333333 0 0 0-21.333333 21.333333v106.666667a21.333333 21.333333 0 0 0 21.333333 21.333333h64a21.333333 21.333333 0 0 0 21.333333-21.333333v-106.666667z" fill="#6D4C41" /><path d="M768 640H256s71.658667-192 85.333333-213.333333 35.669333-21.333333 42.666667-21.333334h256c4.565333 0 29.994667-0.661333 42.666667 21.333334 10.752 18.688 85.333333 213.333333 85.333333 213.333333z" fill="#E3F2FD" /><path d="M810.666667 618.666667l-298.666667-21.333334-298.666667 21.333334a42.666667 42.666667 0 0 0-42.666666 42.666666v170.666667a21.333333 21.333333 0 0 0 21.333333 21.333333h640a21.333333 21.333333 0 0 0 21.333333-21.333333v-170.666667a42.666667 42.666667 0 0 0-42.666666-42.666666z" fill="#FF3D00" /><path d="M640 426.666667c7.232 0 44.437333 2.837333 67.114667 58.709333 4.544 11.157333 42.581333 106.432 42.581333 106.453333L760.426667 618.666667H263.594667l10.709333-26.901334c12.842667-32.277333 38.229333-95.978667 42.389333-106.026666C339.562667 430.912 373.994667 426.666667 384 426.666667h256m0.064-42.666667H640 384c-6.997333 0-71.104 0-106.666667 85.333333-5.418667 13.013333-42.666667 106.666667-42.666666 106.666667H149.333333a21.333333 21.333333 0 0 0-21.333333 21.333333v42.666667a21.333333 21.333333 0 0 0 21.333333 21.333333h725.333334a21.333333 21.333333 0 0 0 21.333333-21.333333v-42.666667a21.333333 21.333333 0 0 0-21.333333-21.333333h-85.333334s-38.122667-95.488-42.666666-106.666667c-34.666667-85.333333-100.224-85.333333-106.666667-85.333333h-0.128 0.192z" fill="#FF3D00" /><path d="M810.666667 746.666667a21.333333 21.333333 0 0 1-21.333334 21.333333H234.666667a21.333333 21.333333 0 0 1-21.333334-21.333333v-64a21.333333 21.333333 0 0 1 21.333334-21.333334h554.666666a21.333333 21.333333 0 0 1 21.333334 21.333334v64z" fill="#37474F" /><path d="M266.666667 714.666667m-32 0a32 32 0 1 0 64 0 32 32 0 1 0-64 0Z" fill="#FFF176" /><path d="M757.333333 714.666667m-32 0a32 32 0 1 0 64 0 32 32 0 1 0-64 0Z" fill="#FFF176" /><path d="M704 234.666667H426.666667V149.333333h106.666666v42.666667l42.666667-42.666667h42.666667v42.666667l42.666666-42.666667h42.666667l42.666667 21.290667V213.333333z" fill="#FFA000" /><path d="M384 85.333333c-58.922667 0-106.666667 47.744-106.666667 106.666667s47.744 106.666667 106.666667 106.666667 106.666667-47.744 106.666667-106.666667-47.744-106.666667-106.666667-106.666667z m-42.666667 128a21.333333 21.333333 0 1 1 0-42.666666 21.333333 21.333333 0 1 1 0 42.666666z" fill="#FFA000" /><path d="M533.333333 234.666667V149.333333h-51.669333a105.792 105.792 0 0 1 0 85.333334H533.333333z" fill="#D67C05" /></svg>