<?xml version="1.0" encoding="iso-8859-1"?>
<!-- Uploaded to: SVG Repo, www.svgrepo.com, Generator: SVG Repo Mixer Tools -->
<svg height="800px" width="800px" version="1.1" id="Layer_1" xmlns="http://www.w3.org/2000/svg" xmlns:xlink="http://www.w3.org/1999/xlink" 
	 viewBox="0 0 512 512" xml:space="preserve">
<path style="fill:#AEB5CA;" d="M40.001,216C40.001,431.999,256,503.999,256,503.999s215.999-71,215.999-287.999V112.062
	c0-17.686-14.337-32.023-32.023-32.023H372c-50.073,0-93.628-30.954-116-72.038c-22.371,41.084-65.927,72.038-116,72.038H72.023
	C54.338,80.039,40,94.377,40,112.062V216H40.001z"/>
<path style="fill:#FFD782;" d="M440,112.062l-68-0.023c-44.152,0-85.668-20.782-116-51.124c-30.332,30.342-71.847,51.124-116,51.124
	H72.023L72,216.001c0,78.937,31.925,145.918,94.888,199.075c35.689,30.133,72.039,47.443,89.179,54.633
	c17.092-7.1,53.423-24.255,89.091-54.293c62.931-52.995,94.841-120.089,94.841-199.415V112.062H440z"/>
<path style="fill:#FFC36E;" d="M112.962,216l0.023-103.962H72.024L72.001,216c0,78.937,31.925,145.918,94.888,199.075
	c35.689,30.133,72.039,47.443,89.179,54.633c2.622-1.089,5.701-2.417,9.157-3.99C176.694,424.294,112.962,320.044,112.962,216z"/>
<path d="M439.976,72.038h-67.977c-43.749,0-86.524-26.638-108.973-67.863C261.626,1.601,258.93,0,256,0
	c-2.93,0-5.626,1.602-7.027,4.174C226.525,45.4,183.751,72.037,140,72.037H72.024C49.955,72.037,32,89.992,32,112.061V216
	c0,50.622,11.684,97.71,34.727,139.955c18.4,33.733,44.021,64.415,76.152,91.19c54.533,45.444,108.328,63.689,110.591,64.444
	c0.821,0.274,1.675,0.411,2.53,0.411c0.843,0,1.686-0.133,2.498-0.4c2.264-0.744,56.072-18.747,110.615-64.073
	c32.134-26.705,57.759-57.373,76.162-91.154C468.317,314.077,480,266.848,480,216V112.062C480,89.993,462.046,72.038,439.976,72.038
	z M463.998,216.001c0,87.315-35.223,160.952-104.689,218.868c-45.758,38.149-92.153,56.549-103.297,60.638
	c-11.106-4.113-57.156-22.541-102.89-60.653C83.369,376.727,48.002,303.094,48.002,216.001V112.062
	c0-13.246,10.776-24.022,24.022-24.022H140c25.392,0,50.54-7.57,72.726-21.891C229.851,55.096,244.62,40.491,256,23.45
	c11.38,17.042,26.149,31.645,43.272,42.698C321.46,80.47,346.608,88.04,371.999,88.04h67.977c13.246,0,24.022,10.776,24.022,24.022
	L463.998,216.001L463.998,216.001z M448,112.062v47.977c0,4.418-3.582,8.001-8.001,8.001c-4.418,0-8.001-3.582-8.001-8.001V120.06
	l-60.002-0.021c-37.747,0-76.245-14.79-107.996-41.05v33.049c0,4.419-3.582,8.001-8.001,8.001c-4.419,0-8.001-3.581-8.001-8.001
	V78.989c-31.75,26.261-70.249,41.05-107.999,41.05H80.023l-0.021,95.963c0,76.471,30.969,141.392,92.048,192.961
	c28.254,23.855,56.802,39.46,75.95,48.411V144.039c0-4.419,3.581-8.001,8.001-8.001c4.418,0,8.001,3.581,8.001,8.001v313.443
	c19.124-8.854,47.711-24.358,76.004-48.185c61.043-51.405,91.993-116.439,91.993-193.296v-24c0-4.418,3.582-8.001,8.001-8.001
	c4.418,0,8.001,3.582,8.001,8.001v24c0,81.796-32.867,150.948-97.688,205.535c-36.067,30.373-72.605,47.848-91.176,55.562
	c-0.982,0.408-2.026,0.612-3.069,0.612c-1.053,0-2.105-0.207-3.094-0.623c-18.586-7.796-55.156-25.425-91.246-55.898
	C96.88,366.44,63.999,297.404,63.999,216l0.023-103.964c0.001-4.417,3.582-7.999,8.001-7.999h67.976
	c39.134,0,79.352-17.78,110.341-48.779c0.001,0,0.001-0.001,0.002-0.002c0.001-0.001,0.002-0.002,0.004-0.004
	c0.001-0.001,0.002-0.003,0.004-0.004c0.002-0.001,0.003-0.003,0.004-0.004c0.002-0.001,0.003-0.003,0.005-0.005
	c0.001-0.001,0.003-0.003,0.004-0.004c0.001-0.001,0.003-0.003,0.005-0.005c0.001-0.001,0.002-0.002,0.003-0.003
	c0.002-0.002,0.004-0.004,0.006-0.006c0.001-0.002,0.003-0.003,0.004-0.003c0.001-0.002,0.003-0.004,0.005-0.006
	c0.001-0.001,0.002-0.002,0.003-0.003c0.002-0.002,0.004-0.004,0.006-0.006c0.001-0.001,0.002-0.002,0.003-0.003
	c0.002-0.002,0.004-0.004,0.006-0.006c0.001-0.001,0.002-0.002,0.003-0.003c0.002-0.002,0.004-0.004,0.006-0.006
	c0.001-0.001,0.002-0.001,0.003-0.002c0.002-0.002,0.004-0.004,0.006-0.006c0.001-0.001,0.001-0.001,0.003-0.002
	c0.002-0.002,0.004-0.004,0.007-0.007c0.001,0,0.002-0.001,0.002-0.001c0.002-0.002,0.005-0.005,0.008-0.007
	c0,0,0-0.001,0.001-0.001c0.003-0.002,0.005-0.005,0.008-0.008c0-0.001,0.001-0.001,0.001-0.001
	c0.003-0.003,0.005-0.005,0.007-0.007c0.001,0,0.002-0.001,0.002-0.002c0.002-0.002,0.005-0.004,0.008-0.007
	c0,0,0.001-0.001,0.001-0.002c0.002-0.002,0.005-0.005,0.008-0.007c0.001-0.001,0.001-0.001,0.001-0.001
	c0.003-0.002,0.005-0.005,0.008-0.008c0,0,0.001,0,0.001-0.001c0.003-0.003,0.005-0.005,0.008-0.008
	c0.001,0,0.001-0.001,0.001-0.001c0.003-0.002,0.005-0.005,0.008-0.008c0,0,0.001-0.001,0.002-0.001
	c0.002-0.002,0.005-0.005,0.007-0.007l0.002-0.001c0.002-0.002,0.005-0.005,0.008-0.008c0.001,0,0.001-0.001,0.002-0.002
	c0.003-0.002,0.005-0.004,0.007-0.007c0.001,0,0.001-0.001,0.003-0.002c0.002-0.002,0.005-0.004,0.007-0.007
	c0.001,0,0.001-0.001,0.001-0.001c0.003-0.002,0.005-0.005,0.008-0.007c0,0,0.001,0,0.001-0.001
	c0.003-0.003,0.005-0.005,0.008-0.008c0.001,0,0.001-0.001,0.002-0.001c0.002-0.002,0.005-0.004,0.008-0.007
	c0.001,0,0.001,0,0.001-0.001c0.003-0.002,0.005-0.005,0.008-0.007l0.002-0.001c0.003-0.003,0.005-0.005,0.008-0.007
	c0.001,0,0.001,0,0.001-0.001c0.003-0.002,0.005-0.005,0.008-0.007l0.001-0.001c0.003-0.002,0.005-0.005,0.008-0.007
	c0.001,0,0.001,0,0.001-0.001c0.002-0.002,0.005-0.005,0.008-0.007c0.001,0,0.002-0.001,0.002-0.002
	c0.003-0.002,0.005-0.004,0.007-0.007c0-0.001,0.001-0.001,0.001-0.001c0.003-0.002,0.005-0.004,0.008-0.007
	c0.001-0.001,0.001-0.001,0.002-0.002c0.002-0.002,0.005-0.004,0.007-0.006c0.001,0,0.001-0.001,0.002-0.002
	c0.002-0.002,0.005-0.004,0.007-0.006c0.001-0.001,0.002-0.002,0.003-0.002c0.002-0.002,0.004-0.004,0.006-0.006
	c0.001,0,0.002-0.001,0.002-0.002c0.003-0.002,0.005-0.004,0.007-0.006c0.001-0.001,0.002-0.002,0.003-0.003
	c0.002-0.002,0.004-0.004,0.006-0.006c0.001-0.001,0.002-0.002,0.003-0.003c0.002-0.002,0.004-0.004,0.007-0.006
	c0.001,0,0.002-0.001,0.003-0.002c0.003-0.002,0.004-0.004,0.006-0.006c0.001-0.001,0.002-0.002,0.003-0.002
	c0.002-0.002,0.004-0.004,0.007-0.006c0.001-0.001,0.003-0.002,0.004-0.003c0.002-0.002,0.003-0.003,0.005-0.005
	c0.001-0.001,0.003-0.003,0.004-0.004c0.002-0.002,0.004-0.003,0.006-0.005c0.001-0.001,0.003-0.003,0.004-0.004
	c0.002-0.001,0.004-0.003,0.005-0.004c0.002-0.001,0.003-0.002,0.004-0.004c0.002-0.002,0.004-0.003,0.005-0.005
	c0.002-0.001,0.002-0.002,0.004-0.003c0.001-0.001,0.003-0.004,0.005-0.005c0.001-0.001,0.003-0.002,0.004-0.003
	c0.002-0.001,0.004-0.003,0.005-0.005c0.002-0.002,0.003-0.003,0.005-0.004c0.002-0.001,0.003-0.002,0.004-0.004
	c0.002-0.001,0.003-0.003,0.005-0.004c0.001-0.001,0.003-0.002,0.004-0.003c0.002-0.002,0.005-0.004,0.007-0.006
	c0.001,0,0.001-0.001,0.003-0.002c0.002-0.002,0.004-0.004,0.007-0.006c0.001-0.001,0.002-0.002,0.003-0.002
	c0.002-0.002,0.004-0.004,0.007-0.006c0.001-0.001,0.002-0.001,0.003-0.002c0.002-0.002,0.005-0.004,0.007-0.006
	c0.001-0.001,0.001-0.001,0.003-0.002c0.003-0.002,0.005-0.004,0.008-0.007c0.001,0,0.001-0.001,0.002-0.001
	c0.003-0.002,0.005-0.004,0.008-0.007c0.001,0,0.001-0.001,0.002-0.001c0.003-0.002,0.006-0.005,0.009-0.007l0,0
	c0.003-0.003,0.006-0.005,0.009-0.008l0,0c2.03-1.699,4.703-2.233,7.139-1.604c0.004,0.005,0.007,0.002,0.011,0.003
	c0.003,0.001,0.006,0.002,0.009,0.002c0.003,0.001,0.007,0.002,0.011,0.003c0.004,0.002,0.008,0.003,0.012,0.003
	c0.003,0.001,0.006,0.001,0.009,0.002c0.002,0.001,0.005,0.001,0.008,0.002h0.001c0.735,0.196,1.447,0.499,2.113,0.907
	c0.003,0.002,0.007,0.004,0.01,0.006c0.001,0,0.001,0,0.002,0.001c0.003,0.002,0.006,0.003,0.009,0.005
	c0.001,0,0.002,0.001,0.002,0.001c0.002,0.001,0.005,0.003,0.008,0.005c0.001,0,0.002,0.001,0.003,0.002
	c0.002,0.001,0.004,0.003,0.007,0.004c0.003,0.001,0.007,0.003,0.01,0.006c0.002,0.001,0.003,0.002,0.005,0.003
	s0.004,0.002,0.006,0.003c0.001,0.001,0.003,0.002,0.005,0.003c0.004,0.002,0.007,0.004,0.01,0.006
	c0.003,0.001,0.004,0.002,0.006,0.004c0.002,0.002,0.007,0.005,0.011,0.006c0.001,0.001,0.003,0.002,0.004,0.003
	c0.003,0.001,0.004,0.002,0.006,0.004c0.001,0.001,0.003,0.002,0.005,0.003c0.001,0.001,0.004,0.002,0.005,0.003
	c0.002,0.001,0.004,0.003,0.006,0.004c0.001,0.001,0.003,0.002,0.004,0.003c0.002,0.001,0.005,0.003,0.007,0.004
	c0.001,0,0.003,0.001,0.004,0.002c0.002,0.002,0.005,0.003,0.007,0.004c0.001,0.001,0.002,0.001,0.003,0.002
	c0.003,0.002,0.006,0.004,0.009,0.006l0.001,0.001c0.003,0.002,0.006,0.004,0.009,0.006c0.001,0,0.001,0,0.001,0.001
	c0.003,0.002,0.006,0.004,0.009,0.005c0.001,0,0.001,0.001,0.001,0.001c0.004,0.002,0.007,0.004,0.01,0.006h0.001
	c0.003,0.002,0.006,0.004,0.009,0.006c0.001,0,0.001,0,0.001,0.001c0.003,0.002,0.006,0.004,0.009,0.006c0.001,0,0.001,0,0.001,0
	c0.004,0.002,0.007,0.004,0.011,0.007c0.426,0.281,0.832,0.608,1.209,0.979l0,0c0.003,0.002,0.005,0.005,0.008,0.007
	c0.001,0.001,0.001,0.001,0.002,0.002c0.002,0.002,0.004,0.004,0.007,0.007c0,0.001,0.001,0.001,0.002,0.002
	c0.002,0.002,0.004,0.004,0.006,0.006c0.001,0.001,0.003,0.002,0.003,0.003c0.002,0.001,0.004,0.003,0.005,0.005
	c0.001,0.001,0.003,0.002,0.004,0.004c0.001,0.001,0.003,0.003,0.005,0.004c0.001,0.001,0.002,0.002,0.003,0.004
	c0.001,0.001,0.001,0.001,0.002,0.002c30.99,31,71.208,48.779,110.341,48.779l68.003,0.023C444.42,104.063,448,107.645,448,112.062z
	"/>
</svg>