<?xml version="1.0" encoding="iso-8859-1"?>
<!-- Uploaded to: SVG Repo, www.svgrepo.com, Generator: SVG Repo Mixer Tools -->
<svg version="1.1" id="Layer_1" xmlns="http://www.w3.org/2000/svg" xmlns:xlink="http://www.w3.org/1999/xlink" 
	 viewBox="0 0 511.983 511.983" xml:space="preserve">
<rect x="341.321" y="277.342" style="fill:#FC6E51;" width="159.99" height="170.65"/>
<path style="fill:#E9573F;" d="M501.311,266.66H341.317c-5.891,0-10.656,4.781-10.656,10.68v170.65
	c0,5.906,4.766,10.656,10.656,10.656h159.994c5.891,0,10.672-4.75,10.672-10.656V277.34
	C511.983,271.441,507.202,266.66,501.311,266.66z M490.655,319.994h-21.344v-32h21.344V319.994z M394.659,319.994v-32h53.326v32
	H394.659z M410.657,341.338v42.654h-58.67v-42.654H410.657z M447.985,405.334v32h-53.326v-32H447.985z M431.985,383.992v-42.654
	h58.67v42.654H431.985z M373.315,287.994v32h-21.328v-32H373.315z M351.987,405.334h21.328v32h-21.328V405.334z M469.311,437.334
	v-32h21.344v32H469.311z"/>
<rect x="10.671" y="277.342" style="fill:#FC6E51;" width="160" height="170.65"/>
<path style="fill:#E9573F;" d="M170.666,266.66H10.671C4.781,266.66,0,271.441,0,277.34v170.65c0,5.906,4.781,10.656,10.671,10.656
	h159.995c5.89,0,10.656-4.75,10.656-10.656V277.34C181.322,271.441,176.556,266.66,170.666,266.66z M159.994,319.994h-21.327v-32
	h21.327V319.994z M63.997,319.994v-32h53.326v32H63.997z M79.997,341.338v42.654h-58.67v-42.654H79.997z M117.324,405.334v32H63.997
	v-32H117.324z M101.324,383.992v-42.654h58.67v42.654H101.324z M42.67,287.994v32H21.327v-32H42.67z M21.327,405.334H42.67v32
	H21.327V405.334z M138.667,437.334v-32h21.327v32H138.667z"/>
<rect x="202.661" y="187.661" style="fill:#CCD1D9;" width="106.65" height="89.68"/>
<path style="fill:#ED5564;" d="M355.659,150.303c-12.547-70.576-76.902-96.903-99.668-96.966
	c-22.765,0.062-87.122,26.39-99.668,96.966c-6.328,35.624,5.156,74.545,19.921,74.545c14.781,0,28.937-7.844,44.186-9.656
	c15.25-1.797,53.593-1.797,68.841,0c15.25,1.812,31.688,9.656,46.469,9.656C350.503,224.848,361.987,185.928,355.659,150.303z"/>
<g>
	<path style="fill:#E6E9ED;" d="M356.331,154.617c-0.031,0-55.092,10.812-55.232,62.904l0,0c11.672,2.969,23.625,7.328,34.641,7.328
		C349.909,224.848,361.065,188.99,356.331,154.617z"/>
	<path style="fill:#E6E9ED;" d="M156.323,150.303c117.309,8.484,59.842-83.841,59.779-83.95
		C191.04,80.541,163.994,107.149,156.323,150.303z"/>
</g>
<path style="fill:#FFCE54;" d="M341.317,266.66H170.666c-5.891,0-10.672,4.781-10.672,10.68v170.65
	c0,5.906,4.781,10.656,10.672,10.656h170.651c5.889,0,10.67-4.75,10.67-10.656V277.34
	C351.987,271.441,347.206,266.66,341.317,266.66z"/>
<g>
	<path style="fill:#F6BB42;" d="M210.196,316.869c-4.156,4.156-10.906,4.156-15.078,0s-4.172-10.906,0-15.094
		c4.172-4.156,10.921-4.156,15.078,0C214.367,305.963,214.367,312.713,210.196,316.869z"/>
	<path style="fill:#F6BB42;" d="M316.864,316.869c-4.172,4.156-10.922,4.156-15.078,0c-4.172-4.156-4.172-10.906,0-15.094
		c4.156-4.156,10.906-4.156,15.078,0C321.036,305.963,321.036,312.713,316.864,316.869z"/>
	<path style="fill:#F6BB42;" d="M210.196,423.521c-4.156,4.188-10.906,4.188-15.078,0c-4.172-4.156-4.172-10.906,0-15.062
		c4.172-4.186,10.921-4.186,15.078,0C214.367,412.615,214.367,419.365,210.196,423.521z"/>
	<path style="fill:#F6BB42;" d="M316.864,423.521c-4.172,4.188-10.922,4.188-15.078,0c-4.172-4.156-4.172-10.906,0-15.062
		c4.156-4.186,10.906-4.186,15.078,0C321.036,412.615,321.036,419.365,316.864,423.521z"/>
</g>
<g style="opacity:0.2;">
	<path style="fill:#FFFFFF;" d="M355.659,150.303c-12.547-70.576-76.902-96.903-99.668-96.966c-1.578,0-3.375,0.141-5.328,0.406
		c26.141,3.547,82.654,30.89,94.324,96.56c5.875,33.062-3.594,68.951-16.779,73.951c2.547,0.375,5.062,0.594,7.531,0.594
		C350.503,224.848,361.987,185.928,355.659,150.303z"/>
</g>
</svg>