<?xml version="1.0" encoding="iso-8859-1"?>
<!-- Uploaded to: SVG Repo, www.svgrepo.com, Generator: SVG Repo Mixer Tools -->
<svg height="800px" width="800px" version="1.1" id="Layer_1" xmlns="http://www.w3.org/2000/svg" xmlns:xlink="http://www.w3.org/1999/xlink" 
	 viewBox="0 0 280.096 280.096" xml:space="preserve">
<g>
	<path style="fill:#CCCFD1;" d="M52.505,0.13c17.143,0,166.266,17.502,166.266,17.502v52.505c0,0-123.055,0-140.014,0
		S0,52.495,0,35.134C0,18.568,35.362,0.13,52.505,0.13z"/>
	<path style="fill:#D9DCDD;" d="M78.758,70.137c16.959,0,140.014,0,140.014,0V59.916c-14.15-14.649-44.043-24.782-78.758-24.782
		c-39.589,0-73,13.153-83.807,31.197C65.666,68.711,73.997,70.137,78.758,70.137z"/>
	<path style="fill:#B7BABC;" d="M157.515,70.137c31.958,0,61.256,0,61.256,0V17.632c0,0-28.081-3.29-61.256-7.027V70.137z"/>
	<path style="fill:#C2C4C5;" d="M157.515,70.137c31.958,0,61.256,0,61.256,0V59.916c-11.691-12.102-34.216-21.028-61.256-23.794
		V70.137z"/>
	<path style="fill:#BF392C;" d="M33.008,190.768l157.9-157.9c20.398-20.407,53.476-20.407,73.883,0
		c20.407,20.398,20.407,53.485,0,73.892L106.9,264.66c-20.407,20.407-53.485,20.407-73.892,0S12.601,211.175,33.008,190.768z"/>
	<path style="fill:#E4E5E5;" d="M87.404,223.093l6.423-6.423c3.544-3.535,3.544-9.293,0-12.855c-3.544-3.535-9.293-3.535-12.846,0
		l-6.423,6.423l-6.423-6.423c-3.544-3.535-9.302-3.535-12.846,0c-3.553,3.553-3.553,9.311,0,12.855l6.423,6.423l-6.423,6.423
		c-3.553,3.553-3.553,9.293,0,12.838c3.544,3.553,9.302,3.553,12.846,0l6.423-6.406l6.423,6.406c3.544,3.553,9.293,3.553,12.846,0
		c3.544-3.535,3.544-9.285,0-12.837L87.404,223.093z"/>
</g>
</svg>