<?xml version="1.0" encoding="iso-8859-1"?>
<!-- Uploaded to: SVG Repo, www.svgrepo.com, Generator: SVG Repo Mixer Tools -->
<svg height="800px" width="800px" version="1.1" id="Layer_1" xmlns="http://www.w3.org/2000/svg" xmlns:xlink="http://www.w3.org/1999/xlink" 
	 viewBox="0 0 512 512" xml:space="preserve">
<g>
	<path style="fill:#85CCA2;" d="M350.902,123.788l-62.056,29.968v16.423c0,1.7-0.42,3.305-1.148,4.727h67.909v-48.165
		C355.607,123.868,353.49,122.539,350.902,123.788z"/>
	<path style="fill:#85CCA2;" d="M223.156,153.757l-62.06-29.969c-2.587-1.25-4.704,0.079-4.704,2.953v48.165h67.912
		c-0.728-1.422-1.148-3.026-1.148-4.727V153.757z"/>
</g>
<path style="fill:#AADDC0;" d="M287.698,174.906c0.727-1.422,1.148-3.026,1.148-4.727v-31.867c0-5.747-4.702-10.449-10.449-10.449
	h-44.793c-5.747,0-10.449,4.702-10.449,10.449v31.867c0,1.7,0.42,3.305,1.148,4.727H287.698z"/>
<path style="fill:#F9EEB7;" d="M99.541,258.556v235.158c0,5.747,4.702,10.449,10.449,10.449h292.019
	c5.747,0,10.449-4.702,10.449-10.449V258.556H99.541z"/>
<path style="opacity:0.1;enable-background:new    ;" d="M132.231,493.714V258.556h-32.69v235.158
	c0,5.747,4.702,10.449,10.449,10.449h32.69C136.933,504.163,132.231,499.461,132.231,493.714z"/>
<path style="fill:#FF8163;" d="M440.649,248.107c0,5.747-4.702,10.449-10.449,10.449H81.8c-5.747,0-10.449-4.702-10.449-10.449
	v-62.752c0-5.747,4.702-10.449,10.449-10.449h348.4c5.747,0,10.449,4.702,10.449,10.449V248.107z"/>
<g>
	<path style="fill:#AADDC0;" d="M253.157,320.239l2.843,2.838l2.842-2.838c9.048-9.021,21.042-14.028,33.822-14.135v-47.547h-73.328
		v47.547C232.116,306.211,244.113,311.218,253.157,320.239z"/>
	<path style="fill:#AADDC0;" d="M184.675,388.531c-9.147-9.117-14.182-21.244-14.182-34.144c0-4.773,0.694-9.441,2.027-13.89H99.318
		c-2.873,0-5.224,2.351-5.224,5.224v61.786c0,2.873,2.351,5.224,5.224,5.224h109.604L184.675,388.531z"/>
	<path style="fill:#AADDC0;" d="M412.682,340.497h-73.201c1.332,4.449,2.027,9.117,2.027,13.89c0,12.9-5.039,25.027-14.178,34.15
		l-24.244,24.196h109.596c2.873,0,5.224-2.351,5.224-5.224v-61.786C417.907,342.848,415.556,340.497,412.682,340.497z"/>
	<path style="fill:#AADDC0;" d="M262.632,453.104c-1.758,1.76-4.143,2.743-6.632,2.743c-2.485,0-4.87-0.983-6.631-2.743
		l-30.032-29.976v75.81c0,2.873,2.351,5.224,5.224,5.224h62.879c2.873,0,5.224-2.351,5.224-5.224v-75.807L262.632,453.104z"/>
</g>
<path style="opacity:0.1;enable-background:new    ;" d="M126.783,407.507v-61.786c0-2.873,2.351-5.224,5.224-5.224h-32.69
	c-2.873,0-5.224,2.351-5.224,5.224v61.786c0,2.873,2.351,5.224,5.224,5.224h32.69C129.134,412.732,126.783,410.381,126.783,407.507z
	"/>
<path style="opacity:0.1;enable-background:new    ;" d="M104.041,248.107v-62.752c0-5.747,4.702-10.449,10.449-10.449H81.8
	c-5.747,0-10.449,4.702-10.449,10.449v62.752c0,5.747,4.702,10.449,10.449,10.449h32.69
	C108.743,258.556,104.041,253.854,104.041,248.107z"/>
<path style="fill:#E84731;" d="M256,455.847c-2.485,0-4.87-0.983-6.631-2.743l-64.694-64.574
	c-9.147-9.117-14.182-21.244-14.182-34.144c0-12.898,5.035-25.027,14.184-34.147c9.144-9.12,21.305-14.146,34.239-14.146
	c12.937,0,25.097,5.026,34.24,14.146l2.843,2.838l2.842-2.838c9.148-9.12,21.305-14.146,34.243-14.146
	c12.934,0,25.092,5.026,34.243,14.146c9.14,9.12,14.178,21.249,14.178,34.147c0,12.9-5.038,25.027-14.178,34.15l-64.698,64.567
	C260.874,454.863,258.489,455.847,256,455.847z"/>
<g style="opacity:0.1;">
	<path d="M271.139,442.384l-64.695-64.574c-9.147-9.117-14.182-21.244-14.182-34.144c0-12.898,5.035-25.027,14.184-34.147
		c0.852-0.849,1.738-1.651,2.639-2.428c-9.185,1.88-17.627,6.384-24.408,13.148c-9.149,9.12-14.184,21.249-14.184,34.147
		c0,12.9,5.035,25.027,14.182,34.144l64.694,64.574c1.761,1.76,4.146,2.743,6.631,2.743c2.489,0,4.874-0.983,6.632-2.743
		l9.726-9.706C271.927,443.094,271.516,442.761,271.139,442.384z"/>
</g>
<path style="fill:#85CCA2;" d="M297.378,253.331c0,2.873-2.351,5.224-5.224,5.224h-72.307c-2.873,0-5.224-2.351-5.224-5.224V180.13
	c0-2.873,2.351-5.224,5.224-5.224h72.307c2.873,0,5.224,2.351,5.224,5.224V253.331z"/>
<path style="fill:#FFC529;" d="M235.173,80.609c-12.99,8.364-19.777,15.146-28.148,28.127
	c-8.371-12.982-15.157-19.762-28.147-28.127c12.991-8.364,19.778-15.146,28.147-28.128
	C215.396,65.464,222.183,72.244,235.173,80.609z"/>
<polygon style="fill:#FFED84;" points="256.347,46.104 237.197,26.97 256.345,7.837 275.494,26.97 "/>
<polygon style="fill:#FFC529;" points="313.975,109.799 294.826,90.666 313.973,71.532 333.123,90.666 "/>
<path d="M174.635,87.198c12.028,7.745,18.057,13.77,25.805,25.785c1.443,2.238,3.924,3.59,6.586,3.59
	c2.662,0,5.143-1.352,6.586-3.59c7.748-12.016,13.777-18.04,25.805-25.785c2.24-1.442,3.593-3.925,3.593-6.589
	c0-2.664-1.354-5.146-3.593-6.589c-12.028-7.745-18.057-13.77-25.805-25.786c-1.443-2.238-3.924-3.589-6.586-3.589
	c-2.662,0-5.143,1.352-6.586,3.59c-7.748,12.016-13.777,18.04-25.805,25.785c-2.24,1.442-3.593,3.925-3.593,6.589
	C171.04,83.273,172.395,85.756,174.635,87.198z M207.026,66.083c4.384,5.611,8.921,10.145,14.536,14.526
	c-5.614,4.381-10.151,8.916-14.536,14.526c-4.383-5.611-8.921-10.145-14.536-14.526C198.104,76.228,202.641,71.694,207.026,66.083z"
	/>
<path d="M250.808,51.647c1.53,1.529,3.535,2.293,5.539,2.293c2.005,0,4.009-0.765,5.54-2.294l19.147-19.134
	c1.47-1.47,2.297-3.464,2.297-5.543s-0.826-4.074-2.298-5.544L261.884,2.293c-3.058-3.056-8.018-3.057-11.078,0l-19.148,19.134
	c-1.471,1.47-2.298,3.464-2.298,5.543s0.827,4.074,2.298,5.544L250.808,51.647z M256.345,18.915l8.062,8.055l-8.06,8.055
	l-8.061-8.056L256.345,18.915z"/>
<path d="M308.437,115.343c1.53,1.529,3.534,2.293,5.539,2.293c2.005,0,4.009-0.764,5.54-2.294l19.147-19.134
	c1.47-1.47,2.297-3.464,2.297-5.543c0-2.079-0.826-4.074-2.298-5.544l-19.149-19.134c-3.059-3.057-8.018-3.057-11.078,0
	l-19.147,19.134c-1.47,1.47-2.297,3.464-2.297,5.543c0,2.079,0.827,4.074,2.298,5.544L308.437,115.343z M313.973,82.611l8.062,8.056
	l-8.06,8.054l-8.062-8.055L313.973,82.611z"/>
<path d="M430.2,167.069h-66.756v-40.328c0-6.419-4.59-11.259-10.679-11.259c-1.781,0-3.553,0.42-5.272,1.25l-50.811,24.537v-2.957
	c0-10.083-8.204-18.286-18.286-18.286h-44.793c-10.082,0-18.286,8.203-18.286,18.286v2.958l-10.242-4.946
	c-3.897-1.882-8.583-0.248-10.465,3.65c-1.882,3.897-0.248,8.583,3.65,10.465l17.057,8.237v8.394h-51.09v-33.066l8.952,4.324
	c3.9,1.882,8.583,0.249,10.466-3.649c1.882-3.897,0.249-8.583-3.649-10.466l-15.493-7.481c-3.715-1.794-7.685-1.666-10.896,0.35
	s-5.052,5.536-5.052,9.66v40.328H81.8c-10.082,0-18.286,8.203-18.286,18.286v62.752c0,10.082,8.203,18.286,18.286,18.286h9.905
	v68.738c-3.292,2.374-5.447,6.231-5.447,10.591v61.786c0,4.359,2.156,8.217,5.447,10.591v75.615
	c0,10.082,8.203,18.286,18.286,18.286h292.019c10.082,0,18.286-8.204,18.286-18.286V418.1c3.294-2.374,5.45-6.232,5.45-10.593
	v-61.786c0-4.36-2.157-8.219-5.45-10.593v-19.57c0-4.328-3.508-7.837-7.837-7.837c-4.329,0-7.837,3.509-7.837,7.837v17.102h-59.634
	c-2.79-6.634-6.871-12.73-12.124-17.972c-8.861-8.83-20.152-14.34-32.361-15.936v-32.359h104.119v15.729
	c0,4.328,3.508,7.837,7.837,7.837c4.329,0,7.837-3.509,7.837-7.837v-15.729h9.906c10.083,0,18.286-8.203,18.286-18.286v-62.752
	C448.486,175.272,440.282,167.069,430.2,167.069z M230.992,138.311c0-1.416,1.196-2.612,2.612-2.612h44.793
	c1.416,0,2.612,1.196,2.612,2.612v28.758h-50.017V138.311z M222.459,182.742h67.082v67.977h-67.082V182.742z M284.828,266.393
	v32.471c-10.686,1.56-20.637,6.129-28.827,13.309c-8.187-7.18-18.137-11.75-28.828-13.31v-32.47H284.828z M211.499,266.393v32.359
	c-12.212,1.596-23.502,7.106-32.355,15.938c-5.256,5.239-9.34,11.335-12.13,17.971h-59.637v-66.267h104.122V266.393z
	 M206.785,229.008l-21.728,21.711h-35.075l56.803-56.761V229.008z M79.188,243.897v-58.543c0-1.416,1.196-2.612,2.612-2.612h58.587
	L79.188,243.897z M94.534,250.719l67.964-67.914c0.02-0.02,0.037-0.042,0.056-0.063h33.281l-68.026,67.977H94.534z M211.499,496.327
	h-101.51c-1.416,0-2.612-1.196-2.612-2.612v-73.145h31.595c4.328,0,7.837-3.509,7.837-7.837s-3.509-7.837-7.837-7.837H101.93
	v-56.561h61.057c-0.214,1.998-0.331,4.016-0.331,6.053c0,15.001,5.856,29.097,16.483,39.69l10.839,10.819h-18.614
	c-4.328,0-7.837,3.509-7.837,7.837c0,4.328,3.509,7.837,7.837,7.837h34.317l5.819,5.809V496.327z M284.828,496.327h-57.654v-54.304
	l16.657,16.626c3.25,3.248,7.572,5.035,12.17,5.035c4.605,0,8.929-1.79,12.167-5.032l16.66-16.626v54.301H284.828z M404.62,493.714
	c0,1.416-1.196,2.612-2.612,2.612H300.501v-69.944l5.825-5.814h98.294L404.62,493.714L404.62,493.714z M349.014,348.334h61.057
	v56.561h-88.038l10.833-10.813c10.627-10.607,16.479-24.705,16.479-39.697C349.345,352.349,349.228,350.331,349.014,348.334z
	 M321.794,325.787c7.659,7.642,11.877,17.8,11.877,28.6c0,10.799-4.218,20.958-11.877,28.603l-64.707,64.576
	c-0.57,0.573-1.593,0.578-2.182-0.008l-64.698-64.578c-7.66-7.635-11.878-17.789-11.878-28.594c0-10.804,4.219-20.961,11.883-28.599
	c7.665-7.647,17.86-11.857,28.705-11.857c10.846,0,21.041,4.211,28.704,11.855l2.843,2.838c3.059,3.054,8.015,3.054,11.074-0.001
	l2.837-2.834c7.671-7.647,17.868-11.859,28.712-11.859C303.926,313.93,314.124,318.142,321.794,325.787z M296.682,167.069v-8.395
	l51.088-24.671v33.066H296.682z M305.215,204.942l22.153-22.137c0.021-0.02,0.037-0.042,0.056-0.063h34.76l-56.969,56.926V204.942z
	 M316.33,250.719l67.965-67.914c0.021-0.02,0.037-0.042,0.056-0.063h33.28l-68.026,67.977H316.33z M432.812,248.107
	c0,1.416-1.196,2.612-2.612,2.612h-58.42l61.033-60.988V248.107z"/>
</svg>