<?xml version="1.0" encoding="iso-8859-1"?>
<!-- Uploaded to: SVG Repo, www.svgrepo.com, Generator: SVG Repo Mixer Tools -->
<svg height="800px" width="800px" version="1.1" id="Layer_1" xmlns="http://www.w3.org/2000/svg" xmlns:xlink="http://www.w3.org/1999/xlink" 
	 viewBox="0 0 512.001 512.001" xml:space="preserve">
<circle style="fill:#84DCCF;" cx="108.003" cy="128" r="40"/>
<g>
	<path style="fill:#027EA8;" d="M84.001,144c0-22.092,17.909-40,40-40c6.915,0,13.321,1.914,18.996,5.004
		C136.219,96.551,123.177,88,108.001,88c-22.092,0-40,17.909-40,40c0,15.175,8.551,28.218,21.003,34.997
		C85.916,157.322,84.001,150.916,84.001,144z"/>
	<circle style="fill:#027EA8;" cx="315.996" cy="47.998" r="40"/>
</g>
<path style="fill:#84DCCF;" d="M292.001,64c0-22.092,17.909-40,40-40c6.915,0,13.321,1.914,18.996,5.004
	C344.219,16.551,331.177,8,316.001,8c-22.092,0-40,17.909-40,40c0,15.175,8.551,28.218,21.003,34.997
	C293.916,77.322,292.001,70.916,292.001,64z"/>
<circle style="fill:#F15A24;" cx="68.007" cy="415.996" r="40"/>
<path style="fill:#FBB03B;" d="M44.002,432c0-22.092,17.909-40,40-40c6.915,0,13.321,1.914,18.996,5.004
	C96.22,384.551,83.177,376,68.002,376c-22.092,0-40,17.909-40,40c0,15.175,8.551,28.218,21.003,34.997
	C45.917,445.322,44.002,438.915,44.002,432z"/>
<circle style="fill:#84DCCF;" cx="323.997" cy="464.004" r="40"/>
<path style="fill:#027EA8;" d="M300.002,480c0-22.092,17.909-40,40-40c6.915,0,13.321,1.914,18.997,5.004
	C352.22,432.551,339.178,424,324.002,424c-22.092,0-40,17.909-40,40c0,15.175,8.551,28.218,21.003,34.997
	C301.916,493.321,300.002,486.915,300.002,480z"/>
<circle style="fill:#84DCCF;" cx="436.005" cy="231.997" r="24.004"/>
<path style="fill:#35DCC3;" d="M436.001,232c0-8.861,4.857-16.514,12-20.671c-3.543-2.061-7.606-3.329-12-3.329
	c-13.255,0-24,10.745-24,24c0,13.255,10.745,24,24,24c4.394,0,8.457-1.267,12-3.329C440.858,248.514,436.001,240.86,436.001,232z"/>
<circle style="fill:#F15A24;" cx="459.999" cy="72.001" r="24.004"/>
<path style="fill:#F14507;" d="M460.001,72c0-8.861,4.857-16.514,12-20.671c-3.543-2.061-7.606-3.329-12-3.329
	c-13.255,0-24,10.745-24,24s10.745,24,24,24c4.394,0,8.457-1.267,12-3.329C464.858,88.514,460.001,80.861,460.001,72z"/>
<circle style="fill:#FBB03B;" cx="195.997" cy="464.004" r="24.004"/>
<path style="fill:#FB9E0C;" d="M196.001,463.999c0-8.861,4.857-16.514,12-20.671c-3.543-2.061-7.606-3.329-12-3.329
	c-13.255,0-24,10.745-24,24c0,13.255,10.745,24,24,24c4.394,0,8.458-1.267,12-3.329
	C200.858,480.514,196.001,472.861,196.001,463.999z"/>
<circle style="fill:#FBB03B;" cx="259.997" cy="256.001" r="72.001"/>
<path style="fill:#F15A24;" d="M228.001,256.001c0-32.817,21.977-60.451,52-69.126c-6.356-1.836-13.052-2.874-20-2.874
	c-39.764,0-72,32.235-72,72c0,39.764,32.235,72,72,72c6.947,0,13.644-1.037,20-2.874
	C249.978,316.452,228.001,288.816,228.001,256.001z"/>
<g>
	<path style="fill:#FFFFFF;" d="M211.496,284.003c-3.352-5.796-5.613-12.079-6.72-18.677l7.768-1.304l7.964-1.597l0.046,0.252
		c0.79,4.703,2.401,9.183,4.791,13.315L211.496,284.003z"/>
	<path style="fill:#FFFFFF;" d="M220.002,256.001h-16.001c0-30.878,25.468-56,55.642-56v16.001
		C237.793,216,220.002,233.944,220.002,256.001z"/>
	<path style="fill:#FFFFFF;" d="M308.001,47.904h-16c0-13.526,10.301-23.903,23.827-23.903v16.001
		C311.667,40,308.001,43.742,308.001,47.904z"/>
	<path style="fill:#FFFFFF;" d="M100.002,128.021H84.001c0-13.526,11.246-24.021,23.731-24.021v16.001
		C103.571,120.001,100.002,123.859,100.002,128.021z"/>
	<path style="fill:#FFFFFF;" d="M316.001,464.097h-16c0-13.526,10.625-24.098,24.152-24.098V456
		C319.991,456,316.001,459.935,316.001,464.097z"/>
	<path style="fill:#FFFFFF;" d="M60.002,416.235H44.001c0-13.526,10.667-24.235,24.193-24.235v16.001
		C64.032,408,60.002,412.073,60.002,416.235z"/>
</g>
<path d="M316.001,96c20.436,0,37.919-12.842,44.831-30.875l67.88,13.576C431.802,93.139,444.655,104,460.001,104
	c17.645,0,32-14.356,32-32s-14.356-32-32-32c-14.348,0-26.521,9.493-30.568,22.528l-65.468-13.093
	c0.014-0.478,0.036-0.953,0.036-1.434C364.002,21.533,342.468,0,316.001,0c-26.468,0-48,21.533-48,48.001
	c0,20.365,12.755,37.798,30.691,44.758l-19.738,85.529c-6.08-1.483-12.423-2.288-18.953-2.288c-21.361,0-40.778,8.432-55.14,22.122
	l-54.46-47.652c3.57-6.708,5.601-14.355,5.601-22.469c0-26.468-21.533-48.001-48.001-48.001s-48,21.534-48,48.001s21.533,48,48,48
	c12.586,0,24.049-4.876,32.618-12.828l53.809,47.083c-9.079,12.975-14.427,28.743-14.427,45.746
	c0,16.968,5.326,32.708,14.371,45.668l-93.659,79.25c-8.58-8.005-20.08-12.918-32.712-12.918c-26.468,0-48.001,21.533-48.001,48
	s21.533,48.001,48.001,48.001s48-21.533,48-48.001c0-8.073-2.012-15.681-5.547-22.364l94.336-79.824
	c14.37,13.729,33.815,22.188,55.211,22.188c6.04,0,11.917-0.695,17.577-1.97l28.486,85.459
	c-15.152,6.127-26.478,19.768-29.344,36.283h-49.797C223.284,442.103,210.802,432,196.001,432c-17.645,0-32,14.356-32,32
	s14.356,32,32,32c15.105,0,27.789-10.522,31.132-24.62h49.436c3.561,22.976,23.474,40.62,47.431,40.62c26.468,0,48-21.533,48-48.001
	s-21.532-48-48-48c-0.743,0-1.482,0.023-2.216,0.056l-29.032-87.096c27.821-12.539,47.247-40.514,47.247-72.96
	c0-0.481-0.028-0.955-0.036-1.434l65.469-13.094c4.047,13.035,16.219,22.529,30.567,22.529c17.645,0,32-14.356,32-32
	s-14.356-32-32-32c-15.346,0-28.198,10.862-31.287,25.299l-66.635,13.328c-5.412-24.335-21.925-44.529-43.944-54.96l20.241-87.707
	C314.916,95.977,315.456,96,316.001,96z M460.001,56.001c8.822,0,16.001,7.177,16.001,16s-7.177,16-16.001,16
	C451.178,88,444,80.823,444,72S451.179,56.001,460.001,56.001z M196.001,480c-8.822,0-16-7.177-16-16.001c0-8.822,7.177-16,16-16
	c8.823,0,16,7.177,16,16C212.002,472.823,204.824,480,196.001,480z M356.001,463.999c0,17.645-14.356,32-32,32
	c-17.646,0-32.001-14.354-32.001-32C292,446.355,306.356,432,324.001,432C341.646,432,356.001,446.355,356.001,463.999z
	 M436.001,216c8.822,0,16.001,7.177,16.001,16c0,8.823-7.177,16-16.001,16c-8.821,0-16-7.177-16-16
	C420.002,223.177,427.179,216,436.001,216z M108.001,159.999c-17.645,0-31.999-14.355-31.999-31.999c0-17.646,14.355-32,31.999-32
	s32,14.355,32,32C140.001,145.645,125.647,159.999,108.001,159.999z M68.002,448c-17.646,0-32-14.354-32-32
	c0-17.645,14.355-31.999,32-31.999c17.645,0,31.999,14.354,31.999,31.999C100.001,433.644,85.646,448,68.002,448z M324.001,256.001
	c0,35.29-28.711,64-64,64s-64-28.71-64-64s28.71-64,64-64S324.001,220.71,324.001,256.001z M284.001,48.001
	c0-17.646,14.356-32,32-32c17.646,0,32.001,14.355,32.001,32c0,17.645-14.356,31.999-32.001,31.999
	C298.357,80,284.001,65.645,284.001,48.001z"/>
</svg>