<?xml version="1.0" encoding="utf-8"?><!-- Uploaded to: SVG Repo, www.svgrepo.com, Generator: SVG Repo Mixer Tools -->
<svg width="800px" height="800px" viewBox="0 0 500 500" fill="none" xmlns="http://www.w3.org/2000/svg">
<path fill-rule="evenodd" clip-rule="evenodd" d="M312.3 34.238C312.238 21.504 322.13 10.449 344.271 10.01C366.412 9.57098 381.19 23.44 378.544 34.18C375.093 48.19 351.037 52.125 351.428 66.905C351.488 69.153 336.842 68.951 336.842 66.705C336.505 51.983 365.72 44.869 366.162 33.905C366.548 24.297 358.7 19.088 344.391 19.088C334.449 19.088 326.091 24.209 325.361 34.124C325.235 36.224 312.311 36.337 312.3 34.239V34.238Z" fill="#E1B100"/>
<path fill-rule="evenodd" clip-rule="evenodd" d="M344.051 73.89C349.63 73.89 354.16 76.89 354.16 80.59C354.16 84.29 349.63 87.285 344.051 87.285C338.472 87.285 333.942 84.285 333.942 80.59C333.942 76.895 338.472 73.89 344.051 73.89Z" fill="#E1B100"/>
<path d="M300.942 223.777C284.188 295.565 186.823 294.261 190.599 224.635C199.936 226.39 209.112 228.916 218.031 232.189L216.623 207.408C216.623 207.408 189.844 205.856 179.613 191.574C169.897 178.013 173.193 139.424 176.489 115.219C178.137 103.169 179.75 94.689 179.75 94.689C179.75 94.689 268.327 98.637 272.79 102.929C277.253 107.221 276.429 139.252 274.163 152.607C284.909 150.719 290.643 155.868 291.844 162.254C293.63 171.867 285.115 184.33 267.949 179.523C266.199 188.45 270.765 227.451 270.765 227.451C270.765 227.451 284.738 225.322 300.942 223.777Z" fill="#FFA775"/>
<path d="M214.08 173.556C214.056 173.556 214.032 173.556 214.008 173.556C212.794 173.464 202.088 172.539 199.865 168.287C197.519 163.803 204.082 133.587 205.627 129.351C205.67 129.234 205.735 129.126 205.82 129.034C205.904 128.942 206.005 128.868 206.119 128.815C206.232 128.763 206.354 128.733 206.479 128.727C206.603 128.722 206.728 128.741 206.845 128.784C206.962 128.827 207.07 128.892 207.162 128.977C207.254 129.061 207.328 129.162 207.381 129.276C207.433 129.389 207.463 129.511 207.469 129.636C207.474 129.76 207.455 129.885 207.412 130.002C205.187 136.102 199.831 164.123 201.549 167.402C202.857 169.902 209.973 171.34 214.149 171.657C214.274 171.662 214.396 171.691 214.51 171.743C214.623 171.795 214.726 171.869 214.811 171.96C214.895 172.051 214.962 172.159 215.005 172.276C215.049 172.393 215.069 172.517 215.064 172.642C215.059 172.767 215.03 172.889 214.978 173.003C214.926 173.116 214.852 173.219 214.761 173.304C214.67 173.388 214.562 173.455 214.445 173.498C214.328 173.542 214.204 173.562 214.079 173.557L214.08 173.556Z" fill="#29263B"/>
<path d="M236.182 193.589C235.98 193.59 235.784 193.519 235.63 193.389C231.288 189.74 227.672 188.108 224.872 188.544C223.912 188.735 223.008 189.138 222.223 189.724C221.439 190.309 220.795 191.062 220.339 191.927C220.279 192.022 220.2 192.105 220.108 192.17C220.016 192.235 219.912 192.281 219.802 192.306C219.692 192.331 219.579 192.333 219.468 192.314C219.356 192.295 219.25 192.254 219.155 192.194C219.06 192.134 218.977 192.055 218.912 191.963C218.847 191.871 218.801 191.767 218.776 191.657C218.751 191.547 218.749 191.434 218.768 191.323C218.787 191.211 218.828 191.105 218.888 191.01C219.475 189.937 220.293 189.008 221.282 188.288C222.271 187.569 223.407 187.077 224.608 186.848C227.96 186.332 231.928 188.036 236.733 192.075C236.868 192.188 236.964 192.34 237.01 192.51C237.055 192.68 237.048 192.86 236.987 193.025C236.927 193.191 236.818 193.334 236.674 193.435C236.53 193.536 236.358 193.59 236.182 193.59V193.589Z" fill="#29263B"/>
<path d="M257.363 119.586C257.048 119.587 256.736 119.515 256.453 119.376C256.169 119.238 255.922 119.036 255.729 118.786C252.324 114.368 249.163 112.009 246.329 111.775C244.467 111.625 242.652 112.392 240.783 114.131C240.383 114.503 239.851 114.701 239.305 114.682C238.759 114.662 238.243 114.426 237.871 114.026C237.499 113.626 237.301 113.094 237.32 112.548C237.34 112.002 237.576 111.486 237.976 111.114C240.702 108.579 243.619 107.419 246.668 107.669C250.757 108.007 254.787 110.821 258.988 116.269C259.223 116.574 259.368 116.938 259.407 117.321C259.445 117.704 259.376 118.09 259.206 118.435C259.036 118.78 258.773 119.071 258.447 119.275C258.12 119.478 257.743 119.586 257.358 119.586H257.363Z" fill="#29263B"/>
<path d="M182.75 119.4C182.413 119.4 182.08 119.317 181.782 119.158C181.484 119 181.23 118.77 181.042 118.49C180.853 118.21 180.736 117.888 180.702 117.552C180.667 117.217 180.715 116.878 180.842 116.565C182.163 113.311 184.17 111.194 186.808 110.273C190.163 109.101 194.251 109.918 199.308 112.773C199.547 112.904 199.758 113.081 199.929 113.294C200.099 113.508 200.225 113.752 200.3 114.015C200.375 114.277 200.397 114.552 200.365 114.823C200.333 115.094 200.247 115.356 200.113 115.593C199.979 115.831 199.799 116.04 199.583 116.207C199.368 116.374 199.121 116.497 198.858 116.569C198.594 116.64 198.32 116.658 198.049 116.622C197.778 116.587 197.518 116.497 197.282 116.36C193.382 114.16 190.314 113.423 188.17 114.167C186.679 114.687 185.532 115.98 184.67 118.118C184.515 118.499 184.249 118.825 183.906 119.053C183.564 119.282 183.161 119.402 182.75 119.4Z" fill="#29263B"/>
<path d="M301.354 102.517C301.579 122.823 298.363 143.021 291.844 162.254C290.644 155.868 284.909 150.719 274.163 152.607C276.429 139.252 277.253 107.22 272.79 102.929C268.327 98.638 179.75 94.689 179.75 94.689C179.75 94.689 178.137 103.169 176.489 115.219C166.498 117.211 160.559 107.838 166.289 98.809C155.681 90.466 158.084 72.579 170.689 70.109C161.179 49.682 178.448 34.747 192.318 45.15C192.387 25.993 220.333 18.302 228.504 40.45C236.297 19.75 262.664 27.885 261.875 46.836C278.56 37.086 295.142 48.793 290.542 67.916C313.783 64.786 317.456 92.938 301.354 102.517Z" fill="#FF6B55"/>
<path d="M273.67 174.037C273.615 174.037 273.56 174.032 273.506 174.021C273.284 173.978 273.087 173.848 272.96 173.661C272.833 173.474 272.784 173.244 272.826 173.021C274.107 166.389 278.252 162.673 285.146 161.979C285.373 161.956 285.599 162.024 285.775 162.168C285.951 162.312 286.063 162.52 286.086 162.747C286.109 162.973 286.041 163.2 285.897 163.376C285.753 163.552 285.545 163.664 285.318 163.687C279.183 164.305 275.647 167.465 274.512 173.346C274.473 173.541 274.368 173.716 274.215 173.842C274.061 173.968 273.869 174.037 273.67 174.037Z" fill="#29263B"/>
<path fill-rule="evenodd" clip-rule="evenodd" d="M242.849 133.268C245.249 133.268 247.196 137.292 247.196 142.246C247.196 147.2 245.249 151.223 242.849 151.223C240.449 151.223 238.503 147.2 238.503 142.246C238.503 137.292 240.449 133.268 242.849 133.268Z" fill="#29263B"/>
<path fill-rule="evenodd" clip-rule="evenodd" d="M189.01 130.545C191.41 130.545 193.356 134.566 193.356 139.52C193.356 144.474 191.41 148.497 189.01 148.497C186.61 148.497 184.663 144.477 184.663 139.52C184.663 134.563 186.61 130.545 189.01 130.545Z" fill="#29263B"/>
<path d="M384.3 422.868C384.176 422.868 384.053 422.842 383.94 422.79C383.827 422.738 383.727 422.662 383.646 422.568L376.876 414.621C376.728 414.448 376.656 414.223 376.674 413.996C376.692 413.769 376.8 413.559 376.973 413.411C377.146 413.263 377.371 413.191 377.598 413.209C377.825 413.227 378.035 413.335 378.183 413.508L384.953 421.455C385.059 421.58 385.127 421.732 385.149 421.895C385.171 422.057 385.147 422.222 385.078 422.371C385.01 422.52 384.9 422.646 384.762 422.734C384.624 422.823 384.464 422.87 384.3 422.87V422.868Z" fill="#E58B59"/>
<path d="M343.857 223.3C362.5 227.385 415.577 299.723 415.577 299.723C389.038 304.872 371.977 319.91 362.534 342.809L341.694 319.772L341.626 339.891C281.133 346.723 220.949 346.071 161.246 336.526H160.628L160.834 309.026C152.473 313.399 143.877 317.308 135.085 320.734C139.479 295.877 132.716 266.867 120.459 245.993C133.986 239.127 165.365 223.952 177.794 223.54C182.086 223.486 186.374 223.855 190.594 224.64C186.818 294.266 284.183 295.57 300.937 223.782C316.735 222.232 334.656 221.271 343.857 223.3Z" fill="#6789ED"/>
<path d="M341.626 339.888L341.488 382.837H341.214C283.776 393.446 208.658 389.704 160.593 380.468H160.319L160.628 336.523H161.246C220.949 346.068 281.133 346.72 341.626 339.888Z" fill="#C6D3F8"/>
<path d="M341.488 382.837L341.145 478.967C289.456 493.507 228.952 493.736 159.632 479.653L160.319 380.468H160.593C208.658 389.704 283.776 393.446 341.214 382.837H341.488Z" fill="#6789ED"/>
<path d="M216.623 207.408C228.28 207.382 238.683 206.173 247.658 201.042C239.727 214.958 229.789 220.703 217.458 222.142L216.623 207.408Z" fill="#F08855"/>
<path d="M362.534 342.806C362.534 342.806 387.425 367.906 389.447 374.965C391.469 382.024 377.582 414.272 377.582 414.272C377.582 414.272 354.727 396.354 343.373 395.509C317.889 393.609 303.483 433.745 316.763 436.357C315.128 445.315 317.263 449.75 326.451 449.812C324.264 459.312 328.37 463.171 336.878 463.535C337.778 473.055 350.003 471.544 364.92 452.027C364.92 452.027 379.992 463.281 393.343 461.533C410.097 459.339 453.771 397.933 452.69 373.077C451.609 348.221 415.577 299.72 415.577 299.72C389.038 304.869 371.975 319.907 362.534 342.806Z" fill="#FFA775"/>
<path d="M316.9 437.1C316.805 437.1 316.711 437.084 316.622 437.053C316.407 436.979 316.23 436.823 316.13 436.618C316.03 436.414 316.015 436.178 316.089 435.963C318.602 428.638 326.803 416.047 333.64 409.018C333.719 408.937 333.813 408.873 333.916 408.828C334.02 408.784 334.132 408.76 334.244 408.759C334.357 408.757 334.469 408.778 334.574 408.82C334.679 408.862 334.774 408.924 334.855 409.003C334.936 409.082 335 409.176 335.045 409.279C335.089 409.383 335.113 409.495 335.114 409.607C335.116 409.72 335.095 409.832 335.053 409.937C335.011 410.042 334.949 410.137 334.87 410.218C328.176 417.099 320.158 429.391 317.712 436.518C317.654 436.688 317.545 436.835 317.399 436.939C317.254 437.044 317.079 437.1 316.9 437.1Z" fill="#29263B"/>
<path d="M326.685 450.646C326.55 450.646 326.418 450.615 326.298 450.554C326.177 450.494 326.073 450.406 325.993 450.298C325.913 450.189 325.86 450.064 325.838 449.931C325.815 449.799 325.824 449.663 325.864 449.534C328.122 442.234 336.688 428.711 342.84 422.734C343.003 422.575 343.223 422.487 343.451 422.49C343.679 422.493 343.896 422.586 344.056 422.75C344.215 422.913 344.302 423.133 344.3 423.361C344.297 423.588 344.203 423.806 344.04 423.965C338.157 429.685 329.659 443.091 327.508 450.046C327.453 450.221 327.343 450.373 327.195 450.481C327.047 450.589 326.868 450.647 326.685 450.646Z" fill="#29263B"/>
<path d="M337.085 464.338C337.025 464.338 336.965 464.332 336.906 464.319C336.796 464.296 336.691 464.251 336.598 464.187C336.505 464.124 336.426 464.042 336.364 463.948C336.303 463.853 336.261 463.748 336.24 463.637C336.219 463.526 336.221 463.412 336.244 463.302C337.3 458.326 344.862 445.159 353.403 434.985C353.552 434.822 353.759 434.722 353.979 434.707C354.2 434.692 354.418 434.763 354.587 434.905C354.757 435.047 354.865 435.249 354.89 435.469C354.914 435.689 354.853 435.909 354.718 436.085C346.469 445.911 338.918 458.974 337.924 463.653C337.884 463.846 337.779 464.02 337.626 464.144C337.473 464.269 337.282 464.338 337.085 464.338Z" fill="#29263B"/>
<path d="M389.9 375.93C389.704 375.93 389.514 375.862 389.361 375.739C389.209 375.616 389.103 375.444 389.062 375.252C389.02 375.06 389.046 374.86 389.134 374.685C389.222 374.51 389.367 374.37 389.546 374.289L403.436 368.007C403.539 367.961 403.65 367.935 403.762 367.931C403.875 367.928 403.987 367.946 404.093 367.986C404.198 368.026 404.295 368.086 404.377 368.163C404.459 368.24 404.525 368.333 404.572 368.435C404.618 368.538 404.644 368.649 404.647 368.762C404.651 368.874 404.632 368.987 404.592 369.092C404.553 369.197 404.492 369.294 404.415 369.376C404.338 369.458 404.246 369.525 404.143 369.571L390.253 375.854C390.142 375.904 390.022 375.93 389.9 375.93Z" fill="#29263B"/>
<path d="M192.625 63.722C182.225 55.722 174.772 47.276 165.983 61.044C182.183 68.425 181.055 91.187 171.783 93.796C171.954 102.448 168.658 109.143 164.332 111.306C163.818 115.254 161.09 119 156.043 123.12C151.855 126.52 147.27 128.472 140.472 126.62C139.407 131.495 135.906 137.469 129.588 137.984C119.254 179.697 114.414 218.32 114.071 249.253C114.071 249.253 116.508 247.983 120.456 245.992C132.713 266.866 139.476 295.876 135.082 320.733C112.01 329.762 79.223 338.654 61.989 325.299C16.945 290.417 89.389 131.529 93.643 122.399C100.509 107.67 123.649 65.271 141.502 47.383C164.71 24.141 194.888 34.303 202.441 47.383C210.237 60.838 197.843 67.738 192.625 63.722Z" fill="#FFA775"/>
<path d="M164.265 112.061H164.22C163.993 112.049 163.78 111.948 163.627 111.779C163.475 111.61 163.395 111.388 163.406 111.161C164.253 94.82 159.889 86.108 147.306 79.015C147.107 78.9032 146.961 78.717 146.899 78.4973C146.838 78.2776 146.866 78.0424 146.978 77.8435C147.089 77.6446 147.276 77.4982 147.495 77.4366C147.715 77.375 147.95 77.4032 148.149 77.515C161.409 84.988 166.01 94.13 165.123 111.245C165.112 111.465 165.017 111.673 164.857 111.824C164.697 111.976 164.485 112.061 164.265 112.061Z" fill="#29263B"/>
<path d="M171.771 94.761C171.553 94.7612 171.344 94.6787 171.185 94.5301C171.026 94.3815 170.929 94.1781 170.915 93.961C170.605 88.6316 168.868 83.4835 165.885 79.0562C162.902 74.6288 158.784 71.085 153.961 68.796C153.857 68.7483 153.764 68.6804 153.687 68.5963C153.61 68.5122 153.55 68.4135 153.512 68.3061C153.473 68.1987 153.456 68.0846 153.463 67.9706C153.469 67.8566 153.497 67.745 153.547 67.6423C153.597 67.5396 153.667 67.4478 153.752 67.3724C153.838 67.297 153.938 67.2394 154.046 67.2031C154.154 67.1667 154.269 67.1523 154.382 67.1607C154.496 67.1691 154.607 67.2001 154.709 67.252C159.807 69.6714 164.16 73.4173 167.312 78.0972C170.465 82.7771 172.301 88.2188 172.628 93.852C172.643 94.0787 172.566 94.302 172.416 94.4726C172.266 94.6432 172.055 94.7473 171.828 94.762C171.809 94.7627 171.79 94.7624 171.771 94.761Z" fill="#29263B"/>
<path d="M166.247 62.029C166.11 62.0278 165.975 61.9935 165.854 61.929C163.621 60.8239 161.291 59.9268 158.893 59.249C158.675 59.1827 158.492 59.0325 158.385 58.8315C158.278 58.6304 158.255 58.395 158.321 58.177C158.387 57.959 158.537 57.7762 158.739 57.669C158.94 57.5617 159.175 57.5387 159.393 57.605C161.892 58.3136 164.32 59.2509 166.647 60.405C166.818 60.4939 166.954 60.6377 167.033 60.8132C167.113 60.9887 167.131 61.1858 167.084 61.3728C167.038 61.5598 166.931 61.7259 166.779 61.8443C166.627 61.9628 166.44 62.0268 166.247 62.026V62.029Z" fill="#29263B"/>
<path d="M140.517 127.535C140.466 127.535 140.415 127.53 140.365 127.521C140.254 127.501 140.147 127.46 140.052 127.399C139.956 127.338 139.874 127.259 139.81 127.166C139.745 127.073 139.7 126.968 139.676 126.857C139.652 126.747 139.65 126.632 139.671 126.521C140.603 120.121 140.679 113.625 139.899 107.204C139.88 107.028 139.917 106.851 140.002 106.697C140.088 106.543 140.219 106.418 140.378 106.341C140.537 106.264 140.715 106.238 140.89 106.266C141.064 106.294 141.225 106.375 141.352 106.498C143.241 108.254 145.492 109.576 147.947 110.37C148.167 110.429 148.354 110.572 148.468 110.769C148.582 110.966 148.613 111.201 148.554 111.42C148.496 111.64 148.352 111.828 148.155 111.942C147.958 112.056 147.724 112.087 147.504 112.028C145.454 111.385 143.527 110.401 141.804 109.117C142.398 115.014 142.248 120.963 141.356 126.823C141.322 127.021 141.219 127.201 141.066 127.331C140.912 127.462 140.718 127.534 140.517 127.535Z" fill="#29263B"/>
<path d="M108.924 267.3C108.838 267.3 108.753 267.287 108.671 267.262C108.563 267.229 108.463 267.175 108.376 267.103C108.29 267.031 108.218 266.943 108.165 266.843C108.113 266.743 108.08 266.634 108.07 266.522C108.059 266.41 108.071 266.297 108.104 266.189L113.493 248.72C113.565 248.509 113.717 248.334 113.916 248.232C114.115 248.131 114.346 248.111 114.559 248.177C114.773 248.242 114.952 248.389 115.059 248.585C115.167 248.781 115.193 249.011 115.134 249.226L109.744 266.694C109.69 266.869 109.581 267.023 109.434 267.132C109.286 267.241 109.107 267.3 108.924 267.3Z" fill="#29263B"/>
</svg>