<svg id="Layer_1" data-name="Layer 1" xmlns="http://www.w3.org/2000/svg" viewBox="0 0 122.88 122.88"><title>remove-ads</title><path d="M61.44,0A61.31,61.31,0,1,1,38,4.66,61.29,61.29,0,0,1,61.44,0ZM96.13,55.62A73.43,73.43,0,0,0,88.54,55a14.21,14.21,0,0,0-2.76.14.59.59,0,0,0-.38.61.75.75,0,0,0,.44.7,17,17,0,0,0,2.79.83,37.3,37.3,0,0,1,3.85,1.14A9.31,9.31,0,0,1,95.19,60a4.83,4.83,0,0,1,1.59,2.49,16,16,0,0,1,.39,4q0,5.14-2.45,7.34T87.36,76a35,35,0,0,1-5-.37,37.23,37.23,0,0,1-4-.75l-1.44-.37.37-7.34a61.8,61.8,0,0,0,9.29.91q1.92,0,1.92-1a.63.63,0,0,0-.44-.6,17.51,17.51,0,0,0-2.4-.52q-5.19-.9-7.06-2.84t-1.86-6.32q0-5.61,2.4-7.68t7.4-2.07a51.74,51.74,0,0,1,8.26.78l1.55.29-.22,7.47ZM62.7,75.41H51.85V47.61H62.33q6.4,0,9.21,3.24T74.36,61.2q0,7.13-2.7,10.66t-9,3.55Zm3-13.73q0-3.74-.69-5c-.45-.83-1.47-1.24-3.05-1.24H60.44V67.57H62a3.56,3.56,0,0,0,2.85-1.08c.59-.72.89-2.32.89-4.81Zm-40,13.73,5.48-27.8h13l5.59,27.8H41.11l-.7-3.19H34.75l-.6,3.19ZM37.26,55.17l-1.4,9.7h3.66l-1.33-9.7Zm64.93-23.63-6.39,6.4a58.74,58.74,0,0,0-9.26-.86,24.42,24.42,0,0,0-6,.71L94.83,23.48a50.62,50.62,0,0,0-52.7-8.77A50.49,50.49,0,0,0,23.52,94.79l9.38-9.38h1.25v0c2.42,0,4.59,0,7,0h5.18l1.61.43L31.58,102.16a50.51,50.51,0,0,0,70.61-70.62Z"/></svg>