<?xml version="1.0" encoding="iso-8859-1"?>
<!-- Uploaded to: SVG Repo, www.svgrepo.com, Generator: SVG Repo Mixer Tools -->
<svg version="1.1" id="Layer_1" xmlns="http://www.w3.org/2000/svg" xmlns:xlink="http://www.w3.org/1999/xlink" 
	 viewBox="0 0 511.984 511.984" xml:space="preserve">
<path style="fill:#656D78;" d="M426.641,10.672H21.335C9.554,10.672,0,20.218,0,31.999v277.319c0,11.781,9.554,21.343,21.335,21.343
	h405.306c11.781,0,21.344-9.562,21.344-21.343V31.999C447.985,20.218,438.423,10.672,426.641,10.672z"/>
<path style="fill:#5D9CEC;" d="M63.997,277.319c-5.883,0-10.664-4.781-10.664-10.656V74.67c0-5.891,4.781-10.672,10.664-10.672
	h277.334c5.875,0,10.656,4.781,10.656,10.672v191.993c0,5.875-4.781,10.656-10.656,10.656H63.997z"/>
<g>
	<path style="fill:#CCD1D9;" d="M405.313,63.998c0,5.891-4.764,10.672-10.67,10.672c-5.875,0-10.656-4.781-10.656-10.672
		s4.781-10.672,10.656-10.672C400.55,53.326,405.313,58.107,405.313,63.998z"/>
	<path style="fill:#CCD1D9;" d="M405.313,106.668c0,5.891-4.764,10.656-10.67,10.656c-5.875,0-10.656-4.765-10.656-10.656
		c0-5.89,4.781-10.671,10.656-10.671C400.55,95.997,405.313,100.778,405.313,106.668z"/>
</g>
<polygon style="fill:#FC6E51;" points="191.993,245.32 191.993,223.993 170.658,223.993 170.658,245.32 149.33,245.32 
	149.33,266.663 170.658,266.663 191.993,266.663 213.328,266.663 213.328,245.32 "/>
<polygon style="fill:#A0D468;" points="213.328,138.667 234.656,138.667 234.656,159.995 234.656,181.322 255.991,181.322 
	255.991,159.995 255.991,138.667 255.991,117.324 234.656,117.324 213.328,117.324 "/>
<polygon style="fill:#FFCE54;" points="127.995,245.32 106.66,245.32 85.332,245.32 63.997,245.32 63.997,266.663 85.332,266.663 
	106.66,266.663 127.995,266.663 149.33,266.663 149.33,245.32 "/>
<path style="fill:#4A89DC;" d="M341.331,53.326H63.997c-11.781,0-21.335,9.562-21.335,21.344v191.993
	c0,11.781,9.555,21.327,21.335,21.327h277.334c11.781,0,21.312-9.546,21.312-21.327V74.67
	C362.643,62.888,353.112,53.326,341.331,53.326z M341.331,266.663H63.997V74.67h277.334V266.663z"/>
<g>
	<rect x="277.331" y="74.672" style="fill:#434A54;" width="63.996" height="191.99"/>
	<path style="fill:#434A54;" d="M501.327,383.988H266.655c-5.891,0-10.664,4.766-10.664,10.671v63.982
		c0,1.906,0.508,3.781,1.477,5.422l18.82,31.999c1.922,3.25,5.42,5.25,9.201,5.25h196.994c3.781,0,7.281-2,9.203-5.25l18.828-31.999
		c0.969-1.641,1.469-3.516,1.469-5.422v-63.982C511.983,388.754,507.202,383.988,501.327,383.988z"/>
</g>
<path style="fill:#656D78;" d="M266.835,479.984H501.14l9.375-15.921c0.969-1.641,1.469-3.516,1.469-5.422H255.991
	c0,1.906,0.508,3.781,1.477,5.422L266.835,479.984z"/>
<rect x="357.331" y="223.992" style="fill:#CCD1D9;" width="53.31" height="149.32"/>
<path style="fill:#ED5564;" d="M383.987,138.667c-35.281,0-63.998,28.702-63.998,63.998c0,35.28,28.717,63.998,63.998,63.998
	c35.279,0,63.998-28.718,63.998-63.998C447.985,167.369,419.266,138.667,383.987,138.667z"/>
<path style="opacity:0.2;fill:#FFFFFF;enable-background:new    ;" d="M383.987,138.667c-3.625,0-7.188,0.297-10.656,0.891
	c30.217,5.093,53.311,31.452,53.311,63.107s-23.094,57.999-53.311,63.091c3.469,0.594,7.031,0.906,10.656,0.906
	c35.279,0,63.998-28.718,63.998-63.998C447.985,167.369,419.266,138.667,383.987,138.667z"/>
<path style="fill:#656D78;" d="M426.641,351.988h-85.31l-21.342,32l0.078,31.998c0,5.891,4.766,10.672,10.672,10.672h106.59
	c5.875,0,10.656-4.781,10.656-10.672v-31.998L426.641,351.988z"/>
</svg>