<?xml version="1.0" encoding="utf-8"?>
<!-- Uploaded to: SVG Repo, www.svgrepo.com, Generator: SVG Repo Mixer Tools -->
<svg width="800px" height="800px" viewBox="-136.77 0 440.965 440.965" xmlns="http://www.w3.org/2000/svg"><defs><style>.a{fill:#ffffff;}.b{fill:#b5886a;}.c{fill:#211715;}.d{fill:#bd957a;}</style></defs><path class="a" d="M74.813,332.939c1.859,29.107,3.36,54.022,3.615,56.694-7.694,7.556-37.916,5.333-43.778,3.852-1.334-41.63-2.111-71.408-3-90.963-.164-3.595-3.435-45.444-4.027-57.889l29.138-55.222h16l42.644,61.67c1.85,8.44,6.15,28.93,8.74,41.24,2.76,9.32,22.77,82.8,24.99,92.87-6.29,6-31.85,11.11-45.3,7.21-10.37-43.24-34.41-136.92-34.412-136.92C71.053,275.288,73.087,305.92,74.813,332.939Z"/><path class="a" d="M67.412,189.411H28.944c-.13,22.443-1.321,55.222-1.321,55.222.592,12.445,3.863,54.294,4.027,57.889.889,19.555,1.666,49.333,3,90.963,5.862,1.481,36.084,3.7,43.778-3.852-.491-5.153-5.619-93.013-9.007-134.157,11.921,43.472,24.042,93.676,34.413,136.92,13.449,3.9,39.011-1.207,45.3-7.207-2.218-10.072-22.222-83.556-24.982-92.873-2.59-12.314-6.9-32.8-8.749-41.238,0,0-10.217-41.752-15.089-61.667Z"/><path class="a" d="M104.584,50.061a4.435,4.435,0,0,1,3.549-1.038,4.189,4.189,0,0,1,3.012,2,5.925,5.925,0,0,1,.62,2.382,17.749,17.749,0,0,1-1.81,9.406,11.263,11.263,0,0,1-2.916,3.828,7.474,7.474,0,0,1-3.478,1.567l-.6.094c-.285,1.067-.606,1.966-.763,2.444-1.028,2.789-6.847,12.541-14.127,15.877a42.082,42.082,0,0,0,.618,5.771c.362,2.077.248,3.933,3.119,4.976.19.069,8.33,3.966,8.62,4.086l-11.054,8.65a81.192,81.192,0,0,1-17.31,1.64,46.955,46.955,0,0,1-14.59-2.08c-.01,0-9.507-8.53-9.507-8.53.553-.19,9.631-4.462,9.821-4.531,2.871-1.043,2.757-2.9,3.119-4.977a38.845,38.845,0,0,0,.594-5.084,26.058,26.058,0,0,1-8.542-6.935,30.146,30.146,0,0,1-5.75-11.226l-1.135-.175A7.466,7.466,0,0,1,42.6,66.641a11.266,11.266,0,0,1-2.917-3.828,17.739,17.739,0,0,1-1.809-9.406,5.925,5.925,0,0,1,.62-2.382,4.189,4.189,0,0,1,3.011-2,4.434,4.434,0,0,1,3.549,1.038s-.129-25.817,29.427-25.817S104.584,50.061,104.584,50.061Z"/><path class="b" d="M94.776,88.9a58.076,58.076,0,0,0,19.373-3.5,1.021,1.021,0,0,0,.377-1.673c-3.9-4.087-6.949-10.8-8.062-16.677a7.031,7.031,0,0,1-3.49,1.224c-.29,1.1-.623,2.035-.784,2.524C101.082,73.8,94.4,84.916,86.317,87.332A21.761,21.761,0,0,0,94.776,88.9Z"/><path class="b" d="M39.685,62.813A11.266,11.266,0,0,0,42.6,66.641a7.466,7.466,0,0,0,3.477,1.567l1.106.171a30.2,30.2,0,0,0,5.766,11.279c3.386,4.052,7.287,6.871,11.594,8.1-2.481.388-4.174.656-4.174.656-4.222.666-14.906.2-18.592-1.334-3.025-1.259-6.239-2.828-8.794-4.142a.487.487,0,0,1-.073-.817,18.417,18.417,0,0,0,6.374-16.658Z"/><path class="b" d="M44.744,49.676c5.794-4.729,17.337-12.094,22.882-16.863-.456,2.831-2.077,7.646-.035,7.151,8.529-1.975,16.7-5.958,21.629-12.185a60.052,60.052,0,0,0,4.033,10.805c1.84,3.15,7.192,10.446,11.862,11.076a4.493,4.493,0,0,1,3.018-.637,3.534,3.534,0,0,1,.55.125c2.5-5.836,1.241-15.708.243-20.631C105.841,13.274,90.607,1.174,74.631,2.058c-15.977-.884-31.211,11.216-34.3,26.459a43.654,43.654,0,0,0,.024,14.427l1.148,6.079a4.434,4.434,0,0,1,3.549,1.038"/><path class="c" d="M42.288,42.412A36.582,36.582,0,0,1,42,30.728a27.474,27.474,0,0,1,3.784-10.773A33.093,33.093,0,0,1,64.256,5.36,39.612,39.612,0,0,1,76.429,4.013,29.956,29.956,0,0,1,88.013,6.451,33.228,33.228,0,0,1,105.022,22.9a37.163,37.163,0,0,1,2.844,11.9c.452,4.527.664,9.47-1.086,13.764a2.013,2.013,0,0,0,1.4,2.46,2.05,2.05,0,0,0,2.461-1.4c1.716-4.21,1.693-9.11,1.342-13.571a47.468,47.468,0,0,0-2.248-12.106A36.6,36.6,0,0,0,92.425,4.149,35.614,35.614,0,0,0,79.461.18,60.581,60.581,0,0,0,72.832.013a33.61,33.61,0,0,0-6.9.772A37.125,37.125,0,0,0,43.962,15.441a32.154,32.154,0,0,0-5.691,13.291,39.919,39.919,0,0,0,.16,14.744c.555,2.512,4.412,1.449,3.857-1.064Z"/><path class="c" d="M87.425,28.775c1.379,4.7,2.936,9.415,5.812,13.428,2.664,3.716,6.277,8.239,10.968,9.325,2.5.579,3.574-3.276,1.063-3.857a10.742,10.742,0,0,1-4.752-3.022,33.287,33.287,0,0,1-4.123-4.886c-2.531-3.626-3.876-7.839-5.111-12.051-.723-2.465-4.584-1.416-3.857,1.063Z"/><path class="c" d="M87.9,26.276a31.98,31.98,0,0,1-13.374,9.448q-2.006.8-4.075,1.412-1.088.325-2.187.607a5.484,5.484,0,0,0-1,.245q-.765.14.737.2l.6.734c-.07-.012-.017-.143-.015-.257,0-.208.017-.415.039-.622.049-.461.151-.918.244-1.372.227-1.109.5-2.209.687-3.326A2.018,2.018,0,0,0,66.212,31.4c-7.207,6.158-15.525,10.89-22.882,16.863a2.013,2.013,0,0,0,0,2.828,2.046,2.046,0,0,0,2.828,0c7.357-5.973,15.671-10.7,22.883-16.862L65.7,32.282c-.41,2.413-1.7,5.423-.9,7.853a2.736,2.736,0,0,0,3.325,1.758,38.371,38.371,0,0,0,5.156-1.464c6.6-2.244,13.037-5.8,17.448-11.325a2.06,2.06,0,0,0,0-2.828,2.013,2.013,0,0,0-2.828,0Z"/><path class="c" d="M106,51.475a2.359,2.359,0,0,1,3.347.441,4.986,4.986,0,0,1,.478,2.524,14.93,14.93,0,0,1-.211,3.075c-.667,3.655-2.521,8.037-6.582,8.765a2.017,2.017,0,0,0-1.4,2.46,2.044,2.044,0,0,0,2.46,1.4c6.232-1.117,9.206-8.152,9.675-13.8.241-2.909,0-6.22-2.515-8.1a6.468,6.468,0,0,0-8.083.414,2.015,2.015,0,0,0,0,2.828,2.042,2.042,0,0,0,2.828,0Z"/><path class="c" d="M101.516,64.906a16.72,16.72,0,0,1-.974,4.508c-.063.192-.494,1.34-.238.75-.138.317-.286.629-.441.937a38.029,38.029,0,0,1-3.279,5.27c-2.851,3.911-6.723,8.055-11.606,9.2-2.5.588-1.444,4.446,1.063,3.858,5.853-1.374,10.394-6.158,13.837-10.82,2.973-4.025,5.431-8.587,5.638-13.7.1-2.574-3.9-2.569-4,0Z"/><path class="c" d="M46.47,48.647a6.471,6.471,0,0,0-8.083-.414c-2.517,1.877-2.756,5.2-2.515,8.1.47,5.648,3.443,12.684,9.675,13.8a2.056,2.056,0,0,0,2.46-1.4,2.017,2.017,0,0,0-1.4-2.46c-4.062-.728-5.916-5.111-6.583-8.765a14.762,14.762,0,0,1-.213-2.9,5.749,5.749,0,0,1,.408-2.579,2.343,2.343,0,0,1,3.419-.559,2.053,2.053,0,0,0,2.828,0,2.015,2.015,0,0,0,0-2.828Z"/><path class="c" d="M44.329,64.657a34.514,34.514,0,0,0,7.355,16.525c4.141,4.9,9.624,8.442,16.079,9.139a2.012,2.012,0,0,0,2-2,2.045,2.045,0,0,0-2-2c-5.507-.595-10.106-4.129-13.522-8.293-3.373-4.111-5.151-9.257-6.055-14.434a2.016,2.016,0,0,0-2.46-1.4,2.044,2.044,0,0,0-1.4,2.46Z"/><path class="c" d="M37.358,66a16.525,16.525,0,0,1-5.146,14.086,3.35,3.35,0,0,0-1.45,2.207,2.6,2.6,0,0,0,1.566,2.558c1.779.994,3.672,1.836,5.524,2.683a31.562,31.562,0,0,0,4.584,1.878A41.96,41.96,0,0,0,51.212,90.6a47.278,47.278,0,0,0,9.691-.251,2.014,2.014,0,0,0,1.4-2.46,2.052,2.052,0,0,0-2.461-1.4c-.395.06-1.511.144-2.242.177-1.07.047-2.141.056-3.212.042a67.545,67.545,0,0,1-6.98-.435A20.421,20.421,0,0,1,42.4,85.189c-1.422-.552-2.807-1.23-4.183-1.884q-1-.478-2-.971a9.993,9.993,0,0,1-2-.973l.514.883-.075-.22v1.063c-.077.489.5-.28.663-.437q.479-.462.92-.958a23.062,23.062,0,0,0,1.5-1.889,20.688,20.688,0,0,0,2.444-4.656,20.324,20.324,0,0,0,1.037-10.214,2.012,2.012,0,0,0-2.46-1.4,2.052,2.052,0,0,0-1.4,2.46Z"/><path class="c" d="M104.032,63.527a35.158,35.158,0,0,0,2.823,11.578,37.97,37.97,0,0,0,2.876,5.626c.552.876,1.152,1.717,1.787,2.534.292.374.587.746.9,1.105q.226.262.462.519,1.105-1.7.075-1.183a17.7,17.7,0,0,0-2.818.9q-1.5.437-3.024.8a56.688,56.688,0,0,1-6.249,1.148,31.892,31.892,0,0,1-11.78-.361c-2.493-.647-3.557,3.21-1.063,3.857,6.95,1.8,14.663.661,21.5-1.122,2.539-.662,9.219-1.887,6.913-5.962a13.959,13.959,0,0,0-1.528-1.827,22.747,22.747,0,0,1-1.516-2.107,35.258,35.258,0,0,1-2.482-4.569,31.071,31.071,0,0,1-2.873-10.934c-.144-2.56-4.144-2.576-4,0Z"/><path class="a" d="M43.181,61.746a5.211,5.211,0,0,1,2.332,1.333,5.653,5.653,0,0,1,1.124,5.906A5.544,5.544,0,0,1,35.975,66.1a5.655,5.655,0,0,1,2.07-3.542A5.909,5.909,0,0,1,43.181,61.746Z"/><path class="a" d="M103.747,62.229a5.3,5.3,0,0,0-2.615,1.762,5.462,5.462,0,0,0-.855,5.187,5.221,5.221,0,0,0,10.179-2.173,5.2,5.2,0,0,0-6.709-4.776Z"/><path class="c" d="M42.65,63.674c.118.035.471.222.574.193-.149.043-.352-.174-.107-.043.134.073.271.137.4.214a3.624,3.624,0,0,1,.422.279c-.277-.222-.022,0,.018.04.112.124.234.243.349.365.141.171.133.158-.026-.038.06.085.118.172.173.26.073.118.407.823.222.361a5.851,5.851,0,0,1,.244.753,1.773,1.773,0,0,1,.1.467c.035-.493-.008-.014,0,.1a3.536,3.536,0,0,1-.028.959c.124-.522-.082.281-.12.41a2.349,2.349,0,0,1-.16.456c.259-.467,0-.043-.043.046a1.9,1.9,0,0,1-.385.615l.136-.172c-.061.076-.124.151-.188.224q-.147.165-.3.318c-.106.1-.218.2-.327.3-.36.327.351-.208-.065.045-.212.128-.414.267-.634.382-.092.048-.5.311-.061.047a1.638,1.638,0,0,1-.278.1c-.141.049-.283.092-.427.129-.056.015-.633.166-.319.081s-.131.011-.18.014c-.151.009-.3.013-.452.01-.127,0-.252-.018-.379-.023-.3-.011.474.122,0-.006-.279-.076-.552-.151-.828-.241s.4.231,0-.011c-.169-.1-.344-.186-.509-.3-.029-.019-.382-.31-.148-.1s-.106-.1-.125-.121c-.1-.1-.2-.2-.3-.3-.02-.021-.339-.359-.116-.121s-.07-.1-.093-.137q-.117-.174-.222-.357c-.058-.1-.107-.206-.164-.307-.25-.445.076.278-.048-.095-.073-.219-.149-.434-.206-.658-.034-.133-.057-.267-.088-.4-.107-.459.022.463,0-.005-.011-.222-.029-.442-.024-.666,0-.132.014-.262.023-.394.027-.43-.12.453.017-.059.042-.157.074-.315.122-.47l.048-.149q.12-.318-.036.055c-.006,0,.309-.6.324-.624.067-.111.143-.216.212-.326.177-.281-.063.085-.1.116.172-.149.306-.364.47-.526.1-.1.206-.19.31-.285.028-.026.06-.046.087-.072-.52.48-.339.247-.046.055.148-.1.3-.178.456-.267.447-.258-.339.092.135-.064.151-.05.3-.1.456-.141.057-.015.646-.17.327-.082s.109-.009.164-.013c.179-.013.359-.018.539-.015.24,0,.477.042.716.049-.676-.02-.085,0,.116.04.13.029.258.062.386.1a2,2,0,1,0,1.063-3.857A7.782,7.782,0,0,0,36.4,61.334a7.614,7.614,0,0,0-2.143,7.813,7.451,7.451,0,0,0,7.23,5.442A7.673,7.673,0,0,0,48.067,63.2a7.174,7.174,0,0,0-4.354-3.378,2,2,0,0,0-1.063,3.857Z"/><path class="c" d="M103.215,60.3a7.429,7.429,0,0,0-5.252,7.146,7.662,7.662,0,0,0,5.554,7.1,6.849,6.849,0,0,0,8.024-3.448,7.983,7.983,0,0,0-.024-7.425,7.275,7.275,0,0,0-8.3-3.376,2,2,0,1,0,1.064,3.857c.192-.055.4-.069.587-.125-.653.2-.178.022.064.01a7.2,7.2,0,0,1,.869.017c.391.027-.113-.019-.118-.016.051-.034.37.078.43.093.15.039.3.089.442.137.347.114.035.019-.03-.015.152.079.3.153.449.242.049.03.5.373.172.1a2.439,2.439,0,0,1,.674.673c-.181-.416-.039-.046.034.067.051.078.1.158.145.239.067.116.123.237.187.355.213.4-.14-.427-.007-.017A9.981,9.981,0,0,1,108.465,67c.07.339-.054-.557-.031-.243,0,.055.011.11.016.165.012.154.018.309.017.463a3.317,3.317,0,0,0-.039.649l.035-.27c-.014.088-.03.175-.048.262-.031.154-.069.306-.111.457-.031.109-.065.216-.1.323l-.046.128c-.079.2-.064.17.047-.1.011.137-.246.492-.315.607s-.15.23-.225.346c-.243.378.218-.228.018-.025-.177.18-.4.54-.643.63.367-.136.16-.123.007-.024-.1.065-.2.126-.305.183l-.128.067q-.3.139.078-.024a1.143,1.143,0,0,1-.342.117c-.114.035-.229.065-.345.091l-.139.028c-.223.037-.185.032.114-.013-.065.094-.74.008-.837.006-.476-.01.446.1-.02,0-.091-.019-.182-.036-.272-.058a2.735,2.735,0,0,1-.8-.257c.367.239.2.09.095.029-.122-.069-.249-.128-.371-.2s-.24-.146-.355-.225c-.059-.039-.116-.079-.172-.121q-.178-.132.128.1c-.19-.044-.478-.436-.607-.577-.011-.013-.177-.171-.182-.21l.141.187c-.056-.074-.109-.149-.161-.225-.129-.192-.231-.4-.347-.594-.233-.4.117.414-.017-.024-.063-.206-.135-.406-.183-.616a1.239,1.239,0,0,1-.062-.316c.033.267.039.284.016.053-.007-.107-.012-.214-.013-.321,0-.135,0-.269.011-.4,0-.08.011-.161.02-.241q-.057.4,0,.053c.081-.315.16-.622.268-.93-.157.45.023-.031.065-.111a5.427,5.427,0,0,1,.291-.486c.061-.09.3-.343.04-.061.153-.169.318-.323.474-.487.342-.362-.219.131.018-.029.136-.092.27-.187.411-.271.109-.064.219-.125.331-.181.235-.119.327-.04-.087.024a3.9,3.9,0,0,0,.472-.166,2,2,0,1,0-1.064-3.857Z"/><path class="a" d="M49.658,396.3c-6.971,7.4-12.436,13-19.07,20.706a23.735,23.735,0,0,0-4.36,6.376,8.227,8.227,0,0,0,.325,7.457c2.609,4,8.6,3.582,13.121,2.02,6.522-2.254,12.486-5.859,18.258-9.64,5.067-3.319,10.2-6.981,13.148-12.274s.906-9.557.57-16.127"/><path class="a" d="M145.65,388.522c2,4.222,4.822,12.431,8.526,18.006a106.746,106.746,0,0,1,9.617,18c1.363,3.272,2.542,7.1.89,10.238-1.6,3.04-5.393,4.3-8.828,4.193-4.958-.158-10.263-4.638-14-7.9-5.088-4.446-13.131-14.729-14.019-18.009a39.442,39.442,0,0,1-.848-6.642c-.555-5.842-.812-8.946-1.26-12.53"/><path class="c" d="M59.475,87.121a37.649,37.649,0,0,1-.468,3.84,21.451,21.451,0,0,1-.443,2.456c-.029.1-.214.545-.1.316.125-.255-.14.215-.18.284-.174.3-.023.014.032-.039-.076.074-.156.155-.227.231-.056.061-.284.207,0,.013-.1.071-.209.14-.318.2-.367.214-.774.354-1.278.585-2.265,1.04-4.517,2.108-6.78,3.155q-.879.408-1.761.81l-.629.283c-.5.226.466-.176.119-.051a2.053,2.053,0,0,0-1.4,2.461,2.016,2.016,0,0,0,2.46,1.4c.942-.339,1.853-.81,2.761-1.23q2.063-.951,4.12-1.914c1.034-.483,2.065-.969,3.1-1.445.092-.043.189-.081.28-.128s-.464.186-.442.186a1.813,1.813,0,0,0,.429-.171,7.94,7.94,0,0,0,1.117-.533,5.672,5.672,0,0,0,2.351-2.793,12.464,12.464,0,0,0,.591-2.713c.283-1.727.544-3.454.662-5.2a2.018,2.018,0,0,0-2-2,2.038,2.038,0,0,0-2,2Z"/><path class="c" d="M86.1,87.121a54.338,54.338,0,0,0,.933,7.463,6.091,6.091,0,0,0,4.03,4.631c.64.256-.547-.266-.092-.043.151.074.3.143.458.214l1.438.682q1.948.926,3.894,1.854c.886.422,1.764.874,2.666,1.261a2.067,2.067,0,0,0,2.736-.717,2.014,2.014,0,0,0-.717-2.737c-1.913-.82-3.773-1.788-5.651-2.682-.912-.434-1.82-.878-2.739-1.3-.583-.267-.887-.378-1.381-.658-.021-.012-.266-.191-.091-.054s-.081-.082-.122-.12c-.059-.055-.11-.117-.168-.174.055.054.206.341.031.039-.072-.125-.139-.269-.221-.388.2.288.078.222.031.07-.028-.094-.063-.187-.091-.282a23.357,23.357,0,0,1-.489-2.734,38.768,38.768,0,0,1-.455-4.327,2.044,2.044,0,0,0-2-2,2.019,2.019,0,0,0-2,2Z"/><path class="a" d="M73.741,168.03c1.844-7.174,6.436-25.23,7.242-29.175,3.425-16.762,8.574-25.9,12-42.666,7.514,3.177,16.484,5.994,23.481,10.188a12.174,12.174,0,0,1,5.259,6.775,236.682,236.682,0,0,1,5.926,29.777c.863,5.926,4.889,23.26,3.334,32.149-3.5-.451-8.085-.9-12.269-1.178-.2,11.212-.543,29.415-.543,29.415.532,5.989,1.065,13.542,1.478,19.54.634,9.192,2.38,18.733,2.907,27.228a.854.854,0,0,1-.951.9,75.184,75.184,0,0,0-9.168-.793c-9.822,1.106-19.862,1.285-24.927,1.688a1.1,1.1,0,0,1-1.176-.91c-2.643-14.789-9.235-43.006-12.685-62.556-1.17-6.636-2.314-11.188-.6-17.705C73.164,170.268,73.408,169.327,73.741,168.03Z"/><path class="a" d="M56.818,98.413q-.033-.891-.057-1.78c-5.9,2.31-11.215,3.69-17.112,6-2.734,1.071-6.791,3.613-8.528,5.981a42.049,42.049,0,0,0-4.212,9.723c-2.477,11.211-4.817,17.753-7.111,27.852-1.74,7.657-6.223,17.777-5.482,28,4.6,0,14.165-.433,20.017-.938l-.017.271c-.929,14.514-1.4,28.731-1.242,38.034,7.556-.419,14.488-.759,18.173-.883.088-.678.153-1.151.153-1.151,2.834-21.6,6.925-43.64,7.185-46.1,1.026-9.679.757-19.443.487-29.172C58.746,122.506,57.256,110.211,56.818,98.413Z"/><path class="d" d="M54.628,187.485c2.005-12.621,3.788-22.466,3.957-24.062,1.026-9.679.757-19.443.487-29.172-.223-8.049-.993-16.357-1.593-24.585a46.955,46.955,0,0,0,14.59,2.08,81.207,81.207,0,0,0,17.311-1.64c-2.866,9.286-6.04,17.213-8.4,28.749-.952,4.658-7.181,28.989-7.934,31.851-1.714,6.517-.57,11.069.6,17.705q.088.5.178,1h-19.5Q54.477,188.438,54.628,187.485Z"/><path class="c" d="M48.244,394.885c-5.837,6.2-11.748,12.327-17.358,18.734-2.736,3.126-5.949,6.386-7.011,10.53-.948,3.7-.024,7.689,3.152,10,2.736,2,6.379,2.053,9.589,1.54a38.891,38.891,0,0,0,10.887-4,111.592,111.592,0,0,0,11.25-6.624,61.849,61.849,0,0,0,9.3-7.058c3.049-2.948,5.82-6.672,6.424-10.968.573-4.077-.594-8.16-.827-12.225-.147-2.559-4.148-2.576-4,0,.19,3.314.993,6.6,1,9.92a12.806,12.806,0,0,1-3.375,8.248,38.472,38.472,0,0,1-7.823,6.812c-3.119,2.152-6.327,4.2-9.611,6.094a62.935,62.935,0,0,1-10.274,4.89c-2.564.911-5.511,1.628-8.222.977a4.876,4.876,0,0,1-3.744-5.973c.647-3.56,3.52-6.368,5.806-8.986,5.7-6.533,11.721-12.775,17.665-19.086,1.765-1.873-1.058-4.707-2.828-2.829Z"/><path class="c" d="M143.923,389.531c1.474,3.142,2.689,6.4,4.1,9.574a85.323,85.323,0,0,0,5.942,10.774,107.176,107.176,0,0,1,6.712,12.466c1.461,3.207,4.241,8.24,2.116,11.71-1.687,2.756-5.828,3.395-8.722,2.611-3.8-1.029-7.051-3.786-9.972-6.306a68.549,68.549,0,0,1-12.644-14.691c-.4-.616-.78-1.241-1.126-1.887-.127-.235-.246-.474-.363-.714-.035-.074-.151-.368-.007,0-.037-.095-.078-.19-.108-.288a35.648,35.648,0,0,1-.925-7.088c-.372-3.94-.7-7.886-1.192-11.815a2.064,2.064,0,0,0-2-2,2.012,2.012,0,0,0-2,2c.468,3.775.792,7.566,1.149,11.353s.324,7.67,2.264,11.06a63.618,63.618,0,0,0,6.114,8.491,64.64,64.64,0,0,0,7.186,7.691c3.363,2.963,6.913,5.917,11.127,7.573a13.233,13.233,0,0,0,11.744-1c4.112-2.691,4.8-7.44,3.536-11.908-1.345-4.742-3.8-9.359-6.149-13.668-2.533-4.643-5.685-8.912-7.982-13.682-1.938-4.025-3.446-8.236-5.342-12.278-1.093-2.328-4.542-.3-3.454,2.019Z"/><path class="c" d="M88.848,108.178a72.021,72.021,0,0,1-15.878,1.564,52.533,52.533,0,0,1-7.709-.383c-1.286-.179-2.562-.439-3.827-.734a19.285,19.285,0,0,0-3.965-.959c-2.573,0-2.578,4,0,4,.207,0,1.244.408,1.675.517.67.17,1.342.331,2.018.478,1.3.284,2.618.506,3.942.679a58.109,58.109,0,0,0,8.236.4,76.4,76.4,0,0,0,16.571-1.7c2.5-.59,1.444-4.448-1.063-3.857Z"/><path class="a" d="M118.449,200.792c.7-1.434,1.592-3.049,2.756-5.159,1.174-2.128.7-4.308,1.111-5.667,1.268-4.2,2.439-10.15,3.333-14.444,0,0,.08-.383.215-1.024-4.437-.444-9.361-.8-12.991-.863-.142.569-.224.887-.224.887-1.04,4.029-1.388,9.539-2.429,13.568a1.447,1.447,0,0,1-.382.779c-.263.225-.651.154-.989.23a27.093,27.093,0,0,0-13.843,7.27c7.738,2.386,14.829,4.412,22.44,6.727C117.727,202.348,118.057,201.6,118.449,200.792Z"/><path class="c" d="M56.229,94.705c-3.618,1.405-7.315,2.575-10.994,3.806a51.617,51.617,0,0,0-9.58,3.864,18.507,18.507,0,0,0-6.576,5.7A38.584,38.584,0,0,0,26,114.733a65.306,65.306,0,0,0-2.189,8.111c-.779,3.178-1.634,6.336-2.5,9.491-1.681,6.118-3.016,12.341-4.813,18.423-2.254,7.629-4.7,15.37-4.176,23.431.166,2.555,4.167,2.574,4,0-.45-6.943,1.42-13.63,3.39-20.215,1.778-5.939,3.106-11.988,4.74-17.968.8-2.92,1.613-5.836,2.375-8.766.785-3.023,1.33-6.141,2.22-9.131a39.87,39.87,0,0,1,2.512-6.2,12.25,12.25,0,0,1,4.3-4.931,38.337,38.337,0,0,1,9.773-4.382c3.9-1.318,7.825-2.54,11.661-4.031a2.06,2.06,0,0,0,1.4-2.461,2.014,2.014,0,0,0-2.46-1.4Z"/><path class="c" d="M92.451,98.117c6.69,2.815,13.647,5.038,20.108,8.379,2.584,1.336,4.993,2.725,6.472,5.332a19.177,19.177,0,0,1,1.536,4.832q.6,2.353,1.149,4.716c1.548,6.666,2.715,13.407,3.723,20.173.739,4.956,1.742,9.865,2.536,14.812.515,3.212.954,6.44,1.193,9.686a36.2,36.2,0,0,1-.114,8.5,2.06,2.06,0,0,0,1.4,2.46,2.016,2.016,0,0,0,2.46-1.4c.971-5.79.173-11.8-.658-17.553-.74-5.129-1.836-10.2-2.623-15.314-1.09-7.082-2.184-14.147-3.762-21.14a68.817,68.817,0,0,0-2.592-10.105,14.425,14.425,0,0,0-5.978-6.951c-7.409-4.461-15.853-6.949-23.783-10.286a2.012,2.012,0,0,0-2.461,1.4,2.052,2.052,0,0,0,1.4,2.46Z"/><path class="c" d="M106.094,161.6c0,4.064.049,8.128.052,12.193a2.02,2.02,0,0,0,2,2,125.436,125.436,0,0,1,22.837,1.289,2.012,2.012,0,0,0,2-2,2.05,2.05,0,0,0-2-2,125.436,125.436,0,0,0-22.837-1.289l2,2c0-4.065-.051-8.129-.052-12.193,0-2.574-4-2.578-4,0Z"/><path class="c" d="M91.054,95.657c-1.893,9.18-4.975,17.963-7.81,26.875-2.133,6.706-3.6,13.532-5.246,20.361-1.439,5.963-2.949,11.91-4.461,17.855-1.25,4.919-3.049,10.069-3.323,15.157-.255,4.722.861,9.438,1.688,14.056.743,4.148,1.548,8.285,2.377,12.416,1.756,8.746,3.629,17.467,5.481,26.192,1.582,7.457,3.195,14.913,4.553,22.415a3.4,3.4,0,0,0,1.556,2.482,4.744,4.744,0,0,0,2.842.325c1.926-.126,3.855-.213,5.782-.307,5.02-.246,10.04-.517,15.045-1a30.156,30.156,0,0,1,4.07-.262c1.1.043,2.2.107,3.293.2,1.443.125,2.872.378,4.313.506a3,3,0,0,0,2.588-.875c.963-1.041.733-2.428.631-3.718-.2-2.561-.489-5.115-.8-7.664-.634-5.235-1.373-10.459-1.822-15.714-.413-4.836-.686-9.686-1.058-14.525q-.274-3.564-.584-7.124a2.053,2.053,0,0,0-2-2,2.015,2.015,0,0,0-2,2c.671,7.6,1.037,15.229,1.747,22.824.382,4.085.92,8.153,1.431,12.223.249,1.988.493,3.976.706,5.968a28.758,28.758,0,0,1,.466,6.056l.273-1.009.106-.141,1.009-.273a14.92,14.92,0,0,1-2.7-.289q-1.675-.207-3.361-.327a75.3,75.3,0,0,0-10.859.524c-3.366.249-6.737.428-10.108.594-1.393.068-2.787.134-4.18.209-.9.048-2.473.452-3.3.136l.882.515-.029.111-.093-.515q-.072-.4-.145-.793-.139-.756-.282-1.512-.322-1.7-.658-3.389-.75-3.793-1.543-7.578c-1.2-5.762-2.431-11.517-3.652-17.275-2.5-11.805-4.975-23.621-7.033-35.514a32.74,32.74,0,0,1-.544-9.2,34.864,34.864,0,0,1,1.041-4.875q1.266-4.906,2.508-9.819c1.815-7.155,3.716-14.3,5.245-21.525,3-14.178,8.876-27.525,11.8-41.726.518-2.512-3.336-3.587-3.857-1.063Z"/><path class="c" d="M56.761,191.411h16c2.573,0,2.578-4,0-4h-16c-2.574,0-2.578,4,0,4Z"/><path class="c" d="M110.721,173.99c-.65,2.581-.982,5.227-1.371,7.856-.2,1.329-.4,2.657-.665,3.974-.057.284-.516,1.543-.393,1.739q1.405-.63.552-.46c-.176.023-.351.047-.526.072-.251.046-.5.114-.751.174a30.118,30.118,0,0,0-13.554,7.207c-1.9,1.751.939,4.574,2.828,2.829a25.148,25.148,0,0,1,7.092-4.679,25.946,25.946,0,0,1,3.135-1.09c1.027-.294,2.1-.408,3.084-.694,1.608-.468,1.983-2.114,2.29-3.546.29-1.359.506-2.733.712-4.106.411-2.747.745-5.515,1.424-8.212.629-2.5-3.228-3.563-3.857-1.064Z"/><path class="c" d="M92.451,197.673c8.371,2.607,16.8,5.015,25.188,7.571,2.468.752,3.523-3.108,1.063-3.857-8.386-2.556-16.817-4.965-25.187-7.571-2.464-.768-3.518,3.093-1.064,3.857Z"/><path class="c" d="M123.721,174.99c-1.009,4.85-2.112,9.647-3.333,14.445a25.492,25.492,0,0,0-.358,3.273,9.745,9.745,0,0,1-1.447,3.54,54.529,54.529,0,0,0-2.973,6.076,2.013,2.013,0,0,0,1.4,2.46,2.048,2.048,0,0,0,2.46-1.4,51.08,51.08,0,0,1,2.893-5.707,11.88,11.88,0,0,0,1.523-3.833c.18-1.105.1-2.266.362-3.349,1.164-4.81,2.325-9.595,3.333-14.444.522-2.512-3.332-3.586-3.857-1.064Z"/><path class="a" d="M60.229,209.986c-8.976-1.6-41.537-6.506-51.121-7.819A2.309,2.309,0,0,0,6.527,204c-1.227,6.033-3.693,21.321-4.584,27.569a2.313,2.313,0,0,0,1.934,2.616c9.227,1.443,42.819,6.475,52.008,7.607a2.312,2.312,0,0,0,2.571-1.925c1.015-6.249,2.971-21.275,3.67-27.333A2.314,2.314,0,0,0,60.229,209.986Z"/><path class="c" d="M60.761,208.058c-11.424-2.026-22.925-3.667-34.4-5.383-5.232-.783-10.465-1.564-15.7-2.3-1.635-.228-3.15-.389-4.538.715-1.358,1.082-1.584,2.648-1.886,4.246-.613,3.246-1.166,6.5-1.71,9.763q-.878,5.259-1.7,10.528-.336,2.158-.655,4.321c-.272,1.849-.414,3.7,1.11,5.09,1.636,1.492,4.578,1.46,6.678,1.781q4.02.613,8.043,1.218c12.085,1.817,24.172,3.647,36.284,5.279,2.7.363,5.953,1.221,7.62-1.676.709-1.233.738-2.891.943-4.274q.361-2.439.7-4.883.764-5.5,1.471-11.009c.381-2.955.95-5.969,1.108-8.946a4.379,4.379,0,0,0-3.365-4.474c-2.5-.627-3.563,3.23-1.064,3.857.431.108.466.18.406.82-.058.615-.145,1.228-.219,1.841q-.251,2.07-.513,4.138-.622,4.922-1.287,9.837c-.416,3.067-.839,6.133-1.307,9.192-.081.528-.14,1.068-.25,1.59-.116.549-.206.5-.849.431-.828-.085-1.652-.211-2.477-.321l.052.007-.4-.054-.722-.1-1.655-.228q-1.852-.258-3.7-.52-4.212-.6-8.42-1.212-9.132-1.329-18.257-2.7-7.125-1.068-14.247-2.16c-.588-.091-1.828-.1-1.942-.579a5.142,5.142,0,0,1,.207-1.48q.146-.987.3-1.973.74-4.853,1.538-9.695c.529-3.225,1.071-6.449,1.646-9.666.223-1.244.45-2.487.692-3.728.215-1.1.172-1.279,1.22-1.133,4.766.664,9.526,1.373,14.286,2.082,11.2,1.67,22.4,3.332,33.568,5.207q1.167.195,2.333.4a2.058,2.058,0,0,0,2.461-1.4A2.018,2.018,0,0,0,60.761,208.058Z"/><path class="c" d="M54.761,96.633c.233,8.045.965,16.062,1.56,24.086.6,8.131.911,16.271.985,24.424.038,4.122-.01,8.248-.245,12.365-.114,2-.3,3.983-.482,5.975-.047.523.073-.45,0,.034-.04.251-.075.5-.114.754-.641,4.135-1.364,8.258-2.034,12.389q-1.968,12.144-3.653,24.33a2.07,2.07,0,0,0,1.4,2.461,2.014,2.014,0,0,0,2.46-1.4c1.643-12.008,3.64-23.953,5.56-35.918a112.943,112.943,0,0,0,1.123-17.28c.047-8.262-.2-16.546-.755-24.788-.619-9.144-1.532-18.27-1.8-27.435-.075-2.568-4.075-2.579-4,0Z"/><path class="c" d="M10.5,223.651c-.478-.1.257-.119.729.473v2.828l0,0-.883.515c-1.038.2.124.125.543.174.816.1,1.631.2,2.446.307,2.716.353,5.048.674,7.948,1.076,7.064.98,14.125,1.992,21.174,3.077,2.97.458,5.942.917,8.9,1.462,2.517.464,3.6-3.39,1.064-3.857C39.6,227.338,26.6,225.678,13.67,223.989c-1.548-.2-3.93-.98-5.265.135a2.044,2.044,0,0,0,0,2.828,1.878,1.878,0,0,0,1.036.556c2.511.529,3.585-3.326,1.063-3.857Z"/><path class="a" d="M18.66,172.225c.057,4.159,2.074,34.3,1.185,42.075.222,5.111-5.879,11.5-5.8,15.654.235,2.608,0,6.251,1.3,8.571.969,1.726,3.013,2.534,4.956,2.912s3.981.469,5.769,1.317c1.2.567,2.271,1.469,3.58,1.658s2.913-.871,2.564-2.147a7.893,7.893,0,0,0,2.48,1.725,2.684,2.684,0,0,0,2.832-.474,4,4,0,0,0,.625-3.126l-.85-10.582c1.066.066,2.245,2.375,2.842,3.261a4.714,4.714,0,0,0,1.958,1.793,2.343,2.343,0,0,0,2.517-.34,4.806,4.806,0,0,0,1.222-4.556c-1.778-4.444-4.673-6.365-7.111-8.778-1.731-1.712-3.7-2.31-4.946-4.4a2.52,2.52,0,0,1-.456-1.919c-.628-8.045-.193-25.957.984-44.344"/><path class="a" d="M14.045,229.954c.235,2.608,0,6.251,1.3,8.571.969,1.726,3.013,2.534,4.956,2.912s3.981.469,5.769,1.317c1.2.567,2.271,1.469,3.58,1.658s2.913-.871,2.564-2.147a7.893,7.893,0,0,0,2.48,1.725,2.684,2.684,0,0,0,2.832-.474,4,4,0,0,0,.625-3.126l-.85-10.582"/><path class="c" d="M12.045,229.954c.223,2.718.019,5.613.97,8.215,1.052,2.877,3.5,4.474,6.416,5.126,1.5.335,3.041.425,4.526.822,1.594.426,2.845,1.529,4.406,2.033,3.011.973,6.324-1.082,5.785-4.416l-3.343,1.946c1.465,1.321,3.148,2.625,5.238,2.5a4.256,4.256,0,0,0,4.016-3.42c.4-1.94-.042-4.1-.2-6.048l-.554-6.9c-.2-2.548-4.207-2.57-4,0l.758,9.432c.045.557.393,2.683-.009,2.9-.754.413-1.954-.87-2.422-1.292A2.019,2.019,0,0,0,30.29,242.8c-.112-.694.361-.412-.241-.37a1.892,1.892,0,0,1-.866-.244c-1.085-.49-2.036-1.181-3.16-1.6-2.113-.791-4.417-.737-6.558-1.416a3.994,3.994,0,0,1-2.964-3.379,46.885,46.885,0,0,1-.456-5.831c-.208-2.548-4.21-2.57-4,0Z"/><path class="c" d="M16.045,229.954c0-.149.017-.3.015-.449-.007-.38-.054.231,0-.011.066-.3.127-.6.216-.893s.185-.57.293-.85c.016-.04.2-.489.114-.287s.118-.256.136-.3c.638-1.388,1.4-2.718,2.117-4.064,1.443-2.691,3-5.663,2.91-8.8a2,2,0,0,0-4,0,8.266,8.266,0,0,1-.034,1.007c-.02.222.061-.248-.022.123-.042.19-.076.38-.121.569a14.457,14.457,0,0,1-.633,1.933c-.15.376-.572,1.263-.885,1.879-.351.69-.72,1.371-1.088,2.052-1.337,2.469-3.021,5.189-3.017,8.091.005,2.573,4.005,2.578,4,0Z"/><path class="a" d="M33.313,214.925a2.606,2.606,0,0,0,.475,1.86c1.245,2.093,3.215,2.691,4.946,4.4,2.438,2.413,5.333,4.334,7.111,8.778a4.806,4.806,0,0,1-1.222,4.556,2.343,2.343,0,0,1-2.517.34,4.714,4.714,0,0,1-1.958-1.793c-.6-.886-1.776-3.195-2.842-3.261"/><path class="c" d="M31.313,214.925c-.221,1.766.988,3.543,2.221,4.706,1.093,1.031,2.446,1.729,3.548,2.745a35.154,35.154,0,0,1,5.349,5.443c.633.915,1.7,2.343,1.61,3.46-.047.6-.419,1.979-1.149,1.748-.911-.288-1.487-1.755-1.968-2.479-.727-1.092-1.7-2.441-3.087-2.668a2.061,2.061,0,0,0-2.46,1.4,2.016,2.016,0,0,0,1.4,2.46c.278.045.041,0-.072-.1a3.836,3.836,0,0,1,.479.508A13.75,13.75,0,0,1,38,233.406a9.064,9.064,0,0,0,2.455,2.814,4.611,4.611,0,0,0,4.269.547,5.275,5.275,0,0,0,2.755-3.076c2.168-5.215-3.055-9.92-6.492-13.117a32.424,32.424,0,0,0-3.421-2.833c-.861-.608-2.4-1.608-2.252-2.816a2.01,2.01,0,0,0-2-2,2.049,2.049,0,0,0-2,2Z"/><path class="c" d="M16.808,176.781c.066,4.1.409,8.2.622,12.3.309,5.958.6,11.922.65,17.889a62.745,62.745,0,0,1-.235,7.333,2.012,2.012,0,0,0,2,2,2.047,2.047,0,0,0,2-2,102.767,102.767,0,0,0,.053-14.879c-.206-5.728-.526-11.451-.836-17.175-.1-1.819-.225-3.642-.254-5.465-.042-2.571-4.042-2.579-4,0Z"/><path class="c" d="M32.316,175.522c-.815,12.765-1.847,25.718-1.043,38.512.161,2.557,4.162,2.575,4,0-.8-12.794.228-25.747,1.043-38.512.164-2.57-3.836-2.56-4,0Z"/><path class="c" d="M14.316,176.189c6.547-.009,13.127-.361,19.649-.908,1.42-.119,3.786.057,4.606-1.29a6.2,6.2,0,0,0,.607-2.471c.311-2.49.384-5.016.475-7.522.086-2.38.105-4.764.219-7.143.123-2.573-3.878-2.567-4,0-.13,2.728-.149,5.461-.259,8.19-.066,1.629-.14,3.26-.274,4.885-.027.33-.056.66-.091.988-.018.174-.037.348-.059.522.03-.241.04-.243,0,0-.035.194-.1.4-.116.593-.045.491.145-.205.033-.038L36.83,171a200.6,200.6,0,0,1-22.514,1.187c-2.573,0-2.578,4,0,4Z"/><path class="c" d="M38.532,237.346c.047.074.142.186.165.215.009.012.106.15.166.214l.012.011c.133.114.273.219.415.321a.178.178,0,0,0,.03.017c.161.073.321.149.489.206l.017,0a1.526,1.526,0,0,0,.8.036,1.5,1.5,0,0,0,.743-.238l.405-.312a1.509,1.509,0,0,0,.414-.644.994.994,0,0,0,.136-.5,1.5,1.5,0,0,0-.036-.8l-.2-.478a2.008,2.008,0,0,0-.718-.718l-.1-.069a1.5,1.5,0,0,0-.743-.238,1.526,1.526,0,0,0-.8.036,2.238,2.238,0,0,0-1.2.919l-.2.478a2.018,2.018,0,0,0,0,1.063l.2.478a2.008,2.008,0,0,0,.718.718l.1.069,1.542-3.655-.027-.008.478.2a.153.153,0,0,1-.037-.021l.405.313a.37.37,0,0,1-.028-.028l.313.405-.009-.013a2.238,2.238,0,0,0-1.2-.919,1.522,1.522,0,0,0-.8-.036,1.492,1.492,0,0,0-.744.237l-.405.313a2,2,0,0,0-.514.883l-.071.531a1.991,1.991,0,0,0,.273,1.01Z"/><path class="c" d="M69.314,74.451a12.43,12.43,0,0,0,5.987,1.4,9.847,9.847,0,0,0,6.143-1.855,2,2,0,0,0,0-2.828,2.06,2.06,0,0,0-2.828,0c.688-.537-.047,0-.266.117-.169.088-.629.23-.008.023-.164.055-.323.124-.488.178-.208.066-.419.123-.632.173a3.577,3.577,0,0,0-.736.139c.189-.1.318-.038.006-.007-.134.013-.268.024-.4.033-.323.021-.647.029-.972.027q-.435,0-.87-.031c-.133-.009-.266-.02-.4-.033-.076-.008-.152-.016-.227-.026-.157-.018-.1-.011.17.023a1.865,1.865,0,0,1-.654-.122q-.315-.069-.623-.162c-.179-.053-.354-.117-.53-.178-.456-.156.411.2,0,0q-.328-.154-.649-.324a2,2,0,0,0-2.019,3.454Z"/><path class="c" d="M74.051,60.649a26.819,26.819,0,0,1,.633,2.895l-.071-.532a1.784,1.784,0,0,1,.011.4l.071-.532a.946.946,0,0,1-.044.18l.2-.478a.773.773,0,0,1-.064.116l.313-.405a.6.6,0,0,1-.095.093l.405-.313a1.929,1.929,0,0,1-.229.122l.478-.2a1.684,1.684,0,0,1-.387.113l.532-.072a1.52,1.52,0,0,1-.363,0l.532.071c-.137-.019-.271-.052-.408-.071a1.512,1.512,0,0,0-.8-.035,1.489,1.489,0,0,0-.744.237,2,2,0,0,0-.718,2.736,1.914,1.914,0,0,0,1.2.919c.357.049.7.138,1.067.154a3.5,3.5,0,0,0,1.631-.4,2.462,2.462,0,0,0,1.333-1.612,3.821,3.821,0,0,0-.013-1.679c-.158-.932-.374-1.856-.613-2.771a2.062,2.062,0,0,0-.92-1.2,2,2,0,0,0-2.736.717,2.11,2.11,0,0,0-.2,1.541Z"/><path class="c" d="M59.243,52.314c-.483,1.571-.168,5.185,2.808,5.493,3.933-.024,4.143-4.393,2.819-6.447C63.785,49.678,60.6,48.978,59.243,52.314Z"/><path class="c" d="M90.742,52.315c.483,1.571.168,5.184-2.808,5.492-3.933-.024-4.142-4.393-2.818-6.447C86.2,49.678,89.387,48.979,90.742,52.315Z"/><path class="c" d="M25.623,244.633c.81,16.873,2.292,33.722,3.521,50.568,1.215,16.657,1.5,33.387,2.012,50.077q.744,24.1,1.494,48.207a2.042,2.042,0,0,0,1.468,1.928,53.727,53.727,0,0,0,8.582,1.143,128.526,128.526,0,0,0,13,.4,78.167,78.167,0,0,0,13.672-1.326c3.491-.7,7.168-1.777,9.943-4.106,1.358-1.141,1.068-2.315.962-3.826s-.2-3.036-.3-4.554q-.486-7.524-.951-15.05-1.432-22.886-2.9-45.77c-1.073-16.581-2.172-33.161-3.388-49.733-.821-11.191-1.518-22.433-2.887-33.573-.1-.83-.211-1.659-.332-2.486a2.015,2.015,0,0,0-2.461-1.4,2.053,2.053,0,0,0-1.4,2.461c.036.245.069.491.1.736-.112-.791.031.251.06.487q.124,1,.234,2c.185,1.66.35,3.322.508,4.985.427,4.5.8,9,1.158,13.5.963,12.1,1.809,24.2,2.632,36.314q1.374,20.212,2.648,40.431,1.1,17.283,2.175,34.567c.384,6.128.713,12.264,1.19,18.386.016.213.033.426.053.639l.585-1.414a9.265,9.265,0,0,1-2.588,1.7,22.046,22.046,0,0,1-3.617,1.27,51.261,51.261,0,0,1-9.338,1.486,118.3,118.3,0,0,1-19.83-.207c-.727-.066-1.453-.138-2.178-.22-.329-.037-.657-.076-.986-.117l-.465-.059c.287.038.087.011-.085-.014-.92-.133-1.842-.276-2.745-.5l1.469,1.929c-.82-25.614-1.5-51.233-2.433-76.844-.54-14.877-1.692-29.683-2.768-44.53-.664-9.153-1.386-18.311-1.826-27.478-.123-2.563-4.124-2.577-4,0Z"/><path class="c" d="M67.425,255.481a11.878,11.878,0,0,0,.706,2.862q.463,1.7.924,3.4.871,3.215,1.733,6.433,1.781,6.648,3.523,13.307,3.564,13.613,7,27.256,6.9,27.293,13.481,54.662,3.573,14.763,7.11,29.535a2,2,0,0,0,1.4,1.4c7.611,2.163,15.945,1.636,23.684.537,7.055-1,14.781-2.592,20.962-6.325,1.16-.7,3.185-1.814,3.185-3.35a8.789,8.789,0,0,0-.391-1.912c-.364-1.523-.748-3.042-1.135-4.559-1.216-4.772-2.473-9.533-3.735-14.293q-5.109-19.272-10.364-38.5c-2.774-10.192-5.544-20.385-8.41-30.551-1.422-5.044-2.412-10.172-3.491-15.3q-2.657-12.616-5.344-25.226-.462-2.148-.931-4.3c-.551-2.513-4.408-1.45-3.857,1.063,2.735,12.488,5.326,25.008,7.957,37.518,1.279,6.083,3.138,12.038,4.791,18.03q3.9,14.14,7.729,28.3,4.02,14.831,7.97,29.68c1.719,6.48,3.486,12.956,5.03,19.481q.129.549.253,1.1l.514-1.945c-.146.136-.3.267-.447.4-.337.288.026,0-.248.193-.443.317-.9.61-1.371.884a26.279,26.279,0,0,1-2.984,1.48,55.619,55.619,0,0,1-8.478,2.693,78.574,78.574,0,0,1-19.978,2.33,38.39,38.39,0,0,1-9.848-1.282l1.4,1.4q-6.358-26.513-12.827-53-6.7-27.279-13.731-54.477-1.913-7.35-3.868-14.688-.975-3.663-1.964-7.321-.489-1.81-.982-3.621-.229-.848-.461-1.694l-.231-.845c-.027-.1-.275-1.083-.275-.742,0-2.574-4-2.578-4,0Z"/></svg>