<?xml version="1.0" encoding="utf-8"?><!-- Uploaded to: SVG Repo, www.svgrepo.com, Generator: SVG Repo Mixer Tools -->
<svg width="800px" height="800px" viewBox="0 0 500 500" id="Layer_2" data-name="Layer 2" xmlns="http://www.w3.org/2000/svg"><defs><style>.cls-1{fill:#2d140a;}.cls-1,.cls-2,.cls-3,.cls-4,.cls-5{fill-rule:evenodd;}.cls-2{fill:#fced8d;}.cls-3{fill:#ee4861;}.cls-4{fill:#eaa5ab;}.cls-5{fill:#1fc3f3;}</style></defs><title>File Pecah Template</title><path class="cls-1" d="M104.93,122.87c104.32-120.58,361.15-84.34,331.53,161C420.4,416.9,317.66,460.59,195,438.49,45.84,411.62,31.47,214.35,104.93,122.87Z"/><path class="cls-2" d="M117.11,136C52,217.11,63.25,394.18,200.37,418.86c112.41,20.23,203.06-12.66,217.87-135.45C445.68,56,211.79,26.38,117.11,136Z"/><path class="cls-1" d="M369.51,234.52a8.12,8.12,0,1,1-10.87,12.06c-4.82-4.34-14.3-8.54-24.39-11.37-9.9-2.77-20-4.11-26.35-2.87a8.1,8.1,0,0,1-9-11,52.77,52.77,0,0,1,6.33-11.61,55.15,55.15,0,0,1,29.16-20.35c11.23-3.31,23.19-3.06,33.25.88h0a39.9,39.9,0,0,1,8.92,4.82,8.11,8.11,0,1,1-9.5,13.15,24,24,0,0,0-5.34-2.9c-6.74-2.64-14.94-2.74-22.8-.43a39.38,39.38,0,0,0-18.05,11.21,108.89,108.89,0,0,1,17.76,3.47C350.92,223.06,362.87,228.53,369.51,234.52Z"/><path class="cls-1" d="M126.37,234.52a8.11,8.11,0,1,0,10.86,12.06c4.83-4.34,14.31-8.54,24.4-11.37,9.9-2.77,20-4.11,26.35-2.87a8.09,8.09,0,0,0,9-11,52.33,52.33,0,0,0-6.32-11.61,55.15,55.15,0,0,0-29.16-20.35c-11.23-3.31-23.19-3.06-33.25.88h0a40.19,40.19,0,0,0-8.93,4.82,8.11,8.11,0,0,0,9.51,13.15,23.79,23.79,0,0,1,5.34-2.9c6.73-2.64,14.94-2.74,22.8-.43A39.38,39.38,0,0,1,175,216.14a109.21,109.21,0,0,0-17.77,3.47C145,223.06,133,228.53,126.37,234.52Z"/><path class="cls-3" d="M215,252.16c14.21,3.5,56,7.53,75.24-.35,0,0,21.31,152.49-35.56,152.49S215,252.16,215,252.16Z"/><path class="cls-1" d="M216.25,247.31c8.08,2,25.26,4.11,41.92,4,11.6-.06,22.8-1.18,30.11-4.17a5,5,0,0,1,6.88,4c.06.45,22.16,158.18-40.53,158.18-62.52,0-44.72-157.25-44.67-157.7a5,5,0,0,1,5.52-4.46,4.76,4.76,0,0,1,.77.14Zm42,14.06a233.76,233.76,0,0,1-38.81-3.17c-2.4,26.64-10.08,141.07,35.23,141.07,44.93,0,34.51-113.32,31.33-140.82C278,260.5,268.17,261.32,258.21,261.37Z"/><path class="cls-4" d="M264.25,375.58c1.1-9.22,4.52-9.09,10.92-19,3.79-5.87,3.94-14-6.35-17.48a13.76,13.76,0,0,0-15.35,5c-1.75-4.05-5.23-5.69-9.82-6-7.48-.44-13.88,7.59-12.32,14.83C233.57,363.3,244.5,374,264.25,375.58Z"/><path class="cls-5" d="M117.26,248.25c-19.07,1.11-46.83,8.68-49,31.33-.73,7.47,2,14.55,9.07,17.36C102.55,306.89,107,264,117.26,248.25Z"/><path class="cls-1" d="M112.78,251.14c-9.67,1.05-20.7,3.77-29.1,9.13-7,4.46-12.1,10.78-13,19.54a17,17,0,0,0,1.55,9.48,11.15,11.15,0,0,0,6,5.31c13.36,5.27,20.31-7.35,25.81-21.29,1-2.59,2-5.31,3-8,1.9-5.14,3.72-10.09,5.74-14.2ZM81,256.05c10.61-6.78,24.86-9.65,36.13-10.31a2.5,2.5,0,0,1,2.24,3.87c-2.71,4.17-5.09,10.64-7.6,17.46-1,2.64-2,5.34-3,8.07-6.45,16.33-14.83,31-32.32,24.14a16.08,16.08,0,0,1-8.56-7.67,22,22,0,0,1-2.1-12.27C66.77,268.8,72.8,261.28,81,256.05Z"/><path class="cls-5" d="M100.8,313.13c-17,4.9-40.57,17.4-37.94,38.33.87,6.9,4.75,12.76,11.75,13.84C99.46,369.16,94.76,329.44,100.8,313.13Z"/><path class="cls-1" d="M97.08,317c-8.42,2.92-17.66,7.57-24.06,14-5.35,5.41-8.68,12.13-7.67,20.17a15.75,15.75,0,0,0,3.29,8.15A10.23,10.23,0,0,0,75,362.83c13,2,16.68-10.74,18.79-24.37.4-2.55.75-5.21,1.09-7.81.65-4.92,1.27-9.65,2.21-13.7Zm-27.62,10.5c8.24-8.32,20.57-13.84,30.66-16.74a2.51,2.51,0,0,1,3,3.28c-1.61,4.36-2.44,10.66-3.32,17.3-.34,2.6-.69,5.24-1.1,7.94-2.51,16.17-7.14,31.25-24.52,28.55a15.07,15.07,0,0,1-9.41-5.24,20.54,20.54,0,0,1-4.44-10.78h0C59.14,342,63.09,333.88,69.46,327.45Z"/><path class="cls-5" d="M45.41,333.26c-14.81,5.42-35,18-31.31,36.44,1.21,6.08,5,11.05,11.31,11.57C47.74,383.13,41.07,348.13,45.41,333.26Z"/><path class="cls-1" d="M42,337.33c-7.14,3.12-14.81,7.74-19.94,13.71-4.37,5.09-6.88,11.19-5.5,18.18a13.6,13.6,0,0,0,3.36,6.89,8.87,8.87,0,0,0,5.71,2.66c11.42,1,13.85-10.48,14.86-22.59.18-2.16.33-4.61.47-7,.26-4.21.51-8.27,1-11.84ZM18.25,347.78c6.83-8,17.49-13.66,26.3-16.89a2.62,2.62,0,0,1,1.57-.05A2.52,2.52,0,0,1,47.83,334c-1.15,3.91-1.49,9.56-1.85,15.53-.14,2.26-.28,4.57-.49,7.12-1.23,14.66-4.43,28.48-20.3,27.16a13.65,13.65,0,0,1-8.85-4.15,18.5,18.5,0,0,1-4.69-9.44C9.91,361.45,12.94,354,18.25,347.78Z"/><path class="cls-1" d="M308.51,149.57a5,5,0,1,1,8.1-5.9c3.4,4.66,7.22,7.78,11.5,9.17s9.14,1.11,14.78-1a5,5,0,1,1,3.46,9.43c-7.84,2.88-14.93,3.16-21.34,1.08S313.18,156,308.51,149.57Z"/><path class="cls-1" d="M177.17,143.67a5,5,0,1,1,8.1,5.9c-4.68,6.41-10.15,10.76-16.5,12.82s-13.5,1.8-21.34-1.08a5,5,0,1,1,3.46-9.43c5.64,2.07,10.54,2.33,14.77,1S173.77,148.33,177.17,143.67Z"/><path class="cls-5" d="M380.84,248.25c19.07,1.11,46.82,8.68,49,31.33.72,7.47-2,14.55-9.07,17.36C395.55,306.89,391.06,264,380.84,248.25Z"/><path class="cls-1" d="M385.32,251.14c9.67,1.05,20.7,3.77,29.1,9.13,7,4.46,12.09,10.78,12.94,19.54a16.94,16.94,0,0,1-1.54,9.48,11.15,11.15,0,0,1-5.95,5.31c-13.36,5.27-20.32-7.35-25.81-21.29-1-2.59-2-5.31-3-8-1.89-5.14-3.71-10.09-5.73-14.2Zm31.79,4.91c-10.61-6.78-24.86-9.65-36.14-10.31a2.48,2.48,0,0,0-1.5.4,2.52,2.52,0,0,0-.74,3.47c2.72,4.17,5.1,10.64,7.61,17.46,1,2.64,2,5.34,3,8.07,6.44,16.33,14.83,31,32.32,24.14a16.12,16.12,0,0,0,8.56-7.67,22,22,0,0,0,2.1-12.27C431.33,268.8,425.29,261.28,417.11,256.05Z"/><path class="cls-5" d="M397.29,313.13c17,4.9,40.58,17.4,37.95,38.33-.87,6.9-4.75,12.76-11.75,13.84C398.64,369.16,403.33,329.44,397.29,313.13Z"/><path class="cls-1" d="M401,317c8.43,2.92,17.67,7.57,24.07,14,5.35,5.41,8.68,12.13,7.67,20.17a15.68,15.68,0,0,1-3.3,8.15,10.18,10.18,0,0,1-6.34,3.53c-13,2-16.68-10.74-18.79-24.37-.4-2.55-.75-5.21-1.09-7.81C402.58,325.73,402,321,401,317Zm27.63,10.5c-8.24-8.32-20.58-13.84-30.66-16.74a2.52,2.52,0,0,0-3.05,3.28c1.62,4.36,2.45,10.66,3.32,17.3.34,2.6.7,5.24,1.11,7.94,2.51,16.17,7.13,31.25,24.51,28.55a15.07,15.07,0,0,0,9.42-5.24,20.54,20.54,0,0,0,4.44-10.78h0C439,342,435,333.88,428.64,327.45Z"/><path class="cls-5" d="M454.59,333.26c14.81,5.42,35,18,31.31,36.44-1.21,6.08-5,11.05-11.31,11.57C452.26,383.13,458.93,348.13,454.59,333.26Z"/><path class="cls-1" d="M458,337.33c7.14,3.12,14.81,7.74,19.94,13.71,4.37,5.09,6.88,11.19,5.5,18.18a13.6,13.6,0,0,1-3.36,6.89,8.87,8.87,0,0,1-5.71,2.66c-11.42,1-13.85-10.48-14.86-22.59-.18-2.16-.33-4.61-.47-7-.26-4.21-.51-8.27-1-11.84Zm23.75,10.45c-6.83-8-17.49-13.66-26.3-16.89a2.62,2.62,0,0,0-1.57-.05,2.52,2.52,0,0,0-1.71,3.12c1.15,3.91,1.49,9.56,1.85,15.53.14,2.26.28,4.57.49,7.12,1.23,14.66,4.43,28.48,20.3,27.16a13.65,13.65,0,0,0,8.85-4.15,18.5,18.5,0,0,0,4.69-9.44C490.09,361.45,487.06,354,481.75,347.78Z"/><path class="cls-4" d="M362,265.69c15.64,2.9,25.3,13.07,27.41,21.46,5.75,23-70.81,14-75.61,10.41C291.92,281.45,334.45,260.59,362,265.69Z"/><path class="cls-1" d="M335.07,264.69a4.16,4.16,0,1,1,7.94,2.46L335.22,292a4.16,4.16,0,0,1-8-2.47Z"/><path class="cls-1" d="M360.53,263a4.15,4.15,0,1,1,7.58,3.37l-12.87,28.76a4.15,4.15,0,0,1-7.58-3.37Z"/><path class="cls-4" d="M166.33,265.69c15.64,2.9,25.31,13.07,27.41,21.46,5.75,23-70.81,14-75.61,10.41C96.3,281.45,138.83,260.59,166.33,265.69Z"/><path class="cls-1" d="M139.45,264.69a4.16,4.16,0,1,1,7.94,2.46L139.6,292a4.16,4.16,0,1,1-7.94-2.47Z"/><path class="cls-1" d="M164.91,263a4.15,4.15,0,1,1,7.59,3.37l-12.87,28.76A4.15,4.15,0,0,1,152,291.8Z"/></svg>