<svg width="74" height="74" viewBox="0 0 74 74" fill="none" xmlns="http://www.w3.org/2000/svg">
<rect y="37" width="37" height="37" rx="6" transform="rotate(-90 0 37)" fill="url(#paint0_linear_3_2382)"/>
<rect x="37" y="74" width="37" height="37" rx="6" transform="rotate(-90 37 74)" fill="url(#paint1_linear_3_2382)"/>
<path d="M33 56C33.5523 56 34 55.5523 34 55C34 54.4477 33.5523 54 33 54L33 56ZM33 54L19 54L19 56L33 56L33 54Z" fill="#101820"/>
<path d="M18 55C18 55.5523 18.4477 56 19 56C19.5523 56 20 55.5523 20 55L18 55ZM19.7071 18.2929C19.3166 17.9024 18.6834 17.9024 18.2929 18.2929L11.9289 24.6569C11.5384 25.0474 11.5384 25.6805 11.9289 26.0711C12.3195 26.4616 12.9526 26.4616 13.3431 26.0711L19 20.4142L24.6569 26.0711C25.0474 26.4616 25.6805 26.4616 26.0711 26.0711C26.4616 25.6805 26.4616 25.0474 26.0711 24.6569L19.7071 18.2929ZM20 55L20 19L18 19L18 55L20 55Z" fill="#101820"/>
<path d="M42 18C41.4477 18 41 18.4477 41 19C41 19.5523 41.4477 20 42 20L42 18ZM42 20L56 20L56 18L42 18L42 20Z" fill="#101820"/>
<path d="M57 19C57 18.4477 56.5523 18 56 18C55.4477 18 55 18.4477 55 19L57 19ZM55.2929 55.7071C55.6834 56.0976 56.3166 56.0976 56.7071 55.7071L63.0711 49.3431C63.4616 48.9526 63.4616 48.3195 63.0711 47.9289C62.6805 47.5384 62.0474 47.5384 61.6569 47.9289L56 53.5858L50.3431 47.9289C49.9526 47.5384 49.3195 47.5384 48.9289 47.9289C48.5384 48.3195 48.5384 48.9526 48.9289 49.3431L55.2929 55.7071ZM55 19L55 55L57 55L57 19L55 19Z" fill="#101820"/>
<defs>
<linearGradient id="paint0_linear_3_2382" x1="0" y1="37" x2="37" y2="74" gradientUnits="userSpaceOnUse">
<stop stop-color="#A5FECB"/>
<stop offset="0.505068" stop-color="#20BDFF"/>
<stop offset="1" stop-color="#5433FF"/>
</linearGradient>
<linearGradient id="paint1_linear_3_2382" x1="37" y1="74" x2="74" y2="111" gradientUnits="userSpaceOnUse">
<stop stop-color="#A5FECB"/>
<stop offset="0.505068" stop-color="#20BDFF"/>
<stop offset="1" stop-color="#5433FF"/>
</linearGradient>
</defs>
</svg>
