<svg width="74" height="74" viewBox="0 0 74 74" fill="none" xmlns="http://www.w3.org/2000/svg">
<rect x="55" y="55" width="18" height="18" rx="9" stroke="#101820" stroke-width="2"/>
<path fill-rule="evenodd" clip-rule="evenodd" d="M0 10C0 4.47715 4.47715 0 10 0C15.5228 0 20 4.47715 20 10C20 15.5228 15.5228 20 10 20C4.47715 20 0 15.5228 0 10ZM10 27C4.47715 27 0 31.4772 0 37C0 42.5228 4.47715 47 10 47C15.5228 47 20 42.5228 20 37C20 31.4772 15.5228 27 10 27ZM10 54C4.47715 54 0 58.4772 0 64C0 69.5229 4.47715 74 10 74C15.5228 74 20 69.5229 20 64C20 58.4772 15.5228 54 10 54ZM37 54C31.4772 54 27 58.4772 27 64C27 69.5229 31.4772 74 37 74C42.5228 74 47 69.5229 47 64C47 58.4772 42.5228 54 37 54ZM27 37C27 31.4772 31.4772 27 37 27C42.5228 27 47 31.4772 47 37C47 42.5228 42.5228 47 37 47C31.4772 47 27 42.5228 27 37ZM37 0C31.4772 0 27 4.47715 27 10C27 15.5228 31.4772 20 37 20C42.5228 20 47 15.5228 47 10C47 4.47715 42.5228 0 37 0ZM54 37C54 31.4772 58.4772 27 64 27C69.5229 27 74 31.4772 74 37C74 42.5228 69.5229 47 64 47C58.4772 47 54 42.5228 54 37ZM64 0C58.4772 0 54 4.47715 54 10C54 15.5228 58.4772 20 64 20C69.5229 20 74 15.5228 74 10C74 4.47715 69.5229 0 64 0Z" fill="url(#paint0_linear_2_13)"/>
<defs>
<linearGradient id="paint0_linear_2_13" x1="0" y1="0" x2="74" y2="74" gradientUnits="userSpaceOnUse">
<stop stop-color="#A5FECB"/>
<stop offset="0.505068" stop-color="#20BDFF"/>
<stop offset="1" stop-color="#5433FF"/>
</linearGradient>
</defs>
</svg>
