<svg width="75" height="74" viewBox="0 0 75 74" fill="none" xmlns="http://www.w3.org/2000/svg">
<path fill-rule="evenodd" clip-rule="evenodd" d="M67 0C64.7909 0 63 1.79086 63 4V70C63 72.2091 64.7909 74 67 74H71C73.2091 74 75 72.2091 75 70V4C75 1.79086 73.2091 0 71 0H67ZM42 14C42 11.7909 43.7909 10 46 10H50C52.2091 10 54 11.7909 54 14V70C54 72.2091 52.2091 74 50 74H46C43.7909 74 42 72.2091 42 70V14ZM25 29C22.7909 29 21 30.7909 21 33V70C21 72.2091 22.7909 74 25 74H29C31.2091 74 33 72.2091 33 70V33C33 30.7909 31.2091 29 29 29H25ZM4 49C1.79086 49 0 50.7909 0 53V70C0 72.2091 1.79086 74 4 74H8C10.2091 74 12 72.2091 12 70V53C12 50.7909 10.2091 49 8 49H4Z" fill="url(#paint0_linear_3_2391)"/>
<path d="M27 1H1" stroke="#101820" stroke-width="2" stroke-linecap="round"/>
<path d="M1 27L1 1" stroke="#101820" stroke-width="2" stroke-linecap="round"/>
<defs>
<linearGradient id="paint0_linear_3_2391" x1="-8.5" y1="74" x2="81.9368" y2="4.21397" gradientUnits="userSpaceOnUse">
<stop stop-color="#A5FECB"/>
<stop offset="0.505068" stop-color="#20BDFF"/>
<stop offset="1" stop-color="#5433FF"/>
</linearGradient>
</defs>
</svg>
