<?xml version="1.0" encoding="iso-8859-1"?>
<!-- Uploaded to: SVG Repo, www.svgrepo.com, Generator: SVG Repo Mixer Tools -->
<svg height="800px" width="800px" version="1.1" id="Layer_1" xmlns="http://www.w3.org/2000/svg" xmlns:xlink="http://www.w3.org/1999/xlink" 
	 viewBox="0 0 512 512" xml:space="preserve">
<polygon style="fill:#FBAC50;" points="256,8.362 297.272,96.117 393.485,108.251 322.778,174.62 340.971,269.875 256,223.137 
	171.029,269.875 189.222,174.62 118.515,108.251 214.728,96.117 "/>
<polygon style="fill:#F78750;" points="256,8.362 297.272,96.117 393.485,108.251 322.778,174.62 340.971,269.875 256,223.137 "/>
<polygon style="fill:#FF648D;" points="451.298,325.816 458.336,384.895 512,410.585 457.987,435.535 450.137,494.512 
	409.717,450.853 351.201,461.611 380.233,409.679 351.919,357.352 410.281,368.915 "/>
<polygon style="fill:#FD387E;" points="451.298,325.816 458.336,384.895 512,410.585 457.987,435.535 450.137,494.512 
	409.717,450.853 "/>
<polygon style="fill:#88DEE0;" points="60.702,325.816 53.664,384.895 0,410.585 54.013,435.535 61.863,494.512 102.283,450.853 
	160.799,461.611 131.767,409.679 160.081,357.352 101.719,368.915 "/>
<polygon style="fill:#10C7C5;" points="60.702,325.816 102.283,450.853 160.799,461.611 131.767,409.679 160.081,357.352 
	101.719,368.915 "/>
<polygon style="fill:#FBAC50;" points="297.972,444.971 272.696,444.971 272.696,419.695 239.304,419.695 239.304,444.971 
	214.028,444.971 214.028,478.363 239.304,478.363 239.304,503.638 272.696,503.638 272.696,478.363 297.972,478.363 "/>
<polygon style="fill:#F78750;" points="297.972,444.971 272.696,444.971 272.696,419.695 256,419.695 256,503.638 272.696,503.638 
	272.696,478.363 297.972,478.363 "/>
<polygon style="fill:#FF648D;" points="100.638,78.099 75.363,78.099 75.363,52.823 41.972,52.823 41.972,78.099 16.696,78.099 
	16.696,111.49 41.972,111.49 41.972,136.766 75.363,136.766 75.363,111.49 100.638,111.49 "/>
<polygon style="fill:#FD387E;" points="100.638,78.099 75.363,78.099 75.363,52.823 58.667,52.823 58.667,136.766 75.363,136.766 
	75.363,111.49 100.638,111.49 "/>
<polygon style="fill:#88DEE0;" points="495.304,183.713 470.028,183.713 470.028,158.437 436.637,158.437 436.637,183.713 
	411.361,183.713 411.361,217.105 436.637,217.105 436.637,242.381 470.028,242.381 470.028,217.105 495.304,217.105 "/>
<polygon style="fill:#10C7C5;" points="495.304,183.713 470.028,183.713 470.028,158.437 453.009,158.437 453.009,242.381 
	470.028,242.381 470.028,217.105 495.304,217.105 "/>
</svg>