<?xml version="1.0" encoding="iso-8859-1"?>
<!-- Uploaded to: SVG Repo, www.svgrepo.com, Generator: SVG Repo Mixer Tools -->
<svg height="800px" width="800px" version="1.1" id="Layer_1" xmlns="http://www.w3.org/2000/svg" xmlns:xlink="http://www.w3.org/1999/xlink" 
	 viewBox="0 0 512 512" xml:space="preserve">
<path style="fill:#CFF09E;" d="M120.761,130.031c-19.693,0-35.144,15.312-35.144,15.312s-14.568-15.312-35.146-15.312
	c-20.014,0-36.358,17.228-37.428,38.091c-0.604,11.785,3.036,20.753,8.166,28.877c10.247,16.23,64.471,57,64.471,57
	s54.025-40.63,64.339-57c5.141-8.16,8.769-17.092,8.166-28.877C157.119,147.26,140.778,130.031,120.761,130.031"/>
<path style="fill:#507C5C;" d="M85.683,266.981c-2.746,0-5.49-0.868-7.802-2.605c-9.373-7.047-56.685-43.081-67.647-60.446
	c-4.773-7.559-11.019-19.565-10.153-36.471c1.449-28.267,23.584-50.41,50.391-50.41c15.011,0,27.36,6.259,35.222,11.662
	c7.931-5.385,20.335-11.662,35.066-11.662c26.807,0,48.943,22.142,50.391,50.408c0.865,16.875-5.377,28.891-10.147,36.462
	c-11.029,17.503-58.18,53.43-67.521,60.455C91.176,266.112,88.429,266.981,85.683,266.981z M50.472,143.012
	c-12.76,0-23.733,11.562-24.463,25.774c-0.382,7.453,1.466,13.818,6.178,21.281c5.487,8.691,32.332,31.215,53.493,47.598
	c20.215-15.656,47.568-38.396,53.359-47.586c4.779-7.585,6.571-13.754,6.185-21.293c-0.73-14.211-11.703-25.773-24.463-25.773
	c-13.928,0-25.936,11.484-26.056,11.599c-2.478,2.456-5.824,3.8-9.304,3.735c-3.49-0.052-6.786-1.529-9.19-4.057
	C76.162,154.242,65.006,143.012,50.472,143.012z"/>
<path style="fill:#CFF09E;" d="M288.988,193.666c-19.693,0-35.144,15.312-35.144,15.312s-14.568-15.312-35.146-15.312
	c-20.014,0-36.358,17.228-37.428,38.091c-0.604,11.785,3.036,20.753,8.166,28.877c10.247,16.23,64.471,57,64.471,57
	s54.025-40.63,64.339-57c5.141-8.16,8.769-17.092,8.166-28.877C325.346,210.894,309.003,193.666,288.988,193.666"/>
<path style="fill:#507C5C;" d="M253.91,330.616c-2.746,0-5.49-0.868-7.802-2.605c-9.373-7.046-56.685-43.081-67.647-60.446
	c-4.773-7.561-11.019-19.566-10.153-36.471c1.449-28.267,23.584-50.41,50.391-50.41c15.011,0,27.36,6.259,35.222,11.662
	c7.931-5.385,20.335-11.662,35.066-11.662c26.809,0,48.943,22.142,50.391,50.408c0.866,16.874-5.377,28.89-10.147,36.461
	c-11.029,17.503-58.18,53.43-67.521,60.455C259.403,329.746,256.656,330.616,253.91,330.616z M218.699,206.648
	c-12.76,0-23.735,11.562-24.463,25.774c-0.382,7.454,1.466,13.819,6.178,21.282c5.482,8.682,32.331,31.209,53.494,47.596
	c20.215-15.656,47.567-38.395,53.358-47.586c4.779-7.585,6.57-13.754,6.185-21.293c-0.728-14.211-11.703-25.774-24.463-25.774
	c-13.733,0-25.888,11.436-26.005,11.55c-2.478,2.456-5.808,3.776-9.329,3.76c-3.488-0.052-6.81-1.505-9.214-4.032
	C244.389,217.876,233.233,206.648,218.699,206.648z"/>
<path style="fill:#CFF09E;" d="M461.526,258.001c-19.693,0-35.144,15.312-35.144,15.312s-14.568-15.312-35.146-15.312
	c-20.014,0-36.358,17.228-37.428,38.091c-0.604,11.785,3.036,20.753,8.166,28.877c10.247,16.23,64.471,57,64.471,57
	s54.025-40.63,64.339-57c5.141-8.16,8.769-17.092,8.166-28.877C497.884,275.229,481.543,258.001,461.526,258.001"/>
<path style="fill:#507C5C;" d="M426.449,394.951c-2.746,0-5.49-0.868-7.801-2.605c-9.373-7.047-56.686-43.081-67.648-60.446
	c-4.772-7.559-11.019-19.564-10.153-36.471c1.45-28.268,23.584-50.41,50.391-50.41c15.011,0,27.36,6.259,35.222,11.662
	c7.931-5.385,20.335-11.662,35.066-11.662c26.807,0,48.943,22.142,50.391,50.407c0.865,16.874-5.377,28.891-10.147,36.462
	c-11.028,17.505-58.179,53.432-67.521,60.456C431.941,394.081,429.195,394.951,426.449,394.951z M391.238,270.983
	c-12.76,0-23.733,11.562-24.463,25.774c-0.38,7.454,1.466,13.819,6.178,21.282c5.482,8.684,32.331,31.211,53.494,47.596
	c20.215-15.656,47.567-38.395,53.356-47.586c4.78-7.587,6.571-13.755,6.186-21.294c-0.73-14.21-11.703-25.773-24.463-25.773
	c-13.928,0-25.936,11.484-26.056,11.601c-2.478,2.456-5.815,3.795-9.304,3.735c-3.489-0.052-6.786-1.529-9.19-4.057
	C416.929,282.212,405.771,270.983,391.238,270.983z"/>
</svg>