<?xml version="1.0" encoding="iso-8859-1"?>
<!-- Uploaded to: SVG Repo, www.svgrepo.com, Generator: SVG Repo Mixer Tools -->
<svg height="800px" width="800px" version="1.1" id="Layer_1" xmlns="http://www.w3.org/2000/svg" xmlns:xlink="http://www.w3.org/1999/xlink" 
	 viewBox="0 0 512 512" xml:space="preserve">
<g>
	<path style="fill:#CFF09E;" d="M354.608,93.955c26.985-30.709,12.567-77.488-36.686-79.54
		c-49.256,2.054-63.673,48.831-36.677,79.33c12.876,14.494,11.29,34.132-5.344,42.033h84.017
		C343.378,127.915,341.903,108.427,354.608,93.955z"/>
	<path style="fill:#CFF09E;" d="M134.298,355.541v-75.442c-9.01,12.537-26.402,12.716-39.553,1.17
		c-30.699-26.995-77.889-12.567-79.953,36.689c2.064,49.243,49.253,63.671,79.953,36.676
		C107.817,343.014,125.179,343.182,134.298,355.541z"/>
</g>
<g>
	<path style="fill:#507C5C;" d="M379.132,220.762c6.007-2.965,9.18-9.675,7.659-16.199c-1.522-6.523-7.337-11.138-14.036-11.138
		H206.358c-7.96,0-14.412,6.452-14.412,14.412v217.692c0,7.96,6.452,14.412,14.412,14.412h161.547
		c6.573,0,12.314-4.448,13.955-10.812s-1.231-13.034-6.986-16.214c-32.511-17.965-52.139-51.696-53.849-92.547l-0.101-2.413
		l0.101-2.413C322.822,272.642,344.001,238.097,379.132,220.762z M292.227,321.576c1.471,35.095,13.728,66.116,34.694,89.541H220.77
		V222.249h108.66c-22.342,23.774-35.692,55.997-37.203,92.086l-0.127,3.016c-0.017,0.402-0.017,0.807,0,1.209L292.227,321.576z"/>
	<path style="fill:#507C5C;" d="M497.207,411.118c-7.96,0-14.412,6.452-14.412,14.412v57.648H148.71V355.541v-75.442V150.19h127.191
		h84.017h122.876v124.437c-0.81,0.339-1.692,0.548-2.652,0.628c-3.809,0.317-8.206-1.434-12.05-4.809
		c-19.282-16.956-44.859-21.679-66.754-12.324c-22.081,9.436-35.955,31.578-37.114,59.232c-0.017,0.402-0.017,0.804,0,1.206
		c1.159,27.647,15.032,49.784,37.111,59.218c21.893,9.355,47.473,4.633,66.757-12.324c5.977-5.256,6.562-14.363,1.306-20.34
		c-5.255-5.977-14.363-6.563-20.34-1.306c-10.867,9.554-24.812,12.415-36.398,7.464c-11.645-4.977-18.77-17.1-19.611-33.316
		c0.84-16.224,7.967-28.353,19.613-33.328c11.586-4.949,25.53-2.091,36.402,7.471c9.851,8.649,21.746,12.869,33.494,11.88
		c10.204-0.859,19.377-5.707,25.831-13.653c2.087-2.57,3.227-5.778,3.227-9.088V135.776c0-7.96-6.452-14.412-14.412-14.412H363.812
		c-1.647-1.273-2.665-2.845-3.061-4.772c-0.814-3.952,0.937-8.861,4.682-13.125c16.918-19.253,21.65-44.724,12.35-66.473
		c-9.41-22.003-31.563-35.827-59.261-36.981c-0.399-0.017-0.801-0.017-1.201,0c-27.753,1.156-49.926,15.015-59.31,37.071
		c-9.245,21.726-4.476,47.096,12.459,66.229c3.763,4.236,5.528,9.139,4.72,13.114c-0.406,1.999-1.457,3.626-3.171,4.936H134.298
		c-7.96,0-14.412,6.452-14.412,14.412v138.417c-1.27,0.738-2.728,1.116-4.412,1.116c-3.603,0-7.693-1.776-11.211-4.864
		c-12.482-10.976-27.959-17.021-43.581-17.021c-27.746,0-58.448,20.005-60.289,63.929c-0.017,0.402-0.017,0.804,0,1.206
		c1.84,43.911,32.54,63.913,60.284,63.916c0.003,0,0.004,0,0.007,0c15.618,0,31.096-6.046,43.636-17.073
		c3.504-3.114,7.588-4.9,11.203-4.9c1.634,0,3.087,0.37,4.363,1.081v136.006c0,7.96,6.452,14.412,14.412,14.412h362.91
		c7.96,0,14.412-6.452,14.412-14.412v-72.061C511.62,417.571,505.167,411.118,497.207,411.118z M292.037,84.193
		c-9.475-10.704-12.348-24.429-7.501-35.82c4.933-11.595,17.084-18.693,33.389-19.53c16.271,0.836,28.411,7.918,33.358,19.487
		c4.893,11.442,2.019,25.28-7.503,36.117c-9.557,10.884-13.699,24.28-11.458,36.918h-28.729
		C305.907,108.595,301.716,95.087,292.037,84.193z M115.523,331.679c-10.736,0-21.514,4.325-30.296,12.131
		c-7.219,6.349-15.935,9.843-24.544,9.843c-0.001,0-0.003,0-0.003,0c-13.72-0.001-30.116-9.368-31.462-35.696
		c1.345-26.34,17.741-35.707,31.462-35.707c8.611,0,17.329,3.495,24.555,9.849c8.84,7.762,19.579,12.037,30.239,12.036
		c1.489,0,2.96-0.084,4.41-0.249v28.037C118.45,331.761,116.995,331.679,115.523,331.679z"/>
</g>
<path style="fill:#CFF09E;" d="M367.905,425.53c-36.698-20.278-59.35-58.522-61.279-104.557l-0.127-3.016l0.127-3.016
	c2.012-48.037,26.58-87.59,66.128-107.102H206.358V425.53H367.905z"/>
<path style="fill:#507C5C;" d="M367.905,439.942H206.358c-7.96,0-14.412-6.452-14.412-14.412V207.837
	c0-7.96,6.452-14.412,14.412-14.412h166.398c6.697,0,12.514,4.615,14.036,11.138s-1.652,13.235-7.659,16.199
	c-35.131,17.333-56.31,51.881-58.107,94.781l-0.101,2.413l0.101,2.413c1.712,40.851,21.34,74.583,53.849,92.547
	c5.753,3.179,8.627,9.848,6.986,16.214C380.219,435.493,374.478,439.942,367.905,439.942z M220.77,411.118h106.151
	c-20.965-23.425-33.223-54.447-34.694-89.541l-0.127-3.015c-0.017-0.402-0.017-0.807,0-1.209l0.127-3.016
	c1.512-36.089,14.862-68.312,37.203-92.086H220.77L220.77,411.118L220.77,411.118z"/>
</svg>