<?xml version="1.0" encoding="iso-8859-1"?>
<!-- Uploaded to: SVG Repo, www.svgrepo.com, Generator: SVG Repo Mixer Tools -->
<svg height="800px" width="800px" version="1.1" id="Layer_1" xmlns="http://www.w3.org/2000/svg" xmlns:xlink="http://www.w3.org/1999/xlink" 
	 viewBox="0 0 512 512" xml:space="preserve">
<g>
	<path style="fill:#507C5C;" d="M497.498,512H14.502C6.494,512,0,505.507,0,497.498V14.502C0,6.493,6.494,0,14.502,0h482.996
		C505.506,0,512,6.493,512,14.502v385.151c0,8.009-6.494,14.502-14.502,14.502s-14.502-6.493-14.502-14.502V29.004H29.004v453.992
		h468.494c8.008,0,14.502,6.493,14.502,14.502S505.506,512,497.498,512z"/>
	<path style="fill:#507C5C;" d="M427.065,441.568H84.934c-8.008,0-14.502-6.493-14.502-14.502V154.242
		c0-8.009,6.494-14.502,14.502-14.502s14.502,6.493,14.502,14.502v258.323h313.127V99.436H84.934
		c-8.008,0-14.502-6.493-14.502-14.502s6.494-14.502,14.502-14.502h342.131c8.008,0,14.502,6.493,14.502,14.502v342.132
		C441.567,435.076,435.074,441.568,427.065,441.568z"/>
</g>
<polygon style="fill:#CFF09E;" points="255.999,146.119 286.451,225.689 371.535,230.061 305.268,283.608 327.404,365.879 
	255.999,319.405 184.596,365.879 206.73,283.608 140.465,230.061 225.549,225.689 "/>
<path style="fill:#507C5C;" d="M327.403,380.381c-2.748,0-5.501-0.78-7.909-2.348l-63.493-41.326l-63.493,41.326
	c-5.039,3.28-11.574,3.109-16.435-0.422c-4.863-3.533-7.041-9.697-5.479-15.5l19.681-73.157l-58.923-47.616
	c-4.675-3.776-6.535-10.046-4.678-15.761c1.856-5.715,7.047-9.693,13.049-10.001l75.657-3.887l27.077-70.755
	c2.148-5.612,7.535-9.319,13.545-9.319c6.01,0,11.396,3.707,13.545,9.319l27.077,70.755l75.657,3.887
	c6.002,0.307,11.193,4.287,13.049,10.001c1.856,5.714-0.003,11.984-4.678,15.761l-58.923,47.616l19.681,73.157
	c1.562,5.804-0.618,11.969-5.479,15.5C333.392,379.455,330.399,380.381,327.403,380.381z M255.999,304.903
	c2.752,0,5.506,0.783,7.911,2.348l39.644,25.802l-12.289-45.677c-1.491-5.541,0.425-11.441,4.889-15.047l36.79-29.731l-47.239-2.426
	c-5.731-0.294-10.749-3.94-12.801-9.3l-16.905-44.177l-16.905,44.177c-2.052,5.358-7.07,9.004-12.801,9.3l-47.239,2.426
	l36.79,29.731c4.464,3.607,6.379,9.506,4.889,15.047l-12.289,45.677l39.644-25.802C250.493,305.686,253.247,304.903,255.999,304.903
	z"/>
</svg>