<?xml version="1.0" encoding="iso-8859-1"?>
<!-- Uploaded to: SVG Repo, www.svgrepo.com, Generator: SVG Repo Mixer Tools -->
<svg height="800px" width="800px" version="1.1" id="Layer_1" xmlns="http://www.w3.org/2000/svg" xmlns:xlink="http://www.w3.org/1999/xlink" 
	 viewBox="0 0 512 512" xml:space="preserve">
<polygon style="fill:#CFF09E;" points="96.383,119.748 118.335,177.113 179.677,180.264 131.904,218.869 147.862,278.182 
	96.383,244.677 44.905,278.182 60.863,218.869 13.09,180.264 74.431,177.113 "/>
<path style="fill:#507C5C;" d="M147.862,291.27c-2.481,0-4.964-0.704-7.139-2.119l-44.339-28.859l-44.339,28.859
	c-4.547,2.958-10.445,2.807-14.832-0.381c-4.388-3.188-6.354-8.752-4.946-13.988l13.745-51.087L4.863,190.444
	c-4.218-3.408-5.897-9.066-4.222-14.224c1.677-5.158,6.359-8.748,11.776-9.025l52.834-2.714l18.908-49.409
	c1.938-5.065,6.799-8.41,12.223-8.41c5.424,0,10.284,3.345,12.223,8.41l18.908,49.409l52.834,2.714
	c5.416,0.277,10.1,3.869,11.776,9.025c1.675,5.158-0.003,10.816-4.222,14.224l-41.148,33.251l13.745,51.087
	c1.41,5.236-0.558,10.8-4.946,13.988C153.267,290.434,150.565,291.27,147.862,291.27z M47.915,191.58l21.173,17.11
	c4.028,3.255,5.757,8.579,4.413,13.58l-7.073,26.288l22.816-14.851c4.34-2.824,9.939-2.824,14.279,0l22.815,14.849l-7.073-26.287
	c-1.345-5.001,0.385-10.325,4.413-13.58l21.173-17.11l-27.186-1.396c-5.172-0.266-9.701-3.556-11.551-8.393l-9.729-25.424
	l-9.729,25.424c-1.851,4.836-6.38,8.126-11.551,8.393L47.915,191.58z"/>
<polygon style="fill:#CFF09E;" points="255.655,177.363 277.609,234.728 338.95,237.879 291.176,276.484 307.134,335.797 
	255.655,302.292 204.177,335.797 220.135,276.484 172.362,237.879 233.703,234.728 "/>
<path style="fill:#507C5C;" d="M307.132,348.885c-2.48,0-4.964-0.704-7.138-2.119l-44.339-28.859l-44.339,28.859
	c-4.545,2.957-10.445,2.806-14.832-0.381c-4.388-3.188-6.354-8.752-4.946-13.988l13.745-51.087l-41.148-33.251
	c-4.218-3.408-5.897-9.066-4.222-14.224c1.677-5.158,6.359-8.748,11.776-9.025l52.834-2.714l18.908-49.409
	c1.938-5.065,6.799-8.41,12.223-8.41c5.424,0,10.284,3.345,12.224,8.41l18.908,49.409l52.833,2.714
	c5.417,0.277,10.101,3.869,11.776,9.025c1.675,5.158-0.004,10.816-4.222,14.224l-41.148,33.251l13.745,51.087
	c1.41,5.236-0.558,10.8-4.945,13.988C312.537,348.049,309.837,348.885,307.132,348.885z M207.189,249.195l21.173,17.11
	c4.028,3.255,5.757,8.579,4.413,13.58l-7.073,26.287l22.815-14.849c4.34-2.824,9.939-2.824,14.279,0l22.815,14.849l-7.071-26.287
	c-1.345-5.001,0.383-10.325,4.412-13.58l21.173-17.11l-27.185-1.396c-5.172-0.266-9.701-3.556-11.553-8.393l-9.729-25.424
	l-9.729,25.424c-1.851,4.836-6.38,8.126-11.551,8.393L207.189,249.195z"/>
<polygon style="fill:#CFF09E;" points="415.618,233.817 437.572,291.182 498.913,294.334 451.139,332.939 467.097,392.251 
	415.618,358.745 364.14,392.251 380.098,332.939 332.325,294.334 393.666,291.182 "/>
<path style="fill:#507C5C;" d="M467.095,405.339c-2.48,0-4.964-0.704-7.138-2.119l-44.339-28.859l-44.339,28.859
	c-4.547,2.959-10.447,2.806-14.832-0.381c-4.388-3.188-6.354-8.752-4.945-13.988l13.745-51.087l-41.148-33.251
	c-4.218-3.408-5.897-9.066-4.222-14.224c1.675-5.158,6.359-8.748,11.776-9.025l52.833-2.714l18.908-49.409
	c1.938-5.065,6.8-8.41,12.224-8.41s10.284,3.345,12.224,8.41l18.908,49.409l52.833,2.714c5.417,0.277,10.101,3.869,11.776,9.025
	c1.675,5.158-0.004,10.816-4.222,14.224l-41.148,33.251l13.745,51.087c1.41,5.236-0.558,10.8-4.945,13.988
	C472.501,404.503,469.8,405.339,467.095,405.339z M415.618,345.657c2.484,0,4.969,0.707,7.139,2.119l22.815,14.849l-7.071-26.287
	c-1.345-5.001,0.383-10.325,4.412-13.58l21.173-17.11l-27.185-1.396c-5.172-0.266-9.701-3.556-11.553-8.393l-9.729-25.424
	l-9.729,25.424c-1.852,4.836-6.38,8.126-11.553,8.393l-27.185,1.396l21.173,17.11c4.028,3.255,5.757,8.579,4.412,13.58
	l-7.071,26.287l22.815-14.849C410.649,346.364,413.134,345.657,415.618,345.657z"/>
</svg>