<?xml version="1.0" encoding="iso-8859-1"?>
<!-- Uploaded to: SVG Repo, www.svgrepo.com, Generator: SVG Repo Mixer Tools -->
<svg height="800px" width="800px" version="1.1" id="Layer_1" xmlns="http://www.w3.org/2000/svg" xmlns:xlink="http://www.w3.org/1999/xlink" 
	 viewBox="0 0 512 512" xml:space="preserve">
<path style="fill:#FFC61B;" d="M255.996,512c-68.38,0-132.667-26.629-181.02-74.98c-5.669-5.669-5.669-14.862,0-20.533
	c5.669-5.669,14.862-5.669,20.533,0c42.867,42.869,99.863,66.476,160.488,66.476s117.62-23.608,160.488-66.476
	C459.351,373.62,482.96,316.624,482.96,256s-23.609-117.62-66.476-160.488c-42.869-42.869-99.863-66.476-160.488-66.476
	S138.376,52.644,95.509,95.512c-57.256,57.256-79.728,141.45-58.65,219.728c2.085,7.742-2.501,15.708-10.244,17.793
	c-7.742,2.082-15.708-2.501-17.793-10.244C-2.68,280.078-2.935,234.853,8.086,192.005C19.44,147.853,42.572,107.387,74.977,74.98
	C123.328,26.629,187.616,0,255.996,0c68.381,0,132.668,26.629,181.02,74.98c48.352,48.352,74.98,112.639,74.98,181.02
	s-26.629,132.667-74.98,181.02C388.664,485.371,324.376,512,255.996,512z"/>
<path style="fill:#FEE187;" d="M420.701,164.357c-13.49-24.184-32.183-44.993-54.512-61.121l-4.141-0.427
	c-32.552,0-58.917,26.385-58.917,58.917c0,32.545,26.365,58.917,58.917,58.917C393.692,220.657,419.302,195.652,420.701,164.357
	L420.701,164.357z"/>
<path style="fill:#FFC61B;" d="M444.528,241.479c-8.017,0-14.518,6.5-14.518,14.518c0,5.354-0.245,10.759-0.73,16.064
	c-8.233,90.051-82.728,157.957-173.284,157.957c-95.952,0-174.015-78.066-174.015-174.023c0-95.952,78.063-174.015,174.015-174.015
	c24.894,0,49.033,5.357,71.037,15.21c-22.867,12.458-38.419,36.715-38.419,64.535c0,40.492,32.943,73.435,73.431,73.435
	c0.001,0,0.025-0.001,0.033,0c38.663,0,70.389-29.914,73.007-68.415c0.536-3.148,0.049-6.49-1.626-9.493
	C397.587,92.914,329.588,52.944,255.996,52.944c-111.963,0-203.051,91.089-203.051,203.051
	c0,111.967,91.089,203.059,203.051,203.059c50.973,0,99.712-18.966,137.244-53.407c37.295-34.223,60.363-80.726,64.953-130.942
	c0.566-6.182,0.852-12.477,0.852-18.708C459.046,247.979,452.545,241.479,444.528,241.479z M362.075,206.125h-0.026
	c-24.482,0-44.4-19.917-44.4-44.399c0-24.08,19.27-43.744,43.2-44.383c18.107,13.712,33.551,30.978,45.001,50.308
	C402.95,189.521,384.428,206.125,362.075,206.125z"/>
<path style="fill:#FEE187;" d="M364.085,317.55c0,22.037-18.631,39.726-41.002,38.172c-18.87-1.311-34.152-16.607-35.443-35.48
	c-1.529-22.361,16.151-40.968,38.175-40.968C346.951,279.274,364.085,296.408,364.085,317.55L364.085,317.55z"/>
<path style="fill:#FFC61B;" d="M325.818,370.335c-1.24,0-2.499-0.044-3.74-0.129c-26.103-1.813-47.136-22.866-48.92-48.972
	c-1.012-14.805,3.988-28.91,14.08-39.715c9.949-10.652,24.01-16.761,38.579-16.761c29.107,0,52.787,23.683,52.787,52.795
	C378.605,346.656,354.925,370.335,325.818,370.335z M325.816,293.792c-6.651,0-12.815,2.679-17.359,7.544
	c-4.54,4.862-6.789,11.224-6.331,17.915c0.801,11.72,10.244,21.173,21.964,21.987c13.872,0.97,25.479-10.019,25.479-23.688
	C349.569,304.451,338.914,293.792,325.816,293.792z"/>
<path style="fill:#FEE187;" d="M197.508,151.582c-25.254-6.739-51.192,8.178-57.951,33.333c-6.767,25.15,8.211,51.002,33.452,57.741
	c25.247,6.726,51.198-8.193,57.957-33.335C237.731,184.174,222.741,158.322,197.508,151.582L197.508,151.582z"/>
<path style="fill:#FFC61B;" d="M185.278,258.787c-0.001,0-0.001,0-0.003,0c-5.383,0-10.767-0.708-16.002-2.102
	c-15.994-4.271-29.345-14.499-37.602-28.802c-8.229-14.254-10.406-30.854-6.132-46.739c7.23-26.905,31.774-45.698,59.686-45.698
	c5.389,0,10.783,0.71,16.028,2.109c15.99,4.271,29.342,14.502,37.602,28.809c8.227,14.252,10.405,30.849,6.134,46.729
	C237.753,239.997,213.2,258.787,185.278,258.787z M185.222,164.48c-14.804,0-27.816,9.952-31.646,24.201
	c-2.258,8.391-1.106,17.156,3.239,24.683c4.374,7.577,11.455,12.998,19.938,15.263c2.792,0.743,5.661,1.122,8.522,1.122
	c14.817,0,27.841-9.951,31.671-24.199c2.256-8.384,1.103-17.146-3.24-24.673c-4.377-7.581-11.459-13.005-19.945-15.271
	C190.958,164.86,188.085,164.48,185.222,164.48z"/>
<path style="fill:#FEE187;" d="M228.368,334.686c0,15.152-12.288,27.443-27.443,27.443c-15.16,0-27.451-12.291-27.451-27.443
	c0-15.163,12.291-27.451,27.451-27.451C216.079,307.235,228.368,319.523,228.368,334.686L228.368,334.686z"/>
<path style="fill:#FFC61B;" d="M200.925,376.646c-23.142,0-41.969-18.823-41.969-41.96c0-23.142,18.827-41.969,41.969-41.969
	c23.137,0,41.961,18.827,41.961,41.969C242.886,357.823,224.062,376.646,200.925,376.646z M200.925,321.753
	c-7.131,0-12.933,5.801-12.933,12.933c0,7.127,5.801,12.924,12.933,12.924c7.127,0,12.925-5.798,12.925-12.924
	C213.85,327.555,208.052,321.753,200.925,321.753z"/>
</svg>