<?xml version="1.0" encoding="iso-8859-1"?>
<!-- Uploaded to: SVG Repo, www.svgrepo.com, Generator: SVG Repo Mixer Tools -->
<svg height="800px" width="800px" version="1.1" id="Layer_1" xmlns="http://www.w3.org/2000/svg" xmlns:xlink="http://www.w3.org/1999/xlink" 
	 viewBox="0 0 512 512" xml:space="preserve">
<g>
	<path style="fill:#FFC61B;" d="M256.001,512c-5.737,0-10.932-3.387-13.245-8.635L186.65,376.12L48.399,391.153
		c-5.699,0.622-11.234-2.186-14.101-7.152c-2.868-4.968-2.532-11.159,0.856-15.788l35.461-48.439
		c4.723-6.452,13.781-7.853,20.232-3.13c6.45,4.722,7.852,13.781,3.13,20.231l-16.069,21.951l116.147-12.63
		c6.278-0.686,12.265,2.776,14.81,8.551l47.137,106.903l47.137-106.903c2.546-5.773,8.545-9.232,14.81-8.551l116.147,12.63
		l-69.013-94.272c-4.722-6.45-3.321-15.508,3.13-20.231c6.45-4.723,15.509-3.322,20.232,3.13l88.405,120.762
		c3.387,4.628,3.723,10.82,0.856,15.788c-2.868,4.968-8.394,7.778-14.101,7.152l-138.251-15.033l-56.106,127.245
		C266.931,508.613,261.736,512,256.001,512z"/>
	<path style="fill:#FFC61B;" d="M135.25,270.476c-4.458,0-8.856-2.051-11.692-5.926L35.152,143.788
		c-3.387-4.628-3.723-10.82-0.856-15.788c2.868-4.968,8.386-7.773,14.101-7.152l138.251,15.033L242.754,8.635
		C245.069,3.387,250.264,0,256.001,0c5.737,0,10.932,3.387,13.245,8.635l56.106,127.245l138.251-15.033
		c5.692-0.621,11.233,2.184,14.101,7.152c2.868,4.968,2.532,11.159-0.855,15.788l-35.461,48.439
		c-4.725,6.452-13.779,7.853-20.232,3.13c-6.45-4.722-7.852-13.781-3.13-20.231l16.069-21.951l-116.147,12.63
		c-6.272,0.683-12.267-2.778-14.81-8.551L256.001,50.352l-47.137,106.903c-2.545,5.773-8.535,9.234-14.81,8.551l-116.147-12.63
		l69.013,94.272c4.722,6.45,3.321,15.508-3.13,20.231C141.213,269.567,138.216,270.476,135.25,270.476z"/>
</g>
<polygon style="fill:#FEE187;" points="229.458,301.971 164.06,309.082 202.918,256.001 164.06,202.918 229.458,210.029 
	256.001,149.835 282.542,210.029 347.942,202.918 309.082,256.001 347.942,309.082 282.542,301.971 256.001,362.166 "/>
<path style="fill:#FFC61B;" d="M256.001,376.641c-5.737,0-10.932-3.387-13.245-8.635l-22.266-50.499l-54.864,5.965
	c-5.698,0.622-11.234-2.186-14.101-7.152c-2.868-4.968-2.532-11.159,0.855-15.788l32.6-44.531l-32.6-44.531
	c-3.387-4.628-3.723-10.82-0.855-15.788c2.866-4.968,8.389-7.776,14.101-7.152l54.864,5.965l22.265-50.499
	c2.315-5.247,7.51-8.635,13.245-8.635s10.932,3.387,13.245,8.635l22.266,50.499l54.864-5.965c5.692-0.622,11.233,2.184,14.101,7.152
	c2.868,4.968,2.532,11.159-0.856,15.788l-32.6,44.531l32.6,44.531c3.387,4.628,3.723,10.82,0.856,15.788
	c-2.868,4.968-8.381,7.772-14.101,7.152l-54.864-5.965l-22.266,50.499C266.931,373.254,261.736,376.641,256.001,376.641z
	 M229.464,287.494c5.683,0,10.907,3.347,13.239,8.636l13.297,30.157l13.297-30.157c2.548-5.773,8.536-9.228,14.81-8.551
	l32.761,3.562l-19.467-26.591c-3.726-5.091-3.726-12.009,0-17.1l19.467-26.591l-32.761,3.562c-6.274,0.688-12.265-2.776-14.81-8.551
	l-13.297-30.157l-13.297,30.157c-2.546,5.773-8.542,9.238-14.81,8.551l-32.761-3.562l19.467,26.591c3.726,5.091,3.726,12.009,0,17.1
	l-19.467,26.591l32.761-3.562C228.419,287.523,228.943,287.494,229.464,287.494z"/>
</svg>